<svg width="1440" height="2629" viewBox="0 0 1440 2629" fill="none" xmlns="http://www.w3.org/2000/svg">
<g clip-path="url(#clip0)">
<rect width="1440" height="2629" fill="url(#paint0_linear)"/>
<path d="M-21.8715 1541.99V1442.98C-21.8715 1442.98 -116.073 1415.24 18.1042 1408.22C124.033 1402.68 187.413 1452.91 286.391 1432.98C355.282 1419.1 423.649 1379.35 497.769 1379.35C652.237 1379.35 662.747 1434.95 778.25 1432.98C881.608 1431.21 955.342 1397.04 1058.73 1395.85C1244.95 1393.7 1273.37 1468.32 1446.13 1432.98C1539.42 1413.89 1422.21 1558.26 1452.94 1584.02C1462.75 1584.87 1472.67 1585.42 1482.71 1585.61C1467.46 1589.34 1458.11 1588.36 1452.94 1584.02C1353.96 1575.53 1265.81 1537.5 1164.42 1536.11C1043.98 1534.46 991.957 1581.55 871.744 1585.61C721.144 1590.71 595.327 1536.11 497.769 1536.11C400.21 1536.11 118.844 1550.61 -21.8715 1541.99Z" fill="url(#paint1_linear)" fill-opacity="0.6"/>
<path d="M733.675 933.921C707.002 919.725 725.675 909.213 673.675 884.379C621.675 859.544 886.888 812.958 1006.19 805.936C1100.37 800.391 1156.73 850.658 1244.73 830.707C1305.99 816.821 1366.77 777.036 1432.68 777.036V933.921C1345.93 933.921 1246.96 992.095 1121.85 983.464C1033.89 977.397 1000.68 931.131 912.218 933.921C834.055 936.387 795.637 966.899 733.675 933.921Z" fill="url(#paint2_linear)" fill-opacity="0.6"/>
<path d="M513.576 2220.46C540.197 2234.76 521.484 2245.2 573.392 2270.24C625.3 2295.28 359.917 2340.82 240.591 2347.38C146.386 2352.55 90.2187 2302.06 2.14081 2321.67C-59.1632 2335.32 -120.097 2374.86 -185.999 2374.6L-185.419 2217.72C-98.6772 2218.06 0.507681 2160.27 125.59 2169.4C213.525 2175.81 246.562 2222.21 335.034 2219.76C413.206 2217.6 451.736 2187.24 513.576 2220.46Z" fill="url(#paint3_linear)" fill-opacity="0.6"/>
<ellipse cx="1340" cy="120.578" rx="2" ry="2.57839" fill="white"/>
<ellipse cx="1206" cy="247.951" rx="2" ry="2.06271" fill="white"/>
<ellipse cx="1209" cy="428.438" rx="2" ry="2.06271" fill="white"/>
<ellipse cx="769.001" cy="217.526" rx="2" ry="2.57839" fill="white"/>
<ellipse cx="891.501" cy="154.613" rx="2.5" ry="2.57839" fill="white"/>
<ellipse cx="498.501" cy="643.991" rx="2.5" ry="2.06271" fill="white"/>
<ellipse cx="762.001" cy="679.573" rx="2" ry="2.57839" fill="white"/>
<ellipse cx="973.501" cy="651.21" rx="2.5" ry="3.09406" fill="white"/>
<ellipse cx="168.495" cy="604.284" rx="2.5" ry="2.57839" fill="white"/>
<ellipse cx="274.495" cy="639.35" rx="2.5" ry="2.57839" fill="white"/>
<ellipse cx="541.001" cy="526.416" rx="2" ry="2.06271" fill="white"/>
<ellipse cx="821.501" cy="372.229" rx="2.5" ry="2.57839" fill="white"/>
<ellipse cx="377.001" cy="950.819" rx="2" ry="2.57839" fill="white"/>
<ellipse cx="888.501" cy="2014.66" rx="2.5" ry="2.06271" fill="white"/>
<ellipse cx="536.501" cy="873.467" rx="2.5" ry="2.57839" fill="white"/>
<ellipse cx="233.495" cy="1184.94" rx="2.5" ry="2.57839" fill="white"/>
<ellipse cx="55.4951" cy="1673.8" rx="2.5" ry="2.57839" fill="white"/>
<ellipse cx="713.501" cy="1728.98" rx="2.5" ry="2.06271" fill="white"/>
<ellipse cx="1196.5" cy="1818.19" rx="2.5" ry="2.57839" fill="white"/>
<ellipse cx="475.001" cy="2125.53" rx="2" ry="2.57839" fill="white"/>
<ellipse cx="854.001" cy="2291.58" rx="2" ry="2.57839" fill="white"/>
<ellipse cx="1070" cy="2355.52" rx="2" ry="2.57839" fill="white"/>
<ellipse cx="1048" cy="2451.44" rx="2" ry="2.57839" fill="white"/>
<ellipse cx="1214" cy="2451.44" rx="2" ry="2.57839" fill="white"/>
<ellipse cx="982.001" cy="2128.63" rx="2" ry="2.57839" fill="white"/>
<ellipse cx="1218" cy="2582.42" rx="2" ry="2.57839" fill="white"/>
<ellipse cx="138.495" cy="1905.85" rx="2.5" ry="2.57839" fill="white"/>
<ellipse cx="1036.5" cy="1224.13" rx="2.5" ry="2.57839" fill="white"/>
<ellipse cx="503.501" cy="1823.34" rx="2.5" ry="2.57839" fill="white"/>
<ellipse cx="93.4951" cy="1769.71" rx="2.5" ry="2.57839" fill="white"/>
<ellipse cx="173.495" cy="1058.08" rx="2.5" ry="2.57839" fill="white"/>
<ellipse cx="1162.5" cy="860.06" rx="2.5" ry="2.57839" fill="white"/>
<ellipse cx="1335.5" cy="1249.91" rx="2.5" ry="2.57839" fill="white"/>
<ellipse cx="276.995" cy="863.154" rx="2" ry="2.57839" fill="white"/>
<ellipse cx="850.001" cy="1430.91" rx="2" ry="2.06271" fill="white"/>
<ellipse cx="145.495" cy="217.526" rx="2.5" ry="2.57839" fill="white"/>
<ellipse cx="238.495" cy="151.519" rx="2.5" ry="2.57839" fill="white"/>
<ellipse cx="278.995" cy="332.006" rx="2" ry="2.57839" fill="white"/>
<ellipse cx="468.001" cy="173.177" rx="2" ry="2.57839" fill="white"/>
<ellipse cx="1062" cy="367.588" rx="2" ry="2.06271" fill="white"/>
<ellipse cx="1100.5" cy="146.878" rx="2.5" ry="2.06271" fill="white"/>
<ellipse cx="1158" cy="648.116" rx="2" ry="2.06271" fill="white"/>
<ellipse cx="1344.5" cy="288.173" rx="2.5" ry="2.06271" fill="white"/>
<ellipse cx="1342.5" cy="599.127" rx="2.5" ry="2.57839" fill="white"/>
<path d="M101.401 481.726C28.4396 473.224 51.4199 486.14 -22.0052 481.726L-10.0052 382.63C28.7609 364.616 102.533 403.181 247.259 378.606C391.985 354.031 509.247 379.663 535.842 424.945C562.437 470.228 148.9 487.261 101.401 481.726Z" fill="url(#paint4_linear)" fill-opacity="0.5"/>
<path d="M1552.3 1225.4C1552.52 1225.24 1552.57 1224.93 1552.4 1224.7L1549.73 1221.08C1549.57 1220.86 1549.26 1220.81 1549.04 1220.97C1548.81 1221.14 1548.77 1221.45 1548.93 1221.67L1551.3 1224.89L1548.08 1227.27C1547.86 1227.43 1547.81 1227.74 1547.97 1227.96C1548.14 1228.19 1548.45 1228.23 1548.67 1228.07L1552.3 1225.4ZM1439.92 1208.49L1551.92 1225.49L1552.08 1224.51L1440.08 1207.51L1439.92 1208.49Z" fill="black"/>
<g filter="url(#filter0_d)">
<path d="M348 1528.68L732 1336L1100 1549.18V1979.63L732 2201L348 1955.03V1528.68Z" stroke="url(#paint5_linear)" stroke-width="3"/>
</g>
<g filter="url(#filter1_d)">
<path d="M318 1511.16L732.128 1304L1129 1533.19V1995.99L732.128 2234L318 1969.55V1511.16Z" stroke="url(#paint6_linear)" stroke-width="3"/>
</g>
<g filter="url(#filter2_d)">
<path d="M348 597.678L732 405L1100 618.175V1048.63L732 1270L348 1024.03V597.678Z" stroke="url(#paint7_linear)" stroke-width="3" style="mix-blend-mode:color-dodge"/>
</g>
<g filter="url(#filter3_d)">
<path d="M318 582.156L732.128 375L1129 604.194V1066.99L732.128 1305L318 1040.55V582.156Z" stroke="url(#paint8_linear)" stroke-width="3" style="mix-blend-mode:color-dodge"/>
</g>
</g>
<defs>
<filter id="filter0_d" x="342.5" y="1334.3" width="763" height="876.469" filterUnits="userSpaceOnUse" color-interpolation-filters="sRGB">
<feFlood flood-opacity="0" result="BackgroundImageFix"/>
<feColorMatrix in="SourceAlpha" type="matrix" values="0 0 0 0 0 0 0 0 0 0 0 0 0 0 0 0 0 0 127 0"/>
<feOffset dy="4"/>
<feGaussianBlur stdDeviation="2"/>
<feColorMatrix type="matrix" values="0 0 0 0 0 0 0 0 0 0 0 0 0 0 0 0 0 0 0.25 0"/>
<feBlend mode="normal" in2="BackgroundImageFix" result="effect1_dropShadow"/>
<feBlend mode="normal" in="SourceGraphic" in2="effect1_dropShadow" result="shape"/>
</filter>
<filter id="filter1_d" x="312.5" y="1302.3" width="822" height="941.467" filterUnits="userSpaceOnUse" color-interpolation-filters="sRGB">
<feFlood flood-opacity="0" result="BackgroundImageFix"/>
<feColorMatrix in="SourceAlpha" type="matrix" values="0 0 0 0 0 0 0 0 0 0 0 0 0 0 0 0 0 0 127 0"/>
<feOffset dy="4"/>
<feGaussianBlur stdDeviation="2"/>
<feColorMatrix type="matrix" values="0 0 0 0 0 0 0 0 0 0 0 0 0 0 0 0 0 0 0.25 0"/>
<feBlend mode="normal" in2="BackgroundImageFix" result="effect1_dropShadow"/>
<feBlend mode="normal" in="SourceGraphic" in2="effect1_dropShadow" result="shape"/>
</filter>
<filter id="filter2_d" x="342.5" y="403.296" width="763" height="876.469" filterUnits="userSpaceOnUse" color-interpolation-filters="sRGB">
<feFlood flood-opacity="0" result="BackgroundImageFix"/>
<feColorMatrix in="SourceAlpha" type="matrix" values="0 0 0 0 0 0 0 0 0 0 0 0 0 0 0 0 0 0 127 0"/>
<feOffset dy="4"/>
<feGaussianBlur stdDeviation="2"/>
<feColorMatrix type="matrix" values="0 0 0 0 0 0 0 0 0 0 0 0 0 0 0 0 0 0 0.25 0"/>
<feBlend mode="normal" in2="BackgroundImageFix" result="effect1_dropShadow"/>
<feBlend mode="normal" in="SourceGraphic" in2="effect1_dropShadow" result="shape"/>
</filter>
<filter id="filter3_d" x="312.5" y="373.297" width="822" height="941.467" filterUnits="userSpaceOnUse" color-interpolation-filters="sRGB">
<feFlood flood-opacity="0" result="BackgroundImageFix"/>
<feColorMatrix in="SourceAlpha" type="matrix" values="0 0 0 0 0 0 0 0 0 0 0 0 0 0 0 0 0 0 127 0"/>
<feOffset dy="4"/>
<feGaussianBlur stdDeviation="2"/>
<feColorMatrix type="matrix" values="0 0 0 0 0 0 0 0 0 0 0 0 0 0 0 0 0 0 0.25 0"/>
<feBlend mode="normal" in2="BackgroundImageFix" result="effect1_dropShadow"/>
<feBlend mode="normal" in="SourceGraphic" in2="effect1_dropShadow" result="shape"/>
</filter>
<linearGradient id="paint0_linear" x1="720" y1="-116.645" x2="720" y2="2719.55" gradientUnits="userSpaceOnUse">
<stop stop-color="#0058B1"/>
<stop offset="0.514803" stop-color="#278CB2"/>
<stop offset="1" stop-color="#002736"/>
</linearGradient>
<linearGradient id="paint1_linear" x1="1146.13" y1="1358.56" x2="1146.13" y2="1586.65" gradientUnits="userSpaceOnUse">
<stop stop-color="white" stop-opacity="0.33"/>
<stop offset="1" stop-color="white" stop-opacity="0"/>
</linearGradient>
<linearGradient id="paint2_linear" x1="2009.15" y1="756.231" x2="2009.15" y2="984.496" gradientUnits="userSpaceOnUse">
<stop stop-color="white" stop-opacity="0.33"/>
<stop offset="1" stop-color="white" stop-opacity="0"/>
</linearGradient>
<linearGradient id="paint3_linear" x1="-762.55" y1="2393.14" x2="-761.653" y2="2164.88" gradientUnits="userSpaceOnUse">
<stop stop-color="white" stop-opacity="0.33"/>
<stop offset="1" stop-color="white" stop-opacity="0"/>
</linearGradient>
<linearGradient id="paint4_linear" x1="-686.868" y1="350.461" x2="-694.969" y2="447.605" gradientUnits="userSpaceOnUse">
<stop stop-color="white" stop-opacity="0.33"/>
<stop offset="1" stop-color="white" stop-opacity="0"/>
</linearGradient>
<linearGradient id="paint5_linear" x1="724" y1="1336" x2="724" y2="2201" gradientUnits="userSpaceOnUse">
<stop stop-color="#FFFDFD" stop-opacity="0"/>
<stop offset="0.677457" stop-color="#FFFDFD"/>
</linearGradient>
<linearGradient id="paint6_linear" x1="740" y1="1062" x2="723.5" y2="2234" gradientUnits="userSpaceOnUse">
<stop offset="0.272623" stop-color="#FFFDFD" stop-opacity="0"/>
<stop offset="0.311828" stop-color="#FFFDFD"/>
</linearGradient>
<linearGradient id="paint7_linear" x1="724" y1="405" x2="724" y2="1270" gradientUnits="userSpaceOnUse">
<stop offset="0.584217" stop-color="#FFFDFD"/>
<stop offset="1" stop-color="#FFFDFD" stop-opacity="0"/>
</linearGradient>
<linearGradient id="paint8_linear" x1="723.5" y1="375" x2="723.5" y2="1246.87" gradientUnits="userSpaceOnUse">
<stop offset="0.855042" stop-color="#FFFDFD"/>
<stop offset="1" stop-color="#FFFDFD" stop-opacity="0"/>
</linearGradient>
<clipPath id="clip0">
<rect width="1440" height="2629" fill="white"/>
</clipPath>
</defs>
</svg>
