<svg width="1440" height="2629" viewBox="0 0 1440 2629" fill="none" xmlns="http://www.w3.org/2000/svg">
<g clip-path="url(#clip0)">
<rect width="1440" height="2629" fill="url(#paint0_linear)"/>
<path d="M-14.8666 1504.99V1405.98C-14.8666 1405.98 -109.068 1378.24 25.1091 1371.22C131.038 1365.68 194.418 1415.91 293.396 1395.98C362.287 1382.1 430.654 1342.35 504.773 1342.35C659.242 1342.35 669.752 1397.95 785.255 1395.98C888.613 1394.21 962.347 1360.04 1065.74 1358.85C1251.96 1356.7 1280.38 1431.32 1453.13 1395.98C1546.43 1376.89 1429.21 1521.26 1459.94 1547.02C1469.75 1547.87 1479.67 1548.42 1489.72 1548.61C1474.47 1552.34 1465.11 1551.36 1459.94 1547.02C1360.97 1538.53 1272.82 1500.5 1171.43 1499.11C1050.99 1497.46 998.962 1544.55 878.749 1548.61C728.149 1553.71 602.332 1499.11 504.773 1499.11C407.215 1499.11 125.849 1513.61 -14.8666 1504.99Z" fill="url(#paint1_linear)" fill-opacity="0.6"/>
<path d="M740.677 896.921C714.003 882.725 732.677 872.213 680.677 847.379C628.677 822.544 893.89 775.958 1013.19 768.936C1107.38 763.391 1163.73 813.658 1251.73 793.707C1312.99 779.821 1373.77 740.036 1439.68 740.036V896.921C1352.93 896.921 1253.96 955.095 1128.85 946.464C1040.89 940.397 1007.68 894.131 919.22 896.921C841.057 899.387 802.639 929.899 740.677 896.921Z" fill="url(#paint2_linear)" fill-opacity="0.6"/>
<path d="M520.577 2183.46C547.198 2197.76 528.486 2208.2 580.394 2233.24C632.302 2258.28 366.919 2303.82 247.592 2310.38C153.387 2315.55 97.2204 2265.06 9.14252 2284.67C-52.1615 2298.32 -113.096 2337.86 -178.997 2337.6L-178.418 2180.72C-91.6755 2181.06 7.50939 2123.27 132.592 2132.4C220.526 2138.81 253.564 2185.21 342.036 2182.76C420.207 2180.6 458.738 2150.24 520.577 2183.46Z" fill="url(#paint3_linear)" fill-opacity="0.6"/>
<ellipse cx="1347" cy="83.5784" rx="2" ry="2.57839" fill="white"/>
<ellipse cx="1213" cy="210.951" rx="2" ry="2.06271" fill="white"/>
<ellipse cx="1216" cy="391.438" rx="2" ry="2.06271" fill="white"/>
<ellipse cx="776.003" cy="180.526" rx="2" ry="2.57839" fill="white"/>
<ellipse cx="898.503" cy="117.613" rx="2.5" ry="2.57839" fill="white"/>
<ellipse cx="505.503" cy="606.991" rx="2.5" ry="2.06271" fill="white"/>
<ellipse cx="769.003" cy="642.573" rx="2" ry="2.57839" fill="white"/>
<ellipse cx="980.503" cy="614.21" rx="2.5" ry="3.09406" fill="white"/>
<ellipse cx="175.5" cy="567.284" rx="2.5" ry="2.57839" fill="white"/>
<ellipse cx="281.5" cy="602.35" rx="2.5" ry="2.57839" fill="white"/>
<ellipse cx="548.003" cy="489.416" rx="2" ry="2.06271" fill="white"/>
<ellipse cx="828.503" cy="335.229" rx="2.5" ry="2.57839" fill="white"/>
<ellipse cx="384.003" cy="913.819" rx="2" ry="2.57839" fill="white"/>
<ellipse cx="895.503" cy="1977.66" rx="2.5" ry="2.06271" fill="white"/>
<ellipse cx="543.503" cy="836.467" rx="2.5" ry="2.57839" fill="white"/>
<ellipse cx="240.5" cy="1147.94" rx="2.5" ry="2.57839" fill="white"/>
<ellipse cx="62.5" cy="1636.8" rx="2.5" ry="2.57839" fill="white"/>
<ellipse cx="720.503" cy="1691.98" rx="2.5" ry="2.06271" fill="white"/>
<ellipse cx="1203.5" cy="1781.19" rx="2.5" ry="2.57839" fill="white"/>
<ellipse cx="482.003" cy="2088.53" rx="2" ry="2.57839" fill="white"/>
<ellipse cx="861.003" cy="2254.58" rx="2" ry="2.57839" fill="white"/>
<ellipse cx="1077" cy="2318.52" rx="2" ry="2.57839" fill="white"/>
<ellipse cx="1055" cy="2414.44" rx="2" ry="2.57839" fill="white"/>
<ellipse cx="1221" cy="2414.44" rx="2" ry="2.57839" fill="white"/>
<ellipse cx="989.003" cy="2091.63" rx="2" ry="2.57839" fill="white"/>
<ellipse cx="1225" cy="2545.42" rx="2" ry="2.57839" fill="white"/>
<ellipse cx="145.5" cy="1868.85" rx="2.5" ry="2.57839" fill="white"/>
<ellipse cx="1043.5" cy="1187.13" rx="2.5" ry="2.57839" fill="white"/>
<ellipse cx="510.503" cy="1786.34" rx="2.5" ry="2.57839" fill="white"/>
<ellipse cx="100.5" cy="1732.71" rx="2.5" ry="2.57839" fill="white"/>
<ellipse cx="180.5" cy="1021.08" rx="2.5" ry="2.57839" fill="white"/>
<ellipse cx="1169.5" cy="823.06" rx="2.5" ry="2.57839" fill="white"/>
<ellipse cx="1342.5" cy="1212.91" rx="2.5" ry="2.57839" fill="white"/>
<ellipse cx="284" cy="826.154" rx="2" ry="2.57839" fill="white"/>
<ellipse cx="857.003" cy="1393.91" rx="2" ry="2.06271" fill="white"/>
<ellipse cx="152.5" cy="180.526" rx="2.5" ry="2.57839" fill="white"/>
<ellipse cx="245.5" cy="114.519" rx="2.5" ry="2.57839" fill="white"/>
<ellipse cx="286" cy="295.006" rx="2" ry="2.57839" fill="white"/>
<ellipse cx="475.003" cy="136.177" rx="2" ry="2.57839" fill="white"/>
<ellipse cx="1069" cy="330.588" rx="2" ry="2.06271" fill="white"/>
<ellipse cx="1107.5" cy="109.878" rx="2.5" ry="2.06271" fill="white"/>
<ellipse cx="1165" cy="611.116" rx="2" ry="2.06271" fill="white"/>
<ellipse cx="1351.5" cy="251.173" rx="2.5" ry="2.06271" fill="white"/>
<ellipse cx="1349.5" cy="562.127" rx="2.5" ry="2.57839" fill="white"/>
<path d="M108.407 444.726C35.445 436.224 58.4253 449.14 -14.9998 444.726L-2.99982 345.63C35.7663 327.616 109.539 366.181 254.264 341.606C398.99 317.031 516.253 342.663 542.847 387.945C569.442 433.228 155.905 450.261 108.407 444.726Z" fill="url(#paint4_linear)" fill-opacity="0.5"/>
<path d="M1552.3 1225.4C1552.52 1225.24 1552.57 1224.93 1552.4 1224.7L1549.73 1221.08C1549.57 1220.86 1549.26 1220.81 1549.04 1220.97C1548.81 1221.14 1548.77 1221.45 1548.93 1221.67L1551.3 1224.89L1548.08 1227.27C1547.86 1227.43 1547.81 1227.74 1547.97 1227.96C1548.14 1228.19 1548.45 1228.23 1548.67 1228.07L1552.3 1225.4ZM1439.92 1208.49L1551.92 1225.49L1552.08 1224.51L1440.08 1207.51L1439.92 1208.49Z" fill="black"/>
<g filter="url(#filter0_d)">
<path d="M348 1528.68L732 1336L1100 1549.18V1979.63L732 2201L348 1955.03V1528.68Z" stroke="url(#paint5_linear)" stroke-width="3"/>
</g>
<g filter="url(#filter1_d)">
<path d="M318 1511.16L732.128 1304L1129 1533.19V1995.99L732.128 2234L318 1969.55V1511.16Z" stroke="url(#paint6_linear)" stroke-width="3"/>
</g>
<g filter="url(#filter2_d)">
<path d="M348 597.678L732 405L1100 618.175V1048.63L732 1270L348 1024.03V597.678Z" stroke="url(#paint7_linear)" stroke-width="3" style="mix-blend-mode:color-dodge"/>
</g>
<g filter="url(#filter3_d)">
<path d="M318 582.156L732.128 375L1129 604.194V1066.99L732.128 1305L318 1040.55V582.156Z" stroke="url(#paint8_linear)" stroke-width="3" style="mix-blend-mode:color-dodge"/>
</g>
</g>
<defs>
<filter id="filter0_d" x="342.5" y="1334.3" width="763" height="876.469" filterUnits="userSpaceOnUse" color-interpolation-filters="sRGB">
<feFlood flood-opacity="0" result="BackgroundImageFix"/>
<feColorMatrix in="SourceAlpha" type="matrix" values="0 0 0 0 0 0 0 0 0 0 0 0 0 0 0 0 0 0 127 0"/>
<feOffset dy="4"/>
<feGaussianBlur stdDeviation="2"/>
<feColorMatrix type="matrix" values="0 0 0 0 0 0 0 0 0 0 0 0 0 0 0 0 0 0 0.25 0"/>
<feBlend mode="normal" in2="BackgroundImageFix" result="effect1_dropShadow"/>
<feBlend mode="normal" in="SourceGraphic" in2="effect1_dropShadow" result="shape"/>
</filter>
<filter id="filter1_d" x="312.5" y="1302.3" width="822" height="941.467" filterUnits="userSpaceOnUse" color-interpolation-filters="sRGB">
<feFlood flood-opacity="0" result="BackgroundImageFix"/>
<feColorMatrix in="SourceAlpha" type="matrix" values="0 0 0 0 0 0 0 0 0 0 0 0 0 0 0 0 0 0 127 0"/>
<feOffset dy="4"/>
<feGaussianBlur stdDeviation="2"/>
<feColorMatrix type="matrix" values="0 0 0 0 0 0 0 0 0 0 0 0 0 0 0 0 0 0 0.25 0"/>
<feBlend mode="normal" in2="BackgroundImageFix" result="effect1_dropShadow"/>
<feBlend mode="normal" in="SourceGraphic" in2="effect1_dropShadow" result="shape"/>
</filter>
<filter id="filter2_d" x="342.5" y="403.296" width="763" height="876.469" filterUnits="userSpaceOnUse" color-interpolation-filters="sRGB">
<feFlood flood-opacity="0" result="BackgroundImageFix"/>
<feColorMatrix in="SourceAlpha" type="matrix" values="0 0 0 0 0 0 0 0 0 0 0 0 0 0 0 0 0 0 127 0"/>
<feOffset dy="4"/>
<feGaussianBlur stdDeviation="2"/>
<feColorMatrix type="matrix" values="0 0 0 0 0 0 0 0 0 0 0 0 0 0 0 0 0 0 0.25 0"/>
<feBlend mode="normal" in2="BackgroundImageFix" result="effect1_dropShadow"/>
<feBlend mode="normal" in="SourceGraphic" in2="effect1_dropShadow" result="shape"/>
</filter>
<filter id="filter3_d" x="312.5" y="373.297" width="822" height="941.467" filterUnits="userSpaceOnUse" color-interpolation-filters="sRGB">
<feFlood flood-opacity="0" result="BackgroundImageFix"/>
<feColorMatrix in="SourceAlpha" type="matrix" values="0 0 0 0 0 0 0 0 0 0 0 0 0 0 0 0 0 0 127 0"/>
<feOffset dy="4"/>
<feGaussianBlur stdDeviation="2"/>
<feColorMatrix type="matrix" values="0 0 0 0 0 0 0 0 0 0 0 0 0 0 0 0 0 0 0.25 0"/>
<feBlend mode="normal" in2="BackgroundImageFix" result="effect1_dropShadow"/>
<feBlend mode="normal" in="SourceGraphic" in2="effect1_dropShadow" result="shape"/>
</filter>
<linearGradient id="paint0_linear" x1="720" y1="-116.645" x2="720" y2="2719.55" gradientUnits="userSpaceOnUse">
<stop stop-color="#B75A3D"/>
<stop offset="0.514803" stop-color="#C73232"/>
<stop offset="1" stop-color="#200000"/>
</linearGradient>
<linearGradient id="paint1_linear" x1="1153.13" y1="1321.56" x2="1153.13" y2="1549.65" gradientUnits="userSpaceOnUse">
<stop stop-color="white" stop-opacity="0.33"/>
<stop offset="1" stop-color="white" stop-opacity="0"/>
</linearGradient>
<linearGradient id="paint2_linear" x1="2016.16" y1="719.231" x2="2016.16" y2="947.496" gradientUnits="userSpaceOnUse">
<stop stop-color="white" stop-opacity="0.33"/>
<stop offset="1" stop-color="white" stop-opacity="0"/>
</linearGradient>
<linearGradient id="paint3_linear" x1="-755.548" y1="2356.14" x2="-754.651" y2="2127.88" gradientUnits="userSpaceOnUse">
<stop stop-color="white" stop-opacity="0.33"/>
<stop offset="1" stop-color="white" stop-opacity="0"/>
</linearGradient>
<linearGradient id="paint4_linear" x1="-679.863" y1="313.461" x2="-687.964" y2="410.605" gradientUnits="userSpaceOnUse">
<stop stop-color="white" stop-opacity="0.33"/>
<stop offset="1" stop-color="white" stop-opacity="0"/>
</linearGradient>
<linearGradient id="paint5_linear" x1="724" y1="1336" x2="724" y2="2201" gradientUnits="userSpaceOnUse">
<stop stop-color="#FFFDFD" stop-opacity="0"/>
<stop offset="0.677457" stop-color="#FFFDFD"/>
</linearGradient>
<linearGradient id="paint6_linear" x1="740" y1="1062" x2="723.5" y2="2234" gradientUnits="userSpaceOnUse">
<stop offset="0.272623" stop-color="#FFFDFD" stop-opacity="0"/>
<stop offset="0.311828" stop-color="#FFFDFD"/>
</linearGradient>
<linearGradient id="paint7_linear" x1="724" y1="405" x2="724" y2="1270" gradientUnits="userSpaceOnUse">
<stop offset="0.584217" stop-color="#FFFDFD"/>
<stop offset="1" stop-color="#FFFDFD" stop-opacity="0"/>
</linearGradient>
<linearGradient id="paint8_linear" x1="723.5" y1="375" x2="723.5" y2="1246.87" gradientUnits="userSpaceOnUse">
<stop offset="0.855042" stop-color="#FFFDFD"/>
<stop offset="1" stop-color="#FFFDFD" stop-opacity="0"/>
</linearGradient>
<clipPath id="clip0">
<rect width="1440" height="2629" fill="white"/>
</clipPath>
</defs>
</svg>
