<svg width="1440" height="2629" viewBox="0 0 1440 2629" fill="none" xmlns="http://www.w3.org/2000/svg">
<g clip-path="url(#clip0)">
<rect width="1440" height="2629" fill="url(#paint0_linear)"/>
<path d="M-73.4754 1504.99V1405.98C-73.4754 1405.98 -171.346 1378.24 -31.9428 1371.22C78.112 1365.68 143.96 1415.91 246.793 1395.98C318.367 1382.1 389.397 1342.35 466.403 1342.35C626.888 1342.35 637.807 1397.95 757.809 1395.98C865.193 1394.21 941.798 1360.04 1049.22 1358.85C1242.69 1356.7 1272.22 1431.32 1451.7 1395.98C1548.63 1376.89 1426.84 1521.26 1458.77 1547.02C1468.97 1547.87 1479.27 1548.42 1489.71 1548.61C1473.86 1552.34 1464.14 1551.36 1458.77 1547.02C1355.95 1538.53 1264.36 1500.5 1159.02 1499.11C1033.89 1497.46 979.84 1544.55 854.945 1548.61C698.479 1553.71 567.762 1499.11 466.403 1499.11C365.045 1499.11 72.7208 1513.61 -73.4754 1504.99Z" fill="url(#paint1_linear)" fill-opacity="0.6"/>
<path d="M711.496 896.921C683.783 882.725 703.184 872.213 649.159 847.379C595.134 822.544 870.676 775.958 994.624 768.936C1092.48 763.391 1151.02 813.658 1242.46 793.707C1306.1 779.821 1369.25 740.036 1437.72 740.036V896.921C1347.6 896.921 1244.77 955.095 1114.79 946.464C1023.4 940.397 988.9 894.131 896.992 896.921C815.785 899.387 775.871 929.899 711.496 896.921Z" fill="url(#paint2_linear)" fill-opacity="0.6"/>
<path d="M482.824 2183.46C510.482 2197.76 491.04 2208.2 544.97 2233.24C598.899 2258.28 323.18 2303.82 199.206 2310.38C101.332 2315.55 42.978 2265.06 -48.5303 2284.67C-112.222 2298.32 -175.529 2337.86 -243.998 2337.6L-243.396 2180.72C-153.275 2181.06 -50.2271 2123.27 79.7268 2132.4C171.086 2138.81 205.411 2185.21 297.328 2182.76C378.545 2180.6 418.576 2150.24 482.824 2183.46Z" fill="url(#paint3_linear)" fill-opacity="0.6"/>
<ellipse cx="1341.44" cy="83.5784" rx="2.0779" ry="2.57839" fill="white"/>
<ellipse cx="1202.22" cy="210.951" rx="2.0779" ry="2.06271" fill="white"/>
<ellipse cx="1205.33" cy="391.438" rx="2.0779" ry="2.06271" fill="white"/>
<ellipse cx="748.197" cy="180.526" rx="2.0779" ry="2.57839" fill="white"/>
<ellipse cx="875.468" cy="117.613" rx="2.59737" ry="2.57839" fill="white"/>
<ellipse cx="467.162" cy="606.991" rx="2.59737" ry="2.06271" fill="white"/>
<ellipse cx="740.925" cy="642.573" rx="2.0779" ry="2.57839" fill="white"/>
<ellipse cx="960.662" cy="614.21" rx="2.59737" ry="3.09406" fill="white"/>
<ellipse cx="124.306" cy="567.284" rx="2.59737" ry="2.57839" fill="white"/>
<ellipse cx="234.434" cy="602.35" rx="2.59737" ry="2.57839" fill="white"/>
<ellipse cx="511.317" cy="489.416" rx="2.0779" ry="2.06271" fill="white"/>
<ellipse cx="802.742" cy="335.229" rx="2.59737" ry="2.57839" fill="white"/>
<ellipse cx="340.929" cy="913.819" rx="2.0779" ry="2.57839" fill="white"/>
<ellipse cx="872.351" cy="1977.66" rx="2.59737" ry="2.06271" fill="white"/>
<ellipse cx="506.641" cy="836.467" rx="2.59737" ry="2.57839" fill="white"/>
<ellipse cx="191.838" cy="1147.94" rx="2.59737" ry="2.57839" fill="white"/>
<ellipse cx="6.90499" cy="1636.8" rx="2.59737" ry="2.57839" fill="white"/>
<ellipse cx="690.536" cy="1691.98" rx="2.59737" ry="2.06271" fill="white"/>
<ellipse cx="1192.35" cy="1781.19" rx="2.59737" ry="2.57839" fill="white"/>
<ellipse cx="442.747" cy="2088.53" rx="2.0779" ry="2.57839" fill="white"/>
<ellipse cx="836.508" cy="2254.58" rx="2.0779" ry="2.57839" fill="white"/>
<ellipse cx="1060.92" cy="2318.52" rx="2.0779" ry="2.57839" fill="white"/>
<ellipse cx="1038.06" cy="2414.44" rx="2.0779" ry="2.57839" fill="white"/>
<ellipse cx="1210.53" cy="2414.44" rx="2.0779" ry="2.57839" fill="white"/>
<ellipse cx="969.493" cy="2091.63" rx="2.0779" ry="2.57839" fill="white"/>
<ellipse cx="1214.68" cy="2545.42" rx="2.0779" ry="2.57839" fill="white"/>
<ellipse cx="93.1374" cy="1868.85" rx="2.59737" ry="2.57839" fill="white"/>
<ellipse cx="1026.12" cy="1187.13" rx="2.59737" ry="2.57839" fill="white"/>
<ellipse cx="472.356" cy="1786.34" rx="2.59737" ry="2.57839" fill="white"/>
<ellipse cx="46.3845" cy="1732.71" rx="2.59737" ry="2.57839" fill="white"/>
<ellipse cx="129.501" cy="1021.08" rx="2.59737" ry="2.57839" fill="white"/>
<ellipse cx="1157.02" cy="823.06" rx="2.59737" ry="2.57839" fill="white"/>
<ellipse cx="1336.76" cy="1212.91" rx="2.59737" ry="2.57839" fill="white"/>
<ellipse cx="237.032" cy="826.154" rx="2.0779" ry="2.57839" fill="white"/>
<ellipse cx="832.351" cy="1393.91" rx="2.0779" ry="2.06271" fill="white"/>
<ellipse cx="100.41" cy="180.526" rx="2.59737" ry="2.57839" fill="white"/>
<ellipse cx="197.032" cy="114.519" rx="2.59737" ry="2.57839" fill="white"/>
<ellipse cx="239.11" cy="295.006" rx="2.0779" ry="2.57839" fill="white"/>
<ellipse cx="435.473" cy="136.177" rx="2.0779" ry="2.57839" fill="white"/>
<ellipse cx="1052.61" cy="330.588" rx="2.0779" ry="2.06271" fill="white"/>
<ellipse cx="1092.61" cy="109.878" rx="2.59737" ry="2.06271" fill="white"/>
<ellipse cx="1152.35" cy="611.116" rx="2.0779" ry="2.06271" fill="white"/>
<ellipse cx="1346.11" cy="251.173" rx="2.59737" ry="2.06271" fill="white"/>
<ellipse cx="1344.03" cy="562.127" rx="2.59737" ry="2.57839" fill="white"/>
<path d="M54.5994 444.726C-21.2039 436.224 2.67144 449.14 -73.6134 444.726L-61.146 345.63C-20.8701 327.616 55.7755 366.181 206.138 341.606C356.5 317.031 478.33 342.663 505.961 387.945C533.591 433.228 103.948 450.261 54.5994 444.726Z" fill="url(#paint4_linear)" fill-opacity="0.5"/>
<path d="M1552.3 1225.4C1552.52 1225.24 1552.57 1224.93 1552.4 1224.7L1549.73 1221.08C1549.57 1220.86 1549.26 1220.81 1549.04 1220.97C1548.81 1221.14 1548.77 1221.45 1548.93 1221.67L1551.3 1224.89L1548.08 1227.27C1547.86 1227.43 1547.81 1227.74 1547.97 1227.96C1548.14 1228.19 1548.45 1228.23 1548.67 1228.07L1552.3 1225.4ZM1439.92 1208.49L1551.92 1225.49L1552.08 1224.51L1440.08 1207.51L1439.92 1208.49Z" fill="black"/>
<g filter="url(#filter0_d)">
<path d="M349.633 1545.84L733.633 1353.16L1101.63 1566.33V1996.78L733.633 2218.16L349.633 1972.19V1545.84Z" stroke="url(#paint5_linear)" stroke-width="3"/>
</g>
<g filter="url(#filter1_d)">
<path d="M319.633 1528.31L733.76 1321.16L1130.63 1550.35V2013.15L733.76 2251.16L319.633 1986.7V1528.31Z" stroke="url(#paint6_linear)" stroke-width="3"/>
</g>
<g filter="url(#filter2_d)">
<path d="M349.633 614.836L733.633 422.158L1101.63 635.333V1065.78L733.633 1287.16L349.633 1041.19V614.836Z" stroke="url(#paint7_linear)" stroke-width="3" style="mix-blend-mode:color-dodge"/>
</g>
<g filter="url(#filter3_d)">
<path d="M319.633 599.314L733.76 392.158L1130.63 621.352V1084.15L733.76 1322.16L319.633 1057.7V599.314Z" stroke="url(#paint8_linear)" stroke-width="3" style="mix-blend-mode:color-dodge"/>
</g>
</g>
<defs>
<filter id="filter0_d" x="344.133" y="1351.45" width="763" height="876.469" filterUnits="userSpaceOnUse" color-interpolation-filters="sRGB">
<feFlood flood-opacity="0" result="BackgroundImageFix"/>
<feColorMatrix in="SourceAlpha" type="matrix" values="0 0 0 0 0 0 0 0 0 0 0 0 0 0 0 0 0 0 127 0"/>
<feOffset dy="4"/>
<feGaussianBlur stdDeviation="2"/>
<feColorMatrix type="matrix" values="0 0 0 0 0 0 0 0 0 0 0 0 0 0 0 0 0 0 0.25 0"/>
<feBlend mode="normal" in2="BackgroundImageFix" result="effect1_dropShadow"/>
<feBlend mode="normal" in="SourceGraphic" in2="effect1_dropShadow" result="shape"/>
</filter>
<filter id="filter1_d" x="314.133" y="1319.46" width="822" height="941.467" filterUnits="userSpaceOnUse" color-interpolation-filters="sRGB">
<feFlood flood-opacity="0" result="BackgroundImageFix"/>
<feColorMatrix in="SourceAlpha" type="matrix" values="0 0 0 0 0 0 0 0 0 0 0 0 0 0 0 0 0 0 127 0"/>
<feOffset dy="4"/>
<feGaussianBlur stdDeviation="2"/>
<feColorMatrix type="matrix" values="0 0 0 0 0 0 0 0 0 0 0 0 0 0 0 0 0 0 0.25 0"/>
<feBlend mode="normal" in2="BackgroundImageFix" result="effect1_dropShadow"/>
<feBlend mode="normal" in="SourceGraphic" in2="effect1_dropShadow" result="shape"/>
</filter>
<filter id="filter2_d" x="344.133" y="420.454" width="763" height="876.469" filterUnits="userSpaceOnUse" color-interpolation-filters="sRGB">
<feFlood flood-opacity="0" result="BackgroundImageFix"/>
<feColorMatrix in="SourceAlpha" type="matrix" values="0 0 0 0 0 0 0 0 0 0 0 0 0 0 0 0 0 0 127 0"/>
<feOffset dy="4"/>
<feGaussianBlur stdDeviation="2"/>
<feColorMatrix type="matrix" values="0 0 0 0 0 0 0 0 0 0 0 0 0 0 0 0 0 0 0.25 0"/>
<feBlend mode="normal" in2="BackgroundImageFix" result="effect1_dropShadow"/>
<feBlend mode="normal" in="SourceGraphic" in2="effect1_dropShadow" result="shape"/>
</filter>
<filter id="filter3_d" x="314.133" y="390.455" width="822" height="941.467" filterUnits="userSpaceOnUse" color-interpolation-filters="sRGB">
<feFlood flood-opacity="0" result="BackgroundImageFix"/>
<feColorMatrix in="SourceAlpha" type="matrix" values="0 0 0 0 0 0 0 0 0 0 0 0 0 0 0 0 0 0 127 0"/>
<feOffset dy="4"/>
<feGaussianBlur stdDeviation="2"/>
<feColorMatrix type="matrix" values="0 0 0 0 0 0 0 0 0 0 0 0 0 0 0 0 0 0 0.25 0"/>
<feBlend mode="normal" in2="BackgroundImageFix" result="effect1_dropShadow"/>
<feBlend mode="normal" in="SourceGraphic" in2="effect1_dropShadow" result="shape"/>
</filter>
<linearGradient id="paint0_linear" x1="720" y1="-116.645" x2="720" y2="2719.55" gradientUnits="userSpaceOnUse">
<stop offset="0.0477387" stop-color="#102224"/>
<stop offset="1" stop-color="#4E5D93"/>
</linearGradient>
<linearGradient id="paint1_linear" x1="1140.01" y1="1321.56" x2="1140.01" y2="1549.65" gradientUnits="userSpaceOnUse">
<stop stop-color="white" stop-opacity="0.33"/>
<stop offset="1" stop-color="white" stop-opacity="0"/>
</linearGradient>
<linearGradient id="paint2_linear" x1="2036.65" y1="719.231" x2="2036.65" y2="947.496" gradientUnits="userSpaceOnUse">
<stop stop-color="white" stop-opacity="0.33"/>
<stop offset="1" stop-color="white" stop-opacity="0"/>
</linearGradient>
<linearGradient id="paint3_linear" x1="-843.004" y1="2356.14" x2="-842.141" y2="2127.88" gradientUnits="userSpaceOnUse">
<stop stop-color="white" stop-opacity="0.33"/>
<stop offset="1" stop-color="white" stop-opacity="0"/>
</linearGradient>
<linearGradient id="paint4_linear" x1="-764.372" y1="313.461" x2="-772.173" y2="410.654" gradientUnits="userSpaceOnUse">
<stop stop-color="white" stop-opacity="0.33"/>
<stop offset="1" stop-color="white" stop-opacity="0"/>
</linearGradient>
<linearGradient id="paint5_linear" x1="725.633" y1="1353.16" x2="725.633" y2="2218.16" gradientUnits="userSpaceOnUse">
<stop stop-color="#FFFDFD" stop-opacity="0"/>
<stop offset="0.677457" stop-color="#FFFDFD"/>
</linearGradient>
<linearGradient id="paint6_linear" x1="741.633" y1="1079.16" x2="725.133" y2="2251.16" gradientUnits="userSpaceOnUse">
<stop offset="0.272623" stop-color="#FFFDFD" stop-opacity="0"/>
<stop offset="0.311828" stop-color="#FFFDFD"/>
</linearGradient>
<linearGradient id="paint7_linear" x1="725.633" y1="422.158" x2="725.633" y2="1287.16" gradientUnits="userSpaceOnUse">
<stop offset="0.584217" stop-color="#FFFDFD"/>
<stop offset="1" stop-color="#FFFDFD" stop-opacity="0"/>
</linearGradient>
<linearGradient id="paint8_linear" x1="725.133" y1="392.158" x2="725.133" y2="1264.03" gradientUnits="userSpaceOnUse">
<stop offset="0.855042" stop-color="#FFFDFD"/>
<stop offset="1" stop-color="#FFFDFD" stop-opacity="0"/>
</linearGradient>
<clipPath id="clip0">
<rect width="1440" height="2629" fill="white"/>
</clipPath>
</defs>
</svg>
