<svg width="1440" height="2629" viewBox="0 0 1440 2629" fill="none" xmlns="http://www.w3.org/2000/svg">
<g clip-path="url(#clip0)">
<rect width="1440" height="2629" fill="url(#paint0_linear)"/>
<path d="M1552.3 1225.4C1552.52 1225.24 1552.57 1224.93 1552.4 1224.7L1549.73 1221.08C1549.57 1220.86 1549.26 1220.81 1549.04 1220.97C1548.81 1221.14 1548.77 1221.45 1548.93 1221.67L1551.3 1224.89L1548.08 1227.27C1547.86 1227.43 1547.81 1227.74 1547.97 1227.96C1548.14 1228.19 1548.45 1228.23 1548.67 1228.07L1552.3 1225.4ZM1439.92 1208.49L1551.92 1225.49L1552.08 1224.51L1440.08 1207.51L1439.92 1208.49Z" fill="black"/>
<path d="M-57.8773 1509.99V1410.98C-57.8773 1410.98 -152.079 1383.24 -17.9017 1376.22C88.0274 1370.68 151.407 1420.91 250.385 1400.98C319.276 1387.1 387.643 1347.35 461.763 1347.35C616.231 1347.35 626.741 1402.95 742.244 1400.98C845.602 1399.21 919.336 1365.04 1022.73 1363.85C1208.95 1361.7 1237.37 1436.32 1410.12 1400.98C1503.42 1381.89 1386.2 1526.26 1416.93 1552.02C1426.74 1552.87 1436.66 1553.42 1446.71 1553.61C1431.46 1557.34 1422.1 1556.36 1416.93 1552.02C1317.96 1543.53 1229.81 1505.5 1128.42 1504.11C1007.98 1502.46 955.952 1549.55 835.738 1553.61C685.138 1558.71 559.322 1504.11 461.763 1504.11C364.204 1504.11 82.8384 1518.61 -57.8773 1509.99Z" fill="url(#paint1_linear)" fill-opacity="0.6"/>
<path d="M697.675 901.921C671.002 887.725 689.675 877.213 637.675 852.379C585.676 827.544 850.889 780.958 970.19 773.936C1064.37 768.391 1120.73 818.658 1208.73 798.707C1269.99 784.821 1330.77 745.036 1396.68 745.036V901.921C1309.93 901.921 1210.96 960.095 1085.85 951.464C997.889 945.397 964.68 899.131 876.218 901.921C798.055 904.387 759.637 934.899 697.675 901.921Z" fill="url(#paint2_linear)" fill-opacity="0.6"/>
<path d="M477.576 2188.46C504.197 2202.76 485.485 2213.2 537.392 2238.24C589.3 2263.28 323.917 2308.82 204.591 2315.38C110.386 2320.55 54.219 2270.06 -33.8589 2289.67C-95.1629 2303.32 -156.097 2342.86 -221.999 2342.6L-221.419 2185.72C-134.677 2186.06 -35.4921 2128.27 89.5902 2137.4C177.525 2143.81 210.563 2190.21 299.034 2187.76C377.206 2185.6 415.736 2155.24 477.576 2188.46Z" fill="url(#paint3_linear)" fill-opacity="0.6"/>
<ellipse cx="1304" cy="88.5784" rx="2" ry="2.57839" fill="white"/>
<ellipse cx="1170" cy="215.951" rx="2" ry="2.06271" fill="white"/>
<ellipse cx="1173" cy="396.438" rx="2" ry="2.06271" fill="white"/>
<ellipse cx="733.001" cy="185.526" rx="2" ry="2.57839" fill="white"/>
<ellipse cx="855.501" cy="122.613" rx="2.5" ry="2.57839" fill="white"/>
<ellipse cx="462.501" cy="611.991" rx="2.5" ry="2.06271" fill="white"/>
<ellipse cx="726.001" cy="647.573" rx="2" ry="2.57839" fill="white"/>
<ellipse cx="937.501" cy="619.21" rx="2.5" ry="3.09406" fill="white"/>
<ellipse cx="132.49" cy="572.284" rx="2.5" ry="2.57839" fill="white"/>
<ellipse cx="238.49" cy="607.35" rx="2.5" ry="2.57839" fill="white"/>
<ellipse cx="505.001" cy="494.416" rx="2" ry="2.06271" fill="white"/>
<ellipse cx="785.501" cy="340.229" rx="2.5" ry="2.57839" fill="white"/>
<ellipse cx="341.001" cy="918.819" rx="2" ry="2.57839" fill="white"/>
<ellipse cx="852.501" cy="1982.66" rx="2.5" ry="2.06271" fill="white"/>
<ellipse cx="500.501" cy="841.467" rx="2.5" ry="2.57839" fill="white"/>
<ellipse cx="197.49" cy="1152.94" rx="2.5" ry="2.57839" fill="white"/>
<ellipse cx="19.4893" cy="1641.8" rx="2.5" ry="2.57839" fill="white"/>
<ellipse cx="677.501" cy="1696.98" rx="2.5" ry="2.06271" fill="white"/>
<ellipse cx="1160.5" cy="1786.19" rx="2.5" ry="2.57839" fill="white"/>
<ellipse cx="439.001" cy="2093.53" rx="2" ry="2.57839" fill="white"/>
<ellipse cx="818.001" cy="2259.58" rx="2" ry="2.57839" fill="white"/>
<ellipse cx="1034" cy="2323.52" rx="2" ry="2.57839" fill="white"/>
<ellipse cx="1012" cy="2419.44" rx="2" ry="2.57839" fill="white"/>
<ellipse cx="1178" cy="2419.44" rx="2" ry="2.57839" fill="white"/>
<ellipse cx="946.001" cy="2096.63" rx="2" ry="2.57839" fill="white"/>
<ellipse cx="1182" cy="2550.42" rx="2" ry="2.57839" fill="white"/>
<ellipse cx="102.49" cy="1873.85" rx="2.5" ry="2.57839" fill="white"/>
<ellipse cx="1000.5" cy="1192.13" rx="2.5" ry="2.57839" fill="white"/>
<ellipse cx="467.501" cy="1791.34" rx="2.5" ry="2.57839" fill="white"/>
<ellipse cx="57.4902" cy="1737.71" rx="2.5" ry="2.57839" fill="white"/>
<ellipse cx="137.49" cy="1026.08" rx="2.5" ry="2.57839" fill="white"/>
<ellipse cx="1126.5" cy="828.06" rx="2.5" ry="2.57839" fill="white"/>
<ellipse cx="1299.5" cy="1217.91" rx="2.5" ry="2.57839" fill="white"/>
<ellipse cx="240.99" cy="831.154" rx="2" ry="2.57839" fill="white"/>
<ellipse cx="814.001" cy="1398.91" rx="2" ry="2.06271" fill="white"/>
<ellipse cx="109.49" cy="185.526" rx="2.5" ry="2.57839" fill="white"/>
<ellipse cx="202.49" cy="119.519" rx="2.5" ry="2.57839" fill="white"/>
<ellipse cx="242.99" cy="300.006" rx="2" ry="2.57839" fill="white"/>
<ellipse cx="432.001" cy="141.177" rx="2" ry="2.57839" fill="white"/>
<ellipse cx="1026" cy="335.588" rx="2" ry="2.06271" fill="white"/>
<ellipse cx="1064.5" cy="114.878" rx="2.5" ry="2.06271" fill="white"/>
<ellipse cx="1122" cy="616.116" rx="2" ry="2.06271" fill="white"/>
<ellipse cx="1308.5" cy="256.173" rx="2.5" ry="2.06271" fill="white"/>
<ellipse cx="1306.5" cy="567.127" rx="2.5" ry="2.57839" fill="white"/>
<path d="M65.3958 449.726C-7.56578 441.224 15.4145 454.14 -58.0106 449.726L-46.0106 350.63C-7.24452 332.616 66.5278 371.181 211.253 346.606C355.979 322.031 473.242 347.663 499.837 392.945C526.432 438.228 112.895 455.261 65.3958 449.726Z" fill="url(#paint4_linear)" fill-opacity="0.5"/>
<g filter="url(#filter0_d)">
<path d="M348 1528.68L732 1336L1100 1549.18V1979.63L732 2201L348 1955.03V1528.68Z" stroke="url(#paint5_linear)" stroke-width="3"/>
</g>
<g filter="url(#filter1_d)">
<path d="M318 1511.16L732.128 1304L1129 1533.19V1995.99L732.128 2234L318 1969.55V1511.16Z" stroke="url(#paint6_linear)" stroke-width="3"/>
</g>
<g filter="url(#filter2_d)">
<path d="M348 597.678L732 405L1100 618.175V1048.63L732 1270L348 1024.03V597.678Z" stroke="url(#paint7_linear)" stroke-width="3" style="mix-blend-mode:color-dodge"/>
</g>
<g filter="url(#filter3_d)">
<path d="M318 582.156L732.128 375L1129 604.194V1066.99L732.128 1305L318 1040.55V582.156Z" stroke="url(#paint8_linear)" stroke-width="3" style="mix-blend-mode:color-dodge"/>
</g>
</g>
<defs>
<filter id="filter0_d" x="342.5" y="1334.3" width="763" height="876.469" filterUnits="userSpaceOnUse" color-interpolation-filters="sRGB">
<feFlood flood-opacity="0" result="BackgroundImageFix"/>
<feColorMatrix in="SourceAlpha" type="matrix" values="0 0 0 0 0 0 0 0 0 0 0 0 0 0 0 0 0 0 127 0"/>
<feOffset dy="4"/>
<feGaussianBlur stdDeviation="2"/>
<feColorMatrix type="matrix" values="0 0 0 0 0 0 0 0 0 0 0 0 0 0 0 0 0 0 0.25 0"/>
<feBlend mode="normal" in2="BackgroundImageFix" result="effect1_dropShadow"/>
<feBlend mode="normal" in="SourceGraphic" in2="effect1_dropShadow" result="shape"/>
</filter>
<filter id="filter1_d" x="312.5" y="1302.3" width="822" height="941.467" filterUnits="userSpaceOnUse" color-interpolation-filters="sRGB">
<feFlood flood-opacity="0" result="BackgroundImageFix"/>
<feColorMatrix in="SourceAlpha" type="matrix" values="0 0 0 0 0 0 0 0 0 0 0 0 0 0 0 0 0 0 127 0"/>
<feOffset dy="4"/>
<feGaussianBlur stdDeviation="2"/>
<feColorMatrix type="matrix" values="0 0 0 0 0 0 0 0 0 0 0 0 0 0 0 0 0 0 0.25 0"/>
<feBlend mode="normal" in2="BackgroundImageFix" result="effect1_dropShadow"/>
<feBlend mode="normal" in="SourceGraphic" in2="effect1_dropShadow" result="shape"/>
</filter>
<filter id="filter2_d" x="342.5" y="403.296" width="763" height="876.469" filterUnits="userSpaceOnUse" color-interpolation-filters="sRGB">
<feFlood flood-opacity="0" result="BackgroundImageFix"/>
<feColorMatrix in="SourceAlpha" type="matrix" values="0 0 0 0 0 0 0 0 0 0 0 0 0 0 0 0 0 0 127 0"/>
<feOffset dy="4"/>
<feGaussianBlur stdDeviation="2"/>
<feColorMatrix type="matrix" values="0 0 0 0 0 0 0 0 0 0 0 0 0 0 0 0 0 0 0.25 0"/>
<feBlend mode="normal" in2="BackgroundImageFix" result="effect1_dropShadow"/>
<feBlend mode="normal" in="SourceGraphic" in2="effect1_dropShadow" result="shape"/>
</filter>
<filter id="filter3_d" x="312.5" y="373.297" width="822" height="941.467" filterUnits="userSpaceOnUse" color-interpolation-filters="sRGB">
<feFlood flood-opacity="0" result="BackgroundImageFix"/>
<feColorMatrix in="SourceAlpha" type="matrix" values="0 0 0 0 0 0 0 0 0 0 0 0 0 0 0 0 0 0 127 0"/>
<feOffset dy="4"/>
<feGaussianBlur stdDeviation="2"/>
<feColorMatrix type="matrix" values="0 0 0 0 0 0 0 0 0 0 0 0 0 0 0 0 0 0 0.25 0"/>
<feBlend mode="normal" in2="BackgroundImageFix" result="effect1_dropShadow"/>
<feBlend mode="normal" in="SourceGraphic" in2="effect1_dropShadow" result="shape"/>
</filter>
<linearGradient id="paint0_linear" x1="720" y1="-116.645" x2="720" y2="2719.55" gradientUnits="userSpaceOnUse">
<stop stop-color="#090010"/>
<stop offset="0.478342" stop-color="#8638C2"/>
<stop offset="1" stop-color="#1F0633"/>
</linearGradient>
<linearGradient id="paint1_linear" x1="1110.12" y1="1326.56" x2="1110.12" y2="1554.65" gradientUnits="userSpaceOnUse">
<stop stop-color="white" stop-opacity="0.33"/>
<stop offset="1" stop-color="white" stop-opacity="0"/>
</linearGradient>
<linearGradient id="paint2_linear" x1="1973.15" y1="724.231" x2="1973.15" y2="952.496" gradientUnits="userSpaceOnUse">
<stop stop-color="white" stop-opacity="0.33"/>
<stop offset="1" stop-color="white" stop-opacity="0"/>
</linearGradient>
<linearGradient id="paint3_linear" x1="-798.549" y1="2361.14" x2="-797.653" y2="2132.88" gradientUnits="userSpaceOnUse">
<stop stop-color="white" stop-opacity="0.33"/>
<stop offset="1" stop-color="white" stop-opacity="0"/>
</linearGradient>
<linearGradient id="paint4_linear" x1="-722.874" y1="318.461" x2="-730.975" y2="415.605" gradientUnits="userSpaceOnUse">
<stop stop-color="white" stop-opacity="0.33"/>
<stop offset="1" stop-color="white" stop-opacity="0"/>
</linearGradient>
<linearGradient id="paint5_linear" x1="724" y1="1336" x2="724" y2="2201" gradientUnits="userSpaceOnUse">
<stop stop-color="#FFFDFD" stop-opacity="0"/>
<stop offset="0.677457" stop-color="#FFFDFD"/>
</linearGradient>
<linearGradient id="paint6_linear" x1="740" y1="1062" x2="723.5" y2="2234" gradientUnits="userSpaceOnUse">
<stop offset="0.272623" stop-color="#FFFDFD" stop-opacity="0"/>
<stop offset="0.311828" stop-color="#FFFDFD"/>
</linearGradient>
<linearGradient id="paint7_linear" x1="724" y1="405" x2="724" y2="1270" gradientUnits="userSpaceOnUse">
<stop offset="0.584217" stop-color="#FFFDFD"/>
<stop offset="1" stop-color="#FFFDFD" stop-opacity="0"/>
</linearGradient>
<linearGradient id="paint8_linear" x1="723.5" y1="375" x2="723.5" y2="1246.87" gradientUnits="userSpaceOnUse">
<stop offset="0.855042" stop-color="#FFFDFD"/>
<stop offset="1" stop-color="#FFFDFD" stop-opacity="0"/>
</linearGradient>
<clipPath id="clip0">
<rect width="1440" height="2629" fill="white"/>
</clipPath>
</defs>
</svg>
