<svg width="1046" height="63" viewBox="0 0 1046 63" fill="none" xmlns="http://www.w3.org/2000/svg">
<path d="M-17 2.87695L1045 1.00003" stroke="url(#paint0_radial)"/>
<path d="M23.44 43.336H24.976V47.704C24.4213 48.1627 23.776 48.5147 23.04 48.76C22.304 49.0053 21.536 49.128 20.736 49.128C19.6053 49.128 18.5867 48.8827 17.68 48.392C16.7733 47.8907 16.0587 47.208 15.536 46.344C15.024 45.4693 14.768 44.488 14.768 43.4C14.768 42.312 15.024 41.3307 15.536 40.456C16.0587 39.5813 16.7733 38.8987 17.68 38.408C18.5973 37.9173 19.6267 37.672 20.768 37.672C21.664 37.672 22.4747 37.8213 23.2 38.12C23.936 38.408 24.56 38.8347 25.072 39.4L24.08 40.392C23.184 39.528 22.1013 39.096 20.832 39.096C19.9787 39.096 19.2107 39.2827 18.528 39.656C17.856 40.0187 17.328 40.5307 16.944 41.192C16.56 41.8427 16.368 42.5787 16.368 43.4C16.368 44.2107 16.56 44.9467 16.944 45.608C17.328 46.2587 17.856 46.7707 18.528 47.144C19.2107 47.5173 19.9733 47.704 20.816 47.704C21.8187 47.704 22.6933 47.464 23.44 46.984V43.336ZM35.1754 46.2H29.2234L27.9914 49H26.3434L31.4154 37.8H32.9994L38.0874 49H36.4074L35.1754 46.2ZM34.6154 44.92L32.1994 39.432L29.7834 44.92H34.6154ZM39.7581 37.8H41.3581V47.608H47.4221V49H39.7581V37.8ZM56.441 46.2H50.489L49.257 49H47.609L52.681 37.8H54.265L59.353 49H57.673L56.441 46.2ZM55.881 44.92L53.465 39.432L51.049 44.92H55.881ZM67.5325 49L64.1725 44.376L60.8605 49H59.0205L63.2285 43.256L59.2765 37.8H61.1005L64.2365 42.104L67.3405 37.8H69.0845L65.1325 43.208L69.3725 49H67.5325ZM75.0618 45.128V49H73.4778V45.096L69.0297 37.8H70.7418L74.3258 43.704L77.9258 37.8H79.5098L75.0618 45.128ZM85.6568 49.128C84.5368 49.128 83.5234 48.8827 82.6168 48.392C81.7208 47.8907 81.0168 47.208 80.5048 46.344C79.9928 45.4693 79.7368 44.488 79.7368 43.4C79.7368 42.312 79.9928 41.336 80.5048 40.472C81.0168 39.5973 81.7261 38.9147 82.6328 38.424C83.5394 37.9227 84.5528 37.672 85.6728 37.672C86.5474 37.672 87.3474 37.8213 88.0728 38.12C88.7981 38.408 89.4168 38.84 89.9288 39.416L88.8888 40.424C88.0461 39.5387 86.9954 39.096 85.7368 39.096C84.9048 39.096 84.1528 39.2827 83.4808 39.656C82.8088 40.0293 82.2808 40.5467 81.8968 41.208C81.5234 41.8587 81.3368 42.5893 81.3368 43.4C81.3368 44.2107 81.5234 44.9467 81.8968 45.608C82.2808 46.2587 82.8088 46.7707 83.4808 47.144C84.1528 47.5173 84.9048 47.704 85.7368 47.704C86.9848 47.704 88.0354 47.256 88.8888 46.36L89.9288 47.368C89.4168 47.944 88.7928 48.3813 88.0568 48.68C87.3314 48.9787 86.5314 49.128 85.6568 49.128ZM99.6993 49L97.2833 45.56C96.9846 45.5813 96.7499 45.592 96.5793 45.592H93.8113V49H92.2113V37.8H96.5793C98.0299 37.8 99.1713 38.1467 100.003 38.84C100.835 39.5333 101.251 40.488 101.251 41.704C101.251 42.568 101.038 43.304 100.611 43.912C100.185 44.52 99.5766 44.9627 98.7873 45.24L101.443 49H99.6993ZM96.5313 44.232C97.5446 44.232 98.3179 44.0133 98.8513 43.576C99.3846 43.1387 99.6513 42.5147 99.6513 41.704C99.6513 40.8933 99.3846 40.2747 98.8513 39.848C98.3179 39.4107 97.5446 39.192 96.5313 39.192H93.8113V44.232H96.5313ZM108.476 49.128C106.983 49.128 105.82 48.7013 104.988 47.848C104.156 46.9947 103.74 45.768 103.74 44.168V37.8H105.34V44.104C105.34 46.504 106.391 47.704 108.492 47.704C109.516 47.704 110.3 47.4107 110.844 46.824C111.388 46.2267 111.66 45.32 111.66 44.104V37.8H113.212V44.168C113.212 45.7787 112.796 47.0107 111.964 47.864C111.132 48.7067 109.97 49.128 108.476 49.128ZM116.493 37.8H118.093V49H116.493V37.8ZM124.71 49.128C123.867 49.128 123.051 49 122.262 48.744C121.483 48.4773 120.87 48.136 120.422 47.72L121.014 46.472C121.44 46.856 121.984 47.1707 122.646 47.416C123.318 47.6507 124.006 47.768 124.71 47.768C125.638 47.768 126.331 47.6133 126.79 47.304C127.248 46.984 127.478 46.5627 127.478 46.04C127.478 45.656 127.35 45.3467 127.094 45.112C126.848 44.8667 126.539 44.68 126.166 44.552C125.803 44.424 125.286 44.28 124.614 44.12C123.771 43.9173 123.088 43.7147 122.566 43.512C122.054 43.3093 121.611 43 121.238 42.584C120.875 42.1573 120.694 41.5867 120.694 40.872C120.694 40.2747 120.848 39.736 121.158 39.256C121.478 38.776 121.958 38.392 122.598 38.104C123.238 37.816 124.032 37.672 124.982 37.672C125.643 37.672 126.294 37.7573 126.934 37.928C127.574 38.0987 128.123 38.344 128.582 38.664L128.054 39.944C127.584 39.6453 127.083 39.4213 126.55 39.272C126.016 39.112 125.494 39.032 124.982 39.032C124.075 39.032 123.392 39.1973 122.934 39.528C122.486 39.8587 122.262 40.2853 122.262 40.808C122.262 41.192 122.39 41.5067 122.646 41.752C122.902 41.9867 123.216 42.1733 123.59 42.312C123.974 42.44 124.491 42.5787 125.142 42.728C125.984 42.9307 126.662 43.1333 127.174 43.336C127.686 43.5387 128.123 43.848 128.486 44.264C128.859 44.68 129.046 45.24 129.046 45.944C129.046 46.5307 128.886 47.0693 128.566 47.56C128.246 48.04 127.76 48.424 127.11 48.712C126.459 48.9893 125.659 49.128 124.71 49.128ZM139.511 47.608V49H131.383V37.8H139.287V39.192H132.983V42.632H138.599V43.992H132.983V47.608H139.511ZM142.402 49.096C142.103 49.096 141.847 48.9947 141.634 48.792C141.421 48.5787 141.314 48.312 141.314 47.992C141.314 47.6827 141.421 47.4267 141.634 47.224C141.847 47.0107 142.103 46.904 142.402 46.904C142.701 46.904 142.951 47.0053 143.154 47.208C143.357 47.4107 143.458 47.672 143.458 47.992C143.458 48.312 143.351 48.5787 143.138 48.792C142.935 48.9947 142.69 49.096 142.402 49.096ZM150.579 49.128C149.459 49.128 148.445 48.8827 147.539 48.392C146.643 47.8907 145.939 47.208 145.427 46.344C144.915 45.4693 144.659 44.488 144.659 43.4C144.659 42.312 144.915 41.336 145.427 40.472C145.939 39.5973 146.648 38.9147 147.555 38.424C148.461 37.9227 149.475 37.672 150.595 37.672C151.469 37.672 152.269 37.8213 152.995 38.12C153.72 38.408 154.339 38.84 154.851 39.416L153.811 40.424C152.968 39.5387 151.917 39.096 150.659 39.096C149.827 39.096 149.075 39.2827 148.403 39.656C147.731 40.0293 147.203 40.5467 146.819 41.208C146.445 41.8587 146.259 42.5893 146.259 43.4C146.259 44.2107 146.445 44.9467 146.819 45.608C147.203 46.2587 147.731 46.7707 148.403 47.144C149.075 47.5173 149.827 47.704 150.659 47.704C151.907 47.704 152.957 47.256 153.811 46.36L154.851 47.368C154.339 47.944 153.715 48.3813 152.979 48.68C152.253 48.9787 151.453 49.128 150.579 49.128ZM161.955 49.128C160.824 49.128 159.805 48.8827 158.899 48.392C157.992 47.8907 157.277 47.2027 156.755 46.328C156.243 45.4533 155.987 44.4773 155.987 43.4C155.987 42.3227 156.243 41.3467 156.755 40.472C157.277 39.5973 157.992 38.9147 158.899 38.424C159.805 37.9227 160.824 37.672 161.955 37.672C163.075 37.672 164.088 37.9227 164.995 38.424C165.901 38.9147 166.611 39.5973 167.123 40.472C167.635 41.336 167.891 42.312 167.891 43.4C167.891 44.488 167.635 45.4693 167.123 46.344C166.611 47.208 165.901 47.8907 164.995 48.392C164.088 48.8827 163.075 49.128 161.955 49.128ZM161.955 47.704C162.776 47.704 163.512 47.5173 164.163 47.144C164.824 46.7707 165.341 46.2587 165.715 45.608C166.099 44.9467 166.291 44.2107 166.291 43.4C166.291 42.5893 166.099 41.8587 165.715 41.208C165.341 40.5467 164.824 40.0293 164.163 39.656C163.512 39.2827 162.776 39.096 161.955 39.096C161.133 39.096 160.387 39.2827 159.715 39.656C159.053 40.0293 158.531 40.5467 158.147 41.208C157.773 41.8587 157.587 42.5893 157.587 43.4C157.587 44.2107 157.773 44.9467 158.147 45.608C158.531 46.2587 159.053 46.7707 159.715 47.144C160.387 47.5173 161.133 47.704 161.955 47.704ZM180.72 49L180.704 40.84L176.656 47.64H175.92L171.872 40.888V49H170.336V37.8H171.648L176.32 45.672L180.928 37.8H182.24L182.256 49H180.72Z" fill="white"/>
<path d="M593.312 37.8V49H591.712V44.008H585.28V49H583.68V37.8H585.28V42.616H591.712V37.8H593.312ZM599.928 49.128C599.086 49.128 598.27 49 597.48 48.744C596.702 48.4773 596.088 48.136 595.64 47.72L596.232 46.472C596.659 46.856 597.203 47.1707 597.864 47.416C598.536 47.6507 599.224 47.768 599.928 47.768C600.856 47.768 601.55 47.6133 602.008 47.304C602.467 46.984 602.696 46.5627 602.696 46.04C602.696 45.656 602.568 45.3467 602.312 45.112C602.067 44.8667 601.758 44.68 601.384 44.552C601.022 44.424 600.504 44.28 599.832 44.12C598.99 43.9173 598.307 43.7147 597.784 43.512C597.272 43.3093 596.83 43 596.456 42.584C596.094 42.1573 595.912 41.5867 595.912 40.872C595.912 40.2747 596.067 39.736 596.376 39.256C596.696 38.776 597.176 38.392 597.816 38.104C598.456 37.816 599.251 37.672 600.2 37.672C600.862 37.672 601.512 37.7573 602.152 37.928C602.792 38.0987 603.342 38.344 603.8 38.664L603.272 39.944C602.803 39.6453 602.302 39.4213 601.768 39.272C601.235 39.112 600.712 39.032 600.2 39.032C599.294 39.032 598.611 39.1973 598.152 39.528C597.704 39.8587 597.48 40.2853 597.48 40.808C597.48 41.192 597.608 41.5067 597.864 41.752C598.12 41.9867 598.435 42.1733 598.808 42.312C599.192 42.44 599.71 42.5787 600.36 42.728C601.203 42.9307 601.88 43.1333 602.392 43.336C602.904 43.5387 603.342 43.848 603.704 44.264C604.078 44.68 604.264 45.24 604.264 45.944C604.264 46.5307 604.104 47.0693 603.784 47.56C603.464 48.04 602.979 48.424 602.328 48.712C601.678 48.9893 600.878 49.128 599.928 49.128ZM614.73 47.608V49H606.602V37.8H614.506V39.192H608.202V42.632H613.818V43.992H608.202V47.608H614.73ZM628.753 46.2H622.802L621.57 49H619.921L624.994 37.8H626.578L631.666 49H629.986L628.753 46.2ZM628.194 44.92L625.778 39.432L623.362 44.92H628.194ZM640.824 49L638.408 45.56C638.11 45.5813 637.875 45.592 637.704 45.592H634.936V49H633.336V37.8H637.704C639.155 37.8 640.296 38.1467 641.128 38.84C641.96 39.5333 642.376 40.488 642.376 41.704C642.376 42.568 642.163 43.304 641.736 43.912C641.31 44.52 640.702 44.9627 639.912 45.24L642.568 49H640.824ZM637.656 44.232C638.67 44.232 639.443 44.0133 639.976 43.576C640.51 43.1387 640.776 42.5147 640.776 41.704C640.776 40.8933 640.51 40.2747 639.976 39.848C639.443 39.4107 638.67 39.192 637.656 39.192H634.936V44.232H637.656ZM647.029 39.192H643.189V37.8H652.453V39.192H648.613V49H647.029V39.192ZM665.628 46.2H659.677L658.445 49H656.796L661.869 37.8H663.453L668.541 49H666.861L665.628 46.2ZM665.069 44.92L662.653 39.432L660.237 44.92H665.069ZM679.843 37.8V49H678.531L671.811 40.648V49H670.211V37.8H671.523L678.243 46.152V37.8H679.843ZM683.196 37.8H687.916C689.1 37.8 690.15 38.0347 691.068 38.504C691.985 38.9733 692.694 39.6347 693.196 40.488C693.708 41.3307 693.964 42.3013 693.964 43.4C693.964 44.4987 693.708 45.4747 693.196 46.328C692.694 47.1707 691.985 47.8267 691.068 48.296C690.15 48.7653 689.1 49 687.916 49H683.196V37.8ZM687.82 47.608C688.726 47.608 689.521 47.432 690.204 47.08C690.897 46.728 691.43 46.2373 691.804 45.608C692.177 44.968 692.364 44.232 692.364 43.4C692.364 42.568 692.177 41.8373 691.804 41.208C691.43 40.568 690.897 40.072 690.204 39.72C689.521 39.368 688.726 39.192 687.82 39.192H684.796V47.608H687.82ZM700.711 37.8H705.431C706.615 37.8 707.666 38.0347 708.583 38.504C709.501 38.9733 710.21 39.6347 710.711 40.488C711.223 41.3307 711.479 42.3013 711.479 43.4C711.479 44.4987 711.223 45.4747 710.711 46.328C710.21 47.1707 709.501 47.8267 708.583 48.296C707.666 48.7653 706.615 49 705.431 49H700.711V37.8ZM705.335 47.608C706.242 47.608 707.037 47.432 707.719 47.08C708.413 46.728 708.946 46.2373 709.319 45.608C709.693 44.968 709.879 44.232 709.879 43.4C709.879 42.568 709.693 41.8373 709.319 41.208C708.946 40.568 708.413 40.072 707.719 39.72C707.037 39.368 706.242 39.192 705.335 39.192H702.311V47.608H705.335ZM722.058 47.608V49H713.93V37.8H721.834V39.192H715.53V42.632H721.146V43.992H715.53V47.608H722.058ZM727.913 49.128C727.07 49.128 726.254 49 725.465 48.744C724.686 48.4773 724.073 48.136 723.625 47.72L724.217 46.472C724.643 46.856 725.187 47.1707 725.849 47.416C726.521 47.6507 727.209 47.768 727.913 47.768C728.841 47.768 729.534 47.6133 729.993 47.304C730.451 46.984 730.681 46.5627 730.681 46.04C730.681 45.656 730.553 45.3467 730.297 45.112C730.051 44.8667 729.742 44.68 729.369 44.552C729.006 44.424 728.489 44.28 727.817 44.12C726.974 43.9173 726.291 43.7147 725.769 43.512C725.257 43.3093 724.814 43 724.441 42.584C724.078 42.1573 723.897 41.5867 723.897 40.872C723.897 40.2747 724.051 39.736 724.361 39.256C724.681 38.776 725.161 38.392 725.801 38.104C726.441 37.816 727.235 37.672 728.185 37.672C728.846 37.672 729.497 37.7573 730.137 37.928C730.777 38.0987 731.326 38.344 731.785 38.664L731.257 39.944C730.787 39.6453 730.286 39.4213 729.753 39.272C729.219 39.112 728.697 39.032 728.185 39.032C727.278 39.032 726.595 39.1973 726.137 39.528C725.689 39.8587 725.465 40.2853 725.465 40.808C725.465 41.192 725.593 41.5067 725.849 41.752C726.105 41.9867 726.419 42.1733 726.793 42.312C727.177 42.44 727.694 42.5787 728.345 42.728C729.187 42.9307 729.865 43.1333 730.377 43.336C730.889 43.5387 731.326 43.848 731.689 44.264C732.062 44.68 732.249 45.24 732.249 45.944C732.249 46.5307 732.089 47.0693 731.769 47.56C731.449 48.04 730.963 48.424 730.313 48.712C729.662 48.9893 728.862 49.128 727.913 49.128ZM734.586 37.8H736.186V49H734.586V37.8ZM747.299 43.336H748.835V47.704C748.281 48.1627 747.635 48.5147 746.899 48.76C746.163 49.0053 745.395 49.128 744.595 49.128C743.465 49.128 742.446 48.8827 741.539 48.392C740.633 47.8907 739.918 47.208 739.395 46.344C738.883 45.4693 738.627 44.488 738.627 43.4C738.627 42.312 738.883 41.3307 739.395 40.456C739.918 39.5813 740.633 38.8987 741.539 38.408C742.457 37.9173 743.486 37.672 744.627 37.672C745.523 37.672 746.334 37.8213 747.059 38.12C747.795 38.408 748.419 38.8347 748.931 39.4L747.939 40.392C747.043 39.528 745.961 39.096 744.691 39.096C743.838 39.096 743.07 39.2827 742.387 39.656C741.715 40.0187 741.187 40.5307 740.803 41.192C740.419 41.8427 740.227 42.5787 740.227 43.4C740.227 44.2107 740.419 44.9467 740.803 45.608C741.187 46.2587 741.715 46.7707 742.387 47.144C743.07 47.5173 743.833 47.704 744.675 47.704C745.678 47.704 746.553 47.464 747.299 46.984V43.336ZM761.531 37.8V49H760.219L753.499 40.648V49H751.899V37.8H753.211L759.931 46.152V37.8H761.531ZM772.444 49.128C771.601 49.128 770.785 49 769.996 48.744C769.217 48.4773 768.604 48.136 768.156 47.72L768.748 46.472C769.175 46.856 769.719 47.1707 770.38 47.416C771.052 47.6507 771.74 47.768 772.444 47.768C773.372 47.768 774.065 47.6133 774.524 47.304C774.983 46.984 775.212 46.5627 775.212 46.04C775.212 45.656 775.084 45.3467 774.828 45.112C774.583 44.8667 774.273 44.68 773.9 44.552C773.537 44.424 773.02 44.28 772.348 44.12C771.505 43.9173 770.823 43.7147 770.3 43.512C769.788 43.3093 769.345 43 768.972 42.584C768.609 42.1573 768.428 41.5867 768.428 40.872C768.428 40.2747 768.583 39.736 768.892 39.256C769.212 38.776 769.692 38.392 770.332 38.104C770.972 37.816 771.767 37.672 772.716 37.672C773.377 37.672 774.028 37.7573 774.668 37.928C775.308 38.0987 775.857 38.344 776.316 38.664L775.788 39.944C775.319 39.6453 774.817 39.4213 774.284 39.272C773.751 39.112 773.228 39.032 772.716 39.032C771.809 39.032 771.127 39.1973 770.668 39.528C770.22 39.8587 769.996 40.2853 769.996 40.808C769.996 41.192 770.124 41.5067 770.38 41.752C770.636 41.9867 770.951 42.1733 771.324 42.312C771.708 42.44 772.225 42.5787 772.876 42.728C773.719 42.9307 774.396 43.1333 774.908 43.336C775.42 43.5387 775.857 43.848 776.22 44.264C776.593 44.68 776.78 45.24 776.78 45.944C776.78 46.5307 776.62 47.0693 776.3 47.56C775.98 48.04 775.495 48.424 774.844 48.712C774.193 48.9893 773.393 49.128 772.444 49.128ZM784.126 49.128C783.006 49.128 781.992 48.8827 781.086 48.392C780.19 47.8907 779.486 47.208 778.974 46.344C778.462 45.4693 778.206 44.488 778.206 43.4C778.206 42.312 778.462 41.336 778.974 40.472C779.486 39.5973 780.195 38.9147 781.102 38.424C782.008 37.9227 783.022 37.672 784.142 37.672C785.016 37.672 785.816 37.8213 786.542 38.12C787.267 38.408 787.886 38.84 788.398 39.416L787.358 40.424C786.515 39.5387 785.464 39.096 784.206 39.096C783.374 39.096 782.622 39.2827 781.95 39.656C781.278 40.0293 780.75 40.5467 780.366 41.208C779.992 41.8587 779.806 42.5893 779.806 43.4C779.806 44.2107 779.992 44.9467 780.366 45.608C780.75 46.2587 781.278 46.7707 781.95 47.144C782.622 47.5173 783.374 47.704 784.206 47.704C785.454 47.704 786.504 47.256 787.358 46.36L788.398 47.368C787.886 47.944 787.262 48.3813 786.526 48.68C785.8 48.9787 785 49.128 784.126 49.128ZM800.312 37.8V49H798.712V44.008H792.28V49H790.68V37.8H792.28V42.616H798.712V37.8H800.312ZM808.72 49.128C807.59 49.128 806.571 48.8827 805.664 48.392C804.758 47.8907 804.043 47.2027 803.52 46.328C803.008 45.4533 802.752 44.4773 802.752 43.4C802.752 42.3227 803.008 41.3467 803.52 40.472C804.043 39.5973 804.758 38.9147 805.664 38.424C806.571 37.9227 807.59 37.672 808.72 37.672C809.84 37.672 810.854 37.9227 811.76 38.424C812.667 38.9147 813.376 39.5973 813.888 40.472C814.4 41.336 814.656 42.312 814.656 43.4C814.656 44.488 814.4 45.4693 813.888 46.344C813.376 47.208 812.667 47.8907 811.76 48.392C810.854 48.8827 809.84 49.128 808.72 49.128ZM808.72 47.704C809.542 47.704 810.278 47.5173 810.928 47.144C811.59 46.7707 812.107 46.2587 812.48 45.608C812.864 44.9467 813.056 44.2107 813.056 43.4C813.056 42.5893 812.864 41.8587 812.48 41.208C812.107 40.5467 811.59 40.0293 810.928 39.656C810.278 39.2827 809.542 39.096 808.72 39.096C807.899 39.096 807.152 39.2827 806.48 39.656C805.819 40.0293 805.296 40.5467 804.912 41.208C804.539 41.8587 804.352 42.5893 804.352 43.4C804.352 44.2107 804.539 44.9467 804.912 45.608C805.296 46.2587 805.819 46.7707 806.48 47.144C807.152 47.5173 807.899 47.704 808.72 47.704ZM822.158 49.128C821.027 49.128 820.009 48.8827 819.102 48.392C818.195 47.8907 817.481 47.2027 816.958 46.328C816.446 45.4533 816.19 44.4773 816.19 43.4C816.19 42.3227 816.446 41.3467 816.958 40.472C817.481 39.5973 818.195 38.9147 819.102 38.424C820.009 37.9227 821.027 37.672 822.158 37.672C823.278 37.672 824.291 37.9227 825.198 38.424C826.105 38.9147 826.814 39.5973 827.326 40.472C827.838 41.336 828.094 42.312 828.094 43.4C828.094 44.488 827.838 45.4693 827.326 46.344C826.814 47.208 826.105 47.8907 825.198 48.392C824.291 48.8827 823.278 49.128 822.158 49.128ZM822.158 47.704C822.979 47.704 823.715 47.5173 824.366 47.144C825.027 46.7707 825.545 46.2587 825.918 45.608C826.302 44.9467 826.494 44.2107 826.494 43.4C826.494 42.5893 826.302 41.8587 825.918 41.208C825.545 40.5467 825.027 40.0293 824.366 39.656C823.715 39.2827 822.979 39.096 822.158 39.096C821.337 39.096 820.59 39.2827 819.918 39.656C819.257 40.0293 818.734 40.5467 818.35 41.208C817.977 41.8587 817.79 42.5893 817.79 43.4C817.79 44.2107 817.977 44.9467 818.35 45.608C818.734 46.2587 819.257 46.7707 819.918 47.144C820.59 47.5173 821.337 47.704 822.158 47.704ZM830.539 37.8H832.139V47.608H838.203V49H830.539V37.8Z" fill="white"/>
<defs>
<radialGradient id="paint0_radial" cx="0" cy="0" r="1" gradientUnits="userSpaceOnUse" gradientTransform="translate(142.195 182.596) rotate(-12.5379) scale(835.785 670936)">
<stop offset="0.149878" stop-color="white"/>
<stop offset="1" stop-color="white" stop-opacity="0"/>
</radialGradient>
</defs>
</svg>
