<svg width="358" height="270" viewBox="0 0 358 270" fill="none" xmlns="http://www.w3.org/2000/svg">
<path d="M316.061 141.44C316.061 141.44 323.65 141.885 327.625 144.232C328.619 144.818 330.961 145.037 330.961 145.037C334.296 145.842 335.225 147.607 336.41 150.737C337.325 153.155 336.87 155.491 336.538 158.002C336.048 161.718 335.807 163.892 334.288 167.324C333.049 170.121 331.973 171.536 330.091 173.983C327.75 177.028 325.994 178.406 323.198 181.088C321.023 183.174 319.786 184.331 317.472 186.282C314.958 188.402 313.263 189.288 310.807 191.468C308.187 193.795 304.976 199.048 304.976 199.048L304.859 196.609L304.175 193.594C303.908 192.416 288.231 201.144 288.231 201.144L286.347 203.1L285.646 206L286.781 207.151C286.781 207.151 284.604 207.678 283.517 207.02C282.71 206.533 282.088 205.141 282.088 205.141L281.899 202.026C281.899 202.026 277.715 202.627 275.194 203.476C271.792 204.622 269.446 205.092 267.122 207.666C266.281 208.598 265.31 210.297 265.31 210.297L266.422 210.566L270.23 210.389C270.23 210.389 268.011 211.165 266.789 211.97C265.754 212.651 265.328 213.212 264.41 214.026C261.812 216.33 260.663 217.921 257.989 220.148C254.777 222.824 249.195 226.355 249.195 226.355L242.463 228.895L235.708 230.552L232.15 229.693L235.218 228.681L242.323 225.573C242.323 225.573 247.77 224.011 249.678 221.43C250.296 220.594 250.945 219.105 250.945 219.105C250.945 219.105 250.546 215.348 251.628 213.351C252.745 211.293 256.337 209.446 256.337 209.446L253.446 208.748L241.005 219.336L235.134 223.18L227.563 225.298L223.632 225.006L229.425 222.459C229.425 222.459 233.555 221.039 234.75 218.922C235.449 217.684 235.601 215.4 235.601 215.4L232.12 213.245L223.214 215.04L216.282 218.409L205.703 226.158L199.215 229.634L192.46 231.291L189.792 230.647L190.981 229.619L196.897 227.539C196.897 227.539 200.036 224.535 201.683 222.337C203.567 219.823 205.707 215.417 205.707 215.417L211.677 211.159L219.666 210.238L229.817 205.236L230.618 201.921L228.171 201.331L222.979 201.392L216.586 206.425C216.586 206.425 212.615 208.519 209.804 209.172C206.059 210.042 203.616 210.471 199.863 209.403C196.603 208.475 192.457 204.984 192.457 204.984L199.429 205.352C199.429 205.352 205.768 205.864 209.47 204.707C213.496 203.448 216.28 200.871 218.386 198.968C220.493 197.065 222.408 194.171 225.379 191.449C230.981 186.319 234.092 182.496 241.679 180.478C244.8 179.648 249.94 179.403 249.94 179.403L246.982 176.059L241.378 172.952C241.378 172.952 245.465 171.616 248.182 171.087C252.398 170.267 255.12 171.462 259.212 170.243C264.571 168.646 270.953 162.555 270.953 162.555C270.953 162.555 278.496 157.022 282.305 152.581C284.079 150.511 282.416 150.688 286.474 147.011C290.531 143.334 299.938 141.931 299.938 141.931L316.061 141.44Z" fill="#8D0101"/>
<path d="M224.821 233.366C227.351 232.54 231.468 231.991 231.468 231.991L228.475 235.951C228.475 235.951 225.563 237.575 223.607 238.395C221.335 239.348 219.918 239.442 217.633 240.359C215.711 241.131 212.814 242.602 212.814 242.602L208.621 244.783C208.621 244.783 210.354 241.597 212.001 240.064C213.818 238.372 215.284 238.067 217.448 236.908C220.269 235.397 221.801 234.353 224.821 233.366Z" fill="#8D0101"/>
<path d="M299.08 148.315C302.561 147.232 304.585 146.721 307.829 145.133C309.703 144.215 310.48 143.217 312.454 142.499C317.22 140.767 323.703 142.568 325.649 143.258C327.595 143.949 332.382 144.732 334.632 147.854C336.287 150.15 336.499 154.702 336.499 154.702C336.499 154.702 336.846 160.025 336.098 161.223L334.184 164.29C334.184 164.29 332.853 166.401 331.947 167.721C330.769 169.439 330.329 170.592 328.794 172.033C327.297 173.438 324.34 174.928 324.34 174.928L321.065 178.77C321.065 178.77 317.899 181.45 315.986 183.28C314.085 185.098 313.157 186.244 311.301 188.104C309.064 190.346 305.477 193.757 305.477 193.757L306.383 190.005L307.44 185.628L307.993 183.335L305.08 183.735C305.08 183.735 304.787 186.662 303.973 188.32C303.03 190.243 301.964 191.041 300.376 192.526C299.218 193.609 297.182 195.063 297.182 195.063L290.903 197.739C290.903 197.739 289.253 197.945 288.383 198.454C286.754 199.406 285.264 200.791 285.996 202.51C286.416 203.496 288.133 204.35 288.133 204.35L285.694 203.761C285.694 203.761 283.497 202.921 282.891 201.76C282.055 200.161 283.948 197.383 283.948 197.383L287.908 194.589L290.396 190.116C290.396 190.116 287.274 191.463 285.206 192.172C282.056 193.251 280.163 193.509 276.931 194.365C273.699 195.222 271.69 195.227 268.656 196.559C263.395 198.868 257.511 205.78 257.511 205.78C257.511 205.78 258.512 201.23 260.331 198.961C261.887 197.019 265.046 195.496 267.17 194.634C266.284 194.949 265.271 195.295 264.442 195.541C261.962 196.28 257.972 197.067 257.972 197.067C257.972 197.067 255.852 197.209 254.565 197.568C252.768 198.07 251.892 198.694 250.312 199.63C247.651 201.206 244.195 204.55 244.195 204.55C244.195 204.55 244.335 200.563 245.655 198.506C247.175 196.135 249.188 195.755 251.62 194.21C255.742 191.593 258.476 190.775 262.847 188.538C265.469 187.197 269.021 187.879 269.549 185.083C269.766 183.937 269.911 183.007 269.095 182.105C267.697 180.562 265.945 182.991 264.005 183.744C261.182 184.84 259.769 185.791 257.081 187.146C254.341 188.528 250.107 190.757 250.107 190.757C250.107 190.757 248.471 191.327 247.366 191.418C245.072 191.609 241.6 190.026 241.6 190.026C241.6 190.026 244.53 190.193 246.337 189.847C249.463 189.248 251.094 188.196 253.533 186.29C256.193 184.211 256.186 181.667 258.893 179.642C260.839 178.187 262.329 177.939 264.506 176.806C266.519 175.76 269.626 174.072 269.626 174.072C269.626 174.072 267.764 173.403 266.521 173.322C263.715 173.14 262.579 175.132 259.849 175.682C257.474 176.16 256.037 176.627 253.63 176.166C250.806 175.625 247.208 172.63 247.208 172.63C247.208 172.63 253.071 174.125 256.653 173.366C259.343 172.796 262.982 170.482 262.982 170.482L268.685 164.359L277.564 159.664L282.26 157.71C282.26 157.71 279.693 154.264 277.249 153.191C273.541 151.564 266.958 154.015 266.958 154.015C266.958 154.015 273.336 148.748 278.407 148.397C282.559 148.11 284.658 150.93 288.83 150.914C293.003 150.897 295.148 149.537 299.08 148.315Z" fill="#FE8000"/>
<path d="M335.421 162.979C336.906 159.615 337.134 157.273 336.623 153.639C336.335 151.587 336.276 150.26 335.109 148.565C334.006 146.962 332.997 146.242 331.218 145.485C330.114 145.016 329.423 144.909 328.232 144.765C325.871 144.478 324.503 144.946 322.17 145.441C320.555 145.784 319.744 146.477 318.099 146.598C315.623 146.78 314.334 144.475 311.928 145.108C311.044 145.341 307.207 145.467 307.207 145.467L312.781 146.812L314.926 148.4L314.535 150.018L311.853 150.654L309.818 151.233L309.134 154.064L305.807 154.759L301.085 155.117C301.085 155.117 304.079 155.977 305.318 156.781C307.185 157.993 310.34 156.923 310.34 156.923C310.34 156.923 310.407 158.905 309.656 159.754C309.201 160.269 308.659 160.199 308.169 160.679C307.511 161.325 307.677 162.098 307.035 162.76C306.019 163.806 304.627 163.068 303.561 164.061C302.699 164.863 302.081 166.7 302.081 166.7C302.081 166.7 304.353 165.492 305.157 165.302C305.926 165.121 306.378 165.123 307.144 164.926C309.681 164.272 313.145 161.881 313.145 161.881L311.215 163.769C311.215 163.769 311.212 165.692 310.531 166.6C309.772 167.613 307.654 168.045 307.654 168.045C307.654 168.045 305.928 169.012 305.277 170.04C304.583 171.136 304.105 174.893 304.105 174.893C304.105 174.893 306.046 171.789 306.873 171.281C308.139 170.503 308.283 170.012 309.75 169.835C310.784 169.711 312.338 170.46 312.338 170.46L309.679 176.239L312.451 173.484C312.451 173.484 313.483 171.608 314.926 171.085C316.217 170.617 317.038 170.565 318.404 170.641C319.762 170.716 321.584 170.095 321.788 171.458C321.943 172.5 320.439 172.614 320.206 173.644C319.814 175.382 322.021 179.218 322.021 179.218L323.192 174.365C323.192 174.365 325.921 172.334 327.252 170.637C327.996 169.689 328.931 168.046 328.931 168.046L329.153 173.236C329.153 173.236 330.333 170.35 331.32 168.623C332.672 166.254 334.319 165.476 335.421 162.979Z" fill="#F8B32A"/>
<path d="M313.724 180.425C314.642 179.535 315.452 177.632 315.452 177.632C315.452 177.632 313.605 177.879 313.07 178.769C312.778 179.256 313.035 179.707 312.729 180.185C312.229 180.963 311.302 180.578 310.595 181.168C309.985 181.678 309.36 182.796 309.36 182.796C309.36 182.796 309.96 182.413 310.351 182.179C311.627 181.417 312.654 181.464 313.724 180.425Z" fill="#F8B32A"/>
<path d="M299.865 160.172C300.915 159.473 302.993 159.43 302.993 159.43L302.055 160.701L300.669 162.079C300.669 162.079 299.817 162.757 299.181 163.004C298.09 163.427 296.199 163.14 296.199 163.14C296.199 163.14 296.956 162.85 297.39 162.571C298.181 162.063 298.369 161.465 299.072 160.837C299.374 160.568 299.529 160.396 299.865 160.172Z" fill="#F8B32A"/>
<path d="M325.371 143.943L329.091 144.841L329.809 152.168L336.271 153.728L334.783 159.891C334.783 159.891 332.835 162.095 331.178 162.807C327.544 164.369 324.166 163.25 321.387 160.444C318.918 157.951 318.121 155.3 318.708 151.802C319.375 147.821 325.371 143.943 325.371 143.943Z" fill="url(#paint0_linear)"/>
<path d="M323.324 150.423C324.532 145.418 327.25 141.781 331.83 142.887C336.41 143.993 339.143 148.946 337.935 153.951C334.168 156.964 332.034 162.116 327.454 161.01C322.874 159.904 322.115 155.428 323.324 150.423Z" fill="url(#paint1_linear)"/>
<path d="M301.244 65.2703C307.612 64.1005 309.79 62.0877 313.421 65.1899C315.357 66.8446 316.399 68.3436 316.646 70.9299C316.646 70.9299 316.071 74.2212 315.366 76.2295C314.122 79.7733 313.034 81.7206 310.626 84.5763C306.47 89.5065 296.631 93.0612 296.631 93.0612L274.421 103.446C274.421 103.446 261.177 107.916 251.515 111.506C243.897 114.336 230.193 119.947 230.193 119.947L214.757 124.849C214.757 124.849 195.149 131.67 199.666 129.187C200.571 128.69 207.465 126.363 205.198 124.914C204.427 124.421 202.927 124.365 202.927 124.365L194.269 127.236L186.997 130.442L179.378 133.348C179.378 133.348 174.282 134.49 169.33 133.295C164.379 132.099 169.872 131.053 169.872 131.053L180.215 129.883C180.215 129.883 187.252 125.56 184.762 124.941C183.344 124.588 181.15 126.01 181.15 126.01L169.076 128.272C169.076 128.272 158.186 128.232 153.93 128.498C149.674 128.765 156.781 124.965 159.269 123.747C162.062 122.381 162.76 124.266 167.088 122.615L178.17 118.388C182.497 116.737 175.001 117.623 171.832 116.858C168.663 116.093 179.831 115.859 184.896 114.835C202.332 111.311 211.197 105.625 227.738 98.862C245.794 91.4804 256.934 89.1168 273.346 78.3797C278.039 75.3096 279.897 72.2034 285.016 69.9803C289.435 68.0612 296.532 66.136 301.244 65.2703Z" fill="#8D0101"/>
<path d="M309.449 64.5443C312.649 64.5336 312.632 65.3645 314.771 67.7718C315.874 69.0126 316.568 71.6591 316.568 71.6591L315.534 75.9422C315.534 75.9422 313.052 80.1155 311.226 82.4567C309.327 84.8915 308.915 86.3376 306.32 87.9635C304.281 89.2405 302.752 88.2433 301.009 89.9189C299.426 91.4405 298.932 94.1659 298.932 94.1659L297.405 100.489L296.42 104.568L294.992 110.482L292.267 113.926L293.203 110.051L294.631 104.136L294.423 99.7687L292.079 95.5334L279.721 100.536C279.721 100.536 271.341 103.163 266.918 106.51C261.363 110.714 255.92 120.691 255.92 120.691L257.201 115.388L258.58 109.677C259.156 107.288 262.454 103.642 260.057 103.559C258.701 103.512 257.08 105.43 257.08 105.43L249.836 109.293C249.836 109.293 246.476 111.465 244.08 112.22C240.709 113.284 238.54 112.116 235.09 112.856C232.112 113.495 228.431 115.25 225.885 116.599C225.162 117.246 224.669 117.679 224.669 117.679L222.833 118.314C222.833 118.314 224.071 117.559 225.885 116.599C227.049 115.557 228.81 113.96 230.073 112.724C232.236 110.606 233.135 109.081 235.426 107.109C238.126 104.786 246.116 103.564 242.966 102.022C240.453 100.793 236.115 104.254 236.115 104.254L241.767 99.143L246.726 95.16C246.726 95.16 249.034 94.5047 249.703 93.2885C250.941 91.0381 243.294 92.8204 243.294 92.8204L250.294 90.841L258.926 85.5864L270.338 79.276C280.862 75.158 279.762 73.9647 290.287 69.8466C300.811 65.7285 305.581 64.5574 309.449 64.5443Z" fill="#FE7C00"/>
<path d="M313.79 73.0662C314.85 71.1363 315.889 69.6233 315.116 67.5764C314.253 65.2957 312.152 64.6509 309.753 64.5603C308.327 64.5064 306.185 65.4203 306.185 65.4203C306.185 65.4203 305.274 66.3106 304.602 66.7594C303.613 67.4202 302.949 67.6354 301.842 67.994L301.779 68.0144C299.292 68.8201 297.7 68.0905 295.136 68.5624C293.728 68.8215 292.996 69.3863 291.568 69.4224C289.812 69.4668 288.949 68.535 287.202 68.3683C284.767 68.136 280.957 69.0121 280.957 69.0121C280.957 69.0121 284.429 70.3613 283.839 71.8599C283.29 73.2568 281.511 71.9697 280.122 72.4687C278.251 73.1406 277.771 74.7579 275.865 75.314C273.902 75.8866 272.672 75.4101 270.658 75.1328C268.683 74.861 267.683 73.7079 265.697 73.935C264.265 74.0988 262.229 75.2496 262.229 75.2496L270.167 77.1661C270.167 77.1661 268.361 78.975 267 79.8444C265.245 80.9662 264.151 81.7074 262.097 81.8881C259.947 82.0771 258.893 80.6255 256.739 80.5944C254.632 80.5641 251.436 81.6811 251.436 81.6811C251.436 81.6811 254.45 82.05 256.199 82.831C257.742 83.5206 258.31 84.4576 259.824 85.2126C262.681 86.6377 264.662 86.3806 267.762 87.1291C267.762 87.1291 269.951 86.8361 270.54 87.7998C271.35 89.124 268.973 89.6715 267.919 90.8252C264.958 94.0689 263.001 95.5897 259.757 98.5375C257.693 100.413 254.413 103.272 254.413 103.272L259.168 100.977C259.168 100.977 262.796 98.5096 265.307 97.2954C267.498 96.2361 271.103 95.0366 271.103 95.0366L278.341 94.6324C281.168 94.4745 280.907 96.6648 282.858 96.7989C285.518 96.9818 289.049 93.7748 289.049 93.7748L293.163 93.2619L293.924 100.547L292.795 105.223L291.568 110.306C291.568 110.306 292.49 110.529 293.102 109.17L295.815 103.155L297.582 95.835C297.582 95.835 297.338 90.5576 298.355 87.4145C299.026 85.3411 299.471 84.1134 300.822 82.4155C303.007 79.6705 305.659 79.8988 308.447 77.801C310.67 76.1278 312.44 75.5257 313.79 73.0662Z" fill="#FFB12B"/>
<path d="M152.462 75.647C152.462 75.647 151.599 73.564 150.966 72.269C149.608 69.4918 148.899 67.8377 146.932 65.4769C144.65 62.7391 143.063 61.318 139.922 59.6905C136.375 57.8528 133.974 57.5831 129.992 57.2931C126.316 57.0253 120.566 58.034 120.566 58.034C120.566 58.034 113.294 61.0937 108.918 63.6254C105.904 65.3694 104.797 67.6778 101.437 68.499C99.0367 69.0854 95.1347 68.4858 95.1347 68.4858L96.6782 70.7978C96.6782 70.7978 99.8601 70.3459 100.65 71.7568C101.4 73.0971 100.679 74.4142 99.716 75.6254C97.5494 78.3507 95.1767 72.1765 91.7685 71.9827C89.9771 71.8809 88.941 72.1171 87.2048 72.6047C84.3047 73.4193 82.994 74.7571 80.4153 76.3525C75.7357 79.2476 69.1211 84.8306 69.1211 84.8306L60.7487 90.7819L57.8249 92.4463L51.6725 92.6847L52.7677 94.242C52.7677 94.242 55.3976 95.056 57.1367 95.2969C57.1367 95.2969 60.77 96.301 62.7936 95.3698C64.4377 94.6131 66.1107 92.0765 66.1107 92.0765L70.4227 89.8854L74.0897 87.754C74.0897 87.754 77.5554 88.177 77.22 89.5872L75.3874 91.0841C75.3874 91.0841 73.66 92.5833 72.6641 93.6588C71.5027 94.913 71.2356 95.9844 69.9428 97.0958C67.1893 99.4631 64.4499 98.3391 61.1163 99.7054C59.3141 100.444 58.3234 100.92 56.6057 101.849C53.8456 103.341 52.0473 103.965 49.8673 106.255C48.9396 107.23 47.7398 108.974 47.7398 108.974L43.4769 110.961L38.117 110.529C38.117 110.529 38.8706 112.36 39.8099 113.092C41.0103 114.028 43.5831 114.003 43.5831 114.003L48.245 112.974L53.4989 110.364C53.4989 110.364 56.8026 107.175 59.1991 107.646C60.4144 107.885 61.6911 107.95 61.9813 109.18C62.3404 110.701 60.1077 110.729 58.8608 111.659C55.6479 114.053 53.5342 114.911 50.1896 117.107C46.6987 119.399 41.3709 123.166 41.3709 123.166L36.4179 127.142C36.4179 127.142 42.1303 124.519 45.8362 122.951C48.2833 121.916 49.4998 120.237 52.1322 120.377L54.9125 121.048C54.9125 121.048 52.5723 123.846 50.9032 125.467C48.3742 127.924 46.2944 128.531 43.8699 131.096C41.5674 133.531 41.1766 135.68 38.8244 138.066C37.3182 139.593 36.5759 140.758 34.6146 141.574C32.2361 142.564 28.0651 141.717 28.0651 141.717C28.0651 141.717 33.075 143.354 36.4058 143.731C39.2531 144.053 40.907 144.205 43.7497 143.78C46.1954 143.415 47.5873 143.056 49.8491 142.02C52.7012 140.715 54.2532 139.653 56.438 137.362C58.3026 135.407 58.5461 133.644 60.345 131.626C62.5426 129.16 65.0079 123.624 66.8829 126.309C67.6056 127.344 67.5362 128.218 67.5848 129.495C67.6592 131.453 67.1467 132.565 66.4049 134.382C65.3776 136.898 64.4114 138.213 62.4979 140.118C61.2302 141.38 60.4111 142.001 58.882 142.908C55.988 144.626 50.7004 145.458 50.7004 145.458C50.7004 145.458 57.2236 145.334 61.3673 144.801C64.2127 144.435 65.8815 144.458 68.609 143.533C71.4148 142.581 72.8244 141.571 75.3493 139.989C78.2158 138.193 79.8929 137.187 82.2843 134.768C84.3547 132.673 86.8854 128.768 86.8854 128.768L94.2098 120.193C94.2098 120.193 97.7212 109.786 100.494 112.445C101.232 113.152 101.839 114.709 101.839 114.709L99.1176 118.146C99.1176 118.146 95.8181 121.507 94.3179 124.098C93.0738 126.246 91.8502 129.967 91.8502 129.967L97.8886 123.236L109.385 116.531C109.385 116.531 114.277 115.324 117.419 114.592C119.934 114.006 121.4 113.91 123.867 113.132C129.458 111.368 132.198 109.205 137.149 105.996C139.165 104.688 140.379 104.053 142.202 102.475C144.508 100.481 145.771 99.2178 147.399 96.6189C148.852 94.2999 149.302 92.7748 150.213 90.1874C151.462 86.639 152.169 84.5694 152.474 80.8213C152.638 78.8056 152.462 75.647 152.462 75.647Z" fill="#8D0101"/>
<path d="M25.0038 126.541L28.6728 125.272L33.8865 123.698L29.1742 127.548L26.2523 130.074L23.529 132.649L18.7235 136.014L13.9612 136.588L17.4789 134.205L19.7558 131.738L21.6847 128.972L25.0038 126.541Z" fill="#8D0101"/>
<path d="M147.179 79.839C147.771 76.1791 147.369 74.0171 148.193 70.4018C148.284 70.0036 148.381 69.7896 148.438 69.3853C148.738 67.2503 147.507 66.0902 146.282 64.3464C144.557 61.8917 142.869 61.0687 140.245 59.6616C136.29 57.5411 129.09 56.9682 129.09 56.9682C129.09 56.9682 123.757 57.0227 120.584 58.1421C118.163 58.9964 116.838 59.706 114.773 61.2572C111.587 63.65 108.231 69.1445 108.231 69.1445L104.321 75.7311C102.795 78.3033 100.471 78.1148 97.7129 78.6538C95.054 79.1733 90.7955 78.4898 90.7955 78.4898L83.2315 78.3848L88.8121 80.5928C88.8121 80.5928 90.4212 82.4486 91.8059 83.0368C92.6166 83.3812 93.1175 83.6306 93.9971 83.5659C95.3541 83.466 95.6325 81.925 96.9766 81.7034C98.323 81.4813 99.7241 81.3022 100.363 82.521C101.153 84.0282 98.9728 84.8926 97.6376 85.9509C95.3922 87.7306 90.6278 87.9161 90.6278 87.9161L83.2716 90.4431C83.2716 90.4431 79.3592 91.4395 77.5581 93.1516C76.0696 94.5666 75.8757 95.8953 74.7864 97.6462C73.3295 99.9881 72.9607 101.672 71.0245 103.623C69.2033 105.458 65.513 107.241 65.513 107.241L56.5488 105.076L59.6437 107.975L64.6295 110.9L69.4047 110.332L72.0867 108.828L76.0046 104.825L79.8357 104.674L80.9847 106.028C80.9847 106.028 81.6185 107.534 81.4407 108.504C81.1346 110.176 79.6411 110.489 78.2158 111.383C75.2738 113.229 72.6416 111.571 69.5634 113.167C67.9386 114.01 66.987 114.544 65.7409 115.902C64.0476 117.747 63.7219 119.296 62.8739 121.664C62.1031 123.817 63.4258 126.168 61.4995 127.357C60.1478 128.191 59.512 127.107 58.5172 128.358C57.9601 129.059 55.734 129.407 55.734 129.407C55.734 129.407 59.4361 130.011 60.9596 129.593C62.2801 129.231 62.8991 128.673 64.0891 127.982C66.6662 126.486 67.9295 125.336 70.2444 123.444C72.9083 121.267 73.4456 118.357 76.7433 117.483C78.877 116.917 80.3093 116.992 82.3672 117.765C83.6236 118.236 84.5763 118.411 85.3091 119.551C85.8955 120.462 86.0332 121.19 85.9153 122.279C85.6638 124.601 83.4134 125.004 81.3998 126.137C79.3473 127.292 75.6835 127.984 75.6835 127.984C75.6835 127.984 78.0746 128.785 79.6675 128.946C82.7739 129.262 85.0871 129.577 87.5752 127.628C89.1508 126.394 89.0086 125.799 90.497 123.385L94.308 117.205C94.308 117.205 98.4534 112.591 100.022 114.497C101.479 116.267 98.3733 117.741 97.6511 119.949C97.0418 121.811 96.9331 122.922 96.4731 124.828C96.1855 126.019 96.3779 126.836 95.7368 127.877C94.6752 129.602 92.9797 129.364 91.1666 130.217C88.6548 131.398 81.824 133.985 81.824 133.985L85.9554 134.337C85.9554 134.337 91.5519 132.679 94.9514 131.13C96.7743 130.3 97.9655 130.069 99.5217 128.791C102.078 126.692 102.299 124.397 103.826 121.44C105.163 118.852 104.728 116.528 106.939 114.661C108.83 113.063 112.903 112.658 112.903 112.658C112.903 112.658 119.07 111.779 122.748 110.302C127.719 108.305 130.087 106.156 134.268 102.755C138.421 99.3782 141.366 97.7578 143.989 93.0538C146.57 88.4238 146.331 85.0792 147.179 79.839Z" fill="#FE7C00"/>
<path d="M71.5415 94.496C72.4447 93.4753 73.8629 92.7307 73.3229 91.4836C73.0347 90.8182 72.6112 90.4914 71.9256 90.2857C70.9261 89.9857 70.3863 90.848 69.3907 91.1797C67.3735 91.852 66.2583 91.9295 64.1709 92.7165C62.0836 93.5035 60.4077 94.2577 58.7086 96.1311C57.3956 97.5787 56.1852 100.47 56.1852 100.47L58.1196 98.5707C58.1196 98.5707 61.1106 97.544 63.0911 97.1892C65.1655 96.8175 66.5218 97.6053 68.4638 96.7651C69.8281 96.1749 70.548 95.6188 71.5415 94.496Z" fill="#FE7C00"/>
<path d="M141.788 59.5587C143.673 60.2 144.51 61.1254 145.963 62.4923C146.892 63.3673 148.131 64.9416 148.131 64.9416C148.131 64.9416 149.918 66.5814 150.153 67.9974C150.378 69.358 149.323 71.4345 149.323 71.4345C149.323 71.4345 149.423 73.5223 149.144 74.8148C148.666 77.0294 147.38 77.8828 146.422 79.9348C145.517 81.8701 145.441 83.1625 144.35 84.9979C143.292 86.7768 141.021 89.1154 141.021 89.1154C141.021 89.1154 142.566 86.5891 141.997 85.0717C141.735 84.3722 141.595 83.741 140.886 83.5196C140.116 83.2795 139.693 83.9493 138.988 84.3453C137.521 85.1693 136.261 85.9692 135.751 87.2012C135.241 88.4333 133.474 91.3587 133.474 91.3587C133.474 91.3587 133.473 93.9977 133.847 95.0865L132.888 93.785C132.888 93.785 132.237 92.1571 132.27 91.0682C132.297 90.1754 132.597 89.7127 132.807 88.8441C133.112 87.5808 134.702 85.4602 133.588 85.6091L130.736 85.9905C129.623 86.1394 128.892 86.3272 127.787 86.7762C126.78 87.1852 126.279 87.5586 125.342 88.1115C123.368 89.2753 120.505 91.4372 120.505 91.4372L120.652 90.8307C120.652 90.8307 122.258 88.1948 123.379 86.5679C124.329 85.1906 127.047 81.8874 125.911 83.1138C125.419 83.6459 124.718 84.5375 124.718 84.5375L121.368 85.2264C121.368 85.2264 118.864 85.9014 117.573 86.8777C116.474 87.7076 115.236 89.5231 115.236 89.5231L116.114 85.8837C116.114 85.8837 118.02 83.5735 119.649 82.6718C120.827 82.0199 121.973 82.5131 122.897 81.5302C123.897 80.467 124.8 78.9224 123.776 77.8908C123.15 77.2604 122.304 76.8554 121.569 77.3581C120.901 77.8151 121.54 78.7109 121.081 79.3799C120.562 80.1369 119.928 80.254 119.086 80.61C117.648 81.2176 116.684 81.0102 115.133 81.1535C113.71 81.285 111.479 81.3411 111.479 81.3411C111.479 81.3411 112.143 80.413 112.672 79.9174C113.718 78.937 114.697 78.9487 115.866 78.1207C117.002 77.3156 117.43 76.5959 118.555 75.7744C119.989 74.7272 124.129 74.1964 122.497 73.5165C121.648 73.1631 121.062 73.6326 120.144 73.5904C117.889 73.4867 116.037 73.9184 114.527 72.2343C113.878 71.51 113.362 70.0272 113.362 70.0272C113.362 70.0272 114.323 70.3738 114.966 70.4146C116.154 70.49 116.803 70.0583 117.916 69.6289C119.462 69.0323 120.31 68.5622 121.608 67.5248C123.108 66.3262 125.167 65.7068 124.84 63.8116C124.586 62.3441 123.445 61.7623 122.07 61.2171C120.219 60.4835 117.017 61.9228 117.017 61.9228C117.017 61.9228 120.531 59.3479 122.411 59.8018L127.226 60.9641C127.226 60.9641 129.51 62.0121 131.037 61.8843C132.807 61.7362 133.427 60.3875 135.13 59.877C137.627 59.1288 139.325 58.7205 141.788 59.5587Z" fill="#FFAC30"/>
<path d="M136.802 61.7994L139.459 62.441L140.025 67.4549L144.64 68.5692L143.626 72.7712C143.626 72.7712 142.254 74.2637 141.079 74.7383C138.502 75.779 136.086 74.9889 134.085 73.0499C132.308 71.3274 131.72 69.5097 132.112 67.1224C132.558 64.4063 136.802 61.7994 136.802 61.7994Z" fill="url(#paint2_linear)"/>
<path d="M135.929 65.5117C136.753 62.0995 138.772 59.6598 142.335 60.5198C145.897 61.3799 148.117 64.8433 147.293 68.2556C144.449 70.2438 142.914 73.7367 139.351 72.8767C135.789 72.0166 135.105 68.924 135.929 65.5117Z" fill="url(#paint3_linear)"/>
<defs>
<linearGradient id="paint0_linear" x1="316.411" y1="173.759" x2="329.546" y2="144.985" gradientUnits="userSpaceOnUse">
<stop stop-color="#E84500"/>
<stop offset="1" stop-color="#BF3900"/>
</linearGradient>
<linearGradient id="paint1_linear" x1="326.745" y1="164.457" x2="334.731" y2="131.382" gradientUnits="userSpaceOnUse">
<stop offset="0.0564345" stop-color="#E16C00"/>
</linearGradient>
<linearGradient id="paint2_linear" x1="130.638" y1="82.1157" x2="139.441" y2="62.3901" gradientUnits="userSpaceOnUse">
<stop stop-color="#E84500"/>
<stop offset="1" stop-color="#BF3900"/>
</linearGradient>
<linearGradient id="paint3_linear" x1="138.879" y1="75.2295" x2="144.324" y2="52.6783" gradientUnits="userSpaceOnUse">
<stop offset="0.0564345" stop-color="#E16C00"/>
</linearGradient>
</defs>
</svg>
