<svg width="142" height="138" viewBox="0 0 142 138" fill="none" xmlns="http://www.w3.org/2000/svg">
<g filter="url(#filter0_d)">
<g filter="url(#filter1_d)">
<path d="M89.0158 110.122C90.9714 108.248 91.2756 103.56 91.2756 103.56L93.1046 100.966C93.1046 100.966 99.8061 101.294 103.716 99.9047C106.976 98.7464 109.337 98.1768 111.278 95.3344C113.155 92.5856 112.799 90.2803 112.86 86.9358C112.923 83.5005 112.554 79.9638 112.701 76.5322C112.903 71.79 114.536 71.3859 115.289 66.7071C115.966 62.5031 116.268 59.9937 115.496 55.7847C114.619 51.0108 112.987 48.5613 110.55 44.3361C108.486 40.7586 107.402 38.5673 104.393 35.7232C102.152 33.6049 100.71 32.5206 97.9378 31.1712C94.4807 29.4885 89.675 28.0632 89.675 28.0632C89.675 28.0632 86.3287 27.257 84.991 26.3137L77.8767 21.2972C73.8636 18.4674 72.3361 15.3139 67.6006 14.051C62.3186 12.6424 58.8888 14.0823 53.8137 15.9797C51.3605 16.8969 50.0577 17.664 47.8453 18.9665L47.7037 19.0499C44.3172 21.0435 42.5586 22.4179 39.5819 24.9732C36.2469 27.8362 32.7683 28.753 31.7313 33.0296C31.1371 35.4804 31.8825 36.9785 32.0986 39.5021C32.3475 42.4077 34.3259 44.3532 32.982 46.921C30.8697 50.9576 26.8654 52.3923 25.4833 57.5555C24.5591 61.0081 23.1423 62.7162 22.6933 66.2677C22.189 70.2568 22.4493 72.6612 23.5225 76.561C24.8733 81.4699 26.5904 84.0632 29.8478 88.0114C33.0217 91.8584 38.8251 95.7008 38.8251 95.7008C38.8251 95.7008 43.3965 99.4797 46.2029 100.903C49.8953 102.776 52.7639 101.798 56.383 103.81C60.2729 105.973 60.5911 109.883 64.6907 111.61C67.6988 112.876 67.8915 114.04 71.1385 114.214C75.1457 114.43 78.392 114.458 82.2765 113.525C84.6324 112.958 87.2771 111.787 89.0158 110.122Z" fill="#4A494E"/>
</g>
<g filter="url(#filter2_d)">
<path d="M68.9503 114.473C71.9972 115.227 73.9535 115.346 76.9193 114.531C80.9844 113.415 83.4272 111.684 85.3302 107.999C87.2333 104.314 87.191 103.594 86.6719 100.701C86.2417 98.3035 85.2305 97.1086 83.8399 95.0607C83.1285 94.013 82.0131 93.732 81.8403 92.5003C81.7114 91.5813 82.4358 90.2358 82.4358 90.2358C82.4358 90.2358 84.447 89.4127 85.7566 88.9344C87.4705 88.3085 88.6521 88.4095 90.1977 87.4643C91.6407 86.5818 92.9443 86.1304 93.3046 84.4782C93.3046 84.4782 93.4599 82.8868 93.0507 81.9983C92.4114 80.6104 91.0941 80.6187 89.8405 79.7347C88.3257 78.6665 86.3538 78.7731 85.9616 76.9995C85.4968 74.8977 88.0268 74.4029 89.7006 73.117C92.1417 71.2415 94.4429 71.6213 96.884 69.7458C98.5578 68.4598 100.585 67.9941 100.623 65.8633C100.623 65.8633 100.488 64.5187 100.098 63.7675C98.7779 61.2251 95.734 62.7102 92.8985 62.3338C88.4775 61.7468 85.3078 61.6093 80.8763 61.708C77.0831 61.7925 74.6856 64.0009 71.2017 62.3638C69.9308 61.7667 69.3224 61.8874 68.9114 60.5668C68.5081 59.2711 70.1741 59.0375 70.8078 57.8775C71.991 55.7114 73.5364 55.1444 75.0886 53.2266C76.7059 51.2284 78.2452 49.984 78.2125 47.3764C78.1998 46.3657 78.2212 45.6655 77.6007 44.8359C77.1052 44.1734 76.5983 43.9932 75.8619 43.6098C73.4254 42.3414 72.4854 45.7758 70.3347 44.0642C67.1399 41.5218 72.8157 36.8133 73.3017 34.4604C73.7877 32.1075 73.986 31.1775 74.472 28.8246C74.9581 26.4717 72.3545 24.9614 70.8742 23.9868C69.4893 23.0751 68.3464 23.3267 66.7142 23.3543C64.2475 23.3959 63.1131 24.6144 60.7047 25.0606C58.7046 25.4312 56.7754 27.2545 55.5079 25.6144C54.3504 24.1166 57.5704 22.7541 56.6988 21.0855C56.0832 19.907 55.1139 19.6501 53.8899 19.1049C51.6591 18.111 47.7134 18.776 47.7134 18.776L43.7533 20.9688L38.5858 25.4952C38.5858 25.4952 37.7259 42.028 38.428 44.4405C39.13 46.8529 42.8792 46.0873 44.631 47.8558C46.2082 49.448 47.621 47.9421 47.8411 50.1193C48.0576 52.2601 46.8097 55.6307 45.6936 57.425C44.0656 60.0421 40.376 63.2622 40.376 63.2622C40.376 63.2622 38.6469 65.8671 38.3792 67.798C38.0733 70.0038 38.673 71.3283 39.3752 73.4856C40.4725 76.8568 42.3564 78.216 44.0295 81.3692C45.6128 84.3531 46.6925 85.979 47.7442 89.1654C48.4697 91.3637 48.9414 92.6289 49.098 94.9135C49.2884 97.6903 47.1816 100.445 47.1816 100.445C47.1816 100.445 50.9198 102.42 52.6321 102.966C54.5004 103.561 54.2198 104.438 55.976 105.324C61.2358 107.978 63.2601 113.063 68.9503 114.473Z" fill="#706E73"/>
</g>
<g filter="url(#filter3_d)">
<path d="M50.3544 97.2497C50.0577 99.1182 48.8851 101.858 48.8851 101.858C48.8851 101.858 44.113 99.6011 41.3335 97.7007C38.1394 95.5168 36.3659 94.1517 33.8249 91.2383C30.8363 87.8119 29.7441 85.3987 27.7641 81.3204C26.3167 78.3392 25.1763 76.7025 24.6096 73.4518C23.9586 69.7173 25.2808 63.8043 25.2808 63.8043L28.3488 57.2094C29.5469 54.6339 35.4985 47.0699 35.4985 47.0699C35.4985 47.0699 34.1768 42.8706 33.8889 40.096C33.5666 36.9896 32.7928 34.9004 34.1719 32.1211C35.551 29.3418 39.3052 24.8412 39.3052 24.8412C39.3052 24.8412 40.5914 34.7381 40.7234 39.6602C40.7796 41.7586 40.8906 45.0331 40.8906 45.0331C40.8906 45.0331 44.1761 45.9357 45.8918 47.1972C47.4585 48.3493 48.7471 49.0278 49.2133 50.9018C49.5856 52.3982 48.6499 54.7864 48.6499 54.7864L41.7752 64.5359C40.6019 66.1998 40.0084 68.3505 39.8583 69.2178C39.8583 69.2178 40.5316 72.2076 41.1956 74.0534C43.0042 79.0806 46.3784 80.7836 48.3835 85.7391C49.2742 87.9407 49.8575 89.1878 50.2384 91.5236C50.5992 93.736 50.7043 95.0463 50.3544 97.2497Z" fill="#9A999E"/>
</g>
<g filter="url(#filter4_d)">
<path d="M60.3722 85.5674C62.5342 82.5012 70.5058 82.5645 74.7307 85.5436C78.9556 88.5227 79.3992 89.6574 77.2371 92.7235C75.0751 95.7897 72.5828 97.5604 68.3579 94.5813C64.133 91.6022 58.2101 88.6335 60.3722 85.5674Z" fill="#302F34"/>
</g>
<g filter="url(#filter5_d)">
<path d="M83.0314 75.4995C84.2227 73.81 81.8629 69.0835 78.8626 66.9679C75.8623 64.8523 75.0592 64.7388 73.8678 66.4283C72.6765 68.1178 72.3508 69.8322 75.3511 71.9478C78.3514 74.0635 81.8401 77.189 83.0314 75.4995Z" fill="#302F34"/>
</g>
<g filter="url(#filter6_d)">
<path d="M61.5303 48.3482C63.9129 44.9691 63.3834 38.4708 60.6893 36.571C57.9951 34.6713 57.0389 34.9028 54.6562 38.2818C52.2735 41.6608 50.972 44.6312 53.6661 46.531C56.3603 48.4307 59.1476 51.7272 61.5303 48.3482Z" fill="#302F34"/>
</g>
</g>
<defs>
<filter id="filter0_d" x="0" y="0" width="141.269" height="137.867" filterUnits="userSpaceOnUse" color-interpolation-filters="sRGB">
<feFlood flood-opacity="0" result="BackgroundImageFix"/>
<feColorMatrix in="SourceAlpha" type="matrix" values="0 0 0 0 0 0 0 0 0 0 0 0 0 0 0 0 0 0 127 0"/>
<feOffset dy="4"/>
<feGaussianBlur stdDeviation="2"/>
<feColorMatrix type="matrix" values="0 0 0 0 0 0 0 0 0 0 0 0 0 0 0 0 0 0 0.25 0"/>
<feBlend mode="normal" in2="BackgroundImageFix" result="effect1_dropShadow"/>
<feBlend mode="normal" in="SourceGraphic" in2="effect1_dropShadow" result="shape"/>
</filter>
<filter id="filter1_d" x="0" y="0" width="141.269" height="137.867" filterUnits="userSpaceOnUse" color-interpolation-filters="sRGB">
<feFlood flood-opacity="0" result="BackgroundImageFix"/>
<feColorMatrix in="SourceAlpha" type="matrix" values="0 0 0 0 0 0 0 0 0 0 0 0 0 0 0 0 0 0 127 0"/>
<feOffset dy="4"/>
<feGaussianBlur stdDeviation="2"/>
<feColorMatrix type="matrix" values="0 0 0 0 0 0 0 0 0 0 0 0 0 0 0 0 0 0 0.25 0"/>
<feBlend mode="normal" in2="BackgroundImageFix" result="effect1_dropShadow"/>
<feBlend mode="normal" in="SourceGraphic" in2="effect1_dropShadow" result="shape"/>
</filter>
<filter id="filter2_d" x="2.14185" y="9.24841" width="122.103" height="119.76" filterUnits="userSpaceOnUse" color-interpolation-filters="sRGB">
<feFlood flood-opacity="0" result="BackgroundImageFix"/>
<feColorMatrix in="SourceAlpha" type="matrix" values="0 0 0 0 0 0 0 0 0 0 0 0 0 0 0 0 0 0 127 0"/>
<feOffset dy="4"/>
<feGaussianBlur stdDeviation="2"/>
<feColorMatrix type="matrix" values="0 0 0 0 0 0 0 0 0 0 0 0 0 0 0 0 0 0 0.25 0"/>
<feBlend mode="normal" in2="BackgroundImageFix" result="effect1_dropShadow"/>
<feBlend mode="normal" in="SourceGraphic" in2="effect1_dropShadow" result="shape"/>
</filter>
<filter id="filter3_d" x="1.48474" y="24.7197" width="84.4911" height="85.9286" filterUnits="userSpaceOnUse" color-interpolation-filters="sRGB">
<feFlood flood-opacity="0" result="BackgroundImageFix"/>
<feColorMatrix in="SourceAlpha" type="matrix" values="0 0 0 0 0 0 0 0 0 0 0 0 0 0 0 0 0 0 127 0"/>
<feOffset dy="4"/>
<feGaussianBlur stdDeviation="2"/>
<feColorMatrix type="matrix" values="0 0 0 0 0 0 0 0 0 0 0 0 0 0 0 0 0 0 0.25 0"/>
<feBlend mode="normal" in2="BackgroundImageFix" result="effect1_dropShadow"/>
<feBlend mode="normal" in="SourceGraphic" in2="effect1_dropShadow" result="shape"/>
</filter>
<filter id="filter4_d" x="54.7113" y="78.7892" width="29.0749" height="27.4529" filterUnits="userSpaceOnUse" color-interpolation-filters="sRGB">
<feFlood flood-opacity="0" result="BackgroundImageFix"/>
<feColorMatrix in="SourceAlpha" type="matrix" values="0 0 0 0 0 0 0 0 0 0 0 0 0 0 0 0 0 0 127 0"/>
<feOffset dy="4"/>
<feGaussianBlur stdDeviation="2"/>
<feColorMatrix type="matrix" values="0 0 0 0 0 0 0 0 0 0 0 0 0 0 0 0 0 0 0.25 0"/>
<feBlend mode="normal" in2="BackgroundImageFix" result="effect1_dropShadow"/>
<feBlend mode="normal" in="SourceGraphic" in2="effect1_dropShadow" result="shape"/>
</filter>
<filter id="filter5_d" x="67.7236" y="64.4363" width="21.9414" height="20.361" filterUnits="userSpaceOnUse" color-interpolation-filters="sRGB">
<feFlood flood-opacity="0" result="BackgroundImageFix"/>
<feColorMatrix in="SourceAlpha" type="matrix" values="0 0 0 0 0 0 0 0 0 0 0 0 0 0 0 0 0 0 127 0"/>
<feOffset dy="4"/>
<feGaussianBlur stdDeviation="2"/>
<feColorMatrix type="matrix" values="0 0 0 0 0 0 0 0 0 0 0 0 0 0 0 0 0 0 0.25 0"/>
<feBlend mode="normal" in2="BackgroundImageFix" result="effect1_dropShadow"/>
<feBlend mode="normal" in="SourceGraphic" in2="effect1_dropShadow" result="shape"/>
</filter>
<filter id="filter6_d" x="48.1642" y="35.379" width="18.8838" height="22.4276" filterUnits="userSpaceOnUse" color-interpolation-filters="sRGB">
<feFlood flood-opacity="0" result="BackgroundImageFix"/>
<feColorMatrix in="SourceAlpha" type="matrix" values="0 0 0 0 0 0 0 0 0 0 0 0 0 0 0 0 0 0 127 0"/>
<feOffset dy="4"/>
<feGaussianBlur stdDeviation="2"/>
<feColorMatrix type="matrix" values="0 0 0 0 0 0 0 0 0 0 0 0 0 0 0 0 0 0 0.25 0"/>
<feBlend mode="normal" in2="BackgroundImageFix" result="effect1_dropShadow"/>
<feBlend mode="normal" in="SourceGraphic" in2="effect1_dropShadow" result="shape"/>
</filter>
</defs>
</svg>
