<svg width="165" height="161" viewBox="0 0 165 161" fill="none" xmlns="http://www.w3.org/2000/svg">
<g filter="url(#filter0_d)">
<g filter="url(#filter1_d)">
<path d="M103.274 129.538C105.588 127.303 106.002 121.767 106.002 121.767L108.176 118.683C108.176 118.683 116.022 118.988 120.619 117.301C124.453 115.894 127.225 115.193 129.534 111.815C131.767 108.548 131.378 105.832 131.491 101.884C131.606 97.8287 131.217 93.6593 131.431 89.6076C131.726 84.0086 133.643 83.5117 134.583 77.9807C135.428 73.0111 135.812 70.0458 134.958 65.0879C133.99 59.4647 132.108 56.5938 129.304 51.6371C126.931 47.4402 125.688 44.8674 122.198 41.5477C119.598 39.0751 117.922 37.8131 114.691 36.2544C110.662 34.3108 105.049 32.6874 105.049 32.6874C105.049 32.6874 101.139 31.7769 99.5838 30.68L91.3111 24.8466C86.6445 21.556 84.8937 17.8531 79.3616 16.4205C73.1912 14.8227 69.1558 16.5639 63.1873 18.8652C60.3023 19.9776 58.7667 20.8988 56.1591 22.4632L55.9922 22.5633C52.0007 24.9574 49.9237 26.6009 46.4055 29.6531C42.4637 33.0727 38.3774 34.1971 37.1104 39.2569C36.3843 42.1565 37.2392 43.9154 37.4616 46.891C37.7176 50.3171 40.0114 52.5889 38.4058 55.6359C35.8819 60.4255 31.1735 62.1677 29.4913 68.278C28.3665 72.364 26.6859 74.3971 26.1165 78.594C25.477 83.3079 25.7526 86.1424 26.962 90.7316C28.4845 96.5085 30.4643 99.5481 34.2319 104.168C37.903 108.669 44.6544 113.133 44.6544 113.133C44.6544 113.133 49.9635 117.537 53.2335 119.182C57.5362 121.348 60.9085 120.158 65.1236 122.488C69.654 124.993 69.979 129.604 74.7604 131.592C78.2687 133.05 78.4802 134.421 82.2818 134.587C86.9734 134.792 90.776 134.786 95.3379 133.637C98.1046 132.94 101.217 131.526 103.274 129.538Z" fill="#4A494E"/>
</g>
<g filter="url(#filter2_d)">
<path d="M79.7155 134.919C83.2756 135.772 85.5658 135.888 89.05 134.891C93.8258 133.523 96.7086 131.451 98.983 127.079C101.257 122.707 101.217 121.857 100.644 118.449C100.169 115.625 98.9992 114.227 97.3952 111.827C96.5747 110.6 95.2715 110.282 95.0841 108.83C94.9443 107.747 95.8093 106.15 95.8093 106.15C95.8093 106.15 98.1755 105.154 99.7154 104.574C101.731 103.814 103.114 103.919 104.936 102.785C106.637 101.725 108.17 101.177 108.612 99.2225C108.612 99.2225 108.813 97.3425 108.345 96.2989C107.613 94.6687 106.07 94.6946 104.612 93.6667C102.851 92.4246 100.539 92.5745 100.101 90.4861C99.5826 88.0114 102.553 87.3965 104.529 85.8584C107.412 83.6151 110.103 84.0353 112.985 81.792C114.962 80.2539 117.342 79.6795 117.413 77.1643C117.413 77.1643 117.271 75.5791 116.824 74.6974C115.308 71.713 111.724 73.5029 108.407 73.0932C103.235 72.4546 99.5236 72.331 94.3311 72.5017C89.8866 72.6477 87.051 75.2833 82.9898 73.394C81.5084 72.7047 80.7942 72.8546 80.3288 71.3012C79.8722 69.7769 81.8267 69.4808 82.5832 68.1042C83.9957 65.5334 85.813 64.8453 87.6548 62.5629C89.5738 60.185 91.3923 58.6975 91.3858 55.6205C91.3833 54.4279 91.417 53.6013 90.7002 52.6298C90.1278 51.854 89.5363 51.6475 88.6783 51.204C85.8396 49.7369 84.6964 53.8015 82.1978 51.8079C78.4864 48.8464 85.1929 43.2202 85.791 40.4375C86.3891 37.6547 86.6327 36.5548 87.2308 33.772C87.8289 30.9892 84.7975 29.2386 83.0752 28.1065C81.4641 27.0475 80.1221 27.3584 78.2097 27.4109C75.3196 27.4902 73.9758 28.9421 71.149 29.4981C68.8014 29.9599 66.5192 32.1353 65.0544 30.2152C63.7168 28.4617 67.5055 26.8143 66.5049 24.8558C65.7981 23.4724 64.6658 23.1812 63.2386 22.5526C60.6374 21.407 56.0071 22.24 56.0071 22.24L51.3412 24.8763L45.2325 30.2813C45.2325 30.2813 44.023 49.8034 44.816 52.6419C45.6089 55.4804 50.0102 54.531 52.0408 56.5967C53.869 58.4566 55.5424 56.6621 55.7736 59.2289C56.001 61.7527 54.498 65.7459 53.1686 67.877C51.2295 70.9855 46.8679 74.8309 46.8679 74.8309C46.8679 74.8309 44.8106 77.9263 44.4733 80.2084C44.088 82.8153 44.7744 84.3711 45.5706 86.9085C46.8148 90.8737 49.0051 92.4547 50.9265 96.1556C52.7448 99.6578 53.9897 101.563 55.1828 105.311C56.0058 107.897 56.5429 109.384 56.6985 112.078C56.8876 115.353 54.3859 118.63 54.3859 118.63C54.3859 118.63 58.7409 120.915 60.74 121.538C62.9215 122.218 62.582 123.256 64.6284 124.28C70.7576 127.348 73.0669 133.324 79.7155 134.919Z" fill="#706E73"/>
</g>
<g filter="url(#filter3_d)">
<path d="M58.1415 114.82C57.7711 117.029 56.364 120.276 56.364 120.276C56.364 120.276 50.8013 117.671 47.5684 115.462C43.8533 112.924 41.7925 111.335 38.8515 107.928C35.3924 103.92 34.1423 101.086 31.8727 96.2968C30.2136 92.7961 28.8976 90.8786 28.2736 87.049C27.5566 82.6496 29.1777 75.6552 29.1777 75.6552L32.8524 67.8346C34.2874 64.7804 41.3519 55.7808 41.3519 55.7808C41.3519 55.7808 39.8549 50.8411 39.5515 47.5701C39.2119 43.908 38.331 41.4518 39.9805 38.1549C41.6301 34.858 46.0829 29.5007 46.0829 29.5007C46.0829 29.5007 47.4687 41.165 47.5631 46.9723C47.6034 49.448 47.6934 53.3112 47.6934 53.3112C47.6934 53.3112 51.5312 54.3362 53.5256 55.8041C55.3468 57.1446 56.848 57.9295 57.3713 60.1355C57.7892 61.8969 56.6638 64.7268 56.6638 64.7268L48.4912 76.317C47.0964 78.295 46.3749 80.8404 46.1885 81.8658C46.1885 81.8658 46.9407 85.386 47.696 87.5563C49.7531 93.4671 53.6851 95.4358 55.9733 101.26C56.9899 103.847 57.6579 105.312 58.0756 108.064C58.4713 110.67 58.5784 112.215 58.1415 114.82Z" fill="#9A999E"/>
</g>
<g filter="url(#filter4_d)">
<path d="M70.0196 100.91C72.5899 97.2653 81.9274 97.2425 86.8403 100.707C91.7532 104.171 92.2589 105.505 89.6887 109.15C87.1185 112.795 84.1772 114.915 79.2643 111.451C74.3515 107.986 67.4494 104.555 70.0196 100.91Z" fill="#302F34"/>
</g>
<g filter="url(#filter5_d)">
<path d="M96.687 88.7515C98.1032 86.7431 95.3966 81.1939 91.9077 78.7337C88.4189 76.2736 87.4794 76.1495 86.0632 78.158C84.6469 80.1665 84.2444 82.1938 87.7332 84.6539C91.2221 87.114 95.2707 90.76 96.687 88.7515Z" fill="#302F34"/>
</g>
<g filter="url(#filter6_d)">
<path d="M71.8313 56.9711C74.6638 52.9542 74.1229 45.2915 70.9901 43.0824C67.8573 40.8734 66.7342 41.1582 63.9017 45.1751C61.0692 49.1921 59.5082 52.7136 62.6411 54.9227C65.7739 57.1318 68.9988 60.9881 71.8313 56.9711Z" fill="#302F34"/>
</g>
</g>
<defs>
<filter id="filter0_d" x="0.155518" y="0" width="164.277" height="160.867" filterUnits="userSpaceOnUse" color-interpolation-filters="sRGB">
<feFlood flood-opacity="0" result="BackgroundImageFix"/>
<feColorMatrix in="SourceAlpha" type="matrix" values="0 0 0 0 0 0 0 0 0 0 0 0 0 0 0 0 0 0 127 0"/>
<feOffset dy="4"/>
<feGaussianBlur stdDeviation="2"/>
<feColorMatrix type="matrix" values="0 0 0 0 0 0 0 0 0 0 0 0 0 0 0 0 0 0 0.25 0"/>
<feBlend mode="normal" in2="BackgroundImageFix" result="effect1_dropShadow"/>
<feBlend mode="normal" in="SourceGraphic" in2="effect1_dropShadow" result="shape"/>
</filter>
<filter id="filter1_d" x="0.155518" y="0" width="164.277" height="160.867" filterUnits="userSpaceOnUse" color-interpolation-filters="sRGB">
<feFlood flood-opacity="0" result="BackgroundImageFix"/>
<feColorMatrix in="SourceAlpha" type="matrix" values="0 0 0 0 0 0 0 0 0 0 0 0 0 0 0 0 0 0 127 0"/>
<feOffset dy="4"/>
<feGaussianBlur stdDeviation="2"/>
<feColorMatrix type="matrix" values="0 0 0 0 0 0 0 0 0 0 0 0 0 0 0 0 0 0 0.25 0"/>
<feBlend mode="normal" in2="BackgroundImageFix" result="effect1_dropShadow"/>
<feBlend mode="normal" in="SourceGraphic" in2="effect1_dropShadow" result="shape"/>
</filter>
<filter id="filter2_d" x="2.66333" y="10.9674" width="141.823" height="139.575" filterUnits="userSpaceOnUse" color-interpolation-filters="sRGB">
<feFlood flood-opacity="0" result="BackgroundImageFix"/>
<feColorMatrix in="SourceAlpha" type="matrix" values="0 0 0 0 0 0 0 0 0 0 0 0 0 0 0 0 0 0 127 0"/>
<feOffset dy="4"/>
<feGaussianBlur stdDeviation="2"/>
<feColorMatrix type="matrix" values="0 0 0 0 0 0 0 0 0 0 0 0 0 0 0 0 0 0 0.25 0"/>
<feBlend mode="normal" in2="BackgroundImageFix" result="effect1_dropShadow"/>
<feBlend mode="normal" in="SourceGraphic" in2="effect1_dropShadow" result="shape"/>
</filter>
<filter id="filter3_d" x="1.88208" y="29.3594" width="97.8198" height="99.8566" filterUnits="userSpaceOnUse" color-interpolation-filters="sRGB">
<feFlood flood-opacity="0" result="BackgroundImageFix"/>
<feColorMatrix in="SourceAlpha" type="matrix" values="0 0 0 0 0 0 0 0 0 0 0 0 0 0 0 0 0 0 127 0"/>
<feOffset dy="4"/>
<feGaussianBlur stdDeviation="2"/>
<feColorMatrix type="matrix" values="0 0 0 0 0 0 0 0 0 0 0 0 0 0 0 0 0 0 0.25 0"/>
<feBlend mode="normal" in2="BackgroundImageFix" result="effect1_dropShadow"/>
<feBlend mode="normal" in="SourceGraphic" in2="effect1_dropShadow" result="shape"/>
</filter>
<filter id="filter4_d" x="64.0452" y="92.8524" width="32.6738" height="30.8576" filterUnits="userSpaceOnUse" color-interpolation-filters="sRGB">
<feFlood flood-opacity="0" result="BackgroundImageFix"/>
<feColorMatrix in="SourceAlpha" type="matrix" values="0 0 0 0 0 0 0 0 0 0 0 0 0 0 0 0 0 0 127 0"/>
<feOffset dy="4"/>
<feGaussianBlur stdDeviation="2"/>
<feColorMatrix type="matrix" values="0 0 0 0 0 0 0 0 0 0 0 0 0 0 0 0 0 0 0.25 0"/>
<feBlend mode="normal" in2="BackgroundImageFix" result="effect1_dropShadow"/>
<feBlend mode="normal" in="SourceGraphic" in2="effect1_dropShadow" result="shape"/>
</filter>
<filter id="filter5_d" x="79.5142" y="75.79" width="24.3037" height="22.5045" filterUnits="userSpaceOnUse" color-interpolation-filters="sRGB">
<feFlood flood-opacity="0" result="BackgroundImageFix"/>
<feColorMatrix in="SourceAlpha" type="matrix" values="0 0 0 0 0 0 0 0 0 0 0 0 0 0 0 0 0 0 127 0"/>
<feOffset dy="4"/>
<feGaussianBlur stdDeviation="2"/>
<feColorMatrix type="matrix" values="0 0 0 0 0 0 0 0 0 0 0 0 0 0 0 0 0 0 0.25 0"/>
<feBlend mode="normal" in2="BackgroundImageFix" result="effect1_dropShadow"/>
<feBlend mode="normal" in="SourceGraphic" in2="effect1_dropShadow" result="shape"/>
</filter>
<filter id="filter6_d" x="54.8037" y="40.439" width="27.2893" height="27.6179" filterUnits="userSpaceOnUse" color-interpolation-filters="sRGB">
<feFlood flood-opacity="0" result="BackgroundImageFix"/>
<feColorMatrix in="SourceAlpha" type="matrix" values="0 0 0 0 0 0 0 0 0 0 0 0 0 0 0 0 0 0 127 0"/>
<feOffset dy="4"/>
<feGaussianBlur stdDeviation="2"/>
<feColorMatrix type="matrix" values="0 0 0 0 0 0 0 0 0 0 0 0 0 0 0 0 0 0 0.25 0"/>
<feBlend mode="normal" in2="BackgroundImageFix" result="effect1_dropShadow"/>
<feBlend mode="normal" in="SourceGraphic" in2="effect1_dropShadow" result="shape"/>
</filter>
</defs>
</svg>
