<svg width="356" height="219" viewBox="0 0 356 219" fill="none" xmlns="http://www.w3.org/2000/svg">
<g filter="url(#filter0_d)">
<path d="M30.3996 132.584C30.3996 132.584 22.2376 134.006 17.4217 132.584C16.2177 132.228 13.6781 132.584 13.6781 132.584C9.93455 132.584 8.49814 131.004 6.44043 128.088C4.85031 125.834 4.7355 123.326 4.44375 120.669C4.01208 116.737 3.71095 114.447 4.44375 110.552C5.04119 107.376 5.82019 105.659 7.18908 102.683C8.89238 98.9808 10.4015 97.1335 12.6797 93.6909C14.4519 91.0129 15.4677 89.5197 17.4217 86.9464C19.5457 84.1492 21.1164 82.8214 23.1619 79.9771C25.3442 76.9426 27.4047 70.7597 27.4047 70.7597L28.1534 73.2327L29.6508 76.1553C30.2356 77.2966 44.6253 64.4649 44.6253 64.4649L46.1228 61.9919V58.8445L44.6253 57.9452C44.6253 57.9452 46.7982 56.8659 48.1194 57.2708C49.1003 57.5713 50.116 58.8445 50.116 58.8445L51.1143 61.9919C51.1143 61.9919 55.3967 60.3395 57.8528 58.8445C61.1668 56.8273 63.5353 55.7648 65.3401 52.5496C65.9939 51.3849 66.588 49.4022 66.588 49.4022H65.3401L61.3469 50.5263C61.3469 50.5263 63.5012 49.1807 64.5914 48.0533C65.5146 47.0985 65.8228 46.4177 66.588 45.3555C68.7534 42.3494 69.5639 40.4329 71.829 37.487C74.5506 33.9475 79.5659 28.944 79.5659 28.944L86.0548 24.6725L92.7934 21.3003H96.7866L93.7916 23.0988L87.0531 28.0448C87.0531 28.0448 81.6766 30.995 80.3146 34.1148C79.8734 35.1254 79.5659 36.8126 79.5659 36.8126C79.5659 36.8126 80.9511 40.5674 80.3146 42.8826C79.6581 45.2703 76.3214 48.0533 76.3214 48.0533H79.5659L90.048 34.1148L95.2891 28.7192L102.776 24.6725L107.019 23.9981L101.528 28.0448C101.528 28.0448 97.5122 30.5237 96.7866 32.9907C96.3622 34.4334 96.7866 36.8126 96.7866 36.8126L101.029 38.1615L110.014 34.1148L116.503 28.944L125.737 18.3777L131.727 13.2069L138.466 9.83472H141.46L140.462 11.1836L134.722 14.7807C134.722 14.7807 132.162 18.6395 130.978 21.3003C129.624 24.3453 128.483 29.3937 128.483 29.3937L123.242 35.2389L115.006 38.1615L105.522 45.8052V49.4022H108.267L113.758 48.0533L119.248 41.3089C119.248 41.3089 122.923 38.1785 125.737 36.8126C129.485 34.9937 131.966 33.9482 136.219 34.1148C139.914 34.2595 145.204 36.8126 145.204 36.8126L137.717 38.1615C137.717 38.1615 130.864 39.2059 127.235 41.3089C123.287 43.5969 120.995 46.9293 119.248 49.4022C117.501 51.8752 116.212 55.3174 113.758 58.8445C109.131 65.4931 106.81 70.184 99.2823 74.1319C96.1852 75.7561 90.7967 77.2793 90.7967 77.2793L94.7899 79.9771L101.529 81.7756C101.529 81.7756 97.5356 84.1579 94.7899 85.3727C90.5293 87.2578 87.3366 86.706 83.3095 88.9697C78.0357 91.9343 72.8273 99.7609 72.8273 99.7609C72.8273 99.7609 66.2454 107.302 63.3435 112.8C61.9913 115.362 63.7101 114.769 60.3486 119.545C56.987 124.32 47.3707 128.088 47.3707 128.088L30.3996 132.584Z" fill="#8D0101"/>
<path d="M103.618 15.719C101.146 17.1928 96.9214 18.7754 96.9214 18.7754L99.0815 13.9724C99.0815 13.9724 101.754 11.5866 103.618 10.261C105.783 8.72111 107.262 8.27441 109.45 6.76789C111.29 5.5006 113.986 3.27478 113.986 3.27478L117.874 0C117.874 0 116.852 3.69629 115.498 5.67629C114.004 7.86064 112.528 8.53687 110.53 10.261C107.925 12.509 106.568 13.9595 103.618 15.719Z" fill="#8D0101"/>
<path d="M46.646 121.329C43.2319 123.301 41.2171 124.326 38.1838 126.758C36.4315 128.164 35.8622 129.38 33.9527 130.604C29.3418 133.56 22.006 133.319 19.766 133.093C17.5261 132.867 12.2492 133.249 9.06385 130.604C6.72066 128.659 5.33052 124.044 5.33052 124.044C5.33052 124.044 3.60009 118.671 4.08608 117.257L5.33052 113.637C5.33052 113.637 6.20187 111.143 6.82385 109.565C7.63348 107.511 7.80486 106.22 9.06385 104.362C10.2915 102.55 13.0461 100.29 13.0461 100.29L15.5349 95.5393C15.5349 95.5393 18.206 92.0071 19.766 89.6574C21.3172 87.3211 22.0074 85.9172 23.4994 83.5493C25.2971 80.6962 28.2283 76.31 28.2283 76.31V80.3821V85.1329V87.6213L31.2149 86.4902C31.2149 86.4902 30.7768 83.4156 31.2149 81.5132C31.7227 79.3086 32.6489 78.2255 33.9527 76.31C34.9039 74.9125 36.6905 72.9166 36.6905 72.9166L42.6638 68.6183C42.6638 68.6183 44.3606 67.998 45.1527 67.261C46.6361 65.8808 47.8622 64.0917 46.646 62.5102C45.9483 61.6029 43.9082 61.1529 43.9082 61.1529H46.646C46.646 61.1529 49.1909 61.4703 50.1304 62.5102C51.4258 63.944 50.1304 67.261 50.1304 67.261L46.646 71.1068L45.1527 76.31C45.1527 76.31 48.1188 74.1556 50.1304 72.9166C53.1945 71.0296 55.1363 70.2969 58.3438 68.6183C61.5513 66.9398 63.6808 66.4373 66.5571 64.3201C71.5446 60.6487 76.0148 52.1038 76.0148 52.1038C76.0148 52.1038 76.1186 57.0177 74.7704 59.7955C73.6172 62.1716 70.6582 64.5162 68.6257 65.9264C69.4852 65.3839 70.4702 64.7783 71.286 64.3201C73.7275 62.9485 77.7571 61.1529 77.7571 61.1529C77.7571 61.1529 79.9684 60.4824 81.2415 59.7955C83.0184 58.8367 83.7879 57.9792 85.2237 56.6284C87.6418 54.3534 90.4504 50.0678 90.4504 50.0678C90.4504 50.0678 91.3228 54.1921 90.4504 56.6284C89.4449 59.4361 87.4075 60.3243 85.2237 62.5102C81.5229 66.2147 78.8334 67.7304 74.7704 71.1068C72.3335 73.1319 68.3923 73.3122 68.5482 76.31C68.6121 77.5392 68.6965 78.5288 69.7926 79.251C71.6698 80.4878 72.906 77.5628 74.7704 76.31C77.4836 74.487 78.7379 73.1628 81.2415 71.1068C83.7934 69.0112 87.7126 65.6774 87.7126 65.6774C87.7126 65.6774 89.3016 64.6877 90.4504 64.3201C92.834 63.5571 96.9215 64.3201 96.9215 64.3201C96.9215 64.3201 93.7712 64.875 91.9437 65.6774C88.782 67.0656 87.3222 68.548 85.2237 71.1068C82.9353 73.8973 83.5934 76.5044 81.2415 79.251C79.5508 81.2254 78.0338 81.8487 76.0148 83.5493C74.1489 85.1209 71.286 87.6213 71.286 87.6213C71.286 87.6213 73.4323 87.846 74.7704 87.6213C77.7929 87.1138 78.4872 84.7892 81.2415 83.5493C83.6379 82.4704 85.0418 81.6364 87.7126 81.5132C90.8461 81.3687 95.4281 83.5493 95.4281 83.5493C95.4281 83.5493 88.8278 83.4682 85.2237 85.1329C82.5166 86.3832 79.2504 89.6574 79.2504 89.6574L74.7704 97.3491L66.5571 104.362L62.0771 107.529C62.0771 107.529 65.6819 110.428 68.5482 110.923C72.8969 111.673 79.2504 107.529 79.2504 107.529C79.2504 107.529 73.8352 114.511 68.5482 116.126C64.2179 117.449 61.2703 115.076 56.8504 116.126C52.4296 117.176 50.5025 119.101 46.646 121.329Z" fill="#FE8000"/>
<path d="M4.35454 115.288C3.64137 119.105 3.99939 121.564 5.47151 125.165C6.30236 127.197 6.70411 128.544 8.37562 129.993C9.95636 131.364 11.2098 131.852 13.2903 132.188C14.5816 132.396 15.3411 132.335 16.6412 132.188C19.218 131.897 20.5494 131.079 22.8962 129.993C24.5215 129.241 25.2042 128.33 26.9173 127.798C29.4963 126.999 31.4535 129.044 33.8425 127.798C34.7212 127.34 38.7572 126.262 38.7572 126.262H32.5021L29.8214 125.165V123.409L32.5021 122.092L34.5127 120.995V117.922L37.8636 116.386L42.7783 114.849C42.7783 114.849 39.3833 114.709 37.8636 114.191C35.5736 113.41 32.5021 115.288 32.5021 115.288C32.5021 115.288 31.9231 113.272 32.5021 112.216C32.8531 111.575 33.4463 111.513 33.8425 110.899C34.3749 110.073 34.0009 109.323 34.5127 108.485C35.3218 107.16 36.9867 107.573 37.8636 106.29C38.5718 105.254 38.7572 103.217 38.7572 103.217C38.7572 103.217 36.6572 105.019 35.853 105.412C35.0838 105.788 34.6035 105.898 33.8425 106.29C31.3198 107.589 28.2577 110.899 28.2577 110.899L29.8214 108.485C29.8214 108.485 29.3319 106.511 29.8214 105.412C30.3676 104.186 32.5021 103.217 32.5021 103.217C32.5021 103.217 34.0855 101.799 34.5127 100.584C34.9683 99.2875 34.5127 95.3164 34.5127 95.3164C34.5127 95.3164 33.2488 98.9799 32.5021 99.7058C31.3587 100.817 31.3316 101.356 29.8214 101.901C28.7567 102.284 26.9173 101.901 26.9173 101.901L28.2577 95.3164L26.0237 98.8279C26.0237 98.8279 25.4097 101.007 24.0132 101.901C22.7641 102.7 21.9058 102.957 20.4389 103.217C18.9795 103.477 17.2059 104.565 16.6412 103.217C16.2094 102.187 17.7755 101.698 17.7582 100.584C17.7288 98.7042 14.4072 95.3164 14.4072 95.3164V100.584C14.4072 100.584 12.0339 103.342 11.0563 105.412C10.5106 106.568 9.93938 108.485 9.93938 108.485L8.37562 103.217C8.37562 103.217 7.86242 106.469 7.25866 108.485C6.43078 111.249 4.88403 112.455 4.35454 115.288Z" fill="#F8B32A"/>
<path d="M22.8962 92.0243C22.151 93.1647 21.7793 95.3164 21.7793 95.3164C21.7793 95.3164 23.6744 94.6065 24.0132 93.5606C24.1983 92.9889 23.8104 92.5902 24.0132 92.0243C24.3434 91.1024 25.4252 91.2685 26.0237 90.488C26.5407 89.8137 26.9173 88.5127 26.9173 88.5127C26.9173 88.5127 26.3789 89.054 26.0237 89.3906C24.866 90.4878 23.7652 90.6943 22.8962 92.0243Z" fill="#F8B32A"/>
<path d="M42.7783 109.363C41.8433 110.34 39.6507 110.899 39.6507 110.899L40.3209 109.363L41.4379 107.607C41.4379 107.607 42.1673 106.701 42.7783 106.29C43.8266 105.585 45.9058 105.412 45.9058 105.412C45.9058 105.412 45.1779 105.896 44.7888 106.29C44.0802 107.007 44.0334 107.667 43.4484 108.485C43.1976 108.835 43.0769 109.05 42.7783 109.363Z" fill="#F8B32A"/>
<path d="M19.8857 132.322H15.7106L13.0736 124.986H5.82202V118.297C5.82202 118.297 7.32369 115.554 8.89846 114.414C12.3514 111.912 16.22 112.224 19.8857 114.414C23.1422 116.359 24.6665 118.879 24.9399 122.613C25.2509 126.86 19.8857 132.322 19.8857 132.322Z" fill="url(#paint0_linear)"/>
<path d="M20.3979 125.17C20.3979 130.601 18.447 135.004 13.3069 135.004C8.16682 135.004 3.99997 130.601 3.99997 125.17C7.22306 121.146 8.16682 115.335 13.3069 115.335C18.447 115.335 20.3979 119.738 20.3979 125.17Z" fill="url(#paint1_linear)"/>
<path d="M65.6131 207.03C59.1598 209.806 57.3652 212.409 52.7215 210.127C50.2444 208.909 48.756 207.63 47.8316 205.039C47.8316 205.039 47.598 201.521 47.8316 199.287C48.2437 195.345 48.8995 193.078 50.7211 189.554C53.866 183.469 63.3904 177.387 63.3904 177.387L84.2837 161.238C84.2837 161.238 97.1833 153.375 106.511 147.301C113.864 142.512 126.959 133.364 126.959 133.364L142.074 124.516C142.074 124.516 161.12 112.666 156.966 116.33C156.134 117.064 149.419 121.158 152.194 122.082C153.138 122.397 154.743 122.082 154.743 122.082L163.189 116.994L170.08 111.906L177.415 107.039C177.415 107.039 182.527 104.606 188.083 104.606C193.64 104.606 188.083 107.039 188.083 107.039L177.415 110.8C177.415 110.8 171.059 116.975 173.858 116.994C175.452 117.005 177.415 115.003 177.415 115.003L189.639 109.694C189.639 109.694 201.197 107.039 205.643 105.712C210.088 104.385 203.524 110.042 201.197 111.906C198.586 113.999 197.362 112.239 193.196 115.003L182.527 122.082C178.36 124.847 186.083 122.082 189.639 122.082C193.196 122.082 181.413 125.087 176.303 127.391C158.716 135.322 150.771 143.349 134.961 154.38C117.704 166.421 106.496 171.603 91.8409 186.678C87.6505 190.988 86.4758 194.634 81.6165 198.181C77.4216 201.243 70.3884 204.975 65.6131 207.03Z" fill="#8D0101"/>
<path d="M57.098 209.806C53.7083 210.609 53.5137 209.752 50.6281 207.813C49.1409 206.814 47.7278 204.272 47.7278 204.272V199.623C47.7278 199.623 49.2907 194.729 50.6281 191.876C52.0189 188.909 52.0847 187.324 54.4208 185.014C56.2556 183.199 58.1326 183.843 59.5521 181.693C60.8412 179.741 60.6676 176.823 60.6676 176.823V169.961V165.534V159.115L62.6755 154.909V159.115V165.534L64.0141 169.961L67.5837 173.724L79.4081 165.534C79.4081 165.534 87.6219 160.765 91.4555 156.237C96.2697 150.551 99.4872 138.971 99.4872 138.971V144.727V150.925C99.4872 153.518 96.9241 158.074 99.4872 157.565C100.937 157.278 102.164 154.909 102.164 154.909L108.857 149.154C108.857 149.154 111.865 146.095 114.212 144.727C117.514 142.801 120.114 143.462 123.582 141.849C126.577 140.456 130.031 137.745 132.386 135.731C132.987 134.889 133.398 134.323 133.398 134.323L135.183 133.216C135.183 133.216 134.063 134.297 132.386 135.731C131.418 137.088 129.959 139.161 128.936 140.742C127.185 143.449 126.622 145.237 124.698 147.826C122.429 150.877 114.269 154.109 118.005 154.909C120.984 155.548 124.698 150.925 124.698 150.925L120.012 157.565L115.774 162.878C115.774 162.878 113.494 164.121 113.096 165.534C112.36 168.149 120.012 164.427 120.012 164.427L113.096 168.191L105.288 175.717L94.802 185.014C84.6954 191.843 86.1682 192.794 76.0616 199.623C65.9549 206.452 61.1974 208.834 57.098 209.806Z" fill="#FE7C00"/>
<path d="M50.3131 202.141C49.6834 204.383 48.9684 206.192 50.3131 208.099C51.8113 210.225 54.2045 210.366 56.7716 209.865C58.2981 209.567 60.335 208.099 60.335 208.099C60.335 208.099 61.074 206.96 61.6712 206.334C62.5504 205.411 63.2 205.026 64.2821 204.384L64.3437 204.348C66.7743 202.906 68.6494 203.26 71.2477 202.141C72.6746 201.527 73.306 200.766 74.811 200.376C76.662 199.895 77.8155 200.637 79.7106 200.376C82.353 200.011 86.1692 198.169 86.1692 198.169C86.1692 198.169 82.1418 197.645 82.3831 195.962C82.608 194.394 84.8234 195.273 86.1692 194.418C87.9814 193.265 88.0762 191.488 89.9552 190.445C91.89 189.372 93.3161 189.556 95.5229 189.342C97.6869 189.132 99.043 190.067 101.091 189.342C102.567 188.82 104.431 187.135 104.431 187.135H95.5229C95.5229 187.135 96.9753 184.833 98.1954 183.605C99.7698 182.019 100.74 180.989 102.872 180.295C105.103 179.568 106.592 180.796 108.885 180.295C111.128 179.804 114.23 177.867 114.23 177.867C114.23 177.867 110.939 178.235 108.885 177.867C107.072 177.542 106.23 176.722 104.431 176.322C101.037 175.568 99.0018 176.322 95.5229 176.322C95.5229 176.322 93.2766 177.165 92.405 176.322C91.2074 175.165 93.5877 174.015 94.4094 172.571C96.7196 168.511 98.4048 166.467 101.091 162.641C102.799 160.206 105.545 156.462 105.545 156.462L101.091 159.993C101.091 159.993 97.8754 163.422 95.5229 165.289C93.4707 166.918 89.9552 169.04 89.9552 169.04L82.3831 171.247C79.426 172.109 79.1416 169.798 77.0381 170.144C74.1705 170.615 71.2477 174.778 71.2477 174.778L67.0162 176.322L64.3437 169.04V163.965V158.448C64.3437 158.448 63.3092 158.448 63.0075 159.993L61.6712 166.833V174.778C61.6712 174.778 63.2813 180.129 63.0075 183.605C62.8268 185.897 62.6696 187.266 61.6712 189.342C60.0571 192.698 57.1865 193.121 54.7673 195.962C52.8375 198.229 51.1156 199.284 50.3131 202.141Z" fill="#FFB12B"/>
<path d="M220.731 159.549C220.731 159.549 222.179 161.472 223.182 162.643C225.333 165.155 226.509 166.676 229.2 168.61C232.32 170.852 234.366 171.917 238.114 172.808C242.346 173.815 244.962 173.496 249.258 172.808C253.225 172.173 259.064 169.714 259.064 169.714C259.064 169.714 265.992 164.776 269.984 161.096C272.734 158.561 273.317 155.92 276.67 154.246C279.065 153.05 283.357 152.699 283.357 152.699L281.128 150.71C281.128 150.71 277.869 151.961 276.67 150.71C275.532 149.521 275.96 147.992 276.67 146.511C278.27 143.18 282.367 148.924 286.031 148.279C287.957 147.94 288.995 147.441 290.711 146.511C293.578 144.958 294.625 143.261 296.951 140.987C301.173 136.859 306.758 129.496 306.758 129.496L314.112 121.319L316.787 118.889L323.25 117.121L321.69 115.795C321.69 115.795 318.693 115.611 316.787 115.795C316.787 115.795 312.677 115.665 310.769 117.121C309.22 118.304 308.095 121.319 308.095 121.319L304.083 124.634L300.74 127.728C300.74 127.728 296.957 128.152 296.951 126.623L298.512 124.634C298.512 124.634 299.96 122.669 300.74 121.319C301.651 119.746 301.66 118.581 302.746 117.121C305.06 114.011 308.253 114.486 311.438 112.259C313.16 111.055 314.089 110.322 315.672 108.944C318.217 106.731 319.964 105.645 321.69 102.757C322.424 101.528 323.25 99.4422 323.25 99.4422L327.262 96.3485L333.056 95.4645C333.056 95.4645 331.788 93.7732 330.605 93.2547C329.092 92.592 326.37 93.2547 326.37 93.2547L321.69 95.4645L316.787 99.4422C316.787 99.4422 314.1 103.53 311.438 103.641C310.088 103.697 308.717 103.946 308.095 102.757C307.325 101.286 309.685 100.704 310.769 99.4422C313.563 96.1908 315.585 94.7884 318.57 91.7078C321.685 88.4926 326.37 83.3105 326.37 83.3105L330.605 78.007C330.605 78.007 325.218 82.1109 321.69 84.6364C319.36 86.3041 318.5 88.3271 315.672 88.8351H312.552C312.552 88.8351 314.318 85.3865 315.672 83.3105C317.725 80.1649 319.775 79.0275 321.69 75.7972C323.508 72.7295 323.372 70.4284 325.256 67.3998C326.462 65.4606 326.951 64.082 328.822 62.7592C331.09 61.1552 335.731 60.9914 335.731 60.9914C335.731 60.9914 329.999 60.5532 326.37 60.9914C323.268 61.3659 321.476 61.6198 318.57 62.7592C316.07 63.7394 314.686 64.4521 312.552 66.074C309.862 68.1191 308.488 69.592 306.758 72.4824C305.281 74.9493 305.474 76.8174 304.083 79.3329C302.384 82.4057 301.187 88.6937 298.512 86.4043C297.48 85.5218 297.33 84.6082 296.951 83.3105C296.371 81.3209 296.63 80.0535 296.951 78.007C297.397 75.1724 298.085 73.5843 299.626 71.1565C300.647 69.5482 301.357 68.7093 302.746 67.3998C305.375 64.9218 310.769 62.7592 310.769 62.7592C310.769 62.7592 303.884 64.5016 299.626 66.074C296.702 67.1537 294.927 67.5435 292.271 69.1677C289.539 70.8386 288.303 72.2237 286.031 74.4713C283.451 77.023 281.93 78.4695 280.014 81.5427C278.354 84.2033 276.67 88.8351 276.67 88.8351L271.099 99.4422C271.099 99.4422 270.04 110.985 266.419 108.944C265.455 108.402 264.413 106.956 264.413 106.956L266.419 102.757C266.419 102.757 269.057 98.4929 269.984 95.4645C270.754 92.9531 271.099 88.8351 271.099 88.8351L266.419 97.2324L255.944 106.956C255.944 106.956 251.066 109.404 247.92 110.933C245.404 112.157 243.873 112.619 241.457 114.027C235.98 117.22 233.628 120.117 229.2 124.634C227.396 126.474 226.272 127.426 224.742 129.496C222.808 132.112 221.792 133.72 220.731 136.788C219.783 139.526 219.697 141.202 219.393 144.081C218.977 148.029 218.758 150.326 219.393 154.246C219.735 156.354 220.731 159.549 220.731 159.549Z" fill="#8D0101"/>
<path d="M342.862 75.7972L339.297 78.007L334.171 80.9113L338.182 75.7972L340.634 72.4824L342.862 69.1677L347.097 64.527L352 62.7592L348.88 66.074L347.097 69.1677L345.76 72.4824L342.862 75.7972Z" fill="#8D0101"/>
<path d="M225.26 153.942C225.569 157.842 226.549 159.96 226.601 163.871C226.607 164.302 226.558 164.546 226.601 164.974C226.83 167.238 228.432 168.123 230.178 169.608C232.636 171.698 234.636 172.125 237.779 172.918C242.516 174.113 250.298 172.918 250.298 172.918C250.298 172.918 255.939 171.542 259.017 169.608C261.366 168.132 262.589 167.077 264.382 164.974C267.148 161.732 269.301 155.266 269.301 155.266L271.76 147.543C272.72 144.527 275.232 144.145 278.019 142.91C280.706 141.719 285.397 141.365 285.397 141.365L293.445 139.6L286.962 138.717C286.962 138.717 284.78 137.213 283.161 136.952C282.213 136.8 281.618 136.668 280.702 136.952C279.289 137.391 279.388 139.04 278.019 139.6C276.648 140.161 275.208 140.692 274.219 139.6C272.995 138.25 275.086 136.824 276.231 135.408C278.156 133.026 283.161 131.657 283.161 131.657L290.315 127.244C290.315 127.244 294.209 125.253 295.68 123.051C296.897 121.232 296.762 119.821 297.469 117.756C298.414 114.993 298.374 113.175 299.928 110.695C301.389 108.362 304.846 105.62 304.846 105.62H314.906L310.882 103.414L304.846 101.648L299.928 103.414L297.469 105.62L294.339 110.695L290.315 111.798L288.75 110.695C288.75 110.695 287.692 109.307 287.632 108.268C287.529 106.478 289.033 105.787 290.315 104.517C292.962 101.895 296.178 102.944 299.034 100.545C300.541 99.2789 301.413 98.4948 302.387 96.7941C303.71 94.4831 303.659 92.8133 303.952 90.1746C304.218 87.7763 302.214 85.6928 303.952 83.9965C305.172 82.8062 306.124 83.7611 306.858 82.2313C307.269 81.3748 309.541 80.4661 309.541 80.4661C309.541 80.4661 305.461 80.7637 303.952 81.5693C302.644 82.2676 302.131 82.9933 301.046 83.9965C298.696 86.1689 297.651 87.6616 295.68 90.1746C293.413 93.0666 293.588 96.1837 290.315 97.8973C288.197 99.0061 286.659 99.2833 284.279 99.0006C282.826 98.828 281.771 98.8842 280.702 97.8973C279.847 97.1075 279.514 96.3956 279.361 95.2495C279.033 92.8064 281.316 91.8351 283.161 90.1746C285.042 88.482 288.75 86.8649 288.75 86.8649C288.75 86.8649 286.01 86.6362 284.279 86.8649C280.904 87.3108 278.37 87.5604 276.231 90.1746C274.876 91.8302 275.179 92.406 274.219 95.2495L271.76 102.531C271.76 102.531 268.545 108.289 266.394 106.723C264.396 105.268 267.312 102.988 267.512 100.545C267.681 98.4838 267.512 97.3176 267.512 95.2495C267.512 93.957 267.099 93.1663 267.512 91.9398C268.196 89.9088 270.055 89.7327 271.76 88.4094C274.121 86.5763 280.702 82.2313 280.702 82.2313L276.231 82.8932C276.231 82.8932 270.72 85.9791 267.512 88.4094C265.792 89.7126 264.587 90.2439 263.264 91.9398C261.091 94.7258 261.444 97.1337 260.582 100.545C259.827 103.529 260.883 105.805 259.017 108.268C257.42 110.374 253.204 111.798 253.204 111.798C253.204 111.798 246.89 114.227 243.368 116.652C238.608 119.931 236.648 122.721 233.084 127.244C229.545 131.735 226.837 134.126 225.26 139.6C223.708 144.987 224.817 148.358 225.26 153.942Z" fill="#FE7C00"/>
<path d="M301.716 120.183C301.02 121.453 299.707 122.568 300.599 123.713C301.074 124.324 301.607 124.555 302.387 124.596C303.524 124.656 303.875 123.638 304.846 123.051C306.813 121.862 307.976 121.507 309.988 120.183C312 118.859 313.584 117.67 314.906 115.329C315.928 113.519 316.471 110.254 316.471 110.254L314.906 112.681C314.906 112.681 311.997 114.474 309.988 115.329C307.883 116.223 306.243 115.751 304.399 117.094C303.103 118.037 302.482 118.785 301.716 120.183Z" fill="#FE7C00"/>
<path d="M236.169 173.405C234.007 173.214 232.881 172.473 230.991 171.43C229.782 170.763 228.065 169.455 228.065 169.455C228.065 169.455 225.75 168.216 225.138 166.822C224.551 165.483 225.138 163.092 225.138 163.092C225.138 163.092 224.498 160.975 224.463 159.581C224.403 157.191 225.548 155.998 226.039 153.656C226.502 151.448 226.252 150.103 226.939 147.951C227.605 145.865 229.416 142.904 229.416 142.904C229.416 142.904 228.424 145.877 229.416 147.293C229.873 147.945 230.183 148.558 230.991 148.609C231.869 148.665 232.146 147.873 232.792 147.293C234.138 146.084 235.269 144.952 235.494 143.562C235.719 142.172 236.844 138.735 236.844 138.735C236.844 138.735 236.169 136.028 235.494 135.004L236.844 136.101C236.844 136.101 237.951 137.61 238.195 138.735C238.395 139.657 238.195 140.206 238.195 141.148C238.195 142.519 237.052 145.088 238.195 144.659L241.122 143.562C242.265 143.134 242.991 142.76 244.048 142.026C245.012 141.357 245.447 140.85 246.299 140.051C248.094 138.369 250.577 135.443 250.577 135.443V136.101C250.577 136.101 249.548 139.202 248.776 141.148C248.122 142.796 246.085 146.857 246.975 145.318C247.361 144.65 247.875 143.562 247.875 143.562L251.252 142.026C251.252 142.026 253.734 140.714 254.854 139.393C255.806 138.27 256.655 136.101 256.655 136.101V140.051C256.655 140.051 255.225 142.892 253.728 144.22C252.646 145.181 251.305 144.958 250.577 146.195C249.789 147.533 249.226 149.341 250.577 150.145C251.402 150.637 252.402 150.843 253.053 150.145C253.644 149.511 252.737 148.751 253.053 147.951C253.41 147.046 254.052 146.769 254.854 146.195C256.223 145.216 257.298 145.19 258.906 144.659C260.381 144.172 262.733 143.562 262.733 143.562C262.733 143.562 262.266 144.678 261.833 145.318C260.974 146.582 259.933 146.812 258.906 147.951C257.907 149.058 257.637 149.902 256.655 151.023C255.402 152.452 251.148 154.021 253.053 154.314C254.043 154.467 254.545 153.84 255.529 153.656C257.947 153.204 259.8 152.303 261.833 153.656C262.707 154.238 263.633 155.631 263.633 155.631C263.633 155.631 262.525 155.514 261.833 155.631C260.554 155.848 259.976 156.451 258.906 157.167C257.419 158.162 256.64 158.854 255.529 160.239C254.246 161.84 252.221 162.985 253.053 164.847C253.697 166.29 255.057 166.604 256.655 166.822C258.805 167.116 261.833 164.847 261.833 164.847C261.833 164.847 258.765 168.358 256.655 168.358H251.252C251.252 168.358 248.561 167.849 246.975 168.358C245.136 168.948 244.823 170.485 243.148 171.43C240.692 172.816 238.995 173.655 236.169 173.405Z" fill="#FFAC30"/>
<path d="M240.883 169.873H237.901L236.017 164.871H230.838V160.311C230.838 160.311 231.91 158.44 233.035 157.663C235.501 155.957 238.265 156.17 240.883 157.663C243.209 158.989 244.298 160.708 244.493 163.253C244.715 166.149 240.883 169.873 240.883 169.873Z" fill="url(#paint2_linear)"/>
<path d="M240.859 165.85C240.859 169.553 239.341 172.555 235.343 172.555C231.346 172.555 228.105 169.553 228.105 165.85C230.612 163.106 231.346 159.144 235.343 159.144C239.341 159.144 240.859 162.146 240.859 165.85Z" fill="url(#paint3_linear)"/>
</g>
<defs>
<filter id="filter0_d" x="0" y="0" width="356" height="219" filterUnits="userSpaceOnUse" color-interpolation-filters="sRGB">
<feFlood flood-opacity="0" result="BackgroundImageFix"/>
<feColorMatrix in="SourceAlpha" type="matrix" values="0 0 0 0 0 0 0 0 0 0 0 0 0 0 0 0 0 0 127 0"/>
<feOffset dy="4"/>
<feGaussianBlur stdDeviation="2"/>
<feColorMatrix type="matrix" values="0 0 0 0 0 0 0 0 0 0 0 0 0 0 0 0 0 0 0.25 0"/>
<feBlend mode="normal" in2="BackgroundImageFix" result="effect1_dropShadow"/>
<feBlend mode="normal" in="SourceGraphic" in2="effect1_dropShadow" result="shape"/>
</filter>
<linearGradient id="paint0_linear" x1="21.7536" y1="99.5257" x2="15.602" y2="132.363" gradientUnits="userSpaceOnUse">
<stop stop-color="#E84500"/>
<stop offset="1" stop-color="#BF3900"/>
</linearGradient>
<linearGradient id="paint1_linear" x1="13.1761" y1="111.624" x2="13.1761" y2="147.521" gradientUnits="userSpaceOnUse">
<stop offset="0.0564345" stop-color="#E16C00"/>
</linearGradient>
<linearGradient id="paint2_linear" x1="242.217" y1="147.512" x2="238.202" y2="169.969" gradientUnits="userSpaceOnUse">
<stop stop-color="#E84500"/>
<stop offset="1" stop-color="#BF3900"/>
</linearGradient>
<linearGradient id="paint3_linear" x1="235.242" y1="156.614" x2="235.242" y2="181.089" gradientUnits="userSpaceOnUse">
<stop offset="0.0564345" stop-color="#E16C00"/>
</linearGradient>
</defs>
</svg>
