<svg width="265" height="51" viewBox="0 0 265 51" fill="none" xmlns="http://www.w3.org/2000/svg">
<path d="M15.1148 0.199999V17H12.7148V9.512H3.06678V17H0.666781V0.199999H3.06678V7.424H12.7148V0.199999H15.1148ZM24.5063 4.16C26.2663 4.16 27.6103 4.592 28.5383 5.456C29.4823 6.32 29.9543 7.608 29.9543 9.32V17H27.7703V15.32C27.3863 15.912 26.8343 16.368 26.1143 16.688C25.4103 16.992 24.5703 17.144 23.5943 17.144C22.1703 17.144 21.0263 16.8 20.1623 16.112C19.3143 15.424 18.8903 14.52 18.8903 13.4C18.8903 12.28 19.2983 11.384 20.1143 10.712C20.9303 10.024 22.2263 9.68 24.0023 9.68H27.6503V9.224C27.6503 8.232 27.3623 7.472 26.7863 6.944C26.2103 6.416 25.3623 6.152 24.2423 6.152C23.4903 6.152 22.7543 6.28 22.0343 6.536C21.3143 6.776 20.7063 7.104 20.2103 7.52L19.2503 5.792C19.9063 5.264 20.6903 4.864 21.6023 4.592C22.5143 4.304 23.4823 4.16 24.5063 4.16ZM23.9783 15.368C24.8583 15.368 25.6183 15.176 26.2583 14.792C26.8983 14.392 27.3623 13.832 27.6503 13.112V11.336H24.0983C22.1463 11.336 21.1703 11.992 21.1703 13.304C21.1703 13.944 21.4183 14.448 21.9143 14.816C22.4103 15.184 23.0983 15.368 23.9783 15.368ZM45.4551 4.28L39.2871 18.272C38.7431 19.568 38.1031 20.48 37.3671 21.008C36.6471 21.536 35.7751 21.8 34.7511 21.8C34.1271 21.8 33.5191 21.696 32.9271 21.488C32.3511 21.296 31.8711 21.008 31.4871 20.624L32.4711 18.896C33.1271 19.52 33.8871 19.832 34.7511 19.832C35.3111 19.832 35.7751 19.68 36.1431 19.376C36.5271 19.088 36.8711 18.584 37.1751 17.864L37.5831 16.976L31.9671 4.28H34.3671L38.8071 14.456L43.1991 4.28H45.4551ZM57.966 4.28V17H55.662V11.864C54.286 12.504 52.918 12.824 51.558 12.824C49.974 12.824 48.75 12.456 47.886 11.72C47.022 10.984 46.59 9.88 46.59 8.408V4.28H48.894V8.264C48.894 9.144 49.166 9.808 49.71 10.256C50.27 10.704 51.046 10.928 52.038 10.928C53.158 10.928 54.366 10.648 55.662 10.088V4.28H57.966ZM62.439 4.28H64.743V9.68H71.991V4.28H74.295V17H71.991V11.672H64.743V17H62.439V4.28ZM84.223 17.144C82.959 17.144 81.823 16.864 80.815 16.304C79.807 15.744 79.015 14.976 78.439 14C77.879 13.008 77.599 11.888 77.599 10.64C77.599 9.392 77.879 8.28 78.439 7.304C79.015 6.312 79.807 5.544 80.815 5C81.823 4.44 82.959 4.16 84.223 4.16C85.487 4.16 86.615 4.44 87.607 5C88.615 5.544 89.399 6.312 89.959 7.304C90.535 8.28 90.823 9.392 90.823 10.64C90.823 11.888 90.535 13.008 89.959 14C89.399 14.976 88.615 15.744 87.607 16.304C86.615 16.864 85.487 17.144 84.223 17.144ZM84.223 15.128C85.039 15.128 85.767 14.944 86.407 14.576C87.063 14.192 87.575 13.664 87.943 12.992C88.311 12.304 88.495 11.52 88.495 10.64C88.495 9.76 88.311 8.984 87.943 8.312C87.575 7.624 87.063 7.096 86.407 6.728C85.767 6.36 85.039 6.176 84.223 6.176C83.407 6.176 82.671 6.36 82.015 6.728C81.375 7.096 80.863 7.624 80.479 8.312C80.111 8.984 79.927 9.76 79.927 10.64C79.927 11.52 80.111 12.304 80.479 12.992C80.863 13.664 81.375 14.192 82.015 14.576C82.671 14.944 83.407 15.128 84.223 15.128ZM93.5203 9.416H99.9763V11.408H93.5203V9.416ZM108.516 11.624H105.876V17H103.572V4.28H105.876V9.656H108.564L112.692 4.28H115.164L110.34 10.4L115.5 17H112.788L108.516 11.624ZM122.942 17.144C121.678 17.144 120.542 16.864 119.534 16.304C118.526 15.744 117.734 14.976 117.158 14C116.598 13.008 116.318 11.888 116.318 10.64C116.318 9.392 116.598 8.28 117.158 7.304C117.734 6.312 118.526 5.544 119.534 5C120.542 4.44 121.678 4.16 122.942 4.16C124.206 4.16 125.334 4.44 126.326 5C127.334 5.544 128.118 6.312 128.678 7.304C129.254 8.28 129.542 9.392 129.542 10.64C129.542 11.888 129.254 13.008 128.678 14C128.118 14.976 127.334 15.744 126.326 16.304C125.334 16.864 124.206 17.144 122.942 17.144ZM122.942 15.128C123.758 15.128 124.486 14.944 125.126 14.576C125.782 14.192 126.294 13.664 126.662 12.992C127.03 12.304 127.214 11.52 127.214 10.64C127.214 9.76 127.03 8.984 126.662 8.312C126.294 7.624 125.782 7.096 125.126 6.728C124.486 6.36 123.758 6.176 122.942 6.176C122.126 6.176 121.39 6.36 120.734 6.728C120.094 7.096 119.582 7.624 119.198 8.312C118.83 8.984 118.646 9.76 118.646 10.64C118.646 11.52 118.83 12.304 119.198 12.992C119.582 13.664 120.094 14.192 120.734 14.576C121.39 14.944 122.126 15.128 122.942 15.128ZM138.413 17.144C137.117 17.144 135.957 16.864 134.933 16.304C133.925 15.744 133.133 14.976 132.557 14C131.981 13.008 131.693 11.888 131.693 10.64C131.693 9.392 131.981 8.28 132.557 7.304C133.133 6.312 133.925 5.544 134.933 5C135.957 4.44 137.117 4.16 138.413 4.16C139.565 4.16 140.589 4.392 141.485 4.856C142.397 5.32 143.101 5.992 143.597 6.872L141.845 8C141.445 7.392 140.949 6.936 140.357 6.632C139.765 6.328 139.109 6.176 138.389 6.176C137.557 6.176 136.805 6.36 136.133 6.728C135.477 7.096 134.957 7.624 134.573 8.312C134.205 8.984 134.021 9.76 134.021 10.64C134.021 11.536 134.205 12.328 134.573 13.016C134.957 13.688 135.477 14.208 136.133 14.576C136.805 14.944 137.557 15.128 138.389 15.128C139.109 15.128 139.765 14.976 140.357 14.672C140.949 14.368 141.445 13.912 141.845 13.304L143.597 14.408C143.101 15.288 142.397 15.968 141.485 16.448C140.589 16.912 139.565 17.144 138.413 17.144ZM161.244 4.28V17H159.156V7.712L154.404 15.56H153.396L148.692 7.688V17H146.58V4.28H148.956L153.948 12.872L159.084 4.28H161.244ZM165.728 4.28H168.032V13.544L175.832 4.28H177.92V17H175.616V7.736L167.84 17H165.728V4.28ZM192.544 4.28V17H190.24V11.864C188.864 12.504 187.496 12.824 186.136 12.824C184.552 12.824 183.328 12.456 182.464 11.72C181.6 10.984 181.168 9.88 181.168 8.408V4.28H183.472V8.264C183.472 9.144 183.744 9.808 184.288 10.256C184.848 10.704 185.624 10.928 186.616 10.928C187.736 10.928 188.944 10.648 190.24 10.088V4.28H192.544ZM208.513 10.712C208.513 10.888 208.497 11.12 208.465 11.408H198.145C198.289 12.528 198.777 13.432 199.609 14.12C200.457 14.792 201.505 15.128 202.753 15.128C204.273 15.128 205.497 14.616 206.425 13.592L207.697 15.08C207.121 15.752 206.401 16.264 205.537 16.616C204.689 16.968 203.737 17.144 202.681 17.144C201.337 17.144 200.145 16.872 199.105 16.328C198.065 15.768 197.257 14.992 196.681 14C196.121 13.008 195.841 11.888 195.841 10.64C195.841 9.408 196.113 8.296 196.657 7.304C197.217 6.312 197.977 5.544 198.937 5C199.913 4.44 201.009 4.16 202.225 4.16C203.441 4.16 204.521 4.44 205.465 5C206.425 5.544 207.169 6.312 207.697 7.304C208.241 8.296 208.513 9.432 208.513 10.712ZM202.225 6.104C201.121 6.104 200.193 6.44 199.441 7.112C198.705 7.784 198.273 8.664 198.145 9.752H206.305C206.177 8.68 205.737 7.808 204.985 7.136C204.249 6.448 203.329 6.104 202.225 6.104ZM217.631 17.144C216.335 17.144 215.175 16.864 214.151 16.304C213.143 15.744 212.351 14.976 211.775 14C211.199 13.008 210.911 11.888 210.911 10.64C210.911 9.392 211.199 8.28 211.775 7.304C212.351 6.312 213.143 5.544 214.151 5C215.175 4.44 216.335 4.16 217.631 4.16C218.783 4.16 219.807 4.392 220.703 4.856C221.615 5.32 222.319 5.992 222.815 6.872L221.063 8C220.663 7.392 220.167 6.936 219.575 6.632C218.983 6.328 218.327 6.176 217.607 6.176C216.775 6.176 216.023 6.36 215.351 6.728C214.695 7.096 214.175 7.624 213.791 8.312C213.423 8.984 213.239 9.76 213.239 10.64C213.239 11.536 213.423 12.328 213.791 13.016C214.175 13.688 214.695 14.208 215.351 14.576C216.023 14.944 216.775 15.128 217.607 15.128C218.327 15.128 218.983 14.976 219.575 14.672C220.167 14.368 220.663 13.912 221.063 13.304L222.815 14.408C222.319 15.288 221.615 15.968 220.703 16.448C219.807 16.912 218.783 17.144 217.631 17.144ZM230.742 11.624H228.102V17H225.798V4.28H228.102V9.656H230.79L234.918 4.28H237.39L232.566 10.4L237.726 17H235.014L230.742 11.624ZM244.444 4.16C246.204 4.16 247.548 4.592 248.476 5.456C249.42 6.32 249.892 7.608 249.892 9.32V17H247.708V15.32C247.324 15.912 246.772 16.368 246.052 16.688C245.348 16.992 244.508 17.144 243.532 17.144C242.108 17.144 240.964 16.8 240.1 16.112C239.252 15.424 238.828 14.52 238.828 13.4C238.828 12.28 239.236 11.384 240.052 10.712C240.868 10.024 242.164 9.68 243.94 9.68H247.588V9.224C247.588 8.232 247.3 7.472 246.724 6.944C246.148 6.416 245.3 6.152 244.18 6.152C243.428 6.152 242.692 6.28 241.972 6.536C241.252 6.776 240.644 7.104 240.148 7.52L239.188 5.792C239.844 5.264 240.628 4.864 241.54 4.592C242.452 4.304 243.42 4.16 244.444 4.16ZM243.916 15.368C244.796 15.368 245.556 15.176 246.196 14.792C246.836 14.392 247.3 13.832 247.588 13.112V11.336H244.036C242.084 11.336 241.108 11.992 241.108 13.304C241.108 13.944 241.356 14.448 241.852 14.816C242.348 15.184 243.036 15.368 243.916 15.368ZM264.241 4.28V17H262.177V12.968H258.481H258.217L255.433 17H252.961L256.057 12.656C255.097 12.368 254.361 11.896 253.849 11.24C253.337 10.568 253.081 9.736 253.081 8.744C253.081 7.288 253.577 6.184 254.569 5.432C255.561 4.664 256.929 4.28 258.673 4.28H264.241ZM255.433 8.816C255.433 9.664 255.697 10.296 256.225 10.712C256.769 11.112 257.577 11.312 258.649 11.312H262.177V6.296H258.745C256.537 6.296 255.433 7.136 255.433 8.816ZM24.5627 40.624H21.9227V46H19.6187V33.28H21.9227V38.656H24.6107L28.7387 33.28H31.2107L26.3867 39.4L31.5467 46H28.8347L24.5627 40.624ZM38.2641 33.16C40.0241 33.16 41.3681 33.592 42.2961 34.456C43.2401 35.32 43.7121 36.608 43.7121 38.32V46H41.5281V44.32C41.1441 44.912 40.5921 45.368 39.8721 45.688C39.1681 45.992 38.3281 46.144 37.3521 46.144C35.9281 46.144 34.7841 45.8 33.9201 45.112C33.0721 44.424 32.6481 43.52 32.6481 42.4C32.6481 41.28 33.0561 40.384 33.8721 39.712C34.6881 39.024 35.9841 38.68 37.7601 38.68H41.4081V38.224C41.4081 37.232 41.1201 36.472 40.5441 35.944C39.9681 35.416 39.1201 35.152 38.0001 35.152C37.2481 35.152 36.5121 35.28 35.7921 35.536C35.0721 35.776 34.4641 36.104 33.9681 36.52L33.0081 34.792C33.6641 34.264 34.4481 33.864 35.3601 33.592C36.2721 33.304 37.2401 33.16 38.2641 33.16ZM37.7361 44.368C38.6161 44.368 39.3761 44.176 40.0161 43.792C40.6561 43.392 41.1201 42.832 41.4081 42.112V40.336H37.8561C35.9041 40.336 34.9281 40.992 34.9281 42.304C34.9281 42.944 35.1761 43.448 35.6721 43.816C36.1681 44.184 36.8561 44.368 37.7361 44.368ZM54.6049 33.16C55.8369 33.16 56.9409 33.432 57.9169 33.976C58.8929 34.52 59.6529 35.28 60.1969 36.256C60.7569 37.232 61.0369 38.36 61.0369 39.64C61.0369 40.92 60.7569 42.056 60.1969 43.048C59.6529 44.024 58.8929 44.784 57.9169 45.328C56.9409 45.872 55.8369 46.144 54.6049 46.144C53.6929 46.144 52.8529 45.968 52.0849 45.616C51.3329 45.264 50.6929 44.752 50.1649 44.08V50.656H47.8609V33.28H50.0689V35.296C50.5809 34.592 51.2289 34.064 52.0129 33.712C52.7969 33.344 53.6609 33.16 54.6049 33.16ZM54.4129 44.128C55.2289 44.128 55.9569 43.944 56.5969 43.576C57.2529 43.192 57.7649 42.664 58.1329 41.992C58.5169 41.304 58.7089 40.52 58.7089 39.64C58.7089 38.76 58.5169 37.984 58.1329 37.312C57.7649 36.624 57.2529 36.096 56.5969 35.728C55.9569 35.36 55.2289 35.176 54.4129 35.176C53.6129 35.176 52.8849 35.368 52.2289 35.752C51.5889 36.12 51.0769 36.64 50.6929 37.312C50.3249 37.984 50.1409 38.76 50.1409 39.64C50.1409 40.52 50.3249 41.304 50.6929 41.992C51.0609 42.664 51.5729 43.192 52.2289 43.576C52.8849 43.944 53.6129 44.128 54.4129 44.128ZM73.3956 35.296H68.7396V46H66.4356V35.296H61.7796V33.28H73.3956V35.296ZM80.2875 33.16C82.0475 33.16 83.3915 33.592 84.3195 34.456C85.2635 35.32 85.7355 36.608 85.7355 38.32V46H83.5515V44.32C83.1675 44.912 82.6155 45.368 81.8955 45.688C81.1915 45.992 80.3515 46.144 79.3755 46.144C77.9515 46.144 76.8075 45.8 75.9435 45.112C75.0955 44.424 74.6715 43.52 74.6715 42.4C74.6715 41.28 75.0795 40.384 75.8955 39.712C76.7115 39.024 78.0075 38.68 79.7835 38.68H83.4315V38.224C83.4315 37.232 83.1435 36.472 82.5675 35.944C81.9915 35.416 81.1435 35.152 80.0235 35.152C79.2715 35.152 78.5355 35.28 77.8155 35.536C77.0955 35.776 76.4875 36.104 75.9915 36.52L75.0315 34.792C75.6875 34.264 76.4715 33.864 77.3835 33.592C78.2955 33.304 79.2635 33.16 80.2875 33.16ZM79.7595 44.368C80.6395 44.368 81.3995 44.176 82.0395 43.792C82.6795 43.392 83.1435 42.832 83.4315 42.112V40.336H79.8795C77.9275 40.336 76.9515 40.992 76.9515 42.304C76.9515 42.944 77.1995 43.448 77.6955 43.816C78.1915 44.184 78.8795 44.368 79.7595 44.368ZM108.258 37.504H110.562V44.056C109.73 44.744 108.762 45.272 107.658 45.64C106.554 46.008 105.402 46.192 104.202 46.192C102.506 46.192 100.978 45.824 99.6177 45.088C98.2577 44.336 97.1857 43.312 96.4017 42.016C95.6337 40.704 95.2497 39.232 95.2497 37.6C95.2497 35.968 95.6337 34.496 96.4017 33.184C97.1857 31.872 98.2577 30.848 99.6177 30.112C100.994 29.376 102.538 29.008 104.25 29.008C105.594 29.008 106.81 29.232 107.898 29.68C109.002 30.112 109.938 30.752 110.706 31.6L109.218 33.088C107.874 31.792 106.25 31.144 104.346 31.144C103.066 31.144 101.914 31.424 100.89 31.984C99.8817 32.528 99.0897 33.296 98.5137 34.288C97.9377 35.264 97.6497 36.368 97.6497 37.6C97.6497 38.816 97.9377 39.92 98.5137 40.912C99.0897 41.888 99.8817 42.656 100.89 43.216C101.914 43.776 103.058 44.056 104.322 44.056C105.826 44.056 107.138 43.696 108.258 42.976V37.504ZM119.453 33.16C121.213 33.16 122.557 33.592 123.485 34.456C124.429 35.32 124.901 36.608 124.901 38.32V46H122.717V44.32C122.333 44.912 121.781 45.368 121.061 45.688C120.357 45.992 119.517 46.144 118.541 46.144C117.117 46.144 115.973 45.8 115.109 45.112C114.261 44.424 113.837 43.52 113.837 42.4C113.837 41.28 114.245 40.384 115.061 39.712C115.877 39.024 117.173 38.68 118.949 38.68H122.597V38.224C122.597 37.232 122.309 36.472 121.733 35.944C121.157 35.416 120.309 35.152 119.189 35.152C118.437 35.152 117.701 35.28 116.981 35.536C116.261 35.776 115.653 36.104 115.157 36.52L114.197 34.792C114.853 34.264 115.637 33.864 116.549 33.592C117.461 33.304 118.429 33.16 119.453 33.16ZM118.925 44.368C119.805 44.368 120.565 44.176 121.205 43.792C121.845 43.392 122.309 42.832 122.597 42.112V40.336H119.045C117.093 40.336 116.117 40.992 116.117 42.304C116.117 42.944 116.365 43.448 116.861 43.816C117.357 44.184 118.045 44.368 118.925 44.368ZM129.164 28.192H131.468V46H129.164V28.192ZM140.5 33.16C142.26 33.16 143.604 33.592 144.532 34.456C145.476 35.32 145.948 36.608 145.948 38.32V46H143.764V44.32C143.38 44.912 142.828 45.368 142.108 45.688C141.404 45.992 140.564 46.144 139.588 46.144C138.164 46.144 137.02 45.8 136.156 45.112C135.308 44.424 134.884 43.52 134.884 42.4C134.884 41.28 135.292 40.384 136.108 39.712C136.924 39.024 138.22 38.68 139.996 38.68H143.644V38.224C143.644 37.232 143.356 36.472 142.78 35.944C142.204 35.416 141.356 35.152 140.236 35.152C139.484 35.152 138.748 35.28 138.028 35.536C137.308 35.776 136.7 36.104 136.204 36.52L135.244 34.792C135.9 34.264 136.684 33.864 137.596 33.592C138.508 33.304 139.476 33.16 140.5 33.16ZM139.972 44.368C140.852 44.368 141.612 44.176 142.252 43.792C142.892 43.392 143.356 42.832 143.644 42.112V40.336H140.092C138.14 40.336 137.164 40.992 137.164 42.304C137.164 42.944 137.412 43.448 137.908 43.816C138.404 44.184 139.092 44.368 139.972 44.368ZM158.323 46L154.651 41.128L150.931 46H148.363L153.379 39.496L148.603 33.28H151.171L154.675 37.864L158.155 33.28H160.675L155.875 39.496L160.939 46H158.323ZM173.983 33.28L167.815 47.272C167.271 48.568 166.631 49.48 165.895 50.008C165.175 50.536 164.303 50.8 163.279 50.8C162.655 50.8 162.047 50.696 161.455 50.488C160.879 50.296 160.399 50.008 160.015 49.624L160.999 47.896C161.655 48.52 162.415 48.832 163.279 48.832C163.839 48.832 164.303 48.68 164.671 48.376C165.055 48.088 165.399 47.584 165.703 46.864L166.111 45.976L160.495 33.28H162.895L167.335 43.456L171.727 33.28H173.983ZM188.123 46.144C186.827 46.144 185.667 45.864 184.643 45.304C183.635 44.744 182.843 43.976 182.267 43C181.691 42.008 181.403 40.888 181.403 39.64C181.403 38.392 181.691 37.28 182.267 36.304C182.843 35.312 183.635 34.544 184.643 34C185.667 33.44 186.827 33.16 188.123 33.16C189.275 33.16 190.299 33.392 191.195 33.856C192.107 34.32 192.811 34.992 193.307 35.872L191.555 37C191.155 36.392 190.659 35.936 190.067 35.632C189.475 35.328 188.819 35.176 188.099 35.176C187.267 35.176 186.515 35.36 185.843 35.728C185.187 36.096 184.667 36.624 184.283 37.312C183.915 37.984 183.731 38.76 183.731 39.64C183.731 40.536 183.915 41.328 184.283 42.016C184.667 42.688 185.187 43.208 185.843 43.576C186.515 43.944 187.267 44.128 188.099 44.128C188.819 44.128 189.475 43.976 190.067 43.672C190.659 43.368 191.155 42.912 191.555 42.304L193.307 43.408C192.811 44.288 192.107 44.968 191.195 45.448C190.299 45.912 189.275 46.144 188.123 46.144ZM198.497 35.416C198.897 34.68 199.489 34.12 200.273 33.736C201.057 33.352 202.009 33.16 203.129 33.16V35.392C203.001 35.376 202.825 35.368 202.601 35.368C201.353 35.368 200.369 35.744 199.649 36.496C198.945 37.232 198.593 38.288 198.593 39.664V46H196.289V33.28H198.497V35.416ZM217.989 33.28V46H215.805V44.08C215.341 44.736 214.725 45.248 213.957 45.616C213.205 45.968 212.381 46.144 211.485 46.144C209.789 46.144 208.453 45.68 207.477 44.752C206.501 43.808 206.013 42.424 206.013 40.6V33.28H208.317V40.336C208.317 41.568 208.613 42.504 209.205 43.144C209.797 43.768 210.645 44.08 211.749 44.08C212.965 44.08 213.925 43.712 214.629 42.976C215.333 42.24 215.685 41.2 215.685 39.856V33.28H217.989ZM222.375 33.28H224.679V46H222.375V33.28ZM223.527 30.832C223.079 30.832 222.703 30.688 222.399 30.4C222.111 30.112 221.967 29.76 221.967 29.344C221.967 28.928 222.111 28.576 222.399 28.288C222.703 27.984 223.079 27.832 223.527 27.832C223.975 27.832 224.343 27.976 224.631 28.264C224.935 28.536 225.087 28.88 225.087 29.296C225.087 29.728 224.935 30.096 224.631 30.4C224.343 30.688 223.975 30.832 223.527 30.832ZM232.727 46.144C231.687 46.144 230.687 46.008 229.727 45.736C228.767 45.448 228.015 45.088 227.471 44.656L228.431 42.832C228.991 43.232 229.671 43.552 230.471 43.792C231.271 44.032 232.079 44.152 232.895 44.152C234.911 44.152 235.919 43.576 235.919 42.424C235.919 42.04 235.783 41.736 235.511 41.512C235.239 41.288 234.895 41.128 234.479 41.032C234.079 40.92 233.503 40.8 232.751 40.672C231.727 40.512 230.887 40.328 230.231 40.12C229.591 39.912 229.039 39.56 228.575 39.064C228.111 38.568 227.879 37.872 227.879 36.976C227.879 35.824 228.359 34.904 229.319 34.216C230.279 33.512 231.567 33.16 233.183 33.16C234.031 33.16 234.879 33.264 235.727 33.472C236.575 33.68 237.271 33.96 237.815 34.312L236.831 36.136C235.791 35.464 234.567 35.128 233.159 35.128C232.183 35.128 231.439 35.288 230.927 35.608C230.415 35.928 230.159 36.352 230.159 36.88C230.159 37.296 230.303 37.624 230.591 37.864C230.879 38.104 231.231 38.28 231.647 38.392C232.079 38.504 232.679 38.632 233.447 38.776C234.471 38.952 235.295 39.144 235.919 39.352C236.559 39.544 237.103 39.88 237.551 40.36C237.999 40.84 238.223 41.512 238.223 42.376C238.223 43.528 237.727 44.448 236.735 45.136C235.759 45.808 234.423 46.144 232.727 46.144ZM252.598 39.712C252.598 39.888 252.582 40.12 252.55 40.408H242.23C242.374 41.528 242.862 42.432 243.694 43.12C244.542 43.792 245.59 44.128 246.838 44.128C248.358 44.128 249.582 43.616 250.51 42.592L251.782 44.08C251.206 44.752 250.486 45.264 249.622 45.616C248.774 45.968 247.822 46.144 246.766 46.144C245.422 46.144 244.23 45.872 243.19 45.328C242.15 44.768 241.342 43.992 240.766 43C240.206 42.008 239.926 40.888 239.926 39.64C239.926 38.408 240.198 37.296 240.742 36.304C241.302 35.312 242.062 34.544 243.022 34C243.998 33.44 245.094 33.16 246.31 33.16C247.526 33.16 248.606 33.44 249.55 34C250.51 34.544 251.254 35.312 251.782 36.304C252.326 37.296 252.598 38.432 252.598 39.712ZM246.31 35.104C245.206 35.104 244.278 35.44 243.526 36.112C242.79 36.784 242.358 37.664 242.23 38.752H250.39C250.262 37.68 249.822 36.808 249.07 36.136C248.334 35.448 247.414 35.104 246.31 35.104Z" fill="white"/>
</svg>
