<svg width="128" height="128" viewBox="0 0 128 128" fill="none" xmlns="http://www.w3.org/2000/svg">
<g filter="url(#filter0_d)">
<ellipse cx="64.438" cy="62.9371" rx="59.562" ry="57.063" fill="#AB6BDD"/>
<path d="M74.0731 57.9022C74.949 60.8339 61.8103 60.4144 59.1825 60.4144C56.5548 60.4144 47.9359 63.3515 60.9344 63.3515H94.219C107.218 63.3515 96.4927 60.4598 94.657 59.5805C93.7391 59.1408 91.5913 58.3165 91.5913 58.3165C91.5913 58.3165 84.584 55.799 94.219 55.799C103.854 55.799 111.665 55.8043 123.124 55.8043C124 57.9022 123.562 59.3791 123.562 61.6731L111.737 64.6102C111.737 64.6102 120.496 67.5526 116.117 67.9668C111.737 68.3811 111.575 68.973 108.672 69.6452C101.978 71.1948 88.5256 71.7484 91.5913 73.8409C94.657 75.9335 116.117 78.0367 100.788 78.0367C85.4599 78.0367 67.8609 76.7833 46.4818 76.7833C44.0874 76.7833 41.1005 76.045 39.9125 78.0367C39.2336 79.1748 40.4243 80.1777 39.9125 81.3934C38.745 84.1664 33.0758 79.8351 32.0293 82.6521C31.6278 83.7327 33.3431 83.1691 32.0293 85.5892C30.7154 88.0092 9.25554 85.5892 9.25554 85.5892C6.18985 78.0367 5.75189 74.6854 4.87598 65.8689C4.87598 65.8689 17.3477 69.2781 25.4599 68.806C28.9125 68.6051 31.1405 69.1858 34.219 67.5473L42.1023 63.3515C42.1023 63.3515 47.9436 61.2119 47.7957 58.3165C47.6131 54.7421 38.5986 55.799 38.5986 55.799C38.5986 55.799 30.7958 55.1645 27.6497 52.0228C26.6312 51.0056 21.5183 49.0828 25.4599 49.0857C29.4015 49.0885 57.7577 48.6714 78.4526 48.6714C80.334 48.6714 82.8322 49.5052 84.146 50.7693C85.4599 52.0333 83.7081 50.7746 81.9563 51.6085C80.2044 52.4423 77.5696 51.6868 74.511 52.0228C71.008 52.4075 66.227 52.072 65.7519 52.8672C64.0001 55.799 73.1971 54.9704 74.0731 57.9022Z" fill="#9C5CCE"/>
<path d="M15.3868 92.7852C18.4525 91.1068 25.6038 94.082 31.9137 94.8831C38.4364 95.7111 42.0249 98.1658 48.556 97.4005C52.2638 96.9661 57.7531 94.8831 57.7531 94.8831L49.4319 92.7852L61.2567 89.8481L73.5195 87.7502L56.4392 83.5544L59.067 81.0369C59.067 81.0369 114.687 79.3584 111.622 82.2956C108.556 85.2329 110.128 84.9666 108.556 86.0719C106.942 87.2065 105.459 86.7691 103.739 87.7502C99.0358 90.4325 119.067 85.6523 117.753 87.7502C116.439 89.8481 113.715 96.7567 108.556 99.918C102.334 103.731 89.9978 101.788 88.9231 101.609C89.1614 101.67 89.9493 102.028 91.0378 104.114C92.3517 106.631 56.1594 104.226 59.067 105.373L66.5122 108.31C69.4198 109.457 42.1022 115.746 34.2189 112.028C26.3357 108.31 12.3211 94.4635 15.3868 92.7852Z" fill="#9C5CCE"/>
<path d="M95.5327 44.0559C96.6276 44.0559 99.5377 44.2704 100.07 43.6374C100.499 43.1274 101.104 42.3819 100.07 41.9602C99.0363 41.5385 88.3165 42.9427 87.468 41.9602L85.2953 39.4443C84.4467 38.4618 88.7717 37.3478 90.9444 37.3478C93.1172 37.3478 87.8538 35.1142 81.8188 35.6705C75.7839 36.2268 71.9735 36.1291 63.1331 33.9933C54.2926 31.8574 52.4354 34.3554 45.7509 35.6705C40.3833 36.7265 37.5943 38.1623 32.2798 39.4443C23.0763 41.6644 8.37939 43.6374 8.37939 43.6374L11.8558 35.6705L22.2851 33.9933L24.0233 30.2195H33.5835H40.9709V28.5422L36.1908 25.607H39.6672H51.8347C59.3016 25.607 63.5564 24.6345 70.955 25.607C73.6923 25.9668 80.5152 24.3491 77.9079 26.865C75.3005 29.3809 67.044 30.6388 73.1278 31.4774C79.2115 32.316 82.9195 32.184 89.2062 32.316C93.4478 32.4051 95.8443 31.952 100.07 32.316C104.016 32.656 110.934 32.316 110.065 33.9933C109.196 35.6705 105.231 36.0377 106.588 37.3478C107.548 38.2741 109.943 37.2938 111.299 37.3478C114.033 37.4565 115.679 36.7419 117.43 38.1818C118.761 39.275 119.182 40.7014 119.62 41.9602C120.058 43.2189 121.81 45.3147 120.058 45.3147H96.5936C93.1172 45.3147 94.6803 44.0559 95.5327 44.0559Z" fill="#9C5CCE"/>
<path d="M112.221 28.5315C113.097 30.2098 104.647 28.8713 99.6446 27.778C98.4306 27.5126 97.2546 27.9407 96.5789 26.9388C96.0219 26.113 99.2066 24.8409 96.5789 24.4213C93.9511 24.0017 81.4169 22.05 71.6154 21.9038C71.2724 21.8987 71.1375 21.8957 71.0914 21.894C71.002 21.8971 70.3815 21.9038 67.2358 21.9038C61.1044 21.9038 75.8783 19.4385 74.6811 18.1276L71.6154 14.771C71.6154 14.771 46.6519 12.6731 47.9657 14.771C49.2796 16.8689 51.838 16.3077 51.4694 18.1276C51.0881 20.0104 48.5908 19.3286 46.6519 19.8059C41.6823 21.0293 36.5789 20.8885 33.5132 19.8059C30.4475 18.7234 27.8205 18.1276 28.6961 17.2885C30.0101 16.4493 32.6377 14.3514 35.2649 13.0926C37.3955 12.0718 38.6207 15.2097 40.9584 14.771C43.2165 14.3472 43.2287 11.8756 45.338 10.9947C48.0033 9.88166 52.7832 10.9947 52.7832 10.9947C52.7832 10.9947 84.9243 9.82168 89.1336 10.9948C93.3429 12.1679 100.958 17.7081 100.958 17.7081C100.958 17.7081 98.0392 17.1431 96.5789 18.1276C95.7876 18.661 92.6372 19.3863 94.827 19.8059C97.0168 20.2255 97.9836 20.8109 100.083 21.0647C102.288 21.3314 105.606 21.9038 105.606 21.9038C105.606 21.9038 111.345 26.8532 112.221 28.5315Z" fill="#9256C2"/>
<path d="M98.5986 15.9441C91.7084 11.0474 78.4526 7.55249 78.4526 7.55249C78.4526 7.55249 85.3535 14.6132 88.9636 19.7203C92.5686 24.8202 94.2391 27.9366 96.8468 33.5665C99.3481 38.9666 100.824 42.0526 102.102 47.8322C103.171 52.6652 103.148 55.4861 103.416 60.4197C103.71 65.8196 103.975 68.8851 103.416 74.2658L103.381 74.6032C102.762 80.5725 102.388 84.1821 99.9125 89.7903C98.3015 93.4406 97.5853 94.7409 95.5329 98.1819C92.7964 102.77 90.9387 106.108 87.6497 110.35C85.3375 113.332 79.3285 117.902 79.3285 117.902C79.3285 117.902 87.6902 115.332 91.5913 113.287C96.6329 110.644 99.1494 108.583 103.416 104.895C108.183 100.775 110.929 98.3424 114.365 93.147C118.394 87.0553 119.61 82.9553 121.372 75.9441C123.42 67.7947 124.263 62.8566 123.124 54.5455C122.118 47.1987 120.699 43.0073 116.993 36.5036C114.354 31.8722 112.253 29.6034 108.672 25.5945C105.054 21.5451 103.067 19.1194 98.5986 15.9441Z" fill="#818181" fill-opacity="0.47"/>
<ellipse rx="33.9648" ry="24.8137" transform="matrix(0.696205 -0.717843 0.746931 0.664902 46.1806 40.8802)" fill="white" fill-opacity="0.35"/>
<ellipse rx="20.3871" ry="18.0173" transform="matrix(0.696205 -0.717843 0.746931 0.664902 50.9212 34.1669)" fill="white" fill-opacity="0.31"/>
<ellipse rx="12.4259" ry="10.8363" transform="matrix(0.696205 -0.717843 0.746931 0.664902 54.0296 27.8731)" fill="white" fill-opacity="0.33"/>
</g>
<defs>
<filter id="filter0_d" x="0.875977" y="5.87415" width="127.124" height="122.126" filterUnits="userSpaceOnUse" color-interpolation-filters="sRGB">
<feFlood flood-opacity="0" result="BackgroundImageFix"/>
<feColorMatrix in="SourceAlpha" type="matrix" values="0 0 0 0 0 0 0 0 0 0 0 0 0 0 0 0 0 0 127 0"/>
<feOffset dy="4"/>
<feGaussianBlur stdDeviation="2"/>
<feColorMatrix type="matrix" values="0 0 0 0 0 0 0 0 0 0 0 0 0 0 0 0 0 0 0.25 0"/>
<feBlend mode="normal" in2="BackgroundImageFix" result="effect1_dropShadow"/>
<feBlend mode="normal" in="SourceGraphic" in2="effect1_dropShadow" result="shape"/>
</filter>
</defs>
</svg>
