<svg width="129" height="128" viewBox="0 0 129 128" fill="none" xmlns="http://www.w3.org/2000/svg">
<g filter="url(#filter0_d)">
<g filter="url(#filter1_i)">
<circle cx="64.6499" cy="60" r="60" fill="#1D7AFF"/>
</g>
<g filter="url(#filter2_i)">
<path d="M43.0497 111.654C40.4648 113.22 39.6401 112.122 36.6541 111.654C34.651 111.34 32.3341 108.774 32.3341 108.774C32.3341 108.774 28.318 105.784 26.0941 103.494C23.012 100.32 21.7904 98.0796 19.3741 94.3738C16.8978 90.5759 14.3639 87.293 13.6141 84.2938L11.6941 76.6138C10.9443 73.6145 10.1972 71.9962 9.77407 68.9338C9.23533 65.0343 9.46251 62.7779 9.77407 58.8538C10.3212 51.9626 10.9198 47.94 13.6141 41.5738C15.3811 37.3984 16.5775 35.0624 19.3741 31.4938C22.6485 27.3154 29.4541 22.3738 29.4541 22.3738C29.4541 22.3738 32.8141 18.5337 32.8141 24.2938C32.8141 30.0538 32.0927 30.2148 32.8141 33.8938C33.4304 37.0371 33.9701 38.8741 35.6941 41.5738C37.0514 43.6993 38.1976 44.6244 40.0141 46.3738C42.9036 49.1565 45.1144 50.0192 48.1741 52.6138C50.9055 54.93 52.4987 56.1915 54.8941 58.8538C56.9505 61.1392 58.2909 62.3582 59.6941 65.0938C61.5409 68.6943 63.667 76.621 62.7297 81.1199C61.7924 85.6187 62.227 82.861 61.2897 87.3599C60.3524 91.8587 57.3125 93.4234 54.8941 97.2538C53.2527 99.8534 52.3551 101.411 50.0941 103.494C47.7997 105.608 45.7178 110.037 43.0497 111.654Z" fill="#6CAEFC" fill-opacity="0.58"/>
</g>
<g filter="url(#filter3_i)">
<path d="M43.564 94.8462C40.7727 97.7878 34.924 100.606 34.924 100.606C31.0247 100.502 28.1132 99.1977 25.3241 96.4709C22.6434 93.85 21.3313 92.0973 19.5641 88.7909C17.6082 85.1314 17.3893 82.6875 16.2041 78.7109C14.9315 74.4408 14.1086 73.5727 14.2702 69.1199C14.4121 65.2084 14.8841 64.1564 16.2041 60.4716C21.1909 46.5515 19.1519 36.4569 25.3241 41.7516C27.1792 43.343 26.8485 46.4378 28.204 48.4715C30.1238 51.3521 30.3298 51.4706 33.4841 54.2309C41.164 60.9515 39.2511 58.4288 42.1241 61.911C44.9066 65.2834 46.5717 67.3405 47.8841 71.511C49.5722 76.8752 49.3979 80.4949 47.8841 85.9109C46.6196 90.435 46.7973 91.4385 43.564 94.8462Z" fill="#66B4FE"/>
</g>
<g filter="url(#filter4_i)">
<path d="M55.1038 103.638C50.5948 109.023 40.0164 112.15 39.5449 112.623C39.0735 113.095 40.4879 114.041 40.4879 114.041C40.4879 114.041 45.3064 115.981 48.503 116.878C52.1197 117.893 57.9326 118.77 57.9326 118.77C57.9326 118.77 62.8771 119.378 65.9478 118.77C67.2628 118.509 67.9741 118.242 69.2481 117.824C72.6954 116.693 74.6376 115.934 77.7348 114.041C80.9762 112.06 82.7932 110.772 85.2784 107.894C86.7499 106.19 87.4636 105.123 88.5788 103.166C89.9703 100.724 90.935 99.3182 91.4077 96.5458C91.749 94.5436 91.4788 93.3745 91.4077 91.3445C91.3233 88.9384 91.4604 87.5471 90.9362 85.1975C90.4656 83.0883 90.2148 81.8149 89.0503 79.9962C87.9246 78.2383 86.8523 77.5821 85.2784 76.2135C83.3863 74.5681 82.1072 73.9221 80.0922 72.4307C77.8699 70.7859 76.6016 69.8921 74.4344 68.1751C72.1775 66.3871 70.6882 65.6018 68.7766 63.4467C67.2828 61.7625 66.6981 60.61 65.4763 58.7182C64.309 56.9108 62.6474 53.9897 62.6474 53.9897L60.29 48.3156L58.4041 43.1143V38.8587L59.3471 34.1303L61.7045 31.2932C61.7045 31.2932 63.358 28.869 65.0048 28.4561C66.6517 28.0432 67.8229 28.4769 69.2481 29.4018C71.0509 30.5717 71.2004 32.1644 72.077 34.1303C73.2439 36.7472 72.9628 38.5375 73.9629 41.2229C74.4535 42.5404 74.8435 43.2325 75.3774 44.5328C75.7549 45.4524 75.7545 46.0805 76.3203 46.8971C76.3203 46.8971 78.3611 49.117 80.0922 49.2613C81.428 49.3726 82.2958 49.0885 83.3925 48.3156C85.4415 46.8715 84.2821 44.4729 85.2784 42.1686C85.7698 41.0322 85.9464 40.3184 86.6929 39.3316C87.8057 37.8604 88.9208 37.5007 90.4647 36.4945C90.4647 36.4945 92.9305 34.7909 94.708 34.1303C96.2998 33.5387 97.3253 33.6736 98.9513 33.1846C100.458 32.7313 101.334 32.5072 102.723 31.766C102.723 31.766 104.689 30.2573 106.024 29.4018C107.621 28.3779 109.196 28.6066 110.267 27.0376C111.024 25.9281 111.21 23.7277 111.21 23.7277L107.438 19.4721C105.965 17.8101 104.957 16.7659 103.195 15.2165C101.616 13.8285 98.9513 11.9065 98.9513 11.9065C98.9513 11.9065 95.2874 9.47723 92.8221 8.12378C91.0164 7.13244 88.1073 5.75955 88.1073 5.75955L81.0351 3.39532C81.0351 3.39532 75.0964 1.34467 71.134 1.0311C69.115 0.871312 67.9731 1.0311 65.9478 1.0311H60.29C60.29 1.0311 54.2266 2.04493 50.389 2.92248C48.1685 3.43024 46.8949 3.62809 44.7312 4.34102C42.8472 4.96178 41.8064 5.37641 40.0164 6.2324C37.7075 7.33651 37.1875 7.17809 34.3587 9.54231C31.5298 11.9065 33.4966 13.5769 32.9442 16.1621C32.3919 18.7473 31.5298 20.1381 31.5298 22.782C31.5298 25.4259 31.9215 26.965 32.9442 29.4018C34.0737 32.0928 35.3293 33.3012 37.1875 35.5488C39.182 37.9611 40.5193 39.1304 42.8453 41.2229C44.7933 42.9754 48.0316 45.4785 48.0316 45.4785L53.2178 51.6255L57.4611 58.2454L62.6474 68.1751C62.6474 68.1751 65.731 75.3447 65.0048 79.9962C64.3674 84.0794 63.7295 87.3576 62.6474 91.3445C61.9159 94.0401 59.3471 96.5458 59.3471 96.5458C59.3471 96.5458 57.1751 101.165 55.1038 103.638Z" fill="#2D9D2D"/>
</g>
<g filter="url(#filter5_i)">
<path d="M52.3932 109.559C52.3932 109.559 46.802 112.591 44.4899 113.28C42.1777 113.969 49.2899 115.68 50.2499 115.68C52.3524 115.68 53.9301 115.426 56.0098 115.68C58.6063 115.997 60.6068 115.343 63.2098 115.043C67.0074 114.605 69.9875 114.358 71.8498 113.28C73.7122 112.202 75.2098 111.721 77.1298 110.88C79.0498 110.039 79.3126 108.986 80.4899 108C82.4518 106.357 83.5093 104.127 84.5692 101.754C85.892 98.7939 86.0305 96.6544 85.4376 93.4643C84.9799 91.0022 84.2582 89.6895 82.9147 87.6126C81.7502 85.8124 80.6438 85.1807 79.3126 83.5104C77.6692 81.4483 76.8202 80.223 75.4122 77.98C73.2317 74.5065 72.9375 71.6677 70.5683 68.6259C68.1991 65.584 66.8965 68.6259 66.8965 68.6259C66.8965 68.6259 67.0679 71.7923 66.8965 72.9599C66.6337 74.7491 66.9343 76.2117 66.8965 78.0192C66.8424 80.6072 67.2749 82.0363 67.5504 84.6063C67.8071 87.0012 68.0195 88.3541 67.5504 90.72C67.2168 92.4023 67.6143 93.4896 66.8965 95.04C66.25 96.4363 65.8361 97.5149 65.1298 98.88C64.3157 100.454 63.6681 100.87 62.567 102.243C61.3022 103.822 60.1102 104.314 58.6362 105.557C57.1622 106.799 52.3932 109.559 52.3932 109.559Z" fill="#7AC67A" fill-opacity="0.34"/>
</g>
<g filter="url(#filter6_i)">
<path d="M83.8153 31.8308C83.8153 31.8308 82.8203 35.4039 80.9353 36.1508C78.1798 37.2426 76.8715 33.843 74.6953 31.8308C72.2447 29.565 69.4153 25.1108 69.4153 25.1108H61.7353C58.736 25.1108 57.0022 28.6961 55.0153 31.8308C52.3131 36.0938 56.2138 46.4776 51.6553 44.3108C48.5427 42.8313 48.2953 36.1508 48.2953 36.1508C48.2953 36.1508 45.3174 33.9169 44.4553 31.8308C43.4529 29.4055 44.4553 27.7351 44.4553 25.1108V15.5108C44.4553 13.6363 43.7913 12.4638 44.4553 10.7108C45.6168 7.64437 48.6392 7.67762 51.6553 6.39082C55.3772 4.80284 61.7353 3.99081 61.7353 3.99081C68.3347 3.38297 72.1276 4.69843 78.5353 6.39082C83.3508 7.66269 86.5766 7.68811 90.5353 10.7108L90.5629 10.7319C93.6194 13.0657 95.7349 14.6811 96.7753 18.3908C97.4839 20.9177 97.5851 22.6146 96.7753 25.1108C95.6701 28.5173 93.9066 30.6228 90.5353 31.8308C88.0647 32.716 86.0388 30.4369 83.8153 31.8308Z" fill="#6BD26B" fill-opacity="0.72"/>
</g>
<g filter="url(#filter7_i)">
<path d="M87.3308 19.5565C86.0555 21.0876 83.4908 22.9165 83.4908 22.9165H80.6108C78.432 22.6589 77.4038 21.7155 75.3308 20.9965C73.6507 20.4138 72.7674 19.8339 71.0108 19.5565C69.3444 19.2934 68.3374 19.1891 66.6908 19.5565C65.2975 19.8674 64.6662 20.4917 63.3308 20.9965C60.7779 21.9617 59.2113 22.0876 56.6108 22.9165C55.4813 23.2766 54.912 23.9788 53.7308 23.8765C50.8741 23.6291 51.6572 19.4731 52.2908 16.6765C52.6613 15.0414 53.2053 14.1781 54.2108 12.8365C56.6248 9.61604 59.4095 8.94294 63.3308 8.03654C66.8009 7.23445 72.4508 8.03654 72.4508 8.03654C72.4508 8.03654 76.3076 9.37026 78.6908 10.4365C80.6039 11.2924 81.4339 12.4352 83.4908 12.8365C84.9627 13.1237 86.0288 12.0925 87.3308 12.8365C88.7866 13.6684 89.4588 15.0129 89.2508 16.6765C89.0832 18.0178 87.3308 19.5565 87.3308 19.5565Z" fill="#B1FFA5" fill-opacity="0.41"/>
</g>
<g filter="url(#filter8_i)">
<path d="M105.779 99.4435C101.817 104.422 97.4408 108.825 92.9699 110.963C88.499 113.102 91.6808 112.32 87.6899 110.963C85.8369 110.334 88.828 107.687 90.4189 106.163C92.0099 104.64 92.9699 103.2 94.259 101.364C96.66 97.9428 96.179 96.0001 96.179 92.1601C96.179 88.3201 96.179 83.055 94.259 79.7635C92.3389 76.472 88.0154 73.7014 84.1789 70.6435C79.8589 67.2001 79.0114 66.8597 78.4189 62.9636C78.1089 60.925 76.1099 59.4302 79.8589 56.2435L89.4589 48.0835C89.4589 48.0835 92.5966 45.57 96.179 43.2836C99.1477 41.3888 101.745 38.7616 104.819 37.0436C107.542 35.5217 109.45 32.0607 112.499 32.7235C114.83 33.2303 114.899 35.6036 116.339 38.4836C117.779 41.3636 119.775 48.6422 120.179 56.2435C120.358 59.6129 121.491 59.8223 120.179 64.8835L116.819 77.8435C115.507 82.9047 114.693 85.0891 112.499 89.3635C110.338 93.5723 108.725 95.7415 105.779 99.4435Z" fill="#7DBEFC" fill-opacity="0.5"/>
</g>
<g filter="url(#filter9_i)">
<path d="M113.707 82.3754C112.897 83.2325 112.523 84.0034 111.413 84.3103C109.707 84.7823 108.203 84.3103 107.285 82.3754C106.368 80.4405 107.063 79.6992 105.451 77.0545L101.322 70.2824C99.7102 67.6377 98.0979 67.0552 96.7355 64.4778C95.7962 62.7006 94.7743 61.6707 94.9008 59.6406C94.9751 58.4484 95.3682 57.8347 95.8182 56.7382C96.3918 55.3406 96.7924 54.5753 97.6529 53.3522C99.0888 51.3111 100.101 50.1694 102.24 48.9987C104.361 47.8377 108.203 47.5476 108.203 47.5476C108.203 47.5476 110.345 46.205 111.872 46.0964C113.738 45.9637 114.793 46.6511 116.459 47.5476C117.831 48.2862 118.713 48.6924 119.67 49.9662C121.463 52.3537 120.611 54.6598 120.587 57.7057C120.565 60.5642 120.155 62.1491 119.67 64.9615C119.008 68.7928 118.684 70.994 117.376 74.6359C116.241 77.796 115.968 79.981 113.707 82.3754Z" fill="#82C4FF" fill-opacity="0.53"/>
</g>
<g filter="url(#filter10_i)">
<path d="M115.53 67.1999L113.13 71.9999L108.81 69.5999L105.45 66.2399V63.3599L106.89 60.4799L108.81 58.5599H111.21L114.09 60.4799L116.01 63.3599L115.53 67.1999Z" fill="#A6D5FF" fill-opacity="0.45"/>
</g>
<g filter="url(#filter11_i)">
<ellipse cx="56.4901" cy="58.0801" rx="44.16" ry="57.12" fill="white" fill-opacity="0.09"/>
</g>
<g filter="url(#filter12_i)">
<ellipse cx="51.6898" cy="35.9999" rx="32.64" ry="31.2" fill="white" fill-opacity="0.15"/>
</g>
<g filter="url(#filter13_i)">
<ellipse cx="49.29" cy="23.5201" rx="12" ry="10.08" fill="white" fill-opacity="0.36"/>
</g>
<path d="M72.8647 102.537C70.8687 104.21 69.6034 105.163 67.1047 105.897C66.1876 106.166 65.6532 106.496 64.7047 106.377C64.1165 106.304 63.5043 106.439 63.2647 105.897C62.9916 105.279 63.8078 104.989 64.2247 104.457C64.8789 103.623 65.3734 103.265 66.1447 102.537C67.4019 101.351 68.4193 101.002 69.5047 99.6572L69.5081 99.6529C70.4553 98.4794 71.0388 97.7565 71.4247 96.2972C71.8081 94.8474 71.205 93.9406 71.4247 92.4572C71.6853 90.698 72.8647 89.5772 72.8647 88.1372C72.8647 86.6972 71.7192 85.5588 72.8647 84.7772C73.6389 84.2489 74.3583 84.5386 75.2647 84.7772C77.0593 85.2494 77.9485 86.4091 78.6247 88.1372C79.2395 89.7082 78.8493 90.7851 78.6247 92.4572C78.3091 94.8072 77.9018 96.1705 76.7047 98.2172C75.5651 100.166 74.5948 101.087 72.8647 102.537Z" fill="#A1E19F" fill-opacity="0.31"/>
</g>
<defs>
<filter id="filter0_d" x="0.649902" y="0" width="128" height="128" filterUnits="userSpaceOnUse" color-interpolation-filters="sRGB">
<feFlood flood-opacity="0" result="BackgroundImageFix"/>
<feColorMatrix in="SourceAlpha" type="matrix" values="0 0 0 0 0 0 0 0 0 0 0 0 0 0 0 0 0 0 127 0"/>
<feOffset dy="4"/>
<feGaussianBlur stdDeviation="2"/>
<feColorMatrix type="matrix" values="0 0 0 0 0 0 0 0 0 0 0 0 0 0 0 0 0 0 0.25 0"/>
<feBlend mode="normal" in2="BackgroundImageFix" result="effect1_dropShadow"/>
<feBlend mode="normal" in="SourceGraphic" in2="effect1_dropShadow" result="shape"/>
</filter>
<filter id="filter1_i" x="4.6499" y="0" width="121" height="124" filterUnits="userSpaceOnUse" color-interpolation-filters="sRGB">
<feFlood flood-opacity="0" result="BackgroundImageFix"/>
<feBlend mode="normal" in="SourceGraphic" in2="BackgroundImageFix" result="shape"/>
<feColorMatrix in="SourceAlpha" type="matrix" values="0 0 0 0 0 0 0 0 0 0 0 0 0 0 0 0 0 0 127 0" result="hardAlpha"/>
<feOffset dx="1" dy="4"/>
<feGaussianBlur stdDeviation="2"/>
<feComposite in2="hardAlpha" operator="arithmetic" k2="-1" k3="1"/>
<feColorMatrix type="matrix" values="0 0 0 0 0 0 0 0 0 0 0 0 0 0 0 0 0 0 0.25 0"/>
<feBlend mode="soft-light" in2="shape" result="effect1_innerShadow"/>
</filter>
<filter id="filter2_i" x="9.44971" y="21.1199" width="54.5089" height="95.3463" filterUnits="userSpaceOnUse" color-interpolation-filters="sRGB">
<feFlood flood-opacity="0" result="BackgroundImageFix"/>
<feBlend mode="normal" in="SourceGraphic" in2="BackgroundImageFix" result="shape"/>
<feColorMatrix in="SourceAlpha" type="matrix" values="0 0 0 0 0 0 0 0 0 0 0 0 0 0 0 0 0 0 127 0" result="hardAlpha"/>
<feOffset dx="1" dy="4"/>
<feGaussianBlur stdDeviation="2"/>
<feComposite in2="hardAlpha" operator="arithmetic" k2="-1" k3="1"/>
<feColorMatrix type="matrix" values="0 0 0 0 0 0 0 0 0 0 0 0 0 0 0 0 0 0 0.25 0"/>
<feBlend mode="soft-light" in2="shape" result="effect1_innerShadow"/>
</filter>
<filter id="filter3_i" x="14.25" y="40.3199" width="35.8357" height="64.2862" filterUnits="userSpaceOnUse" color-interpolation-filters="sRGB">
<feFlood flood-opacity="0" result="BackgroundImageFix"/>
<feBlend mode="normal" in="SourceGraphic" in2="BackgroundImageFix" result="shape"/>
<feColorMatrix in="SourceAlpha" type="matrix" values="0 0 0 0 0 0 0 0 0 0 0 0 0 0 0 0 0 0 127 0" result="hardAlpha"/>
<feOffset dx="1" dy="4"/>
<feGaussianBlur stdDeviation="2"/>
<feComposite in2="hardAlpha" operator="arithmetic" k2="-1" k3="1"/>
<feColorMatrix type="matrix" values="0 0 0 0 0 0 0 0 0 0 0 0 0 0 0 0 0 0 0.25 0"/>
<feBlend mode="soft-light" in2="shape" result="effect1_innerShadow"/>
</filter>
<filter id="filter4_i" x="31.5298" y="0.960083" width="80.68" height="122.08" filterUnits="userSpaceOnUse" color-interpolation-filters="sRGB">
<feFlood flood-opacity="0" result="BackgroundImageFix"/>
<feBlend mode="normal" in="SourceGraphic" in2="BackgroundImageFix" result="shape"/>
<feColorMatrix in="SourceAlpha" type="matrix" values="0 0 0 0 0 0 0 0 0 0 0 0 0 0 0 0 0 0 127 0" result="hardAlpha"/>
<feOffset dx="1" dy="4"/>
<feGaussianBlur stdDeviation="2"/>
<feComposite in2="hardAlpha" operator="arithmetic" k2="-1" k3="1"/>
<feColorMatrix type="matrix" values="0 0 0 0 0 0 0 0 0 0 0 0 0 0 0 0 0 0 0.25 0"/>
<feBlend mode="soft-light" in2="shape" result="effect1_innerShadow"/>
</filter>
<filter id="filter5_i" x="43.8823" y="65.2277" width="45.8065" height="57.9398" filterUnits="userSpaceOnUse" color-interpolation-filters="sRGB">
<feFlood flood-opacity="0" result="BackgroundImageFix"/>
<feBlend mode="normal" in="SourceGraphic" in2="BackgroundImageFix" result="shape"/>
<feColorMatrix in="SourceAlpha" type="matrix" values="0 0 0 0 0 0 0 0 0 0 0 0 0 0 0 0 0 0 127 0" result="hardAlpha"/>
<feOffset dx="1" dy="4"/>
<feGaussianBlur stdDeviation="2"/>
<feComposite in2="hardAlpha" operator="arithmetic" k2="-1" k3="1"/>
<feColorMatrix type="matrix" values="0 0 0 0 0 0 0 0 0 0 0 0 0 0 0 0 0 0 0.25 0"/>
<feBlend mode="soft-light" in2="shape" result="effect1_innerShadow"/>
</filter>
<filter id="filter6_i" x="44.0098" y="3.83997" width="54.3355" height="44.7648" filterUnits="userSpaceOnUse" color-interpolation-filters="sRGB">
<feFlood flood-opacity="0" result="BackgroundImageFix"/>
<feBlend mode="normal" in="SourceGraphic" in2="BackgroundImageFix" result="shape"/>
<feColorMatrix in="SourceAlpha" type="matrix" values="0 0 0 0 0 0 0 0 0 0 0 0 0 0 0 0 0 0 127 0" result="hardAlpha"/>
<feOffset dx="1" dy="4"/>
<feGaussianBlur stdDeviation="2"/>
<feComposite in2="hardAlpha" operator="arithmetic" k2="-1" k3="1"/>
<feColorMatrix type="matrix" values="0 0 0 0 0 0 0 0 0 0 0 0 0 0 0 0 0 0 0.25 0"/>
<feBlend mode="soft-light" in2="shape" result="effect1_innerShadow"/>
</filter>
<filter id="filter7_i" x="51.6899" y="7.68005" width="38.5979" height="20.2066" filterUnits="userSpaceOnUse" color-interpolation-filters="sRGB">
<feFlood flood-opacity="0" result="BackgroundImageFix"/>
<feBlend mode="normal" in="SourceGraphic" in2="BackgroundImageFix" result="shape"/>
<feColorMatrix in="SourceAlpha" type="matrix" values="0 0 0 0 0 0 0 0 0 0 0 0 0 0 0 0 0 0 127 0" result="hardAlpha"/>
<feOffset dx="1" dy="4"/>
<feGaussianBlur stdDeviation="2"/>
<feComposite in2="hardAlpha" operator="arithmetic" k2="-1" k3="1"/>
<feColorMatrix type="matrix" values="0 0 0 0 0 0 0 0 0 0 0 0 0 0 0 0 0 0 0.25 0"/>
<feBlend mode="soft-light" in2="shape" result="effect1_innerShadow"/>
</filter>
<filter id="filter8_i" x="77.6099" y="32.6401" width="44.1942" height="83.65" filterUnits="userSpaceOnUse" color-interpolation-filters="sRGB">
<feFlood flood-opacity="0" result="BackgroundImageFix"/>
<feBlend mode="normal" in="SourceGraphic" in2="BackgroundImageFix" result="shape"/>
<feColorMatrix in="SourceAlpha" type="matrix" values="0 0 0 0 0 0 0 0 0 0 0 0 0 0 0 0 0 0 127 0" result="hardAlpha"/>
<feOffset dx="1" dy="4"/>
<feGaussianBlur stdDeviation="2"/>
<feComposite in2="hardAlpha" operator="arithmetic" k2="-1" k3="1"/>
<feColorMatrix type="matrix" values="0 0 0 0 0 0 0 0 0 0 0 0 0 0 0 0 0 0 0.25 0"/>
<feBlend mode="soft-light" in2="shape" result="effect1_innerShadow"/>
</filter>
<filter id="filter9_i" x="94.8901" y="46.08" width="26.92" height="42.4" filterUnits="userSpaceOnUse" color-interpolation-filters="sRGB">
<feFlood flood-opacity="0" result="BackgroundImageFix"/>
<feBlend mode="normal" in="SourceGraphic" in2="BackgroundImageFix" result="shape"/>
<feColorMatrix in="SourceAlpha" type="matrix" values="0 0 0 0 0 0 0 0 0 0 0 0 0 0 0 0 0 0 127 0" result="hardAlpha"/>
<feOffset dx="1" dy="4"/>
<feGaussianBlur stdDeviation="2"/>
<feComposite in2="hardAlpha" operator="arithmetic" k2="-1" k3="1"/>
<feColorMatrix type="matrix" values="0 0 0 0 0 0 0 0 0 0 0 0 0 0 0 0 0 0 0.25 0"/>
<feBlend mode="soft-light" in2="shape" result="effect1_innerShadow"/>
</filter>
<filter id="filter10_i" x="105.45" y="58.5599" width="11.56" height="17.44" filterUnits="userSpaceOnUse" color-interpolation-filters="sRGB">
<feFlood flood-opacity="0" result="BackgroundImageFix"/>
<feBlend mode="normal" in="SourceGraphic" in2="BackgroundImageFix" result="shape"/>
<feColorMatrix in="SourceAlpha" type="matrix" values="0 0 0 0 0 0 0 0 0 0 0 0 0 0 0 0 0 0 127 0" result="hardAlpha"/>
<feOffset dx="1" dy="4"/>
<feGaussianBlur stdDeviation="2"/>
<feComposite in2="hardAlpha" operator="arithmetic" k2="-1" k3="1"/>
<feColorMatrix type="matrix" values="0 0 0 0 0 0 0 0 0 0 0 0 0 0 0 0 0 0 0.25 0"/>
<feBlend mode="soft-light" in2="shape" result="effect1_innerShadow"/>
</filter>
<filter id="filter11_i" x="12.3301" y="0.960083" width="89.32" height="118.24" filterUnits="userSpaceOnUse" color-interpolation-filters="sRGB">
<feFlood flood-opacity="0" result="BackgroundImageFix"/>
<feBlend mode="normal" in="SourceGraphic" in2="BackgroundImageFix" result="shape"/>
<feColorMatrix in="SourceAlpha" type="matrix" values="0 0 0 0 0 0 0 0 0 0 0 0 0 0 0 0 0 0 127 0" result="hardAlpha"/>
<feOffset dx="1" dy="4"/>
<feGaussianBlur stdDeviation="2"/>
<feComposite in2="hardAlpha" operator="arithmetic" k2="-1" k3="1"/>
<feColorMatrix type="matrix" values="0 0 0 0 0 0 0 0 0 0 0 0 0 0 0 0 0 0 0.25 0"/>
<feBlend mode="soft-light" in2="shape" result="effect1_innerShadow"/>
</filter>
<filter id="filter12_i" x="19.0498" y="4.79993" width="66.28" height="66.4" filterUnits="userSpaceOnUse" color-interpolation-filters="sRGB">
<feFlood flood-opacity="0" result="BackgroundImageFix"/>
<feBlend mode="normal" in="SourceGraphic" in2="BackgroundImageFix" result="shape"/>
<feColorMatrix in="SourceAlpha" type="matrix" values="0 0 0 0 0 0 0 0 0 0 0 0 0 0 0 0 0 0 127 0" result="hardAlpha"/>
<feOffset dx="1" dy="4"/>
<feGaussianBlur stdDeviation="2"/>
<feComposite in2="hardAlpha" operator="arithmetic" k2="-1" k3="1"/>
<feColorMatrix type="matrix" values="0 0 0 0 0 0 0 0 0 0 0 0 0 0 0 0 0 0 0.25 0"/>
<feBlend mode="soft-light" in2="shape" result="effect1_innerShadow"/>
</filter>
<filter id="filter13_i" x="37.29" y="13.4401" width="25" height="24.16" filterUnits="userSpaceOnUse" color-interpolation-filters="sRGB">
<feFlood flood-opacity="0" result="BackgroundImageFix"/>
<feBlend mode="normal" in="SourceGraphic" in2="BackgroundImageFix" result="shape"/>
<feColorMatrix in="SourceAlpha" type="matrix" values="0 0 0 0 0 0 0 0 0 0 0 0 0 0 0 0 0 0 127 0" result="hardAlpha"/>
<feOffset dx="1" dy="4"/>
<feGaussianBlur stdDeviation="2"/>
<feComposite in2="hardAlpha" operator="arithmetic" k2="-1" k3="1"/>
<feColorMatrix type="matrix" values="0 0 0 0 0 0 0 0 0 0 0 0 0 0 0 0 0 0 0.25 0"/>
<feBlend mode="soft-light" in2="shape" result="effect1_innerShadow"/>
</filter>
</defs>
</svg>
