<svg width="138" height="138" viewBox="0 0 138 138" fill="none" xmlns="http://www.w3.org/2000/svg">
<g filter="url(#filter0_d)">
<ellipse cx="68.9442" cy="68.9502" rx="64.9442" ry="61.0497" fill="#DA5931"/>
<path d="M86.5455 48.9392C86.5455 48.9392 83.2609 55.4008 79.6691 58.2762C78.031 59.5876 76.7527 59.8714 75.0848 61.1491C72.2995 63.2828 69.2944 64.2493 68.9724 67.6132C68.709 70.3646 70.3456 71.8127 72.0286 74.0773C74.2713 77.0951 76.3566 78.2188 79.6691 80.1823C84.2627 82.9052 87.3356 83.8363 92.6579 84.8508C99.0913 86.077 103.094 86.3316 109.467 84.8508C115.296 83.4962 120.534 83.4355 123.22 78.3867C125.221 74.6236 124.661 71.5963 123.22 67.6132C121.583 63.0912 117.645 62.2435 114.815 58.2762C112.362 54.8365 110.798 52.887 109.467 48.9392C107.303 42.5222 112.693 37.7114 109.467 31.7016C106.401 25.9915 101.866 24.3791 95.7141 21.6464C89.8905 19.0594 85.5814 15.6525 79.6691 18.0552C75.5975 19.7099 83.0053 23.2692 82.3433 27.3922C81.5404 32.3921 76.9077 32.3898 79.6691 36.7292C82.6154 41.3593 86.5455 48.9392 86.5455 48.9392Z" fill="#BC4523"/>
<path d="M98.9785 61.864C98.1243 63.6447 98.4322 65.0588 97.0683 66.5325C95.4475 68.284 93.8049 68.9395 91.338 69.0463C88.598 69.165 87.1029 67.9944 84.8435 66.5325C83.7105 65.7995 82.7031 65.5695 82.1694 64.3778C81.2632 62.3547 83.1376 60.8492 84.8435 59.3502C86.8083 57.6237 89.3092 58.8554 91.338 57.1955C93.1525 55.7109 94.1047 54.4128 94.3942 52.1679C94.7643 49.2977 92.3403 48.078 91.338 45.3447C90.1823 42.1931 88.8099 40.4112 89.0458 37.085C89.2341 34.43 88.8557 31.8998 91.338 30.6209C94.1561 29.169 96.584 31.479 98.9785 33.4939C101.267 35.4199 101.677 37.2694 102.799 39.9579C103.974 42.7765 104.709 47.4994 104.709 47.4994L102.799 55.3999C102.053 58.4853 100.241 59.2315 98.9785 61.864Z" fill="#A8341B"/>
<path d="M68.2973 87.8147C67.6916 90.7715 67.521 93.7002 64.4771 94.6379C61.1704 95.6565 59.9942 91.7029 56.8366 90.3285C53.9679 89.0798 52.2993 88.3813 49.1961 87.8147C45.0954 87.0659 42.3701 89.2912 38.4994 87.8147C33.8957 86.0585 32.4371 82.9555 30.0948 78.8368C28.2486 75.5903 26.4381 73.4966 27.0386 69.8589C27.4479 67.3798 27.9184 65.5649 30.0948 64.113C32.7715 62.3274 35.2172 64.113 38.4994 64.113C41.334 64.113 43.313 65.4614 45.7578 64.113C47.7924 62.9909 47.3614 60.8383 49.1961 59.4445C50.9634 58.1018 52.45 58.1185 54.5444 57.2898C57.0724 56.2895 58.4603 53.8971 61.0388 54.776C63.2565 55.5319 63.8426 57.3088 64.4771 59.4445C64.9987 61.2005 64.7594 62.3093 64.4771 64.113C63.9808 67.2831 60.3595 68.5145 61.0388 71.6545C61.509 73.8274 63.2185 74.4475 64.4771 76.323C66.1161 78.7654 67.6743 79.9593 68.2973 82.787C68.7209 84.7097 68.6923 85.8867 68.2973 87.8147Z" fill="#BB4522"/>
<path d="M75.4264 106.937C72.2919 106.937 68.7124 105.591 65.1067 103.471C61.2979 101.231 61.3949 97.1262 57.0802 95.8463H49.436C49.436 95.8463 45.9907 98.6189 43.3206 98.6189C40.6505 98.6189 37.2052 95.8463 37.2052 95.8463C37.2052 95.8463 32.7552 92.0775 29.561 92.7271C27.3763 93.1715 25.9036 93.9992 24.9744 95.8463C23.4221 98.9322 27.4915 100.646 29.561 103.471C32.1409 106.993 33.528 109.189 37.2052 111.789C40.6267 114.208 43.86 113.722 47.1427 116.294C49.4708 118.119 49.2073 120.917 52.1115 121.839C53.9429 122.421 55.1398 121.839 57.0802 121.839C61.1103 121.839 63.4719 121.022 67.4 121.839C72.0212 122.801 75.4264 126.345 78.1019 127.038C80.7774 127.731 88.1082 124.13 89.9505 124.612C91.7928 125.094 89.9505 121.839 89.9505 121.839C89.9505 121.839 94.8282 123.232 97.2125 121.839C99.4573 120.528 100.256 118.715 100.27 116.294C100.289 113.178 97.9197 111.727 95.3014 109.709C93.4676 108.296 92.2722 107.512 89.9505 106.937C87.5026 106.331 83.4529 106.937 83.4529 106.937H75.4264Z" fill="#BB4320"/>
<path d="M83.2486 115.346C83.9157 116.6 83.9157 117.683 83.2486 118.937C82.7768 119.824 82.2918 120.308 81.3384 120.733C80.125 121.273 79.2318 120.895 77.9002 120.733C75.7008 120.465 74.656 119.596 72.5519 118.937C69.5964 118.012 67.7966 117.887 64.9114 116.782C61.9446 115.647 60.5053 114.561 57.6529 113.191C55.5735 112.192 54.3932 111.659 52.3045 110.677C47.8288 108.574 36.6221 107.816 40.8438 105.291C42.4007 104.359 43.6196 104.558 45.4281 104.213C47.3512 103.846 48.7533 103.215 50.3944 103.495L54.5967 104.213C56.2378 104.494 58.7739 106.21 61.4731 107.445C64.293 108.736 65.8927 109.424 68.7316 110.677C70.9668 111.664 72.0454 112.713 74.462 113.191C76.6519 113.624 78.1211 112.395 80.1924 113.191L80.266 113.22C81.6091 113.736 82.5933 114.114 83.2486 115.346Z" fill="#A8341D"/>
<path d="M123.345 35.4272C119.438 29.6488 111.088 22.2651 111.088 22.2651C111.088 22.2651 113.683 30.2245 114.918 35.4272C116.027 40.0977 116.71 42.7279 117.216 47.4924C117.865 53.6007 118.157 57.1403 117.216 63.2138C116.351 68.8015 115.247 72.1098 113.003 77.1071L107.258 89.9035C107.258 89.9035 103.492 97.8971 99.9805 102.334C96.9834 106.121 94.6097 107.681 91.1711 111.109C87.8788 114.392 86.3673 116.57 82.7447 119.518C76.4198 124.666 64.3599 129.755 64.3599 129.755C64.3599 129.755 72.5621 130.306 77.7655 129.755C84.3641 129.058 87.8624 127.688 93.3937 125.331C98.9251 122.974 102.454 121.672 107.258 118.149C111.375 115.13 113.749 112.97 117.216 109.281C121.095 105.154 122.712 103.629 125.484 98.7568C130.36 90.1861 132.893 83.5402 133.686 73.8166C134.281 66.5219 134.129 62.423 132.36 55.3038C130.347 47.2031 128.074 42.4225 123.345 35.4272Z" fill="#974026" fill-opacity="0.57"/>
<ellipse rx="37.9607" ry="26.132" transform="matrix(0.855343 -0.518062 0.565361 0.824843 52.0076 41.2207)" fill="white" fill-opacity="0.42"/>
<ellipse rx="20.1093" ry="15.8152" transform="matrix(0.90043 -0.435002 0.479699 0.877433 58.0715 31.9612)" fill="white" fill-opacity="0.42"/>
<ellipse rx="11.5591" ry="7.69363" transform="matrix(0.90043 -0.435002 0.479699 0.877433 58.5934 28.2982)" fill="white" fill-opacity="0.42"/>
</g>
<defs>
<filter id="filter0_d" x="0" y="7.90048" width="138" height="130.099" filterUnits="userSpaceOnUse" color-interpolation-filters="sRGB">
<feFlood flood-opacity="0" result="BackgroundImageFix"/>
<feColorMatrix in="SourceAlpha" type="matrix" values="0 0 0 0 0 0 0 0 0 0 0 0 0 0 0 0 0 0 127 0"/>
<feOffset dy="4"/>
<feGaussianBlur stdDeviation="2"/>
<feColorMatrix type="matrix" values="0 0 0 0 0 0 0 0 0 0 0 0 0 0 0 0 0 0 0.25 0"/>
<feBlend mode="normal" in2="BackgroundImageFix" result="effect1_dropShadow"/>
<feBlend mode="normal" in="SourceGraphic" in2="effect1_dropShadow" result="shape"/>
</filter>
</defs>
</svg>
