<svg width="118" height="115" viewBox="0 0 118 115" fill="none" xmlns="http://www.w3.org/2000/svg">
<g filter="url(#filter0_d)">
<ellipse cx="59.1213" cy="54.9297" rx="54.6911" ry="52.0703" fill="#B98D01"/>
<path d="M38.0962 77.1783C39.6236 76.8521 39.5878 75.7582 41.5765 75.2849C43.5653 74.8115 42.194 77.4456 41.5765 78.5984C40.5775 80.4636 38.3361 80.7152 36.1513 80.9603L36.1074 80.9653C34.3719 81.1601 33.2999 80.5169 31.6327 80.0185C29.7802 79.4648 28.9075 78.591 27.6551 77.1783C26.6454 76.0394 26.0902 75.2995 25.6664 73.8647C25.1932 72.2631 25.1932 71.2061 25.6664 69.6045C26.0902 68.1697 25.6078 67.3937 26.6608 66.2909C28.4131 64.4557 31.0164 63.4507 33.6214 63.4507C36.2264 63.4507 37.8354 64.4557 39.5877 66.2909C40.6408 67.3937 41.9403 68.1548 41.5765 69.6045C41.0484 71.709 38.3541 68.0373 36.1074 67.711C34.3799 67.4601 33.1154 66.8305 31.6327 67.711C30.3045 68.4998 29.8016 69.5417 29.6439 71.0245C29.4512 72.836 30.2979 73.981 31.6327 75.2849C33.476 77.0854 35.5193 77.7286 38.0962 77.1783Z" fill="#F6D255" fill-opacity="0.7"/>
<path d="M49.7383 77.0836C49.1515 79.1658 44.6364 81.0567 46.7551 81.8173C48.5719 82.4695 50.7326 78.9771 50.7326 78.9771L52.2242 76.1369L53.2186 72.8233L54.213 69.9831C54.213 69.9831 55.0821 68.7989 55.7046 68.0896C56.761 66.886 57.5227 66.3586 58.6877 65.2494C59.8527 64.1403 61.0641 64.3027 62.6653 64.3027C64.2664 64.3027 65.0574 65.0366 66.6428 65.2494C68.7577 65.5334 69.9761 65.2494 72.1119 65.2494C75.9952 65.2494 78.7513 67.1915 82.0557 65.2494C84.1716 64.0059 84.8108 62.5773 86.0333 60.5158C87.6335 57.8173 88.7283 56.0343 88.5192 52.9419C88.3455 50.3724 88.5574 45.8638 86.0333 46.7881C83.6774 47.6508 86.8389 50.6644 86.0333 52.9419C85.4486 54.5947 85.0256 55.699 83.5473 56.7288C81.1969 58.3663 78.7111 57.9366 76.0894 56.7288C74.112 55.8179 73.0105 54.8504 72.1119 52.9419C71.0794 50.749 74.0388 48.3405 72.1119 46.7881C69.5878 44.7547 66.6428 51.5218 66.6428 52.9419C66.6428 54.362 68.4089 58.0824 66.6428 60.5158C65.0623 62.6932 62.8961 62.7945 60.1793 63.356C57.5228 63.9049 55.5835 62.0798 53.2186 63.356C51.1567 64.4687 49.7383 68.0896 49.7383 68.0896V71.8766C49.7383 73.91 50.2917 75.1196 49.7383 77.0836Z" fill="#F6D255" fill-opacity="0.7"/>
<path d="M22.861 46.4689C20.3483 44.4059 21.3694 38.895 19.8778 38.895C18.3863 38.895 17.1314 42.4859 17.3919 45.0488C17.601 47.106 18.4781 48.2027 19.8778 49.7825C21.406 51.5073 22.7252 52.0957 24.8498 53.096C27.3839 54.2892 28.9838 54.9419 31.8104 54.9895C34.8242 55.0403 36.6727 54.555 39.2683 53.096C41.0457 52.097 41.8546 51.234 43.2459 49.7825C44.8435 48.1157 45.52 46.9912 46.7262 45.0488C47.831 43.2697 47.6448 41.7452 49.2122 40.3151C50.3424 39.2839 51.194 38.8528 52.6925 38.4217C55.1159 37.7244 56.6729 38.4255 59.156 38.895C61.1443 39.271 62.1214 40.0409 64.1279 40.3151C66.0499 40.5778 67.2496 40.8756 69.0999 40.3151C71.2095 39.6761 72.45 38.8171 73.5746 37.0016C74.5805 35.3777 74.5051 34.1521 74.569 32.2679C74.6451 30.0201 75.2397 28.1826 73.5746 26.5875C72.6564 25.7079 71.8562 24.8711 70.5914 25.1674C68.9805 25.5448 70.1661 27.7443 69.0999 28.9543C68.1999 29.9756 67.4586 30.4672 66.1167 30.8478C64.8141 31.2172 63.9563 31.1565 62.6364 30.8478C61.1161 30.4923 60.1831 30.079 59.156 28.9543C58.0675 27.7624 57.776 26.7433 57.6644 25.1674C57.5281 23.2418 57.6995 21.7761 59.156 20.4337C60.2185 19.4545 61.1967 19.3349 62.6364 19.0136C64.5268 18.5918 66.1716 20.2571 67.6083 19.0136C69.7441 17.165 65.0987 15.2406 62.6364 13.8066C61.3749 13.072 60.6205 12.5811 59.156 12.3865C56.9634 12.0952 55.6979 12.9253 53.6869 13.8066C51.8069 14.6305 50.8669 15.361 49.2828 16.5919L49.2122 16.6468C47.5103 17.9692 47.1268 19.3713 45.2346 20.4337C43.648 21.3246 42.5831 21.6037 40.7599 21.8538C36.5626 22.4297 34.4563 18.1284 30.3189 19.0136C27.9452 19.5215 26.4148 20.0804 24.8498 21.8538C23.5045 23.3782 22.861 22.8006 22.861 26.5875C22.861 30.3744 22.9463 31.0232 24.8498 30.8478C26.6832 30.6789 25.0305 27.8196 26.3413 26.5875C27.5219 25.4779 28.6617 25.0946 30.3189 25.1674C31.796 25.2323 32.5034 25.9093 33.7992 26.5875C36.2175 27.8532 37.8374 28.6012 39.2683 30.8478C40.6116 32.9567 41.7543 36.5283 41.7543 36.5283C41.7543 36.5283 41.5174 40.3073 40.7599 42.2086C39.8834 44.4086 38.3884 45.2334 36.2852 46.4689C34.195 47.6968 32.7703 48.2195 30.3189 48.3624C27.3102 48.5377 25.1437 48.3431 22.861 46.4689Z" fill="#FFDD64" fill-opacity="0.4"/>
<path d="M46.6511 93.5162C46.6511 93.5162 40.7201 93.3574 40.2271 95.805V97.1782C40.2271 97.1782 45.463 97.9788 48.6277 97.1782C51.6295 96.4189 53.2993 95.5106 55.546 93.5162C57.9832 91.3526 58.2113 89.3059 59.9934 86.65C62.0562 83.5759 62.2453 80.9669 65.4291 78.8684C68.3666 76.9322 70.7558 77.057 74.324 76.5796C78.3349 76.043 80.6487 76.5796 84.7013 76.5796C88.1749 76.5796 90.3482 75.4386 93.5961 76.5796C97.0434 77.7907 96.9138 83.2652 100.514 82.5303C103.494 81.9221 105.829 79.2894 104.962 76.5796C104.2 74.1987 98.4826 75.8062 99.0319 73.3754C99.532 71.1622 102.834 72.6523 104.962 71.5444C110.91 68.4476 112.103 63.5658 113.362 57.3543C114.11 53.6648 113.791 51.4745 113.362 47.7416C112.595 41.0502 107.927 31.2627 107.927 31.2627C107.927 31.2627 108.236 37.6894 107.927 41.7909C107.462 47.9476 107.405 51.6125 104.962 57.3543C103.6 60.5532 103.077 62.6486 100.514 65.136C98.2967 67.2881 96.5158 68.0157 93.5961 69.2557C90.319 70.6474 91.0697 72.4382 84.7013 71.5444L68.3941 69.2557C62.0257 68.3619 62.6842 69.5897 59.9934 71.5444C57.2057 73.5695 55.546 78.8684 55.546 78.8684L52.0868 86.65L46.6511 93.5162Z" fill="#F8E190" fill-opacity="0.3"/>
<path d="M97.4046 18.0075C93.7538 14.3734 86.4664 10.4336 86.4664 10.4336C86.4664 10.4336 89.7896 16.3713 91.4383 20.3743C93.4344 25.2207 94.0104 28.1244 95.4159 33.1552C96.9534 38.6587 97.2196 41.1908 97.4046 46.8828C97.5499 51.3519 98.1448 54.3017 97.4046 58.717C96.7505 62.6195 96.5024 64.8436 95.4159 68.6577C94.2261 72.8343 93.1541 75.0645 91.4383 79.0718C89.6671 83.2086 88.8417 85.6332 86.4664 89.4858C82.1483 96.4897 72.0479 105.107 72.0479 105.107L79.5057 102.74C79.5057 102.74 87.8892 100.461 91.4383 97.5331C94.1441 95.3008 94.9588 94.8153 97.4046 92.326C99.2805 90.4169 100.573 89.0908 102.377 87.119C105.03 84.2178 106.823 79.5645 108.84 76.2316C110.661 73.2223 110.9 71.5445 111.823 68.1843C113.101 63.5345 113.812 56.3502 113.812 56.3502C113.812 56.3502 113.504 50.3244 112.818 45.9361C112.067 41.1367 110.543 37.5321 108.343 33.1552C106.459 29.408 106.392 28.4969 103.868 25.108C102.026 22.6346 99.6058 20.1985 97.4046 18.0075Z" fill="#594400" fill-opacity="0.43"/>
<ellipse rx="32.9557" ry="25.2177" transform="matrix(0.877488 -0.479599 0.515736 0.856747 46.3536 37.4105)" fill="white" fill-opacity="0.26"/>
<ellipse rx="21.0394" ry="14.7538" transform="matrix(0.877654 -0.479295 0.516048 0.856559 42.4403 33.1564)" fill="white" fill-opacity="0.26"/>
<ellipse rx="13.658" ry="10.042" transform="matrix(0.877654 -0.479295 0.516048 0.856559 41.487 29.3688)" fill="white" fill-opacity="0.26"/>
</g>
<defs>
<filter id="filter0_d" x="0.430176" y="2.85938" width="117.382" height="112.141" filterUnits="userSpaceOnUse" color-interpolation-filters="sRGB">
<feFlood flood-opacity="0" result="BackgroundImageFix"/>
<feColorMatrix in="SourceAlpha" type="matrix" values="0 0 0 0 0 0 0 0 0 0 0 0 0 0 0 0 0 0 127 0"/>
<feOffset dy="4"/>
<feGaussianBlur stdDeviation="2"/>
<feColorMatrix type="matrix" values="0 0 0 0 0 0 0 0 0 0 0 0 0 0 0 0 0 0 0.25 0"/>
<feBlend mode="normal" in2="BackgroundImageFix" result="effect1_dropShadow"/>
<feBlend mode="normal" in="SourceGraphic" in2="effect1_dropShadow" result="shape"/>
</filter>
</defs>
</svg>
