<svg width="374" height="259" viewBox="0 0 374 259" fill="none" xmlns="http://www.w3.org/2000/svg">
<path d="M141.588 7.05V15H140.148V8.31H135.663V15H134.223V7.05H141.588ZM151.199 7.05V15H149.759V8.31H146.339L146.249 10.08C146.199 11.15 146.104 12.045 145.964 12.765C145.824 13.475 145.594 14.045 145.274 14.475C144.954 14.905 144.509 15.12 143.939 15.12C143.679 15.12 143.384 15.075 143.054 14.985L143.144 13.77C143.274 13.8 143.394 13.815 143.504 13.815C143.904 13.815 144.204 13.64 144.404 13.29C144.604 12.94 144.734 12.525 144.794 12.045C144.854 11.565 144.909 10.88 144.959 9.99L145.094 7.05H151.199ZM156.819 6.975C157.919 6.975 158.759 7.245 159.339 7.785C159.929 8.325 160.224 9.13 160.224 10.2V15H158.859V13.95C158.619 14.32 158.274 14.605 157.824 14.805C157.384 14.995 156.859 15.09 156.249 15.09C155.359 15.09 154.644 14.875 154.104 14.445C153.574 14.015 153.309 13.45 153.309 12.75C153.309 12.05 153.564 11.49 154.074 11.07C154.584 10.64 155.394 10.425 156.504 10.425H158.784V10.14C158.784 9.52 158.604 9.045 158.244 8.715C157.884 8.385 157.354 8.22 156.654 8.22C156.184 8.22 155.724 8.3 155.274 8.46C154.824 8.61 154.444 8.815 154.134 9.075L153.534 7.995C153.944 7.665 154.434 7.415 155.004 7.245C155.574 7.065 156.179 6.975 156.819 6.975ZM156.489 13.98C157.039 13.98 157.514 13.86 157.914 13.62C158.314 13.37 158.604 13.02 158.784 12.57V11.46H156.564C155.344 11.46 154.734 11.87 154.734 12.69C154.734 13.09 154.889 13.405 155.199 13.635C155.509 13.865 155.939 13.98 156.489 13.98ZM162.817 7.05H164.257V10.425H168.787V7.05H170.227V15H168.787V11.67H164.257V15H162.817V7.05ZM180.212 11.07C180.212 11.18 180.202 11.325 180.182 11.505H173.732C173.822 12.205 174.127 12.77 174.647 13.2C175.177 13.62 175.832 13.83 176.612 13.83C177.562 13.83 178.327 13.51 178.907 12.87L179.702 13.8C179.342 14.22 178.892 14.54 178.352 14.76C177.822 14.98 177.227 15.09 176.567 15.09C175.727 15.09 174.982 14.92 174.332 14.58C173.682 14.23 173.177 13.745 172.817 13.125C172.467 12.505 172.292 11.805 172.292 11.025C172.292 10.255 172.462 9.56 172.802 8.94C173.152 8.32 173.627 7.84 174.227 7.5C174.837 7.15 175.522 6.975 176.282 6.975C177.042 6.975 177.717 7.15 178.307 7.5C178.907 7.84 179.372 8.32 179.702 8.94C180.042 9.56 180.212 10.27 180.212 11.07ZM176.282 8.19C175.592 8.19 175.012 8.4 174.542 8.82C174.082 9.24 173.812 9.79 173.732 10.47H178.832C178.752 9.8 178.477 9.255 178.007 8.835C177.547 8.405 176.972 8.19 176.282 8.19ZM188.034 8.31H185.124V15H183.684V8.31H180.774V7.05H188.034V8.31ZM192.341 6.975C193.441 6.975 194.281 7.245 194.861 7.785C195.451 8.325 195.746 9.13 195.746 10.2V15H194.381V13.95C194.141 14.32 193.796 14.605 193.346 14.805C192.906 14.995 192.381 15.09 191.771 15.09C190.881 15.09 190.166 14.875 189.626 14.445C189.096 14.015 188.831 13.45 188.831 12.75C188.831 12.05 189.086 11.49 189.596 11.07C190.106 10.64 190.916 10.425 192.026 10.425H194.306V10.14C194.306 9.52 194.126 9.045 193.766 8.715C193.406 8.385 192.876 8.22 192.176 8.22C191.706 8.22 191.246 8.3 190.796 8.46C190.346 8.61 189.966 8.815 189.656 9.075L189.056 7.995C189.466 7.665 189.956 7.415 190.526 7.245C191.096 7.065 191.701 6.975 192.341 6.975ZM192.011 13.98C192.561 13.98 193.036 13.86 193.436 13.62C193.836 13.37 194.126 13.02 194.306 12.57V11.46H192.086C190.866 11.46 190.256 11.87 190.256 12.69C190.256 13.09 190.411 13.405 190.721 13.635C191.031 13.865 191.461 13.98 192.011 13.98ZM207.243 15.12C206.193 15.12 205.243 14.89 204.393 14.43C203.553 13.96 202.893 13.32 202.413 12.51C201.933 11.69 201.693 10.77 201.693 9.75C201.693 8.73 201.933 7.815 202.413 7.005C202.893 6.185 203.558 5.545 204.408 5.085C205.258 4.615 206.208 4.38 207.258 4.38C208.078 4.38 208.828 4.52 209.508 4.8C210.188 5.07 210.768 5.475 211.248 6.015L210.273 6.96C209.483 6.13 208.498 5.715 207.318 5.715C206.538 5.715 205.833 5.89 205.203 6.24C204.573 6.59 204.078 7.075 203.718 7.695C203.368 8.305 203.193 8.99 203.193 9.75C203.193 10.51 203.368 11.2 203.718 11.82C204.078 12.43 204.573 12.91 205.203 13.26C205.833 13.61 206.538 13.785 207.318 13.785C208.488 13.785 209.473 13.365 210.273 12.525L211.248 13.47C210.768 14.01 210.183 14.42 209.493 14.7C208.813 14.98 208.063 15.12 207.243 15.12ZM217.908 15.12C216.848 15.12 215.893 14.89 215.043 14.43C214.193 13.96 213.523 13.315 213.033 12.495C212.553 11.675 212.313 10.76 212.313 9.75C212.313 8.74 212.553 7.825 213.033 7.005C213.523 6.185 214.193 5.545 215.043 5.085C215.893 4.615 216.848 4.38 217.908 4.38C218.958 4.38 219.908 4.615 220.758 5.085C221.608 5.545 222.273 6.185 222.753 7.005C223.233 7.815 223.473 8.73 223.473 9.75C223.473 10.77 223.233 11.69 222.753 12.51C222.273 13.32 221.608 13.96 220.758 14.43C219.908 14.89 218.958 15.12 217.908 15.12ZM217.908 13.785C218.678 13.785 219.368 13.61 219.978 13.26C220.598 12.91 221.083 12.43 221.433 11.82C221.793 11.2 221.973 10.51 221.973 9.75C221.973 8.99 221.793 8.305 221.433 7.695C221.083 7.075 220.598 6.59 219.978 6.24C219.368 5.89 218.678 5.715 217.908 5.715C217.138 5.715 216.438 5.89 215.808 6.24C215.188 6.59 214.698 7.075 214.338 7.695C213.988 8.305 213.813 8.99 213.813 9.75C213.813 10.51 213.988 11.2 214.338 11.82C214.698 12.43 215.188 12.91 215.808 13.26C216.438 13.61 217.138 13.785 217.908 13.785ZM225.148 10.26H229.183V11.505H225.148V10.26ZM239.993 12.42H237.998V15H236.543V12.42H230.708V11.37L236.078 4.5H237.698L232.553 11.13H236.588V8.85H237.998V11.13H239.993V12.42Z" fill="white"/>
<path d="M175.074 223.707C122.456 217.713 84.7862 171.14 90.9119 119.702C97.0375 68.2645 144.643 31.4051 197.261 37.3992C249.88 43.3933 287.549 89.967 281.424 141.405C275.298 192.842 227.693 229.702 175.074 223.707Z" fill="url(#paint0_radial)" fill-opacity="0.31" stroke="white"/>
<path d="M373.318 221.896C373.318 241.859 356.768 258.062 336.329 258.062C315.89 258.062 299.34 241.859 299.34 221.896C299.34 201.932 315.89 185.73 336.329 185.73C356.768 185.73 373.318 201.932 373.318 221.896Z" fill="#4F9FC2" stroke="white"/>
<path d="M373.318 37.5184C373.318 57.4819 356.768 73.6843 336.329 73.6843C315.89 73.6843 299.34 57.4819 299.34 37.5184C299.34 17.555 315.89 1.35254 336.329 1.35254C356.768 1.35254 373.318 17.555 373.318 37.5184Z" fill="#F06683" stroke="white"/>
<path d="M74.4778 37.5184C74.4778 57.4819 57.9278 73.6843 37.4889 73.6843C17.05 73.6843 0.5 57.4819 0.5 37.5184C0.5 17.555 17.05 1.35254 37.4889 1.35254C57.9278 1.35254 74.4778 17.555 74.4778 37.5184Z" fill="#6AA0A0" stroke="white"/>
<path d="M74.4778 221.896C74.4778 241.859 57.9278 258.062 37.4889 258.062C17.05 258.062 0.5 241.859 0.5 221.896C0.5 201.932 17.05 185.73 37.4889 185.73C57.9278 185.73 74.4778 201.932 74.4778 221.896Z" fill="#176175" stroke="white"/>
<path d="M14.2696 38.91C13.6996 37.99 13.2596 36.935 12.9496 35.745C12.6396 34.545 12.4846 33.26 12.4846 31.89C12.4846 30.52 12.6396 29.235 12.9496 28.035C13.2596 26.825 13.6996 25.77 14.2696 24.87H15.6346C15.0346 25.92 14.5946 27.02 14.3146 28.17C14.0346 29.32 13.8946 30.56 13.8946 31.89C13.8946 33.22 14.0346 34.46 14.3146 35.61C14.5946 36.76 15.0346 37.86 15.6346 38.91H14.2696ZM26.7183 25.5V36H25.2183V31.32H19.1883V36H17.6883V25.5H19.1883V30.015H25.2183V25.5H26.7183ZM36.8361 32.07C36.8361 32.18 36.8261 32.325 36.8061 32.505H30.3561C30.4461 33.205 30.7511 33.77 31.2711 34.2C31.8011 34.62 32.4561 34.83 33.2361 34.83C34.1861 34.83 34.9511 34.51 35.5311 33.87L36.3261 34.8C35.9661 35.22 35.5161 35.54 34.9761 35.76C34.4461 35.98 33.8511 36.09 33.1911 36.09C32.3511 36.09 31.6061 35.92 30.9561 35.58C30.3061 35.23 29.8011 34.745 29.4411 34.125C29.0911 33.505 28.9161 32.805 28.9161 32.025C28.9161 31.255 29.0861 30.56 29.4261 29.94C29.7761 29.32 30.2511 28.84 30.8511 28.5C31.4611 28.15 32.1461 27.975 32.9061 27.975C33.6661 27.975 34.3411 28.15 34.9311 28.5C35.5311 28.84 35.9961 29.32 36.3261 29.94C36.6661 30.56 36.8361 31.27 36.8361 32.07ZM32.9061 29.19C32.2161 29.19 31.6361 29.4 31.1661 29.82C30.7061 30.24 30.4361 30.79 30.3561 31.47H35.4561C35.3761 30.8 35.1011 30.255 34.6311 29.835C34.1711 29.405 33.5961 29.19 32.9061 29.19ZM37.9507 38.91C38.5507 37.86 38.9907 36.76 39.2707 35.61C39.5607 34.46 39.7057 33.22 39.7057 31.89C39.7057 30.56 39.5607 29.32 39.2707 28.17C38.9907 27.02 38.5507 25.92 37.9507 24.87H39.3157C39.8957 25.77 40.3407 26.82 40.6507 28.02C40.9607 29.22 41.1157 30.51 41.1157 31.89C41.1157 33.26 40.9607 34.545 40.6507 35.745C40.3407 36.945 39.8957 38 39.3157 38.91H37.9507ZM50.6391 34.695V36H43.0941V34.98L47.3691 30.855C47.8891 30.355 48.2391 29.925 48.4191 29.565C48.5991 29.195 48.6891 28.825 48.6891 28.455C48.6891 27.905 48.4941 27.48 48.1041 27.18C47.7241 26.87 47.1741 26.715 46.4541 26.715C45.2941 26.715 44.3991 27.095 43.7691 27.855L42.7491 26.97C43.1591 26.47 43.6941 26.08 44.3541 25.8C45.0241 25.52 45.7691 25.38 46.5891 25.38C47.6891 25.38 48.5641 25.645 49.2141 26.175C49.8641 26.695 50.1891 27.405 50.1891 28.305C50.1891 28.865 50.0691 29.395 49.8291 29.895C49.5891 30.395 49.1341 30.965 48.4641 31.605L45.2541 34.695H50.6391ZM54.2988 31.14C53.5688 31.14 52.9788 30.875 52.5288 30.345C52.0788 29.815 51.8538 29.125 51.8538 28.275C51.8538 27.425 52.0788 26.735 52.5288 26.205C52.9788 25.675 53.5688 25.41 54.2988 25.41C55.0288 25.41 55.6138 25.675 56.0538 26.205C56.5038 26.725 56.7288 27.415 56.7288 28.275C56.7288 29.135 56.5038 29.83 56.0538 30.36C55.6138 30.88 55.0288 31.14 54.2988 31.14ZM60.6288 25.5H61.7838L54.6138 36H53.4588L60.6288 25.5ZM54.2988 30.285C54.7588 30.285 55.1188 30.11 55.3788 29.76C55.6388 29.4 55.7688 28.905 55.7688 28.275C55.7688 27.645 55.6388 27.155 55.3788 26.805C55.1188 26.445 54.7588 26.265 54.2988 26.265C53.8488 26.265 53.4888 26.445 53.2188 26.805C52.9588 27.165 52.8288 27.655 52.8288 28.275C52.8288 28.895 52.9588 29.385 53.2188 29.745C53.4888 30.105 53.8488 30.285 54.2988 30.285ZM60.9438 36.09C60.2138 36.09 59.6238 35.83 59.1738 35.31C58.7338 34.78 58.5138 34.085 58.5138 33.225C58.5138 32.365 58.7338 31.675 59.1738 31.155C59.6238 30.625 60.2138 30.36 60.9438 30.36C61.6738 30.36 62.2638 30.625 62.7138 31.155C63.1638 31.685 63.3888 32.375 63.3888 33.225C63.3888 34.075 63.1638 34.765 62.7138 35.295C62.2638 35.825 61.6738 36.09 60.9438 36.09ZM60.9438 35.235C61.3938 35.235 61.7488 35.055 62.0088 34.695C62.2788 34.335 62.4138 33.845 62.4138 33.225C62.4138 32.605 62.2788 32.115 62.0088 31.755C61.7488 31.395 61.3938 31.215 60.9438 31.215C60.4838 31.215 60.1238 31.395 59.8638 31.755C59.6038 32.105 59.4738 32.595 59.4738 33.225C59.4738 33.855 59.6038 34.35 59.8638 34.71C60.1238 35.06 60.4838 35.235 60.9438 35.235ZM25.8378 43.907H22.5268V49H21.7458V43.214H25.8378V43.907ZM31.7579 46.349H26.9179C26.9619 46.9503 27.1929 47.438 27.6109 47.812C28.0289 48.1787 28.5569 48.362 29.1949 48.362C29.5542 48.362 29.8842 48.2997 30.1849 48.175C30.4856 48.043 30.7459 47.8523 30.9659 47.603L31.4059 48.109C31.1492 48.417 30.8266 48.6517 30.4379 48.813C30.0566 48.9743 29.6349 49.055 29.1729 49.055C28.5789 49.055 28.0509 48.9303 27.5889 48.681C27.1342 48.4243 26.7786 48.0723 26.5219 47.625C26.2652 47.1777 26.1369 46.6717 26.1369 46.107C26.1369 45.5423 26.2579 45.0363 26.4999 44.589C26.7492 44.1417 27.0866 43.7933 27.5119 43.544C27.9446 43.2947 28.4286 43.17 28.9639 43.17C29.4992 43.17 29.9796 43.2947 30.4049 43.544C30.8302 43.7933 31.1639 44.1417 31.4059 44.589C31.6479 45.029 31.7689 45.535 31.7689 46.107L31.7579 46.349ZM28.9639 43.841C28.4066 43.841 27.9372 44.0207 27.5559 44.38C27.1819 44.732 26.9692 45.194 26.9179 45.766H31.0209C30.9696 45.194 30.7532 44.732 30.3719 44.38C29.9979 44.0207 29.5286 43.841 28.9639 43.841ZM29.7606 40.959H30.8056L29.0236 42.323H28.2536L29.7606 40.959ZM38.1096 43.214V49H37.3286V43.907H34.5566L34.4796 45.337C34.4209 46.5397 34.2816 47.4637 34.0616 48.109C33.8416 48.7543 33.4492 49.077 32.8846 49.077C32.7306 49.077 32.5436 49.0477 32.3236 48.989L32.3786 48.318C32.5106 48.3473 32.6022 48.362 32.6536 48.362C32.9542 48.362 33.1816 48.2227 33.3356 47.944C33.4896 47.6653 33.5922 47.3207 33.6436 46.91C33.6949 46.4993 33.7389 45.9567 33.7756 45.282L33.8746 43.214H38.1096ZM40.3298 43.214H41.1108V47.812L44.9718 43.214H45.6648V49H44.8838V44.402L41.0338 49H40.3298V43.214ZM47.903 43.214H48.684V47.812L52.545 43.214H53.238V49H52.457V44.402L48.607 49H47.903V43.214ZM50.532 42.378C50.0333 42.378 49.6373 42.2533 49.344 42.004C49.0507 41.7547 48.9003 41.4027 48.893 40.948H49.454C49.4613 41.234 49.564 41.465 49.762 41.641C49.96 41.8097 50.2167 41.894 50.532 41.894C50.8473 41.894 51.104 41.8097 51.302 41.641C51.5073 41.465 51.6137 41.234 51.621 40.948H52.182C52.1747 41.4027 52.0207 41.7547 51.72 42.004C51.4267 42.2533 51.0307 42.378 50.532 42.378Z" fill="white"/>
<path d="M312.859 224.91C312.289 223.99 311.849 222.935 311.539 221.745C311.229 220.545 311.074 219.26 311.074 217.89C311.074 216.52 311.229 215.235 311.539 214.035C311.849 212.825 312.289 211.77 312.859 210.87H314.224C313.624 211.92 313.184 213.02 312.904 214.17C312.624 215.32 312.484 216.56 312.484 217.89C312.484 219.22 312.624 220.46 312.904 221.61C313.184 222.76 313.624 223.86 314.224 224.91H312.859ZM325.308 211.5V222H324.078L317.778 214.17V222H316.278V211.5H317.508L323.808 219.33V211.5H325.308ZM335.426 218.07C335.426 218.18 335.416 218.325 335.396 218.505H328.946C329.036 219.205 329.341 219.77 329.861 220.2C330.391 220.62 331.046 220.83 331.826 220.83C332.776 220.83 333.541 220.51 334.121 219.87L334.916 220.8C334.556 221.22 334.106 221.54 333.566 221.76C333.036 221.98 332.441 222.09 331.781 222.09C330.941 222.09 330.196 221.92 329.546 221.58C328.896 221.23 328.391 220.745 328.031 220.125C327.681 219.505 327.506 218.805 327.506 218.025C327.506 217.255 327.676 216.56 328.016 215.94C328.366 215.32 328.841 214.84 329.441 214.5C330.051 214.15 330.736 213.975 331.496 213.975C332.256 213.975 332.931 214.15 333.521 214.5C334.121 214.84 334.586 215.32 334.916 215.94C335.256 216.56 335.426 217.27 335.426 218.07ZM331.496 215.19C330.806 215.19 330.226 215.4 329.756 215.82C329.296 216.24 329.026 216.79 328.946 217.47H334.046C333.966 216.8 333.691 216.255 333.221 215.835C332.761 215.405 332.186 215.19 331.496 215.19ZM336.541 224.91C337.141 223.86 337.581 222.76 337.861 221.61C338.151 220.46 338.296 219.22 338.296 217.89C338.296 216.56 338.151 215.32 337.861 214.17C337.581 213.02 337.141 211.92 336.541 210.87H337.906C338.486 211.77 338.931 212.82 339.241 214.02C339.551 215.22 339.706 216.51 339.706 217.89C339.706 219.26 339.551 220.545 339.241 221.745C338.931 222.945 338.486 224 337.906 224.91H336.541ZM350.984 219.42H348.989V222H347.534V219.42H341.699V218.37L347.069 211.5H348.689L343.544 218.13H347.579V215.85H348.989V218.13H350.984V219.42ZM353.709 217.14C352.979 217.14 352.389 216.875 351.939 216.345C351.489 215.815 351.264 215.125 351.264 214.275C351.264 213.425 351.489 212.735 351.939 212.205C352.389 211.675 352.979 211.41 353.709 211.41C354.439 211.41 355.024 211.675 355.464 212.205C355.914 212.725 356.139 213.415 356.139 214.275C356.139 215.135 355.914 215.83 355.464 216.36C355.024 216.88 354.439 217.14 353.709 217.14ZM360.039 211.5H361.194L354.024 222H352.869L360.039 211.5ZM353.709 216.285C354.169 216.285 354.529 216.11 354.789 215.76C355.049 215.4 355.179 214.905 355.179 214.275C355.179 213.645 355.049 213.155 354.789 212.805C354.529 212.445 354.169 212.265 353.709 212.265C353.259 212.265 352.899 212.445 352.629 212.805C352.369 213.165 352.239 213.655 352.239 214.275C352.239 214.895 352.369 215.385 352.629 215.745C352.899 216.105 353.259 216.285 353.709 216.285ZM360.354 222.09C359.624 222.09 359.034 221.83 358.584 221.31C358.144 220.78 357.924 220.085 357.924 219.225C357.924 218.365 358.144 217.675 358.584 217.155C359.034 216.625 359.624 216.36 360.354 216.36C361.084 216.36 361.674 216.625 362.124 217.155C362.574 217.685 362.799 218.375 362.799 219.225C362.799 220.075 362.574 220.765 362.124 221.295C361.674 221.825 361.084 222.09 360.354 222.09ZM360.354 221.235C360.804 221.235 361.159 221.055 361.419 220.695C361.689 220.335 361.824 219.845 361.824 219.225C361.824 218.605 361.689 218.115 361.419 217.755C361.159 217.395 360.804 217.215 360.354 217.215C359.894 217.215 359.534 217.395 359.274 217.755C359.014 218.105 358.884 218.595 358.884 219.225C358.884 219.855 359.014 220.35 359.274 220.71C359.534 221.06 359.894 221.235 360.354 221.235ZM323.292 229.214H324.073V231.777H327.714V229.214H328.495V235H327.714V232.448H324.073V235H323.292V229.214ZM335.775 232.349H330.935C330.979 232.95 331.21 233.438 331.628 233.812C332.046 234.179 332.574 234.362 333.212 234.362C333.571 234.362 333.901 234.3 334.202 234.175C334.502 234.043 334.763 233.852 334.983 233.603L335.423 234.109C335.166 234.417 334.843 234.652 334.455 234.813C334.073 234.974 333.652 235.055 333.19 235.055C332.596 235.055 332.068 234.93 331.606 234.681C331.151 234.424 330.795 234.072 330.539 233.625C330.282 233.178 330.154 232.672 330.154 232.107C330.154 231.542 330.275 231.036 330.517 230.589C330.766 230.142 331.103 229.793 331.529 229.544C331.961 229.295 332.445 229.17 332.981 229.17C333.516 229.17 333.996 229.295 334.422 229.544C334.847 229.793 335.181 230.142 335.423 230.589C335.665 231.029 335.786 231.535 335.786 232.107L335.775 232.349ZM332.981 229.841C332.423 229.841 331.954 230.021 331.573 230.38C331.199 230.732 330.986 231.194 330.935 231.766H335.038C334.986 231.194 334.77 230.732 334.389 230.38C334.015 230.021 333.545 229.841 332.981 229.841ZM339.901 235.055C339.344 235.055 338.842 234.93 338.394 234.681C337.947 234.424 337.595 234.072 337.338 233.625C337.082 233.178 336.953 232.672 336.953 232.107C336.953 231.542 337.082 231.036 337.338 230.589C337.595 230.142 337.947 229.793 338.394 229.544C338.842 229.295 339.344 229.17 339.901 229.17C340.459 229.17 340.961 229.295 341.408 229.544C341.856 229.793 342.204 230.142 342.453 230.589C342.71 231.036 342.838 231.542 342.838 232.107C342.838 232.672 342.71 233.178 342.453 233.625C342.204 234.072 341.856 234.424 341.408 234.681C340.961 234.93 340.459 235.055 339.901 235.055ZM339.901 234.362C340.312 234.362 340.679 234.27 341.001 234.087C341.331 233.896 341.588 233.629 341.771 233.284C341.955 232.939 342.046 232.547 342.046 232.107C342.046 231.667 341.955 231.275 341.771 230.93C341.588 230.585 341.331 230.321 341.001 230.138C340.679 229.947 340.312 229.852 339.901 229.852C339.491 229.852 339.12 229.947 338.79 230.138C338.468 230.321 338.211 230.585 338.02 230.93C337.837 231.275 337.745 231.667 337.745 232.107C337.745 232.547 337.837 232.939 338.02 233.284C338.211 233.629 338.468 233.896 338.79 234.087C339.12 234.27 339.491 234.362 339.901 234.362ZM340.684 226.959H341.729L339.947 228.323H339.177L340.684 226.959ZM344.507 229.214H345.288V231.777H348.929V229.214H349.71V235H348.929V232.448H345.288V235H344.507V229.214Z" fill="white"/>
<path d="M314.597 37.91C314.027 36.99 313.587 35.935 313.277 34.745C312.967 33.545 312.812 32.26 312.812 30.89C312.812 29.52 312.967 28.235 313.277 27.035C313.587 25.825 314.027 24.77 314.597 23.87H315.962C315.362 24.92 314.922 26.02 314.642 27.17C314.362 28.32 314.222 29.56 314.222 30.89C314.222 32.22 314.362 33.46 314.642 34.61C314.922 35.76 315.362 36.86 315.962 37.91H314.597ZM322.711 35.12C321.661 35.12 320.711 34.89 319.861 34.43C319.021 33.96 318.361 33.32 317.881 32.51C317.401 31.69 317.161 30.77 317.161 29.75C317.161 28.73 317.401 27.815 317.881 27.005C318.361 26.185 319.026 25.545 319.876 25.085C320.726 24.615 321.676 24.38 322.726 24.38C323.546 24.38 324.296 24.52 324.976 24.8C325.656 25.07 326.236 25.475 326.716 26.015L325.741 26.96C324.951 26.13 323.966 25.715 322.786 25.715C322.006 25.715 321.301 25.89 320.671 26.24C320.041 26.59 319.546 27.075 319.186 27.695C318.836 28.305 318.661 28.99 318.661 29.75C318.661 30.51 318.836 31.2 319.186 31.82C319.546 32.43 320.041 32.91 320.671 33.26C321.301 33.61 322.006 33.785 322.786 33.785C323.956 33.785 324.941 33.365 325.741 32.525L326.716 33.47C326.236 34.01 325.651 34.42 324.961 34.7C324.281 34.98 323.531 35.12 322.711 35.12ZM331.714 35.09C330.924 35.09 330.214 34.915 329.584 34.565C328.954 34.215 328.459 33.735 328.099 33.125C327.749 32.505 327.574 31.805 327.574 31.025C327.574 30.245 327.749 29.55 328.099 28.94C328.459 28.32 328.954 27.84 329.584 27.5C330.214 27.15 330.924 26.975 331.714 26.975C332.504 26.975 333.209 27.15 333.829 27.5C334.459 27.84 334.949 28.32 335.299 28.94C335.659 29.55 335.839 30.245 335.839 31.025C335.839 31.805 335.659 32.505 335.299 33.125C334.949 33.735 334.459 34.215 333.829 34.565C333.209 34.915 332.504 35.09 331.714 35.09ZM331.714 33.83C332.224 33.83 332.679 33.715 333.079 33.485C333.489 33.245 333.809 32.915 334.039 32.495C334.269 32.065 334.384 31.575 334.384 31.025C334.384 30.475 334.269 29.99 334.039 29.57C333.809 29.14 333.489 28.81 333.079 28.58C332.679 28.35 332.224 28.235 331.714 28.235C331.204 28.235 330.744 28.35 330.334 28.58C329.934 28.81 329.614 29.14 329.374 29.57C329.144 29.99 329.029 30.475 329.029 31.025C329.029 31.575 329.144 32.065 329.374 32.495C329.614 32.915 329.934 33.245 330.334 33.485C330.744 33.715 331.204 33.83 331.714 33.83ZM336.945 37.91C337.545 36.86 337.985 35.76 338.265 34.61C338.555 33.46 338.7 32.22 338.7 30.89C338.7 29.56 338.555 28.32 338.265 27.17C337.985 26.02 337.545 24.92 336.945 23.87H338.31C338.89 24.77 339.335 25.82 339.645 27.02C339.955 28.22 340.11 29.51 340.11 30.89C340.11 32.26 339.955 33.545 339.645 34.745C339.335 35.945 338.89 37 338.31 37.91H336.945ZM346.274 28.91C347.304 29.01 348.089 29.33 348.629 29.87C349.169 30.4 349.439 31.08 349.439 31.91C349.439 32.51 349.289 33.055 348.989 33.545C348.689 34.025 348.239 34.41 347.639 34.7C347.049 34.98 346.324 35.12 345.464 35.12C344.714 35.12 343.994 35.01 343.304 34.79C342.614 34.56 342.049 34.245 341.609 33.845L342.299 32.66C342.659 33 343.119 33.275 343.679 33.485C344.239 33.685 344.834 33.785 345.464 33.785C346.244 33.785 346.849 33.62 347.279 33.29C347.719 32.96 347.939 32.505 347.939 31.925C347.939 31.345 347.724 30.895 347.294 30.575C346.864 30.255 346.214 30.095 345.344 30.095H344.504V29.045L347.144 25.805H342.089V24.5H349.019V25.52L346.274 28.91ZM352.971 30.14C352.241 30.14 351.651 29.875 351.201 29.345C350.751 28.815 350.526 28.125 350.526 27.275C350.526 26.425 350.751 25.735 351.201 25.205C351.651 24.675 352.241 24.41 352.971 24.41C353.701 24.41 354.286 24.675 354.726 25.205C355.176 25.725 355.401 26.415 355.401 27.275C355.401 28.135 355.176 28.83 354.726 29.36C354.286 29.88 353.701 30.14 352.971 30.14ZM359.301 24.5H360.456L353.286 35H352.131L359.301 24.5ZM352.971 29.285C353.431 29.285 353.791 29.11 354.051 28.76C354.311 28.4 354.441 27.905 354.441 27.275C354.441 26.645 354.311 26.155 354.051 25.805C353.791 25.445 353.431 25.265 352.971 25.265C352.521 25.265 352.161 25.445 351.891 25.805C351.631 26.165 351.501 26.655 351.501 27.275C351.501 27.895 351.631 28.385 351.891 28.745C352.161 29.105 352.521 29.285 352.971 29.285ZM359.616 35.09C358.886 35.09 358.296 34.83 357.846 34.31C357.406 33.78 357.186 33.085 357.186 32.225C357.186 31.365 357.406 30.675 357.846 30.155C358.296 29.625 358.886 29.36 359.616 29.36C360.346 29.36 360.936 29.625 361.386 30.155C361.836 30.685 362.061 31.375 362.061 32.225C362.061 33.075 361.836 33.765 361.386 34.295C360.936 34.825 360.346 35.09 359.616 35.09ZM359.616 34.235C360.066 34.235 360.421 34.055 360.681 33.695C360.951 33.335 361.086 32.845 361.086 32.225C361.086 31.605 360.951 31.115 360.681 30.755C360.421 30.395 360.066 30.215 359.616 30.215C359.156 30.215 358.796 30.395 358.536 30.755C358.276 31.105 358.146 31.595 358.146 32.225C358.146 32.855 358.276 33.35 358.536 33.71C358.796 34.06 359.156 34.235 359.616 34.235ZM317.922 45.426H316.602V48H315.821V42.214H316.602V44.755H317.933L319.968 42.214H320.815L318.538 45.019L320.98 48H320.056L317.922 45.426ZM324.395 48.055C323.838 48.055 323.336 47.9303 322.888 47.681C322.441 47.4243 322.089 47.0723 321.832 46.625C321.576 46.1777 321.447 45.6717 321.447 45.107C321.447 44.5423 321.576 44.0363 321.832 43.589C322.089 43.1417 322.441 42.7933 322.888 42.544C323.336 42.2947 323.838 42.17 324.395 42.17C324.953 42.17 325.455 42.2947 325.902 42.544C326.35 42.7933 326.698 43.1417 326.947 43.589C327.204 44.0363 327.332 44.5423 327.332 45.107C327.332 45.6717 327.204 46.1777 326.947 46.625C326.698 47.0723 326.35 47.4243 325.902 47.681C325.455 47.9303 324.953 48.055 324.395 48.055ZM324.395 47.362C324.806 47.362 325.173 47.2703 325.495 47.087C325.825 46.8963 326.082 46.6287 326.265 46.284C326.449 45.9393 326.54 45.547 326.54 45.107C326.54 44.667 326.449 44.2747 326.265 43.93C326.082 43.5853 325.825 43.3213 325.495 43.138C325.173 42.9473 324.806 42.852 324.395 42.852C323.985 42.852 323.614 42.9473 323.284 43.138C322.962 43.3213 322.705 43.5853 322.514 43.93C322.331 44.2747 322.239 44.667 322.239 45.107C322.239 45.547 322.331 45.9393 322.514 46.284C322.705 46.6287 322.962 46.8963 323.284 47.087C323.614 47.2703 323.985 47.362 324.395 47.362ZM325.179 39.959H326.224L324.442 41.323H323.672L325.179 39.959ZM331.807 42.357C332.342 42.357 332.819 42.478 333.237 42.72C333.662 42.9547 333.992 43.2883 334.227 43.721C334.461 44.1463 334.579 44.634 334.579 45.184C334.579 45.7487 334.454 46.251 334.205 46.691C333.963 47.1237 333.622 47.461 333.182 47.703C332.742 47.945 332.236 48.066 331.664 48.066C330.703 48.066 329.959 47.7287 329.431 47.054C328.903 46.3793 328.639 45.448 328.639 44.26C328.639 43.0207 328.873 42.071 329.343 41.411C329.819 40.751 330.56 40.3037 331.565 40.069L334.161 39.475L334.293 40.19L331.851 40.751C331.022 40.9343 330.413 41.2607 330.025 41.73C329.636 42.192 329.423 42.8777 329.387 43.787C329.621 43.3397 329.948 42.9913 330.366 42.742C330.784 42.4853 331.264 42.357 331.807 42.357ZM331.686 47.417C332.089 47.417 332.448 47.3253 332.764 47.142C333.086 46.9513 333.336 46.6873 333.512 46.35C333.695 46.0127 333.787 45.6313 333.787 45.206C333.787 44.7807 333.699 44.4067 333.523 44.084C333.347 43.7613 333.097 43.512 332.775 43.336C332.459 43.1527 332.096 43.061 331.686 43.061C331.275 43.061 330.908 43.1527 330.586 43.336C330.27 43.512 330.021 43.7613 329.838 44.084C329.662 44.4067 329.574 44.7807 329.574 45.206C329.574 45.6313 329.662 46.0127 329.838 46.35C330.021 46.6873 330.274 46.9513 330.597 47.142C330.919 47.3253 331.282 47.417 331.686 47.417ZM338.211 42.17C338.967 42.17 339.546 42.3607 339.949 42.742C340.353 43.116 340.554 43.6733 340.554 44.414V48H339.806V47.098C339.63 47.3987 339.37 47.6333 339.025 47.802C338.688 47.9707 338.285 48.055 337.815 48.055C337.17 48.055 336.657 47.901 336.275 47.593C335.894 47.285 335.703 46.878 335.703 46.372C335.703 45.8807 335.879 45.4847 336.231 45.184C336.591 44.8833 337.159 44.733 337.936 44.733H339.773V44.381C339.773 43.8823 339.634 43.5047 339.355 43.248C339.077 42.984 338.67 42.852 338.134 42.852C337.768 42.852 337.416 42.9143 337.078 43.039C336.741 43.1563 336.451 43.3213 336.209 43.534L335.857 42.951C336.151 42.7017 336.503 42.511 336.913 42.379C337.324 42.2397 337.757 42.17 338.211 42.17ZM337.936 47.439C338.376 47.439 338.754 47.34 339.069 47.142C339.385 46.9367 339.619 46.6433 339.773 46.262V45.316H337.958C336.968 45.316 336.473 45.6607 336.473 46.35C336.473 46.6873 336.602 46.955 336.858 47.153C337.115 47.3437 337.474 47.439 337.936 47.439ZM347.363 42.214V48H346.582V42.907H343.81L343.733 44.337C343.675 45.5397 343.535 46.4637 343.315 47.109C343.095 47.7543 342.703 48.077 342.138 48.077C341.984 48.077 341.797 48.0477 341.577 47.989L341.632 47.318C341.764 47.3473 341.856 47.362 341.907 47.362C342.208 47.362 342.435 47.2227 342.589 46.944C342.743 46.6653 342.846 46.3207 342.897 45.91C342.949 45.4993 342.993 44.9567 343.029 44.282L343.128 42.214H347.363ZM352.07 44.26C352.796 44.2673 353.346 44.4287 353.72 44.744C354.101 45.0593 354.292 45.514 354.292 46.108C354.292 46.724 354.086 47.197 353.676 47.527C353.272 47.857 352.686 48.0183 351.916 48.011L349.584 48V42.214H350.365V44.238L352.07 44.26ZM351.872 47.417C352.407 47.4243 352.81 47.318 353.082 47.098C353.36 46.8707 353.5 46.5407 353.5 46.108C353.5 45.6827 353.364 45.3673 353.093 45.162C352.821 44.9567 352.414 44.8503 351.872 44.843L350.365 44.821V47.395L351.872 47.417ZM359.272 42.907H357.083V48H356.302V42.907H354.113V42.214H359.272V42.907Z" fill="white"/>
<path d="M12.5337 223.91C11.9637 222.99 11.5237 221.935 11.2137 220.745C10.9037 219.545 10.7487 218.26 10.7487 216.89C10.7487 215.52 10.9037 214.235 11.2137 213.035C11.5237 211.825 11.9637 210.77 12.5337 209.87H13.8987C13.2987 210.92 12.8587 212.02 12.5787 213.17C12.2987 214.32 12.1587 215.56 12.1587 216.89C12.1587 218.22 12.2987 219.46 12.5787 220.61C12.8587 221.76 13.2987 222.86 13.8987 223.91H12.5337ZM22.5524 221L19.4024 216.665L16.2974 221H14.5724L18.5174 215.615L14.8124 210.5H16.5224L19.4624 214.535L22.3724 210.5H24.0074L20.3024 215.57L24.2774 221H22.5524ZM32.5661 217.07C32.5661 217.18 32.5561 217.325 32.5361 217.505H26.0861C26.1761 218.205 26.4811 218.77 27.0011 219.2C27.5311 219.62 28.1861 219.83 28.9661 219.83C29.9161 219.83 30.6811 219.51 31.2611 218.87L32.0561 219.8C31.6961 220.22 31.2461 220.54 30.7061 220.76C30.1761 220.98 29.5811 221.09 28.9211 221.09C28.0811 221.09 27.3361 220.92 26.6861 220.58C26.0361 220.23 25.5311 219.745 25.1711 219.125C24.8211 218.505 24.6461 217.805 24.6461 217.025C24.6461 216.255 24.8161 215.56 25.1561 214.94C25.5061 214.32 25.9811 213.84 26.5811 213.5C27.1911 213.15 27.8761 212.975 28.6361 212.975C29.3961 212.975 30.0711 213.15 30.6611 213.5C31.2611 213.84 31.7261 214.32 32.0561 214.94C32.3961 215.56 32.5661 216.27 32.5661 217.07ZM28.6361 214.19C27.9461 214.19 27.3661 214.4 26.8961 214.82C26.4361 215.24 26.1661 215.79 26.0861 216.47H31.1861C31.1061 215.8 30.8311 215.255 30.3611 214.835C29.9011 214.405 29.3261 214.19 28.6361 214.19ZM33.6807 223.91C34.2807 222.86 34.7207 221.76 35.0007 220.61C35.2907 219.46 35.4357 218.22 35.4357 216.89C35.4357 215.56 35.2907 214.32 35.0007 213.17C34.7207 212.02 34.2807 210.92 33.6807 209.87H35.0457C35.6257 210.77 36.0707 211.82 36.3807 213.02C36.6907 214.22 36.8457 215.51 36.8457 216.89C36.8457 218.26 36.6907 219.545 36.3807 220.745C36.0707 221.945 35.6257 223 35.0457 223.91H33.6807ZM42.394 210.38C43.804 210.38 44.889 210.835 45.649 211.745C46.419 212.655 46.804 213.945 46.804 215.615C46.804 216.785 46.594 217.785 46.174 218.615C45.764 219.435 45.184 220.06 44.434 220.49C43.694 220.91 42.829 221.12 41.839 221.12C41.329 221.12 40.849 221.07 40.399 220.97C39.949 220.86 39.559 220.705 39.229 220.505L39.799 219.335C40.309 219.665 40.984 219.83 41.824 219.83C42.914 219.83 43.764 219.495 44.374 218.825C44.994 218.145 45.304 217.16 45.304 215.87V215.495C45.004 215.945 44.589 216.29 44.059 216.53C43.529 216.76 42.934 216.875 42.274 216.875C41.584 216.875 40.964 216.745 40.414 216.485C39.874 216.225 39.449 215.855 39.139 215.375C38.839 214.885 38.689 214.325 38.689 213.695C38.689 213.035 38.849 212.455 39.169 211.955C39.499 211.455 39.944 211.07 40.504 210.8C41.064 210.52 41.694 210.38 42.394 210.38ZM42.529 215.66C42.999 215.66 43.419 215.57 43.789 215.39C44.159 215.21 44.444 214.965 44.644 214.655C44.854 214.345 44.959 214 44.959 213.62C44.959 213.25 44.859 212.915 44.659 212.615C44.469 212.305 44.184 212.06 43.804 211.88C43.434 211.69 42.984 211.595 42.454 211.595C41.764 211.595 41.204 211.78 40.774 212.15C40.354 212.52 40.144 213.015 40.144 213.635C40.144 214.255 40.359 214.75 40.789 215.12C41.219 215.48 41.799 215.66 42.529 215.66ZM51.4579 210.5V221H49.9729V211.805H47.6029V210.5H51.4579ZM56.0347 216.14C55.3047 216.14 54.7147 215.875 54.2647 215.345C53.8147 214.815 53.5897 214.125 53.5897 213.275C53.5897 212.425 53.8147 211.735 54.2647 211.205C54.7147 210.675 55.3047 210.41 56.0347 210.41C56.7647 210.41 57.3497 210.675 57.7897 211.205C58.2397 211.725 58.4647 212.415 58.4647 213.275C58.4647 214.135 58.2397 214.83 57.7897 215.36C57.3497 215.88 56.7647 216.14 56.0347 216.14ZM62.3647 210.5H63.5197L56.3497 221H55.1947L62.3647 210.5ZM56.0347 215.285C56.4947 215.285 56.8547 215.11 57.1147 214.76C57.3747 214.4 57.5047 213.905 57.5047 213.275C57.5047 212.645 57.3747 212.155 57.1147 211.805C56.8547 211.445 56.4947 211.265 56.0347 211.265C55.5847 211.265 55.2247 211.445 54.9547 211.805C54.6947 212.165 54.5647 212.655 54.5647 213.275C54.5647 213.895 54.6947 214.385 54.9547 214.745C55.2247 215.105 55.5847 215.285 56.0347 215.285ZM62.6797 221.09C61.9497 221.09 61.3597 220.83 60.9097 220.31C60.4697 219.78 60.2497 219.085 60.2497 218.225C60.2497 217.365 60.4697 216.675 60.9097 216.155C61.3597 215.625 61.9497 215.36 62.6797 215.36C63.4097 215.36 63.9997 215.625 64.4497 216.155C64.8997 216.685 65.1247 217.375 65.1247 218.225C65.1247 219.075 64.8997 219.765 64.4497 220.295C63.9997 220.825 63.4097 221.09 62.6797 221.09ZM62.6797 220.235C63.1297 220.235 63.4847 220.055 63.7447 219.695C64.0147 219.335 64.1497 218.845 64.1497 218.225C64.1497 217.605 64.0147 217.115 63.7447 216.755C63.4847 216.395 63.1297 216.215 62.6797 216.215C62.2197 216.215 61.8597 216.395 61.5997 216.755C61.3397 217.105 61.2097 217.595 61.2097 218.225C61.2097 218.855 61.3397 219.35 61.5997 219.71C61.8597 220.06 62.2197 220.235 62.6797 220.235ZM28.5278 228.17C29.2831 228.17 29.8624 228.361 30.2658 228.742C30.6691 229.116 30.8708 229.673 30.8708 230.414V234H30.1228V233.098C29.9468 233.399 29.6864 233.633 29.3418 233.802C29.0044 233.971 28.6011 234.055 28.1318 234.055C27.4864 234.055 26.9731 233.901 26.5918 233.593C26.2104 233.285 26.0198 232.878 26.0198 232.372C26.0198 231.881 26.1958 231.485 26.5478 231.184C26.9071 230.883 27.4754 230.733 28.2528 230.733H30.0898V230.381C30.0898 229.882 29.9504 229.505 29.6718 229.248C29.3931 228.984 28.9861 228.852 28.4508 228.852C28.0841 228.852 27.7321 228.914 27.3948 229.039C27.0574 229.156 26.7678 229.321 26.5258 229.534L26.1738 228.951C26.4671 228.702 26.8191 228.511 27.2298 228.379C27.6404 228.24 28.0731 228.17 28.5278 228.17ZM28.2528 233.439C28.6928 233.439 29.0704 233.34 29.3858 233.142C29.7011 232.937 29.9358 232.643 30.0898 232.262V231.316H28.2748C27.2848 231.316 26.7898 231.661 26.7898 232.35C26.7898 232.687 26.9181 232.955 27.1748 233.153C27.4314 233.344 27.7908 233.439 28.2528 233.439ZM35.6477 230.986C36.0584 231.081 36.3737 231.246 36.5937 231.481C36.821 231.716 36.9347 232.002 36.9347 232.339C36.9347 232.676 36.8174 232.977 36.5827 233.241C36.3554 233.505 36.0437 233.71 35.6477 233.857C35.2517 233.996 34.8154 234.066 34.3387 234.066C33.9207 234.066 33.51 234.007 33.1067 233.89C32.7034 233.765 32.3514 233.586 32.0507 233.351L32.3147 232.768C32.5787 232.966 32.8867 233.12 33.2387 233.23C33.5907 233.34 33.9464 233.395 34.3057 233.395C34.841 233.395 35.2774 233.296 35.6147 233.098C35.9594 232.893 36.1317 232.618 36.1317 232.273C36.1317 231.965 35.9924 231.727 35.7137 231.558C35.435 231.382 35.0537 231.294 34.5697 231.294H33.5797V230.722H34.5257C34.9584 230.722 35.3067 230.641 35.5707 230.48C35.8347 230.311 35.9667 230.088 35.9667 229.809C35.9667 229.501 35.8164 229.259 35.5157 229.083C35.2224 228.907 34.8374 228.819 34.3607 228.819C33.7374 228.819 33.1214 228.977 32.5127 229.292L32.2927 228.687C32.982 228.328 33.697 228.148 34.4377 228.148C34.8777 228.148 35.2737 228.214 35.6257 228.346C35.985 228.471 36.2637 228.65 36.4617 228.885C36.667 229.12 36.7697 229.391 36.7697 229.699C36.7697 229.992 36.667 230.253 36.4617 230.48C36.2637 230.707 35.9924 230.876 35.6477 230.986ZM41.0947 234.055C40.5373 234.055 40.035 233.93 39.5877 233.681C39.1403 233.424 38.7883 233.072 38.5317 232.625C38.275 232.178 38.1467 231.672 38.1467 231.107C38.1467 230.542 38.275 230.036 38.5317 229.589C38.7883 229.142 39.1403 228.793 39.5877 228.544C40.035 228.295 40.5373 228.17 41.0947 228.17C41.652 228.17 42.1543 228.295 42.6017 228.544C43.049 228.793 43.3973 229.142 43.6467 229.589C43.9033 230.036 44.0317 230.542 44.0317 231.107C44.0317 231.672 43.9033 232.178 43.6467 232.625C43.3973 233.072 43.049 233.424 42.6017 233.681C42.1543 233.93 41.652 234.055 41.0947 234.055ZM41.0947 233.362C41.5053 233.362 41.872 233.27 42.1947 233.087C42.5247 232.896 42.7813 232.629 42.9647 232.284C43.148 231.939 43.2397 231.547 43.2397 231.107C43.2397 230.667 43.148 230.275 42.9647 229.93C42.7813 229.585 42.5247 229.321 42.1947 229.138C41.872 228.947 41.5053 228.852 41.0947 228.852C40.684 228.852 40.3137 228.947 39.9837 229.138C39.661 229.321 39.4043 229.585 39.2137 229.93C39.0303 230.275 38.9387 230.667 38.9387 231.107C38.9387 231.547 39.0303 231.939 39.2137 232.284C39.4043 232.629 39.661 232.896 39.9837 233.087C40.3137 233.27 40.684 233.362 41.0947 233.362ZM49.556 228.907H47.367V234H46.586V228.907H44.397V228.214H49.556V228.907Z" fill="white"/>
<path d="M265.696 179.991V221.734H300.951" stroke="#FFFAFA"/>
<ellipse cx="266.248" cy="221.2" rx="2.7543" ry="2.67584" transform="rotate(-180 266.248 221.2)" fill="white"/>
<ellipse cx="299.299" cy="221.2" rx="2.7543" ry="2.67584" transform="rotate(-180 299.299 221.2)" fill="white"/>
<ellipse cx="266.248" cy="182.667" rx="2.7543" ry="2.67584" transform="rotate(-180 266.248 182.667)" fill="white"/>
<path d="M264.626 81.4023V39.6592H299.881" stroke="#FFFAFA"/>
<ellipse rx="2.75429" ry="2.67584" transform="matrix(-1 0 0 1 265.176 40.1944)" fill="white"/>
<ellipse rx="2.75429" ry="2.67584" transform="matrix(-1 0 0 1 298.227 40.1944)" fill="white"/>
<ellipse rx="2.75429" ry="2.67584" transform="matrix(-1 0 0 1 265.176 78.7266)" fill="white"/>
<path d="M107.05 81.4059V39.6592H71.7949" stroke="#FFFAFA"/>
<ellipse cx="106.498" cy="40.1946" rx="2.75429" ry="2.67607" fill="white"/>
<ellipse cx="73.4467" cy="40.1946" rx="2.75429" ry="2.67607" fill="white"/>
<ellipse cx="106.498" cy="78.7303" rx="2.75429" ry="2.67607" fill="white"/>
<path d="M107.05 179.991V221.734H71.7949" stroke="#FFFAFA"/>
<ellipse rx="2.75429" ry="2.67584" transform="matrix(1 0 0 -1 106.498 221.2)" fill="white"/>
<ellipse rx="2.75429" ry="2.67584" transform="matrix(1 0 0 -1 73.4467 221.2)" fill="white"/>
<ellipse rx="2.75429" ry="2.67584" transform="matrix(1 0 0 -1 106.498 182.667)" fill="white"/>
<defs>
<radialGradient id="paint0_radial" cx="0" cy="0" r="1" gradientUnits="userSpaceOnUse" gradientTransform="translate(209.304 235.208) rotate(-90.4902) scale(225.346 230.404)">
<stop stop-color="#C4C4C4"/>
<stop offset="1" stop-color="#C4C4C4" stop-opacity="0"/>
</radialGradient>
</defs>
</svg>
