<svg width="132" height="132" viewBox="0 0 132 132" fill="none" xmlns="http://www.w3.org/2000/svg">
<g filter="url(#filter0_d)">
<ellipse cx="65.6067" cy="67.8248" rx="61.5696" ry="56.1646" fill="#E4AEE5"/>
<path d="M27.4997 101.288C24.4901 100.896 22.7437 100.376 20.1731 98.9125C15.6633 96.3451 12.2604 88.8819 12.2604 88.8819C12.2604 88.8819 9.82422 82.3542 8.74358 78.0593C8.04898 75.2987 7.54626 73.7525 7.27826 70.9323C6.7781 65.669 7.49163 62.6308 8.74358 57.4701C10.0107 52.2468 11.1272 49.3428 13.7257 44.5358C15.4098 41.4202 16.4298 39.6733 18.7078 36.8808C21.2013 33.8241 22.9931 32.3776 26.0344 29.7538C29.3785 26.8688 31.2462 25.1765 35.1194 22.8907C39.5727 20.2626 47.4281 17.6114 47.4281 17.6114L57.9785 14.9718C62.0986 13.9409 64.2343 14.8045 68.2357 14.9718C72.8316 15.1639 75.4505 15.1989 79.9583 16.0276C84.1795 16.8037 86.705 17.109 90.5086 18.9312C93.1163 20.1805 100.416 22.9912 102.817 24.5399C108.551 28.2372 107.041 27.3425 111.316 32.3934C113.675 35.1808 115.548 36.8318 116.005 40.3124C116.153 41.4384 117.107 45.9185 117.019 47.0496C116.812 49.6933 116.005 51.262 116.005 51.262C116.005 51.262 114.822 56.174 113.075 58.9169C111.936 60.7052 109.887 60.8469 107.799 61.6935C106.025 62.4131 104.749 61.9062 102.817 61.6935C100.336 61.4202 98.8636 61.1775 96.663 60.1097C95.0105 59.3078 94.281 58.5676 92.8532 57.4701C90.6371 55.7666 89.9778 54.2066 87.578 52.7187C84.9166 51.0685 83.0394 50.6914 79.9583 49.8151C77.6024 49.145 76.2633 48.708 73.804 48.4953C72.0951 48.3475 69.408 48.4953 69.408 48.4953C69.408 48.4953 65.4263 48.7557 63.2536 49.8151C63.2536 49.8151 60.7909 51.45 59.4438 52.7187C57.6874 54.3728 56.866 55.4682 55.6339 57.4701C54.6649 59.0446 53.9862 59.9303 53.5825 61.6935C53.1895 63.4098 53.5825 64.4284 53.5825 66.1809V70.9323C53.5825 72.7878 53.3386 73.8411 53.5825 75.6836C53.9212 78.2426 54.8135 79.5499 55.6339 82.0188C56.5267 84.7052 58.4903 86.1158 57.9785 88.8819C57.6419 90.7008 56.7632 91.5671 55.6339 93.1053C54.4699 94.6907 53.8122 95.6685 52.1172 96.8008C50.0514 98.1808 48.3379 98.0237 45.9628 98.9125C43.6448 99.7799 42.5505 100.792 40.1015 101.288C37.4216 101.831 35.8147 101.288 33.068 101.288C30.8934 101.288 29.6518 101.569 27.4997 101.288Z" fill="#C596CD" fill-opacity="0.69"/>
<path d="M18.1325 95.508C18.1325 95.508 15.235 93.2368 13.4556 90.7294C11.6762 88.222 10.2115 83.092 8.57111 76.3429C7.9405 73.7484 7.40663 63.1132 7.40663 63.1132C8.55507 58.6339 10.2401 46.9111 15.533 39.6173C20.826 32.3235 28.4673 27.3293 31.1127 24.4854C33.7582 21.6415 27.2858 35.0177 23.1707 38.5307C19.0557 42.0437 20.4846 48.0223 21.3996 49.8732C22.3145 51.7241 28.7722 53.2458 28.7722 53.2458C28.7722 53.2458 32.4732 55.0849 34.963 56.0061C37.4663 56.9324 39.1302 56.8187 41.5305 57.9614C43.2641 58.7868 44.2761 59.2798 45.6793 60.5477C47.2013 61.9228 48.0839 62.8367 48.7829 64.7191C49.2152 65.8831 49.2553 66.6037 49.3462 67.8368C49.4977 69.8917 48.631 71.0402 48.8077 73.0931C49.0079 75.4205 50.5744 78.8249 50.5744 78.8249L52.2561 85.3867C52.9128 87.9493 52.9284 89.6754 51.3271 91.9752C49.4402 94.685 46.3652 95.8227 43.1328 96.8876C40.2641 97.8326 36.9287 99.0057 36.9287 99.0057C33.9913 99.0077 28.4589 98.5311 24.2993 97.6315L18.1325 95.508Z" fill="#FBA2F7" fill-opacity="0.47"/>
<path d="M57.6263 33.457C53.6683 33.9608 47.7752 35.9845 47.7752 35.9845C47.7752 35.9845 43.2174 36.4947 40.3868 35.9845C37.5834 35.4791 35.4684 35.4406 33.6142 33.457C31.9854 31.7146 31.6471 30.1279 31.7671 27.8406C31.8707 25.8658 32.4033 24.7063 33.6142 23.0666C35.4027 20.6447 37.5585 20.2219 40.3868 18.8542C46.5183 15.8893 50.7295 15.625 57.6263 14.9227C63.3614 14.3387 66.6715 14.3106 72.403 14.9227C75.6818 15.2729 77.5791 15.3857 80.7149 16.3268C85.1629 17.6618 87.4519 19.0801 91.1818 21.6625C94.2297 23.7727 95.6825 25.2627 98.2623 27.8406C102.38 31.9554 107.389 33.7837 107.498 39.3543C107.548 41.9607 107.257 43.6576 105.651 45.8133C104.55 47.2896 103.819 48.354 101.956 48.9023C100.584 49.3065 99.6905 49.088 98.2623 48.9023C95.2279 48.5077 93.6573 47.4619 91.1818 45.8133C89.7383 44.8519 89.0848 44.1341 87.7954 43.005C84.8492 40.4251 83.9532 38.2545 80.7149 35.9845C79.1284 34.8723 78.281 34.0919 76.4051 33.457C73.3617 32.4271 68.0932 33.457 68.0932 33.457C68.0932 33.457 61.6747 32.9418 57.6263 33.457Z" fill="#FBA2F7" fill-opacity="0.47"/>
<ellipse rx="36.2636" ry="24.4237" transform="matrix(0.867829 -0.496864 0.566828 0.823836 52.4318 39.1333)" fill="white" fill-opacity="0.33"/>
<ellipse rx="26.9607" ry="20.6365" transform="matrix(0.867829 -0.496864 0.566828 0.823836 53.9106 35.3216)" fill="white" fill-opacity="0.33"/>
<ellipse rx="15.3377" ry="8.53765" transform="matrix(0.887187 -0.46141 0.529998 0.847999 49.8775 32.16)" fill="white" fill-opacity="0.33"/>
<path d="M120.4 41.4322C113.487 30.1734 92.8642 18.9663 92.8642 18.9663C92.8642 18.9663 100.112 30.5711 102.698 38.6239C105.1 46.1008 105.498 50.5377 105.977 58.2816C106.261 62.8812 105.977 70.0761 105.977 70.0761C105.977 70.0761 103.159 83.0844 99.4204 90.857C95.839 98.3027 93.2797 102.4 87.6192 108.83C81.7323 115.516 69.9175 123.994 69.9175 123.994C69.9175 123.994 87.3883 121.774 96.6291 116.614C105.579 111.617 110.861 106.492 116.83 98.902C124.521 89.1234 126.136 81.8464 126.956 70.0761C127.749 58.6972 126.595 51.5207 120.4 41.4322Z" fill="#786B68" fill-opacity="0.33"/>
</g>
<defs>
<filter id="filter0_d" x="0.0371094" y="11.6602" width="131.14" height="120.334" filterUnits="userSpaceOnUse" color-interpolation-filters="sRGB">
<feFlood flood-opacity="0" result="BackgroundImageFix"/>
<feColorMatrix in="SourceAlpha" type="matrix" values="0 0 0 0 0 0 0 0 0 0 0 0 0 0 0 0 0 0 127 0"/>
<feOffset dy="4"/>
<feGaussianBlur stdDeviation="2"/>
<feColorMatrix type="matrix" values="0 0 0 0 0 0 0 0 0 0 0 0 0 0 0 0 0 0 0.25 0"/>
<feBlend mode="normal" in2="BackgroundImageFix" result="effect1_dropShadow"/>
<feBlend mode="normal" in="SourceGraphic" in2="effect1_dropShadow" result="shape"/>
</filter>
</defs>
</svg>
