<svg width="351" height="248" viewBox="0 0 351 248" fill="none" xmlns="http://www.w3.org/2000/svg">
<path d="M164.039 213.894C114.915 208.087 79.7946 163.529 85.5968 114.372C91.3989 65.214 135.926 30.0724 185.05 35.88C234.174 41.6875 269.295 86.2451 263.492 135.403C257.69 184.56 213.163 219.702 164.039 213.894Z" fill="url(#paint0_radial)" fill-opacity="0.31" stroke="white"/>
<path d="M349.224 212.488C349.193 231.57 333.709 247.012 314.642 246.981C295.574 246.95 280.141 231.457 280.172 212.375C280.203 193.294 295.686 177.852 314.754 177.883C333.822 177.914 349.255 193.407 349.224 212.488Z" fill="#0B81F9" stroke="white"/>
<path d="M349.509 36.2422C349.478 55.3234 333.995 70.7657 314.928 70.7342C295.86 70.7028 280.427 55.2096 280.458 36.1284C280.488 17.0472 295.971 1.60492 315.039 1.63636C334.107 1.66779 349.54 17.1611 349.509 36.2422Z" fill="#74B00D" stroke="white"/>
<path d="M70.3038 35.7892C70.2727 54.8704 54.7895 70.3129 35.7218 70.2818C16.654 70.2508 1.22127 54.7578 1.2524 35.6766C1.28352 16.5954 16.7668 1.15285 35.8345 1.18394C54.9022 1.21504 70.335 16.708 70.3038 35.7892Z" fill="#7B7DB2" stroke="white"/>
<path d="M70.0173 212.037C69.9862 231.118 54.503 246.561 35.4352 246.53C16.3675 246.499 0.934731 231.006 0.965828 211.925C0.996925 192.843 16.4801 177.401 35.5479 177.432C54.6156 177.463 70.0484 192.956 70.0173 212.037Z" fill="#6B358C" stroke="white"/>
<path d="M14.309 38.1744C13.7784 37.3149 13.3693 36.3295 13.0817 35.2184C12.7942 34.0979 12.6515 32.8983 12.6535 31.6197C12.6556 30.341 12.8022 29.1419 13.0933 28.0224C13.3845 26.8935 13.7967 25.9096 14.3301 25.0704L15.6041 25.0725C15.0425 26.0516 14.6302 27.0776 14.3671 28.1505C14.1041 29.2234 13.9715 30.3805 13.9695 31.6219C13.9675 32.8632 14.0963 34.0207 14.3559 35.0945C14.6155 36.1683 15.0246 37.1956 15.583 38.1765L14.309 38.1744ZM24.8281 34.2578L24.8261 35.4758L16.6361 35.4623L16.6377 34.5103L22.81 26.8904L16.748 26.8804L16.7499 25.6624L24.6599 25.6755L24.6584 26.6275L18.5141 34.2474L24.8281 34.2578ZM30.4834 27.9951C31.426 27.9967 32.1723 28.2732 32.722 28.8248C33.2812 29.3671 33.5599 30.1655 33.5582 31.2202L33.5513 35.4902L32.2073 35.488L32.2139 31.372C32.2151 30.6533 32.0433 30.1117 31.6985 29.7471C31.3538 29.3825 30.8594 29.1997 30.2154 29.1987C29.4874 29.1975 28.9131 29.4112 28.4924 29.8398C28.0717 30.2591 27.8607 30.8654 27.8595 31.6588L27.8533 35.4808L26.5093 35.4786L26.5213 28.0586L27.8093 28.0607L27.8075 29.1807C28.0787 28.7985 28.4432 28.5051 28.9009 28.3005C29.3679 28.0959 29.8954 27.9941 30.4834 27.9951ZM35.2082 38.2089C35.7698 37.2298 36.1821 36.2039 36.4452 35.131C36.7176 34.0581 36.8548 32.901 36.8568 31.6596C36.8588 30.4183 36.7253 29.2607 36.4564 28.187C36.1968 27.1132 35.7877 26.0859 35.2293 25.1049L36.5033 25.107C37.0433 25.9479 37.4571 26.9286 37.7446 28.0491C38.0321 29.1696 38.1748 30.3738 38.1728 31.6618C38.1707 32.9405 38.0241 34.1396 37.733 35.2591C37.4418 36.3786 37.0249 37.3626 36.4822 38.211L35.2082 38.2089ZM47.057 34.2945L47.055 35.5125L40.013 35.5008L40.0146 34.5488L44.0108 30.7054C44.4969 30.2396 44.8242 29.8388 44.9927 29.5031C45.1613 29.158 45.2458 28.8128 45.2464 28.4675C45.2472 27.9541 45.0659 27.5572 44.7023 27.2766C44.3481 26.9866 43.835 26.8411 43.163 26.84C42.0803 26.8382 41.2444 27.1915 40.6553 27.8999L39.7046 27.0723C40.088 26.6063 40.588 26.2431 41.2044 25.9828C41.8301 25.7225 42.5257 25.593 43.291 25.5942C44.3177 25.5959 45.1339 25.8446 45.7398 26.3403C46.3457 26.8266 46.648 27.4898 46.6466 28.3298C46.6458 28.8524 46.533 29.3469 46.3082 29.8132C46.0835 30.2795 45.6579 30.8108 45.0317 31.4071L42.031 34.2862L47.057 34.2945ZM50.4781 30.9821C49.7968 30.981 49.2465 30.7327 48.8273 30.2374C48.4081 29.742 48.1992 29.0977 48.2004 28.3043C48.2017 27.511 48.4128 26.8674 48.8335 26.3734C49.2543 25.8794 49.8054 25.633 50.4867 25.6341C51.1681 25.6352 51.7137 25.8835 52.1235 26.3788C52.5428 26.8648 52.7517 27.5092 52.7504 28.3119C52.7491 29.1145 52.5381 29.7628 52.1173 30.2568C51.7058 30.7415 51.1595 30.9832 50.4781 30.9821ZM56.3946 25.7279L57.4726 25.7296L50.7648 35.5186L49.6868 35.5168L56.3946 25.7279ZM50.4794 30.1841C50.9087 30.1848 51.245 30.022 51.4882 29.6958C51.7314 29.3602 51.8535 28.8984 51.8544 28.3104C51.8554 27.7224 51.7348 27.2648 51.4926 26.9378C51.2505 26.6014 50.9148 26.4328 50.4855 26.4321C50.0655 26.4314 49.7292 26.5989 49.4766 26.9344C49.2334 27.27 49.1114 27.7272 49.1104 28.3058C49.1095 28.8845 49.2301 29.342 49.4722 29.6784C49.7237 30.0149 50.0594 30.1834 50.4794 30.1841ZM56.6727 35.6123C55.9913 35.6112 55.4411 35.3676 55.0218 34.8816C54.612 34.3863 54.4077 33.7373 54.409 32.9346C54.4103 32.1319 54.6166 31.4883 55.0281 31.0036C55.4489 30.5096 56 30.2632 56.6813 30.2643C57.3626 30.2655 57.9129 30.5137 58.3321 31.0091C58.7513 31.5044 58.9603 32.1488 58.959 32.9421C58.9577 33.7354 58.7467 34.3791 58.3259 34.8731C57.9051 35.367 57.354 35.6135 56.6727 35.6123ZM56.674 34.8143C57.094 34.815 57.4256 34.6476 57.6688 34.312C57.9213 33.9764 58.048 33.5193 58.049 32.9406C58.0499 32.3619 57.9246 31.9044 57.6732 31.568C57.4311 31.2316 57.1 31.063 56.68 31.0623C56.2507 31.0616 55.9144 31.2291 55.6712 31.5647C55.428 31.8909 55.3059 32.3481 55.305 32.9361C55.304 33.5241 55.4246 33.9863 55.6668 34.3227C55.9089 34.6497 56.2446 34.8136 56.674 34.8143ZM28.059 47.7991L28.0556 49.9331L27.3186 49.9319L27.3209 48.4799L22.03 48.4712L22.0393 42.6852L22.8203 42.6865L22.812 47.7905L26.343 47.7963L26.3513 42.6923L27.1323 42.6936L27.124 47.7976L28.059 47.7991ZM29.5588 42.6976L30.3398 42.6989L30.3324 47.2969L34.2008 42.7053L34.8938 42.7064L34.8845 48.4924L34.1035 48.4911L34.1109 43.8931L30.2535 48.4848L29.5495 48.4836L29.5588 42.6976ZM37.132 42.7101L37.913 42.7114L37.9089 45.2744L41.5499 45.2804L41.554 42.7174L42.335 42.7187L42.3257 48.5047L41.5447 48.5034L41.5488 45.9514L37.9078 45.9454L37.9037 48.4974L37.1227 48.4961L37.132 42.7101ZM46.6507 45.9378L45.3307 45.9356L45.3265 48.5096L44.5455 48.5083L44.5549 42.7223L45.3359 42.7236L45.3318 45.2646L46.6628 45.2668L48.7019 42.7292L49.5489 42.7306L47.2673 45.5318L49.7045 48.5169L48.7805 48.5153L46.6507 45.9378Z" fill="white"/>
<path d="M291.116 37.2199C290.585 36.3604 290.176 35.3751 289.889 34.2639C289.601 33.1434 289.459 31.9439 289.461 30.6652C289.463 29.3865 289.609 28.1874 289.9 27.0679C290.192 25.9391 290.604 24.9551 291.137 24.116L292.411 24.1181C291.85 25.0971 291.437 26.1231 291.174 27.196C290.911 28.2689 290.779 29.426 290.777 30.6674C290.775 31.9087 290.903 33.0662 291.163 34.14C291.423 35.2138 291.832 36.2411 292.39 37.222L291.116 37.2199ZM303.397 34.5242L303.395 27.3842L299.843 33.3283L299.199 33.3273L295.667 27.4134L295.655 34.5114L294.311 34.5092L294.327 24.7092L295.475 24.7111L299.552 31.6058L303.595 24.7245L304.743 24.7264L304.741 34.5264L303.397 34.5242ZM311.46 27.0475C312.403 27.049 313.149 27.3256 313.699 27.8772C314.258 28.4194 314.537 29.2179 314.535 30.2725L314.528 34.5425L313.184 34.5403L313.191 30.4243C313.192 29.7057 313.02 29.164 312.676 28.7995C312.331 28.4349 311.836 28.2521 311.192 28.251C310.464 28.2498 309.89 28.4635 309.469 28.8922C309.049 29.3115 308.838 29.9178 308.836 30.7111L308.83 34.5331L307.486 34.5309L307.498 27.1109L308.786 27.1131L308.784 28.2331C309.056 27.8508 309.42 27.5574 309.878 27.3529C310.345 27.1483 310.872 27.0465 311.46 27.0475ZM316.185 37.2613C316.747 36.2822 317.159 35.2562 317.422 34.1833C317.695 33.1104 317.832 31.9533 317.834 30.712C317.836 29.4706 317.702 28.3131 317.433 27.2393C317.174 26.1655 316.765 25.1382 316.206 24.1573L317.48 24.1594C318.02 25.0003 318.434 25.981 318.722 27.1014C319.009 28.2219 319.152 29.4261 319.15 30.7141C319.148 31.9928 319.001 33.1919 318.71 34.3114C318.419 35.4309 318.002 36.4149 317.459 37.2634L316.185 37.2613ZM328.034 33.3468L328.032 34.5648L320.99 34.5532L320.992 33.6012L324.988 29.7578C325.474 29.2919 325.801 28.8911 325.97 28.5554C326.138 28.2103 326.223 27.8651 326.223 27.5198C326.224 27.0065 326.043 26.6095 325.679 26.3289C325.325 26.039 324.812 25.8935 324.14 25.8924C323.057 25.8906 322.221 26.2439 321.632 26.9522L320.682 26.1247C321.065 25.6586 321.565 25.2955 322.181 25.0351C322.807 24.7748 323.503 24.6453 324.268 24.6466C325.295 24.6483 326.111 24.8969 326.717 25.3926C327.323 25.8789 327.625 26.5421 327.624 27.3821C327.623 27.9048 327.51 28.3993 327.285 28.8656C327.06 29.3318 326.635 29.8631 326.009 30.4595L323.008 33.3385L328.034 33.3468ZM331.455 30.0344C330.774 30.0333 330.224 29.7851 329.804 29.2897C329.385 28.7943 329.176 28.15 329.177 27.3567C329.179 26.5633 329.39 25.9197 329.811 25.4257C330.231 24.9317 330.782 24.6853 331.464 24.6864C332.145 24.6876 332.691 24.9358 333.101 25.4311C333.52 25.9172 333.729 26.5615 333.727 27.3642C333.726 28.1668 333.515 28.8152 333.094 29.3091C332.683 29.7938 332.136 30.0356 331.455 30.0344ZM337.372 24.7802L338.45 24.782L331.742 34.5709L330.664 34.5691L337.372 24.7802ZM331.456 29.2364C331.886 29.2371 332.222 29.0744 332.465 28.7481C332.708 28.4125 332.83 27.9507 332.831 27.3627C332.832 26.7747 332.712 26.3172 332.47 25.9901C332.228 25.6537 331.892 25.4851 331.462 25.4844C331.042 25.4837 330.706 25.6512 330.454 25.9868C330.21 26.3224 330.088 26.7795 330.087 27.3582C330.086 27.9368 330.207 28.3944 330.449 28.7308C330.701 29.0672 331.036 29.2357 331.456 29.2364ZM337.65 34.6646C336.968 34.6635 336.418 34.42 335.999 33.9339C335.589 33.4386 335.385 32.7896 335.386 31.9869C335.387 31.1842 335.594 30.5406 336.005 30.0559C336.426 29.562 336.977 29.3155 337.658 29.3167C338.34 29.3178 338.89 29.566 339.309 30.0614C339.728 30.5567 339.937 31.2011 339.936 31.9944C339.935 32.7877 339.724 33.4314 339.303 33.9254C338.882 34.4193 338.331 34.6658 337.65 34.6646ZM337.651 33.8666C338.071 33.8673 338.403 33.6999 338.646 33.3643C338.898 33.0287 339.025 32.5716 339.026 31.9929C339.027 31.4142 338.902 30.9567 338.65 30.6203C338.408 30.2839 338.077 30.1153 337.657 30.1147C337.228 30.1139 336.891 30.2814 336.648 30.617C336.405 30.9433 336.283 31.4004 336.282 31.9884C336.281 32.5764 336.402 33.0386 336.644 33.375C336.886 33.7021 337.222 33.8659 337.651 33.8666ZM293.649 41.7221L293.64 47.5081L292.925 47.5069L292.932 42.9309L290.583 46.7991L290.231 46.7985L287.894 42.9116L287.887 47.4986L287.172 47.4974L287.181 41.7115L287.973 41.7128L290.42 45.8858L292.923 41.7209L293.649 41.7221ZM297.863 41.6851C298.618 41.6863 299.197 41.8779 299.6 42.2599C300.003 42.6346 300.203 43.1923 300.202 43.9329L300.196 47.5189L299.448 47.5177L299.45 46.6157C299.273 46.9161 299.013 47.1503 298.668 47.3184C298.33 47.4865 297.927 47.5702 297.457 47.5694C296.812 47.5683 296.299 47.4135 295.918 47.1049C295.537 46.7962 295.347 46.3889 295.348 45.8829C295.349 45.3916 295.525 44.9959 295.878 44.6958C296.238 44.3957 296.806 44.2463 297.584 44.2476L299.421 44.2506L299.421 43.8986C299.422 43.4 299.283 43.0221 299.005 42.7649C298.727 42.5005 298.32 42.3678 297.785 42.3669C297.418 42.3663 297.066 42.4281 296.728 42.5522C296.391 42.669 296.101 42.8335 295.859 43.0458L295.508 42.4622C295.801 42.2133 296.154 42.0232 296.564 41.8919C296.975 41.7533 297.408 41.6843 297.863 41.6851ZM297.579 46.9536C298.019 46.9543 298.397 46.856 298.713 46.6585C299.028 46.4537 299.264 46.1607 299.418 45.7796L299.42 44.8336L297.605 44.8306C296.615 44.829 296.119 45.1729 296.118 45.8622C296.117 46.1995 296.245 46.4674 296.502 46.6658C296.758 46.8569 297.117 46.9528 297.579 46.9536ZM298.68 39.4754L299.725 39.4771L297.941 40.8382L297.171 40.8369L298.68 39.4754ZM302.285 41.7364L303.066 41.7376L303.062 44.3006L306.703 44.3066L306.707 41.7436L307.488 41.7449L307.478 47.5309L306.697 47.5296L306.702 44.9776L303.061 44.9716L303.056 47.5236L302.275 47.5223L302.285 41.7364ZM313.798 42.4483L310.488 42.4429L310.479 47.5359L309.698 47.5346L309.708 41.7486L313.8 41.7553L313.798 42.4483ZM316.919 41.7165C317.675 41.7177 318.254 41.9093 318.656 42.2913C319.059 42.666 319.26 43.2237 319.259 43.9643L319.253 47.5503L318.505 47.5491L318.506 46.6471C318.33 46.9475 318.069 47.1817 317.724 47.3498C317.387 47.5179 316.983 47.6016 316.514 47.6008C315.869 47.5998 315.355 47.4449 314.975 47.1363C314.594 46.8277 314.404 46.4203 314.405 45.9143C314.405 45.423 314.582 45.0273 314.935 44.7272C315.294 44.4271 315.863 44.2777 316.64 44.279L318.477 44.2821L318.478 43.9301C318.479 43.4314 318.34 43.0535 318.062 42.7964C317.783 42.5319 317.377 42.3992 316.841 42.3984C316.475 42.3977 316.123 42.4595 315.785 42.5836C315.447 42.7004 315.158 42.8649 314.915 43.0772L314.564 42.4936C314.858 42.2447 315.21 42.0547 315.621 41.9233C316.032 41.7847 316.465 41.7157 316.919 41.7165ZM316.636 46.985C317.076 46.9857 317.454 46.8874 317.769 46.6899C318.085 46.4851 318.32 46.1921 318.475 45.8111L318.476 44.8651L316.661 44.8621C315.671 44.8604 315.176 45.2043 315.175 45.8936C315.174 46.2309 315.302 46.4988 315.558 46.6972C315.815 46.8883 316.174 46.9843 316.636 46.985ZM321.341 41.7678L322.122 41.7691L322.118 44.3321L325.759 44.3381L325.763 41.7751L326.544 41.7763L326.535 47.5623L325.754 47.5611L325.758 45.0091L322.117 45.0031L322.113 47.5551L321.332 47.5538L321.341 41.7678ZM333.681 41.7881L330.778 48.2623C330.542 48.8046 330.27 49.1892 329.962 49.416C329.654 49.6428 329.283 49.7559 328.85 49.7552C328.572 49.7547 328.311 49.7103 328.07 49.6219C327.828 49.5335 327.619 49.4011 327.443 49.2248L327.807 48.6424C328.1 48.9363 328.452 49.0835 328.862 49.0842C329.126 49.0846 329.35 49.0117 329.534 48.8653C329.725 48.7189 329.901 48.4699 330.063 48.1182L330.317 47.5576L327.741 41.7783L328.555 41.7797L330.725 46.7002L332.911 41.7868L333.681 41.7881ZM341.366 41.8008L341.357 47.5868L340.642 47.5856L340.649 43.0096L338.3 46.8777L337.948 46.8772L335.611 42.9903L335.604 47.5773L334.889 47.5761L334.898 41.7901L335.69 41.7914L338.136 45.9645L340.64 41.7996L341.366 41.8008Z" fill="white"/>
<path d="M11.5515 211.63C11.0209 210.771 10.6118 209.785 10.3243 208.674C10.0368 207.554 9.8941 206.354 9.89619 205.075C9.89827 203.797 10.0449 202.598 10.336 201.478C10.6272 200.349 11.0395 199.365 11.5729 198.526L12.8469 198.528C12.2853 199.507 11.8729 200.533 11.6098 201.606C11.3468 202.679 11.2142 203.836 11.2122 205.078C11.2102 206.319 11.3389 207.476 11.5985 208.55C11.8581 209.624 12.2671 210.651 12.8255 211.632L11.5515 211.63ZM23.1907 199.133L23.1747 208.933L22.0267 208.931L16.1586 201.614L16.1467 208.922L14.7467 208.919L14.7627 199.119L15.9107 199.121L21.7788 206.439L21.7907 199.131L23.1907 199.133ZM28.6262 201.452C29.6529 201.454 30.4365 201.707 30.977 202.212C31.5269 202.717 31.801 203.469 31.7993 204.467L31.792 208.947L30.518 208.945L30.5196 207.965C30.2951 208.31 29.9726 208.576 29.5523 208.762C29.1414 208.938 28.6512 209.026 28.0819 209.025C27.2512 209.024 26.5842 208.822 26.0809 208.42C25.5869 208.018 25.3404 207.49 25.3415 206.837C25.3425 206.183 25.5814 205.661 26.058 205.27C26.5347 204.869 27.291 204.67 28.327 204.672L30.455 204.675L30.4554 204.409C30.4564 203.83 30.2891 203.387 29.9536 203.078C29.6181 202.77 29.1237 202.615 28.4703 202.614C28.0317 202.613 27.6022 202.687 27.182 202.836C26.7618 202.975 26.4068 203.166 26.1171 203.408L25.5587 202.399C25.9419 202.092 26.3996 201.859 26.9318 201.701C27.4641 201.534 28.0289 201.451 28.6262 201.452ZM28.3076 207.989C28.8209 207.99 29.2644 207.879 29.6381 207.656C30.0118 207.423 30.283 207.097 30.4517 206.677L30.4534 205.641L28.3814 205.638C27.2428 205.636 26.6728 206.017 26.6716 206.783C26.6709 207.156 26.8151 207.45 27.1041 207.666C27.3931 207.881 27.7943 207.989 28.3076 207.989ZM33.4488 211.666C34.0104 210.687 34.4227 209.661 34.6858 208.588C34.9582 207.515 35.0954 206.358 35.0975 205.117C35.0995 203.875 34.966 202.718 34.6971 201.644C34.4375 200.57 34.0285 199.543 33.4701 198.562L34.7441 198.564C35.2841 199.405 35.6978 200.386 35.9854 201.506C36.2729 202.626 36.4156 203.831 36.4135 205.119C36.4114 206.397 36.2648 207.596 35.9736 208.716C35.6824 209.836 35.2655 210.82 34.7228 211.668L33.4488 211.666ZM46.9376 206.564L45.0756 206.561L45.0717 208.969L43.7137 208.967L43.7176 206.559L38.2716 206.55L38.2732 205.57L43.2956 199.166L44.8076 199.168L39.9956 205.349L43.7616 205.355L43.765 203.227L45.081 203.229L45.0776 205.357L46.9396 205.36L46.9376 206.564ZM49.4845 204.44C48.8031 204.439 48.2529 204.191 47.8337 203.695C47.4145 203.2 47.2055 202.556 47.2068 201.762C47.2081 200.969 47.4192 200.325 47.84 199.831C48.2608 199.337 48.8118 199.091 49.4932 199.092C50.1745 199.093 50.7201 199.341 51.13 199.837C51.5492 200.323 51.7581 200.967 51.7568 201.77C51.7555 202.572 51.5445 203.221 51.1236 203.715C50.7122 204.199 50.1658 204.441 49.4845 204.44ZM55.401 199.186L56.479 199.187L49.7711 208.977L48.6931 208.975L55.401 199.186ZM49.4858 203.642C49.9151 203.643 50.2514 203.48 50.4946 203.154C50.7378 202.818 50.8599 202.356 50.8608 201.768C50.8618 201.18 50.7412 200.723 50.4991 200.396C50.2569 200.059 49.9212 199.891 49.4919 199.89C49.0719 199.889 48.7356 200.057 48.4831 200.392C48.2398 200.728 48.1178 201.185 48.1168 201.764C48.1159 202.342 48.2365 202.8 48.4786 203.136C48.73 203.473 49.0658 203.641 49.4858 203.642ZM55.6789 209.07C54.9976 209.069 54.4473 208.825 54.0281 208.339C53.6183 207.844 53.414 207.195 53.4153 206.392C53.4166 205.59 53.623 204.946 54.0344 204.461C54.4552 203.967 55.0063 203.721 55.6876 203.722C56.369 203.723 56.9192 203.972 57.3384 204.467C57.7576 204.962 57.9666 205.607 57.9653 206.4C57.964 207.193 57.7529 207.837 57.3321 208.331C56.9113 208.825 56.3603 209.071 55.6789 209.07ZM55.6802 208.272C56.1002 208.273 56.4318 208.105 56.675 207.77C56.9276 207.434 57.0543 206.977 57.0553 206.398C57.0562 205.82 56.931 205.362 56.6795 205.026C56.4374 204.689 56.1063 204.521 55.6863 204.52C55.257 204.519 54.9207 204.687 54.6775 205.023C54.4343 205.349 54.3122 205.806 54.3113 206.394C54.3103 206.982 54.4309 207.444 54.673 207.781C54.9152 208.108 55.2509 208.271 55.6802 208.272ZM13.7559 216.132L14.5368 216.133L14.5327 218.696L18.1737 218.702L18.1778 216.139L18.9588 216.14L18.9494 221.926L18.1684 221.925L18.1726 219.373L14.5316 219.367L14.5274 221.919L13.7464 221.918L13.7559 216.132ZM23.1698 216.103C23.9251 216.104 24.5041 216.296 24.9068 216.678C25.3096 217.053 25.5103 217.61 25.5091 218.351L25.5033 221.937L24.7553 221.936L24.7567 221.034C24.5802 221.334 24.3195 221.568 23.9746 221.736C23.637 221.905 23.2335 221.988 22.7642 221.987C22.1188 221.986 21.6058 221.832 21.2249 221.523C20.8441 221.214 20.6541 220.807 20.6549 220.301C20.6557 219.81 20.8324 219.414 21.1849 219.114C21.5447 218.814 22.1133 218.664 22.8906 218.666L24.7276 218.669L24.7282 218.317C24.729 217.818 24.5903 217.44 24.312 217.183C24.0338 216.919 23.627 216.786 23.0917 216.785C22.725 216.784 22.3729 216.846 22.0353 216.97C21.6978 217.087 21.4079 217.252 21.1655 217.464L20.8145 216.88C21.1082 216.631 21.4605 216.441 21.8714 216.31C22.2823 216.171 22.7151 216.102 23.1698 216.103ZM22.8862 221.372C23.3262 221.372 23.704 221.274 24.0197 221.076C24.3353 220.872 24.5705 220.579 24.7251 220.198L24.7266 219.252L22.9116 219.249C21.9216 219.247 21.4261 219.591 21.425 220.28C21.4244 220.618 21.5523 220.885 21.8086 221.084C22.065 221.275 22.4242 221.371 22.8862 221.372ZM31.6606 216.854L29.4716 216.85L29.4633 221.943L28.6823 221.942L28.6906 216.849L26.5016 216.846L26.5028 216.153L31.6618 216.161L31.6606 216.854ZM35.7721 216.124C36.3147 216.125 36.8058 216.25 37.2454 216.5C37.685 216.743 38.0291 217.088 38.2778 217.536C38.5264 217.984 38.6502 218.493 38.6493 219.065C38.6483 219.645 38.5228 220.158 38.2728 220.605C38.0227 221.052 37.6775 221.399 37.237 221.648C36.804 221.889 36.3125 222.01 35.7625 222.009C35.2931 222.008 34.8679 221.912 34.4869 221.721C34.1133 221.522 33.8057 221.235 33.5643 220.861L33.5591 224.084L32.7781 224.083L32.791 216.163L33.539 216.164L33.5371 217.308C33.7724 216.927 34.0809 216.634 34.4626 216.43C34.8516 216.225 35.2881 216.123 35.7721 216.124ZM35.7086 221.316C36.1119 221.316 36.4787 221.225 36.809 221.042C37.1393 220.852 37.3964 220.585 37.5803 220.241C37.7716 219.896 37.8675 219.504 37.8683 219.064C37.869 218.624 37.7743 218.235 37.5842 217.898C37.4014 217.553 37.1452 217.285 36.8155 217.093C36.4858 216.902 36.1193 216.806 35.7159 216.806C35.3053 216.805 34.9348 216.9 34.6045 217.09C34.2815 217.28 34.0244 217.547 33.8332 217.892C33.6493 218.229 33.557 218.617 33.5563 219.057C33.5555 219.497 33.6466 219.89 33.8293 220.235C34.0195 220.579 34.2757 220.848 34.598 221.039C34.9277 221.223 35.2979 221.315 35.7086 221.316ZM40.332 216.175L41.113 216.176L41.1055 220.774L44.974 216.183L45.667 216.184L45.6576 221.97L44.8766 221.969L44.884 217.371L41.0266 221.962L40.3226 221.961L40.332 216.175ZM47.9052 216.187L48.6862 216.189L48.6787 220.787L52.5472 216.195L53.2402 216.196L53.2308 221.982L52.4498 221.981L52.4573 217.383L48.5998 221.975L47.8958 221.973L47.9052 216.187ZM50.5356 215.356C50.0369 215.355 49.6411 215.23 49.3482 214.98C49.0553 214.73 48.9055 214.378 48.8989 213.923L49.4599 213.924C49.4668 214.21 49.5691 214.441 49.7668 214.618C49.9645 214.786 50.221 214.871 50.5364 214.872C50.8517 214.872 51.1085 214.788 51.3068 214.62C51.5124 214.444 51.6191 214.214 51.6269 213.928L52.1879 213.928C52.1798 214.383 52.0253 214.735 51.7242 214.984C51.4304 215.233 51.0342 215.357 50.5356 215.356Z" fill="white"/>
<path d="M294.648 216.165C294.079 215.244 293.641 214.188 293.333 212.997C293.025 211.797 292.872 210.512 292.874 209.142C292.876 207.772 293.033 206.487 293.345 205.287C293.657 204.078 294.099 203.024 294.671 202.125L296.036 202.127C295.434 203.176 294.992 204.275 294.71 205.425C294.428 206.574 294.286 207.814 294.284 209.144C294.282 210.474 294.42 211.714 294.698 212.865C294.976 214.015 295.414 215.116 296.013 216.167L294.648 216.165ZM306.41 203.474L306.394 213.274L305.246 213.272L299.378 205.954L299.366 213.262L297.966 213.26L297.982 203.46L299.13 203.462L304.998 210.78L305.01 203.472L306.41 203.474ZM308.301 215.993C308.863 215.014 309.275 213.988 309.538 212.915C309.81 211.842 309.948 210.685 309.95 209.444C309.952 208.202 309.818 207.045 309.549 205.971C309.29 204.897 308.881 203.87 308.322 202.889L309.596 202.891C310.136 203.732 310.55 204.713 310.838 205.833C311.125 206.954 311.268 208.158 311.266 209.446C311.264 210.724 311.117 211.924 310.826 213.043C310.535 214.163 310.118 215.147 309.575 215.995L308.301 215.993ZM316.454 203.378C317.77 203.38 318.782 203.807 319.49 204.657C320.207 205.508 320.565 206.712 320.562 208.271C320.56 209.363 320.363 210.296 319.97 211.07C319.586 211.835 319.043 212.417 318.343 212.817C317.651 213.208 316.844 213.403 315.92 213.401C315.444 213.401 314.996 213.353 314.576 213.259C314.156 213.156 313.792 213.011 313.485 212.823L314.018 211.732C314.494 212.041 315.124 212.196 315.908 212.197C316.925 212.199 317.719 211.888 318.289 211.263C318.869 210.63 319.16 209.711 319.162 208.507L319.162 208.157C318.882 208.576 318.494 208.898 317.999 209.121C317.504 209.335 316.948 209.441 316.332 209.44C315.688 209.439 315.11 209.317 314.597 209.073C314.093 208.83 313.697 208.484 313.408 208.035C313.129 207.578 312.99 207.055 312.991 206.467C312.992 205.851 313.142 205.31 313.442 204.843C313.75 204.377 314.166 204.019 314.689 203.767C315.212 203.507 315.801 203.377 316.454 203.378ZM316.572 208.306C317.011 208.307 317.403 208.224 317.748 208.056C318.094 207.889 318.36 207.661 318.548 207.372C318.744 207.083 318.843 206.761 318.843 206.406C318.844 206.061 318.751 205.748 318.565 205.468C318.388 205.178 318.122 204.949 317.768 204.78C317.423 204.603 317.003 204.513 316.508 204.512C315.864 204.511 315.341 204.683 314.939 205.028C314.547 205.372 314.35 205.834 314.349 206.413C314.348 206.992 314.548 207.454 314.949 207.8C315.35 208.136 315.891 208.305 316.572 208.306ZM324.913 203.504L324.898 213.304L323.512 213.302L323.525 204.72L321.313 204.716L321.315 203.498L324.913 203.504ZM329.177 208.775C328.495 208.774 327.945 208.526 327.526 208.03C327.107 207.535 326.898 206.891 326.899 206.097C326.9 205.304 327.111 204.66 327.532 204.166C327.953 203.672 328.504 203.426 329.185 203.427C329.867 203.428 330.412 203.676 330.822 204.172C331.241 204.658 331.45 205.302 331.449 206.105C331.448 206.908 331.237 207.556 330.816 208.05C330.404 208.534 329.858 208.776 329.177 208.775ZM335.093 203.521L336.171 203.523L329.463 213.312L328.385 213.31L335.093 203.521ZM329.178 207.977C329.607 207.978 329.943 207.815 330.187 207.489C330.43 207.153 330.552 206.691 330.553 206.103C330.554 205.515 330.433 205.058 330.191 204.731C329.949 204.394 329.613 204.226 329.184 204.225C328.764 204.224 328.428 204.392 328.175 204.727C327.932 205.063 327.81 205.52 327.809 206.099C327.808 206.678 327.929 207.135 328.171 207.471C328.422 207.808 328.758 207.976 329.178 207.977ZM335.371 213.405C334.69 213.404 334.139 213.161 333.72 212.675C333.31 212.179 333.106 211.53 333.107 210.728C333.109 209.925 333.315 209.281 333.727 208.797C334.147 208.303 334.698 208.056 335.38 208.057C336.061 208.058 336.611 208.307 337.031 208.802C337.45 209.297 337.659 209.942 337.657 210.735C337.656 211.528 337.445 212.172 337.024 212.666C336.603 213.16 336.052 213.406 335.371 213.405ZM335.372 212.607C335.792 212.608 336.124 212.441 336.367 212.105C336.62 211.769 336.746 211.312 336.747 210.734C336.748 210.155 336.623 209.697 336.372 209.361C336.129 209.025 335.798 208.856 335.378 208.855C334.949 208.855 334.613 209.022 334.37 209.358C334.126 209.684 334.004 210.141 334.003 210.729C334.002 211.317 334.123 211.779 334.365 212.116C334.607 212.443 334.943 212.607 335.372 212.607ZM305.821 220.443C306.577 220.444 307.156 220.636 307.558 221.018C307.961 221.392 308.162 221.95 308.161 222.691L308.155 226.277L307.407 226.275L307.408 225.373C307.232 225.674 306.971 225.908 306.626 226.076C306.289 226.244 305.885 226.328 305.416 226.327C304.77 226.326 304.257 226.171 303.877 225.863C303.496 225.554 303.306 225.147 303.307 224.641C303.307 224.149 303.484 223.754 303.836 223.454C304.196 223.154 304.765 223.004 305.542 223.005L307.379 223.008L307.38 222.656C307.381 222.158 307.242 221.78 306.964 221.523C306.685 221.258 306.279 221.126 305.743 221.125C305.377 221.124 305.024 221.186 304.687 221.31C304.349 221.427 304.06 221.591 303.817 221.804L303.466 221.22C303.76 220.971 304.112 220.781 304.523 220.65C304.934 220.511 305.367 220.442 305.821 220.443ZM305.538 225.711C305.978 225.712 306.356 225.614 306.671 225.416C306.987 225.211 307.222 224.919 307.377 224.537L307.378 223.591L305.563 223.588C304.573 223.587 304.078 223.931 304.077 224.62C304.076 224.957 304.204 225.225 304.46 225.424C304.717 225.615 305.076 225.711 305.538 225.711ZM312.937 223.271C313.347 223.367 313.662 223.532 313.882 223.767C314.109 224.002 314.222 224.288 314.222 224.626C314.221 224.963 314.103 225.263 313.868 225.527C313.64 225.791 313.328 225.996 312.932 226.142C312.536 226.28 312.099 226.349 311.623 226.348C311.205 226.348 310.794 226.288 310.391 226.17C309.988 226.045 309.636 225.865 309.336 225.63L309.601 225.047C309.865 225.246 310.172 225.4 310.524 225.511C310.876 225.621 311.231 225.677 311.591 225.677C312.126 225.678 312.563 225.58 312.9 225.382C313.245 225.178 313.418 224.903 313.419 224.558C313.419 224.25 313.28 224.012 313.002 223.843C312.723 223.666 312.342 223.578 311.858 223.577L310.868 223.575L310.869 223.003L311.815 223.005C312.248 223.005 312.596 222.925 312.861 222.764C313.125 222.596 313.257 222.373 313.258 222.094C313.258 221.786 313.108 221.544 312.808 221.367C312.515 221.191 312.13 221.102 311.653 221.101C311.03 221.1 310.414 221.257 309.804 221.571L309.585 220.966C310.275 220.608 310.991 220.429 311.731 220.431C312.171 220.431 312.567 220.498 312.919 220.631C313.278 220.756 313.557 220.936 313.754 221.171C313.959 221.406 314.061 221.677 314.061 221.985C314.06 222.279 313.957 222.539 313.752 222.766C313.553 222.993 313.282 223.161 312.937 223.271ZM318.379 226.348C317.821 226.348 317.319 226.222 316.872 225.972C316.425 225.715 316.074 225.362 315.818 224.914C315.562 224.467 315.435 223.96 315.435 223.396C315.436 222.831 315.566 222.325 315.823 221.878C316.08 221.431 316.433 221.084 316.881 220.835C317.328 220.586 317.831 220.463 318.388 220.463C318.946 220.464 319.448 220.59 319.895 220.84C320.342 221.09 320.689 221.439 320.938 221.887C321.194 222.334 321.321 222.841 321.32 223.405C321.32 223.97 321.19 224.476 320.933 224.923C320.683 225.37 320.334 225.721 319.886 225.977C319.439 226.226 318.936 226.349 318.379 226.348ZM318.38 225.655C318.79 225.656 319.157 225.565 319.48 225.382C319.811 225.192 320.068 224.925 320.252 224.581C320.435 224.236 320.528 223.844 320.528 223.404C320.529 222.964 320.438 222.571 320.255 222.227C320.073 221.882 319.816 221.617 319.487 221.433C319.164 221.242 318.798 221.146 318.387 221.145C317.976 221.145 317.606 221.24 317.276 221.43C316.953 221.612 316.696 221.876 316.504 222.22C316.321 222.565 316.228 222.957 316.227 223.397C316.227 223.837 316.318 224.229 316.501 224.574C316.691 224.919 316.947 225.187 317.269 225.379C317.599 225.563 317.969 225.655 318.38 225.655ZM326.848 221.214L324.659 221.211L324.651 226.304L323.87 226.302L323.878 221.209L321.689 221.206L321.69 220.513L326.849 220.521L326.848 221.214Z" fill="white"/>
<path d="M248.77 172.268L248.705 212.171L281.644 212.225" stroke="#FFFAFA"/>
<ellipse rx="2.57334" ry="2.55784" transform="matrix(-0.999999 -0.0016547 0.00160698 -0.999999 249.221 211.66)" fill="white"/>
<ellipse rx="2.57334" ry="2.55784" transform="matrix(-0.999999 -0.00165476 0.00160704 -0.999999 280.101 211.711)" fill="white"/>
<ellipse rx="2.57334" ry="2.55784" transform="matrix(-0.999999 -0.00163794 0.00162386 -0.999999 249.28 174.828)" fill="white"/>
<path d="M247.924 78.0245L247.988 38.1222L280.927 38.1765" stroke="#FFFAFA"/>
<ellipse rx="2.57332" ry="2.55784" transform="matrix(-0.999999 -0.00164861 -0.00161314 0.999999 248.502 38.6349)" fill="white"/>
<ellipse rx="2.57332" ry="2.55784" transform="matrix(-0.999999 -0.00164861 -0.00161314 0.999999 279.382 38.6859)" fill="white"/>
<ellipse rx="2.57332" ry="2.55784" transform="matrix(-0.999999 -0.00164861 -0.00161314 0.999999 248.442 75.4677)" fill="white"/>
<path d="M100.7 77.7877L100.765 37.8819L67.8262 37.8279" stroke="#FFFAFA"/>
<ellipse rx="2.57332" ry="2.55807" transform="matrix(0.999999 0.00163794 -0.00162386 0.999999 100.25 38.3915)" fill="white"/>
<ellipse rx="2.57332" ry="2.55807" transform="matrix(0.999999 0.00163177 -0.00162962 0.999999 69.3704 38.3439)" fill="white"/>
<ellipse rx="2.57332" ry="2.55807" transform="matrix(0.999999 0.00163794 -0.00162386 0.999999 100.189 75.2277)" fill="white"/>
<path d="M100.548 172.024L100.483 211.927L67.5449 211.873" stroke="#FFFAFA"/>
<ellipse rx="2.57332" ry="2.55784" transform="matrix(0.999999 0.00163337 0.0016285 -0.999999 99.9696 211.416)" fill="white"/>
<ellipse rx="2.57332" ry="2.55784" transform="matrix(0.999999 0.00163337 0.0016285 -0.999999 69.0907 211.363)" fill="white"/>
<ellipse rx="2.57332" ry="2.55784" transform="matrix(0.999999 0.00163794 0.00162386 -0.999999 100.03 174.582)" fill="white"/>
<path d="M134.802 7.50434L134.79 14.9243L133.446 14.9221L133.456 8.67814L129.27 8.67131L129.26 14.9153L127.916 14.9131L127.928 7.49312L134.802 7.50434ZM143.773 7.51898L143.761 14.939L142.417 14.9368L142.427 8.69278L139.235 8.68757L139.148 10.3394C139.1 11.338 139.01 12.1732 138.878 12.845C138.746 13.5074 138.531 14.0391 138.231 14.4399C137.932 14.8408 137.516 15.0408 136.984 15.0399C136.742 15.0395 136.467 14.9971 136.159 14.9126L136.245 13.7787C136.366 13.8069 136.478 13.8211 136.58 13.8212C136.954 13.8219 137.234 13.659 137.421 13.3326C137.608 13.0063 137.73 12.6191 137.787 12.1712C137.844 11.7233 137.896 11.0841 137.944 10.2535L138.075 7.50968L143.773 7.51898ZM149.018 7.45753C150.044 7.45921 150.828 7.71249 151.368 8.21737C151.918 8.72227 152.192 9.47405 152.191 10.4727L152.183 14.9527L150.909 14.9506L150.911 13.9706C150.686 14.3156 150.364 14.5811 149.944 14.7671C149.533 14.9437 149.043 15.0316 148.473 15.0307C147.643 15.0293 146.976 14.8275 146.472 14.4254C145.978 14.0233 145.732 13.4955 145.733 12.8422C145.734 12.1888 145.973 11.6666 146.449 11.2753C146.926 10.8748 147.682 10.6754 148.718 10.6771L150.846 10.6805L150.847 10.4145C150.848 9.83586 150.68 9.39225 150.345 9.0837C150.009 8.77516 149.515 8.62035 148.862 8.61928C148.423 8.61857 147.994 8.69253 147.573 8.84118C147.153 8.98049 146.798 9.17125 146.508 9.41344L145.95 8.40453C146.333 8.09716 146.791 7.86457 147.323 7.70677C147.855 7.53964 148.42 7.45656 149.018 7.45753ZM148.699 13.995C149.212 13.9959 149.656 13.8846 150.029 13.6612C150.403 13.4285 150.674 13.1022 150.843 12.6825L150.845 11.6465L148.773 11.6431C147.634 11.6413 147.064 12.023 147.063 12.7884C147.062 13.1617 147.206 13.4559 147.495 13.6711C147.784 13.8862 148.186 13.9942 148.699 13.995ZM154.616 7.53667L155.96 7.53886L155.954 10.6889L160.182 10.6958L160.188 7.54576L161.532 7.54796L161.52 14.9679L160.176 14.9658L160.181 11.8578L155.953 11.8509L155.948 14.9589L154.604 14.9567L154.616 7.53667ZM170.845 11.3152C170.845 11.4178 170.835 11.5531 170.816 11.7211L164.796 11.7113C164.879 12.3648 165.163 12.8926 165.648 13.2947C166.142 13.6875 166.753 13.8845 167.481 13.8857C168.367 13.8871 169.082 13.5896 169.624 12.9932L170.365 13.8624C170.028 14.2538 169.608 14.5518 169.103 14.7563C168.608 14.9608 168.053 15.0626 167.437 15.0616C166.653 15.0603 165.958 14.9005 165.351 14.5822C164.745 14.2545 164.275 13.8011 163.94 13.2219C163.614 12.6427 163.452 11.9891 163.453 11.2611C163.454 10.5424 163.614 9.89403 163.932 9.31588C164.26 8.73774 164.704 8.29047 165.264 7.97405C165.834 7.64831 166.474 7.48602 167.183 7.48718C167.892 7.48834 168.522 7.6527 169.072 7.98026C169.632 8.29851 170.065 8.74722 170.372 9.32639C170.688 9.90557 170.846 10.5685 170.845 11.3152ZM167.181 8.62118C166.537 8.62013 165.996 8.81524 165.556 9.20653C165.126 9.59783 164.873 10.1107 164.798 10.7453L169.558 10.7531C169.484 10.1276 169.228 9.61852 168.79 9.22581C168.362 8.82377 167.825 8.62223 167.181 8.62118ZM178.15 8.75108L175.434 8.74665L175.423 14.9906L174.079 14.9884L174.09 8.74445L171.374 8.74002L171.375 7.56402L178.151 7.57508L178.15 8.75108ZM182.172 7.51164C183.199 7.51332 183.982 7.7666 184.523 8.27148C185.072 8.77638 185.347 9.52816 185.345 10.5268L185.338 15.0068L184.064 15.0047L184.065 14.0247C183.841 14.3697 183.518 14.6352 183.098 14.8212C182.687 14.9978 182.197 15.0857 181.628 15.0848C180.797 15.0834 180.13 14.8817 179.627 14.4795C179.132 14.0774 178.886 13.5496 178.887 12.8963C178.888 12.243 179.127 11.7207 179.604 11.3295C180.08 10.9289 180.837 10.7295 181.873 10.7312L184.001 10.7346L184.001 10.4686C184.002 9.88997 183.835 9.44636 183.499 9.13781C183.164 8.82926 182.669 8.67446 182.016 8.67339C181.577 8.67267 181.148 8.74664 180.728 8.89529C180.307 9.0346 179.952 9.22536 179.663 9.46755L179.104 8.45864C179.487 8.15126 179.945 7.91868 180.477 7.76088C181.01 7.59375 181.575 7.51067 182.172 7.51164ZM181.853 14.0491C182.367 14.05 182.81 13.9387 183.184 13.7153C183.557 13.4826 183.829 13.1564 183.997 12.7366L183.999 11.7006L181.927 11.6972C180.788 11.6954 180.218 12.0771 180.217 12.8425C180.217 13.2158 180.361 13.51 180.65 13.7252C180.939 13.9403 181.34 14.0483 181.853 14.0491ZM197.854 9.94524C198.516 10.105 199.015 10.3905 199.35 10.8017C199.695 11.2036 199.867 11.7219 199.866 12.3565C199.865 13.2059 199.551 13.8633 198.925 14.329C198.308 14.7947 197.407 15.0265 196.222 15.0246L191.742 15.0173L191.758 5.21728L195.972 5.22416C197.045 5.22591 197.88 5.44661 198.476 5.88625C199.082 6.31657 199.385 6.93773 199.383 7.74973C199.383 8.28173 199.246 8.73418 198.975 9.10707C198.713 9.47997 198.339 9.75936 197.854 9.94524ZM193.136 9.53154L195.866 9.53599C196.548 9.53711 197.066 9.40262 197.421 9.13253C197.786 8.86246 197.968 8.46609 197.969 7.94342C197.97 7.42076 197.789 7.02379 197.425 6.75253C197.061 6.47194 196.544 6.3311 195.872 6.33L193.142 6.32554L193.136 9.53154ZM196.195 13.9185C197.698 13.921 198.45 13.3622 198.452 12.2422C198.453 11.6822 198.262 11.2712 197.88 11.0093C197.507 10.738 196.947 10.6018 196.201 10.6005L193.135 10.5955L193.129 13.9135L196.195 13.9185ZM204.4 5.23792L204.385 15.0379L202.999 15.0356L203.013 6.45365L200.801 6.45004L200.802 5.23204L204.4 5.23792ZM213.418 13.8346L213.416 15.0526L206.374 15.0412L206.376 14.0892L210.372 10.2457C210.858 9.77979 211.185 9.37899 211.354 9.04327C211.522 8.69821 211.607 8.35301 211.608 8.00768C211.608 7.49435 211.427 7.09739 211.064 6.81679C210.709 6.52688 210.196 6.38138 209.524 6.38028C208.442 6.37851 207.606 6.73182 207.017 7.44019L206.066 6.61264C206.449 6.14659 206.949 5.78341 207.566 5.52308C208.191 5.26277 208.887 5.13324 209.652 5.13449C210.679 5.13616 211.495 5.38483 212.101 5.88048C212.707 6.36681 213.009 7.02997 213.008 7.86997C213.007 8.39263 212.894 8.88712 212.669 9.35342C212.445 9.81972 212.019 10.351 211.393 10.9473L208.392 13.8264L213.418 13.8346ZM222.837 12.66L220.975 12.657L220.971 15.065L219.613 15.0628L219.617 12.6548L214.171 12.6459L214.173 11.6659L219.195 5.26206L220.707 5.26453L215.895 11.4447L219.661 11.4508L219.665 9.32283L220.981 9.32498L220.977 11.453L222.839 11.456L222.837 12.66Z" fill="white"/>
<defs>
<radialGradient id="paint0_radial" cx="0" cy="0" r="1" gradientUnits="userSpaceOnUse" gradientTransform="translate(195.999 224.963) rotate(-90.3867) scale(215.409 215.265)">
<stop stop-color="#C4C4C4"/>
<stop offset="1" stop-color="#C4C4C4" stop-opacity="0"/>
</radialGradient>
</defs>
</svg>
