<svg width="119" height="117" viewBox="0 0 119 117" fill="none" xmlns="http://www.w3.org/2000/svg">
<g filter="url(#filter0_d)">
<ellipse cx="59.4621" cy="57.3311" rx="54.8" ry="51.3482" fill="#4DC7D9"/>
<path d="M68.3268 52.8005C69.1327 55.4386 57.0445 55.0611 54.6268 55.0611C52.2092 55.0611 44.2794 57.704 56.2386 57.704H86.8621C98.8214 57.704 88.954 55.102 87.2651 54.3107C86.4206 53.9151 84.4445 53.1733 84.4445 53.1733C84.4445 53.1733 77.9974 50.9079 86.8621 50.9079C95.7269 50.9079 102.913 50.9127 113.456 50.9127C114.262 52.8005 113.859 54.1295 113.859 56.1938L102.98 58.8367C102.98 58.8367 111.039 61.4844 107.009 61.8572C102.98 62.23 102.83 62.7626 100.159 63.3674C94.001 64.7619 81.6239 65.26 84.4445 67.143C87.2651 69.026 107.009 70.9186 92.9063 70.9186C78.8033 70.9186 62.6113 69.7907 42.9415 69.7907C40.7385 69.7907 37.9904 69.1263 36.8974 70.9186C36.2728 71.9427 37.3683 72.8451 36.8974 73.9391C35.8232 76.4344 30.6074 72.5369 29.6445 75.0717C29.2751 76.0441 30.8533 75.537 29.6445 77.7147C28.4356 79.8924 8.69152 77.7147 8.69152 77.7147C5.87093 70.9186 5.46799 67.9029 4.66211 59.9694C4.66211 59.9694 16.1367 63.0371 23.6004 62.6123C26.7769 62.4315 28.8267 62.9541 31.6592 61.4796L38.9121 57.704C38.9121 57.704 44.2864 55.7788 44.1504 53.1733C43.9824 49.9569 35.6886 50.9079 35.6886 50.9079C35.6886 50.9079 28.5096 50.337 25.6151 47.5099C24.6779 46.5946 19.9739 44.8644 23.6004 44.867C27.2268 44.8695 53.3159 44.4941 72.3563 44.4941C74.0872 44.4941 76.3857 45.2445 77.5945 46.3819C78.8033 47.5194 77.1916 46.3867 75.5798 47.1371C73.968 47.8874 71.5438 47.2076 68.7298 47.5099C65.5069 47.8561 61.1081 47.5542 60.671 48.2697C59.0592 50.9079 67.521 50.1623 68.3268 52.8005Z" fill="#85E9F2" fill-opacity="0.58"/>
<path d="M14.3338 84.1898C17.1544 82.6796 23.7339 85.3568 29.5393 86.0776C35.5406 86.8227 38.8422 89.0316 44.8511 88.343C48.2624 87.952 53.3129 86.0776 53.3129 86.0776L45.657 84.1898L56.5364 81.5469L67.8188 79.6591L52.104 75.8835L54.5217 73.6181C54.5217 73.6181 105.695 72.1077 102.875 74.7508C100.054 77.3939 101.501 77.1543 100.054 78.1488C98.5691 79.1698 97.2043 78.7762 95.6217 79.6591C91.295 82.0727 109.725 77.7713 108.516 79.6591C107.307 81.5469 104.8 87.7636 100.054 90.6083C94.3291 94.0396 82.9795 92.2907 81.9908 92.13C82.2101 92.1853 82.935 92.5072 83.9364 94.3839C85.1452 96.6493 51.8466 94.4845 54.5217 95.5166L61.3717 98.1595C64.0468 99.1917 38.9132 104.851 31.6603 101.506C24.4073 98.1595 11.5132 85.7 14.3338 84.1898Z" fill="#85E9F2" fill-opacity="0.58"/>
<path d="M88.072 40.3403C89.0794 40.3403 91.7568 40.5333 92.2466 39.9637C92.6413 39.5048 93.1977 38.8339 92.2466 38.4545C91.2956 38.075 81.4328 39.3386 80.6522 38.4545L78.6531 36.1905C77.8724 35.3064 81.8516 34.3039 83.8506 34.3039C85.8497 34.3039 81.0071 32.2941 75.4546 32.7947C69.9022 33.2953 66.3964 33.2073 58.2628 31.2854C50.1292 29.3635 48.4204 31.6113 42.2704 32.7947C37.3319 33.7449 34.7659 35.037 29.8763 36.1905C21.4086 38.1883 7.88672 39.9637 7.88672 39.9637L11.0852 32.7947L20.6806 31.2854L22.2799 27.8895H31.0757H37.8725V26.3803L33.4746 23.739H36.673H47.8677C54.7377 23.739 58.6523 22.8639 65.4594 23.739C67.9778 24.0628 74.2552 22.6071 71.8563 24.871C69.4575 27.1349 61.8611 28.2669 67.4584 29.0215C73.0558 29.7761 76.4673 29.6574 82.2514 29.7761C86.1539 29.8563 88.3587 29.4485 92.2466 29.7761C95.8772 30.0821 102.242 29.7761 101.442 31.2854C100.643 32.7947 96.9947 33.1251 98.2438 34.3039C99.127 35.1375 101.33 34.2554 102.578 34.3039C105.093 34.4018 106.607 33.7588 108.219 35.0545C109.443 36.0382 109.831 37.3218 110.234 38.4545C110.637 39.5871 112.249 41.473 110.637 41.473H89.0482C85.8497 41.473 87.2878 40.3403 88.072 40.3403Z" fill="#85E9F2" fill-opacity="0.58"/>
<path d="M103.425 26.3712C104.231 27.8814 96.4565 26.677 91.854 25.6931C90.7372 25.4544 89.6552 25.8396 89.0335 24.938C88.521 24.195 91.4511 23.0502 89.0335 22.6726C86.6158 22.2951 75.0837 20.5388 66.0658 20.4073C65.7503 20.4027 65.6261 20.3999 65.5838 20.3985C65.5015 20.4012 64.9306 20.4073 62.0364 20.4073C56.3952 20.4073 69.9879 18.1888 68.8864 17.0092L66.0658 13.9888C66.0658 13.9888 43.0981 12.101 44.307 13.9888C45.5158 15.8766 47.8696 15.3716 47.5305 17.0092C47.1797 18.7035 44.882 18.09 43.0981 18.5195C38.5259 19.6203 33.8305 19.4936 31.0099 18.5195C28.1893 17.5454 25.7724 17.0093 26.5779 16.2541C27.7869 15.499 30.2044 13.6112 32.6216 12.4785C34.5819 11.5599 35.709 14.3836 37.8599 13.9888C39.9375 13.6074 39.9486 11.3834 41.8893 10.5907C44.3416 9.58912 48.7393 10.5907 48.7393 10.5907C48.7393 10.5907 78.3107 9.53514 82.1834 10.5908C86.0562 11.6464 93.0629 16.6317 93.0629 16.6317C93.0629 16.6317 90.377 16.1233 89.0335 17.0092C88.3055 17.4892 85.407 18.1419 87.4217 18.5195C89.4364 18.897 90.3259 19.4238 92.257 19.6522C94.2865 19.8922 97.3386 20.4073 97.3386 20.4073C97.3386 20.4073 102.619 24.861 103.425 26.3712Z" fill="#85E9F2" fill-opacity="0.58"/>
<path d="M90.8927 15.0449C84.5534 10.6386 72.3574 7.49365 72.3574 7.49365C72.3574 7.49365 78.7065 13.8473 82.028 18.4429C85.3448 23.0321 86.8817 25.8363 89.281 30.9024C91.5823 35.7617 92.9405 38.5386 94.1162 43.7394C95.0994 48.0884 95.0781 50.6268 95.3251 55.0663C95.5954 59.9254 95.8391 62.6839 95.3251 67.5257C94.7354 73.0799 94.4214 76.3546 92.1015 81.4955C90.6193 84.7802 89.9604 85.9503 88.0721 89.0467C85.5544 93.1752 83.8453 96.1788 80.8192 99.9959C78.6918 102.679 73.1633 106.792 73.1633 106.792C73.1633 106.792 80.8564 104.479 84.4457 102.639C89.0842 100.261 91.3995 98.4065 95.3251 95.0877C99.7105 91.38 102.237 89.1911 105.399 84.516C109.105 79.0344 110.224 75.345 111.846 69.036C113.73 61.7027 114.505 57.2591 113.457 49.7804C112.531 43.1693 111.226 39.3977 107.816 33.5453C105.388 29.3778 103.455 27.3362 100.16 23.7287C96.8324 20.085 95.0036 17.9022 90.8927 15.0449Z" fill="#818181" fill-opacity="0.47"/>
<ellipse rx="30.8977" ry="22.6097" transform="matrix(0.703835 -0.710364 0.753937 0.656946 42.6501 37.4814)" fill="white" fill-opacity="0.35"/>
<ellipse rx="18.5461" ry="16.4169" transform="matrix(0.704127 -0.710073 0.754205 0.656639 47.0274 31.4424)" fill="white" fill-opacity="0.31"/>
<ellipse rx="11.3038" ry="9.8738" transform="matrix(0.704127 -0.710073 0.754205 0.656639 49.8861 25.7783)" fill="white" fill-opacity="0.33"/>
</g>
<defs>
<filter id="filter0_d" x="0.662109" y="5.98291" width="117.6" height="110.696" filterUnits="userSpaceOnUse" color-interpolation-filters="sRGB">
<feFlood flood-opacity="0" result="BackgroundImageFix"/>
<feColorMatrix in="SourceAlpha" type="matrix" values="0 0 0 0 0 0 0 0 0 0 0 0 0 0 0 0 0 0 127 0"/>
<feOffset dy="4"/>
<feGaussianBlur stdDeviation="2"/>
<feColorMatrix type="matrix" values="0 0 0 0 0 0 0 0 0 0 0 0 0 0 0 0 0 0 0.25 0"/>
<feBlend mode="normal" in2="BackgroundImageFix" result="effect1_dropShadow"/>
<feBlend mode="normal" in="SourceGraphic" in2="effect1_dropShadow" result="shape"/>
</filter>
</defs>
</svg>
