<svg width="351" height="248" viewBox="0 0 351 248" fill="none" xmlns="http://www.w3.org/2000/svg">
<path d="M164.041 213.533C114.917 207.725 79.7968 163.167 85.5985 114.009C91.4001 64.8515 135.927 29.7104 185.051 35.5185C234.175 41.3266 269.295 85.8846 263.494 135.042C257.692 184.2 213.166 219.341 164.041 213.533Z" fill="url(#paint0_radial)" fill-opacity="0.31" stroke="white"/>
<path d="M349.224 212.127C349.193 231.208 333.709 246.651 314.642 246.619C295.574 246.588 280.141 231.095 280.172 212.014C280.203 192.933 295.686 177.49 314.754 177.521C333.822 177.553 349.255 193.046 349.224 212.127Z" fill="#916C5A" stroke="white"/>
<path d="M349.509 35.883C349.479 54.9642 333.996 70.4063 314.928 70.3747C295.861 70.343 280.427 54.8496 280.458 35.7684C280.489 16.6872 295.971 1.24512 315.039 1.27677C334.107 1.30842 349.54 16.8019 349.509 35.883Z" fill="black" stroke="white"/>
<path d="M70.3038 35.4291C70.2727 54.5103 54.7895 69.9528 35.7218 69.9217C16.654 69.8906 1.22127 54.3977 1.2524 35.3165C1.28352 16.2353 16.7668 0.792745 35.8345 0.823838C54.9022 0.854931 70.335 16.3479 70.3038 35.4291Z" fill="#F06683" stroke="white"/>
<path d="M70.0173 211.673C69.9862 230.754 54.503 246.197 35.4352 246.166C16.3675 246.135 0.93473 230.642 0.965828 211.561C0.996925 192.479 16.4801 177.037 35.5479 177.068C54.6156 177.099 70.0484 192.592 70.0173 211.673Z" fill="#686868" stroke="white"/>
<path d="M13.4902 39.2437C12.9217 38.3227 12.4834 37.267 12.1753 36.0765C11.8672 34.876 11.7143 33.5907 11.7165 32.2207C11.7187 30.8507 11.8758 29.566 12.1877 28.3665C12.4997 27.157 12.9414 26.1027 13.5128 25.2037L14.8778 25.2059C14.2761 26.255 13.8344 27.3542 13.5525 28.5038C13.2706 29.6533 13.1286 30.8931 13.1265 32.2231C13.1244 33.5531 13.2624 34.7933 13.5405 35.9438C13.8187 37.0942 14.2569 38.1949 14.8552 39.2459L13.4902 39.2437ZM21.1904 36.4584C20.2104 36.4568 19.3241 36.2406 18.5314 35.81C17.7482 35.37 17.1331 34.7717 16.6863 34.0149C16.2396 33.2489 16.017 32.3898 16.0185 31.4378C16.02 30.4858 16.2454 29.6322 16.6946 28.8769C17.1438 28.1124 17.7655 27.516 18.5595 27.088C19.3535 26.6507 20.2406 26.4328 21.2206 26.4344C21.9859 26.4357 22.6857 26.5675 23.3199 26.8299C23.9542 27.0829 24.4949 27.4618 24.9421 27.9666L24.0307 28.8471C23.2946 28.0712 22.3759 27.6823 21.2745 27.6805C20.5465 27.6793 19.8883 27.8415 19.2998 28.1672C18.7112 28.4929 18.2485 28.9448 17.9116 29.523C17.584 30.0918 17.4196 30.7308 17.4185 31.4401C17.4173 32.1495 17.5796 32.7937 17.9054 33.373C18.2405 33.9428 18.7017 34.3916 19.2892 34.7192C19.8767 35.0469 20.5344 35.2113 21.2624 35.2125C22.3544 35.2143 23.2744 34.8238 24.0223 34.041L24.9309 34.9245C24.4821 35.4278 23.9355 35.8096 23.291 36.0698C22.6559 36.3301 21.9557 36.4596 21.1904 36.4584ZM29.5932 36.4442C28.8558 36.443 28.1934 36.2786 27.606 35.951C27.0185 35.6233 26.5572 35.1746 26.2221 34.6047C25.8964 34.0255 25.7341 33.3719 25.7353 32.6439C25.7365 31.9159 25.9008 31.2675 26.2284 30.6987C26.5654 30.1206 27.0281 29.6733 27.6166 29.357C28.2051 29.0313 28.868 28.869 29.6054 28.8703C30.3427 28.8715 31.0004 29.0359 31.5786 29.3635C32.1661 29.6818 32.6227 30.1306 32.9484 30.7098C33.2835 31.2797 33.4505 31.9286 33.4493 32.6566C33.4481 33.3846 33.2791 34.0377 32.9421 34.6158C32.6145 35.1846 32.1565 35.6318 31.568 35.9575C30.9888 36.2832 30.3305 36.4455 29.5932 36.4442ZM29.5951 35.2682C30.0711 35.269 30.4959 35.1624 30.8696 34.9483C31.2526 34.725 31.5518 34.4175 31.7671 34.0258C31.9824 33.6249 32.0905 33.1677 32.0913 32.6544C32.0921 32.141 31.9855 31.6882 31.7715 31.2958C31.5575 30.8941 31.2593 30.5857 30.877 30.3704C30.504 30.1551 30.0795 30.047 29.6035 30.0463C29.1275 30.0455 28.698 30.1521 28.315 30.3661C27.9413 30.5802 27.6421 30.8877 27.4175 31.2886C27.2022 31.6803 27.0941 32.1328 27.0933 32.6461C27.0925 33.1594 27.1991 33.617 27.4131 34.0186C27.6364 34.411 27.9346 34.7195 28.3076 34.9441C28.6899 35.1594 29.1191 35.2675 29.5951 35.2682ZM34.4716 39.0843C35.0332 38.1052 35.4455 37.0792 35.7086 36.0063C35.981 34.9335 36.1182 33.7763 36.1202 32.535C36.1222 31.2937 35.9887 30.1361 35.7198 29.0623C35.4602 27.9886 35.0512 26.9612 34.4928 25.9803L35.7668 25.9824C36.3067 26.8233 36.7205 27.804 37.008 28.9245C37.2955 30.0449 37.4383 31.2492 37.4362 32.5372C37.4341 33.8158 37.2875 35.0149 36.9964 36.1345C36.7053 37.254 36.2883 38.238 35.7456 39.0864L34.4716 39.0843ZM43.1916 30.6987C44.1528 30.7936 44.885 31.0935 45.3882 31.5983C45.8914 32.0938 46.1424 32.7289 46.1411 33.5036C46.1402 34.0636 45.9994 34.572 45.7187 35.0289C45.4379 35.4764 45.0174 35.835 44.4569 36.1048C43.9058 36.3652 43.229 36.4947 42.4263 36.4934C41.7263 36.4923 41.0545 36.3885 40.4108 36.1821C39.7671 35.9664 39.2403 35.6715 38.8302 35.2975L39.476 34.1926C39.8115 34.5104 40.2404 34.7678 40.7628 34.9647C41.2851 35.1522 41.8403 35.2465 42.4283 35.2474C43.1563 35.2486 43.7212 35.0956 44.123 34.7882C44.5342 34.4809 44.7402 34.0566 44.7411 33.5152C44.742 32.9739 44.542 32.5536 44.1411 32.2542C43.7403 31.9549 43.1339 31.8046 42.3219 31.8032L41.5379 31.802L41.5394 30.822L44.0083 27.802L39.2903 27.7942L39.2923 26.5762L45.7603 26.5869L45.7587 27.5389L43.1916 30.6987ZM49.4408 31.857C48.7594 31.8559 48.2092 31.6076 47.79 31.1123C47.3708 30.6169 47.1618 29.9726 47.1631 29.1792C47.1644 28.3859 47.3754 27.7422 47.7962 27.2483C48.217 26.7543 48.7681 26.5079 49.4494 26.509C50.1307 26.5101 50.6763 26.7584 51.0862 27.2537C51.5054 27.7397 51.7144 28.3841 51.7131 29.1867C51.7118 29.9894 51.5007 30.6377 51.0799 31.1317C50.6685 31.6164 50.1221 31.8581 49.4408 31.857ZM55.3573 26.6028L56.4353 26.6045L49.7275 36.3935L48.6495 36.3917L55.3573 26.6028ZM49.4421 31.059C49.8714 31.0597 50.2077 30.8969 50.4509 30.5707C50.6941 30.2351 50.8161 29.7733 50.8171 29.1853C50.818 28.5973 50.6974 28.1397 50.4553 27.8127C50.2132 27.4763 49.8774 27.3077 49.4481 27.307C49.0281 27.3063 48.6918 27.4738 48.4393 27.8093C48.1961 28.1449 48.074 28.6021 48.0731 29.1807C48.0722 29.7594 48.1928 30.2169 48.4349 30.5533C48.6863 30.8897 49.0221 31.0583 49.4421 31.059ZM55.6353 36.4872C54.954 36.4861 54.4037 36.2425 53.9845 35.7565C53.5746 35.2612 53.3703 34.6122 53.3716 33.8095C53.3729 33.0068 53.5793 32.3632 53.9907 31.8785C54.4115 31.3845 54.9626 31.1381 55.6439 31.1392C56.3253 31.1404 56.8755 31.3886 57.2947 31.884C57.7139 32.3793 57.9229 33.0237 57.9216 33.817C57.9204 34.6103 57.7093 35.254 57.2885 35.748C56.8677 36.2419 56.3167 36.4883 55.6353 36.4872ZM55.6366 35.6892C56.0566 35.6899 56.3882 35.5225 56.6314 35.1869C56.884 34.8513 57.0107 34.3942 57.0116 33.8155C57.0126 33.2368 56.8873 32.7793 56.6358 32.4429C56.3937 32.1065 56.0627 31.9379 55.6427 31.9372C55.2133 31.9365 54.8771 32.104 54.6338 32.4396C54.3907 32.7658 54.2686 33.223 54.2676 33.811C54.2667 34.399 54.3873 34.8612 54.6294 35.1976C54.8715 35.5246 55.2073 35.6885 55.6366 35.6892ZM15.2638 46.7626L13.9438 46.7604L13.9396 49.3344L13.1586 49.3331L13.168 43.5471L13.949 43.5484L13.9449 46.0894L15.2759 46.0916L17.3149 43.554L18.1619 43.5554L15.8804 46.3566L18.3176 49.3417L17.3936 49.3401L15.2638 46.7626ZM21.733 49.4023C21.1757 49.4014 20.6736 49.2759 20.2266 49.0258C19.7797 48.7684 19.4283 48.4158 19.1723 47.9681C18.9164 47.5203 18.7889 47.0141 18.7898 46.4494C18.7907 45.8848 18.9198 45.379 19.1772 44.9321C19.4346 44.4852 19.7872 44.1374 20.2349 43.8888C20.6826 43.6402 21.1852 43.5164 21.7425 43.5173C22.2998 43.5182 22.802 43.6437 23.2489 43.8938C23.6958 44.1439 24.0436 44.4928 24.2922 44.9405C24.5482 45.3883 24.6757 45.8945 24.6748 46.4591C24.6739 47.0238 24.5447 47.5296 24.2873 47.9765C24.0373 48.4234 23.6884 48.7749 23.2406 49.0308C22.7929 49.2794 22.2904 49.4032 21.733 49.4023ZM21.7341 48.7093C22.1448 48.71 22.5116 48.6189 22.8346 48.4361C23.1649 48.246 23.422 47.9787 23.6059 47.6344C23.7898 47.29 23.8821 46.8978 23.8828 46.4578C23.8835 46.0178 23.7925 45.6254 23.6097 45.2804C23.4269 44.9354 23.1707 44.671 22.8409 44.4871C22.5186 44.2959 22.1521 44.2 21.7414 44.1993C21.3307 44.1986 20.9603 44.2933 20.63 44.4835C20.307 44.6663 20.0499 44.9298 19.8587 45.2742C19.6748 45.6186 19.5825 46.0107 19.5818 46.4507C19.5811 46.8907 19.6721 47.2832 19.8549 47.6282C20.045 47.9732 20.3012 48.2413 20.6236 48.4325C20.9533 48.6163 21.3235 48.7086 21.7341 48.7093ZM22.5291 41.3076L23.5741 41.3093L21.7899 42.6704L21.0199 42.6691L22.5291 41.3076ZM29.1534 43.7165C29.6887 43.7174 30.1652 43.8392 30.5828 44.0819C31.0077 44.3173 31.3372 44.6515 31.5712 45.0845C31.8051 45.5102 31.9217 45.9981 31.9208 46.5481C31.9199 47.1128 31.7944 47.6149 31.5444 48.0545C31.3017 48.4867 30.9601 48.8235 30.5197 49.0648C30.0794 49.3061 29.5732 49.4262 29.0012 49.4253C28.0405 49.4237 27.2967 49.0851 26.7698 48.4096C26.2429 47.7341 25.9804 46.8023 25.9823 45.6143C25.9843 44.375 26.2205 43.4257 26.6909 42.7665C27.1686 42.1073 27.91 41.6611 28.9151 41.4281L31.512 40.8384L31.6429 41.5536L29.2 42.1106C28.371 42.2926 27.7618 42.6179 27.3724 43.0866C26.983 43.5479 26.7692 44.2333 26.7311 45.1425C26.9665 44.6956 27.2933 44.3478 27.7117 44.0992C28.1302 43.8432 28.6107 43.7156 29.1534 43.7165ZM29.0242 48.7763C29.4275 48.777 29.787 48.6859 30.1027 48.5031C30.4256 48.313 30.6754 48.0494 30.8519 47.7123C31.0358 47.3753 31.1281 46.9941 31.1288 46.5688C31.1295 46.1435 31.0421 45.7693 30.8666 45.4464C30.6911 45.1234 30.4422 44.8737 30.1198 44.6971C29.8047 44.5133 29.4419 44.421 29.0312 44.4203C28.6206 44.4197 28.2537 44.5107 27.9308 44.6935C27.6152 44.869 27.3654 45.1179 27.1816 45.4403C27.0051 45.7627 26.9165 46.1365 26.9158 46.5618C26.9151 46.9872 27.0025 47.3687 27.1779 47.7063C27.3607 48.0439 27.6133 48.3083 27.9357 48.4995C28.258 48.6834 28.6209 48.7757 29.0242 48.7763ZM35.5584 43.5401C36.3137 43.5413 36.8928 43.733 37.2955 44.115C37.6982 44.4896 37.899 45.0473 37.8978 45.788L37.892 49.374L37.144 49.3727L37.1455 48.4707C36.969 48.7711 36.7083 49.0053 36.3633 49.1734C36.0257 49.3415 35.6223 49.4252 35.1529 49.4244C34.5076 49.4234 33.9945 49.2685 33.6137 48.9599C33.2328 48.6513 33.0428 48.244 33.0436 47.738C33.0444 47.2466 33.2211 46.8509 33.5736 46.5508C33.9334 46.2508 34.5019 46.1014 35.2793 46.1026L37.1163 46.1057L37.1168 45.7537C37.1176 45.255 36.9789 44.8771 36.7007 44.62C36.4224 44.3555 36.0156 44.2229 35.4803 44.222C35.1136 44.2214 34.7615 44.2831 34.424 44.4072C34.0865 44.524 33.7966 44.6885 33.5542 44.9008L33.2032 44.3172C33.4969 44.0684 33.8492 43.8783 34.2601 43.747C34.671 43.6083 35.1037 43.5393 35.5584 43.5401ZM35.2749 48.8086C35.7149 48.8094 36.0927 48.711 36.4084 48.5135C36.7241 48.3087 36.9592 48.0158 37.1138 47.6347L37.1153 46.6887L35.3003 46.6857C34.3103 46.684 33.8148 47.0279 33.8137 47.7172C33.8131 48.0546 33.941 48.3224 34.1974 48.5209C34.4537 48.712 34.8129 48.8079 35.2749 48.8086ZM44.7104 43.5992L44.7011 49.3852L43.9201 49.3839L43.9283 44.2909L41.1563 44.2863L41.077 45.7162C41.0164 46.9188 40.8756 47.8425 40.6545 48.4875C40.4335 49.1325 40.0406 49.4545 39.476 49.4536C39.322 49.4533 39.135 49.4237 38.9151 49.3646L38.9712 48.6937C39.1031 48.7233 39.1948 48.7381 39.2461 48.7382C39.5468 48.7387 39.7743 48.5997 39.9288 48.3213C40.0832 48.0429 40.1865 47.6984 40.2385 47.2878C40.2905 46.8772 40.3353 46.3347 40.3731 45.66L40.4754 43.5922L44.7104 43.5992ZM49.4133 45.653C50.1393 45.6615 50.689 45.8237 51.0625 46.1397C51.4433 46.4557 51.6333 46.9106 51.6323 47.5046C51.6313 48.1206 51.4252 48.5933 51.014 48.9226C50.6102 49.2519 50.0232 49.4123 49.2533 49.4037L46.9213 49.3889L46.9306 43.6029L47.7116 43.6042L47.7083 45.6282L49.4133 45.653ZM49.2102 48.8096C49.7455 48.8179 50.149 48.7122 50.4207 48.4926C50.6998 48.2658 50.8396 47.936 50.8403 47.5033C50.841 47.078 50.7058 46.7624 50.4348 46.5567C50.1638 46.3509 49.757 46.2439 49.2144 46.2356L47.7074 46.2112L47.7033 48.7852L49.2102 48.8096ZM56.6176 44.3119L54.4286 44.3082L54.4204 49.4012L53.6394 49.3999L53.6476 44.307L51.4586 44.3033L51.4598 43.6103L56.6188 43.6189L56.6176 44.3119Z" fill="white"/>
<path d="M17.1057 210.736C16.5751 209.876 16.166 208.891 15.8785 207.78C15.591 206.659 15.4483 205.46 15.4504 204.181C15.4525 202.903 15.5991 201.703 15.8902 200.584C16.1814 199.455 16.5937 198.471 17.1271 197.632L18.4011 197.634C17.8395 198.613 17.4271 199.639 17.164 200.712C16.901 201.785 16.7684 202.942 16.7664 204.183C16.7644 205.425 16.8931 206.582 17.1527 207.656C17.4123 208.73 17.8213 209.757 18.3797 210.738L17.1057 210.736ZM24.7247 208.144C23.7354 208.143 22.8444 207.927 22.0518 207.496C21.2592 207.056 20.6348 206.453 20.1787 205.687C19.732 204.921 19.5094 204.067 19.5109 203.124C19.5124 202.181 19.7378 201.328 20.1871 200.563C20.6457 199.798 21.272 199.202 22.066 198.774C22.8601 198.337 23.7517 198.119 24.7411 198.12C25.7211 198.122 26.6074 198.343 27.4 198.783C28.1926 199.213 28.8123 199.812 29.2591 200.578C29.7058 201.334 29.9284 202.189 29.9269 203.141C29.9253 204.093 29.6999 204.951 29.2507 205.716C28.8015 206.471 28.1798 207.067 27.3858 207.505C26.5917 207.933 25.7047 208.146 24.7247 208.144ZM24.7268 206.898C25.4454 206.9 26.0897 206.737 26.6596 206.412C27.2388 206.086 27.6922 205.639 28.0198 205.07C28.3567 204.492 28.5257 203.848 28.5269 203.139C28.5281 202.429 28.3611 201.79 28.026 201.22C27.7003 200.641 27.2484 200.187 26.6702 199.86C26.1014 199.532 25.4577 199.368 24.739 199.366C24.0204 199.365 23.3668 199.527 22.7782 199.853C22.199 200.179 21.741 200.631 21.404 201.209C21.0764 201.778 20.9121 202.417 20.9109 203.126C20.9098 203.835 21.072 204.48 21.3978 205.059C21.7328 205.629 22.1894 206.078 22.7676 206.405C23.355 206.733 24.0081 206.897 24.7268 206.898ZM31.1964 210.759C31.758 209.78 32.1703 208.754 32.4334 207.681C32.7058 206.608 32.843 205.451 32.845 204.21C32.8471 202.968 32.7136 201.811 32.4447 200.737C32.1851 199.663 31.7761 198.636 31.2177 197.655L32.4917 197.657C33.0317 198.498 33.4454 199.479 33.7329 200.599C34.0204 201.72 34.1631 202.924 34.161 204.212C34.1589 205.49 34.0123 206.69 33.7212 207.809C33.43 208.929 33.0131 209.913 32.4704 210.761L31.1964 210.759ZM43.0452 206.844L43.0432 208.062L36.0012 208.051L36.0028 207.099L39.9991 203.255C40.4852 202.789 40.8125 202.389 40.981 202.053C41.1496 201.708 41.2342 201.363 41.2347 201.017C41.2356 200.504 41.0542 200.107 40.6907 199.826C40.3365 199.537 39.8234 199.391 39.1514 199.39C38.0687 199.388 37.2328 199.741 36.6436 200.45L35.693 199.622C36.0764 199.156 36.5763 198.793 37.1928 198.533C37.8185 198.272 38.5141 198.143 39.2794 198.144C40.3061 198.146 41.1223 198.394 41.7282 198.89C42.3341 199.376 42.6363 200.04 42.6349 200.88C42.6341 201.402 42.5213 201.897 42.2965 202.363C42.0718 202.829 41.6462 203.361 41.0199 203.957L38.0192 206.836L43.0452 206.844ZM46.4664 203.532C45.7851 203.531 45.2348 203.283 44.8156 202.787C44.3964 202.292 44.1875 201.647 44.1888 200.854C44.1901 200.061 44.4011 199.417 44.8219 198.923C45.2427 198.429 45.7938 198.183 46.4751 198.184C47.1565 198.185 47.7021 198.433 48.1119 198.929C48.5311 199.415 48.7401 200.059 48.7388 200.862C48.7375 201.664 48.5264 202.313 48.1056 202.807C47.6941 203.291 47.1477 203.533 46.4664 203.532ZM52.383 198.277L53.461 198.279L46.753 208.068L45.675 208.067L52.383 198.277ZM46.4677 202.734C46.897 202.735 47.2333 202.572 47.4765 202.245C47.7197 201.91 47.8418 201.448 47.8428 200.86C47.8437 200.272 47.7231 199.815 47.481 199.487C47.2389 199.151 46.9032 198.983 46.4738 198.982C46.0538 198.981 45.7176 199.149 45.465 199.484C45.2218 199.82 45.0997 200.277 45.0988 200.856C45.0978 201.434 45.2184 201.892 45.4605 202.228C45.712 202.565 46.0477 202.733 46.4677 202.734ZM52.6609 208.162C51.9795 208.161 51.4293 207.917 51.0101 207.431C50.6002 206.936 50.3959 206.287 50.3972 205.484C50.3985 204.682 50.6049 204.038 51.0164 203.553C51.4372 203.059 51.9883 202.813 52.6696 202.814C53.3509 202.815 53.9012 203.063 54.3204 203.559C54.7396 204.054 54.9485 204.698 54.9472 205.492C54.9459 206.285 54.7349 206.929 54.3141 207.423C53.8933 207.917 53.3422 208.163 52.6609 208.162ZM52.6622 207.364C53.0822 207.365 53.4138 207.197 53.657 206.862C53.9095 206.526 54.0363 206.069 54.0372 205.49C54.0382 204.912 53.9129 204.454 53.6615 204.118C53.4193 203.781 53.0883 203.613 52.6683 203.612C52.239 203.611 51.9027 203.779 51.6595 204.114C51.4163 204.441 51.2942 204.898 51.2932 205.486C51.2923 206.074 51.4129 206.536 51.655 206.872C51.8971 207.199 52.2328 207.363 52.6622 207.364ZM10.191 218.435L8.87098 218.433L8.86679 221.007L8.08579 221.005L8.09522 215.219L8.87622 215.221L8.87208 217.762L10.2031 217.764L12.2422 215.226L13.0892 215.227L10.8076 218.029L13.2448 221.014L12.3208 221.012L10.191 218.435ZM14.4868 215.23L15.2678 215.231L15.2603 219.829L19.1288 215.237L19.8218 215.238L19.8124 221.024L19.0314 221.023L19.0389 216.425L15.1814 221.017L14.4774 221.016L14.4868 215.23ZM24.4705 221.087C23.8985 221.086 23.3854 220.961 22.9311 220.71C22.4842 220.46 22.1328 220.111 21.8768 219.664C21.6209 219.209 21.4934 218.699 21.4943 218.134C21.4953 217.569 21.6244 217.064 21.8818 216.617C22.1392 216.17 22.4918 215.822 22.9395 215.573C23.3946 215.325 23.9081 215.201 24.4801 215.202C24.9788 215.203 25.4223 215.303 25.8106 215.501C26.2063 215.692 26.5175 215.975 26.7442 216.35L26.1606 216.745C25.9704 216.458 25.7287 216.245 25.4356 216.106C25.1425 215.958 24.8237 215.885 24.479 215.884C24.061 215.883 23.6832 215.978 23.3455 216.168C23.0152 216.351 22.7545 216.615 22.5632 216.959C22.3794 217.303 22.287 217.695 22.2863 218.135C22.2856 218.583 22.3766 218.979 22.5594 219.324C22.7495 219.661 23.0094 219.926 23.3391 220.117C23.6761 220.301 24.0537 220.393 24.4717 220.394C24.8163 220.395 25.1354 220.325 25.429 220.187C25.7226 220.048 25.9649 219.835 26.156 219.55L26.7384 219.947C26.5104 220.32 26.1983 220.606 25.802 220.803C25.4057 220.993 24.9619 221.088 24.4705 221.087ZM32.7949 215.26L32.7855 221.046L32.0045 221.044L32.0128 215.951L29.2408 215.947L29.1615 217.377C29.1008 218.579 28.96 219.503 28.7389 220.148C28.5179 220.793 28.125 221.115 27.5604 221.114C27.4064 221.114 27.2194 221.084 26.9995 221.025L27.0556 220.354C27.1876 220.384 27.2792 220.399 27.3305 220.399C27.6312 220.399 27.8588 220.26 28.0132 219.982C28.1677 219.703 28.2709 219.359 28.3229 218.948C28.3749 218.538 28.4198 217.995 28.4576 217.32L28.5599 215.253L32.7949 215.26ZM37.3926 221.108C36.8353 221.107 36.3331 220.982 35.8862 220.732C35.4393 220.474 35.0879 220.122 34.8319 219.674C34.576 219.226 34.4485 218.72 34.4494 218.155C34.4503 217.591 34.5795 217.085 34.8369 216.638C35.0943 216.191 35.4468 215.843 35.8946 215.595C36.3423 215.346 36.8448 215.222 37.4022 215.223C37.9595 215.224 38.4616 215.349 38.9086 215.6C39.3555 215.85 39.7033 216.198 39.9519 216.646C40.2078 217.094 40.3353 217.6 40.3344 218.165C40.3335 218.73 40.2043 219.235 39.9469 219.682C39.6969 220.129 39.3479 220.481 38.9002 220.737C38.4525 220.985 37.9499 221.109 37.3926 221.108ZM37.3937 220.415C37.8044 220.416 38.1712 220.325 38.4942 220.142C38.8245 219.952 39.0816 219.684 39.2655 219.34C39.4494 218.996 39.5417 218.604 39.5424 218.164C39.5431 217.724 39.4521 217.331 39.2693 216.986C39.0865 216.641 38.8303 216.377 38.5006 216.193C38.1782 216.002 37.8117 215.906 37.4011 215.905C36.9904 215.904 36.6199 215.999 36.2896 216.189C35.9666 216.372 35.7095 216.636 35.5183 216.98C35.3344 217.324 35.2421 217.717 35.2414 218.157C35.2407 218.597 35.3317 218.989 35.5145 219.334C35.7046 219.679 35.9608 219.947 36.2832 220.138C36.6129 220.322 36.983 220.414 37.3937 220.415ZM44.9893 215.235C45.532 215.236 46.0231 215.362 46.4627 215.612C46.9023 215.855 47.2464 216.2 47.495 216.648C47.7436 217.095 47.8675 217.605 47.8665 218.177C47.8656 218.756 47.7401 219.27 47.49 219.717C47.24 220.163 46.8947 220.511 46.4543 220.76C46.0213 221.001 45.5297 221.121 44.9797 221.12C44.5104 221.12 44.0852 221.024 43.7042 220.832C43.3305 220.634 43.023 220.347 42.7816 219.973L42.7764 223.196L41.9954 223.195L42.0083 215.275L42.7563 215.276L42.7544 216.42C42.9897 216.039 43.2982 215.746 43.6798 215.541C44.0688 215.337 44.5053 215.235 44.9893 215.235ZM44.9259 220.427C45.3292 220.428 45.696 220.337 46.0263 220.154C46.3566 219.964 46.6137 219.697 46.7976 219.352C46.9889 219.008 47.0848 218.616 47.0855 218.176C47.0863 217.736 46.9916 217.347 46.8014 217.009C46.6187 216.664 46.3624 216.396 46.0328 216.205C45.7031 216.014 45.3366 215.918 44.9332 215.917C44.5226 215.917 44.1521 216.011 43.8218 216.202C43.4988 216.392 43.2417 216.659 43.0504 217.003C42.8666 217.34 42.7743 217.729 42.7735 218.169C42.7728 218.609 42.8639 219.001 43.0466 219.346C43.2367 219.691 43.493 219.959 43.8153 220.151C44.145 220.334 44.5152 220.427 44.9259 220.427ZM51.9267 221.132C51.3694 221.131 50.8673 221.005 50.4204 220.755C49.9734 220.498 49.622 220.145 49.3661 219.698C49.1101 219.25 48.9826 218.744 48.9836 218.179C48.9845 217.614 49.1136 217.109 49.371 216.662C49.6284 216.215 49.981 215.867 50.4287 215.618C50.8765 215.37 51.379 215.246 51.9363 215.247C52.4937 215.248 52.9958 215.373 53.4427 215.623C53.8897 215.873 54.2374 216.222 54.486 216.67C54.742 217.118 54.8695 217.624 54.8685 218.189C54.8676 218.753 54.7385 219.259 54.4811 219.706C54.231 220.153 53.8821 220.504 53.4344 220.76C52.9866 221.009 52.4841 221.133 51.9267 221.132ZM51.9279 220.439C52.3385 220.439 52.7054 220.348 53.0283 220.166C53.3586 219.975 53.6157 219.708 53.7996 219.364C53.9835 219.019 54.0758 218.627 54.0765 218.187C54.0773 217.747 53.9862 217.355 53.8035 217.01C53.6207 216.665 53.3645 216.4 53.0348 216.217C52.7124 216.025 52.3459 215.929 51.9352 215.929C51.5246 215.928 51.1541 216.023 50.8238 216.213C50.5008 216.396 50.2437 216.659 50.0525 217.004C49.8686 217.348 49.7763 217.74 49.7756 218.18C49.7748 218.62 49.8659 219.013 50.0486 219.358C50.2387 219.703 50.495 219.971 50.8173 220.162C51.147 220.346 51.5172 220.438 51.9279 220.439ZM62.1449 220.411L62.1415 222.49L61.4045 222.489L61.4068 221.092L56.2258 221.084L56.2235 222.481L55.4865 222.48L55.4899 220.401L55.8199 220.401C56.2086 220.38 56.473 220.094 56.6133 219.544C56.7535 218.995 56.8501 218.225 56.903 217.235L56.9832 215.299L61.2512 215.306L61.2429 220.41L62.1449 220.411ZM57.618 217.28C57.58 218.101 57.5092 218.78 57.4057 219.315C57.3021 219.843 57.1182 220.205 56.8539 220.403L60.4619 220.409L60.4691 215.998L57.6861 215.993L57.618 217.28Z" fill="white"/>
<path d="M297.173 35.6827C296.604 34.7618 296.166 33.7061 295.858 32.5156C295.55 31.315 295.397 30.0298 295.399 28.6598C295.401 27.2898 295.559 26.005 295.87 24.8056C296.182 23.5961 296.624 22.5418 297.195 21.6428L298.56 21.645C297.959 22.694 297.517 23.7933 297.235 24.9428C296.953 26.0924 296.811 27.3321 296.809 28.6621C296.807 29.9921 296.945 31.2324 297.223 32.3828C297.501 33.5333 297.94 34.634 298.538 35.685L297.173 35.6827ZM305.291 32.9062C304.241 32.9045 303.292 32.6729 302.442 32.2115C301.603 31.7401 300.944 31.099 300.465 30.2882C299.987 29.4674 299.748 28.547 299.75 27.527C299.751 26.507 299.993 25.5924 300.474 24.7832C300.955 23.964 301.622 23.3251 302.472 22.8665C303.323 22.3979 304.273 22.1645 305.323 22.1663C306.143 22.1676 306.893 22.3089 307.573 22.59C308.252 22.8611 308.832 23.2671 309.311 23.8079L308.334 24.7513C307.546 23.9199 306.561 23.5033 305.381 23.5013C304.601 23.5001 303.896 23.6739 303.265 24.0228C302.635 24.3718 302.139 24.856 301.778 25.4754C301.427 26.0848 301.251 26.7695 301.25 27.5295C301.249 28.2895 301.422 28.9798 301.771 29.6004C302.13 30.211 302.625 30.6918 303.254 31.0428C303.884 31.3939 304.588 31.57 305.368 31.5713C306.538 31.5733 307.524 31.1549 308.325 30.3162L309.299 31.2629C308.818 31.8021 308.232 32.2111 307.542 32.4899C306.861 32.7688 306.111 32.9076 305.291 32.9062ZM310.337 35.7046C310.938 34.6556 311.38 33.5563 311.662 32.4068C311.954 31.2573 312.101 30.0175 312.103 28.6875C312.105 27.3575 311.962 26.1173 311.674 24.9668C311.396 23.8163 310.957 22.7156 310.359 21.6646L311.724 21.6669C312.303 22.5678 312.746 23.6186 313.054 24.8191C313.362 26.0196 313.515 27.3099 313.513 28.6899C313.511 30.0599 313.354 31.3446 313.042 32.5441C312.73 33.7436 312.283 34.7978 311.702 35.7069L310.337 35.7046ZM319.679 26.7201C320.709 26.8218 321.494 27.1431 322.033 27.684C322.572 28.2149 322.841 28.8953 322.839 29.7253C322.839 30.3253 322.688 30.8701 322.387 31.3596C322.086 31.8391 321.635 32.2233 321.035 32.5123C320.445 32.7914 319.719 32.9302 318.859 32.9287C318.109 32.9275 317.39 32.8163 316.7 32.5951C316.01 32.364 315.446 32.0481 315.006 31.6473L315.698 30.4635C316.058 30.8041 316.517 31.0798 317.077 31.2908C317.637 31.4917 318.231 31.5927 318.861 31.5937C319.641 31.595 320.247 31.431 320.677 31.1017C321.118 30.7725 321.339 30.3178 321.339 29.7378C321.34 29.1578 321.126 28.7075 320.697 28.3868C320.267 28.0661 319.617 27.905 318.747 27.9035L317.907 27.9021L317.909 26.8521L320.554 23.6165L315.499 23.6081L315.501 22.3031L322.431 22.3146L322.43 23.3346L319.679 26.7201ZM326.375 27.9612C325.645 27.96 325.055 27.694 324.606 27.1633C324.157 26.6325 323.933 25.9421 323.934 25.0921C323.936 24.2421 324.162 23.5525 324.613 23.0233C325.064 22.494 325.654 22.23 326.384 22.2312C327.114 22.2324 327.699 22.4984 328.138 23.0291C328.587 23.5499 328.811 24.2402 328.809 25.1002C328.808 25.9602 328.582 26.6549 328.131 27.1841C327.69 27.7034 327.105 27.9624 326.375 27.9612ZM332.714 22.3317L333.869 22.3336L326.682 32.8217L325.527 32.8198L332.714 22.3317ZM326.376 27.1062C326.836 27.107 327.196 26.9326 327.457 26.583C327.718 26.2234 327.848 25.7286 327.849 25.0986C327.85 24.4686 327.721 23.9784 327.462 23.628C327.202 23.2676 326.843 23.087 326.383 23.0862C325.933 23.0855 325.572 23.2649 325.302 23.6244C325.041 23.984 324.91 24.4738 324.909 25.0938C324.908 25.7138 325.038 26.204 325.297 26.5644C325.566 26.9249 325.926 27.1055 326.376 27.1062ZM333.012 32.9222C332.282 32.921 331.692 32.66 331.243 32.1393C330.804 31.6086 330.585 30.9132 330.586 30.0532C330.588 29.1932 330.809 28.5036 331.25 27.9843C331.701 27.455 332.291 27.191 333.021 27.1922C333.751 27.1934 334.341 27.4594 334.79 27.9902C335.239 28.5209 335.463 29.2113 335.461 30.0613C335.46 30.9113 335.234 31.6009 334.783 32.1302C334.332 32.6594 333.742 32.9234 333.012 32.9222ZM333.013 32.0672C333.463 32.068 333.819 31.8886 334.079 31.529C334.35 31.1694 334.485 30.6797 334.486 30.0597C334.487 29.4397 334.353 28.9494 334.084 28.589C333.824 28.2286 333.47 28.048 333.02 28.0472C332.56 28.0465 332.199 28.2259 331.939 28.5854C331.678 28.935 331.547 29.4248 331.546 30.0548C331.545 30.6848 331.675 31.18 331.934 31.5404C332.194 31.8909 332.553 32.0665 333.013 32.0672ZM297.796 39.9878L294.893 46.462C294.657 47.0042 294.385 47.3888 294.077 47.6156C293.769 47.8424 293.398 47.9555 292.965 47.9548C292.687 47.9543 292.426 47.9099 292.185 47.8215C291.943 47.7331 291.734 47.6007 291.558 47.4244L291.922 46.842C292.215 47.1359 292.567 47.2831 292.977 47.2838C293.241 47.2842 293.465 47.2113 293.649 47.0649C293.84 46.9186 294.016 46.6695 294.178 46.3178L294.432 45.7572L291.856 39.9779L292.67 39.9793L294.84 44.8999L297.026 39.9865L297.796 39.9878ZM303.104 40.6896L299.793 40.6841L299.785 45.7771L299.004 45.7758L299.013 39.9898L303.105 39.9966L303.104 40.6896ZM308.609 40.0057L308.6 45.7917L307.819 45.7904L307.827 40.6974L305.055 40.6928L304.976 42.1227C304.915 43.3253 304.774 44.249 304.553 44.894C304.332 45.539 303.939 45.861 303.375 45.86C303.221 45.8598 303.034 45.8301 302.814 45.7711L302.87 45.1002C303.002 45.1298 303.094 45.1446 303.145 45.1447C303.446 45.1452 303.673 45.0062 303.828 44.7278C303.982 44.4494 304.085 44.1049 304.137 43.6943C304.189 43.2837 304.234 42.7411 304.272 42.0665L304.374 39.9987L308.609 40.0057ZM315.884 43.1528L311.044 43.1448C311.087 43.7462 311.318 44.2342 311.735 44.6089C312.152 44.9763 312.68 45.1605 313.318 45.1616C313.677 45.1621 314.007 45.1004 314.308 44.9762C314.609 44.8447 314.87 44.6545 315.09 44.4055L315.529 44.9122C315.272 45.2198 314.949 45.4539 314.56 45.6146C314.179 45.7753 313.757 45.8553 313.295 45.8545C312.701 45.8535 312.173 45.728 311.712 45.4779C311.257 45.2205 310.902 44.8679 310.646 44.4201C310.39 43.9724 310.263 43.4661 310.264 42.9015C310.265 42.3368 310.386 41.831 310.629 41.3841C310.879 40.9372 311.217 40.5894 311.643 40.3408C312.076 40.0921 312.56 39.9683 313.095 39.9692C313.631 39.9701 314.111 40.0955 314.536 40.3456C314.961 40.5956 315.294 40.9445 315.535 41.3922C315.776 41.8326 315.897 42.3388 315.896 42.9108L315.884 43.1528ZM313.094 40.6402C312.537 40.6392 312.067 40.8181 311.685 41.1768C311.311 41.5282 311.097 41.9899 311.045 42.5618L315.148 42.5686C315.098 41.9965 314.882 41.5341 314.501 41.1815C314.128 40.8216 313.659 40.6411 313.094 40.6402ZM320.61 39.9817C321.153 39.9826 321.644 40.108 322.084 40.3581C322.523 40.6008 322.867 40.9461 323.116 41.3938C323.365 41.8416 323.488 42.3514 323.487 42.9234C323.487 43.5028 323.361 44.0159 323.111 44.4628C322.861 44.9097 322.516 45.2575 322.075 45.5061C321.642 45.7474 321.151 45.8676 320.601 45.8666C320.131 45.8659 319.706 45.7698 319.325 45.5785C318.952 45.3799 318.644 45.0934 318.403 44.719L318.397 47.942L317.616 47.9407L317.629 40.0207L318.377 40.0219L318.375 41.1659C318.611 40.785 318.919 40.4922 319.301 40.2875C319.69 40.0828 320.126 39.9808 320.61 39.9817ZM320.547 45.1736C320.95 45.1742 321.317 45.0832 321.647 44.9004C321.978 44.7103 322.235 44.443 322.419 44.0987C322.61 43.7543 322.706 43.3621 322.706 42.9221C322.707 42.4821 322.612 42.0933 322.422 41.7557C322.24 41.4107 321.983 41.1426 321.654 40.9514C321.324 40.7602 320.957 40.6642 320.554 40.6636C320.143 40.6629 319.773 40.7576 319.443 40.9477C319.12 41.1378 318.863 41.4051 318.671 41.7494C318.487 42.0865 318.395 42.475 318.394 42.915C318.394 43.355 318.485 43.7475 318.668 44.0924C318.858 44.4374 319.114 44.7055 319.436 44.8967C319.766 45.0806 320.136 45.1729 320.547 45.1736ZM327.548 45.8782C326.99 45.8772 326.488 45.7517 326.041 45.5017C325.594 45.2443 325.243 44.8917 324.987 44.4439C324.731 43.9962 324.604 43.49 324.604 42.9253C324.605 42.3606 324.735 41.8548 324.992 41.4079C325.249 40.961 325.602 40.6133 326.05 40.3647C326.497 40.1161 327 39.9923 327.557 39.9932C328.115 39.9941 328.617 40.1196 329.064 40.3697C329.511 40.6198 329.858 40.9687 330.107 41.4164C330.363 41.8642 330.49 42.3704 330.489 42.9351C330.489 43.4997 330.359 44.0055 330.102 44.4524C329.852 44.8993 329.503 45.2508 329.055 45.5067C328.608 45.7553 328.105 45.8791 327.548 45.8782ZM327.549 45.1852C327.96 45.1859 328.326 45.0948 328.649 44.912C328.98 44.7219 329.237 44.4546 329.421 44.1103C329.604 43.7659 329.697 43.3737 329.697 42.9337C329.698 42.4937 329.607 42.1013 329.424 41.7563C329.242 41.4113 328.985 41.1469 328.656 40.963C328.333 40.7718 327.967 40.6759 327.556 40.6752C327.145 40.6745 326.775 40.7692 326.445 40.9593C326.122 41.1421 325.865 41.4057 325.673 41.7501C325.489 42.0944 325.397 42.4866 325.396 42.9266C325.396 43.3666 325.487 43.7591 325.67 44.1041C325.86 44.449 326.116 44.7171 326.438 44.9083C326.768 45.0922 327.138 45.1845 327.549 45.1852ZM337.766 45.1581L337.763 47.2371L337.026 47.2359L337.028 45.8389L331.847 45.8303L331.845 47.2273L331.108 47.2261L331.111 45.1471L331.441 45.1476C331.83 45.1263 332.094 44.8407 332.234 44.291C332.374 43.7412 332.471 42.9713 332.524 41.9814L332.604 40.0456L336.872 40.0526L336.864 45.1566L337.766 45.1581ZM333.239 42.0266C333.201 42.8479 333.13 43.5261 333.027 44.0613C332.923 44.5891 332.739 44.9518 332.475 45.1494L336.083 45.1553L336.09 40.7443L333.307 40.7397L333.239 42.0266Z" fill="white"/>
<path d="M248.771 171.905L248.706 211.807L281.645 211.861" stroke="#FFFAFA"/>
<ellipse rx="2.57334" ry="2.55784" transform="matrix(-0.999999 -0.00163789 0.00162382 -0.999999 249.222 211.297)" fill="white"/>
<ellipse rx="2.57334" ry="2.55784" transform="matrix(-0.999999 -0.0016392 0.00162503 -0.999999 280.102 211.346)" fill="white"/>
<ellipse rx="2.57334" ry="2.55784" transform="matrix(-0.999999 -0.00163794 0.00162387 -0.999999 249.281 174.463)" fill="white"/>
<path d="M247.925 77.6632L247.989 37.7609L280.927 37.8156" stroke="#FFFAFA"/>
<ellipse rx="2.57332" ry="2.55784" transform="matrix(-0.999999 -0.00166003 -0.00160166 0.999999 248.502 38.2734)" fill="white"/>
<ellipse rx="2.57332" ry="2.55784" transform="matrix(-0.999999 -0.00165335 -0.00160891 0.999999 279.383 38.3238)" fill="white"/>
<ellipse rx="2.57332" ry="2.55784" transform="matrix(-0.999999 -0.00166003 -0.00160166 0.999999 248.443 75.1048)" fill="white"/>
<path d="M100.7 77.4254L100.765 37.5196L67.8267 37.4657" stroke="#FFFAFA"/>
<ellipse rx="2.57332" ry="2.55807" transform="matrix(0.999999 0.00163185 -0.00162969 0.999999 100.25 38.031)" fill="white"/>
<ellipse rx="2.57332" ry="2.55807" transform="matrix(0.999999 0.00163794 -0.00162386 0.999999 69.3699 37.9804)" fill="white"/>
<ellipse rx="2.57332" ry="2.55807" transform="matrix(0.999999 0.00163794 -0.00162386 0.999999 100.189 74.8664)" fill="white"/>
<path d="M100.549 171.662L100.484 211.564L67.5454 211.51" stroke="#FFFAFA"/>
<ellipse rx="2.57332" ry="2.55784" transform="matrix(0.999999 0.00163337 0.0016285 -0.999999 99.9681 211.054)" fill="white"/>
<ellipse rx="2.57332" ry="2.55784" transform="matrix(0.999999 0.00163794 0.00162386 -0.999999 69.0902 211.001)" fill="white"/>
<ellipse rx="2.57332" ry="2.55784" transform="matrix(0.999999 0.00163794 0.00162386 -0.999999 100.029 174.221)" fill="white"/>
<path d="M292.491 212.716C291.959 211.858 291.548 210.873 291.259 209.762C290.97 208.642 290.825 207.443 290.825 206.164C290.825 204.886 290.97 203.686 291.259 202.566C291.548 201.437 291.959 200.452 292.491 199.612H293.765C293.205 200.592 292.794 201.619 292.533 202.692C292.272 203.766 292.141 204.923 292.141 206.164C292.141 207.406 292.272 208.563 292.533 209.636C292.794 210.71 293.205 211.736 293.765 212.716H292.491ZM301.926 207.55H296.718L295.64 210H294.198L298.636 200.2H300.022L304.474 210H303.004L301.926 207.55ZM301.436 206.43L299.322 201.628L297.208 206.43H301.436ZM309.843 209.566C309.647 209.734 309.405 209.865 309.115 209.958C308.826 210.042 308.527 210.084 308.219 210.084C307.473 210.084 306.894 209.884 306.483 209.482C306.073 209.081 305.867 208.507 305.867 207.76V203.686H304.607V202.58H305.867V200.956H307.211V202.58H309.339V203.686H307.211V207.704C307.211 208.106 307.309 208.414 307.505 208.628C307.711 208.843 308 208.95 308.373 208.95C308.784 208.95 309.134 208.834 309.423 208.6L309.843 209.566ZM310.642 212.716C311.202 211.736 311.613 210.71 311.874 209.636C312.145 208.563 312.28 207.406 312.28 206.164C312.28 204.923 312.145 203.766 311.874 202.692C311.613 201.619 311.202 200.592 310.642 199.612H311.916C312.458 200.452 312.873 201.432 313.162 202.552C313.452 203.672 313.596 204.876 313.596 206.164C313.596 207.443 313.452 208.642 313.162 209.762C312.873 210.882 312.458 211.867 311.916 212.716H310.642ZM318.775 200.088C320.091 200.088 321.103 200.513 321.813 201.362C322.531 202.212 322.891 203.416 322.891 204.974C322.891 206.066 322.695 207 322.303 207.774C321.92 208.54 321.379 209.123 320.679 209.524C319.988 209.916 319.181 210.112 318.257 210.112C317.781 210.112 317.333 210.066 316.913 209.972C316.493 209.87 316.129 209.725 315.821 209.538L316.353 208.446C316.829 208.754 317.459 208.908 318.243 208.908C319.26 208.908 320.053 208.596 320.623 207.97C321.201 207.336 321.491 206.416 321.491 205.212V204.862C321.211 205.282 320.823 205.604 320.329 205.828C319.834 206.043 319.279 206.15 318.663 206.15C318.019 206.15 317.44 206.029 316.927 205.786C316.423 205.544 316.026 205.198 315.737 204.75C315.457 204.293 315.317 203.77 315.317 203.182C315.317 202.566 315.466 202.025 315.765 201.558C316.073 201.092 316.488 200.732 317.011 200.48C317.533 200.219 318.121 200.088 318.775 200.088ZM318.901 205.016C319.339 205.016 319.731 204.932 320.077 204.764C320.422 204.596 320.688 204.368 320.875 204.078C321.071 203.789 321.169 203.467 321.169 203.112C321.169 202.767 321.075 202.454 320.889 202.174C320.711 201.885 320.445 201.656 320.091 201.488C319.745 201.311 319.325 201.222 318.831 201.222C318.187 201.222 317.664 201.395 317.263 201.74C316.871 202.086 316.675 202.548 316.675 203.126C316.675 203.705 316.875 204.167 317.277 204.512C317.678 204.848 318.219 205.016 318.901 205.016ZM327.234 200.2V210H325.848V201.418H323.636V200.2H327.234ZM331.506 205.464C330.825 205.464 330.274 205.217 329.854 204.722C329.434 204.228 329.224 203.584 329.224 202.79C329.224 201.997 329.434 201.353 329.854 200.858C330.274 200.364 330.825 200.116 331.506 200.116C332.187 200.116 332.733 200.364 333.144 200.858C333.564 201.344 333.774 201.988 333.774 202.79C333.774 203.593 333.564 204.242 333.144 204.736C332.733 205.222 332.187 205.464 331.506 205.464ZM337.414 200.2H338.492L331.8 210H330.722L337.414 200.2ZM331.506 204.666C331.935 204.666 332.271 204.503 332.514 204.176C332.757 203.84 332.878 203.378 332.878 202.79C332.878 202.202 332.757 201.745 332.514 201.418C332.271 201.082 331.935 200.914 331.506 200.914C331.086 200.914 330.75 201.082 330.498 201.418C330.255 201.754 330.134 202.212 330.134 202.79C330.134 203.369 330.255 203.826 330.498 204.162C330.75 204.498 331.086 204.666 331.506 204.666ZM337.708 210.084C337.027 210.084 336.476 209.842 336.056 209.356C335.645 208.862 335.44 208.213 335.44 207.41C335.44 206.608 335.645 205.964 336.056 205.478C336.476 204.984 337.027 204.736 337.708 204.736C338.389 204.736 338.94 204.984 339.36 205.478C339.78 205.973 339.99 206.617 339.99 207.41C339.99 208.204 339.78 208.848 339.36 209.342C338.94 209.837 338.389 210.084 337.708 210.084ZM337.708 209.286C338.128 209.286 338.459 209.118 338.702 208.782C338.954 208.446 339.08 207.989 339.08 207.41C339.08 206.832 338.954 206.374 338.702 206.038C338.459 205.702 338.128 205.534 337.708 205.534C337.279 205.534 336.943 205.702 336.7 206.038C336.457 206.365 336.336 206.822 336.336 207.41C336.336 207.998 336.457 208.46 336.7 208.796C336.943 209.123 337.279 209.286 337.708 209.286ZM303.444 217.17C304.2 217.17 304.779 217.361 305.182 217.742C305.586 218.116 305.787 218.674 305.787 219.414V223H305.039V222.098C304.863 222.399 304.603 222.634 304.258 222.802C303.921 222.971 303.518 223.055 303.048 223.055C302.403 223.055 301.89 222.901 301.508 222.593C301.127 222.285 300.936 221.878 300.936 221.372C300.936 220.881 301.112 220.485 301.464 220.184C301.824 219.884 302.392 219.733 303.169 219.733H305.006V219.381C305.006 218.883 304.867 218.505 304.588 218.248C304.31 217.984 303.903 217.852 303.367 217.852C303.001 217.852 302.649 217.915 302.311 218.039C301.974 218.157 301.684 218.322 301.442 218.534L301.09 217.951C301.384 217.702 301.736 217.511 302.146 217.379C302.557 217.24 302.99 217.17 303.444 217.17ZM303.169 222.439C303.609 222.439 303.987 222.34 304.302 222.142C304.618 221.937 304.852 221.644 305.006 221.262V220.316H303.191C302.201 220.316 301.706 220.661 301.706 221.35C301.706 221.688 301.835 221.955 302.091 222.153C302.348 222.344 302.707 222.439 303.169 222.439ZM310.286 223.055C309.714 223.055 309.201 222.931 308.746 222.681C308.299 222.432 307.947 222.084 307.69 221.636C307.434 221.182 307.305 220.672 307.305 220.107C307.305 219.543 307.434 219.037 307.69 218.589C307.947 218.142 308.299 217.794 308.746 217.544C309.201 217.295 309.714 217.17 310.286 217.17C310.785 217.17 311.229 217.269 311.617 217.467C312.013 217.658 312.325 217.94 312.552 218.314L311.969 218.71C311.779 218.424 311.537 218.212 311.243 218.072C310.95 217.926 310.631 217.852 310.286 217.852C309.868 217.852 309.491 217.948 309.153 218.138C308.823 218.322 308.563 218.586 308.372 218.93C308.189 219.275 308.097 219.667 308.097 220.107C308.097 220.555 308.189 220.951 308.372 221.295C308.563 221.633 308.823 221.897 309.153 222.087C309.491 222.271 309.868 222.362 310.286 222.362C310.631 222.362 310.95 222.293 311.243 222.153C311.537 222.014 311.779 221.801 311.969 221.515L312.552 221.911C312.325 222.285 312.013 222.571 311.617 222.769C311.221 222.96 310.778 223.055 310.286 223.055ZM318.027 217.907H315.838V223H315.057V217.907H312.868V217.214H318.027V217.907ZM321.147 217.17C321.903 217.17 322.482 217.361 322.885 217.742C323.289 218.116 323.49 218.674 323.49 219.414V223H322.742V222.098C322.566 222.399 322.306 222.634 321.961 222.802C321.624 222.971 321.221 223.055 320.751 223.055C320.106 223.055 319.593 222.901 319.211 222.593C318.83 222.285 318.639 221.878 318.639 221.372C318.639 220.881 318.815 220.485 319.167 220.184C319.527 219.884 320.095 219.733 320.872 219.733H322.709V219.381C322.709 218.883 322.57 218.505 322.291 218.248C322.013 217.984 321.606 217.852 321.07 217.852C320.704 217.852 320.352 217.915 320.014 218.039C319.677 218.157 319.387 218.322 319.145 218.534L318.793 217.951C319.087 217.702 319.439 217.511 319.849 217.379C320.26 217.24 320.693 217.17 321.147 217.17ZM320.872 222.439C321.312 222.439 321.69 222.34 322.005 222.142C322.321 221.937 322.555 221.644 322.709 221.262V220.316H320.894C319.904 220.316 319.409 220.661 319.409 221.35C319.409 221.688 319.538 221.955 319.794 222.153C320.051 222.344 320.41 222.439 320.872 222.439ZM329.639 217.907H327.45V223H326.669V217.907H324.48V217.214H329.639V217.907Z" fill="white"/>
<defs>
<radialGradient id="paint0_radial" cx="0" cy="0" r="1" gradientUnits="userSpaceOnUse" gradientTransform="translate(196.002 224.602) rotate(-90.3873) scale(215.41 215.265)">
<stop stop-color="#C4C4C4"/>
<stop offset="1" stop-color="#C4C4C4" stop-opacity="0"/>
</radialGradient>
</defs>
</svg>
