<svg width="375" height="259" viewBox="0 0 375 259" fill="none" xmlns="http://www.w3.org/2000/svg">
<path d="M175.132 223.394C122.524 217.316 84.9323 170.683 91.1437 119.255C97.3551 67.8266 145.022 31.0429 197.63 37.121C250.238 43.199 287.83 89.8329 281.618 141.261C275.407 192.689 227.74 229.472 175.132 223.394Z" fill="url(#paint0_radial)" fill-opacity="0.31" stroke="white"/>
<path d="M373.379 221.897C373.346 241.86 356.769 258.036 336.33 258.004C315.891 257.971 299.368 241.742 299.402 221.779C299.435 201.816 316.012 185.64 336.451 185.672C356.89 185.705 373.413 201.934 373.379 221.897Z" fill="#48A949" stroke="white"/>
<path d="M373.417 37.5205C373.383 57.4839 356.806 73.6599 336.367 73.6273C315.929 73.5947 299.406 57.3659 299.439 37.4025C299.472 17.439 316.049 1.26304 336.488 1.29564C356.927 1.32824 373.45 17.557 373.417 37.5205Z" fill="#D3077C" stroke="white"/>
<path d="M74.8462 37.0463C74.8129 57.0097 58.2359 73.1857 37.797 73.1532C17.3581 73.1206 0.835178 56.8918 0.868495 36.9284C0.901812 16.9649 17.4788 0.788892 37.9177 0.821467C58.3566 0.854042 74.8795 17.0828 74.8462 37.0463Z" fill="#686868" stroke="white"/>
<path d="M74.5391 221.423C74.5058 241.387 57.9288 257.563 37.4899 257.53C17.051 257.498 0.528049 241.269 0.561366 221.305C0.594683 201.342 17.1717 185.166 37.6106 185.198C58.0495 185.231 74.5724 201.46 74.5391 221.423Z" fill="#C75E1C" stroke="white"/>
<path d="M19.0765 37.9246C18.508 37.0037 18.0697 35.948 17.7617 34.7575C17.4537 33.557 17.3008 32.2717 17.3031 30.9017C17.3053 29.5317 17.4624 28.247 17.7744 27.0475C18.0864 25.838 18.5282 24.7837 19.0996 23.8846L20.4646 23.8868C19.8629 24.9358 19.4211 26.0351 19.1392 27.1847C18.8573 28.3342 18.7153 29.574 18.7131 30.904C18.7109 32.234 18.8488 33.4742 19.1269 34.6247C19.405 35.7751 19.8432 36.8758 20.4415 37.9268L19.0765 37.9246ZM27.2398 35.1478C26.1798 35.146 25.2252 34.9145 24.3759 34.4531C23.5267 33.9818 22.8578 33.3357 22.3691 32.5149C21.8905 31.6941 21.652 30.7787 21.6536 29.7687C21.6553 28.7587 21.8968 27.8441 22.3782 27.0249C22.8695 26.2057 23.5406 25.5668 24.3913 25.1081C25.2421 24.6395 26.1975 24.4061 27.2575 24.4078C28.3075 24.4095 29.2571 24.646 30.1063 25.1174C30.9556 25.5787 31.6195 26.2198 32.0982 27.0406C32.5768 27.8514 32.8153 28.7667 32.8136 29.7867C32.812 30.8067 32.5704 31.7264 32.0891 32.5456C31.6078 33.3548 30.9417 33.9937 30.0909 34.4624C29.2402 34.921 28.2898 35.1495 27.2398 35.1478ZM27.242 33.8128C28.012 33.814 28.7023 33.6401 29.3129 33.2911C29.9334 32.9421 30.4192 32.4629 30.7702 31.8534C31.1312 31.234 31.3124 30.5443 31.3136 29.7843C31.3149 29.0243 31.136 28.339 30.777 27.7285C30.428 27.1079 29.9438 26.6221 29.3244 26.2711C28.715 25.9201 28.0253 25.744 27.2553 25.7428C26.4853 25.7415 25.785 25.9154 25.1544 26.2644C24.5339 26.6134 24.0431 27.0976 23.682 27.717C23.331 28.3264 23.1549 29.0112 23.1536 29.7712C23.1524 30.5312 23.3263 31.2214 23.6752 31.842C24.0342 32.4526 24.5234 32.9334 25.1429 33.2844C25.7723 33.6354 26.472 33.8115 27.242 33.8128ZM34.1736 37.9489C34.7753 36.8999 35.2172 35.8006 35.4991 34.6511C35.791 33.5015 35.938 32.2618 35.9402 30.9318C35.9424 29.6018 35.7994 28.3616 35.5113 27.2111C35.2332 26.0606 34.795 24.9599 34.1968 23.909L35.5618 23.9112C36.1403 24.8121 36.5835 25.8628 36.8916 27.0633C37.1996 28.2638 37.3525 29.5541 37.3502 30.9341C37.3479 32.3041 37.1908 33.5888 36.8788 34.7883C36.5669 35.9878 36.1201 37.0421 35.5386 37.9511L34.1736 37.9489ZM46.8689 33.7544L46.8668 35.0594L39.3218 35.0472L39.3235 34.0272L43.6052 29.9091C44.1261 29.41 44.4768 28.9806 44.6574 28.6208C44.838 28.2511 44.9286 27.8813 44.9292 27.5113C44.9301 26.9613 44.7358 26.536 44.3463 26.2353C43.9668 25.9247 43.4171 25.7688 42.6971 25.7677C41.5371 25.7658 40.6414 26.1444 40.0102 26.9033L38.9917 26.0167C39.4025 25.5174 39.9381 25.1282 40.5986 24.8493C41.269 24.5704 42.0143 24.4316 42.8343 24.4329C43.9343 24.4347 44.8088 24.7011 45.458 25.2321C46.1071 25.7532 46.4309 26.4637 46.4294 27.3637C46.4285 27.9237 46.3076 28.4535 46.0668 28.9531C45.826 29.4527 45.3701 30.022 44.699 30.6609L41.4839 33.7457L46.8689 33.7544ZM50.5345 30.2053C49.8045 30.2041 49.215 29.9382 48.7658 29.4075C48.3167 28.8767 48.0929 28.1864 48.0943 27.3364C48.0957 26.4864 48.3218 25.7968 48.7727 25.2675C49.2235 24.7382 49.814 24.4742 50.544 24.4753C51.274 24.4765 51.8585 24.7425 52.2977 25.2732C52.7468 25.7939 52.9707 26.4843 52.9693 27.3442C52.9678 28.2042 52.7417 28.8989 52.2908 29.4282C51.85 29.9474 51.2645 30.2065 50.5345 30.2053ZM56.8738 24.5755L58.0288 24.5774L50.8415 35.0658L49.6865 35.064L56.8738 24.5755ZM50.5359 29.3503C50.9959 29.3511 51.3562 29.1766 51.6168 28.8271C51.8774 28.4675 52.0082 27.9727 52.0093 27.3427C52.0103 26.7127 51.8811 26.2225 51.6217 25.8721C51.3623 25.5117 51.0026 25.3311 50.5426 25.3303C50.0926 25.3296 49.7323 25.509 49.4617 25.8686C49.2011 26.2282 49.0703 26.718 49.0693 27.338C49.0682 27.958 49.1974 28.4482 49.4568 28.8086C49.7262 29.169 50.0859 29.3496 50.5359 29.3503ZM57.1714 35.166C56.4414 35.1649 55.8518 34.9039 55.4027 34.3832C54.9635 33.8525 54.7447 33.1571 54.7461 32.2971C54.7475 31.4371 54.9686 30.7475 55.4095 30.2282C55.8604 29.6989 56.4508 29.4349 57.1808 29.436C57.9108 29.4372 58.5004 29.7032 58.9495 30.2339C59.3986 30.7646 59.6225 31.455 59.6211 32.305C59.6197 33.155 59.3935 33.8446 58.9427 34.3739C58.4918 34.9032 57.9014 35.1672 57.1714 35.166ZM57.1728 34.311C57.6228 34.3118 57.9781 34.1323 58.2387 33.7728C58.5093 33.4132 58.6451 32.9234 58.6461 32.3034C58.6471 31.6834 58.5129 31.1932 58.2435 30.8328C57.9841 30.4723 57.6294 30.2918 57.1794 30.291C56.7194 30.2903 56.3591 30.4697 56.0985 30.8293C55.8379 31.1789 55.7071 31.6687 55.7061 32.2987C55.705 32.9287 55.8342 33.4239 56.0936 33.7843C56.3531 34.1347 56.7128 34.3103 57.1728 34.311ZM13.4245 45.4315L12.1045 45.4294L12.1003 48.0034L11.3193 48.0021L11.3288 42.2161L12.1098 42.2174L12.1056 44.7584L13.4366 44.7605L15.4758 42.2228L16.3228 42.2242L14.0412 45.0255L16.4783 48.0104L15.5543 48.0089L13.4245 45.4315ZM17.7204 42.2264L18.5014 42.2277L18.4938 46.8257L22.3624 42.2339L23.0554 42.235L23.0459 48.021L22.2649 48.0197L22.2724 43.4218L18.4149 48.0135L17.7109 48.0124L17.7204 42.2264ZM27.704 48.0835C27.132 48.0826 26.6189 47.9571 26.1646 47.707C25.7177 47.457 25.3663 47.1081 25.1103 46.6603C24.8544 46.2053 24.7269 45.6954 24.7279 45.1307C24.7288 44.5661 24.858 44.0603 25.1154 43.6133C25.3728 43.1664 25.7253 42.8187 26.1731 42.57C26.6282 42.3214 27.1417 42.1976 27.7137 42.1985C28.2124 42.1993 28.6559 42.2991 29.0442 42.4977C29.4399 42.689 29.7511 42.9718 29.9778 43.3462L29.3942 43.7412C29.204 43.4549 28.9623 43.2419 28.6692 43.1021C28.3761 42.9549 28.0572 42.8811 27.7126 42.8805C27.2946 42.8799 26.9168 42.9746 26.5791 43.1647C26.2488 43.3475 25.988 43.6111 25.7968 43.9554C25.6129 44.2998 25.5206 44.692 25.5199 45.132C25.5191 45.5793 25.6101 45.9755 25.7929 46.3204C25.983 46.6581 26.2429 46.9225 26.5726 47.1137C26.9096 47.2976 27.2871 47.3898 27.7051 47.3905C28.0498 47.3911 28.3689 47.3219 28.6625 47.1831C28.956 47.0442 29.1984 46.8319 29.3895 46.5462L29.9719 46.9432C29.7439 47.3168 29.4318 47.6023 29.0355 47.7997C28.6392 47.9897 28.1953 48.0843 27.704 48.0835ZM36.0285 42.2559L36.019 48.0419L35.238 48.0407L35.2464 42.9477L32.4744 42.9432L32.395 44.3731C32.3344 45.5757 32.1935 46.4994 31.9724 47.1444C31.7514 47.7894 31.3585 48.1114 30.7938 48.1105C30.6398 48.1103 30.4529 48.0806 30.233 48.0216L30.2891 47.3507C30.421 47.3802 30.5127 47.3951 30.564 47.3951C30.8647 47.3956 31.0922 47.2567 31.2467 46.9782C31.4012 46.6998 31.5044 46.3553 31.5564 45.9447C31.6084 45.5342 31.6533 44.9916 31.6911 44.3169L31.7935 42.2491L36.0285 42.2559ZM40.6261 48.1044C40.0687 48.1035 39.5666 47.978 39.1197 47.7279C38.6728 47.4705 38.3213 47.118 38.0654 46.6702C37.8095 46.2225 37.682 45.7163 37.6829 45.1516C37.6839 44.5869 37.813 44.0812 38.0704 43.6342C38.3278 43.1873 38.6804 42.8396 39.1281 42.5909C39.5759 42.3423 40.0784 42.2185 40.6358 42.2194C41.1931 42.2203 41.6952 42.3458 42.1421 42.5958C42.5891 42.8459 42.9368 43.1948 43.1854 43.6425C43.4413 44.0902 43.5688 44.5964 43.5679 45.1611C43.567 45.7258 43.4378 46.2316 43.1804 46.6785C42.9303 47.1254 42.5814 47.4769 42.1337 47.7328C41.6859 47.9814 41.1834 48.1053 40.6261 48.1044ZM40.6272 47.4114C41.0379 47.412 41.4047 47.321 41.7277 47.1381C42.058 46.948 42.3151 46.6808 42.499 46.3364C42.6829 45.992 42.7752 45.5998 42.7759 45.1598C42.7766 44.7198 42.6856 44.3274 42.5029 43.9824C42.3201 43.6374 42.0639 43.373 41.7342 43.1891C41.4118 42.998 41.0453 42.902 40.6346 42.9014C40.224 42.9007 39.8535 42.9954 39.5232 43.1856C39.2002 43.3684 38.9431 43.632 38.7519 43.9763C38.568 44.3207 38.4756 44.7129 38.4749 45.1529C38.4742 45.5929 38.5652 45.9854 38.748 46.3303C38.9381 46.6753 39.1943 46.9434 39.5167 47.1346C39.8464 47.3184 40.2165 47.4107 40.6272 47.4114ZM48.2229 42.2316C48.7656 42.2325 49.2567 42.3579 49.6963 42.608C50.1359 42.8507 50.48 43.1959 50.7286 43.6437C50.9772 44.0914 51.101 44.6013 51.1001 45.1733C51.0991 45.7526 50.9736 46.2657 50.7235 46.7127C50.4735 47.1596 50.1282 47.5074 49.6878 47.756C49.2547 47.9973 48.7632 48.1175 48.2132 48.1166C47.7439 48.1158 47.3187 48.0198 46.9377 47.8285C46.564 47.6299 46.2565 47.3434 46.0151 46.9691L46.0098 50.1921L45.2288 50.1908L45.2418 42.2708L45.9898 42.272L45.988 43.416C46.2233 43.0351 46.5317 42.7422 46.9134 42.5375C47.3024 42.3328 47.7389 42.2308 48.2229 42.2316ZM48.1594 47.4235C48.5627 47.4242 48.9295 47.3331 49.2598 47.1503C49.5901 46.9602 49.8472 46.6929 50.0311 46.3485C50.2224 46.0042 50.3183 45.612 50.3191 45.172C50.3198 44.732 50.2251 44.3432 50.035 44.0055C49.8522 43.6606 49.596 43.3925 49.2663 43.2013C48.9366 43.0101 48.5701 42.9142 48.1668 42.9135C47.7561 42.9129 47.3856 43.0076 47.0553 43.1977C46.7323 43.3879 46.4752 43.6551 46.284 43.9995C46.1001 44.3365 46.0078 44.725 46.0071 45.165C46.0063 45.605 46.0974 45.9975 46.2801 46.3425C46.4702 46.6875 46.7265 46.9555 47.0488 47.1467C47.3785 47.3306 47.7487 47.4229 48.1594 47.4235ZM55.1602 48.1278C54.6029 48.1269 54.1008 48.0014 53.6538 47.7514C53.2069 47.494 52.8555 47.1414 52.5996 46.6937C52.3437 46.2459 52.2162 45.7397 52.2171 45.1751C52.218 44.6104 52.3472 44.1046 52.6046 43.6577C52.862 43.2108 53.2146 42.863 53.6623 42.6144C54.11 42.3658 54.6126 42.2419 55.1699 42.2428C55.7273 42.2437 56.2294 42.3692 56.6763 42.6192C57.1232 42.8693 57.471 43.2182 57.7196 43.6659C57.9755 44.1137 58.103 44.6199 58.1021 45.1846C58.1011 45.7492 57.972 46.255 57.7146 46.7019C57.4645 47.1489 57.1156 47.5003 56.6678 47.7562C56.2201 48.0049 55.7176 48.1287 55.1602 48.1278ZM55.1614 47.4348C55.572 47.4355 55.9388 47.3444 56.2618 47.1616C56.5921 46.9715 56.8492 46.7042 57.0331 46.3598C57.217 46.0155 57.3094 45.6233 57.3101 45.1833C57.3108 44.7433 57.2198 44.3508 57.037 44.0058C56.8543 43.6609 56.598 43.3965 56.2683 43.2126C55.946 43.0214 55.5795 42.9255 55.1688 42.9248C54.7581 42.9242 54.3876 43.0189 54.0573 43.209C53.7344 43.3918 53.4773 43.6554 53.286 43.9998C53.1021 44.3442 53.0098 44.7363 53.0091 45.1763C53.0084 45.6163 53.0994 46.0088 53.2821 46.3538C53.4722 46.6988 53.7285 46.9668 54.0508 47.158C54.3805 47.3419 54.7507 47.4342 55.1614 47.4348ZM65.3784 47.4073L65.3749 49.4863L64.6379 49.4851L64.6402 48.0881L59.4592 48.0797L59.4569 49.4767L58.7199 49.4756L58.7234 47.3966L59.0534 47.3971C59.4421 47.3757 59.7065 47.0901 59.8468 46.5404C59.987 45.9906 60.0836 45.2207 60.1366 44.2308L60.2168 42.295L64.4848 42.3018L64.4764 47.4058L65.3784 47.4073ZM60.8515 44.276C60.8135 45.0973 60.7427 45.7755 60.6392 46.3106C60.5356 46.8385 60.3517 47.2012 60.0874 47.3988L63.6954 47.4046L63.7026 42.9936L60.9196 42.9891L60.8515 44.276Z" fill="white"/>
<path d="M14.118 219.918C13.5495 218.997 13.1113 217.941 12.8033 216.751C12.4953 215.551 12.3424 214.265 12.3447 212.895C12.347 211.525 12.5041 210.241 12.8161 209.041C13.1282 207.832 13.5699 206.777 14.1414 205.878L15.5064 205.88C14.9047 206.929 14.4628 208.029 14.1809 209.178C13.899 210.328 13.7569 211.568 13.7547 212.898C13.7525 214.228 13.8904 215.468 14.1685 216.618C14.4466 217.769 14.8847 218.869 15.483 219.92L14.118 219.918ZM19.0569 207.821L19.0508 211.481L24.3158 211.489L24.3136 212.779L19.0486 212.771L19.0416 217.016L17.5416 217.014L17.5591 206.514L24.9691 206.525L24.9669 207.83L19.0569 207.821ZM33.7956 213.109C33.7954 213.219 33.7851 213.364 33.7648 213.544L27.3148 213.534C27.4037 214.234 27.7077 214.8 28.227 215.231C28.7563 215.651 29.411 215.862 30.191 215.864C31.141 215.865 31.9065 215.546 32.4876 214.907L33.281 215.839C32.9203 216.258 32.4698 216.577 31.9294 216.797C31.399 217.016 30.8039 217.125 30.1439 217.124C29.3039 217.122 28.5591 216.951 27.9097 216.61C27.2603 216.259 26.7561 215.773 26.3971 215.153C26.0482 214.532 25.8743 213.832 25.8756 213.052C25.8769 212.282 26.0481 211.587 26.3891 210.968C26.7401 210.348 27.2159 209.869 27.8165 209.53C28.4271 209.181 29.1124 209.007 29.8724 209.008C30.6324 209.009 31.3071 209.186 31.8965 209.536C32.4959 209.877 32.9601 210.358 33.2891 210.979C33.6281 211.599 33.7969 212.309 33.7956 213.109ZM29.8704 210.223C29.1804 210.222 28.6 210.431 28.1293 210.85C27.6686 211.27 27.3977 211.819 27.3166 212.499L32.4166 212.507C32.3377 211.837 32.0636 211.292 31.5943 210.871C31.135 210.44 30.5604 210.224 29.8704 210.223ZM34.8987 219.951C35.5005 218.902 35.9423 217.803 36.2242 216.653C36.5161 215.504 36.6632 214.264 36.6654 212.934C36.6676 211.604 36.5247 210.364 36.2366 209.213C35.9585 208.063 35.5204 206.962 34.9221 205.911L36.2871 205.913C36.8656 206.814 37.3089 207.865 37.6169 209.066C37.9249 210.266 38.0777 211.556 38.0754 212.936C38.0731 214.306 37.916 215.591 37.604 216.791C37.292 217.99 36.8452 219.044 36.2637 219.953L34.8987 219.951ZM49.3512 214.484L47.3562 214.481L47.3519 217.061L45.8969 217.059L45.9012 214.479L40.0662 214.469L40.068 213.419L45.4494 206.558L47.0694 206.561L41.9134 213.182L45.9484 213.189L45.9522 210.909L47.3622 210.911L47.3584 213.191L49.3534 213.194L49.3512 214.484ZM52.0801 212.209C51.3501 212.207 50.7605 211.942 50.3114 211.411C49.8623 210.88 49.6385 210.19 49.6399 209.34C49.6413 208.49 49.8674 207.8 50.3183 207.271C50.7692 206.742 51.3596 206.477 52.0896 206.479C52.8196 206.48 53.4042 206.746 53.8433 207.276C54.2924 207.797 54.5163 208.488 54.5149 209.348C54.5134 210.208 54.2873 210.902 53.8364 211.431C53.3955 211.951 52.8101 212.21 52.0801 212.209ZM58.4195 206.579L59.5745 206.581L52.387 217.069L51.232 217.067L58.4195 206.579ZM52.0815 211.354C52.5415 211.354 52.9018 211.18 53.1624 210.83C53.423 210.471 53.5538 209.976 53.5549 209.346C53.5559 208.716 53.4267 208.226 53.1673 207.875C52.9079 207.515 52.5482 207.334 52.0882 207.334C51.6382 207.333 51.2779 207.512 51.0073 207.872C50.7467 208.232 50.6159 208.721 50.6149 209.341C50.6138 209.961 50.743 210.452 51.0024 210.812C51.2718 211.172 51.6315 211.353 52.0815 211.354ZM58.7168 217.169C57.9868 217.168 57.3973 216.907 56.9481 216.386C56.509 215.856 56.2902 215.16 56.2916 214.3C56.293 213.44 56.5142 212.751 56.9551 212.231C57.4059 211.702 57.9964 211.438 58.7264 211.439C59.4564 211.44 60.0459 211.706 60.4951 212.237C60.9442 212.768 61.168 213.458 61.1666 214.308C61.1652 215.158 60.939 215.848 60.4881 216.377C60.0373 216.906 59.4468 217.17 58.7168 217.169ZM58.7183 216.314C59.1683 216.315 59.5236 216.136 59.7842 215.776C60.0548 215.416 60.1906 214.927 60.1916 214.307C60.1926 213.687 60.0585 213.196 59.7891 212.836C59.5297 212.476 59.175 212.295 58.725 212.294C58.265 212.294 57.9047 212.473 57.6441 212.833C57.3835 213.182 57.2527 213.672 57.2516 214.302C57.2506 214.932 57.3797 215.427 57.6391 215.788C57.8985 216.138 58.2583 216.314 58.7183 216.314ZM21.4661 227.446L20.2121 227.444L20.2078 230.018L19.4268 230.017L19.4311 227.443L18.1771 227.441L16.4018 230.012L15.4668 230.01L17.5508 227.033L15.6415 224.225L16.4885 224.226L18.1783 226.77L19.4322 226.772L19.4365 224.231L20.2175 224.232L20.2132 226.773L21.4672 226.775L23.1765 224.237L24.0235 224.238L22.1048 227.051L24.1788 230.024L23.2438 230.023L21.4661 227.446ZM30.339 227.383L25.499 227.375C25.542 227.977 25.7722 228.465 26.1896 228.839C26.607 229.207 27.1347 229.391 27.7727 229.392C28.132 229.392 28.4621 229.331 28.763 229.206C29.0639 229.075 29.3245 228.885 29.5449 228.636L29.9841 229.142C29.7269 229.45 29.4039 229.684 29.0149 229.845C28.6333 230.006 28.2115 230.086 27.7495 230.085C27.1555 230.084 26.6277 229.958 26.1662 229.708C25.7119 229.451 25.3568 229.098 25.1009 228.651C24.845 228.203 24.7175 227.697 24.7184 227.132C24.7194 226.567 24.8412 226.062 25.084 225.615C25.3341 225.168 25.672 224.82 26.0977 224.571C26.5308 224.323 27.015 224.199 27.5503 224.2C28.0857 224.2 28.5658 224.326 28.9907 224.576C29.4156 224.826 29.7487 225.175 29.99 225.622C30.2312 226.063 30.3514 226.569 30.3504 227.141L30.339 227.383ZM27.5492 224.871C26.9919 224.87 26.5223 225.049 26.1403 225.407C25.7657 225.759 25.5523 226.22 25.5 226.792L29.603 226.799C29.5526 226.227 29.3371 225.764 28.9563 225.412C28.5829 225.052 28.1139 224.871 27.5492 224.871ZM36.6959 224.258L36.6862 230.044L35.9052 230.043L35.9137 224.95L33.1417 224.945L33.0624 226.375C33.0017 227.578 32.8608 228.502 32.6397 229.147C32.4187 229.792 32.0258 230.114 31.4611 230.113C31.3071 230.113 31.1202 230.083 30.9003 230.024L30.9564 229.353C31.0883 229.383 31.18 229.397 31.2313 229.397C31.532 229.398 31.7595 229.259 31.914 228.98C32.0685 228.702 32.1717 228.358 32.2237 227.947C32.2758 227.536 32.3207 226.994 32.3585 226.319L32.4609 224.251L36.6959 224.258ZM43.9709 227.405L39.1309 227.397C39.1739 227.998 39.404 228.486 39.8214 228.861C40.2388 229.228 40.7665 229.413 41.4045 229.414C41.7638 229.414 42.0939 229.352 42.3948 229.228C42.6957 229.097 42.9563 228.906 43.1768 228.657L43.6159 229.164C43.3587 229.472 43.0357 229.706 42.6467 229.867C42.2651 230.027 41.8433 230.107 41.3813 230.107C40.7873 230.106 40.2596 229.98 39.798 229.73C39.3437 229.473 38.9887 229.12 38.7327 228.672C38.4768 228.225 38.3493 227.718 38.3503 227.154C38.3512 226.589 38.473 226.083 38.7158 225.636C38.9659 225.189 39.3038 224.842 39.7295 224.593C40.1626 224.344 40.6468 224.22 41.1822 224.221C41.7175 224.222 42.1976 224.348 42.6225 224.598C43.0475 224.848 43.3805 225.196 43.6218 225.644C43.8631 226.085 43.9832 226.591 43.9823 227.163L43.9709 227.405ZM41.181 224.892C40.6237 224.891 40.1541 225.07 39.7721 225.429C39.3976 225.78 39.1841 226.242 39.1318 226.814L43.2348 226.821C43.1844 226.248 42.9689 225.786 42.5881 225.434C42.2147 225.074 41.7457 224.893 41.181 224.892ZM41.9825 222.012L43.0275 222.013L41.2432 223.374L40.4732 223.373L41.9825 222.012ZM48.3661 227.049C48.7766 227.145 49.0917 227.31 49.3113 227.545C49.5382 227.78 49.6514 228.066 49.6509 228.404C49.6503 228.741 49.5325 229.042 49.2974 229.305C49.0696 229.569 48.7576 229.774 48.3613 229.92C47.9651 230.058 47.5287 230.127 47.052 230.127C46.634 230.126 46.2234 230.067 45.8203 229.949C45.4172 229.823 45.0655 229.643 44.7652 229.408L45.0302 228.825C45.2938 229.024 45.6016 229.178 45.9534 229.289C46.3052 229.399 46.6608 229.455 47.0201 229.456C47.5554 229.456 47.9919 229.358 48.3296 229.161C48.6746 228.956 48.8474 228.681 48.848 228.337C48.8485 228.029 48.7096 227.79 48.4312 227.621C48.1528 227.444 47.7716 227.356 47.2876 227.355L46.2976 227.353L46.2986 226.781L47.2446 226.783C47.6772 226.784 48.0257 226.704 48.29 226.543C48.5543 226.374 48.6866 226.151 48.6871 225.872C48.6876 225.564 48.5377 225.322 48.2373 225.146C47.9443 224.969 47.5594 224.88 47.0827 224.88C46.4594 224.879 45.8431 225.035 45.234 225.35L45.015 224.744C45.7049 224.386 46.4202 224.208 47.1609 224.209C47.6009 224.21 47.9967 224.276 48.3485 224.409C48.7077 224.534 48.986 224.714 49.1836 224.949C49.3886 225.184 49.4908 225.456 49.4903 225.764C49.4898 226.057 49.3867 226.317 49.181 226.544C48.9826 226.771 48.711 226.939 48.3661 227.049ZM53.808 230.126C53.2506 230.126 52.7485 230 52.3016 229.75C51.8547 229.493 51.5033 229.14 51.2474 228.692C50.9914 228.245 50.864 227.738 50.8649 227.174C50.8658 226.609 50.995 226.103 51.2524 225.656C51.5098 225.209 51.8624 224.862 52.3102 224.613C52.7579 224.364 53.2605 224.241 53.8178 224.241C54.3751 224.242 54.8772 224.368 55.3242 224.618C55.7711 224.868 56.1188 225.217 56.3674 225.664C56.6233 226.112 56.7508 226.618 56.7499 227.183C56.7489 227.748 56.6198 228.254 56.3624 228.7C56.1123 229.147 55.7634 229.499 55.3156 229.755C54.8679 230.003 54.3653 230.127 53.808 230.126ZM53.8091 229.433C54.2198 229.434 54.5866 229.343 54.9096 229.16C55.2399 228.97 55.497 228.703 55.6809 228.358C55.8648 228.014 55.9572 227.622 55.9579 227.182C55.9586 226.742 55.8676 226.349 55.6849 226.004C55.5021 225.659 55.2459 225.395 54.9162 225.211C54.5938 225.02 54.2273 224.924 53.8167 224.923C53.406 224.923 53.0355 225.018 52.7052 225.208C52.3822 225.39 52.1251 225.654 51.9339 225.998C51.75 226.343 51.6576 226.735 51.6569 227.175C51.6562 227.615 51.7472 228.007 51.9299 228.352C52.12 228.697 52.3762 228.965 52.6986 229.157C53.0283 229.341 53.3985 229.433 53.8091 229.433Z" fill="white"/>
<path d="M314.794 38.9224C314.226 38.0015 313.788 36.9458 313.48 35.7553C313.172 34.5548 313.019 33.2695 313.021 31.8995C313.023 30.5295 313.18 29.2448 313.492 28.0453C313.804 26.8358 314.246 25.7815 314.818 24.8824L316.183 24.8846C315.581 25.9336 315.139 27.0329 314.857 28.1825C314.575 29.332 314.433 30.5718 314.431 31.9018C314.429 33.2318 314.567 34.472 314.845 35.6225C315.123 36.7729 315.561 37.8736 316.159 38.9246L314.794 38.9224ZM325.238 36.029L322.978 32.8004C322.698 32.82 322.478 32.8296 322.318 32.8294L319.723 32.8252L319.718 36.0202L318.218 36.0178L318.235 25.5179L322.33 25.5244C323.69 25.5266 324.76 25.8533 325.539 26.5045C326.318 27.1558 326.706 28.0514 326.704 29.1914C326.703 30.0014 326.502 30.691 326.101 31.2604C325.7 31.8298 325.129 32.2439 324.389 32.5027L326.873 36.0316L325.238 36.029ZM322.275 31.5543C323.225 31.5558 323.951 31.352 324.451 30.9428C324.952 30.5336 325.203 29.949 325.204 29.189C325.205 28.429 324.956 27.8486 324.457 27.4478C323.958 27.037 323.233 26.8308 322.283 26.8293L319.733 26.8252L319.725 31.5502L322.275 31.5543ZM331.833 26.0045C330.973 26.0032 330.542 26.4675 330.541 27.3975L330.539 28.0875L332.849 28.0912L332.847 29.2762L330.567 29.2725L330.556 36.0375L329.116 36.0352L329.127 29.2702L327.777 29.2681L327.779 28.0831L329.129 28.0852L329.131 27.3802C329.132 26.5902 329.363 25.9656 329.824 25.5063C330.285 25.0471 330.93 24.8181 331.76 24.8194C332.08 24.8199 332.38 24.8604 332.66 24.9409C332.94 25.0213 333.179 25.1367 333.379 25.287L332.942 26.3813C332.613 26.1308 332.243 26.0052 331.833 26.0045ZM333.773 38.9527C334.375 37.9036 334.817 36.8043 335.099 35.6548C335.391 34.5052 335.538 33.2655 335.54 31.9355C335.542 30.6055 335.399 29.3652 335.111 28.2148C334.833 27.0643 334.395 25.9636 333.797 24.9127L335.162 24.9149C335.74 25.8158 336.183 26.8665 336.491 28.067C336.799 29.2675 336.952 30.5577 336.95 31.9377C336.948 33.3077 336.79 34.5925 336.478 35.792C336.166 36.9915 335.72 38.0458 335.138 38.9548L333.773 38.9527ZM343.117 29.9676C344.146 30.0692 344.931 30.3904 345.47 30.9313C346.009 31.4622 346.278 32.1426 346.277 32.9726C346.276 33.5726 346.125 34.1174 345.824 34.6069C345.523 35.0864 345.072 35.4707 344.472 35.7597C343.881 36.0388 343.156 36.1776 342.296 36.1763C341.546 36.1751 340.826 36.0639 340.137 35.8428C339.447 35.6117 338.883 35.2958 338.443 34.8951L339.135 33.7112C339.495 34.0518 339.954 34.3275 340.514 34.5384C341.074 34.7393 341.668 34.8402 342.298 34.8413C343.078 34.8425 343.684 34.6785 344.114 34.3491C344.555 34.0199 344.776 33.5652 344.777 32.9852C344.777 32.4052 344.563 31.9549 344.134 31.6342C343.704 31.3135 343.055 31.1525 342.185 31.1511L341.345 31.1497L341.346 30.0997L343.992 26.8639L338.937 26.8559L338.939 25.5509L345.869 25.5619L345.867 26.5819L343.117 29.9676ZM349.812 31.2082C349.082 31.2071 348.492 30.9411 348.043 30.4104C347.594 29.8797 347.37 29.1893 347.372 28.3393C347.373 27.4893 347.599 26.7997 348.05 26.2704C348.501 25.7411 349.092 25.4771 349.822 25.4782C350.552 25.4794 351.136 25.7453 351.575 26.276C352.024 26.7968 352.248 27.4871 352.247 28.3471C352.245 29.2071 352.019 29.9018 351.568 30.431C351.127 30.9503 350.542 31.2094 349.812 31.2082ZM356.151 25.5783L357.306 25.5802L350.119 36.0687L348.964 36.0669L356.151 25.5783ZM349.813 30.3532C350.273 30.354 350.634 30.1795 350.894 29.83C351.155 29.4704 351.286 28.9756 351.287 28.3456C351.288 27.7156 351.159 27.2254 350.899 26.875C350.64 26.5145 350.28 26.334 349.82 26.3332C349.37 26.3325 349.01 26.5119 348.739 26.8715C348.479 27.2311 348.348 27.7209 348.347 28.3409C348.346 28.9609 348.475 29.4511 348.734 29.8115C349.004 30.1719 349.363 30.3525 349.813 30.3532ZM356.449 36.1688C355.719 36.1677 355.129 35.9067 354.68 35.386C354.241 34.8553 354.022 34.16 354.024 33.3C354.025 32.44 354.246 31.7503 354.687 31.231C355.138 30.7017 355.728 30.4377 356.458 30.4388C357.188 30.44 357.778 30.7059 358.227 31.2367C358.676 31.7674 358.9 32.4577 358.899 33.3077C358.897 34.1577 358.671 34.8474 358.22 35.3767C357.769 35.9059 357.179 36.17 356.449 36.1688ZM356.45 35.3138C356.9 35.3145 357.255 35.1351 357.516 34.7755C357.787 34.416 357.922 33.9262 357.924 33.3062C357.925 32.6862 357.79 32.196 357.521 31.8355C357.262 31.4751 356.907 31.2946 356.457 31.2938C355.997 31.2931 355.637 31.4725 355.376 31.8321C355.115 32.1817 354.985 32.6715 354.984 33.3015C354.982 33.9315 355.112 34.4267 355.371 34.7871C355.63 35.1375 355.99 35.3131 356.45 35.3138ZM313.059 42.7096C313.552 42.7104 313.999 42.8245 314.399 43.0518C314.798 43.2724 315.111 43.5862 315.337 43.9933C315.563 44.4003 315.676 44.8638 315.675 45.3838C315.674 45.9105 315.56 46.3769 315.332 46.7833C315.105 47.1896 314.791 47.5057 314.391 47.7318C313.997 47.9511 313.55 48.0604 313.05 48.0596C312.624 48.0589 312.237 47.9717 311.891 47.7978C311.551 47.6172 311.271 47.3568 311.052 47.0164L311.047 49.9464L310.337 49.9453L310.349 42.7453L311.029 42.7464L311.027 43.7864C311.241 43.4401 311.522 43.1738 311.869 42.9877C312.222 42.8016 312.619 42.7089 313.059 42.7096ZM313.001 47.4295C313.368 47.4301 313.701 47.3473 314.002 47.1811C314.302 47.0083 314.536 46.7653 314.703 46.4522C314.877 46.1392 314.964 45.7827 314.965 45.3827C314.965 44.9827 314.879 44.6292 314.706 44.3223C314.54 44.0087 314.307 43.7649 314.008 43.5911C313.708 43.4173 313.375 43.3301 313.008 43.3295C312.635 43.3289 312.298 43.4151 311.998 43.5879C311.704 43.7608 311.47 44.0038 311.296 44.3168C311.129 44.6232 311.045 44.9764 311.045 45.3764C311.044 45.7764 311.127 46.1332 311.293 46.4468C311.466 46.7604 311.699 47.0041 311.992 47.1779C312.291 47.3451 312.628 47.4289 313.001 47.4295ZM321.8 45.6136L317.4 45.6066C317.439 46.1533 317.648 46.5969 318.028 46.9376C318.407 47.2715 318.887 47.4389 319.467 47.4398C319.793 47.4404 320.093 47.3842 320.367 47.2713C320.641 47.1517 320.878 46.9788 321.078 46.7524L321.477 47.2131C321.243 47.4927 320.95 47.7055 320.596 47.8517C320.249 47.9978 319.866 48.0705 319.446 48.0698C318.906 48.069 318.426 47.9549 318.006 47.7275C317.593 47.4935 317.271 47.173 317.038 46.766C316.805 46.3589 316.689 45.8988 316.69 45.3854C316.691 44.8721 316.802 44.4123 317.022 44.0059C317.25 43.5996 317.557 43.2835 317.944 43.0574C318.338 42.8314 318.778 42.7187 319.265 42.7195C319.751 42.7203 320.188 42.8343 320.574 43.0616C320.96 43.2889 321.263 43.606 321.482 44.0131C321.702 44.4134 321.811 44.8736 321.81 45.3936L321.8 45.6136ZM319.264 43.3295C318.757 43.3287 318.33 43.4914 317.983 43.8175C317.642 44.1369 317.448 44.5566 317.401 45.0766L321.131 45.0825C321.085 44.5624 320.889 44.1421 320.543 43.8216C320.203 43.4944 319.777 43.3303 319.264 43.3295ZM325.795 45.2899C326.169 45.3772 326.455 45.5277 326.655 45.7413C326.861 45.955 326.964 46.2151 326.963 46.5218C326.963 46.8285 326.856 47.1016 326.642 47.3413C326.435 47.581 326.151 47.7672 325.791 47.8999C325.431 48.026 325.034 48.0887 324.601 48.088C324.221 48.0874 323.848 48.0335 323.481 47.9263C323.115 47.8123 322.795 47.6485 322.522 47.4347L322.763 46.9051C323.002 47.0855 323.282 47.2259 323.602 47.3264C323.922 47.427 324.245 47.4775 324.572 47.478C325.059 47.4788 325.455 47.3894 325.762 47.2099C326.076 47.0237 326.233 46.774 326.234 46.4606C326.234 46.1806 326.108 45.9638 325.855 45.81C325.602 45.6496 325.255 45.5691 324.815 45.5684L323.915 45.5669L323.916 45.0469L324.776 45.0483C325.169 45.0489 325.486 44.9761 325.726 44.8298C325.967 44.6769 326.087 44.4737 326.087 44.2204C326.088 43.9404 325.951 43.7202 325.678 43.5598C325.412 43.3993 325.062 43.3188 324.629 43.3181C324.062 43.3172 323.502 43.4596 322.948 43.7454L322.749 43.1951C323.376 42.8694 324.026 42.7071 324.7 42.7082C325.1 42.7088 325.46 42.7694 325.779 42.8899C326.106 43.0038 326.359 43.1675 326.539 43.3811C326.725 43.5948 326.818 43.8416 326.817 44.1216C326.817 44.3882 326.723 44.6248 326.536 44.8311C326.356 45.0375 326.109 45.1904 325.795 45.2899ZM333.177 45.6317L328.777 45.6247C328.816 46.1714 329.025 46.6151 329.405 46.9557C329.784 47.2896 330.264 47.4571 330.844 47.458C331.17 47.4585 331.47 47.4023 331.744 47.2894C332.017 47.1699 332.254 46.9969 332.455 46.7706L332.854 47.2312C332.62 47.5108 332.327 47.7237 331.973 47.8698C331.626 48.0159 331.243 48.0886 330.823 48.088C330.283 48.0871 329.803 47.973 329.383 47.7457C328.97 47.5117 328.647 47.1912 328.415 46.7841C328.182 46.3771 328.066 45.9169 328.067 45.4036C328.068 44.8902 328.179 44.4304 328.399 44.0241C328.627 43.6178 328.934 43.3016 329.321 43.0756C329.715 42.8495 330.155 42.7369 330.642 42.7377C331.128 42.7384 331.565 42.8525 331.951 43.0798C332.337 43.307 332.64 43.6242 332.859 44.0312C333.079 44.4316 333.188 44.8917 333.187 45.4117L333.177 45.6317ZM330.641 43.3477C330.134 43.3469 329.707 43.5095 329.36 43.8356C329.019 44.1551 328.825 44.5748 328.778 45.0947L332.508 45.1006C332.462 44.5806 332.266 44.1603 331.92 43.8397C331.58 43.5125 331.154 43.3485 330.641 43.3477ZM337.473 42.7486C337.967 42.7494 338.413 42.8634 338.813 43.0907C339.212 43.3113 339.525 43.6252 339.751 44.0322C339.977 44.4392 340.09 44.9027 340.089 45.4227C340.088 45.9494 339.974 46.4159 339.746 46.8222C339.519 47.2285 339.205 47.5447 338.805 47.7707C338.411 47.9901 337.964 48.0994 337.464 48.0986C337.038 48.0979 336.651 48.0106 336.305 47.8367C335.965 47.6562 335.685 47.3957 335.466 47.0554L335.461 49.9854L334.751 49.9842L334.763 42.7842L335.443 42.7853L335.441 43.8253C335.655 43.479 335.936 43.2128 336.283 43.0267C336.636 42.8406 337.033 42.7479 337.473 42.7486ZM337.415 47.4685C337.782 47.4691 338.115 47.3863 338.416 47.2201C338.716 47.0472 338.95 46.8043 339.117 46.4912C339.291 46.1781 339.378 45.8216 339.379 45.4216C339.379 45.0216 339.293 44.6681 339.12 44.3612C338.954 44.0476 338.721 43.8039 338.422 43.6301C338.122 43.4563 337.789 43.3691 337.422 43.3685C337.049 43.3679 336.712 43.454 336.412 43.6269C336.118 43.7997 335.884 44.0427 335.71 44.3558C335.543 44.6622 335.459 45.0154 335.459 45.4154C335.458 45.8154 335.541 46.1722 335.707 46.4858C335.88 46.7994 336.113 47.0431 336.406 47.2169C336.705 47.384 337.042 47.4679 337.415 47.4685ZM347.964 45.4253C347.963 46.2453 347.692 46.8882 347.151 47.354C346.61 47.8198 345.846 48.0719 344.86 48.1104L344.857 50.0004L344.167 49.9993L344.17 48.1193C343.19 48.0777 342.43 47.8231 341.891 47.3556C341.358 46.8814 341.093 46.2343 341.094 45.4143C341.096 44.601 341.363 43.9648 341.897 43.5056C342.438 43.0465 343.199 42.7977 344.179 42.7593L344.182 40.6393L344.872 40.6404L344.869 42.7604C345.855 42.8086 346.618 43.0632 347.157 43.524C347.697 43.9849 347.966 44.6186 347.964 45.4253ZM341.794 45.4155C341.793 46.0421 341.992 46.5324 342.392 46.8864C342.798 47.2404 343.391 47.4413 344.171 47.4893L344.178 43.3893C343.404 43.428 342.814 43.6238 342.407 43.9764C341.999 44.3225 341.795 44.8021 341.794 45.4155ZM344.861 47.4904C345.641 47.4516 346.234 47.2559 346.642 46.9032C347.056 46.5505 347.263 46.0575 347.264 45.4242C347.265 44.8042 347.059 44.3205 346.647 43.9732C346.241 43.6259 345.648 43.4316 344.868 43.3904L344.861 47.4904ZM351.631 48.1212C351.125 48.1203 350.668 48.0063 350.262 47.779C349.856 47.545 349.536 47.2245 349.303 46.8174C349.071 46.4104 348.955 45.9502 348.956 45.4369C348.957 44.9236 349.074 44.4637 349.308 44.0574C349.542 43.6512 349.863 43.335 350.27 43.109C350.677 42.883 351.134 42.7704 351.64 42.7712C352.147 42.772 352.603 42.886 353.01 43.1133C353.416 43.3407 353.732 43.6578 353.958 44.0649C354.191 44.4719 354.307 44.9321 354.306 45.4454C354.305 45.9588 354.187 46.4186 353.953 46.8249C353.726 47.2312 353.409 47.5507 353.002 47.7833C352.595 48.0094 352.138 48.122 351.631 48.1212ZM351.632 47.4912C352.006 47.4918 352.339 47.409 352.633 47.2428C352.933 47.0699 353.167 46.8269 353.334 46.5139C353.501 46.2008 353.585 45.8443 353.586 45.4443C353.586 45.0443 353.504 44.6875 353.338 44.3739C353.171 44.0603 352.938 43.8199 352.639 43.6528C352.346 43.479 352.012 43.3918 351.639 43.3912C351.266 43.3906 350.929 43.4767 350.629 43.6496C350.335 43.8158 350.101 44.0554 349.928 44.3684C349.76 44.6815 349.676 45.038 349.676 45.438C349.675 45.838 349.758 46.1948 349.924 46.5084C350.097 46.822 350.33 47.0657 350.623 47.2395C350.922 47.4067 351.259 47.4906 351.632 47.4912ZM358.538 42.7822C359.031 42.783 359.477 42.897 359.877 43.1243C360.277 43.3449 360.589 43.6588 360.815 44.0658C361.041 44.4728 361.154 44.9363 361.153 45.4563C361.152 45.983 361.038 46.4495 360.811 46.8558C360.583 47.2621 360.27 47.5783 359.869 47.8043C359.476 48.0237 359.029 48.133 358.529 48.1322C358.102 48.1315 357.715 48.0442 357.369 47.8703C357.029 47.6898 356.75 47.4293 356.53 47.089L356.526 50.019L355.816 50.0178L355.828 42.8178L356.508 42.8189L356.506 43.8589C356.72 43.5126 357 43.2464 357.347 43.0603C357.701 42.8742 358.098 42.7815 358.538 42.7822ZM358.48 47.5021C358.846 47.5027 359.18 47.4199 359.48 47.2537C359.78 47.0808 360.014 46.8379 360.181 46.5248C360.355 46.2117 360.442 45.8552 360.443 45.4552C360.444 45.0552 360.358 44.7017 360.185 44.3948C360.019 44.0812 359.786 43.8375 359.486 43.6637C359.186 43.4899 358.853 43.4027 358.487 43.4021C358.113 43.4015 357.776 43.4876 357.476 43.6605C357.183 43.8333 356.949 44.0763 356.775 44.3894C356.608 44.6958 356.524 45.049 356.523 45.449C356.522 45.849 356.605 46.2058 356.771 46.5194C356.944 46.833 357.177 47.0767 357.47 47.2505C357.77 47.4176 358.106 47.5015 358.48 47.5021Z" fill="white"/>
<path d="M312.292 221.918C311.723 220.997 311.285 219.942 310.977 218.751C310.669 217.551 310.516 216.266 310.519 214.896C310.521 213.526 310.678 212.241 310.99 211.041C311.302 209.832 311.744 208.777 312.315 207.878L313.68 207.881C313.078 208.93 312.637 210.029 312.355 211.178C312.073 212.328 311.931 213.568 311.929 214.898C311.926 216.228 312.064 217.468 312.342 218.618C312.62 219.769 313.059 220.87 313.657 221.921L312.292 221.918ZM324.763 208.528L324.745 219.028L323.515 219.026L317.228 211.186L317.215 219.016L315.715 219.014L315.733 208.514L316.963 208.516L323.25 216.356L323.263 208.526L324.763 208.528ZM327.691 211.083L329.131 211.085L329.118 219.035L327.678 219.033L327.691 211.083ZM328.414 209.554C328.134 209.554 327.899 209.463 327.709 209.283C327.53 209.103 327.44 208.883 327.441 208.623C327.441 208.363 327.531 208.143 327.712 207.963C327.902 207.773 328.137 207.679 328.417 207.679C328.697 207.68 328.927 207.77 329.107 207.95C329.296 208.12 329.391 208.336 329.391 208.596C329.39 208.866 329.295 209.095 329.104 209.285C328.924 209.465 328.694 209.555 328.414 209.554ZM330.978 221.948C331.58 220.899 332.021 219.8 332.303 218.65C332.595 217.501 332.742 216.261 332.745 214.931C332.747 213.601 332.604 212.361 332.316 211.21C332.038 210.06 331.599 208.959 331.001 207.908L332.366 207.91C332.945 208.811 333.388 209.862 333.696 211.063C334.004 212.263 334.157 213.553 334.155 214.933C334.152 216.303 333.995 217.588 333.683 218.788C333.371 219.987 332.924 221.041 332.343 221.95L330.978 221.948ZM339.714 208.432C341.124 208.434 342.208 208.891 342.966 209.802C343.735 210.714 344.118 212.004 344.115 213.674C344.113 214.844 343.901 215.844 343.48 216.673C343.069 217.492 342.488 218.117 341.737 218.545C340.996 218.964 340.131 219.173 339.141 219.171C338.631 219.17 338.151 219.12 337.701 219.019C337.251 218.908 336.862 218.753 336.532 218.552L337.104 217.383C337.613 217.714 338.288 217.88 339.128 217.881C340.218 217.883 341.069 217.549 341.68 216.88C342.301 216.201 342.612 215.217 342.615 213.927L342.615 213.552C342.314 214.001 341.899 214.346 341.368 214.585C340.838 214.814 340.243 214.928 339.583 214.927C338.893 214.926 338.273 214.795 337.724 214.534C337.184 214.273 336.76 213.902 336.45 213.422C336.151 212.931 336.002 212.371 336.003 211.741C336.004 211.081 336.165 210.501 336.486 210.002C336.817 209.502 337.263 209.118 337.823 208.849C338.383 208.57 339.014 208.431 339.714 208.432ZM339.84 213.712C340.31 213.713 340.73 213.624 341.1 213.444C341.471 213.265 341.756 213.02 341.957 212.711C342.167 212.401 342.273 212.056 342.273 211.676C342.274 211.306 342.174 210.971 341.975 210.671C341.786 210.36 341.501 210.115 341.121 209.934C340.752 209.744 340.302 209.648 339.772 209.647C339.082 209.646 338.521 209.83 338.091 210.2C337.67 210.569 337.459 211.064 337.458 211.684C337.457 212.304 337.671 212.799 338.101 213.17C338.53 213.53 339.11 213.711 339.84 213.712ZM348.777 208.567L348.76 219.067L347.275 219.064L347.29 209.869L344.92 209.865L344.922 208.56L348.777 208.567ZM353.345 214.214C352.615 214.213 352.025 213.947 351.576 213.416C351.127 212.885 350.903 212.195 350.905 211.345C350.906 210.495 351.132 209.805 351.583 209.276C352.034 208.747 352.624 208.483 353.354 208.484C354.084 208.485 354.669 208.751 355.108 209.282C355.557 209.802 355.781 210.493 355.779 211.353C355.778 212.213 355.552 212.907 355.101 213.437C354.66 213.956 354.075 214.215 353.345 214.214ZM359.684 208.584L360.839 208.586L353.652 219.074L352.497 219.073L359.684 208.584ZM353.346 213.359C353.806 213.36 354.166 213.185 354.427 212.836C354.688 212.476 354.818 211.981 354.819 211.351C354.821 210.721 354.691 210.231 354.432 209.881C354.173 209.52 353.813 209.34 353.353 209.339C352.903 209.338 352.543 209.518 352.272 209.877C352.011 210.237 351.881 210.727 351.879 211.347C351.878 211.967 352.008 212.457 352.267 212.817C352.536 213.178 352.896 213.358 353.346 213.359ZM359.981 219.174C359.251 219.173 358.662 218.912 358.213 218.392C357.774 217.861 357.555 217.166 357.556 216.306C357.558 215.446 357.779 214.756 358.22 214.237C358.671 213.707 359.261 213.443 359.991 213.444C360.721 213.446 361.311 213.712 361.76 214.242C362.209 214.773 362.433 215.463 362.431 216.313C362.43 217.163 362.204 217.853 361.753 218.382C361.302 218.912 360.711 219.176 359.981 219.174ZM359.983 218.319C360.433 218.32 360.788 218.141 361.049 217.781C361.319 217.422 361.455 216.932 361.456 216.312C361.457 215.692 361.323 215.202 361.054 214.841C360.794 214.481 360.44 214.3 359.99 214.299C359.53 214.299 359.169 214.478 358.909 214.838C358.648 215.187 358.517 215.677 358.516 216.307C358.515 216.937 358.644 217.432 358.904 217.793C359.163 218.143 359.523 218.319 359.983 218.319ZM316.625 226.229L317.406 226.231L317.401 228.794L321.042 228.799L321.047 226.236L321.828 226.238L321.818 232.024L321.037 232.022L321.041 229.47L317.4 229.465L317.396 232.017L316.615 232.015L316.625 226.229ZM324.047 226.241L324.828 226.242L324.821 230.84L328.689 226.249L329.382 226.25L329.373 232.036L328.592 232.034L328.599 227.436L324.742 232.028L324.038 232.027L324.047 226.241ZM327.468 223.992L328.513 223.993L326.729 225.354L325.959 225.353L327.468 223.992ZM333.716 229.469L332.396 229.466L332.392 232.04L331.611 232.039L331.621 226.253L332.402 226.254L332.397 228.795L333.728 228.798L335.768 226.26L336.615 226.261L334.333 229.063L336.77 232.047L335.846 232.046L333.716 229.469ZM342.863 229.406L338.023 229.398C338.066 230 338.296 230.488 338.713 230.863C339.131 231.23 339.659 231.414 340.297 231.415C340.656 231.416 340.986 231.354 341.287 231.23C341.588 231.098 341.848 230.908 342.069 230.659L342.508 231.166C342.251 231.473 341.928 231.707 341.539 231.868C341.157 232.029 340.735 232.109 340.273 232.108C339.679 232.107 339.152 231.982 338.69 231.732C338.236 231.474 337.881 231.122 337.625 230.674C337.369 230.226 337.241 229.72 337.242 229.155C337.243 228.591 337.365 228.085 337.608 227.638C337.858 227.191 338.196 226.843 338.622 226.594C339.055 226.346 339.539 226.222 340.074 226.223C340.61 226.224 341.09 226.349 341.515 226.599C341.94 226.849 342.273 227.198 342.514 227.646C342.755 228.086 342.875 228.592 342.874 229.164L342.863 229.406ZM340.073 226.894C339.516 226.893 339.046 227.072 338.664 227.43C338.29 227.782 338.076 228.244 338.024 228.815L342.127 228.822C342.077 228.25 341.861 227.788 341.48 227.435C341.107 227.075 340.638 226.895 340.073 226.894ZM349.22 226.281L349.21 232.067L348.429 232.066L348.438 226.973L345.666 226.969L345.586 228.399C345.526 229.601 345.385 230.525 345.164 231.17C344.943 231.815 344.55 232.137 343.985 232.136C343.831 232.136 343.644 232.106 343.424 232.047L343.48 231.376C343.612 231.406 343.704 231.421 343.755 231.421C344.056 231.421 344.283 231.282 344.438 231.004C344.592 230.725 344.696 230.381 344.748 229.97C344.8 229.56 344.845 229.017 344.882 228.342L344.985 226.275L349.22 226.281ZM353.923 228.335C354.649 228.343 355.198 228.506 355.572 228.821C355.953 229.137 356.142 229.592 356.141 230.186C356.14 230.802 355.934 231.275 355.523 231.604C355.119 231.934 354.532 232.094 353.762 232.086L351.43 232.071L351.44 226.285L352.221 226.286L352.218 228.31L353.923 228.335ZM353.719 231.491C354.255 231.5 354.658 231.394 354.93 231.174C355.209 230.948 355.349 230.618 355.349 230.185C355.35 229.76 355.215 229.444 354.944 229.238C354.673 229.033 354.266 228.926 353.724 228.917L352.217 228.893L352.212 231.467L353.719 231.491Z" fill="white"/>
<path d="M265.828 179.822L265.759 221.565L301.014 221.621" stroke="#FFFAFA"/>
<ellipse rx="2.7543" ry="2.67584" transform="matrix(-0.999999 -0.00159511 0.00166752 -0.999999 266.31 221.031)" fill="white"/>
<ellipse rx="2.7543" ry="2.67584" transform="matrix(-0.999999 -0.00159511 0.00166752 -0.999999 299.362 221.083)" fill="white"/>
<ellipse rx="2.7543" ry="2.67584" transform="matrix(-0.999999 -0.00159511 0.00166752 -0.999999 266.375 182.498)" fill="white"/>
<path d="M264.922 81.2313L264.991 39.4882L300.246 39.5444" stroke="#FFFAFA"/>
<ellipse rx="2.75429" ry="2.67584" transform="matrix(-0.999999 -0.00159511 -0.00166752 0.999999 265.541 40.0235)" fill="white"/>
<ellipse rx="2.75429" ry="2.67584" transform="matrix(-0.999999 -0.00159511 -0.00166752 0.999999 298.592 40.0777)" fill="white"/>
<ellipse rx="2.75429" ry="2.67584" transform="matrix(-0.999999 -0.00159511 -0.00166752 0.999999 265.477 78.5562)" fill="white"/>
<path d="M107.346 80.9836L107.415 39.2369L72.1606 39.1807" stroke="#FFFAFA"/>
<ellipse rx="2.75429" ry="2.67608" transform="matrix(0.999999 0.00159511 -0.00166752 0.999999 106.864 39.7708)" fill="white"/>
<ellipse rx="2.75429" ry="2.67608" transform="matrix(0.999999 0.00159511 -0.00166752 0.999999 73.8123 39.7181)" fill="white"/>
<ellipse rx="2.75429" ry="2.67608" transform="matrix(0.999999 0.00159511 -0.00166752 0.999999 106.799 78.3064)" fill="white"/>
<path d="M107.182 179.569L107.112 221.313L71.8574 221.256" stroke="#FFFAFA"/>
<ellipse rx="2.75429" ry="2.67584" transform="matrix(0.999999 0.00159511 0.00166752 -0.999999 106.561 220.776)" fill="white"/>
<ellipse rx="2.75429" ry="2.67584" transform="matrix(0.999999 0.00159511 0.00166752 -0.999999 73.5107 220.722)" fill="white"/>
<ellipse rx="2.75429" ry="2.67584" transform="matrix(0.999999 0.00159511 0.00166752 -0.999999 106.625 182.245)" fill="white"/>
<path d="M142.412 6.06502L142.399 14.015L140.959 14.0127L140.97 7.32272L136.485 7.31557L136.474 14.0056L135.034 14.0033L135.047 6.05327L142.412 6.06502ZM152.023 6.08035L152.01 14.0303L150.57 14.028L150.581 7.33805L147.161 7.3326L147.068 9.10245C147.016 10.1724 146.92 11.0672 146.779 11.787C146.637 12.4968 146.407 13.0664 146.086 13.4959C145.765 13.9254 145.32 14.1397 144.75 14.1388C144.49 14.1383 144.195 14.0929 143.865 14.0023L143.957 12.7875C144.087 12.8177 144.207 12.8329 144.317 12.8331C144.717 12.8337 145.017 12.6592 145.218 12.3095C145.418 11.9598 145.549 11.545 145.61 11.0651C145.671 10.5852 145.727 9.90031 145.778 9.01039L145.918 6.07061L152.023 6.08035ZM157.643 6.01431C158.743 6.01607 159.582 6.28741 160.161 6.82833C160.75 7.36927 161.044 8.17474 161.042 9.24474L161.034 14.0447L159.669 14.0426L159.671 12.9926C159.43 13.3622 159.085 13.6466 158.635 13.8459C158.194 14.0352 157.669 14.1294 157.059 14.1284C156.169 14.127 155.454 13.9108 154.915 13.48C154.386 13.0491 154.122 12.4837 154.123 11.7837C154.124 11.0837 154.38 10.5241 154.891 10.1049C155.402 9.67575 156.212 9.46204 157.322 9.46381L159.602 9.46744L159.602 9.18245C159.603 8.56245 159.424 8.08716 159.065 7.75659C158.705 7.42601 158.176 7.26017 157.476 7.25905C157.006 7.2583 156.545 7.33757 156.095 7.49685C155.645 7.64613 155.265 7.85052 154.954 8.11003L154.356 7.02907C154.767 6.69973 155.257 6.45051 155.827 6.28142C156.398 6.10233 157.003 6.01329 157.643 6.01431ZM157.301 13.0188C157.851 13.0197 158.326 12.9004 158.727 12.6611C159.127 12.4117 159.418 12.0622 159.598 11.6124L159.6 10.5024L157.38 10.4989C156.16 10.497 155.549 10.906 155.548 11.726C155.547 12.126 155.702 12.4412 156.012 12.6717C156.321 12.9022 156.751 13.0179 157.301 13.0188ZM163.641 6.09888L165.081 6.10118L165.075 9.47617L169.605 9.4834L169.611 6.10841L171.051 6.1107L171.037 14.0607L169.597 14.0584L169.603 10.7284L165.073 10.7212L165.067 14.0512L163.627 14.0489L163.641 6.09888ZM181.029 10.1466C181.029 10.2566 181.018 10.4016 180.998 10.5816L174.548 10.5713C174.637 11.2714 174.941 11.8369 175.46 12.2677C175.99 12.6886 176.644 12.8996 177.424 12.9009C178.374 12.9024 179.14 12.5836 179.721 11.9445L180.514 12.8758C180.154 13.2952 179.703 13.6145 179.163 13.8337C178.632 14.0528 178.037 14.1619 177.377 14.1608C176.537 14.1595 175.792 13.9883 175.143 13.6472C174.494 13.2962 173.989 12.8104 173.63 12.1898C173.281 11.5693 173.108 10.869 173.109 10.089C173.11 9.31899 173.281 8.62426 173.622 8.00481C173.973 7.38537 174.449 6.90612 175.05 6.56708C175.66 6.21806 176.346 6.04415 177.106 6.04536C177.866 6.04657 178.54 6.22265 179.13 6.57359C179.729 6.91455 180.193 7.39529 180.522 8.01581C180.861 8.63635 181.03 9.34662 181.029 10.1466ZM177.104 7.26036C176.414 7.25926 175.833 7.46833 175.363 7.88758C174.902 8.30685 174.631 8.85642 174.55 9.53629L179.65 9.54442C179.571 8.8743 179.297 8.32886 178.827 7.90811C178.368 7.47738 177.794 7.26146 177.104 7.26036ZM188.855 7.3991L185.945 7.39446L185.934 14.0845L184.494 14.0822L184.505 7.39217L181.595 7.38752L181.597 6.12753L188.857 6.13911L188.855 7.3991ZM193.165 6.07098C194.265 6.07273 195.105 6.34407 195.684 6.885C196.273 7.42594 196.566 8.23141 196.565 9.3014L196.557 14.1014L195.192 14.0992L195.193 13.0492C194.953 13.4188 194.607 13.7033 194.157 13.9026C193.717 14.0919 193.192 14.186 192.582 14.1851C191.692 14.1836 190.977 13.9675 190.438 13.5366C189.908 13.1058 189.644 12.5404 189.645 11.8404C189.647 11.1404 189.903 10.5808 190.413 10.1616C190.924 9.73241 191.734 9.5187 192.844 9.52047L195.124 9.52411L195.125 9.23911C195.126 8.61911 194.947 8.14382 194.587 7.81325C194.228 7.48267 193.698 7.31683 192.998 7.31571C192.528 7.31496 192.068 7.39423 191.618 7.55351C191.167 7.70279 190.787 7.90719 190.477 8.16669L189.878 7.08574C190.289 6.75639 190.779 6.50717 191.35 6.33808C191.92 6.15899 192.525 6.06996 193.165 6.07098ZM192.823 13.0754C193.373 13.0763 193.849 12.9571 194.249 12.7177C194.649 12.4684 194.94 12.1188 195.121 11.6691L195.123 10.5591L192.903 10.5556C191.683 10.5536 191.072 10.9626 191.071 11.7826C191.07 12.1826 191.224 12.4979 191.534 12.7284C191.844 12.9589 192.273 13.0746 192.823 13.0754ZM212.405 3.62666L212.388 14.1267L211.158 14.1247L204.871 6.28465L204.858 14.1146L203.358 14.1122L203.376 3.61226L204.606 3.61422L210.892 11.4543L210.906 3.62427L212.405 3.62666ZM222.058 12.8371L222.056 14.1421L214.511 14.13L214.513 13.11L218.794 8.99186C219.315 8.49269 219.666 8.06325 219.847 7.70354C220.027 7.33383 220.118 6.96397 220.118 6.59397C220.119 6.04397 219.925 5.61866 219.536 5.31804C219.156 5.00743 218.606 4.85156 217.886 4.85041C216.726 4.84856 215.831 5.22713 215.199 5.98612L214.181 5.0995C214.592 4.60015 215.127 4.21101 215.788 3.93206C216.458 3.65313 217.204 3.51432 218.024 3.51563C219.124 3.51738 219.998 3.78378 220.647 4.31481C221.296 4.83585 221.62 5.54637 221.619 6.44636C221.618 7.00636 221.497 7.53617 221.256 8.03579C221.015 8.5354 220.559 9.10468 219.888 9.74361L216.673 12.8285L222.058 12.8371ZM226.562 3.64924L226.544 14.1492L225.059 14.1469L225.074 4.95187L222.704 4.94809L222.707 3.6431L226.562 3.64924ZM238.743 3.66868L238.726 14.1687L237.496 14.1667L231.209 6.32666L231.196 14.1567L229.696 14.1543L229.713 3.65427L230.943 3.65623L237.23 11.4963L237.243 3.66628L238.743 3.66868Z" fill="white"/>
<defs>
<radialGradient id="paint0_radial" cx="0" cy="0" r="1" gradientUnits="userSpaceOnUse" gradientTransform="translate(209.342 234.95) rotate(-90.3946) scale(225.347 230.403)">
<stop stop-color="#C4C4C4"/>
<stop offset="1" stop-color="#C4C4C4" stop-opacity="0"/>
</radialGradient>
</defs>
</svg>
