<svg width="375" height="259" viewBox="0 0 375 259" fill="none" xmlns="http://www.w3.org/2000/svg">
<path d="M175.685 223.22C123.066 217.226 85.3966 170.652 91.5222 119.215C97.6478 67.7772 145.253 30.9178 197.872 36.9119C250.49 42.906 288.16 89.4797 282.034 140.917C275.909 192.355 228.303 229.214 175.685 223.22Z" fill="url(#paint0_radial)" fill-opacity="0.31" stroke="white"/>
<path d="M373.928 221.409C373.928 241.372 357.378 257.574 336.939 257.574C316.5 257.574 299.95 241.372 299.95 221.409C299.95 201.445 316.5 185.243 336.939 185.243C357.378 185.243 373.928 201.445 373.928 221.409Z" fill="#916C5A" stroke="white"/>
<path d="M373.928 37.0316C373.928 56.9951 357.378 73.1975 336.939 73.1975C316.5 73.1975 299.95 56.9951 299.95 37.0316C299.95 17.0681 316.5 0.865723 336.939 0.865723C357.378 0.865723 373.928 17.0681 373.928 37.0316Z" fill="black" stroke="white"/>
<path d="M75.0887 37.0316C75.0887 56.9951 58.5387 73.1975 38.0998 73.1975C17.6608 73.1975 1.11084 56.9951 1.11084 37.0316C1.11084 17.0681 17.6608 0.865723 38.0998 0.865723C58.5387 0.865723 75.0887 17.0681 75.0887 37.0316Z" fill="#74B00D" stroke="white"/>
<path d="M75.0887 221.409C75.0887 241.372 58.5387 257.574 38.0998 257.574C17.6608 257.574 1.11084 241.372 1.11084 221.409C1.11084 201.445 17.6608 185.243 38.0998 185.243C58.5387 185.243 75.0887 201.445 75.0887 221.409Z" fill="#00789A" stroke="white"/>
<path d="M13.6802 39.91C13.1102 38.99 12.6702 37.935 12.3602 36.745C12.0502 35.545 11.8952 34.26 11.8952 32.89C11.8952 31.52 12.0502 30.235 12.3602 29.035C12.6702 27.825 13.1102 26.77 13.6802 25.87H15.0452C14.4452 26.92 14.0052 28.02 13.7252 29.17C13.4452 30.32 13.3052 31.56 13.3052 32.89C13.3052 34.22 13.4452 35.46 13.7252 36.61C14.0052 37.76 14.4452 38.86 15.0452 39.91H13.6802ZM26.8339 37L26.8189 29.35L23.0239 35.725H22.3339L18.5389 29.395V37H17.0989V26.5H18.3289L22.7089 33.88L27.0289 26.5H28.2589L28.2739 37H26.8339ZM35.4601 28.975C36.4701 28.975 37.2701 29.27 37.8601 29.86C38.4601 30.44 38.7601 31.295 38.7601 32.425V37H37.3201V32.59C37.3201 31.82 37.1351 31.24 36.7651 30.85C36.3951 30.46 35.8651 30.265 35.1751 30.265C34.3951 30.265 33.7801 30.495 33.3301 30.955C32.8801 31.405 32.6551 32.055 32.6551 32.905V37H31.2151V29.05H32.5951V30.25C32.8851 29.84 33.2751 29.525 33.7651 29.305C34.2651 29.085 34.8301 28.975 35.4601 28.975ZM40.5401 39.91C41.1401 38.86 41.5801 37.76 41.8601 36.61C42.1501 35.46 42.2951 34.22 42.2951 32.89C42.2951 31.56 42.1501 30.32 41.8601 29.17C41.5801 28.02 41.1401 26.92 40.5401 25.87H41.9051C42.4851 26.77 42.9301 27.82 43.2401 29.02C43.5501 30.22 43.7051 31.51 43.7051 32.89C43.7051 34.26 43.5501 35.545 43.2401 36.745C42.9301 37.945 42.4851 39 41.9051 39.91H40.5401ZM53.2284 35.695V37H45.6834V35.98L49.9584 31.855C50.4784 31.355 50.8284 30.925 51.0084 30.565C51.1884 30.195 51.2784 29.825 51.2784 29.455C51.2784 28.905 51.0834 28.48 50.6934 28.18C50.3134 27.87 49.7634 27.715 49.0434 27.715C47.8834 27.715 46.9884 28.095 46.3584 28.855L45.3384 27.97C45.7484 27.47 46.2834 27.08 46.9434 26.8C47.6134 26.52 48.3584 26.38 49.1784 26.38C50.2784 26.38 51.1534 26.645 51.8034 27.175C52.4534 27.695 52.7784 28.405 52.7784 29.305C52.7784 29.865 52.6584 30.395 52.4184 30.895C52.1784 31.395 51.7234 31.965 51.0534 32.605L47.8434 35.695H53.2284ZM56.8882 32.14C56.1582 32.14 55.5682 31.875 55.1182 31.345C54.6682 30.815 54.4432 30.125 54.4432 29.275C54.4432 28.425 54.6682 27.735 55.1182 27.205C55.5682 26.675 56.1582 26.41 56.8882 26.41C57.6182 26.41 58.2032 26.675 58.6432 27.205C59.0932 27.725 59.3182 28.415 59.3182 29.275C59.3182 30.135 59.0932 30.83 58.6432 31.36C58.2032 31.88 57.6182 32.14 56.8882 32.14ZM63.2182 26.5H64.3732L57.2032 37H56.0482L63.2182 26.5ZM56.8882 31.285C57.3482 31.285 57.7082 31.11 57.9682 30.76C58.2282 30.4 58.3582 29.905 58.3582 29.275C58.3582 28.645 58.2282 28.155 57.9682 27.805C57.7082 27.445 57.3482 27.265 56.8882 27.265C56.4382 27.265 56.0782 27.445 55.8082 27.805C55.5482 28.165 55.4182 28.655 55.4182 29.275C55.4182 29.895 55.5482 30.385 55.8082 30.745C56.0782 31.105 56.4382 31.285 56.8882 31.285ZM63.5332 37.09C62.8032 37.09 62.2132 36.83 61.7632 36.31C61.3232 35.78 61.1032 35.085 61.1032 34.225C61.1032 33.365 61.3232 32.675 61.7632 32.155C62.2132 31.625 62.8032 31.36 63.5332 31.36C64.2632 31.36 64.8532 31.625 65.3032 32.155C65.7532 32.685 65.9782 33.375 65.9782 34.225C65.9782 35.075 65.7532 35.765 65.3032 36.295C64.8532 36.825 64.2632 37.09 63.5332 37.09ZM63.5332 36.235C63.9832 36.235 64.3382 36.055 64.5982 35.695C64.8682 35.335 65.0032 34.845 65.0032 34.225C65.0032 33.605 64.8682 33.115 64.5982 32.755C64.3382 32.395 63.9832 32.215 63.5332 32.215C63.0732 32.215 62.7132 32.395 62.4532 32.755C62.1932 33.105 62.0632 33.595 62.0632 34.225C62.0632 34.855 62.1932 35.35 62.4532 35.71C62.7132 36.06 63.0732 36.235 63.5332 36.235ZM17.8754 44.214V50H17.1604V45.424L14.8174 49.296H14.4654L12.1224 45.413V50H11.4074V44.214H12.1994L14.6524 48.383L17.1494 44.214H17.8754ZM22.0888 44.17C22.8441 44.17 23.4235 44.3607 23.8268 44.742C24.2302 45.116 24.4318 45.6733 24.4318 46.414V50H23.6838V49.098C23.5078 49.3987 23.2475 49.6333 22.9028 49.802C22.5655 49.9707 22.1621 50.055 21.6928 50.055C21.0475 50.055 20.5341 49.901 20.1528 49.593C19.7715 49.285 19.5808 48.878 19.5808 48.372C19.5808 47.8807 19.7568 47.4847 20.1088 47.184C20.4681 46.8833 21.0365 46.733 21.8138 46.733H23.6508V46.381C23.6508 45.8823 23.5115 45.5047 23.2328 45.248C22.9541 44.984 22.5471 44.852 22.0118 44.852C21.6451 44.852 21.2931 44.9143 20.9558 45.039C20.6185 45.1563 20.3288 45.3213 20.0868 45.534L19.7348 44.951C20.0281 44.7017 20.3801 44.511 20.7908 44.379C21.2015 44.2397 21.6341 44.17 22.0888 44.17ZM21.8138 49.439C22.2538 49.439 22.6315 49.34 22.9468 49.142C23.2621 48.9367 23.4968 48.6433 23.6508 48.262V47.316H21.8358C20.8458 47.316 20.3508 47.6607 20.3508 48.35C20.3508 48.6873 20.4791 48.955 20.7358 49.153C20.9925 49.3437 21.3518 49.439 21.8138 49.439ZM22.9026 41.959H23.9476L22.1656 43.323H21.3956L22.9026 41.959ZM26.5109 44.214H27.2919V46.777H30.9329V44.214H31.7139V50H30.9329V47.448H27.2919V50H26.5109V44.214ZM38.0258 44.907H34.7148V50H33.9338V44.214H38.0258V44.907ZM41.1455 44.17C41.9008 44.17 42.4801 44.3607 42.8835 44.742C43.2868 45.116 43.4885 45.6733 43.4885 46.414V50H42.7405V49.098C42.5645 49.3987 42.3041 49.6333 41.9595 49.802C41.6221 49.9707 41.2188 50.055 40.7495 50.055C40.1041 50.055 39.5908 49.901 39.2095 49.593C38.8281 49.285 38.6375 48.878 38.6375 48.372C38.6375 47.8807 38.8135 47.4847 39.1655 47.184C39.5248 46.8833 40.0931 46.733 40.8705 46.733H42.7075V46.381C42.7075 45.8823 42.5681 45.5047 42.2895 45.248C42.0108 44.984 41.6038 44.852 41.0685 44.852C40.7018 44.852 40.3498 44.9143 40.0125 45.039C39.6751 45.1563 39.3855 45.3213 39.1435 45.534L38.7915 44.951C39.0848 44.7017 39.4368 44.511 39.8475 44.379C40.2581 44.2397 40.6908 44.17 41.1455 44.17ZM40.8705 49.439C41.3105 49.439 41.6881 49.34 42.0035 49.142C42.3188 48.9367 42.5535 48.6433 42.7075 48.262V47.316H40.8925C39.9025 47.316 39.4075 47.6607 39.4075 48.35C39.4075 48.6873 39.5358 48.955 39.7925 49.153C40.0491 49.3437 40.4085 49.439 40.8705 49.439ZM45.5675 44.214H46.3485V46.777H49.9895V44.214H50.7705V50H49.9895V47.448H46.3485V50H45.5675V44.214ZM57.9074 44.214L55.0144 50.693C54.7797 51.2357 54.5084 51.6207 54.2004 51.848C53.8924 52.0753 53.5221 52.189 53.0894 52.189C52.8107 52.189 52.5504 52.145 52.3084 52.057C52.0664 51.969 51.8574 51.837 51.6814 51.661L52.0444 51.078C52.3377 51.3713 52.6897 51.518 53.1004 51.518C53.3644 51.518 53.5881 51.4447 53.7714 51.298C53.9621 51.1513 54.1381 50.902 54.2994 50.55L54.5524 49.989L51.9674 44.214H52.7814L54.9594 49.131L57.1374 44.214H57.9074ZM65.5922 44.214V50H64.8772V45.424L62.5342 49.296H62.1822L59.8392 45.413V50H59.1242V44.214H59.9162L62.3692 48.383L64.8662 44.214H65.5922Z" fill="white"/>
<path d="M17.2105 221.91C16.6405 220.99 16.2005 219.935 15.8905 218.745C15.5805 217.545 15.4255 216.26 15.4255 214.89C15.4255 213.52 15.5805 212.235 15.8905 211.035C16.2005 209.825 16.6405 208.77 17.2105 207.87H18.5755C17.9755 208.92 17.5355 210.02 17.2555 211.17C16.9755 212.32 16.8355 213.56 16.8355 214.89C16.8355 216.22 16.9755 217.46 17.2555 218.61C17.5355 219.76 17.9755 220.86 18.5755 221.91H17.2105ZM24.0492 214.335L22.1292 216.285V219H20.6292V208.5H22.1292V214.365L27.8292 208.5H29.5392L25.0542 213.225L29.8242 219H28.0692L24.0492 214.335ZM32.434 212.385C32.684 211.925 33.054 211.575 33.544 211.335C34.034 211.095 34.629 210.975 35.329 210.975V212.37C35.249 212.36 35.139 212.355 34.999 212.355C34.219 212.355 33.604 212.59 33.154 213.06C32.714 213.52 32.494 214.18 32.494 215.04V219H31.054V211.05H32.434V212.385ZM36.1895 221.91C36.7895 220.86 37.2295 219.76 37.5095 218.61C37.7995 217.46 37.9445 216.22 37.9445 214.89C37.9445 213.56 37.7995 212.32 37.5095 211.17C37.2295 210.02 36.7895 208.92 36.1895 207.87H37.5545C38.1345 208.77 38.5795 209.82 38.8895 211.02C39.1995 212.22 39.3545 213.51 39.3545 214.89C39.3545 216.26 39.1995 217.545 38.8895 218.745C38.5795 219.945 38.1345 221 37.5545 221.91H36.1895ZM50.6328 216.42H48.6378V219H47.1828V216.42H41.3478V215.37L46.7178 208.5H48.3378L43.1928 215.13H47.2278V212.85H48.6378V215.13H50.6328V216.42ZM53.3579 214.14C52.6279 214.14 52.0379 213.875 51.5879 213.345C51.1379 212.815 50.9129 212.125 50.9129 211.275C50.9129 210.425 51.1379 209.735 51.5879 209.205C52.0379 208.675 52.6279 208.41 53.3579 208.41C54.0879 208.41 54.6729 208.675 55.1129 209.205C55.5629 209.725 55.7879 210.415 55.7879 211.275C55.7879 212.135 55.5629 212.83 55.1129 213.36C54.6729 213.88 54.0879 214.14 53.3579 214.14ZM59.6879 208.5H60.8429L53.6729 219H52.5179L59.6879 208.5ZM53.3579 213.285C53.8179 213.285 54.1779 213.11 54.4379 212.76C54.6979 212.4 54.8279 211.905 54.8279 211.275C54.8279 210.645 54.6979 210.155 54.4379 209.805C54.1779 209.445 53.8179 209.265 53.3579 209.265C52.9079 209.265 52.5479 209.445 52.2779 209.805C52.0179 210.165 51.8879 210.655 51.8879 211.275C51.8879 211.895 52.0179 212.385 52.2779 212.745C52.5479 213.105 52.9079 213.285 53.3579 213.285ZM60.0029 219.09C59.2729 219.09 58.6829 218.83 58.2329 218.31C57.7929 217.78 57.5729 217.085 57.5729 216.225C57.5729 215.365 57.7929 214.675 58.2329 214.155C58.6829 213.625 59.2729 213.36 60.0029 213.36C60.7329 213.36 61.3229 213.625 61.7729 214.155C62.2229 214.685 62.4479 215.375 62.4479 216.225C62.4479 217.075 62.2229 217.765 61.7729 218.295C61.3229 218.825 60.7329 219.09 60.0029 219.09ZM60.0029 218.235C60.4529 218.235 60.8079 218.055 61.0679 217.695C61.3379 217.335 61.4729 216.845 61.4729 216.225C61.4729 215.605 61.3379 215.115 61.0679 214.755C60.8079 214.395 60.4529 214.215 60.0029 214.215C59.5429 214.215 59.1829 214.395 58.9229 214.755C58.6629 215.105 58.5329 215.595 58.5329 216.225C58.5329 216.855 58.6629 217.35 58.9229 217.71C59.1829 218.06 59.5429 218.235 60.0029 218.235ZM17.5797 229.426H16.2597V232H15.4787V226.214H16.2597V228.755H17.5907L19.6257 226.214H20.4727L18.1957 229.019L20.6377 232H19.7137L17.5797 229.426ZM24.8513 226.17C25.3939 226.17 25.8853 226.295 26.3253 226.544C26.7653 226.786 27.1099 227.131 27.3593 227.578C27.6086 228.025 27.7333 228.535 27.7333 229.107C27.7333 229.686 27.6086 230.2 27.3593 230.647C27.1099 231.094 26.7653 231.443 26.3253 231.692C25.8926 231.934 25.4013 232.055 24.8513 232.055C24.3819 232.055 23.9566 231.96 23.5753 231.769C23.2013 231.571 22.8933 231.285 22.6513 230.911V234.134H21.8703V226.214H22.6183V227.358C22.8529 226.977 23.1609 226.683 23.5423 226.478C23.9309 226.273 24.3673 226.17 24.8513 226.17ZM24.7963 231.362C25.1996 231.362 25.5663 231.27 25.8963 231.087C26.2263 230.896 26.4829 230.629 26.6663 230.284C26.8569 229.939 26.9523 229.547 26.9523 229.107C26.9523 228.667 26.8569 228.278 26.6663 227.941C26.4829 227.596 26.2263 227.329 25.8963 227.138C25.5663 226.947 25.1996 226.852 24.7963 226.852C24.3856 226.852 24.0153 226.947 23.6853 227.138C23.3626 227.329 23.1059 227.596 22.9153 227.941C22.7319 228.278 22.6403 228.667 22.6403 229.107C22.6403 229.547 22.7319 229.939 22.9153 230.284C23.1059 230.629 23.3626 230.896 23.6853 231.087C24.0153 231.27 24.3856 231.362 24.7963 231.362ZM29.4113 226.214H30.1923V230.812L34.0533 226.214H34.7463V232H33.9653V227.402L30.1153 232H29.4113V226.214ZM42.1765 226.214V232H41.3955V226.907H37.7655V232H36.9845V226.214H42.1765ZM48.4666 226.907H46.2776V232H45.4966V226.907H43.3076V226.214H48.4666V226.907ZM51.7143 232.055C51.157 232.055 50.6546 231.93 50.2073 231.681C49.76 231.424 49.408 231.072 49.1513 230.625C48.8946 230.178 48.7663 229.672 48.7663 229.107C48.7663 228.542 48.8946 228.036 49.1513 227.589C49.408 227.142 49.76 226.793 50.2073 226.544C50.6546 226.295 51.157 226.17 51.7143 226.17C52.2716 226.17 52.774 226.295 53.2213 226.544C53.6686 226.793 54.017 227.142 54.2663 227.589C54.523 228.036 54.6513 228.542 54.6513 229.107C54.6513 229.672 54.523 230.178 54.2663 230.625C54.017 231.072 53.6686 231.424 53.2213 231.681C52.774 231.93 52.2716 232.055 51.7143 232.055ZM51.7143 231.362C52.125 231.362 52.4916 231.27 52.8143 231.087C53.1443 230.896 53.401 230.629 53.5843 230.284C53.7676 229.939 53.8593 229.547 53.8593 229.107C53.8593 228.667 53.7676 228.275 53.5843 227.93C53.401 227.585 53.1443 227.321 52.8143 227.138C52.4916 226.947 52.125 226.852 51.7143 226.852C51.3036 226.852 50.9333 226.947 50.6033 227.138C50.2806 227.321 50.024 227.585 49.8333 227.93C49.65 228.275 49.5583 228.667 49.5583 229.107C49.5583 229.547 49.65 229.939 49.8333 230.284C50.024 230.629 50.2806 230.896 50.6033 231.087C50.9333 231.27 51.3036 231.362 51.7143 231.362ZM52.4974 223.959H53.5424L51.7604 225.323H50.9904L52.4974 223.959ZM56.3205 226.214H57.1015V228.777H60.7425V226.214H61.5235V232H60.7425V229.448H57.1015V232H56.3205V226.214Z" fill="white"/>
<path d="M319.689 39.91C319.119 38.99 318.679 37.935 318.369 36.745C318.059 35.545 317.904 34.26 317.904 32.89C317.904 31.52 318.059 30.235 318.369 29.035C318.679 27.825 319.119 26.77 319.689 25.87H321.054C320.454 26.92 320.014 28.02 319.734 29.17C319.454 30.32 319.314 31.56 319.314 32.89C319.314 34.22 319.454 35.46 319.734 36.61C320.014 37.76 320.454 38.86 321.054 39.91H319.689ZM327.803 37.12C326.753 37.12 325.803 36.89 324.953 36.43C324.113 35.96 323.453 35.32 322.973 34.51C322.493 33.69 322.253 32.77 322.253 31.75C322.253 30.73 322.493 29.815 322.973 29.005C323.453 28.185 324.118 27.545 324.968 27.085C325.818 26.615 326.768 26.38 327.818 26.38C328.638 26.38 329.388 26.52 330.068 26.8C330.748 27.07 331.328 27.475 331.808 28.015L330.833 28.96C330.043 28.13 329.058 27.715 327.878 27.715C327.098 27.715 326.393 27.89 325.763 28.24C325.133 28.59 324.638 29.075 324.278 29.695C323.928 30.305 323.753 30.99 323.753 31.75C323.753 32.51 323.928 33.2 324.278 33.82C324.638 34.43 325.133 34.91 325.763 35.26C326.393 35.61 327.098 35.785 327.878 35.785C329.048 35.785 330.033 35.365 330.833 34.525L331.808 35.47C331.328 36.01 330.743 36.42 330.053 36.7C329.373 36.98 328.623 37.12 327.803 37.12ZM332.853 39.91C333.453 38.86 333.893 37.76 334.173 36.61C334.463 35.46 334.608 34.22 334.608 32.89C334.608 31.56 334.463 30.32 334.173 29.17C333.893 28.02 333.453 26.92 332.853 25.87H334.218C334.798 26.77 335.243 27.82 335.553 29.02C335.863 30.22 336.018 31.51 336.018 32.89C336.018 34.26 335.863 35.545 335.553 36.745C335.243 37.945 334.798 39 334.218 39.91H332.853ZM342.181 30.91C343.211 31.01 343.996 31.33 344.536 31.87C345.076 32.4 345.346 33.08 345.346 33.91C345.346 34.51 345.196 35.055 344.896 35.545C344.596 36.025 344.146 36.41 343.546 36.7C342.956 36.98 342.231 37.12 341.371 37.12C340.621 37.12 339.901 37.01 339.211 36.79C338.521 36.56 337.956 36.245 337.516 35.845L338.206 34.66C338.566 35 339.026 35.275 339.586 35.485C340.146 35.685 340.741 35.785 341.371 35.785C342.151 35.785 342.756 35.62 343.186 35.29C343.626 34.96 343.846 34.505 343.846 33.925C343.846 33.345 343.631 32.895 343.201 32.575C342.771 32.255 342.121 32.095 341.251 32.095H340.411V31.045L343.051 27.805H337.996V26.5H344.926V27.52L342.181 30.91ZM348.879 32.14C348.149 32.14 347.559 31.875 347.109 31.345C346.659 30.815 346.434 30.125 346.434 29.275C346.434 28.425 346.659 27.735 347.109 27.205C347.559 26.675 348.149 26.41 348.879 26.41C349.609 26.41 350.194 26.675 350.634 27.205C351.084 27.725 351.309 28.415 351.309 29.275C351.309 30.135 351.084 30.83 350.634 31.36C350.194 31.88 349.609 32.14 348.879 32.14ZM355.209 26.5H356.364L349.194 37H348.039L355.209 26.5ZM348.879 31.285C349.339 31.285 349.699 31.11 349.959 30.76C350.219 30.4 350.349 29.905 350.349 29.275C350.349 28.645 350.219 28.155 349.959 27.805C349.699 27.445 349.339 27.265 348.879 27.265C348.429 27.265 348.069 27.445 347.799 27.805C347.539 28.165 347.409 28.655 347.409 29.275C347.409 29.895 347.539 30.385 347.799 30.745C348.069 31.105 348.429 31.285 348.879 31.285ZM355.524 37.09C354.794 37.09 354.204 36.83 353.754 36.31C353.314 35.78 353.094 35.085 353.094 34.225C353.094 33.365 353.314 32.675 353.754 32.155C354.204 31.625 354.794 31.36 355.524 31.36C356.254 31.36 356.844 31.625 357.294 32.155C357.744 32.685 357.969 33.375 357.969 34.225C357.969 35.075 357.744 35.765 357.294 36.295C356.844 36.825 356.254 37.09 355.524 37.09ZM355.524 36.235C355.974 36.235 356.329 36.055 356.589 35.695C356.859 35.335 356.994 34.845 356.994 34.225C356.994 33.605 356.859 33.115 356.589 32.755C356.329 32.395 355.974 32.215 355.524 32.215C355.064 32.215 354.704 32.395 354.444 32.755C354.184 33.105 354.054 33.595 354.054 34.225C354.054 34.855 354.184 35.35 354.444 35.71C354.704 36.06 355.064 36.235 355.524 36.235ZM320.32 44.214L317.427 50.693C317.192 51.2357 316.921 51.6207 316.613 51.848C316.305 52.0753 315.934 52.189 315.502 52.189C315.223 52.189 314.963 52.145 314.721 52.057C314.479 51.969 314.27 51.837 314.094 51.661L314.457 51.078C314.75 51.3713 315.102 51.518 315.513 51.518C315.777 51.518 316 51.4447 316.184 51.298C316.374 51.1513 316.55 50.902 316.712 50.55L316.965 49.989L314.38 44.214H315.194L317.372 49.131L319.55 44.214H320.32ZM325.628 44.907H322.317V50H321.536V44.214H325.628V44.907ZM331.133 44.214V50H330.352V44.907H327.58L327.503 46.337C327.444 47.5397 327.305 48.4637 327.085 49.109C326.865 49.7543 326.472 50.077 325.908 50.077C325.754 50.077 325.567 50.0477 325.347 49.989L325.402 49.318C325.534 49.3473 325.625 49.362 325.677 49.362C325.977 49.362 326.205 49.2227 326.359 48.944C326.513 48.6653 326.615 48.3207 326.667 47.91C326.718 47.4993 326.762 46.9567 326.799 46.282L326.898 44.214H331.133ZM338.413 47.349H333.573C333.617 47.9503 333.848 48.438 334.266 48.812C334.684 49.1787 335.212 49.362 335.85 49.362C336.209 49.362 336.539 49.2997 336.84 49.175C337.14 49.043 337.401 48.8523 337.621 48.603L338.061 49.109C337.804 49.417 337.481 49.6517 337.093 49.813C336.711 49.9743 336.29 50.055 335.828 50.055C335.234 50.055 334.706 49.9303 334.244 49.681C333.789 49.4243 333.433 49.0723 333.177 48.625C332.92 48.1777 332.792 47.6717 332.792 47.107C332.792 46.5423 332.913 46.0363 333.155 45.589C333.404 45.1417 333.741 44.7933 334.167 44.544C334.599 44.2947 335.083 44.17 335.619 44.17C336.154 44.17 336.634 44.2947 337.06 44.544C337.485 44.7933 337.819 45.1417 338.061 45.589C338.303 46.029 338.424 46.535 338.424 47.107L338.413 47.349ZM335.619 44.841C335.061 44.841 334.592 45.0207 334.211 45.38C333.837 45.732 333.624 46.194 333.573 46.766H337.676C337.624 46.194 337.408 45.732 337.027 45.38C336.653 45.0207 336.183 44.841 335.619 44.841ZM343.134 44.17C343.676 44.17 344.168 44.2947 344.608 44.544C345.048 44.786 345.392 45.1307 345.642 45.578C345.891 46.0253 346.016 46.535 346.016 47.107C346.016 47.6863 345.891 48.1997 345.642 48.647C345.392 49.0943 345.048 49.4427 344.608 49.692C344.175 49.934 343.684 50.055 343.134 50.055C342.664 50.055 342.239 49.9597 341.858 49.769C341.484 49.571 341.176 49.285 340.934 48.911V52.134H340.153V44.214H340.901V45.358C341.135 44.9767 341.443 44.6833 341.825 44.478C342.213 44.2727 342.65 44.17 343.134 44.17ZM343.079 49.362C343.482 49.362 343.849 49.2703 344.179 49.087C344.509 48.8963 344.765 48.6287 344.949 48.284C345.139 47.9393 345.235 47.547 345.235 47.107C345.235 46.667 345.139 46.2783 344.949 45.941C344.765 45.5963 344.509 45.3287 344.179 45.138C343.849 44.9473 343.482 44.852 343.079 44.852C342.668 44.852 342.298 44.9473 341.968 45.138C341.645 45.3287 341.388 45.5963 341.198 45.941C341.014 46.2783 340.923 46.667 340.923 47.107C340.923 47.547 341.014 47.9393 341.198 48.284C341.388 48.6287 341.645 48.8963 341.968 49.087C342.298 49.2703 342.668 49.362 343.079 49.362ZM350.081 50.055C349.523 50.055 349.021 49.9303 348.574 49.681C348.126 49.4243 347.774 49.0723 347.518 48.625C347.261 48.1777 347.133 47.6717 347.133 47.107C347.133 46.5423 347.261 46.0363 347.518 45.589C347.774 45.1417 348.126 44.7933 348.574 44.544C349.021 44.2947 349.523 44.17 350.081 44.17C350.638 44.17 351.14 44.2947 351.588 44.544C352.035 44.7933 352.383 45.1417 352.633 45.589C352.889 46.0363 353.018 46.5423 353.018 47.107C353.018 47.6717 352.889 48.1777 352.633 48.625C352.383 49.0723 352.035 49.4243 351.588 49.681C351.14 49.9303 350.638 50.055 350.081 50.055ZM350.081 49.362C350.491 49.362 350.858 49.2703 351.181 49.087C351.511 48.8963 351.767 48.6287 351.951 48.284C352.134 47.9393 352.226 47.547 352.226 47.107C352.226 46.667 352.134 46.2747 351.951 45.93C351.767 45.5853 351.511 45.3213 351.181 45.138C350.858 44.9473 350.491 44.852 350.081 44.852C349.67 44.852 349.3 44.9473 348.97 45.138C348.647 45.3213 348.39 45.5853 348.2 45.93C348.016 46.2747 347.925 46.667 347.925 47.107C347.925 47.547 348.016 47.9393 348.2 48.284C348.39 48.6287 348.647 48.8963 348.97 49.087C349.3 49.2703 349.67 49.362 350.081 49.362ZM360.297 49.318V51.397H359.56V50H354.379V51.397H353.642V49.318H353.972C354.361 49.296 354.625 49.01 354.764 48.46C354.904 47.91 354.999 47.14 355.05 46.15L355.127 44.214H359.395V49.318H360.297ZM355.765 46.194C355.729 47.0153 355.659 47.6937 355.556 48.229C355.454 48.757 355.27 49.12 355.006 49.318H358.614V44.907H355.831L355.765 46.194Z" fill="white"/>
<path d="M312.883 222.91C312.313 221.99 311.873 220.935 311.563 219.745C311.253 218.545 311.098 217.26 311.098 215.89C311.098 214.52 311.253 213.235 311.563 212.035C311.873 210.825 312.313 209.77 312.883 208.87H314.248C313.648 209.92 313.208 211.02 312.928 212.17C312.648 213.32 312.508 214.56 312.508 215.89C312.508 217.22 312.648 218.46 312.928 219.61C313.208 220.76 313.648 221.86 314.248 222.91H312.883ZM322.992 217.375H317.412L316.257 220H314.712L319.467 209.5H320.952L325.722 220H324.147L322.992 217.375ZM322.467 216.175L320.202 211.03L317.937 216.175H322.467ZM331.475 219.535C331.265 219.715 331.005 219.855 330.695 219.955C330.385 220.045 330.065 220.09 329.735 220.09C328.935 220.09 328.315 219.875 327.875 219.445C327.435 219.015 327.215 218.4 327.215 217.6V213.235H325.865V212.05H327.215V210.31H328.655V212.05H330.935V213.235H328.655V217.54C328.655 217.97 328.76 218.3 328.97 218.53C329.19 218.76 329.5 218.875 329.9 218.875C330.34 218.875 330.715 218.75 331.025 218.5L331.475 219.535ZM332.331 222.91C332.931 221.86 333.371 220.76 333.651 219.61C333.941 218.46 334.086 217.22 334.086 215.89C334.086 214.56 333.941 213.32 333.651 212.17C333.371 211.02 332.931 209.92 332.331 208.87H333.696C334.276 209.77 334.721 210.82 335.031 212.02C335.341 213.22 335.496 214.51 335.496 215.89C335.496 217.26 335.341 218.545 335.031 219.745C334.721 220.945 334.276 222 333.696 222.91H332.331ZM341.044 209.38C342.454 209.38 343.539 209.835 344.299 210.745C345.069 211.655 345.454 212.945 345.454 214.615C345.454 215.785 345.244 216.785 344.824 217.615C344.414 218.435 343.834 219.06 343.084 219.49C342.344 219.91 341.479 220.12 340.489 220.12C339.979 220.12 339.499 220.07 339.049 219.97C338.599 219.86 338.209 219.705 337.879 219.505L338.449 218.335C338.959 218.665 339.634 218.83 340.474 218.83C341.564 218.83 342.414 218.495 343.024 217.825C343.644 217.145 343.954 216.16 343.954 214.87V214.495C343.654 214.945 343.239 215.29 342.709 215.53C342.179 215.76 341.584 215.875 340.924 215.875C340.234 215.875 339.614 215.745 339.064 215.485C338.524 215.225 338.099 214.855 337.789 214.375C337.489 213.885 337.339 213.325 337.339 212.695C337.339 212.035 337.499 211.455 337.819 210.955C338.149 210.455 338.594 210.07 339.154 209.8C339.714 209.52 340.344 209.38 341.044 209.38ZM341.179 214.66C341.649 214.66 342.069 214.57 342.439 214.39C342.809 214.21 343.094 213.965 343.294 213.655C343.504 213.345 343.609 213 343.609 212.62C343.609 212.25 343.509 211.915 343.309 211.615C343.119 211.305 342.834 211.06 342.454 210.88C342.084 210.69 341.634 210.595 341.104 210.595C340.414 210.595 339.854 210.78 339.424 211.15C339.004 211.52 338.794 212.015 338.794 212.635C338.794 213.255 339.009 213.75 339.439 214.12C339.869 214.48 340.449 214.66 341.179 214.66ZM350.108 209.5V220H348.623V210.805H346.253V209.5H350.108ZM354.685 215.14C353.955 215.14 353.365 214.875 352.915 214.345C352.465 213.815 352.24 213.125 352.24 212.275C352.24 211.425 352.465 210.735 352.915 210.205C353.365 209.675 353.955 209.41 354.685 209.41C355.415 209.41 356 209.675 356.44 210.205C356.89 210.725 357.115 211.415 357.115 212.275C357.115 213.135 356.89 213.83 356.44 214.36C356 214.88 355.415 215.14 354.685 215.14ZM361.015 209.5H362.17L355 220H353.845L361.015 209.5ZM354.685 214.285C355.145 214.285 355.505 214.11 355.765 213.76C356.025 213.4 356.155 212.905 356.155 212.275C356.155 211.645 356.025 211.155 355.765 210.805C355.505 210.445 355.145 210.265 354.685 210.265C354.235 210.265 353.875 210.445 353.605 210.805C353.345 211.165 353.215 211.655 353.215 212.275C353.215 212.895 353.345 213.385 353.605 213.745C353.875 214.105 354.235 214.285 354.685 214.285ZM361.33 220.09C360.6 220.09 360.01 219.83 359.56 219.31C359.12 218.78 358.9 218.085 358.9 217.225C358.9 216.365 359.12 215.675 359.56 215.155C360.01 214.625 360.6 214.36 361.33 214.36C362.06 214.36 362.65 214.625 363.1 215.155C363.55 215.685 363.775 216.375 363.775 217.225C363.775 218.075 363.55 218.765 363.1 219.295C362.65 219.825 362.06 220.09 361.33 220.09ZM361.33 219.235C361.78 219.235 362.135 219.055 362.395 218.695C362.665 218.335 362.8 217.845 362.8 217.225C362.8 216.605 362.665 216.115 362.395 215.755C362.135 215.395 361.78 215.215 361.33 215.215C360.87 215.215 360.51 215.395 360.25 215.755C359.99 216.105 359.86 216.595 359.86 217.225C359.86 217.855 359.99 218.35 360.25 218.71C360.51 219.06 360.87 219.235 361.33 219.235ZM325.444 227.17C326.2 227.17 326.779 227.361 327.182 227.742C327.586 228.116 327.787 228.673 327.787 229.414V233H327.039V232.098C326.863 232.399 326.603 232.633 326.258 232.802C325.921 232.971 325.518 233.055 325.048 233.055C324.403 233.055 323.89 232.901 323.508 232.593C323.127 232.285 322.936 231.878 322.936 231.372C322.936 230.881 323.112 230.485 323.464 230.184C323.824 229.883 324.392 229.733 325.169 229.733H327.006V229.381C327.006 228.882 326.867 228.505 326.588 228.248C326.31 227.984 325.903 227.852 325.367 227.852C325.001 227.852 324.649 227.914 324.311 228.039C323.974 228.156 323.684 228.321 323.442 228.534L323.09 227.951C323.384 227.702 323.736 227.511 324.146 227.379C324.557 227.24 324.99 227.17 325.444 227.17ZM325.169 232.439C325.609 232.439 325.987 232.34 326.302 232.142C326.618 231.937 326.852 231.643 327.006 231.262V230.316H325.191C324.201 230.316 323.706 230.661 323.706 231.35C323.706 231.687 323.835 231.955 324.091 232.153C324.348 232.344 324.707 232.439 325.169 232.439ZM332.286 233.055C331.714 233.055 331.201 232.93 330.746 232.681C330.299 232.432 329.947 232.083 329.69 231.636C329.434 231.181 329.305 230.672 329.305 230.107C329.305 229.542 329.434 229.036 329.69 228.589C329.947 228.142 330.299 227.793 330.746 227.544C331.201 227.295 331.714 227.17 332.286 227.17C332.785 227.17 333.229 227.269 333.617 227.467C334.013 227.658 334.325 227.94 334.552 228.314L333.969 228.71C333.779 228.424 333.537 228.211 333.243 228.072C332.95 227.925 332.631 227.852 332.286 227.852C331.868 227.852 331.491 227.947 331.153 228.138C330.823 228.321 330.563 228.585 330.372 228.93C330.189 229.275 330.097 229.667 330.097 230.107C330.097 230.554 330.189 230.95 330.372 231.295C330.563 231.632 330.823 231.896 331.153 232.087C331.491 232.27 331.868 232.362 332.286 232.362C332.631 232.362 332.95 232.292 333.243 232.153C333.537 232.014 333.779 231.801 333.969 231.515L334.552 231.911C334.325 232.285 334.013 232.571 333.617 232.769C333.221 232.96 332.778 233.055 332.286 233.055ZM340.027 227.907H337.838V233H337.057V227.907H334.868V227.214H340.027V227.907ZM343.147 227.17C343.903 227.17 344.482 227.361 344.885 227.742C345.289 228.116 345.49 228.673 345.49 229.414V233H344.742V232.098C344.566 232.399 344.306 232.633 343.961 232.802C343.624 232.971 343.221 233.055 342.751 233.055C342.106 233.055 341.593 232.901 341.211 232.593C340.83 232.285 340.639 231.878 340.639 231.372C340.639 230.881 340.815 230.485 341.167 230.184C341.527 229.883 342.095 229.733 342.872 229.733H344.709V229.381C344.709 228.882 344.57 228.505 344.291 228.248C344.013 227.984 343.606 227.852 343.07 227.852C342.704 227.852 342.352 227.914 342.014 228.039C341.677 228.156 341.387 228.321 341.145 228.534L340.793 227.951C341.087 227.702 341.439 227.511 341.849 227.379C342.26 227.24 342.693 227.17 343.147 227.17ZM342.872 232.439C343.312 232.439 343.69 232.34 344.005 232.142C344.321 231.937 344.555 231.643 344.709 231.262V230.316H342.894C341.904 230.316 341.409 230.661 341.409 231.35C341.409 231.687 341.538 231.955 341.794 232.153C342.051 232.344 342.41 232.439 342.872 232.439ZM351.639 227.907H349.45V233H348.669V227.907H346.48V227.214H351.639V227.907Z" fill="white"/>
<path d="M266.307 179.505V221.248H301.562" stroke="#FFFAFA"/>
<ellipse cx="266.858" cy="220.713" rx="2.7543" ry="2.67584" transform="rotate(-180 266.858 220.713)" fill="white"/>
<ellipse cx="299.91" cy="220.713" rx="2.7543" ry="2.67584" transform="rotate(-180 299.91 220.713)" fill="white"/>
<ellipse cx="266.858" cy="182.181" rx="2.7543" ry="2.67584" transform="rotate(-180 266.858 182.181)" fill="white"/>
<path d="M265.236 80.9155V39.1724H300.491" stroke="#FFFAFA"/>
<ellipse rx="2.75429" ry="2.67584" transform="matrix(-1 0 0 1 265.788 39.7076)" fill="white"/>
<ellipse rx="2.75429" ry="2.67584" transform="matrix(-1 0 0 1 298.838 39.7076)" fill="white"/>
<ellipse rx="2.75429" ry="2.67584" transform="matrix(-1 0 0 1 265.788 78.2393)" fill="white"/>
<path d="M107.661 80.9191V39.1724H72.4062" stroke="#FFFAFA"/>
<ellipse cx="107.109" cy="39.7078" rx="2.75429" ry="2.67607" fill="white"/>
<ellipse cx="74.0575" cy="39.7078" rx="2.75429" ry="2.67607" fill="white"/>
<ellipse cx="107.109" cy="78.243" rx="2.75429" ry="2.67607" fill="white"/>
<path d="M107.661 179.505V221.248H72.4062" stroke="#FFFAFA"/>
<ellipse rx="2.75429" ry="2.67584" transform="matrix(1 0 0 -1 107.109 220.713)" fill="white"/>
<ellipse rx="2.75429" ry="2.67584" transform="matrix(1 0 0 -1 74.0575 220.713)" fill="white"/>
<ellipse rx="2.75429" ry="2.67584" transform="matrix(1 0 0 -1 107.109 182.181)" fill="white"/>
<path d="M141.775 246.05V254H140.335V247.31H135.85V254H134.41V246.05H141.775ZM151.387 246.05V254H149.947V247.31H146.527L146.437 249.08C146.387 250.15 146.292 251.045 146.152 251.765C146.012 252.475 145.782 253.045 145.462 253.475C145.142 253.905 144.697 254.12 144.127 254.12C143.867 254.12 143.572 254.075 143.242 253.985L143.332 252.77C143.462 252.8 143.582 252.815 143.692 252.815C144.092 252.815 144.392 252.64 144.592 252.29C144.792 251.94 144.922 251.525 144.982 251.045C145.042 250.565 145.097 249.88 145.147 248.99L145.282 246.05H151.387ZM157.006 245.975C158.106 245.975 158.946 246.245 159.526 246.785C160.116 247.325 160.411 248.13 160.411 249.2V254H159.046V252.95C158.806 253.32 158.461 253.605 158.011 253.805C157.571 253.995 157.046 254.09 156.436 254.09C155.546 254.09 154.831 253.875 154.291 253.445C153.761 253.015 153.496 252.45 153.496 251.75C153.496 251.05 153.751 250.49 154.261 250.07C154.771 249.64 155.581 249.425 156.691 249.425H158.971V249.14C158.971 248.52 158.791 248.045 158.431 247.715C158.071 247.385 157.541 247.22 156.841 247.22C156.371 247.22 155.911 247.3 155.461 247.46C155.011 247.61 154.631 247.815 154.321 248.075L153.721 246.995C154.131 246.665 154.621 246.415 155.191 246.245C155.761 246.065 156.366 245.975 157.006 245.975ZM156.676 252.98C157.226 252.98 157.701 252.86 158.101 252.62C158.501 252.37 158.791 252.02 158.971 251.57V250.46H156.751C155.531 250.46 154.921 250.87 154.921 251.69C154.921 252.09 155.076 252.405 155.386 252.635C155.696 252.865 156.126 252.98 156.676 252.98ZM163.004 246.05H164.444V249.425H168.974V246.05H170.414V254H168.974V250.67H164.444V254H163.004V246.05ZM180.399 250.07C180.399 250.18 180.389 250.325 180.369 250.505H173.919C174.009 251.205 174.314 251.77 174.834 252.2C175.364 252.62 176.019 252.83 176.799 252.83C177.749 252.83 178.514 252.51 179.094 251.87L179.889 252.8C179.529 253.22 179.079 253.54 178.539 253.76C178.009 253.98 177.414 254.09 176.754 254.09C175.914 254.09 175.169 253.92 174.519 253.58C173.869 253.23 173.364 252.745 173.004 252.125C172.654 251.505 172.479 250.805 172.479 250.025C172.479 249.255 172.649 248.56 172.989 247.94C173.339 247.32 173.814 246.84 174.414 246.5C175.024 246.15 175.709 245.975 176.469 245.975C177.229 245.975 177.904 246.15 178.494 246.5C179.094 246.84 179.559 247.32 179.889 247.94C180.229 248.56 180.399 249.27 180.399 250.07ZM176.469 247.19C175.779 247.19 175.199 247.4 174.729 247.82C174.269 248.24 173.999 248.79 173.919 249.47H179.019C178.939 248.8 178.664 248.255 178.194 247.835C177.734 247.405 177.159 247.19 176.469 247.19ZM188.221 247.31H185.311V254H183.871V247.31H180.961V246.05H188.221V247.31ZM192.528 245.975C193.628 245.975 194.468 246.245 195.048 246.785C195.638 247.325 195.933 248.13 195.933 249.2V254H194.568V252.95C194.328 253.32 193.983 253.605 193.533 253.805C193.093 253.995 192.568 254.09 191.958 254.09C191.068 254.09 190.353 253.875 189.813 253.445C189.283 253.015 189.018 252.45 189.018 251.75C189.018 251.05 189.273 250.49 189.783 250.07C190.293 249.64 191.103 249.425 192.213 249.425H194.493V249.14C194.493 248.52 194.313 248.045 193.953 247.715C193.593 247.385 193.063 247.22 192.363 247.22C191.893 247.22 191.433 247.3 190.983 247.46C190.533 247.61 190.153 247.815 189.843 248.075L189.243 246.995C189.653 246.665 190.143 246.415 190.713 246.245C191.283 246.065 191.888 245.975 192.528 245.975ZM192.198 252.98C192.748 252.98 193.223 252.86 193.623 252.62C194.023 252.37 194.313 252.02 194.493 251.57V250.46H192.273C191.053 250.46 190.443 250.87 190.443 251.69C190.443 252.09 190.598 252.405 190.908 252.635C191.218 252.865 191.648 252.98 192.198 252.98ZM204.235 244.805V248.465H209.5V249.755H204.235V254H202.735V243.5H210.145V244.805H204.235ZM218.796 252.695V254H211.251V252.98L215.526 248.855C216.046 248.355 216.396 247.925 216.576 247.565C216.756 247.195 216.846 246.825 216.846 246.455C216.846 245.905 216.651 245.48 216.261 245.18C215.881 244.87 215.331 244.715 214.611 244.715C213.451 244.715 212.556 245.095 211.926 245.855L210.906 244.97C211.316 244.47 211.851 244.08 212.511 243.8C213.181 243.52 213.926 243.38 214.746 243.38C215.846 243.38 216.721 243.645 217.371 244.175C218.021 244.695 218.346 245.405 218.346 246.305C218.346 246.865 218.226 247.395 217.986 247.895C217.746 248.395 217.291 248.965 216.621 249.605L213.411 252.695H218.796ZM220.062 249.26H224.097V250.505H220.062V249.26ZM232.858 252.695V254H225.313V252.98L229.588 248.855C230.108 248.355 230.458 247.925 230.638 247.565C230.818 247.195 230.908 246.825 230.908 246.455C230.908 245.905 230.713 245.48 230.323 245.18C229.943 244.87 229.393 244.715 228.673 244.715C227.513 244.715 226.618 245.095 225.988 245.855L224.968 244.97C225.378 244.47 225.913 244.08 226.573 243.8C227.243 243.52 227.988 243.38 228.808 243.38C229.908 243.38 230.783 243.645 231.433 244.175C232.083 244.695 232.408 245.405 232.408 246.305C232.408 246.865 232.288 247.395 232.048 247.895C231.808 248.395 231.353 248.965 230.683 249.605L227.473 252.695H232.858ZM237.092 247.685C238.592 247.685 239.692 247.97 240.392 248.54C241.102 249.1 241.457 249.87 241.457 250.85C241.457 251.47 241.307 252.03 241.007 252.53C240.717 253.02 240.272 253.41 239.672 253.7C239.082 253.98 238.352 254.12 237.482 254.12C236.742 254.12 236.027 254.01 235.337 253.79C234.647 253.56 234.077 253.245 233.627 252.845L234.317 251.66C234.677 252 235.137 252.275 235.697 252.485C236.257 252.685 236.847 252.785 237.467 252.785C238.257 252.785 238.867 252.62 239.297 252.29C239.737 251.95 239.957 251.49 239.957 250.91C239.957 250.28 239.717 249.805 239.237 249.485C238.757 249.155 237.937 248.99 236.777 248.99H234.392L234.947 243.5H240.872V244.805H236.207L235.922 247.685H237.092Z" fill="white"/>
<defs>
<radialGradient id="paint0_radial" cx="0" cy="0" r="1" gradientUnits="userSpaceOnUse" gradientTransform="translate(209.914 234.721) rotate(-90.4902) scale(225.346 230.404)">
<stop stop-color="#C4C4C4"/>
<stop offset="1" stop-color="#C4C4C4" stop-opacity="0"/>
</radialGradient>
</defs>
</svg>
