<svg width="129" height="129" viewBox="0 0 129 129" fill="none" xmlns="http://www.w3.org/2000/svg">
<g filter="url(#filter0_d)">
<ellipse cx="64.3151" cy="63.4908" rx="59.8557" ry="56.5777" fill="#0B81F9"/>
<path d="M121.178 47.4604L35.3853 14.2853C43.8587 10.0726 50.2137 8.49285 60.2759 6.91309L109.527 26.9235C114.823 33.2425 118.001 38.5084 121.178 47.4604Z" fill="#1C92F3"/>
<path d="M121.088 45.9089C122.63 51.1509 123.174 54.5324 123.672 58.7757L22.4165 23.4198C26.5275 19.6074 29.1045 17.3158 35.271 14.4565L121.088 45.9089Z" fill="#0677E0"/>
<path d="M47.1951 59.8239C32.8626 54.1571 14.2745 43.3219 12.7781 40.9646C11.2818 38.6074 10.2841 40.9646 10.2841 40.9646C10.2841 40.9646 7.50243 49.4768 6.79256 55.1091C6.03213 61.1425 6.79256 70.6679 6.79256 70.6679C6.79256 70.6679 17.4065 75.6045 24.2505 78.6831C34.324 83.2144 39.8823 85.9605 50.1879 89.9986C62.9943 95.0166 70.3798 97.3918 83.6073 101.314C90.96 103.494 102.562 106.5 102.562 106.5C113.535 95.1848 117.526 89.9986 122.015 78.6831C122.015 78.6831 115.01 77.2985 110.542 76.3257C99.3542 73.8896 93.1862 72.1137 82.1109 69.2535C68.4312 65.7206 60.2778 64.9965 47.1951 59.8239Z" fill="#0B7EDB"/>
<path d="M4.9585 71.0347C6.52691 77.0966 6.02811 78.4955 9.16493 84.0911L89.1539 113.468C95.4275 110.204 96.9959 109.738 102.224 106.473L4.9585 71.0347Z" fill="#0D78CE"/>
<path d="M9.44775 83.2935C9.44775 86.5938 10.9441 89.4227 15.1138 94.2588L73.835 118.183C80.277 117.24 82.6253 116.057 88.2578 114.694L9.44775 83.2935Z" fill="#2294F4"/>
<path d="M40.7205 69.2537C37.9939 66.8521 32.9203 65.0809 34.792 61.7428C36.1007 59.4089 38.3395 61.5534 40.7205 61.743C43.4765 61.9625 44.6396 64.4219 47.143 65.7875C50.819 67.7927 53.1012 68.4519 56.5296 70.987C59.6621 73.3032 65.9044 74.2447 63.9401 77.9201C63.2854 79.1452 62.5857 77.3 61.47 77.9201C59.3789 79.0823 57.8103 78.4597 55.5415 77.9201C52.5822 77.2162 51.8202 76.0333 49.1191 74.4539C46.0322 72.6489 43.4773 71.6819 40.7205 69.2537Z" fill="#0277C5"/>
<ellipse rx="24.1408" ry="29.7092" transform="matrix(0.53402 0.845472 -0.870891 0.491475 55.3492 35.0801)" fill="white" fill-opacity="0.37"/>
<ellipse rx="15.5923" ry="19.2242" transform="matrix(0.53402 0.845472 -0.870891 0.491475 55.4662 27.6584)" fill="white" fill-opacity="0.37"/>
<ellipse rx="9.57629" ry="14.2243" transform="matrix(0.53402 0.845472 -0.870891 0.491475 56.625 22.0005)" fill="white" fill-opacity="0.37"/>
<path d="M111.202 27.1867C107.583 23.0709 100.229 18.2285 100.229 18.2285C100.229 18.2285 103.185 25.0525 104.718 29.5441C106.328 34.2623 107.38 36.9073 108.21 41.8026C109.473 49.2566 109.302 53.6551 108.21 61.1333C107.415 66.5746 106.67 69.6324 104.718 74.8062C102.757 80.0032 100.994 82.6747 98.2337 87.5362C96.2111 91.0979 95.3335 93.2752 92.7469 96.4943C90.829 98.8813 89.5048 100.035 87.2601 102.152C83.4464 105.749 80.9306 107.386 76.7854 110.639C71.9872 114.404 63.3179 120.068 63.3179 120.068C63.3179 120.068 72.0006 119.673 76.7854 118.654C82.0138 117.541 85.0791 117.172 89.7541 114.411C94.4292 111.649 94.5563 112.458 99.2313 109.696C103.906 106.934 109.882 101.44 113.696 96.4943C117.289 91.8367 118.614 88.7163 120.68 83.2929C122.712 77.9559 123.617 74.7963 124.171 69.1484C124.784 62.9042 124.406 59.28 123.174 53.1181C122.075 47.6245 121.556 44.5665 119.183 39.4452C116.838 34.3825 114.94 31.4366 111.202 27.1867Z" fill="#135288" fill-opacity="0.53"/>
</g>
<defs>
<filter id="filter0_d" x="0.459473" y="6.91309" width="128" height="121.155" filterUnits="userSpaceOnUse" color-interpolation-filters="sRGB">
<feFlood flood-opacity="0" result="BackgroundImageFix"/>
<feColorMatrix in="SourceAlpha" type="matrix" values="0 0 0 0 0 0 0 0 0 0 0 0 0 0 0 0 0 0 127 0"/>
<feOffset dy="4"/>
<feGaussianBlur stdDeviation="2"/>
<feColorMatrix type="matrix" values="0 0 0 0 0 0 0 0 0 0 0 0 0 0 0 0 0 0 0.25 0"/>
<feBlend mode="normal" in2="BackgroundImageFix" result="effect1_dropShadow"/>
<feBlend mode="normal" in="SourceGraphic" in2="effect1_dropShadow" result="shape"/>
</filter>
</defs>
</svg>
