<svg width="128" height="128" viewBox="0 0 128 128" fill="none" xmlns="http://www.w3.org/2000/svg">
<g filter="url(#filter0_d)">
<g filter="url(#filter1_d)">
<ellipse cx="63.8558" cy="63.4225" rx="59.8558" ry="56.5775" fill="#A99A95"/>
<path d="M120.719 47.3922L34.9255 14.2172C43.3989 10.0045 49.754 8.42473 59.8162 6.84497L109.068 26.8553C114.364 33.1743 117.541 38.4402 120.719 47.3922Z" fill="#BAA393"/>
<path d="M120.628 45.8409C122.17 51.0829 122.714 54.4644 123.213 58.7077L21.9568 23.3519C26.0678 19.5395 28.6448 17.248 34.8113 14.3887L120.628 45.8409Z" fill="#C9C0BB"/>
<path d="M46.7357 59.7554C32.4032 54.0886 13.815 43.2535 12.3187 40.8963C10.8223 38.539 9.82467 40.8963 9.82467 40.8963C9.82467 40.8963 7.04296 49.4084 6.33309 55.0407C5.57265 61.0741 6.33309 70.5995 6.33309 70.5995C6.33309 70.5995 16.947 75.5361 23.791 78.6146C33.8646 83.1459 39.4229 85.892 49.7285 89.9301C62.535 94.9481 69.9205 97.3232 83.148 101.246C90.5007 103.426 102.102 106.432 102.102 106.432C113.076 95.1162 117.066 89.9301 121.555 78.6146C121.555 78.6146 114.551 77.23 110.083 76.2572C98.8949 73.8211 92.7269 72.0453 81.6516 69.185C67.9719 65.6522 59.8185 64.9281 46.7357 59.7554Z" fill="#B8A191"/>
<path d="M4.49878 70.9661C6.06719 77.0279 5.56839 78.4268 8.70522 84.0224L88.6943 113.399C94.968 110.135 96.5364 109.669 101.764 106.405L4.49878 70.9661Z" fill="#978675"/>
<path d="M8.98804 83.2246C8.98804 86.525 10.4844 89.3538 14.6541 94.1899L73.3754 118.114C79.8174 117.171 82.1657 115.988 87.7982 114.625L8.98804 83.2246Z" fill="#D5CDCA"/>
<path d="M40.2612 69.185C37.5347 66.7835 32.4611 65.0123 34.3328 61.6742C35.6414 59.3403 37.8803 61.4848 40.2612 61.6744C43.0172 61.8939 44.1804 64.3533 46.6838 65.7189C50.3598 67.7241 52.6421 68.3833 56.0704 70.9183C59.2029 73.2346 65.4452 74.176 63.481 77.8514C62.8262 79.0766 62.1266 77.2313 61.0108 77.8514C58.9197 79.0136 57.3511 78.3911 55.0823 77.8514C52.1231 77.1475 51.361 75.9647 48.6599 74.3852C45.573 72.5802 43.0181 71.6133 40.2612 69.185Z" fill="#BFB4AE"/>
<ellipse rx="24.1407" ry="29.7093" transform="matrix(0.534021 0.845471 -0.870893 0.491473 54.8907 35.0116)" fill="white" fill-opacity="0.37"/>
<ellipse rx="15.5923" ry="19.2242" transform="matrix(0.534021 0.845471 -0.870893 0.491473 55.0065 27.59)" fill="white" fill-opacity="0.37"/>
<ellipse rx="9.57627" ry="14.2243" transform="matrix(0.534021 0.845471 -0.870893 0.491473 56.1658 21.9323)" fill="white" fill-opacity="0.37"/>
<path d="M110.743 27.1185C107.123 23.0028 99.7692 18.1604 99.7692 18.1604C99.7692 18.1604 102.725 24.9844 104.258 29.4759C105.869 34.1942 106.92 36.8391 107.75 41.7344C109.014 49.1884 108.842 53.5868 107.75 61.065C106.955 66.5064 106.21 69.5641 104.258 74.7379C102.298 79.9349 100.535 82.6064 97.774 87.4679C95.7514 91.0295 94.8739 93.2068 92.2872 96.426C90.3693 98.8129 89.0451 99.9666 86.8005 102.084C82.9867 105.681 80.4709 107.317 76.3257 110.57C71.5275 114.336 62.8582 120 62.8582 120C62.8582 120 71.5409 119.604 76.3257 118.585C81.5541 117.472 84.6194 117.104 89.2945 114.342C93.9695 111.58 94.0966 112.389 98.7716 109.627C103.447 106.866 109.422 101.372 113.237 96.426C116.829 91.7684 118.155 88.6479 120.22 83.2245C122.252 77.8876 123.157 74.728 123.712 69.0802C124.324 62.8359 123.946 59.2118 122.714 53.0499C121.615 47.5563 121.096 44.4983 118.724 39.377C116.378 34.3143 114.481 31.3684 110.743 27.1185Z" fill="#76685B" fill-opacity="0.48"/>
</g>
</g>
<defs>
<filter id="filter0_d" x="0" y="6.84497" width="128" height="121.155" filterUnits="userSpaceOnUse" color-interpolation-filters="sRGB">
<feFlood flood-opacity="0" result="BackgroundImageFix"/>
<feColorMatrix in="SourceAlpha" type="matrix" values="0 0 0 0 0 0 0 0 0 0 0 0 0 0 0 0 0 0 127 0"/>
<feOffset dy="4"/>
<feGaussianBlur stdDeviation="2"/>
<feColorMatrix type="matrix" values="0 0 0 0 0 0 0 0 0 0 0 0 0 0 0 0 0 0 0.25 0"/>
<feBlend mode="normal" in2="BackgroundImageFix" result="effect1_dropShadow"/>
<feBlend mode="normal" in="SourceGraphic" in2="effect1_dropShadow" result="shape"/>
</filter>
<filter id="filter1_d" x="0" y="6.84497" width="128" height="121.155" filterUnits="userSpaceOnUse" color-interpolation-filters="sRGB">
<feFlood flood-opacity="0" result="BackgroundImageFix"/>
<feColorMatrix in="SourceAlpha" type="matrix" values="0 0 0 0 0 0 0 0 0 0 0 0 0 0 0 0 0 0 127 0"/>
<feOffset dy="4"/>
<feGaussianBlur stdDeviation="2"/>
<feColorMatrix type="matrix" values="0 0 0 0 0 0 0 0 0 0 0 0 0 0 0 0 0 0 0.25 0"/>
<feBlend mode="normal" in2="BackgroundImageFix" result="effect1_dropShadow"/>
<feBlend mode="normal" in="SourceGraphic" in2="effect1_dropShadow" result="shape"/>
</filter>
</defs>
</svg>
