<svg width="115" height="115" viewBox="0 0 115 115" fill="none" xmlns="http://www.w3.org/2000/svg">
<g filter="url(#filter0_d)">
<ellipse cx="57.4789" cy="54.2755" rx="53.4789" ry="52.7246" fill="#C9AD98"/>
<path d="M9.54711 77.489C10.3337 78.6519 11.12 81.3657 12.6929 82.5288C14.2658 83.6919 19.6431 82.5288 24.0965 82.5288C29.6248 82.5288 28.7317 83.8914 38.2527 82.5288C47.7737 81.1662 52.3253 80.0146 61.8463 78.652C71.3673 77.2894 70.1359 77.1704 74.4296 75.9382C78.5817 74.7467 86.4341 72.2007 90.5519 70.8984C100.41 67.7806 109.034 65.8585 109.82 63.5324C110.606 61.2064 111 58.4927 111 56.9419C111 55.391 103.812 59.5473 99.2029 61.2064C90.3048 64.4092 86.1927 67.0612 76.7889 68.1846C71.7581 68.7856 68.4869 69.3477 63.4192 69.3477C57.5838 69.3477 54.2883 68.8293 48.4766 69.3477C44.4534 69.7065 42.2198 70.1469 38.2527 70.8984C33.1319 71.8684 30.3529 72.8261 25.2762 73.9998C19.1463 75.4171 8.76056 76.326 9.54711 77.489Z" fill="#EEC3A3"/>
<path d="M26.7635 17.995C23.9988 19.353 20.4328 21.1046 18.4545 19.5494C16.4754 17.9936 24.8042 12.5371 29.9329 9.43959C33.4094 7.34001 36.3756 5.71827 40.224 4.38445C46.0273 2.37308 48.7474 2.28222 54.8689 1.66273C61.173 1.02474 79.4997 4.38445 73.0761 5.55111C73.0761 5.55111 66.9792 8.35053 65.5558 8.66147C61.9935 9.43959 62.6647 7.92212 58.4312 9.43959C55.2169 10.5917 54.2969 10.5116 50.9108 10.9945C48.1574 11.3872 44.9737 10.9945 42.5988 10.9945C40.2239 10.9945 37.8381 11.034 35.4743 12.1615C31.4203 14.0951 31.5162 15.6606 26.7665 17.9936L26.7635 17.995Z" fill="#CBA68B"/>
<path d="M17.5993 19.6912C16.4164 20.8208 12.4734 24.9626 13.6563 25.3392C14.8392 25.7157 19.6642 25.3392 23.5137 25.3392C27.6713 25.3392 30.0435 25.897 34.1598 25.3392C38.4529 24.7573 40.8095 23.9339 44.8058 22.3269C50.6725 19.9678 52.9858 16.8973 58.6062 14.0433C62.8032 11.912 65.3014 10.9892 69.6465 9.14837C72.8623 7.78597 77.9267 5.7596 77.9267 5.7596L72.0123 3.87695L69.6465 5.7596C68.7226 6.49482 65.9264 8.06414 63.3377 9.14837C59.6768 10.6817 57.3155 10.7069 53.4803 11.7841C48.0606 13.3064 45.0534 14.2608 39.6799 15.9259C35.0483 17.3611 32.6692 19.0191 27.851 19.6912C23.8895 20.2438 18.7822 18.5616 17.5993 19.6912Z" fill="#C1AAA2"/>
<path d="M13.4614 25.1994C11.4853 28.3009 9.90442 29.8516 8.71875 33.3407C8.71875 33.3407 14.6437 32.706 18.2041 32.5654C21.2885 32.4435 23.0315 32.8068 26.1086 32.5654C29.068 32.3331 29.7592 32.0079 33.6178 31.4023L43.4984 29.8516C43.4984 29.8516 47.9677 28.7592 50.6124 27.5255C53.4347 26.2089 56.6988 23.5711 57.3312 23.261C57.3312 23.261 61.0199 21.0641 62.4691 20.1596C63.9182 19.255 64.1034 18.6789 65.2356 17.8335C67.384 16.2294 68.7311 15.8805 71.164 14.732C73.5406 13.6101 75.348 12.7331 77.8828 12.0183C81.3457 11.0416 86.5777 10.4675 86.5777 10.4675C83.8111 8.52912 81.835 7.75376 78.278 6.20303L73.9306 7.75376L69.9783 9.30448C67.6632 10.2129 66.3123 10.602 64.05 11.6306C62.7975 12.2 62.0648 12.4731 60.8882 13.1813C59.3883 14.0841 58.7551 14.8806 57.3312 15.8951C54.5841 17.8522 52.8984 18.8062 50.0106 20.4405L49.8219 20.5472C45.338 23.0851 43.0463 25.3899 37.9653 26.3625C34.3296 27.0583 32.1694 26.6866 28.4799 26.3625C26.3058 26.1715 25.1176 25.811 22.9468 25.5871C19.2596 25.2068 13.4614 25.1994 13.4614 25.1994Z" fill="#E0B396"/>
<path d="M9.86664 32.8526C8.70252 32.4667 6.02916 42.5006 5.59801 44.4302C5.16685 46.3598 10.4651 42.5395 13.7472 42.1147C16.6025 41.7452 19.4052 42.1147 22.2845 42.1147C26.5278 42.1147 27.7653 42.55 31.9859 42.1147C35.829 41.7184 38.0381 41.4473 41.6874 40.1851C45.9141 38.7231 47.9952 37.1618 51.7768 34.7822C55.2606 32.5901 56.8273 30.7947 60.3141 28.6075C63.8127 26.4129 65.9047 25.3835 69.6275 23.5906C72.3141 22.2966 73.7839 21.4518 76.6125 20.5032C79.9925 19.3697 82.0106 19.1014 85.5378 18.5736C89.1469 18.0335 96.0155 18.1877 96.0155 18.1877C92.911 15.1003 92.5229 14.3285 87.4782 10.8552C87.4782 10.8552 80.433 12.6219 76.6125 13.5566C73.8991 14.2205 72.1953 14.0042 69.6275 15.1003C66.9236 16.2546 65.711 17.5108 63.4186 19.3454C62.1635 20.3498 61.5692 21.0425 60.3141 22.0469C58.0217 23.8815 56.6911 24.8957 54.1052 26.292C50.6915 28.1352 48.4949 28.5987 44.7918 29.7653C39.8862 31.3106 37.1021 32.3039 31.9859 32.8526C27.7671 33.3051 22.6725 33.6245 21.1203 33.6245C19.5681 33.6245 11.0308 33.2386 9.86664 32.8526Z" fill="#B78A6B"/>
<path d="M10.2157 42.6558C7.90595 43.2053 4.77686 45.3649 4.77686 45.3649L4.77688 48.0739C4.77688 48.0739 8.72401 48.2249 11.7697 48.0739C14.8002 47.9237 16.5052 48.0739 19.5395 48.0739C22.8772 48.0739 24.7585 48.3316 28.0862 48.0739C31.1452 47.837 32.886 47.68 35.856 46.9129C40.002 45.842 41.9559 44.1791 45.9567 42.6558C50.8863 40.7788 53.807 40.1671 58.7769 38.3987C62.439 37.0956 64.4808 36.3313 68.1006 34.9156C71.4574 33.6028 73.1998 32.4861 76.6474 31.4325C79.1805 30.6584 80.6811 30.5239 83.2517 29.8845C90.1463 28.1694 100.734 24.8533 100.734 24.8533L95.6834 17.8871C95.6834 17.8871 91.4361 17.7663 89.4675 17.8872C85.9324 18.1041 85.1926 18.8626 81.6977 19.4352C77.7597 20.0804 75.3336 19.5865 71.597 20.9832C69.6913 21.6956 68.6867 22.2724 66.9351 23.3053C64.5067 24.7373 63.424 25.9564 61.1078 27.5624C58.1375 29.6219 56.4305 30.7209 53.338 32.5935C49.3338 35.0183 50.1069 34.2959 45.9567 36.4636C42.6518 38.1898 37.8401 41.4739 34.302 42.6558C31.6497 43.5418 26.9207 43.8168 26.9207 43.8168C26.9207 43.8168 20.717 42.8747 16.4315 42.6558C14.0073 42.532 12.5767 42.0941 10.2157 42.6558Z" fill="#D3BFB4"/>
<path d="M4 58.4133C4.39323 62.8043 4.78645 64.7427 6.75259 70.1703C6.75259 70.1703 14.5625 67.6847 19.9044 65.465C24.0015 63.7627 26.03 62.1668 30.2424 60.7639C34.1675 59.4566 36.4668 58.9023 40.5803 58.4133C45.2051 57.8636 47.8503 58.4133 52.5086 58.4133H63.2442H71.1964C74.302 58.4133 78.5139 57.0152 82.2522 55.8261C86.739 54.3988 87.6954 52.8786 92.2699 51.7534C96.1108 50.8086 98.3591 50.698 102.21 49.7946C105.655 48.9865 110.565 47.6848 110.565 47.6848C109.769 41.8083 108.598 38.7681 106.584 33.3406C106.584 33.3406 100.351 37.2729 96.246 39.6088C93.1768 41.3552 91.5445 42.5267 88.2938 43.9181C83.5596 45.9446 80.6653 46.6301 75.5702 47.444C68.3662 48.5948 64.0756 46.2297 56.8824 47.444C53.2445 48.0581 51.3505 49.0521 47.7373 49.7946C41.006 51.1777 36.9891 50.4451 30.2424 51.7534C24.8839 52.7925 22.0128 53.9394 16.7235 55.2792C11.7631 56.5358 4 58.4133 4 58.4133Z" fill="#EAD3C3"/>
<path d="M50.5583 91.5814C39.6676 94.4714 28.5988 96.7653 27.0303 96.7653C25.4618 96.7653 32.5273 100.379 36.8336 102.348C36.8336 102.348 43.0202 100.31 47.0291 99.1578C50.5319 98.1513 53.3417 97.0171 56.8324 95.9678C60.5476 94.8509 62.4933 93.7656 66.2436 92.7777C70.4601 91.667 72.9612 91.2981 77.2233 90.3852C81.0759 89.5599 87.1178 88.9196 90.948 87.9926C96.1515 86.7332 99.5749 85.9988 99.5749 85.9988C103.997 81.4284 105.071 78.948 106.941 74.6306L107.025 74.4348C107.025 74.4348 100.164 77.3089 95.6536 78.8212C90.0793 80.6899 86.8314 81.3315 81.1447 82.8088C76.1065 84.1175 73.2484 84.7141 68.2043 85.9988C63.4484 87.2101 55.3022 90.3226 50.5583 91.5814Z" fill="#CE9D7C"/>
<path d="M35.0649 101.96C39.7837 103.94 41.7498 104.732 46.8618 105.92L52.3669 103.486L61.8044 101.111C61.8044 101.111 66.7473 100.442 69.6689 99.5269C74.7251 97.9431 77.4514 96.605 82.6454 95.5676C86.1392 94.8697 92.0829 94.2066 92.0829 94.2066C96.4084 90.6432 97.1948 89.6286 99.9474 86.0653C95.9547 86.6838 89.3303 87.649 89.3303 87.649C89.3303 87.649 81.8539 88.0214 77.1402 88.8368C73.7257 89.4274 69.8797 92.328 66.5231 93.192C59.183 95.0814 57.2646 94.5645 50.0076 96.7554C44.6532 98.3718 35.0649 101.96 35.0649 101.96Z" fill="#CEBDB5"/>
<path d="M86.1843 98.8587C88.6768 97.2452 92.8692 93.8188 92.8692 93.8188C90.7193 93.8188 88.3343 94.5942 86.1843 94.5942C84.0344 94.5942 81.7839 94.9425 79.1063 95.7572C77.1987 96.3376 74.3875 97.6956 74.3875 97.6956C72.0841 98.604 71.5791 98.338 69.2756 99.2464C66.9721 100.155 65.3573 99.7712 63.3772 100.022C60.1497 100.43 58.7034 102.106 55.5126 102.735C51.5804 103.511 46.0752 105.837 46.0752 105.837L52.7601 106.612C52.7601 106.612 55.5685 107 57.872 107H63.3772L69.2756 105.837L75.5672 103.899L81.0724 101.572C81.0724 101.572 84.5107 99.9421 86.1843 98.8587Z" fill="#F3B890"/>
<path d="M88.1509 10.8551C81.9645 6.33067 70.0625 3.10144 70.0625 3.10144C70.0625 3.10144 76.2585 9.62535 79.4999 14.3442C82.7368 19.0564 84.2366 21.9358 86.578 27.1377C88.8239 32.1272 90.1494 34.9786 91.2968 40.3188C92.2562 44.7844 92.2354 47.3908 92.4764 51.9493C92.7403 56.9387 92.9781 59.7711 92.4764 64.7427L92.445 65.0545C91.8891 70.5699 91.553 73.9051 89.3306 79.0869C87.8841 82.4597 87.2411 83.6612 85.3984 86.8406C82.9413 91.0797 81.2734 94.1639 78.3203 98.0833C76.2442 100.839 70.849 105.062 70.849 105.062C70.849 105.062 78.3566 102.686 81.8593 100.797C86.386 98.3555 88.6455 96.4513 92.4764 93.0435C96.7562 89.2364 99.2219 86.9889 102.307 82.1884C105.924 76.5599 107.017 72.7716 108.599 66.2935C110.438 58.7636 111.194 54.2009 110.172 46.5217C109.268 39.7334 107.994 35.8607 104.666 29.8514C102.297 25.5722 100.411 23.4759 97.1952 19.7717C93.9474 16.0303 92.1627 13.789 88.1509 10.8551Z" fill="#818181" fill-opacity="0.35"/>
<ellipse rx="22.7286" ry="32.7397" transform="matrix(0.871589 0.490237 -0.500857 0.86553 40.208 39.4797)" fill="white" fill-opacity="0.3"/>
<ellipse rx="15.1997" ry="19.0877" transform="matrix(0.871589 0.490237 -0.500857 0.86553 41.7507 32.5015)" fill="white" fill-opacity="0.3"/>
<ellipse rx="9.60751" ry="10.6831" transform="matrix(0.871589 0.490237 -0.500857 0.86553 40.5319 24.8117)" fill="white" fill-opacity="0.3"/>
</g>
<defs>
<filter id="filter0_d" x="0" y="1.55086" width="115" height="113.449" filterUnits="userSpaceOnUse" color-interpolation-filters="sRGB">
<feFlood flood-opacity="0" result="BackgroundImageFix"/>
<feColorMatrix in="SourceAlpha" type="matrix" values="0 0 0 0 0 0 0 0 0 0 0 0 0 0 0 0 0 0 127 0"/>
<feOffset dy="4"/>
<feGaussianBlur stdDeviation="2"/>
<feColorMatrix type="matrix" values="0 0 0 0 0 0 0 0 0 0 0 0 0 0 0 0 0 0 0.25 0"/>
<feBlend mode="normal" in2="BackgroundImageFix" result="effect1_dropShadow"/>
<feBlend mode="normal" in="SourceGraphic" in2="effect1_dropShadow" result="shape"/>
</filter>
</defs>
</svg>
