<svg width="351" height="248" viewBox="0 0 351 248" fill="none" xmlns="http://www.w3.org/2000/svg">
<path d="M164.037 213.476C114.912 207.668 79.7919 163.11 85.5936 113.952C91.3952 64.7943 135.922 29.6531 185.046 35.4612C234.17 41.2693 269.291 85.8274 263.489 134.985C257.687 184.143 213.161 219.284 164.037 213.476Z" fill="url(#paint0_radial)" fill-opacity="0.31" stroke="white"/>
<path d="M349.216 212.069C349.185 231.15 333.702 246.593 314.634 246.561C295.566 246.53 280.133 231.037 280.165 211.956C280.196 192.875 295.679 177.432 314.747 177.464C333.814 177.495 349.247 192.988 349.216 212.069Z" fill="#0B81F9" stroke="white"/>
<path d="M349.252 35.8245C349.221 54.9057 333.738 70.348 314.67 70.3165C295.603 70.2851 280.17 54.7918 280.2 35.7107C280.231 16.6295 295.714 1.18721 314.782 1.21866C333.849 1.25011 349.283 16.7434 349.252 35.8245Z" fill="black" stroke="white"/>
<path d="M69.8956 35.3692C69.8645 54.4503 54.3813 69.8929 35.3136 69.8618C16.2458 69.8307 0.813068 54.3377 0.844194 35.2566C0.87532 16.1754 16.3586 0.732809 35.4263 0.763902C54.494 0.794995 69.9268 16.288 69.8956 35.3692Z" fill="#C73232" stroke="white"/>
<path d="M70.0109 211.615C69.9798 230.696 54.4966 246.139 35.4289 246.108C16.3612 246.076 0.928383 230.583 0.95948 211.502C0.990578 192.421 16.4738 176.979 35.5415 177.01C54.6092 177.041 70.042 192.534 70.0109 211.615Z" fill="#6B358C" stroke="white"/>
<path d="M17.7872 34.9338C17.2566 34.0743 16.8475 33.0889 16.56 31.9778C16.2724 30.8573 16.1297 29.6577 16.1318 28.3791C16.1338 27.1004 16.2804 25.9013 16.5716 24.7818C16.8627 23.6529 17.275 22.669 17.8083 21.8298L19.0823 21.8319C18.5207 22.811 18.1084 23.837 17.8454 24.9099C17.5823 25.9828 17.4498 27.1399 17.4478 28.3813C17.4458 29.6226 17.5746 30.7801 17.8342 31.8539C18.0938 32.9277 18.5028 33.955 19.0612 34.9359L17.7872 34.9338ZM29.4262 22.437L29.4104 32.237L28.0104 32.2347L28.0174 27.8667L22.3894 27.8574L22.3824 32.2254L20.9824 32.2231L20.9982 22.4231L22.3982 22.4254L22.3914 26.6394L28.0194 26.6487L28.0262 22.4347L29.4262 22.437ZM31.3173 34.9561C31.8789 33.9771 32.2912 32.9511 32.5543 31.8782C32.8267 30.8053 32.9639 29.6482 32.9659 28.4069C32.9679 27.1655 32.8344 26.008 32.5655 24.9342C32.3059 23.8604 31.8969 22.8331 31.3384 21.8522L32.6124 21.8543C33.1524 22.6952 33.5662 23.6758 33.8537 24.7963C34.1412 25.9168 34.2839 27.121 34.2819 28.409C34.2798 29.6877 34.1332 30.8868 33.8421 32.0063C33.5509 33.1258 33.134 34.1098 32.5913 34.9583L31.3173 34.9561ZM43.1661 31.0417L43.1641 32.2597L36.1222 32.2481L36.1237 31.2961L40.1199 27.4527C40.606 26.9868 40.9333 26.586 41.1018 26.2503C41.2704 25.9052 41.3549 25.56 41.3555 25.2147C41.3563 24.7014 41.175 24.3044 40.8114 24.0238C40.4572 23.7339 39.9441 23.5884 39.2721 23.5873C38.1894 23.5855 37.3535 23.9388 36.7644 24.6471L35.8137 23.8196C36.1972 23.3535 36.6971 22.9903 37.3135 22.73C37.9392 22.4697 38.6348 22.3402 39.4001 22.3415C40.4268 22.3432 41.2431 22.5918 41.8489 23.0875C42.4548 23.5738 42.7571 24.237 42.7557 25.077C42.7549 25.5997 42.6421 26.0942 42.4173 26.5605C42.1926 27.0268 41.7671 27.5581 41.1408 28.1544L38.1401 31.0334L43.1661 31.0417ZM46.5872 27.7293C45.9059 27.7282 45.3556 27.48 44.9364 26.9846C44.5172 26.4893 44.3083 25.8449 44.3095 25.0516C44.3108 24.2582 44.5219 23.6146 44.9427 23.1206C45.3635 22.6266 45.9145 22.3802 46.5958 22.3813C47.2772 22.3825 47.8228 22.6307 48.2327 23.126C48.6519 23.6121 48.8608 24.2564 48.8595 25.0591C48.8582 25.8618 48.6472 26.5101 48.2264 27.004C47.815 27.4887 47.2686 27.7305 46.5872 27.7293ZM52.5037 22.4751L53.5817 22.4769L46.8739 32.2658L45.7959 32.264L52.5037 22.4751ZM46.5885 26.9313C47.0179 26.9321 47.3541 26.7693 47.5973 26.443C47.8405 26.1074 47.9626 25.6456 47.9635 25.0576C47.9645 24.4696 47.8439 24.0121 47.6017 23.685C47.3596 23.3486 47.0239 23.1801 46.5946 23.1793C46.1746 23.1787 45.8383 23.3461 45.5858 23.6817C45.3425 24.0173 45.2205 24.4744 45.2195 25.0531C45.2186 25.6317 45.3392 26.0893 45.5813 26.4257C45.8328 26.7621 46.1685 26.9306 46.5885 26.9313ZM52.7818 32.3596C52.1004 32.3584 51.5502 32.1149 51.131 31.6288C50.7211 31.1335 50.5168 30.4845 50.5181 29.6818C50.5194 28.8792 50.7258 28.2355 51.1372 27.7509C51.558 27.2569 52.1091 27.0105 52.7904 27.0116C53.4717 27.0127 54.022 27.2609 54.4412 27.7563C54.8604 28.2517 55.0694 28.896 55.0681 29.6893C55.0668 30.4827 54.8558 31.1263 54.435 31.6203C54.0142 32.1143 53.4631 32.3607 52.7818 32.3596ZM52.7831 31.5616C53.2031 31.5623 53.5347 31.3948 53.7779 31.0592C54.0304 30.7236 54.1572 30.2665 54.1581 29.6878C54.159 29.1092 54.0338 28.6516 53.7823 28.3152C53.5402 27.9788 53.2091 27.8103 52.7891 27.8096C52.3598 27.8089 52.0235 27.9763 51.7803 28.3119C51.5371 28.6382 51.415 29.0953 51.4141 29.6833C51.4131 30.2713 51.5337 30.7335 51.7759 31.0699C52.018 31.397 52.3537 31.5609 52.7831 31.5616ZM15.2278 42.2216C16.0122 42.4062 16.4037 42.8799 16.4025 43.6425C16.4017 44.1485 16.2141 44.5369 15.8396 44.8076C15.4652 45.0783 14.9077 45.2131 14.167 45.2119L11.538 45.2075L11.5473 39.4215L14.0993 39.4257C14.7593 39.4268 15.2761 39.556 15.6497 39.8133C16.0233 40.0706 16.2097 40.4376 16.2089 40.9142C16.2084 41.2296 16.12 41.5007 15.9436 41.7278C15.7746 41.9475 15.536 42.1121 15.2278 42.2216ZM12.3022 41.9968L14.0402 41.9996C14.4875 42.0004 14.8286 41.9166 15.0636 41.7483C15.3058 41.5801 15.4272 41.3346 15.4278 41.0119C15.4283 40.6893 15.3077 40.4471 15.0659 40.2853C14.8315 40.1236 14.4907 40.0424 14.0433 40.0416L12.3053 40.0388L12.3022 41.9968ZM14.135 44.5958C14.6336 44.5966 15.0078 44.5166 15.2574 44.3557C15.507 44.1947 15.632 43.9419 15.6326 43.5973C15.6331 43.2526 15.5199 42.9994 15.2928 42.8377C15.0658 42.6687 14.7066 42.5837 14.2152 42.5829L12.3012 42.5798L12.298 44.5928L14.135 44.5958ZM20.6173 45.2775C20.0599 45.2766 19.5578 45.1511 19.1109 44.901C18.664 44.6436 18.3125 44.291 18.0566 43.8433C17.8006 43.3955 17.6731 42.8893 17.674 42.3246C17.6749 41.76 17.8041 41.2542 18.0615 40.8073C18.3189 40.3604 18.6714 40.0126 19.1192 39.764C19.5669 39.5154 20.0694 39.3916 20.6268 39.3925C21.1841 39.3934 21.6862 39.5189 22.1332 39.769C22.5801 40.0191 22.9279 40.368 23.1765 40.8157C23.4324 41.2635 23.5599 41.7697 23.559 42.3344C23.5581 42.899 23.429 43.4048 23.1716 43.8517C22.9215 44.2986 22.5726 44.6501 22.1249 44.906C21.6771 45.1546 21.1746 45.2784 20.6173 45.2775ZM20.6184 44.5845C21.0291 44.5852 21.3959 44.4941 21.7188 44.3113C22.0491 44.1212 22.3062 43.854 22.4901 43.5096C22.674 43.1652 22.7663 42.773 22.767 42.333C22.7677 41.893 22.6767 41.5006 22.4939 41.1556C22.3111 40.8106 22.0549 40.5462 21.7252 40.3623C21.4028 40.1711 21.0363 40.0752 20.6257 40.0745C20.215 40.0738 19.8445 40.1686 19.5142 40.3587C19.1912 40.5415 18.9341 40.8051 18.7429 41.1494C18.559 41.4938 18.4667 41.886 18.466 42.3259C18.4653 42.7659 18.5564 43.1584 18.7391 43.5034C18.9292 43.8484 19.1855 44.1165 19.5078 44.3077C19.8375 44.4915 20.2077 44.5838 20.6184 44.5845ZM30.8354 44.5574L30.832 46.6364L30.095 46.6351L30.0973 45.2381L24.9163 45.2296L24.914 46.6266L24.177 46.6254L24.1804 44.5464L24.5104 44.5469C24.8991 44.5256 25.1636 44.24 25.3038 43.6902C25.444 43.1405 25.5406 42.3706 25.5935 41.3807L25.6736 39.4448L29.9416 39.4519L29.9334 44.5559L30.8354 44.5574ZM26.3084 41.4259C26.2704 42.2472 26.1997 42.9254 26.0961 43.4605C25.9926 43.9884 25.8087 44.3511 25.5444 44.5486L29.1524 44.5546L29.1595 40.1436L26.3765 40.139L26.3084 41.4259ZM34.7432 45.3008C34.1859 45.2999 33.6838 45.1744 33.2368 44.9243C32.7899 44.6669 32.4385 44.3143 32.1825 43.8666C31.9266 43.4188 31.7991 42.9126 31.8 42.348C31.8009 41.7833 31.93 41.2775 32.1874 40.8306C32.4448 40.3837 32.7974 40.0359 33.2451 39.7873C33.6928 39.5387 34.1954 39.4149 34.7527 39.4158C35.31 39.4167 35.8122 39.5422 36.2591 39.7923C36.706 40.0424 37.0538 40.3913 37.3024 40.839C37.5584 41.2868 37.6859 41.793 37.685 42.3577C37.6841 42.9223 37.5549 43.4281 37.2975 43.875C37.0475 44.322 36.6986 44.6734 36.2508 44.9293C35.8031 45.1779 35.3006 45.3017 34.7432 45.3008ZM34.7443 44.6078C35.155 44.6085 35.5218 44.5174 35.8448 44.3346C36.1751 44.1445 36.4322 43.8773 36.6161 43.5329C36.8 43.1885 36.8923 42.7964 36.893 42.3564C36.8937 41.9164 36.8027 41.5239 36.6199 41.1789C36.4371 40.8339 36.1809 40.5695 35.8512 40.3856C35.5288 40.1944 35.1623 40.0985 34.7516 40.0978C34.3409 40.0971 33.9705 40.1919 33.6402 40.382C33.3172 40.5648 33.0601 40.8284 32.8689 41.1727C32.685 41.5171 32.5927 41.9093 32.592 42.3493C32.5913 42.7893 32.6823 43.1817 32.8651 43.5267C33.0552 43.8717 33.3114 44.1398 33.6338 44.331C33.9635 44.5149 34.3337 44.6071 34.7443 44.6078ZM42.3399 39.4283C42.8825 39.4292 43.3737 39.5547 43.8133 39.8048C44.2529 40.0475 44.597 40.3927 44.8456 40.8405C45.0942 41.2882 45.2181 41.7981 45.2171 42.3701C45.2162 42.9494 45.0907 43.4626 44.8407 43.9095C44.5906 44.3564 44.2454 44.7042 43.805 44.9528C43.3719 45.1941 42.8804 45.3142 42.3304 45.3133C41.8611 45.3126 41.4359 45.2165 41.0548 45.0252C40.6812 44.8266 40.3736 44.5401 40.1322 44.1657L40.127 47.3887L39.346 47.3874L39.3588 39.4674L40.1068 39.4687L40.105 40.6127C40.3402 40.2317 40.6487 39.9389 41.0304 39.7342C41.4194 39.5295 41.8559 39.4275 42.3399 39.4283ZM42.2765 44.6202C42.6798 44.6209 43.0466 44.5299 43.3769 44.3471C43.7073 44.1569 43.9643 43.8897 44.1482 43.5453C44.3395 43.201 44.4354 42.8088 44.4361 42.3688C44.4368 41.9288 44.3421 41.54 44.152 41.2023C43.9692 40.8574 43.713 40.5893 43.3833 40.3981C43.0536 40.2069 42.6871 40.1109 42.2838 40.1103C41.8731 40.1096 41.5026 40.2043 41.1723 40.3944C40.8493 40.5846 40.5922 40.8518 40.401 41.1961C40.2171 41.5332 40.1248 41.9217 40.1241 42.3617C40.1234 42.8017 40.2145 43.1942 40.3972 43.5391C40.5874 43.8841 40.8436 44.1522 41.1659 44.3434C41.4957 44.5273 41.8658 44.6196 42.2765 44.6202ZM49.2774 45.3248C48.7201 45.3239 48.2179 45.1984 47.771 44.9483C47.3241 44.6909 46.9726 44.3383 46.7167 43.8906C46.4608 43.4428 46.3332 42.9366 46.3341 42.3719C46.3351 41.8073 46.4642 41.3015 46.7216 40.8546C46.979 40.4077 47.3315 40.0599 47.7793 39.8113C48.227 39.5627 48.7295 39.4389 49.2869 39.4398C49.8442 39.4407 50.3463 39.5662 50.7933 39.8163C51.2402 40.0664 51.588 40.4153 51.8366 40.863C52.0925 41.3108 52.22 41.817 52.2191 42.3817C52.2182 42.9463 52.0891 43.4521 51.8317 43.899C51.5816 44.3459 51.2327 44.6974 50.785 44.9533C50.3373 45.2019 49.8347 45.3257 49.2774 45.3248ZM49.2785 44.6318C49.6892 44.6325 50.056 44.5414 50.379 44.3586C50.7093 44.1685 50.9664 43.9013 51.1502 43.5569C51.3341 43.2125 51.4264 42.8203 51.4271 42.3803C51.4278 41.9403 51.3368 41.5479 51.154 41.2029C50.9713 40.8579 50.715 40.5935 50.3853 40.4096C50.063 40.2184 49.6964 40.1225 49.2858 40.1218C48.8751 40.1211 48.5046 40.2159 48.1743 40.406C47.8514 40.5888 47.5943 40.8524 47.403 41.1967C47.2192 41.5411 47.1269 41.9333 47.1261 42.3733C47.1254 42.8132 47.2165 43.2057 47.3992 43.5507C47.5894 43.8957 47.8456 44.1638 48.168 44.355C48.4977 44.5388 48.8678 44.6311 49.2785 44.6318ZM59.4955 44.6047L59.4922 46.6837L58.7552 46.6824L58.7574 45.2855L53.5764 45.2769L53.5742 46.6739L52.8372 46.6727L52.8405 44.5937L53.1705 44.5942C53.5592 44.5729 53.8237 44.2873 53.9639 43.7375C54.1041 43.1878 54.2007 42.4179 54.2536 41.428L54.3337 39.4921L58.6017 39.4992L58.5935 44.6032L59.4955 44.6047ZM54.9685 41.4732C54.9306 42.2945 54.8598 42.9727 54.7563 43.5078C54.6527 44.0357 54.4688 44.3984 54.2045 44.5959L57.8125 44.6019L57.8196 40.1909L55.0366 40.1863L54.9685 41.4732Z" fill="white"/>
<path d="M13.3755 213.925C12.8449 213.065 12.4358 212.08 12.1483 210.969C11.8608 209.848 11.7181 208.649 11.7201 207.37C11.7222 206.091 11.8688 204.892 12.16 203.773C12.4512 202.644 12.8635 201.66 13.3968 200.821L14.6708 200.823C14.1092 201.802 13.6969 202.828 13.4338 203.901C13.1707 204.974 13.0382 206.131 13.0361 207.372C13.0341 208.614 13.1629 209.771 13.4225 210.845C13.6821 211.919 14.0911 212.946 14.6495 213.927L13.3755 213.925ZM25.0146 201.428L24.9987 211.228L23.8507 211.226L17.9826 203.908L17.9707 211.216L16.5707 211.214L16.5867 201.414L17.7347 201.416L23.6027 208.733L23.6146 201.425L25.0146 201.428ZM30.4502 203.747C31.4769 203.748 32.2605 204.002 32.801 204.506C33.3508 205.011 33.6249 205.763 33.6233 206.762L33.616 211.242L32.342 211.24L32.3436 210.26C32.119 210.605 31.7966 210.87 31.3763 211.056C30.9653 211.233 30.4752 211.321 29.9059 211.32C29.0752 211.318 28.4082 211.117 27.9048 210.715C27.4108 210.312 27.1644 209.785 27.1654 209.131C27.1665 208.478 27.4053 207.956 27.882 207.564C28.3586 207.164 29.115 206.964 30.151 206.966L32.279 206.97L32.2794 206.704C32.2803 206.125 32.113 205.681 31.7776 205.373C31.4421 205.064 30.9476 204.909 30.2943 204.908C29.8556 204.908 29.4262 204.982 29.0059 205.13C28.5857 205.27 28.2307 205.46 27.941 205.703L27.3827 204.694C27.7658 204.386 28.2235 204.154 28.7558 203.996C29.2881 203.829 29.8529 203.746 30.4502 203.747ZM30.1315 210.284C30.6449 210.285 31.0884 210.174 31.4621 209.95C31.8358 209.718 32.107 209.391 32.2757 208.972L32.2774 207.936L30.2054 207.932C29.0667 207.93 28.4968 208.312 28.4955 209.077C28.4949 209.451 28.6391 209.745 28.9281 209.96C29.2171 210.175 29.6182 210.283 30.1315 210.284ZM35.2727 213.961C35.8343 212.981 36.2467 211.955 36.5098 210.883C36.7822 209.81 36.9194 208.653 36.9214 207.411C36.9234 206.17 36.79 205.012 36.5211 203.939C36.2615 202.865 35.8525 201.837 35.2941 200.857L36.5681 200.859C37.1081 201.7 37.5218 202.68 37.8093 203.801C38.0968 204.921 38.2395 206.125 38.2374 207.413C38.2353 208.692 38.0887 209.891 37.7976 211.011C37.5064 212.13 37.0895 213.114 36.5467 213.963L35.2727 213.961ZM48.7616 208.859L46.8996 208.856L46.8956 211.263L45.5376 211.261L45.5416 208.853L40.0956 208.844L40.0972 207.864L45.1196 201.461L46.6316 201.463L41.8195 207.643L45.5855 207.649L45.589 205.521L46.905 205.524L46.9015 207.652L48.7635 207.655L48.7616 208.859ZM51.3084 206.735C50.6271 206.734 50.0768 206.485 49.6576 205.99C49.2384 205.495 49.0295 204.85 49.0308 204.057C49.0321 203.264 49.2431 202.62 49.6639 202.126C50.0847 201.632 50.6358 201.386 51.3171 201.387C51.9985 201.388 52.5441 201.636 52.9539 202.131C53.3731 202.617 53.5821 203.262 53.5808 204.064C53.5795 204.867 53.3684 205.515 52.9476 206.009C52.5362 206.494 51.9898 206.736 51.3084 206.735ZM57.225 201.48L58.303 201.482L51.595 211.271L50.517 211.269L57.225 201.48ZM51.3097 205.937C51.7391 205.937 52.0753 205.775 52.3185 205.448C52.5617 205.113 52.6838 204.651 52.6848 204.063C52.6857 203.475 52.5652 203.017 52.323 202.69C52.0809 202.354 51.7452 202.185 51.3158 202.185C50.8958 202.184 50.5596 202.351 50.307 202.687C50.0638 203.023 49.9417 203.48 49.9408 204.058C49.9398 204.637 50.0604 205.095 50.3025 205.431C50.554 205.767 50.8897 205.936 51.3097 205.937ZM57.5029 211.365C56.8216 211.364 56.2713 211.12 55.8521 210.634C55.4422 210.139 55.2379 209.49 55.2392 208.687C55.2406 207.884 55.4469 207.241 55.8584 206.756C56.2792 206.262 56.8303 206.016 57.5116 206.017C58.1929 206.018 58.7432 206.266 59.1624 206.762C59.5816 207.257 59.7905 207.901 59.7892 208.695C59.7879 209.488 59.5769 210.132 59.1561 210.626C58.7353 211.119 58.1842 211.366 57.5029 211.365ZM57.5042 210.567C57.9242 210.567 58.2558 210.4 58.499 210.064C58.7516 209.729 58.8783 209.272 58.8792 208.693C58.8802 208.114 58.7549 207.657 58.5035 207.32C58.2614 206.984 57.9303 206.815 57.5103 206.815C57.081 206.814 56.7447 206.982 56.5015 207.317C56.2583 207.643 56.1362 208.101 56.1352 208.689C56.1343 209.277 56.2549 209.739 56.497 210.075C56.7391 210.402 57.0749 210.566 57.5042 210.567ZM15.5798 218.426L16.3608 218.428L16.3566 220.991L19.9976 220.997L20.0018 218.434L20.7828 218.435L20.7734 224.221L19.9924 224.22L19.9965 221.668L16.3555 221.662L16.3514 224.214L15.5704 224.212L15.5798 218.426ZM24.9937 218.398C25.7491 218.399 26.3281 218.591 26.7308 218.973C27.1335 219.347 27.3343 219.905 27.3331 220.646L27.3272 224.232L26.5792 224.23L26.5807 223.328C26.4042 223.629 26.1435 223.863 25.7985 224.031C25.4609 224.199 25.0575 224.283 24.5881 224.282C23.9428 224.281 23.4297 224.126 23.0489 223.818C22.6681 223.509 22.478 223.102 22.4789 222.596C22.4797 222.104 22.6563 221.709 23.0088 221.409C23.3686 221.108 23.9372 220.959 24.7145 220.96L26.5515 220.963L26.5521 220.611C26.5529 220.113 26.4142 219.735 26.136 219.478C25.8577 219.213 25.4509 219.081 24.9156 219.08C24.5489 219.079 24.1968 219.141 23.8593 219.265C23.5218 219.382 23.2318 219.546 22.9895 219.758L22.6385 219.175C22.9322 218.926 23.2845 218.736 23.6954 218.605C24.1063 218.466 24.5391 218.397 24.9937 218.398ZM24.7101 223.666C25.1501 223.667 25.528 223.569 25.8436 223.371C26.1593 223.166 26.3944 222.873 26.549 222.492L26.5506 221.546L24.7356 221.543C23.7456 221.542 23.25 221.886 23.2489 222.575C23.2484 222.912 23.3763 223.18 23.6326 223.379C23.889 223.57 24.2481 223.666 24.7101 223.666ZM33.4846 219.149L31.2956 219.145L31.2873 224.238L30.5063 224.237L30.5146 219.144L28.3256 219.14L28.3267 218.447L33.4857 218.456L33.4846 219.149ZM37.596 218.418C38.1387 218.419 38.6298 218.545 39.0694 218.795C39.509 219.037 39.8531 219.383 40.1017 219.83C40.3503 220.278 40.4742 220.788 40.4732 221.36C40.4723 221.939 40.3468 222.452 40.0967 222.899C39.8466 223.346 39.5014 223.694 39.061 223.943C38.6279 224.184 38.1364 224.304 37.5864 224.303C37.1171 224.303 36.6919 224.207 36.3109 224.015C35.9372 223.817 35.6297 223.53 35.3883 223.156L35.383 226.379L34.602 226.377L34.6149 218.457L35.3629 218.459L35.3611 219.603C35.5964 219.222 35.9048 218.929 36.2865 218.724C36.6755 218.519 37.112 218.418 37.596 218.418ZM37.5325 223.61C37.9359 223.611 38.3027 223.52 38.633 223.337C38.9633 223.147 39.2204 222.88 39.4043 222.535C39.5955 222.191 39.6915 221.799 39.6922 221.359C39.6929 220.919 39.5982 220.53 39.4081 220.192C39.2253 219.847 38.9691 219.579 38.6394 219.388C38.3097 219.197 37.9432 219.101 37.5399 219.1C37.1292 219.1 36.7587 219.194 36.4284 219.384C36.1055 219.575 35.8484 219.842 35.6571 220.186C35.4732 220.523 35.3809 220.912 35.3802 221.352C35.3795 221.792 35.4705 222.184 35.6533 222.529C35.8434 222.874 36.0996 223.142 36.422 223.333C36.7517 223.517 37.1219 223.61 37.5325 223.61ZM42.1559 218.47L42.9369 218.471L42.9295 223.069L46.7979 218.477L47.4909 218.478L47.4815 224.264L46.7005 224.263L46.708 219.665L42.8505 224.257L42.1465 224.256L42.1559 218.47ZM49.7292 218.482L50.5102 218.483L50.5027 223.081L54.3712 218.49L55.0642 218.491L55.0547 224.277L54.2737 224.276L54.2812 219.678L50.4238 224.269L49.7198 224.268L49.7292 218.482ZM52.3595 217.65C51.8609 217.65 51.4651 217.524 51.1722 217.274C50.8792 217.025 50.7295 216.672 50.7229 216.218L51.2839 216.219C51.2907 216.505 51.393 216.736 51.5907 216.912C51.7885 217.081 52.045 217.166 52.3603 217.166C52.6757 217.167 52.9325 217.083 53.1307 216.915C53.3364 216.739 53.4431 216.508 53.4509 216.222L54.0119 216.223C54.0038 216.678 53.8492 217.03 53.5481 217.278C53.2544 217.527 52.8582 217.651 52.3595 217.65Z" fill="white"/>
<path d="M298.18 35.9312C297.649 35.0716 297.24 34.0863 296.952 32.9751C296.665 31.8547 296.522 30.6551 296.524 29.3764C296.526 28.0978 296.673 26.8987 296.964 25.7791C297.255 24.6503 297.667 23.6663 298.201 22.8272L299.475 22.8293C298.913 23.8084 298.501 24.8343 298.238 25.9072C297.975 26.9801 297.842 28.1373 297.84 29.3786C297.838 30.6199 297.967 31.7775 298.227 32.8512C298.486 33.925 298.895 34.9523 299.454 35.9333L298.18 35.9312ZM305.757 33.3397C304.777 33.338 303.89 33.1219 303.098 32.6913C302.314 32.2513 301.699 31.653 301.252 30.8962C300.806 30.1302 300.583 29.2711 300.585 28.3191C300.586 27.3671 300.812 26.5135 301.261 25.7582C301.71 24.9936 302.332 24.3973 303.126 23.9693C303.92 23.5319 304.807 23.3141 305.787 23.3157C306.552 23.317 307.252 23.4488 307.886 23.7112C308.52 23.9642 309.061 24.3431 309.508 24.8478L308.597 25.7283C307.861 24.9525 306.942 24.5636 305.841 24.5618C305.113 24.5606 304.454 24.7228 303.866 25.0485C303.277 25.3742 302.815 25.8261 302.478 26.4042C302.15 26.973 301.986 27.6121 301.985 28.3214C301.983 29.0308 302.146 29.675 302.472 30.2542C302.807 30.8241 303.268 31.2729 303.855 31.6005C304.443 31.9282 305.101 32.0926 305.829 32.0938C306.921 32.0956 307.841 31.7051 308.588 30.9223L309.497 31.8058C309.048 32.3091 308.502 32.6909 307.857 32.9511C307.222 33.2114 306.522 33.3409 305.757 33.3397ZM310.466 35.9514C311.027 34.9724 311.439 33.9464 311.702 32.8735C311.975 31.8006 312.112 30.6435 312.114 29.4021C312.116 28.1608 311.983 27.0033 311.714 25.9295C311.454 24.8557 311.045 23.8284 310.487 22.8474L311.761 22.8495C312.301 23.6904 312.714 24.6711 313.002 25.7916C313.289 26.9121 313.432 28.1163 313.43 29.4043C313.428 30.683 313.281 31.8821 312.99 33.0016C312.699 34.1211 312.282 35.1051 311.74 35.9535L310.466 35.9514ZM319.186 27.5658C320.147 27.6607 320.879 27.9606 321.382 28.4654C321.885 28.9609 322.136 29.596 322.135 30.3707C322.134 30.9307 321.993 31.4391 321.713 31.896C321.432 32.3435 321.011 32.7022 320.451 32.9719C319.9 33.2323 319.223 33.3619 318.42 33.3605C317.72 33.3594 317.048 33.2556 316.405 33.0492C315.761 32.8335 315.234 32.5386 314.824 32.1646L315.47 31.0597C315.805 31.3776 316.234 31.6349 316.757 31.8318C317.279 32.0193 317.834 32.1136 318.422 32.1145C319.15 32.1157 319.715 31.9627 320.117 31.6553C320.528 31.348 320.734 30.9237 320.735 30.3824C320.736 29.841 320.536 29.4207 320.135 29.1214C319.734 28.822 319.128 28.6717 318.316 28.6704L317.532 28.6691L317.533 27.6891L320.002 24.6691L315.284 24.6614L315.286 23.4434L321.754 23.454L321.753 24.406L319.186 27.5658ZM325.435 28.7241C324.753 28.723 324.203 28.4747 323.784 27.9794C323.365 27.484 323.156 26.8397 323.157 26.0463C323.158 25.253 323.369 24.6094 323.79 24.1154C324.211 23.6214 324.762 23.375 325.443 23.3761C326.125 23.3772 326.67 23.6255 327.08 24.1208C327.499 24.6068 327.708 25.2512 327.707 26.0539C327.706 26.8565 327.495 27.5048 327.074 27.9988C326.662 28.4835 326.116 28.7252 325.435 28.7241ZM331.351 23.4699L332.429 23.4716L325.721 33.2606L324.643 33.2588L331.351 23.4699ZM325.436 27.9261C325.865 27.9268 326.202 27.764 326.445 27.4378C326.688 27.1022 326.81 26.6404 326.811 26.0524C326.812 25.4644 326.691 25.0068 326.449 24.6798C326.207 24.3434 325.871 24.1748 325.442 24.1741C325.022 24.1734 324.686 24.3409 324.433 24.6765C324.19 25.0121 324.068 25.4692 324.067 26.0478C324.066 26.6265 324.187 27.084 324.429 27.4204C324.68 27.7569 325.016 27.9254 325.436 27.9261ZM331.629 33.3543C330.948 33.3532 330.398 33.1096 329.978 32.6236C329.569 32.1283 329.364 31.4793 329.366 30.6766C329.367 29.8739 329.573 29.2303 329.985 28.7456C330.405 28.2516 330.956 28.0052 331.638 28.0063C332.319 28.0075 332.869 28.2557 333.289 28.7511C333.708 29.2464 333.917 29.8908 333.916 30.6841C333.914 31.4774 333.703 32.1211 333.282 32.6151C332.862 33.109 332.311 33.3555 331.629 33.3543ZM331.63 32.5563C332.05 32.557 332.382 32.3896 332.625 32.054C332.878 31.7184 333.005 31.2613 333.006 30.6826C333.006 30.1039 332.881 29.6464 332.63 29.31C332.388 28.9736 332.057 28.805 331.637 28.8043C331.207 28.8036 330.871 28.9711 330.628 29.3067C330.385 29.6329 330.262 30.0901 330.262 30.6781C330.261 31.2661 330.381 31.7283 330.623 32.0647C330.865 32.3917 331.201 32.5556 331.63 32.5563ZM297.615 40.4282L294.711 46.9025C294.476 47.4447 294.204 47.8293 293.896 48.0561C293.587 48.2829 293.217 48.396 292.784 48.3953C292.505 48.3948 292.245 48.3504 292.003 48.262C291.761 48.1736 291.553 48.0412 291.377 47.865L291.741 47.2826C292.034 47.5764 292.386 47.7236 292.796 47.7243C293.06 47.7247 293.284 47.6518 293.468 47.5054C293.658 47.3591 293.835 47.11 293.997 46.7583L294.251 46.1977L291.675 40.4184L292.489 40.4198L294.659 45.3404L296.845 40.427L297.615 40.4282ZM302.923 41.13L299.612 41.1245L299.603 46.2175L298.822 46.2162L298.832 40.4302L302.924 40.437L302.923 41.13ZM308.428 40.4461L308.419 46.2321L307.638 46.2308L307.646 41.1378L304.874 41.1332L304.795 42.5631C304.734 43.7657 304.593 44.6894 304.372 45.3344C304.151 45.9794 303.758 46.3014 303.193 46.3004C303.039 46.3002 302.853 46.2706 302.633 46.2115L302.689 45.5406C302.821 45.5702 302.912 45.585 302.964 45.5851C303.264 45.5856 303.492 45.4466 303.646 45.1682C303.801 44.8898 303.904 44.5453 303.956 44.1347C304.008 43.7241 304.053 43.1815 304.091 42.5069L304.193 40.4391L308.428 40.4461ZM315.703 43.5931L310.863 43.5851C310.906 44.1865 311.136 44.6745 311.554 45.0492C311.971 45.4166 312.499 45.6008 313.137 45.6018C313.496 45.6024 313.826 45.5407 314.127 45.4165C314.428 45.285 314.689 45.0947 314.909 44.8458L315.348 45.3525C315.091 45.6601 314.768 45.8942 314.379 46.0549C313.997 46.2156 313.576 46.2956 313.114 46.2948C312.52 46.2938 311.992 46.1683 311.53 45.9182C311.076 45.6608 310.721 45.3082 310.465 44.8604C310.209 44.4127 310.082 43.9065 310.082 43.3418C310.083 42.7771 310.205 42.2713 310.448 41.8244C310.698 41.3775 311.036 41.0297 311.462 40.7811C311.895 40.5325 312.379 40.4086 312.914 40.4095C313.45 40.4104 313.93 40.5358 314.355 40.7858C314.78 41.0359 315.113 41.3848 315.354 41.8325C315.595 42.2729 315.715 42.7791 315.714 43.3511L315.703 43.5931ZM312.913 41.0805C312.356 41.0796 311.886 41.2584 311.504 41.6171C311.13 41.9685 310.916 42.4302 310.864 43.0021L314.967 43.0089C314.917 42.4368 314.701 41.9744 314.32 41.6218C313.947 41.2618 313.478 41.0814 312.913 41.0805ZM320.429 40.4219C320.972 40.4228 321.463 40.5482 321.902 40.7983C322.342 41.041 322.686 41.3863 322.935 41.834C323.183 42.2817 323.307 42.7916 323.306 43.3636C323.305 43.9429 323.18 44.4561 322.93 44.903C322.68 45.3499 322.334 45.6977 321.894 45.9463C321.461 46.1876 320.969 46.3078 320.419 46.3069C319.95 46.3061 319.525 46.2101 319.144 46.0188C318.77 45.8201 318.463 45.5336 318.221 45.1592L318.216 48.3822L317.435 48.3809L317.448 40.461L318.196 40.4622L318.194 41.6062C318.429 41.2252 318.738 40.9324 319.119 40.7277C319.508 40.523 319.945 40.4211 320.429 40.4219ZM320.366 45.6138C320.769 45.6144 321.136 45.5234 321.466 45.3406C321.796 45.1505 322.053 44.8832 322.237 44.5389C322.429 44.1945 322.525 43.8023 322.525 43.3623C322.526 42.9223 322.431 42.5335 322.241 42.1959C322.058 41.8509 321.802 41.5828 321.472 41.3916C321.143 41.2004 320.776 41.1044 320.373 41.1038C319.962 41.1031 319.592 41.1978 319.261 41.3879C318.938 41.5781 318.681 41.8453 318.49 42.1897C318.306 42.5267 318.214 42.9152 318.213 43.3552C318.213 43.7952 318.304 44.1877 318.486 44.5327C318.676 44.8776 318.933 45.1457 319.255 45.3369C319.585 45.5208 319.955 45.6131 320.366 45.6138ZM327.366 46.3183C326.809 46.3174 326.307 46.1919 325.86 45.9418C325.413 45.6844 325.062 45.3318 324.806 44.8841C324.55 44.4363 324.422 43.9301 324.423 43.3655C324.424 42.8008 324.553 42.295 324.811 41.8481C325.068 41.4012 325.421 41.0534 325.868 40.8048C326.316 40.5562 326.819 40.4324 327.376 40.4333C327.933 40.4342 328.435 40.5597 328.882 40.8098C329.329 41.0599 329.677 41.4088 329.926 41.8565C330.182 42.3043 330.309 42.8105 330.308 43.3752C330.307 43.9398 330.178 44.4456 329.921 44.8925C329.671 45.3395 329.322 45.6909 328.874 45.9468C328.426 46.1954 327.924 46.3192 327.366 46.3183ZM327.368 45.6253C327.778 45.626 328.145 45.5349 328.468 45.3521C328.798 45.162 329.055 44.8948 329.239 44.5504C329.423 44.206 329.516 43.8139 329.516 43.3739C329.517 42.9339 329.426 42.5414 329.243 42.1964C329.06 41.8514 328.804 41.587 328.474 41.4031C328.152 41.2119 327.786 41.116 327.375 41.1153C326.964 41.1146 326.594 41.2094 326.263 41.3995C325.94 41.5823 325.683 41.8459 325.492 42.1902C325.308 42.5346 325.216 42.9268 325.215 43.3668C325.215 43.8068 325.306 44.1992 325.488 44.5442C325.678 44.8892 325.935 45.1573 326.257 45.3485C326.587 45.5324 326.957 45.6246 327.368 45.6253ZM337.585 45.5982L337.581 47.6772L336.844 47.676L336.847 46.279L331.666 46.2704L331.663 47.6674L330.926 47.6662L330.93 45.5872L331.26 45.5877C331.648 45.5664 331.913 45.2808 332.053 44.731C332.193 44.1813 332.29 43.4114 332.343 42.4215L332.423 40.4856L336.691 40.4927L336.683 45.5967L337.585 45.5982ZM333.058 42.4667C333.02 43.288 332.949 43.9662 332.845 44.5014C332.742 45.0292 332.558 45.3919 332.294 45.5894L335.902 45.5954L335.909 41.1844L333.126 41.1798L333.058 42.4667Z" fill="white"/>
<path d="M295.828 213.927C295.297 213.068 294.888 212.082 294.601 210.971C294.313 209.851 294.17 208.651 294.173 207.372C294.175 206.094 294.321 204.895 294.612 203.775C294.904 202.646 295.316 201.662 295.849 200.823L297.123 200.825C296.562 201.804 296.149 202.83 295.886 203.903C295.623 204.976 295.491 206.133 295.489 207.375C295.486 208.616 295.615 209.773 295.875 210.847C296.134 211.921 296.543 212.948 297.102 213.929L295.828 213.927ZM307.467 201.43L307.451 211.23L306.303 211.228L300.435 203.911L300.423 211.219L299.023 211.216L299.039 201.416L300.187 201.418L306.055 208.736L306.067 201.428L307.467 201.43ZM309.358 213.949C309.92 212.97 310.332 211.944 310.595 210.871C310.867 209.798 311.005 208.641 311.007 207.4C311.009 206.159 310.875 205.001 310.606 203.927C310.347 202.854 309.938 201.826 309.379 200.845L310.653 200.847C311.193 201.688 311.607 202.669 311.894 203.789C312.182 204.91 312.325 206.114 312.323 207.402C312.321 208.681 312.174 209.88 311.883 210.999C311.592 212.119 311.175 213.103 310.632 213.951L309.358 213.949ZM317.511 201.335C318.827 201.337 319.839 201.763 320.547 202.613C321.264 203.464 321.622 204.669 321.619 206.227C321.617 207.319 321.42 208.252 321.026 209.026C320.643 209.791 320.1 210.373 319.4 210.774C318.708 211.165 317.901 211.359 316.977 211.358C316.501 211.357 316.053 211.31 315.633 211.215C315.213 211.112 314.849 210.967 314.542 210.78L315.075 209.689C315.551 209.997 316.181 210.152 316.965 210.154C317.982 210.155 318.776 209.844 319.346 209.22C319.926 208.586 320.217 207.667 320.219 206.463L320.219 206.113C319.939 206.533 319.551 206.854 319.056 207.077C318.561 207.291 318.005 207.397 317.389 207.396C316.745 207.395 316.167 207.273 315.654 207.03C315.15 206.786 314.754 206.44 314.465 205.992C314.186 205.534 314.047 205.011 314.048 204.423C314.049 203.807 314.199 203.266 314.499 202.8C314.807 202.333 315.223 201.975 315.746 201.724C316.269 201.463 316.858 201.333 317.511 201.335ZM317.629 206.263C318.068 206.263 318.46 206.18 318.805 206.013C319.151 205.845 319.417 205.617 319.604 205.328C319.801 205.039 319.899 204.717 319.9 204.362C319.901 204.017 319.808 203.704 319.622 203.424C319.445 203.134 319.179 202.905 318.825 202.737C318.48 202.559 318.06 202.469 317.565 202.469C316.921 202.468 316.398 202.639 315.996 202.984C315.604 203.329 315.407 203.79 315.406 204.369C315.405 204.948 315.605 205.41 316.006 205.756C316.407 206.093 316.948 206.262 317.629 206.263ZM325.97 201.46L325.954 211.26L324.568 211.258L324.582 202.676L322.37 202.672L322.372 201.454L325.97 201.46ZM330.233 206.731C329.552 206.73 329.002 206.482 328.583 205.987C328.163 205.491 327.955 204.847 327.956 204.054C327.957 203.26 328.168 202.617 328.589 202.123C329.01 201.629 329.561 201.382 330.242 201.383C330.923 201.384 331.469 201.633 331.879 202.128C332.298 202.614 332.507 203.258 332.506 204.061C332.504 204.864 332.293 205.512 331.873 206.006C331.461 206.491 330.915 206.732 330.233 206.731ZM336.15 201.477L337.228 201.479L330.52 211.268L329.442 211.266L336.15 201.477ZM330.235 205.933C330.664 205.934 331 205.771 331.244 205.445C331.487 205.109 331.609 204.648 331.61 204.06C331.611 203.472 331.49 203.014 331.248 202.687C331.006 202.351 330.67 202.182 330.241 202.181C329.821 202.181 329.485 202.348 329.232 202.684C328.989 203.019 328.867 203.476 328.866 204.055C328.865 204.634 328.985 205.091 329.228 205.428C329.479 205.764 329.815 205.933 330.235 205.933ZM336.428 211.361C335.747 211.36 335.196 211.117 334.777 210.631C334.367 210.135 334.163 209.486 334.164 208.684C334.166 207.881 334.372 207.237 334.783 206.753C335.204 206.259 335.755 206.012 336.437 206.013C337.118 206.015 337.668 206.263 338.087 206.758C338.507 207.253 338.716 207.898 338.714 208.691C338.713 209.484 338.502 210.128 338.081 210.622C337.66 211.116 337.109 211.363 336.428 211.361ZM336.429 210.563C336.849 210.564 337.181 210.397 337.424 210.061C337.677 209.725 337.803 209.268 337.804 208.69C337.805 208.111 337.68 207.653 337.429 207.317C337.186 206.981 336.855 206.812 336.435 206.811C336.006 206.811 335.67 206.978 335.427 207.314C335.183 207.64 335.061 208.097 335.06 208.685C335.059 209.273 335.18 209.735 335.422 210.072C335.664 210.399 336 210.563 336.429 210.563ZM307.047 218.399C307.802 218.401 308.381 218.592 308.784 218.974C309.186 219.349 309.387 219.907 309.386 220.647L309.38 224.233L308.632 224.232L308.634 223.33C308.457 223.63 308.196 223.865 307.851 224.033C307.514 224.201 307.11 224.285 306.641 224.284C305.996 224.283 305.483 224.128 305.102 223.819C304.721 223.511 304.531 223.103 304.532 222.597C304.533 222.106 304.709 221.71 305.062 221.41C305.422 221.11 305.99 220.961 306.767 220.962L308.604 220.965L308.605 220.613C308.606 220.114 308.467 219.736 308.189 219.479C307.911 219.215 307.504 219.082 306.969 219.081C306.602 219.081 306.25 219.143 305.912 219.267C305.575 219.383 305.285 219.548 305.042 219.76L304.691 219.177C304.985 218.928 305.337 218.738 305.748 218.606C306.159 218.468 306.592 218.399 307.047 218.399ZM306.763 223.668C307.203 223.669 307.581 223.57 307.897 223.373C308.212 223.168 308.447 222.875 308.602 222.494L308.604 221.548L306.789 221.545C305.799 221.543 305.303 221.887 305.302 222.577C305.301 222.914 305.429 223.182 305.686 223.38C305.942 223.571 306.301 223.667 306.763 223.668ZM314.162 221.227C314.573 221.323 314.888 221.489 315.107 221.724C315.334 221.959 315.447 222.245 315.447 222.582C315.446 222.92 315.328 223.22 315.093 223.484C314.866 223.747 314.554 223.952 314.157 224.098C313.761 224.237 313.325 224.306 312.848 224.305C312.43 224.304 312.019 224.245 311.616 224.127C311.213 224.002 310.861 223.821 310.561 223.586L310.826 223.004C311.09 223.202 311.398 223.357 311.749 223.467C312.101 223.578 312.457 223.633 312.816 223.634C313.351 223.635 313.788 223.536 314.126 223.339C314.471 223.134 314.643 222.86 314.644 222.515C314.644 222.207 314.505 221.968 314.227 221.799C313.949 221.623 313.567 221.534 313.083 221.533L312.093 221.532L312.094 220.96L313.04 220.961C313.473 220.962 313.822 220.882 314.086 220.721C314.35 220.553 314.482 220.329 314.483 220.051C314.483 219.743 314.333 219.5 314.033 219.324C313.74 219.147 313.355 219.059 312.879 219.058C312.255 219.057 311.639 219.214 311.03 219.528L310.811 218.923C311.501 218.564 312.216 218.386 312.957 218.387C313.397 218.388 313.793 218.454 314.144 218.587C314.503 218.712 314.782 218.892 314.979 219.127C315.184 219.362 315.287 219.634 315.286 219.942C315.286 220.235 315.183 220.495 314.977 220.722C314.778 220.949 314.507 221.118 314.162 221.227ZM319.604 224.305C319.047 224.304 318.544 224.179 318.098 223.929C317.651 223.671 317.299 223.319 317.043 222.871C316.787 222.423 316.66 221.917 316.661 221.352C316.662 220.788 316.791 220.282 317.048 219.835C317.306 219.388 317.658 219.04 318.106 218.792C318.554 218.543 319.056 218.419 319.614 218.42C320.171 218.421 320.673 218.546 321.12 218.796C321.567 219.047 321.915 219.395 322.163 219.843C322.419 220.291 322.547 220.797 322.546 221.362C322.545 221.926 322.416 222.432 322.158 222.879C321.908 223.326 321.559 223.678 321.112 223.933C320.664 224.182 320.161 224.306 319.604 224.305ZM319.605 223.612C320.016 223.613 320.383 223.522 320.706 223.339C321.036 223.149 321.293 222.881 321.477 222.537C321.661 222.193 321.753 221.8 321.754 221.36C321.754 220.92 321.663 220.528 321.481 220.183C321.298 219.838 321.042 219.574 320.712 219.39C320.39 219.199 320.023 219.103 319.612 219.102C319.202 219.101 318.831 219.196 318.501 219.386C318.178 219.569 317.921 219.833 317.73 220.177C317.546 220.521 317.453 220.913 317.453 221.353C317.452 221.793 317.543 222.186 317.726 222.531C317.916 222.876 318.172 223.144 318.495 223.335C318.824 223.519 319.194 223.611 319.605 223.612ZM328.074 219.171L325.885 219.167L325.876 224.26L325.095 224.259L325.104 219.166L322.915 219.162L322.916 218.469L328.075 218.478L328.074 219.171Z" fill="white"/>
<path d="M248.764 171.849L248.699 211.751L281.638 211.805" stroke="#FFFAFA"/>
<ellipse rx="2.57334" ry="2.55784" transform="matrix(-0.999999 -0.00163199 0.00162983 -0.999999 249.214 211.24)" fill="white"/>
<ellipse rx="2.57334" ry="2.55784" transform="matrix(-0.999999 -0.00163199 0.00162983 -0.999999 280.094 211.291)" fill="white"/>
<ellipse rx="2.57334" ry="2.55784" transform="matrix(-0.999999 -0.00163199 0.00162983 -0.999999 249.276 174.407)" fill="white"/>
<path d="M247.917 77.6057L247.981 37.7034L280.92 37.7577" stroke="#FFFAFA"/>
<ellipse rx="2.57332" ry="2.55784" transform="matrix(-0.999999 -0.00164936 -0.00161238 0.999999 248.497 38.2151)" fill="white"/>
<ellipse rx="2.57332" ry="2.55784" transform="matrix(-0.999999 -0.00164936 -0.00161238 0.999999 279.376 38.2661)" fill="white"/>
<ellipse rx="2.57332" ry="2.55784" transform="matrix(-0.999999 -0.00164936 -0.00161238 0.999999 248.436 75.0485)" fill="white"/>
<path d="M100.695 77.3683L100.76 37.4626L67.8213 37.4088" stroke="#FFFAFA"/>
<ellipse rx="2.57332" ry="2.55807" transform="matrix(0.999999 0.00163199 -0.00162983 0.999999 100.243 37.9741)" fill="white"/>
<ellipse rx="2.57332" ry="2.55807" transform="matrix(0.999999 0.00163199 -0.00162983 0.999999 69.3641 37.9236)" fill="white"/>
<ellipse rx="2.57332" ry="2.55807" transform="matrix(0.999999 0.00163199 -0.00162983 0.999999 100.183 74.8099)" fill="white"/>
<path d="M100.541 171.607L100.476 211.509L67.5371 211.455" stroke="#FFFAFA"/>
<ellipse rx="2.57332" ry="2.55784" transform="matrix(0.999999 0.00163199 0.00162983 -0.999999 99.9623 210.997)" fill="white"/>
<ellipse rx="2.57332" ry="2.55784" transform="matrix(0.999999 0.00163199 0.00162983 -0.999999 69.0824 210.945)" fill="white"/>
<ellipse rx="2.57332" ry="2.55784" transform="matrix(0.999999 0.00163199 0.00162983 -0.999999 100.022 174.164)" fill="white"/>
<path d="M135.026 7.04725L135.014 14.4672L133.67 14.4651L133.68 8.22106L129.494 8.21423L129.484 14.4582L128.14 14.456L128.152 7.03604L135.026 7.04725ZM143.997 7.06189L143.985 14.4819L142.641 14.4797L142.651 8.2357L139.459 8.23049L139.372 9.88235C139.324 10.8809 139.234 11.7161 139.102 12.3879C138.97 13.0504 138.755 13.582 138.456 13.9829C138.156 14.3837 137.741 14.5837 137.209 14.5828C136.966 14.5824 136.691 14.54 136.383 14.4555L136.469 13.3216C136.59 13.3498 136.702 13.364 136.805 13.3642C137.178 13.3648 137.458 13.2019 137.645 12.8755C137.833 12.5492 137.954 12.162 138.011 11.7141C138.068 11.2662 138.12 10.627 138.168 9.79639L138.299 7.05259L143.997 7.06189ZM149.242 7.00045C150.268 7.00213 151.052 7.25541 151.592 7.76029C152.142 8.26519 152.416 9.01697 152.415 10.0156L152.407 14.4956L151.133 14.4936L151.135 13.5136C150.91 13.8585 150.588 14.124 150.168 14.31C149.757 14.4866 149.267 14.5745 148.697 14.5736C147.867 14.5722 147.2 14.3705 146.696 13.9683C146.202 13.5662 145.956 13.0384 145.957 12.3851C145.958 11.7318 146.197 11.2095 146.673 10.8183C147.15 10.4177 147.906 10.2183 148.942 10.22L151.07 10.2234L151.071 9.95744C151.072 9.37878 150.905 8.93517 150.569 8.62662C150.234 8.31807 149.739 8.16327 149.086 8.1622C148.647 8.16148 148.218 8.23545 147.797 8.3841C147.377 8.52341 147.022 8.71417 146.732 8.95636L146.174 7.94745C146.557 7.64007 147.015 7.40749 147.547 7.24969C148.08 7.08256 148.644 6.99948 149.242 7.00045ZM148.923 13.5379C149.436 13.5388 149.88 13.4275 150.254 13.2041C150.627 12.9714 150.898 12.6452 151.067 12.2254L151.069 11.1894L148.997 11.1861C147.858 11.1842 147.288 11.5659 147.287 12.3313C147.286 12.7046 147.431 12.9988 147.72 13.214C148.009 13.4291 148.41 13.5371 148.923 13.5379ZM154.84 7.07959L156.184 7.08178L156.179 10.2318L160.407 10.2387L160.412 7.08868L161.756 7.09088L161.744 14.5109L160.4 14.5087L160.405 11.4007L156.177 11.3938L156.172 14.5018L154.828 14.4996L154.84 7.07959ZM171.069 10.8581C171.069 10.9607 171.059 11.0961 171.04 11.264L165.02 11.2542C165.103 11.9077 165.387 12.4355 165.872 12.8376C166.366 13.2304 166.977 13.4274 167.705 13.4286C168.591 13.43 169.306 13.1325 169.848 12.5361L170.589 13.4053C170.252 13.7968 169.832 14.0947 169.327 14.2992C168.832 14.5038 168.277 14.6055 167.661 14.6045C166.877 14.6032 166.182 14.4434 165.576 14.1251C164.969 13.7975 164.499 13.344 164.164 12.7648C163.838 12.1856 163.676 11.532 163.677 10.804C163.678 10.0854 163.838 9.43694 164.156 8.8588C164.484 8.28066 164.928 7.83339 165.488 7.51697C166.058 7.19123 166.698 7.02894 167.407 7.0301C168.116 7.03126 168.746 7.19562 169.296 7.52318C169.856 7.84143 170.289 8.29014 170.596 8.86931C170.912 9.44849 171.07 10.1114 171.069 10.8581ZM167.405 8.1641C166.761 8.16305 166.22 8.35816 165.78 8.74945C165.35 9.14075 165.097 9.65367 165.022 10.2882L169.782 10.296C169.708 9.67052 169.452 9.16144 169.014 8.76872C168.586 8.36669 168.049 8.16515 167.405 8.1641ZM178.374 8.294L175.658 8.28957L175.647 14.5336L174.303 14.5314L174.314 8.28737L171.598 8.28294L171.6 7.10694L178.376 7.118L178.374 8.294ZM182.396 7.05456C183.423 7.05624 184.206 7.30952 184.747 7.8144C185.297 8.3193 185.571 9.07108 185.569 10.0697L185.562 14.5497L184.288 14.5477L184.289 13.5677C184.065 13.9126 183.742 14.1781 183.322 14.3641C182.911 14.5407 182.421 14.6286 181.852 14.6277C181.021 14.6263 180.354 14.4246 179.851 14.0224C179.357 13.6203 179.11 13.0925 179.111 12.4392C179.112 11.7859 179.351 11.2636 179.828 10.8724C180.304 10.4718 181.061 10.2724 182.097 10.2741L184.225 10.2775L184.225 10.0115C184.226 9.43288 184.059 8.98928 183.723 8.68073C183.388 8.37218 182.893 8.21737 182.24 8.21631C181.801 8.21559 181.372 8.28956 180.952 8.43821C180.531 8.57752 180.176 8.76827 179.887 9.01047L179.328 8.00156C179.712 7.69418 180.169 7.46159 180.702 7.3038C181.234 7.13666 181.799 7.05359 182.396 7.05456ZM182.077 13.592C182.591 13.5929 183.034 13.4816 183.408 13.2582C183.782 13.0255 184.053 12.6993 184.221 12.2795L184.223 11.2435L182.151 11.2402C181.012 11.2383 180.442 11.62 180.441 12.3854C180.441 12.7587 180.585 13.0529 180.874 13.2681C181.163 13.4832 181.564 13.5912 182.077 13.592ZM198.078 9.48816C198.74 9.6479 199.239 9.93339 199.574 10.3446C199.919 10.7465 200.091 11.2648 200.09 11.8994C200.089 12.7488 199.775 13.4063 199.149 13.8719C198.532 14.3376 197.631 14.5694 196.446 14.5675L191.966 14.5602L191.982 4.7602L196.196 4.76708C197.269 4.76883 198.104 4.98953 198.7 5.42917C199.306 5.85949 199.609 6.48065 199.607 7.29265C199.607 7.82465 199.471 8.27709 199.199 8.64999C198.937 9.02289 198.564 9.30228 198.078 9.48816ZM193.361 9.07446L196.091 9.07891C196.772 9.08002 197.29 8.94554 197.645 8.67545C198.01 8.40538 198.192 8.00901 198.193 7.48634C198.194 6.96368 198.013 6.56671 197.649 6.29545C197.286 6.01486 196.768 5.87401 196.096 5.87292L193.366 5.86846L193.361 9.07446ZM196.419 13.4615C197.922 13.4639 198.674 12.9051 198.676 11.7851C198.677 11.2251 198.486 10.8142 198.104 10.5522C197.731 10.2809 197.171 10.1447 196.425 10.1435L193.359 10.1385L193.353 13.4565L196.419 13.4615ZM204.625 4.78083L204.609 14.5808L203.223 14.5786L203.237 5.99657L201.025 5.99296L201.027 4.77496L204.625 4.78083ZM213.642 13.3776L213.64 14.5956L206.598 14.5841L206.6 13.6321L210.596 9.78859C211.082 9.32271 211.409 8.92191 211.578 8.58619C211.747 8.24113 211.831 7.89593 211.832 7.5506C211.833 7.03727 211.651 6.6403 211.288 6.35971C210.933 6.0698 210.42 5.92429 209.748 5.9232C208.666 5.92143 207.83 6.27473 207.241 6.98311L206.29 6.15555C206.673 5.68951 207.173 5.32633 207.79 5.066C208.415 4.80569 209.111 4.67616 209.876 4.67741C210.903 4.67908 211.719 4.92775 212.325 5.4234C212.931 5.90973 213.233 6.57289 213.232 7.41289C213.231 7.93555 213.118 8.43003 212.893 8.89633C212.669 9.36264 212.243 9.89394 211.617 10.4903L208.616 13.3694L213.642 13.3776ZM223.061 12.2029L221.199 12.1999L221.195 14.6079L219.837 14.6057L219.841 12.1977L214.395 12.1888L214.397 11.2088L219.419 4.80498L220.931 4.80745L216.119 10.9876L219.885 10.9937L219.889 8.86575L221.205 8.8679L221.201 10.9959L223.063 10.9989L223.061 12.2029Z" fill="white"/>
<defs>
<radialGradient id="paint0_radial" cx="0" cy="0" r="1" gradientUnits="userSpaceOnUse" gradientTransform="translate(195.997 224.544) rotate(-90.3873) scale(215.41 215.265)">
<stop stop-color="#C4C4C4"/>
<stop offset="1" stop-color="#C4C4C4" stop-opacity="0"/>
</radialGradient>
</defs>
</svg>
