<svg width="91" height="92" viewBox="0 0 91 92" fill="none" xmlns="http://www.w3.org/2000/svg">
<ellipse cx="45.6712" cy="48.7536" rx="44.9945" ry="42.3244" fill="#E8CC68"/>
<path d="M57.8668 34.8813C57.8668 34.8813 55.5911 39.361 53.1026 41.3544C51.9677 42.2636 51.0821 42.4603 49.9266 43.3462C47.9969 44.8254 45.9149 45.4955 45.6918 47.8276C45.5093 49.735 46.6432 50.739 47.8092 52.309C49.363 54.4011 50.8077 55.1802 53.1026 56.5414C56.2852 58.4291 58.4142 59.0747 62.1015 59.778C66.5587 60.6281 69.3322 60.8046 73.7472 59.778C77.7858 58.8389 81.4149 58.7968 83.2754 55.2966C84.6622 52.6877 84.2741 50.589 83.2754 47.8276C82.1416 44.6926 79.4131 44.1049 77.4526 41.3544C75.7528 38.9698 74.6694 37.6182 73.7472 34.8813C72.248 30.4325 75.9825 27.0973 73.7472 22.9309C71.6233 18.9722 68.481 17.8544 64.2189 15.9598C60.1842 14.1664 57.1988 11.8044 53.1026 13.4702C50.2818 14.6173 55.4141 17.0849 54.9554 19.9433C54.3992 23.4096 51.1895 23.408 53.1026 26.4164C55.1439 29.6264 57.8668 34.8813 57.8668 34.8813Z" fill="#BDA241"/>
<path d="M66.4802 43.842C65.8884 45.0765 66.1017 46.0568 65.1569 47.0786C64.0339 48.2928 62.8959 48.7473 61.1867 48.8213C59.2885 48.9036 58.2526 48.092 56.6873 47.0786C55.9023 46.5703 55.2044 46.4109 54.8346 45.5848C54.2068 44.1822 55.5054 43.1385 56.6873 42.0992C58.0485 40.9023 59.7812 41.7562 61.1867 40.6054C62.4439 39.5762 63.1036 38.6763 63.3041 37.1199C63.5605 35.1301 61.8812 34.2845 61.1867 32.3895C60.3861 30.2046 59.4353 28.9692 59.5987 26.6633C59.7292 24.8226 59.467 23.0685 61.1867 22.1819C63.1392 21.1753 64.8213 22.7768 66.4802 24.1736C68.066 25.5089 68.35 26.7911 69.127 28.655C69.9414 30.609 70.4503 33.8833 70.4503 33.8833L69.127 39.3606C68.6101 41.4996 67.3551 42.0169 66.4802 43.842Z" fill="#D9B63A"/>
<path d="M45.2246 61.8327C44.8049 63.8826 44.6867 65.913 42.5778 66.5631C40.2869 67.2693 39.472 64.5284 37.2844 63.5755C35.2969 62.7098 34.1409 62.2256 31.9909 61.8327C29.1499 61.3136 27.2618 62.8564 24.58 61.8327C21.3905 60.6153 20.38 58.464 18.7572 55.6086C17.4781 53.3579 16.2238 51.9063 16.6398 49.3844C16.9233 47.6657 17.2493 46.4075 18.7572 45.4009C20.6116 44.163 22.3061 45.4009 24.58 45.4009C26.5439 45.4009 27.915 46.3357 29.6088 45.4009C31.0184 44.623 30.7198 43.1306 31.9909 42.1644C33.2154 41.2335 34.2453 41.2451 35.6963 40.6706C37.4477 39.9771 38.4093 38.3185 40.1958 38.9278C41.7322 39.4518 42.1383 40.6837 42.5778 42.1644C42.9392 43.3818 42.7735 44.1504 42.5778 45.4009C42.234 47.5986 39.7251 48.4524 40.1958 50.6292C40.5215 52.1357 41.7058 52.5656 42.5778 53.8658C43.7134 55.5591 44.7929 56.3868 45.2246 58.3472C45.518 59.6801 45.4982 60.4961 45.2246 61.8327Z" fill="#BDA241"/>
<path d="M50.1623 75.0892C47.9907 75.0892 45.5107 74.1565 43.0126 72.6864C40.3738 71.1336 40.441 68.2877 37.4518 67.4004H32.1557C32.1557 67.4004 29.7687 69.3226 27.9188 69.3226C26.0689 69.3226 23.682 67.4004 23.682 67.4004C23.682 67.4004 20.5989 64.7876 18.3859 65.238C16.8724 65.546 15.852 66.1199 15.2083 67.4004C14.1328 69.5398 16.9521 70.7277 18.3859 72.6864C20.1734 75.1283 21.1344 76.6503 23.682 78.453C26.0525 80.1303 28.2926 79.7929 30.5669 81.5765C32.1798 82.8414 31.9972 84.7816 34.0093 85.4209C35.2781 85.824 36.1074 85.4209 37.4518 85.4209C40.2439 85.4209 41.88 84.8543 44.6014 85.4209C47.8031 86.0875 50.1623 88.5444 52.0159 89.025C53.8695 89.5055 58.9484 87.009 60.2248 87.343C61.5012 87.677 60.2248 85.4209 60.2248 85.4209C60.2248 85.4209 63.6042 86.3862 65.2561 85.4209C66.8113 84.512 67.3643 83.255 67.3745 81.5765C67.3876 79.4164 65.746 78.4104 63.9321 77.0113C62.6616 76.0314 61.8334 75.4877 60.2248 75.0892C58.5289 74.6689 55.7232 75.0892 55.7232 75.0892H50.1623Z" fill="#BDA241"/>
<path d="M55.5822 80.92C56.0445 81.7897 56.0445 82.5401 55.5822 83.4097C55.2554 84.0246 54.9194 84.3602 54.2589 84.6545C53.4182 85.0291 52.7993 84.7671 51.8768 84.6545C50.353 84.4686 49.6292 83.8665 48.1714 83.4097C46.1238 82.768 44.8769 82.6814 42.8779 81.9159C40.8225 81.1288 39.8253 80.3762 37.8491 79.4262C36.4085 78.7337 35.5907 78.3641 34.1437 77.6835C31.0428 76.225 23.2786 75.6998 26.2035 73.949C27.2821 73.3033 28.1266 73.4413 29.3796 73.2021C30.7119 72.9477 31.6833 72.5097 32.8203 72.7041L35.7317 73.2021C36.8687 73.3965 38.6258 74.586 40.4958 75.4428C42.4495 76.3378 43.5578 76.8144 45.5246 77.6835C47.0732 78.3677 47.8205 79.0948 49.4947 79.4262C51.0119 79.7265 52.0299 78.874 53.4648 79.4262L53.5159 79.4459C54.4464 79.8037 55.1282 80.0659 55.5822 80.92Z" fill="#CFAF3D"/>
<path d="M83.3608 25.5137C80.6542 21.5076 74.8692 16.3887 74.8692 16.3887C74.8692 16.3887 76.6667 21.9068 77.5228 25.5137C78.2913 28.7516 78.7643 30.5751 79.115 33.8782C79.5646 38.1129 79.7668 40.5668 79.115 44.7775C78.5154 48.6513 77.7505 50.9449 76.196 54.4094L72.2156 63.2809C72.2156 63.2809 69.6067 68.8226 67.1737 71.8989C65.0973 74.5244 63.4527 75.6054 61.0704 77.9822C58.7895 80.2579 57.7423 81.7679 55.2325 83.812C50.8505 87.381 42.4951 90.9092 42.4951 90.9092C42.4951 90.9092 48.1778 91.2907 51.7828 90.9092C56.3544 90.4254 58.7781 89.4763 62.6103 87.8422C66.4425 86.2082 68.8876 85.305 72.2156 82.8629C75.0683 80.7696 76.7126 79.2724 79.115 76.7148C81.8025 73.8537 82.9223 72.7966 84.8429 69.4187C88.2211 63.4768 89.9761 58.8693 90.5255 52.1282C90.9377 47.0709 90.8327 44.2292 89.607 39.2937C88.2123 33.6777 86.6373 30.3634 83.3608 25.5137Z" fill="#625219" fill-opacity="0.42"/>
<ellipse rx="26.3047" ry="18.113" transform="matrix(0.855002 -0.518625 0.564789 0.825235 33.9272 29.5266)" fill="white" fill-opacity="0.42"/>
<ellipse rx="13.9338" ry="10.9627" transform="matrix(0.900317 -0.435235 0.479454 0.877567 38.1388 23.1113)" fill="white" fill-opacity="0.42"/>
<ellipse rx="8.00932" ry="5.33301" transform="matrix(0.900317 -0.435235 0.479454 0.877567 38.5008 20.5724)" fill="white" fill-opacity="0.42"/>
</svg>
