<svg width="375" height="260" viewBox="0 0 375 260" fill="none" xmlns="http://www.w3.org/2000/svg">
<path d="M176.001 223.22C123.382 217.226 85.713 170.652 91.8386 119.215C97.9642 67.7772 145.57 30.9178 198.188 36.9119C250.807 42.906 288.476 89.4797 282.351 140.917C276.225 192.355 228.62 229.214 176.001 223.22Z" fill="url(#paint0_radial)" fill-opacity="0.31" stroke="white"/>
<path d="M141.774 250.05V258H140.334V251.31H135.849V258H134.409V250.05H141.774ZM151.385 250.05V258H149.945V251.31H146.525L146.435 253.08C146.385 254.15 146.29 255.045 146.15 255.765C146.01 256.475 145.78 257.045 145.46 257.475C145.14 257.905 144.695 258.12 144.125 258.12C143.865 258.12 143.57 258.075 143.24 257.985L143.33 256.77C143.46 256.8 143.58 256.815 143.69 256.815C144.09 256.815 144.39 256.64 144.59 256.29C144.79 255.94 144.92 255.525 144.98 255.045C145.04 254.565 145.095 253.88 145.145 252.99L145.28 250.05H151.385ZM157.005 249.975C158.105 249.975 158.945 250.245 159.525 250.785C160.115 251.325 160.41 252.13 160.41 253.2V258H159.045V256.95C158.805 257.32 158.46 257.605 158.01 257.805C157.57 257.995 157.045 258.09 156.435 258.09C155.545 258.09 154.83 257.875 154.29 257.445C153.76 257.015 153.495 256.45 153.495 255.75C153.495 255.05 153.75 254.49 154.26 254.07C154.77 253.64 155.58 253.425 156.69 253.425H158.97V253.14C158.97 252.52 158.79 252.045 158.43 251.715C158.07 251.385 157.54 251.22 156.84 251.22C156.37 251.22 155.91 251.3 155.46 251.46C155.01 251.61 154.63 251.815 154.32 252.075L153.72 250.995C154.13 250.665 154.62 250.415 155.19 250.245C155.76 250.065 156.365 249.975 157.005 249.975ZM156.675 256.98C157.225 256.98 157.7 256.86 158.1 256.62C158.5 256.37 158.79 256.02 158.97 255.57V254.46H156.75C155.53 254.46 154.92 254.87 154.92 255.69C154.92 256.09 155.075 256.405 155.385 256.635C155.695 256.865 156.125 256.98 156.675 256.98ZM163.003 250.05H164.443V253.425H168.973V250.05H170.413V258H168.973V254.67H164.443V258H163.003V250.05ZM180.398 254.07C180.398 254.18 180.388 254.325 180.368 254.505H173.918C174.008 255.205 174.313 255.77 174.833 256.2C175.363 256.62 176.018 256.83 176.798 256.83C177.748 256.83 178.513 256.51 179.093 255.87L179.888 256.8C179.528 257.22 179.078 257.54 178.538 257.76C178.008 257.98 177.413 258.09 176.753 258.09C175.913 258.09 175.168 257.92 174.518 257.58C173.868 257.23 173.363 256.745 173.003 256.125C172.653 255.505 172.478 254.805 172.478 254.025C172.478 253.255 172.648 252.56 172.988 251.94C173.338 251.32 173.813 250.84 174.413 250.5C175.023 250.15 175.708 249.975 176.468 249.975C177.228 249.975 177.903 250.15 178.493 250.5C179.093 250.84 179.558 251.32 179.888 251.94C180.228 252.56 180.398 253.27 180.398 254.07ZM176.468 251.19C175.778 251.19 175.198 251.4 174.728 251.82C174.268 252.24 173.998 252.79 173.918 253.47H179.018C178.938 252.8 178.663 252.255 178.193 251.835C177.733 251.405 177.158 251.19 176.468 251.19ZM188.22 251.31H185.31V258H183.87V251.31H180.96V250.05H188.22V251.31ZM192.527 249.975C193.627 249.975 194.467 250.245 195.047 250.785C195.637 251.325 195.932 252.13 195.932 253.2V258H194.567V256.95C194.327 257.32 193.982 257.605 193.532 257.805C193.092 257.995 192.567 258.09 191.957 258.09C191.067 258.09 190.352 257.875 189.812 257.445C189.282 257.015 189.017 256.45 189.017 255.75C189.017 255.05 189.272 254.49 189.782 254.07C190.292 253.64 191.102 253.425 192.212 253.425H194.492V253.14C194.492 252.52 194.312 252.045 193.952 251.715C193.592 251.385 193.062 251.22 192.362 251.22C191.892 251.22 191.432 251.3 190.982 251.46C190.532 251.61 190.152 251.815 189.842 252.075L189.242 250.995C189.652 250.665 190.142 250.415 190.712 250.245C191.282 250.065 191.887 249.975 192.527 249.975ZM192.197 256.98C192.747 256.98 193.222 256.86 193.622 256.62C194.022 256.37 194.312 256.02 194.492 255.57V254.46H192.272C191.052 254.46 190.442 254.87 190.442 255.69C190.442 256.09 190.597 256.405 190.907 256.635C191.217 256.865 191.647 256.98 192.197 256.98ZM206.153 253.335L204.233 255.285V258H202.733V247.5H204.233V253.365L209.933 247.5H211.643L207.158 252.225L211.928 258H210.173L206.153 253.335ZM220.535 258L218.27 254.775C217.99 254.795 217.77 254.805 217.61 254.805H215.015V258H213.515V247.5H217.61C218.97 247.5 220.04 247.825 220.82 248.475C221.6 249.125 221.99 250.02 221.99 251.16C221.99 251.97 221.79 252.66 221.39 253.23C220.99 253.8 220.42 254.215 219.68 254.475L222.17 258H220.535ZM217.565 253.53C218.515 253.53 219.24 253.325 219.74 252.915C220.24 252.505 220.49 251.92 220.49 251.16C220.49 250.4 220.24 249.82 219.74 249.42C219.24 249.01 218.515 248.805 217.565 248.805H215.015V253.53H217.565ZM230.938 256.695V258H223.393V256.98L227.668 252.855C228.188 252.355 228.538 251.925 228.718 251.565C228.898 251.195 228.988 250.825 228.988 250.455C228.988 249.905 228.793 249.48 228.403 249.18C228.023 248.87 227.473 248.715 226.753 248.715C225.593 248.715 224.698 249.095 224.068 249.855L223.048 248.97C223.458 248.47 223.993 248.08 224.653 247.8C225.323 247.52 226.068 247.38 226.888 247.38C227.988 247.38 228.863 247.645 229.513 248.175C230.163 248.695 230.488 249.405 230.488 250.305C230.488 250.865 230.368 251.395 230.128 251.895C229.888 252.395 229.433 252.965 228.763 253.605L225.553 256.695H230.938ZM241.028 255.42H239.033V258H237.578V255.42H231.743V254.37L237.113 247.5H238.733L233.588 254.13H237.623V251.85H239.033V254.13H241.028V255.42Z" fill="white"/>
<path d="M374.312 221.409C374.312 241.372 357.762 257.574 337.323 257.574C316.884 257.574 300.334 241.372 300.334 221.409C300.334 201.445 316.884 185.243 337.323 185.243C357.762 185.243 374.312 201.445 374.312 221.409Z" fill="#C73232" stroke="white"/>
<path d="M374.312 37.0316C374.312 56.9951 357.762 73.1975 337.323 73.1975C316.884 73.1975 300.334 56.9951 300.334 37.0316C300.334 17.0681 316.884 0.865723 337.323 0.865723C357.762 0.865723 374.312 17.0681 374.312 37.0316Z" fill="#1516FE" stroke="white"/>
<path d="M75.4715 37.0316C75.4715 56.9951 58.9215 73.1975 38.4826 73.1975C18.0436 73.1975 1.49365 56.9951 1.49365 37.0316C1.49365 17.0681 18.0436 0.865723 38.4826 0.865723C58.9215 0.865723 75.4715 17.0681 75.4715 37.0316Z" fill="#F06683" stroke="white"/>
<path d="M75.4715 221.409C75.4715 241.372 58.9215 257.574 38.4826 257.574C18.0436 257.574 1.49365 241.372 1.49365 221.409C1.49365 201.445 18.0436 185.243 38.4826 185.243C58.9215 185.243 75.4715 201.445 75.4715 221.409Z" fill="#48A7B9" stroke="white"/>
<path d="M15.0625 39.91C14.4925 38.99 14.0525 37.935 13.7425 36.745C13.4325 35.545 13.2775 34.26 13.2775 32.89C13.2775 31.52 13.4325 30.235 13.7425 29.035C14.0525 27.825 14.4925 26.77 15.0625 25.87H16.4275C15.8275 26.92 15.3875 28.02 15.1075 29.17C14.8275 30.32 14.6875 31.56 14.6875 32.89C14.6875 34.22 14.8275 35.46 15.1075 36.61C15.3875 37.76 15.8275 38.86 16.4275 39.91H15.0625ZM23.2363 37.12C22.1863 37.12 21.2363 36.89 20.3863 36.43C19.5463 35.96 18.8863 35.32 18.4063 34.51C17.9263 33.69 17.6863 32.77 17.6863 31.75C17.6863 30.73 17.9263 29.815 18.4063 29.005C18.8863 28.185 19.5513 27.545 20.4013 27.085C21.2513 26.615 22.2013 26.38 23.2513 26.38C24.0712 26.38 24.8213 26.52 25.5013 26.8C26.1813 27.07 26.7613 27.475 27.2413 28.015L26.2663 28.96C25.4763 28.13 24.4913 27.715 23.3113 27.715C22.5313 27.715 21.8263 27.89 21.1963 28.24C20.5663 28.59 20.0713 29.075 19.7113 29.695C19.3613 30.305 19.1863 30.99 19.1863 31.75C19.1863 32.51 19.3613 33.2 19.7113 33.82C20.0713 34.43 20.5663 34.91 21.1963 35.26C21.8263 35.61 22.5313 35.785 23.3113 35.785C24.4813 35.785 25.4663 35.365 26.2663 34.525L27.2413 35.47C26.7613 36.01 26.1763 36.42 25.4863 36.7C24.8063 36.98 24.0563 37.12 23.2363 37.12ZM32.1059 37.09C31.3159 37.09 30.6059 36.915 29.9759 36.565C29.3459 36.215 28.8509 35.735 28.4909 35.125C28.1409 34.505 27.9659 33.805 27.9659 33.025C27.9659 32.245 28.1409 31.55 28.4909 30.94C28.8509 30.32 29.3459 29.84 29.9759 29.5C30.6059 29.15 31.3159 28.975 32.1059 28.975C32.8959 28.975 33.6009 29.15 34.2209 29.5C34.8509 29.84 35.3409 30.32 35.6909 30.94C36.0509 31.55 36.2309 32.245 36.2309 33.025C36.2309 33.805 36.0509 34.505 35.6909 35.125C35.3409 35.735 34.8509 36.215 34.2209 36.565C33.6009 36.915 32.8959 37.09 32.1059 37.09ZM32.1059 35.83C32.6159 35.83 33.0709 35.715 33.4709 35.485C33.8809 35.245 34.2009 34.915 34.4309 34.495C34.6609 34.065 34.7759 33.575 34.7759 33.025C34.7759 32.475 34.6609 31.99 34.4309 31.57C34.2009 31.14 33.8809 30.81 33.4709 30.58C33.0709 30.35 32.6159 30.235 32.1059 30.235C31.5959 30.235 31.1359 30.35 30.7259 30.58C30.3259 30.81 30.0059 31.14 29.7659 31.57C29.5359 31.99 29.4209 32.475 29.4209 33.025C29.4209 33.575 29.5359 34.065 29.7659 34.495C30.0059 34.915 30.3259 35.245 30.7259 35.485C31.1359 35.715 31.5959 35.83 32.1059 35.83ZM37.3374 39.91C37.9374 38.86 38.3774 37.76 38.6574 36.61C38.9474 35.46 39.0924 34.22 39.0924 32.89C39.0924 31.56 38.9474 30.32 38.6574 29.17C38.3774 28.02 37.9374 26.92 37.3374 25.87H38.7024C39.2824 26.77 39.7274 27.82 40.0374 29.02C40.3474 30.22 40.5024 31.51 40.5024 32.89C40.5024 34.26 40.3474 35.545 40.0374 36.745C39.7274 37.945 39.2824 39 38.7024 39.91H37.3374ZM51.7808 34.42H49.7858V37H48.3308V34.42H42.4958V33.37L47.8658 26.5H49.4858L44.3408 33.13H48.3758V30.85H49.7858V33.13H51.7808V34.42ZM54.5059 32.14C53.7759 32.14 53.1859 31.875 52.7359 31.345C52.2859 30.815 52.0609 30.125 52.0609 29.275C52.0609 28.425 52.2859 27.735 52.7359 27.205C53.1859 26.675 53.7759 26.41 54.5059 26.41C55.2359 26.41 55.8209 26.675 56.2609 27.205C56.7109 27.725 56.9359 28.415 56.9359 29.275C56.9359 30.135 56.7109 30.83 56.2609 31.36C55.8209 31.88 55.2359 32.14 54.5059 32.14ZM60.8359 26.5H61.9909L54.8209 37H53.6659L60.8359 26.5ZM54.5059 31.285C54.9659 31.285 55.3259 31.11 55.5859 30.76C55.8459 30.4 55.9759 29.905 55.9759 29.275C55.9759 28.645 55.8459 28.155 55.5859 27.805C55.3259 27.445 54.9659 27.265 54.5059 27.265C54.0559 27.265 53.6959 27.445 53.4259 27.805C53.1659 28.165 53.0359 28.655 53.0359 29.275C53.0359 29.895 53.1659 30.385 53.4259 30.745C53.6959 31.105 54.0559 31.285 54.5059 31.285ZM61.1509 37.09C60.4209 37.09 59.8309 36.83 59.3809 36.31C58.9409 35.78 58.7209 35.085 58.7209 34.225C58.7209 33.365 58.9409 32.675 59.3809 32.155C59.8309 31.625 60.4209 31.36 61.1509 31.36C61.8809 31.36 62.4709 31.625 62.9209 32.155C63.3709 32.685 63.5959 33.375 63.5959 34.225C63.5959 35.075 63.3709 35.765 62.9209 36.295C62.4709 36.825 61.8809 37.09 61.1509 37.09ZM61.1509 36.235C61.6009 36.235 61.9559 36.055 62.2159 35.695C62.4859 35.335 62.6209 34.845 62.6209 34.225C62.6209 33.605 62.4859 33.115 62.2159 32.755C61.9559 32.395 61.6009 32.215 61.1509 32.215C60.6909 32.215 60.3309 32.395 60.0709 32.755C59.8109 33.105 59.6809 33.595 59.6809 34.225C59.6809 34.855 59.8109 35.35 60.0709 35.71C60.3309 36.06 60.6909 36.235 61.1509 36.235ZM18.922 47.426H17.602V50H16.821V44.214H17.602V46.755H18.933L20.968 44.214H21.815L19.538 47.019L21.98 50H21.056L18.922 47.426ZM25.3955 50.055C24.8381 50.055 24.3358 49.9303 23.8885 49.681C23.4411 49.4243 23.0891 49.0723 22.8325 48.625C22.5758 48.1777 22.4475 47.6717 22.4475 47.107C22.4475 46.5423 22.5758 46.0363 22.8325 45.589C23.0891 45.1417 23.4411 44.7933 23.8885 44.544C24.3358 44.2947 24.8381 44.17 25.3955 44.17C25.9528 44.17 26.4551 44.2947 26.9025 44.544C27.3498 44.7933 27.6981 45.1417 27.9475 45.589C28.2041 46.0363 28.3325 46.5423 28.3325 47.107C28.3325 47.6717 28.2041 48.1777 27.9475 48.625C27.6981 49.0723 27.3498 49.4243 26.9025 49.681C26.4551 49.9303 25.9528 50.055 25.3955 50.055ZM25.3955 49.362C25.8061 49.362 26.1728 49.2703 26.4955 49.087C26.8255 48.8963 27.0821 48.6287 27.2655 48.284C27.4488 47.9393 27.5405 47.547 27.5405 47.107C27.5405 46.667 27.4488 46.2747 27.2655 45.93C27.0821 45.5853 26.8255 45.3213 26.4955 45.138C26.1728 44.9473 25.8061 44.852 25.3955 44.852C24.9848 44.852 24.6145 44.9473 24.2845 45.138C23.9618 45.3213 23.7051 45.5853 23.5145 45.93C23.3311 46.2747 23.2395 46.667 23.2395 47.107C23.2395 47.547 23.3311 47.9393 23.5145 48.284C23.7051 48.6287 23.9618 48.8963 24.2845 49.087C24.6145 49.2703 24.9848 49.362 25.3955 49.362ZM26.1785 41.959H27.2235L25.4415 43.323H24.6715L26.1785 41.959ZM32.8066 44.357C33.342 44.357 33.8186 44.478 34.2366 44.72C34.662 44.9547 34.992 45.2883 35.2266 45.721C35.4613 46.1463 35.5786 46.634 35.5786 47.184C35.5786 47.7487 35.454 48.251 35.2046 48.691C34.9626 49.1237 34.6216 49.461 34.1816 49.703C33.7416 49.945 33.2356 50.066 32.6636 50.066C31.703 50.066 30.9586 49.7287 30.4306 49.054C29.9026 48.3793 29.6386 47.448 29.6386 46.26C29.6386 45.0207 29.8733 44.071 30.3426 43.411C30.8193 42.751 31.56 42.3037 32.5646 42.069L35.1606 41.475L35.2926 42.19L32.8506 42.751C32.022 42.9343 31.4133 43.2607 31.0246 43.73C30.636 44.192 30.4233 44.8777 30.3866 45.787C30.6213 45.3397 30.9476 44.9913 31.3656 44.742C31.7836 44.4853 32.264 44.357 32.8066 44.357ZM32.6856 49.417C33.089 49.417 33.4483 49.3253 33.7636 49.142C34.0863 48.9513 34.3356 48.6873 34.5116 48.35C34.695 48.0127 34.7866 47.6313 34.7866 47.206C34.7866 46.7807 34.6986 46.4067 34.5226 46.084C34.3466 45.7613 34.0973 45.512 33.7746 45.336C33.4593 45.1527 33.0963 45.061 32.6856 45.061C32.275 45.061 31.9083 45.1527 31.5856 45.336C31.2703 45.512 31.021 45.7613 30.8376 46.084C30.6616 46.4067 30.5736 46.7807 30.5736 47.206C30.5736 47.6313 30.6616 48.0127 30.8376 48.35C31.021 48.6873 31.274 48.9513 31.5966 49.142C31.9193 49.3253 32.2823 49.417 32.6856 49.417ZM39.2114 44.17C39.9667 44.17 40.546 44.3607 40.9494 44.742C41.3527 45.116 41.5544 45.6733 41.5544 46.414V50H40.8064V49.098C40.6304 49.3987 40.37 49.6333 40.0254 49.802C39.688 49.9707 39.2847 50.055 38.8154 50.055C38.17 50.055 37.6567 49.901 37.2754 49.593C36.894 49.285 36.7034 48.878 36.7034 48.372C36.7034 47.8807 36.8794 47.4847 37.2314 47.184C37.5907 46.8833 38.159 46.733 38.9364 46.733H40.7734V46.381C40.7734 45.8823 40.634 45.5047 40.3554 45.248C40.0767 44.984 39.6697 44.852 39.1344 44.852C38.7677 44.852 38.4157 44.9143 38.0784 45.039C37.741 45.1563 37.4514 45.3213 37.2094 45.534L36.8574 44.951C37.1507 44.7017 37.5027 44.511 37.9134 44.379C38.324 44.2397 38.7567 44.17 39.2114 44.17ZM38.9364 49.439C39.3764 49.439 39.754 49.34 40.0694 49.142C40.3847 48.9367 40.6194 48.6433 40.7734 48.262V47.316H38.9584C37.9684 47.316 37.4734 47.6607 37.4734 48.35C37.4734 48.6873 37.6017 48.955 37.8584 49.153C38.115 49.3437 38.4744 49.439 38.9364 49.439ZM48.3635 44.214V50H47.5825V44.907H44.8105L44.7335 46.337C44.6748 47.5397 44.5355 48.4637 44.3155 49.109C44.0955 49.7543 43.7031 50.077 43.1385 50.077C42.9845 50.077 42.7975 50.0477 42.5775 49.989L42.6325 49.318C42.7645 49.3473 42.8561 49.362 42.9075 49.362C43.2081 49.362 43.4355 49.2227 43.5895 48.944C43.7435 48.6653 43.8461 48.3207 43.8975 47.91C43.9488 47.4993 43.9928 46.9567 44.0295 46.282L44.1285 44.214H48.3635ZM53.0697 46.26C53.7957 46.2673 54.3457 46.4287 54.7197 46.744C55.101 47.0593 55.2917 47.514 55.2917 48.108C55.2917 48.724 55.0863 49.197 54.6757 49.527C54.2723 49.857 53.6857 50.0183 52.9157 50.011L50.5837 50V44.214H51.3647V46.238L53.0697 46.26ZM52.8717 49.417C53.407 49.4243 53.8103 49.318 54.0817 49.098C54.3603 48.8707 54.4997 48.5407 54.4997 48.108C54.4997 47.6827 54.364 47.3673 54.0927 47.162C53.8213 46.9567 53.4143 46.8503 52.8717 46.843L51.3647 46.821V49.395L52.8717 49.417ZM60.2718 44.907H58.0828V50H57.3018V44.907H55.1128V44.214H60.2718V44.907Z" fill="white"/>
<path d="M16.9449 225.91C16.3749 224.99 15.9349 223.935 15.6249 222.745C15.3149 221.545 15.1599 220.26 15.1599 218.89C15.1599 217.52 15.3149 216.235 15.6249 215.035C15.9349 213.825 16.3749 212.77 16.9449 211.87H18.3099C17.7099 212.92 17.2699 214.02 16.9899 215.17C16.7099 216.32 16.5699 217.56 16.5699 218.89C16.5699 220.22 16.7099 221.46 16.9899 222.61C17.2699 223.76 17.7099 224.86 18.3099 225.91H16.9449ZM27.0536 220.375H21.4736L20.3186 223H18.7736L23.5286 212.5H25.0136L29.7836 223H28.2086L27.0536 220.375ZM26.5286 219.175L24.2636 214.03L21.9986 219.175H26.5286ZM32.5199 216.385C32.7699 215.925 33.1399 215.575 33.6299 215.335C34.1199 215.095 34.7149 214.975 35.4149 214.975V216.37C35.3349 216.36 35.2249 216.355 35.0849 216.355C34.3049 216.355 33.6899 216.59 33.2399 217.06C32.7999 217.52 32.5799 218.18 32.5799 219.04V223H31.1399V215.05H32.5199V216.385ZM36.2754 225.91C36.8754 224.86 37.3154 223.76 37.5954 222.61C37.8854 221.46 38.0304 220.22 38.0304 218.89C38.0304 217.56 37.8854 216.32 37.5954 215.17C37.3154 214.02 36.8754 212.92 36.2754 211.87H37.6404C38.2204 212.77 38.6654 213.82 38.9754 215.02C39.2854 216.22 39.4404 217.51 39.4404 218.89C39.4404 220.26 39.2854 221.545 38.9754 222.745C38.6654 223.945 38.2204 225 37.6404 225.91H36.2754ZM48.9638 221.695V223H41.4188V221.98L45.6938 217.855C46.2138 217.355 46.5638 216.925 46.7438 216.565C46.9238 216.195 47.0138 215.825 47.0138 215.455C47.0138 214.905 46.8188 214.48 46.4288 214.18C46.0488 213.87 45.4988 213.715 44.7788 213.715C43.6188 213.715 42.7238 214.095 42.0938 214.855L41.0738 213.97C41.4838 213.47 42.0188 213.08 42.6788 212.8C43.3488 212.52 44.0938 212.38 44.9138 212.38C46.0138 212.38 46.8888 212.645 47.5388 213.175C48.1888 213.695 48.5138 214.405 48.5138 215.305C48.5138 215.865 48.3938 216.395 48.1538 216.895C47.9138 217.395 47.4588 217.965 46.7888 218.605L43.5788 221.695H48.9638ZM52.6235 218.14C51.8935 218.14 51.3035 217.875 50.8535 217.345C50.4035 216.815 50.1785 216.125 50.1785 215.275C50.1785 214.425 50.4035 213.735 50.8535 213.205C51.3035 212.675 51.8935 212.41 52.6235 212.41C53.3535 212.41 53.9385 212.675 54.3785 213.205C54.8285 213.725 55.0535 214.415 55.0535 215.275C55.0535 216.135 54.8285 216.83 54.3785 217.36C53.9385 217.88 53.3535 218.14 52.6235 218.14ZM58.9535 212.5H60.1085L52.9385 223H51.7835L58.9535 212.5ZM52.6235 217.285C53.0835 217.285 53.4435 217.11 53.7035 216.76C53.9635 216.4 54.0935 215.905 54.0935 215.275C54.0935 214.645 53.9635 214.155 53.7035 213.805C53.4435 213.445 53.0835 213.265 52.6235 213.265C52.1735 213.265 51.8135 213.445 51.5435 213.805C51.2835 214.165 51.1535 214.655 51.1535 215.275C51.1535 215.895 51.2835 216.385 51.5435 216.745C51.8135 217.105 52.1735 217.285 52.6235 217.285ZM59.2685 223.09C58.5385 223.09 57.9485 222.83 57.4985 222.31C57.0585 221.78 56.8385 221.085 56.8385 220.225C56.8385 219.365 57.0585 218.675 57.4985 218.155C57.9485 217.625 58.5385 217.36 59.2685 217.36C59.9985 217.36 60.5885 217.625 61.0385 218.155C61.4885 218.685 61.7135 219.375 61.7135 220.225C61.7135 221.075 61.4885 221.765 61.0385 222.295C60.5885 222.825 59.9985 223.09 59.2685 223.09ZM59.2685 222.235C59.7185 222.235 60.0735 222.055 60.3335 221.695C60.6035 221.335 60.7385 220.845 60.7385 220.225C60.7385 219.605 60.6035 219.115 60.3335 218.755C60.0735 218.395 59.7185 218.215 59.2685 218.215C58.8085 218.215 58.4485 218.395 58.1885 218.755C57.9285 219.105 57.7985 219.595 57.7985 220.225C57.7985 220.855 57.9285 221.35 58.1885 221.71C58.4485 222.06 58.8085 222.235 59.2685 222.235ZM24.4409 230.17C25.1962 230.17 25.7755 230.361 26.1789 230.742C26.5822 231.116 26.7839 231.673 26.7839 232.414V236H26.0359V235.098C25.8599 235.399 25.5995 235.633 25.2549 235.802C24.9175 235.971 24.5142 236.055 24.0449 236.055C23.3995 236.055 22.8862 235.901 22.5049 235.593C22.1235 235.285 21.9329 234.878 21.9329 234.372C21.9329 233.881 22.1089 233.485 22.4609 233.184C22.8202 232.883 23.3885 232.733 24.1659 232.733H26.0029V232.381C26.0029 231.882 25.8635 231.505 25.5849 231.248C25.3062 230.984 24.8992 230.852 24.3639 230.852C23.9972 230.852 23.6452 230.914 23.3079 231.039C22.9705 231.156 22.6809 231.321 22.4389 231.534L22.0869 230.951C22.3802 230.702 22.7322 230.511 23.1429 230.379C23.5535 230.24 23.9862 230.17 24.4409 230.17ZM24.1659 235.439C24.6059 235.439 24.9835 235.34 25.2989 235.142C25.6142 234.937 25.8489 234.643 26.0029 234.262V233.316H24.1879C23.1979 233.316 22.7029 233.661 22.7029 234.35C22.7029 234.687 22.8312 234.955 23.0879 235.153C23.3445 235.344 23.7039 235.439 24.1659 235.439ZM31.844 230.17C32.3866 230.17 32.878 230.295 33.318 230.544C33.758 230.786 34.1026 231.131 34.352 231.578C34.6013 232.025 34.726 232.535 34.726 233.107C34.726 233.686 34.6013 234.2 34.352 234.647C34.1026 235.094 33.758 235.443 33.318 235.692C32.8853 235.934 32.394 236.055 31.844 236.055C31.3746 236.055 30.9493 235.96 30.568 235.769C30.194 235.571 29.886 235.285 29.644 234.911V238.134H28.863V230.214H29.611V231.358C29.8456 230.977 30.1536 230.683 30.535 230.478C30.9236 230.273 31.36 230.17 31.844 230.17ZM31.789 235.362C32.1923 235.362 32.559 235.27 32.889 235.087C33.219 234.896 33.4756 234.629 33.659 234.284C33.8496 233.939 33.945 233.547 33.945 233.107C33.945 232.667 33.8496 232.278 33.659 231.941C33.4756 231.596 33.219 231.329 32.889 231.138C32.559 230.947 32.1923 230.852 31.789 230.852C31.3783 230.852 31.008 230.947 30.678 231.138C30.3553 231.329 30.0986 231.596 29.908 231.941C29.7246 232.278 29.633 232.667 29.633 233.107C29.633 233.547 29.7246 233.939 29.908 234.284C30.0986 234.629 30.3553 234.896 30.678 235.087C31.008 235.27 31.3783 235.362 31.789 235.362ZM40.496 230.907H37.185V236H36.404V230.214H40.496V230.907ZM43.7431 236.055C43.1858 236.055 42.6835 235.93 42.2361 235.681C41.7888 235.424 41.4368 235.072 41.1801 234.625C40.9235 234.178 40.7951 233.672 40.7951 233.107C40.7951 232.542 40.9235 232.036 41.1801 231.589C41.4368 231.142 41.7888 230.793 42.2361 230.544C42.6835 230.295 43.1858 230.17 43.7431 230.17C44.3005 230.17 44.8028 230.295 45.2501 230.544C45.6975 230.793 46.0458 231.142 46.2951 231.589C46.5518 232.036 46.6801 232.542 46.6801 233.107C46.6801 233.672 46.5518 234.178 46.2951 234.625C46.0458 235.072 45.6975 235.424 45.2501 235.681C44.8028 235.93 44.3005 236.055 43.7431 236.055ZM43.7431 235.362C44.1538 235.362 44.5205 235.27 44.8431 235.087C45.1731 234.896 45.4298 234.629 45.6131 234.284C45.7965 233.939 45.8881 233.547 45.8881 233.107C45.8881 232.667 45.7965 232.275 45.6131 231.93C45.4298 231.585 45.1731 231.321 44.8431 231.138C44.5205 230.947 44.1538 230.852 43.7431 230.852C43.3325 230.852 42.9621 230.947 42.6321 231.138C42.3095 231.321 42.0528 231.585 41.8621 231.93C41.6788 232.275 41.5871 232.667 41.5871 233.107C41.5871 233.547 41.6788 233.939 41.8621 234.284C42.0528 234.629 42.3095 234.896 42.6321 235.087C42.9621 235.27 43.3325 235.362 43.7431 235.362ZM44.5262 227.959H45.5712L43.7892 229.323H43.0192L44.5262 227.959ZM48.3493 230.214H49.1303V232.777H52.7713V230.214H53.5523V236H52.7713V233.448H49.1303V236H48.3493V230.214Z" fill="white"/>
<path d="M314.216 40.91C313.646 39.99 313.206 38.935 312.896 37.745C312.586 36.545 312.431 35.26 312.431 33.89C312.431 32.52 312.586 31.235 312.896 30.035C313.206 28.825 313.646 27.77 314.216 26.87H315.581C314.981 27.92 314.541 29.02 314.261 30.17C313.981 31.32 313.841 32.56 313.841 33.89C313.841 35.22 313.981 36.46 314.261 37.61C314.541 38.76 314.981 39.86 315.581 40.91H314.216ZM326.665 27.5V38H325.435L319.135 30.17V38H317.635V27.5H318.865L325.165 35.33V27.5H326.665ZM336.333 36.695V38H328.788V36.98L333.063 32.855C333.583 32.355 333.933 31.925 334.113 31.565C334.293 31.195 334.383 30.825 334.383 30.455C334.383 29.905 334.188 29.48 333.798 29.18C333.418 28.87 332.868 28.715 332.148 28.715C330.988 28.715 330.093 29.095 329.463 29.855L328.443 28.97C328.853 28.47 329.388 28.08 330.048 27.8C330.718 27.52 331.463 27.38 332.283 27.38C333.383 27.38 334.258 27.645 334.908 28.175C335.558 28.695 335.883 29.405 335.883 30.305C335.883 30.865 335.763 31.395 335.523 31.895C335.283 32.395 334.828 32.965 334.158 33.605L330.948 36.695H336.333ZM337.326 40.91C337.926 39.86 338.366 38.76 338.646 37.61C338.936 36.46 339.081 35.22 339.081 33.89C339.081 32.56 338.936 31.32 338.646 30.17C338.366 29.02 337.926 27.92 337.326 26.87H338.691C339.271 27.77 339.716 28.82 340.026 30.02C340.336 31.22 340.491 32.51 340.491 33.89C340.491 35.26 340.336 36.545 340.026 37.745C339.716 38.945 339.271 40 338.691 40.91H337.326ZM346.655 31.91C347.685 32.01 348.47 32.33 349.01 32.87C349.55 33.4 349.82 34.08 349.82 34.91C349.82 35.51 349.67 36.055 349.37 36.545C349.07 37.025 348.62 37.41 348.02 37.7C347.43 37.98 346.705 38.12 345.845 38.12C345.095 38.12 344.375 38.01 343.685 37.79C342.995 37.56 342.43 37.245 341.99 36.845L342.68 35.66C343.04 36 343.5 36.275 344.06 36.485C344.62 36.685 345.215 36.785 345.845 36.785C346.625 36.785 347.23 36.62 347.66 36.29C348.1 35.96 348.32 35.505 348.32 34.925C348.32 34.345 348.105 33.895 347.675 33.575C347.245 33.255 346.595 33.095 345.725 33.095H344.885V32.045L347.525 28.805H342.47V27.5H349.4V28.52L346.655 31.91ZM353.352 33.14C352.622 33.14 352.032 32.875 351.582 32.345C351.132 31.815 350.907 31.125 350.907 30.275C350.907 29.425 351.132 28.735 351.582 28.205C352.032 27.675 352.622 27.41 353.352 27.41C354.082 27.41 354.667 27.675 355.107 28.205C355.557 28.725 355.782 29.415 355.782 30.275C355.782 31.135 355.557 31.83 355.107 32.36C354.667 32.88 354.082 33.14 353.352 33.14ZM359.682 27.5H360.837L353.667 38H352.512L359.682 27.5ZM353.352 32.285C353.812 32.285 354.172 32.11 354.432 31.76C354.692 31.4 354.822 30.905 354.822 30.275C354.822 29.645 354.692 29.155 354.432 28.805C354.172 28.445 353.812 28.265 353.352 28.265C352.902 28.265 352.542 28.445 352.272 28.805C352.012 29.165 351.882 29.655 351.882 30.275C351.882 30.895 352.012 31.385 352.272 31.745C352.542 32.105 352.902 32.285 353.352 32.285ZM359.997 38.09C359.267 38.09 358.677 37.83 358.227 37.31C357.787 36.78 357.567 36.085 357.567 35.225C357.567 34.365 357.787 33.675 358.227 33.155C358.677 32.625 359.267 32.36 359.997 32.36C360.727 32.36 361.317 32.625 361.767 33.155C362.217 33.685 362.442 34.375 362.442 35.225C362.442 36.075 362.217 36.765 361.767 37.295C361.317 37.825 360.727 38.09 359.997 38.09ZM359.997 37.235C360.447 37.235 360.802 37.055 361.062 36.695C361.332 36.335 361.467 35.845 361.467 35.225C361.467 34.605 361.332 34.115 361.062 33.755C360.802 33.395 360.447 33.215 359.997 33.215C359.537 33.215 359.177 33.395 358.917 33.755C358.657 34.105 358.527 34.595 358.527 35.225C358.527 35.855 358.657 36.35 358.917 36.71C359.177 37.06 359.537 37.235 359.997 37.235ZM328.028 45.17C328.783 45.17 329.362 45.3607 329.766 45.742C330.169 46.116 330.371 46.6733 330.371 47.414V51H329.623V50.098C329.447 50.3987 329.186 50.6333 328.842 50.802C328.504 50.9707 328.101 51.055 327.632 51.055C326.986 51.055 326.473 50.901 326.092 50.593C325.71 50.285 325.52 49.878 325.52 49.372C325.52 48.8807 325.696 48.4847 326.048 48.184C326.407 47.8833 326.975 47.733 327.753 47.733H329.59V47.381C329.59 46.8823 329.45 46.5047 329.172 46.248C328.893 45.984 328.486 45.852 327.951 45.852C327.584 45.852 327.232 45.9143 326.895 46.039C326.557 46.1563 326.268 46.3213 326.026 46.534L325.674 45.951C325.967 45.7017 326.319 45.511 326.73 45.379C327.14 45.2397 327.573 45.17 328.028 45.17ZM327.753 50.439C328.193 50.439 328.57 50.34 328.886 50.142C329.201 49.9367 329.436 49.6433 329.59 49.262V48.316H327.775C326.785 48.316 326.29 48.6607 326.29 49.35C326.29 49.6873 326.418 49.955 326.675 50.153C326.931 50.3437 327.291 50.439 327.753 50.439ZM335.148 47.986C335.558 48.0813 335.874 48.2463 336.094 48.481C336.321 48.7157 336.435 49.0017 336.435 49.339C336.435 49.6763 336.317 49.977 336.083 50.241C335.855 50.505 335.544 50.7103 335.148 50.857C334.752 50.9963 334.315 51.066 333.839 51.066C333.421 51.066 333.01 51.0073 332.607 50.89C332.203 50.7653 331.851 50.5857 331.551 50.351L331.815 49.768C332.079 49.966 332.387 50.12 332.739 50.23C333.091 50.34 333.446 50.395 333.806 50.395C334.341 50.395 334.777 50.296 335.115 50.098C335.459 49.8927 335.632 49.6177 335.632 49.273C335.632 48.965 335.492 48.7267 335.214 48.558C334.935 48.382 334.554 48.294 334.07 48.294H333.08V47.722H334.026C334.458 47.722 334.807 47.6413 335.071 47.48C335.335 47.3113 335.467 47.0877 335.467 46.809C335.467 46.501 335.316 46.259 335.016 46.083C334.722 45.907 334.337 45.819 333.861 45.819C333.237 45.819 332.621 45.9767 332.013 46.292L331.793 45.687C332.482 45.3277 333.197 45.148 333.938 45.148C334.378 45.148 334.774 45.214 335.126 45.346C335.485 45.4707 335.764 45.6503 335.962 45.885C336.167 46.1197 336.27 46.391 336.27 46.699C336.27 46.9923 336.167 47.2527 335.962 47.48C335.764 47.7073 335.492 47.876 335.148 47.986ZM340.595 51.055C340.037 51.055 339.535 50.9303 339.088 50.681C338.64 50.4243 338.288 50.0723 338.032 49.625C337.775 49.1777 337.647 48.6717 337.647 48.107C337.647 47.5423 337.775 47.0363 338.032 46.589C338.288 46.1417 338.64 45.7933 339.088 45.544C339.535 45.2947 340.037 45.17 340.595 45.17C341.152 45.17 341.654 45.2947 342.102 45.544C342.549 45.7933 342.897 46.1417 343.147 46.589C343.403 47.0363 343.532 47.5423 343.532 48.107C343.532 48.6717 343.403 49.1777 343.147 49.625C342.897 50.0723 342.549 50.4243 342.102 50.681C341.654 50.9303 341.152 51.055 340.595 51.055ZM340.595 50.362C341.005 50.362 341.372 50.2703 341.695 50.087C342.025 49.8963 342.281 49.6287 342.465 49.284C342.648 48.9393 342.74 48.547 342.74 48.107C342.74 47.667 342.648 47.2747 342.465 46.93C342.281 46.5853 342.025 46.3213 341.695 46.138C341.372 45.9473 341.005 45.852 340.595 45.852C340.184 45.852 339.814 45.9473 339.484 46.138C339.161 46.3213 338.904 46.5853 338.714 46.93C338.53 47.2747 338.439 47.667 338.439 48.107C338.439 48.547 338.53 48.9393 338.714 49.284C338.904 49.6287 339.161 49.8963 339.484 50.087C339.814 50.2703 340.184 50.362 340.595 50.362ZM349.056 45.907H346.867V51H346.086V45.907H343.897V45.214H349.056V45.907Z" fill="white"/>
<path d="M315.108 221.91C314.538 220.99 314.098 219.935 313.788 218.745C313.478 217.545 313.323 216.26 313.323 214.89C313.323 213.52 313.478 212.235 313.788 211.035C314.098 209.825 314.538 208.77 315.108 207.87H316.473C315.873 208.92 315.433 210.02 315.153 211.17C314.873 212.32 314.733 213.56 314.733 214.89C314.733 216.22 314.873 217.46 315.153 218.61C315.433 219.76 315.873 220.86 316.473 221.91H315.108ZM323.267 219.12C322.207 219.12 321.252 218.89 320.402 218.43C319.552 217.96 318.882 217.315 318.392 216.495C317.912 215.675 317.672 214.76 317.672 213.75C317.672 212.74 317.912 211.825 318.392 211.005C318.882 210.185 319.552 209.545 320.402 209.085C321.252 208.615 322.207 208.38 323.267 208.38C324.317 208.38 325.267 208.615 326.117 209.085C326.967 209.545 327.632 210.185 328.112 211.005C328.592 211.815 328.832 212.73 328.832 213.75C328.832 214.77 328.592 215.69 328.112 216.51C327.632 217.32 326.967 217.96 326.117 218.43C325.267 218.89 324.317 219.12 323.267 219.12ZM323.267 217.785C324.037 217.785 324.727 217.61 325.337 217.26C325.957 216.91 326.442 216.43 326.792 215.82C327.152 215.2 327.332 214.51 327.332 213.75C327.332 212.99 327.152 212.305 326.792 211.695C326.442 211.075 325.957 210.59 325.337 210.24C324.727 209.89 324.037 209.715 323.267 209.715C322.497 209.715 321.797 209.89 321.167 210.24C320.547 210.59 320.057 211.075 319.697 211.695C319.347 212.305 319.172 212.99 319.172 213.75C319.172 214.51 319.347 215.2 319.697 215.82C320.057 216.43 320.547 216.91 321.167 217.26C321.797 217.61 322.497 217.785 323.267 217.785ZM330.205 221.91C330.805 220.86 331.245 219.76 331.525 218.61C331.815 217.46 331.96 216.22 331.96 214.89C331.96 213.56 331.815 212.32 331.525 211.17C331.245 210.02 330.805 208.92 330.205 207.87H331.57C332.15 208.77 332.595 209.82 332.905 211.02C333.215 212.22 333.37 213.51 333.37 214.89C333.37 216.26 333.215 217.545 332.905 218.745C332.595 219.945 332.15 221 331.57 221.91H330.205ZM338.919 208.38C340.329 208.38 341.414 208.835 342.174 209.745C342.944 210.655 343.329 211.945 343.329 213.615C343.329 214.785 343.119 215.785 342.699 216.615C342.289 217.435 341.709 218.06 340.959 218.49C340.219 218.91 339.354 219.12 338.364 219.12C337.854 219.12 337.374 219.07 336.924 218.97C336.474 218.86 336.084 218.705 335.754 218.505L336.324 217.335C336.834 217.665 337.509 217.83 338.349 217.83C339.439 217.83 340.289 217.495 340.899 216.825C341.519 216.145 341.829 215.16 341.829 213.87V213.495C341.529 213.945 341.114 214.29 340.584 214.53C340.054 214.76 339.459 214.875 338.799 214.875C338.109 214.875 337.489 214.745 336.939 214.485C336.399 214.225 335.974 213.855 335.664 213.375C335.364 212.885 335.214 212.325 335.214 211.695C335.214 211.035 335.374 210.455 335.694 209.955C336.024 209.455 336.469 209.07 337.029 208.8C337.589 208.52 338.219 208.38 338.919 208.38ZM339.054 213.66C339.524 213.66 339.944 213.57 340.314 213.39C340.684 213.21 340.969 212.965 341.169 212.655C341.379 212.345 341.484 212 341.484 211.62C341.484 211.25 341.384 210.915 341.184 210.615C340.994 210.305 340.709 210.06 340.329 209.88C339.959 209.69 339.509 209.595 338.979 209.595C338.289 209.595 337.729 209.78 337.299 210.15C336.879 210.52 336.669 211.015 336.669 211.635C336.669 212.255 336.884 212.75 337.314 213.12C337.744 213.48 338.324 213.66 339.054 213.66ZM347.982 208.5V219H346.497V209.805H344.127V208.5H347.982ZM352.559 214.14C351.829 214.14 351.239 213.875 350.789 213.345C350.339 212.815 350.114 212.125 350.114 211.275C350.114 210.425 350.339 209.735 350.789 209.205C351.239 208.675 351.829 208.41 352.559 208.41C353.289 208.41 353.874 208.675 354.314 209.205C354.764 209.725 354.989 210.415 354.989 211.275C354.989 212.135 354.764 212.83 354.314 213.36C353.874 213.88 353.289 214.14 352.559 214.14ZM358.889 208.5H360.044L352.874 219H351.719L358.889 208.5ZM352.559 213.285C353.019 213.285 353.379 213.11 353.639 212.76C353.899 212.4 354.029 211.905 354.029 211.275C354.029 210.645 353.899 210.155 353.639 209.805C353.379 209.445 353.019 209.265 352.559 209.265C352.109 209.265 351.749 209.445 351.479 209.805C351.219 210.165 351.089 210.655 351.089 211.275C351.089 211.895 351.219 212.385 351.479 212.745C351.749 213.105 352.109 213.285 352.559 213.285ZM359.204 219.09C358.474 219.09 357.884 218.83 357.434 218.31C356.994 217.78 356.774 217.085 356.774 216.225C356.774 215.365 356.994 214.675 357.434 214.155C357.884 213.625 358.474 213.36 359.204 213.36C359.934 213.36 360.524 213.625 360.974 214.155C361.424 214.685 361.649 215.375 361.649 216.225C361.649 217.075 361.424 217.765 360.974 218.295C360.524 218.825 359.934 219.09 359.204 219.09ZM359.204 218.235C359.654 218.235 360.009 218.055 360.269 217.695C360.539 217.335 360.674 216.845 360.674 216.225C360.674 215.605 360.539 215.115 360.269 214.755C360.009 214.395 359.654 214.215 359.204 214.215C358.744 214.215 358.384 214.395 358.124 214.755C357.864 215.105 357.734 215.595 357.734 216.225C357.734 216.855 357.864 217.35 358.124 217.71C358.384 218.06 358.744 218.235 359.204 218.235ZM317.106 229.008C317.891 229.191 318.283 229.664 318.283 230.427C318.283 230.933 318.096 231.322 317.722 231.593C317.348 231.864 316.791 232 316.05 232H313.421V226.214H315.973C316.633 226.214 317.15 226.342 317.524 226.599C317.898 226.856 318.085 227.222 318.085 227.699C318.085 228.014 317.997 228.286 317.821 228.513C317.653 228.733 317.414 228.898 317.106 229.008ZM314.18 228.788H315.918C316.366 228.788 316.707 228.704 316.941 228.535C317.183 228.366 317.304 228.121 317.304 227.798C317.304 227.475 317.183 227.233 316.941 227.072C316.707 226.911 316.366 226.83 315.918 226.83H314.18V228.788ZM316.017 231.384C316.516 231.384 316.89 231.303 317.139 231.142C317.389 230.981 317.513 230.728 317.513 230.383C317.513 230.038 317.4 229.785 317.172 229.624C316.945 229.455 316.586 229.371 316.094 229.371H314.18V231.384H316.017ZM322.501 232.055C321.943 232.055 321.441 231.93 320.994 231.681C320.546 231.424 320.194 231.072 319.938 230.625C319.681 230.178 319.553 229.672 319.553 229.107C319.553 228.542 319.681 228.036 319.938 227.589C320.194 227.142 320.546 226.793 320.994 226.544C321.441 226.295 321.943 226.17 322.501 226.17C323.058 226.17 323.56 226.295 324.008 226.544C324.455 226.793 324.803 227.142 325.053 227.589C325.309 228.036 325.438 228.542 325.438 229.107C325.438 229.672 325.309 230.178 325.053 230.625C324.803 231.072 324.455 231.424 324.008 231.681C323.56 231.93 323.058 232.055 322.501 232.055ZM322.501 231.362C322.911 231.362 323.278 231.27 323.601 231.087C323.931 230.896 324.187 230.629 324.371 230.284C324.554 229.939 324.646 229.547 324.646 229.107C324.646 228.667 324.554 228.275 324.371 227.93C324.187 227.585 323.931 227.321 323.601 227.138C323.278 226.947 322.911 226.852 322.501 226.852C322.09 226.852 321.72 226.947 321.39 227.138C321.067 227.321 320.81 227.585 320.62 227.93C320.436 228.275 320.345 228.667 320.345 229.107C320.345 229.547 320.436 229.939 320.62 230.284C320.81 230.629 321.067 230.896 321.39 231.087C321.72 231.27 322.09 231.362 322.501 231.362ZM332.718 231.318V233.397H331.981V232H326.8V233.397H326.063V231.318H326.393C326.781 231.296 327.045 231.01 327.185 230.46C327.324 229.91 327.419 229.14 327.471 228.15L327.548 226.214H331.816V231.318H332.718ZM328.186 228.194C328.149 229.015 328.079 229.694 327.977 230.229C327.874 230.757 327.691 231.12 327.427 231.318H331.035V226.907H328.252L328.186 228.194ZM336.627 232.055C336.069 232.055 335.567 231.93 335.12 231.681C334.672 231.424 334.32 231.072 334.064 230.625C333.807 230.178 333.679 229.672 333.679 229.107C333.679 228.542 333.807 228.036 334.064 227.589C334.32 227.142 334.672 226.793 335.12 226.544C335.567 226.295 336.069 226.17 336.627 226.17C337.184 226.17 337.686 226.295 338.134 226.544C338.581 226.793 338.929 227.142 339.179 227.589C339.435 228.036 339.564 228.542 339.564 229.107C339.564 229.672 339.435 230.178 339.179 230.625C338.929 231.072 338.581 231.424 338.134 231.681C337.686 231.93 337.184 232.055 336.627 232.055ZM336.627 231.362C337.037 231.362 337.404 231.27 337.727 231.087C338.057 230.896 338.313 230.629 338.497 230.284C338.68 229.939 338.772 229.547 338.772 229.107C338.772 228.667 338.68 228.275 338.497 227.93C338.313 227.585 338.057 227.321 337.727 227.138C337.404 226.947 337.037 226.852 336.627 226.852C336.216 226.852 335.846 226.947 335.516 227.138C335.193 227.321 334.936 227.585 334.746 227.93C334.562 228.275 334.471 228.667 334.471 229.107C334.471 229.547 334.562 229.939 334.746 230.284C334.936 230.629 335.193 230.896 335.516 231.087C335.846 231.27 336.216 231.362 336.627 231.362ZM344.214 226.17C344.756 226.17 345.248 226.295 345.688 226.544C346.128 226.786 346.472 227.131 346.722 227.578C346.971 228.025 347.096 228.535 347.096 229.107C347.096 229.686 346.971 230.2 346.722 230.647C346.472 231.094 346.128 231.443 345.688 231.692C345.255 231.934 344.764 232.055 344.214 232.055C343.744 232.055 343.319 231.96 342.938 231.769C342.564 231.571 342.256 231.285 342.014 230.911V234.134H341.233V226.214H341.981V227.358C342.215 226.977 342.523 226.683 342.905 226.478C343.293 226.273 343.73 226.17 344.214 226.17ZM344.159 231.362C344.562 231.362 344.929 231.27 345.259 231.087C345.589 230.896 345.845 230.629 346.029 230.284C346.219 229.939 346.315 229.547 346.315 229.107C346.315 228.667 346.219 228.278 346.029 227.941C345.845 227.596 345.589 227.329 345.259 227.138C344.929 226.947 344.562 226.852 344.159 226.852C343.748 226.852 343.378 226.947 343.048 227.138C342.725 227.329 342.468 227.596 342.278 227.941C342.094 228.278 342.003 228.667 342.003 229.107C342.003 229.547 342.094 229.939 342.278 230.284C342.468 230.629 342.725 230.896 343.048 231.087C343.378 231.27 343.748 231.362 344.159 231.362ZM351.161 232.055C350.603 232.055 350.101 231.93 349.654 231.681C349.206 231.424 348.854 231.072 348.598 230.625C348.341 230.178 348.213 229.672 348.213 229.107C348.213 228.542 348.341 228.036 348.598 227.589C348.854 227.142 349.206 226.793 349.654 226.544C350.101 226.295 350.603 226.17 351.161 226.17C351.718 226.17 352.22 226.295 352.668 226.544C353.115 226.793 353.463 227.142 353.713 227.589C353.969 228.036 354.098 228.542 354.098 229.107C354.098 229.672 353.969 230.178 353.713 230.625C353.463 231.072 353.115 231.424 352.668 231.681C352.22 231.93 351.718 232.055 351.161 232.055ZM351.161 231.362C351.571 231.362 351.938 231.27 352.261 231.087C352.591 230.896 352.847 230.629 353.031 230.284C353.214 229.939 353.306 229.547 353.306 229.107C353.306 228.667 353.214 228.275 353.031 227.93C352.847 227.585 352.591 227.321 352.261 227.138C351.938 226.947 351.571 226.852 351.161 226.852C350.75 226.852 350.38 226.947 350.05 227.138C349.727 227.321 349.47 227.585 349.28 227.93C349.096 228.275 349.005 228.667 349.005 229.107C349.005 229.547 349.096 229.939 349.28 230.284C349.47 230.629 349.727 230.896 350.05 231.087C350.38 231.27 350.75 231.362 351.161 231.362ZM361.378 231.318V233.397H360.641V232H355.46V233.397H354.723V231.318H355.053C355.441 231.296 355.705 231.01 355.845 230.46C355.984 229.91 356.079 229.14 356.131 228.15L356.208 226.214H360.476V231.318H361.378ZM356.846 228.194C356.809 229.015 356.739 229.694 356.637 230.229C356.534 230.757 356.351 231.12 356.087 231.318H359.695V226.907H356.912L356.846 228.194Z" fill="white"/>
<path d="M266.69 179.505V221.248H301.945" stroke="#FFFAFA"/>
<ellipse cx="267.241" cy="220.713" rx="2.7543" ry="2.67584" transform="rotate(-180 267.241 220.713)" fill="white"/>
<ellipse cx="300.293" cy="220.713" rx="2.7543" ry="2.67584" transform="rotate(-180 300.293 220.713)" fill="white"/>
<ellipse cx="267.241" cy="182.181" rx="2.7543" ry="2.67584" transform="rotate(-180 267.241 182.181)" fill="white"/>
<path d="M265.618 80.9155V39.1724H300.873" stroke="#FFFAFA"/>
<ellipse rx="2.75429" ry="2.67584" transform="matrix(-1 0 0 1 266.17 39.7076)" fill="white"/>
<ellipse rx="2.75429" ry="2.67584" transform="matrix(-1 0 0 1 299.221 39.7076)" fill="white"/>
<ellipse rx="2.75429" ry="2.67584" transform="matrix(-1 0 0 1 266.17 78.2393)" fill="white"/>
<path d="M108.045 80.9191V39.1724H72.79" stroke="#FFFAFA"/>
<ellipse cx="107.493" cy="39.7078" rx="2.75429" ry="2.67607" fill="white"/>
<ellipse cx="74.4418" cy="39.7078" rx="2.75429" ry="2.67607" fill="white"/>
<ellipse cx="107.493" cy="78.243" rx="2.75429" ry="2.67607" fill="white"/>
<path d="M108.045 179.505V221.248H72.79" stroke="#FFFAFA"/>
<ellipse rx="2.75429" ry="2.67584" transform="matrix(1 0 0 -1 107.493 220.713)" fill="white"/>
<ellipse rx="2.75429" ry="2.67584" transform="matrix(1 0 0 -1 74.4418 220.713)" fill="white"/>
<ellipse rx="2.75429" ry="2.67584" transform="matrix(1 0 0 -1 107.493 182.181)" fill="white"/>
<defs>
<radialGradient id="paint0_radial" cx="0" cy="0" r="1" gradientUnits="userSpaceOnUse" gradientTransform="translate(210.231 234.721) rotate(-90.4902) scale(225.346 230.404)">
<stop stop-color="#C4C4C4"/>
<stop offset="1" stop-color="#C4C4C4" stop-opacity="0"/>
</radialGradient>
</defs>
</svg>
