<svg width="351" height="253" viewBox="0 0 351 253" fill="none" xmlns="http://www.w3.org/2000/svg">
<path d="M164.511 213.524C115.387 207.716 80.2665 163.158 86.0682 114C91.8698 64.8425 136.396 29.7013 185.521 35.5094C234.645 41.3175 269.765 85.8756 263.964 135.033C258.162 184.191 213.635 219.332 164.511 213.524Z" fill="url(#paint0_radial)" fill-opacity="0.31" stroke="white"/>
<path d="M349.69 212.119C349.659 231.2 334.176 246.642 315.108 246.611C296.04 246.58 280.608 231.087 280.639 212.006C280.67 192.925 296.153 177.482 315.221 177.513C334.288 177.544 349.721 193.037 349.69 212.119Z" fill="#0B81F9" stroke="white"/>
<path d="M349.978 35.874C349.948 54.9552 334.465 70.3973 315.397 70.3656C296.329 70.334 280.896 54.8406 280.927 35.7594C280.957 16.6782 296.44 1.23608 315.508 1.26774C334.576 1.29939 350.009 16.7928 349.978 35.874Z" fill="#004C03" stroke="white"/>
<path d="M70.7721 35.4181C70.741 54.4993 55.2578 69.9418 36.1901 69.9107C17.1224 69.8796 1.68961 54.3866 1.72071 35.3054C1.75181 16.2242 17.235 0.781659 36.3027 0.812779C55.3704 0.843899 70.8032 16.3369 70.7721 35.4181Z" fill="#00C6C6" stroke="white"/>
<path d="M70.4855 211.665C70.4543 230.747 54.9711 246.189 35.9034 246.158C16.8357 246.127 1.40291 230.634 1.43404 211.553C1.46516 192.472 16.9484 177.029 36.0161 177.06C55.0838 177.091 70.5166 192.584 70.4855 211.665Z" fill="#B77E7D" stroke="white"/>
<path d="M20.9329 36.7389C20.4023 35.8794 19.9932 34.8941 19.7057 33.7829C19.4182 32.6624 19.2754 31.4629 19.2775 30.1842C19.2796 28.9055 19.4262 27.7064 19.7173 26.5869C20.0085 25.4581 20.4207 24.4741 20.9541 23.635L22.2281 23.6371C21.6665 24.6161 21.2542 25.6421 20.9911 26.715C20.728 27.7879 20.5955 28.945 20.5935 30.1864C20.5915 31.4277 20.7203 32.5853 20.9799 33.659C21.2395 34.7328 21.6485 35.7601 22.2069 36.741L20.9329 36.7389ZM27.8856 30.6464L27.8801 34.0344L26.4941 34.0321L26.4996 30.6161L22.6179 24.2257L24.1159 24.2282L27.2436 29.3994L30.4019 24.2386L31.7879 24.2408L27.8856 30.6464ZM32.2482 36.7576C32.8098 35.7785 33.2221 34.7526 33.4852 33.6797C33.7576 32.6068 33.8948 31.4497 33.8968 30.2083C33.8988 28.967 33.7653 27.8094 33.4964 26.7357C33.2368 25.6619 32.8277 24.6346 32.2693 23.6536L33.5433 23.6557C34.0833 24.4966 34.4971 25.4773 34.7846 26.5978C35.0721 27.7183 35.2148 28.9225 35.2128 30.2105C35.2107 31.4892 35.0641 32.6883 34.773 33.8078C34.4818 34.9273 34.0649 35.9113 33.5222 36.7597L32.2482 36.7576ZM44.097 32.8432L44.095 34.0612L37.053 34.0495L37.0546 33.0975L41.0508 29.2541C41.5369 28.7883 41.8642 28.3875 42.0327 28.0518C42.2013 27.7067 42.2858 27.3615 42.2864 27.0162C42.2872 26.5028 42.1059 26.1059 41.7423 25.8253C41.3881 25.5354 40.875 25.3898 40.203 25.3887C39.1203 25.3869 38.2844 25.7402 37.6953 26.4486L36.7446 25.621C37.128 25.155 37.628 24.7918 38.2444 24.5315C38.8701 24.2712 39.5657 24.1417 40.331 24.1429C41.3577 24.1446 42.1739 24.3933 42.7798 24.889C43.3857 25.3753 43.688 26.0385 43.6866 26.8785C43.6858 27.4012 43.573 27.8956 43.3482 28.3619C43.1235 28.8282 42.6979 29.3595 42.0716 29.9558L39.071 32.8349L44.097 32.8432ZM47.5181 29.5308C46.8368 29.5297 46.2865 29.2814 45.8673 28.7861C45.4481 28.2907 45.2392 27.6464 45.2404 26.853C45.2417 26.0597 45.4528 25.4161 45.8735 24.9221C46.2943 24.4281 46.8454 24.1817 47.5267 24.1828C48.2081 24.1839 48.7537 24.4322 49.1635 24.9275C49.5828 25.4135 49.7917 26.0579 49.7904 26.8606C49.7891 27.6632 49.5781 28.3115 49.1573 28.8055C48.7458 29.2902 48.1995 29.5319 47.5181 29.5308ZM53.4346 24.2766L54.5126 24.2783L47.8048 34.0673L46.7268 34.0655L53.4346 24.2766ZM47.5194 28.7328C47.9487 28.7335 48.285 28.5707 48.5282 28.2445C48.7714 27.9089 48.8935 27.4471 48.8944 26.8591C48.8954 26.2711 48.7748 25.8135 48.5326 25.4865C48.2905 25.1501 47.9548 24.9815 47.5255 24.9808C47.1055 24.9801 46.7692 25.1476 46.5166 25.4832C46.2734 25.8188 46.1514 26.2759 46.1504 26.8546C46.1495 27.4332 46.2701 27.8908 46.5122 28.2271C46.7637 28.5636 47.0994 28.7321 47.5194 28.7328ZM53.7127 34.161C53.0313 34.1599 52.4811 33.9163 52.0618 33.4303C51.652 32.935 51.4477 32.286 51.449 31.4833C51.4503 30.6806 51.6566 30.037 52.0681 29.5523C52.4889 29.0583 53.04 28.8119 53.7213 28.813C54.4026 28.8142 54.9529 29.0624 55.3721 29.5578C55.7913 30.0531 56.0003 30.6975 55.999 31.4908C55.9977 32.2841 55.7867 32.9278 55.3659 33.4218C54.9451 33.9157 54.394 34.1622 53.7127 34.161ZM53.714 33.363C54.134 33.3637 54.4656 33.1963 54.7088 32.8607C54.9613 32.5251 55.088 32.068 55.089 31.4893C55.0899 30.9106 54.9646 30.4531 54.7132 30.1167C54.4711 29.7803 54.14 29.6117 53.72 29.611C53.2907 29.6103 52.9544 29.7778 52.7112 30.1134C52.468 30.4396 52.3459 30.8968 52.345 31.4848C52.344 32.0728 52.4646 32.535 52.7067 32.8714C52.9489 33.1984 53.2846 33.3623 53.714 33.363ZM17.9308 41.232L18.7118 41.2333L18.7044 45.8313L22.5728 41.2397L23.2658 41.2408L23.2565 47.0268L22.4755 47.0255L22.4829 42.4275L18.6255 47.0192L17.9215 47.018L17.9308 41.232ZM29.5729 41.9442L27.3839 41.9406L27.3757 47.0336L26.5947 47.0323L26.6029 41.9393L24.414 41.9357L24.4151 41.2427L29.5741 41.2512L29.5729 41.9442ZM34.9011 41.953L32.7121 41.9494L32.7039 47.0424L31.9229 47.0411L31.9311 41.9481L29.7421 41.9445L29.7432 41.2515L34.9022 41.26L34.9011 41.953ZM39.0125 41.2228C39.5551 41.2237 40.0463 41.3492 40.4859 41.5992C40.9255 41.8419 41.2696 42.1872 41.5182 42.6349C41.7668 43.0827 41.8906 43.5925 41.8897 44.1645C41.8888 44.7439 41.7633 45.257 41.5132 45.7039C41.2632 46.1508 40.918 46.4986 40.4776 46.7472C40.0445 46.9885 39.553 47.1087 39.003 47.1078C38.5336 47.107 38.1085 47.011 37.7274 46.8197C37.3538 46.6211 37.0462 46.3346 36.8048 45.9602L36.7996 49.1831L36.0186 49.1819L36.0314 41.2619L36.7794 41.2631L36.7776 42.4071C37.0128 42.0262 37.3213 41.7333 37.703 41.5286C38.092 41.3239 38.5285 41.222 39.0125 41.2228ZM38.9491 46.4147C39.3524 46.4154 39.7192 46.3243 40.0495 46.1415C40.3798 45.9514 40.6369 45.6841 40.8208 45.3398C41.0121 44.9954 41.108 44.6033 41.1087 44.1633C41.1094 43.7233 41.0147 43.3344 40.8246 42.9968C40.6418 42.6518 40.3856 42.3837 40.0559 42.1925C39.7262 42.0013 39.3597 41.9054 38.9564 41.9047C38.5457 41.904 38.1752 41.9987 37.8449 42.1889C37.5219 42.379 37.2648 42.6462 37.0736 42.9906C36.8897 43.3276 36.7974 43.7161 36.7967 44.1561C36.796 44.5961 36.8871 44.9886 37.0698 45.3336C37.2599 45.6786 37.5162 45.9467 37.8385 46.1379C38.1682 46.3217 38.5384 46.414 38.9491 46.4147ZM43.5724 41.2743L44.3534 41.2756L44.346 45.8736L48.2144 41.282L48.9074 41.2831L48.8981 47.0691L48.1171 47.0678L48.1245 42.4698L44.2671 47.0615L43.5631 47.0603L43.5724 41.2743ZM51.1456 41.2868L51.9266 41.2881L51.9192 45.8861L55.7876 41.2945L56.4806 41.2956L56.4713 47.0816L55.6903 47.0803L55.6977 42.4823L51.8403 47.074L51.1363 47.0728L51.1456 41.2868ZM53.776 40.4552C53.2773 40.4543 52.8815 40.329 52.5886 40.0792C52.2957 39.8294 52.1459 39.4771 52.1393 39.0225L52.7003 39.0234C52.7072 39.3094 52.8095 39.5406 53.0072 39.7169C53.2049 39.8859 53.4614 39.9706 53.7768 39.9712C54.0921 39.9717 54.3489 39.8878 54.5472 39.7194C54.7528 39.5438 54.8595 39.3129 54.8673 39.027L55.4283 39.0279C55.4202 39.4825 55.2656 39.8343 54.9646 40.0831C54.6708 40.332 54.2746 40.456 53.776 40.4552Z" fill="white"/>
<path d="M17.9369 212.916C17.3684 211.995 16.9301 210.94 16.6221 209.749C16.314 208.549 16.1611 207.263 16.1633 205.893C16.1656 204.523 16.3227 203.239 16.6346 202.039C16.9466 200.83 17.3883 199.775 17.9598 198.876L19.3248 198.879C18.7231 199.928 18.2813 201.027 17.9994 202.176C17.7175 203.326 17.5755 204.566 17.5733 205.896C17.5712 207.226 17.7091 208.466 17.9873 209.616C18.2654 210.767 18.7036 211.868 19.3019 212.919L17.9369 212.916ZM28.4342 204.578C29.0439 204.749 29.5234 205.06 29.8727 205.511C30.222 205.951 30.3961 206.512 30.3949 207.192C30.3935 208.102 30.0473 208.801 29.3565 209.29C28.6757 209.779 27.6803 210.022 26.3703 210.02L21.3603 210.012L21.3775 199.512L26.0874 199.52C27.2874 199.522 28.2121 199.763 28.8613 200.244C29.5205 200.725 29.8494 201.391 29.848 202.241C29.8471 202.791 29.7163 203.266 29.4557 203.665C29.205 204.065 28.8645 204.369 28.4342 204.578ZM22.8755 200.729L22.87 204.089L25.945 204.094C26.715 204.096 27.3052 203.957 27.7157 203.677C28.1361 203.388 28.3468 202.968 28.3477 202.418C28.3486 201.868 28.1393 201.453 27.7198 201.172C27.3102 200.882 26.7205 200.736 25.9505 200.734L22.8755 200.729ZM26.3123 208.805C27.1623 208.806 27.8025 208.667 28.233 208.388C28.6635 208.109 28.8792 207.669 28.8801 207.069C28.8821 205.899 28.028 205.313 26.318 205.31L22.868 205.304L22.8623 208.799L26.3123 208.805ZM31.6131 212.939C32.2148 211.89 32.6566 210.79 32.9385 209.641C33.2304 208.491 33.3774 207.252 33.3796 205.922C33.3817 204.592 33.2388 203.351 32.9506 202.201C32.6725 201.05 32.2343 199.95 31.636 198.899L33.001 198.901C33.5795 199.802 34.0228 200.853 34.3309 202.053C34.6389 203.254 34.7918 204.544 34.7896 205.924C34.7873 207.294 34.6302 208.579 34.3183 209.778C34.0063 210.978 33.5596 212.032 32.9781 212.941L31.6131 212.939ZM46.0654 207.472L44.0704 207.469L44.0662 210.049L42.6112 210.047L42.6154 207.467L36.7804 207.457L36.7821 206.407L42.1633 199.546L43.7833 199.549L38.6275 206.17L42.6625 206.177L42.6662 203.897L44.0762 203.899L44.0725 206.179L46.0675 206.182L46.0654 207.472ZM48.7942 205.197C48.0642 205.196 47.4746 204.93 47.0255 204.399C46.5764 203.868 46.3525 203.178 46.3539 202.328C46.3553 201.478 46.5814 200.788 47.0322 200.259C47.4831 199.73 48.0735 199.466 48.8035 199.467C49.5335 199.468 50.1181 199.734 50.5572 200.265C51.0064 200.785 51.2303 201.476 51.2289 202.336C51.2275 203.196 51.0013 203.89 50.5505 204.42C50.1096 204.939 49.5242 205.198 48.7942 205.197ZM55.1334 199.567L56.2884 199.569L49.1013 210.057L47.9463 210.055L55.1334 199.567ZM48.7956 204.342C49.2556 204.342 49.6159 204.168 49.8765 203.818C50.137 203.459 50.2678 202.964 50.2689 202.334C50.2699 201.704 50.1407 201.214 49.8813 200.863C49.6219 200.503 49.2621 200.322 48.8021 200.322C48.3521 200.321 47.9919 200.5 47.7213 200.86C47.4607 201.22 47.3299 201.709 47.3289 202.329C47.3279 202.949 47.4571 203.44 47.7165 203.8C47.9859 204.16 48.3456 204.341 48.7956 204.342ZM55.4311 210.158C54.7011 210.156 54.1116 209.895 53.6624 209.375C53.2233 208.844 53.0044 208.149 53.0058 207.289C53.0072 206.429 53.2283 205.739 53.6692 205.22C54.12 204.69 54.7105 204.426 55.4405 204.428C56.1705 204.429 56.76 204.695 57.2092 205.225C57.6583 205.756 57.8822 206.447 57.8808 207.297C57.8794 208.147 57.6533 208.836 57.2024 209.365C56.7516 209.895 56.1611 210.159 55.4311 210.158ZM55.4325 209.303C55.8825 209.303 56.2378 209.124 56.4984 208.764C56.769 208.405 56.9048 207.915 56.9058 207.295C56.9068 206.675 56.7726 206.185 56.5032 205.824C56.2438 205.464 55.8891 205.283 55.4391 205.283C54.9791 205.282 54.6188 205.461 54.3582 205.821C54.0976 206.17 53.9668 206.66 53.9658 207.29C53.9648 207.92 54.094 208.415 54.3534 208.776C54.6128 209.126 54.9725 209.302 55.4325 209.303ZM29.5912 217.382C30.1265 217.383 30.603 217.505 31.0206 217.748C31.4456 217.983 31.775 218.317 32.009 218.75C32.2429 219.176 32.3595 219.664 32.3586 220.214C32.3577 220.779 32.2322 221.281 31.9821 221.72C31.7394 222.153 31.3979 222.489 30.9575 222.731C30.5171 222.972 30.0109 223.092 29.4389 223.091C28.4782 223.09 27.7344 222.751 27.2075 222.076C26.6806 221.4 26.4182 220.468 26.4201 219.28C26.4221 218.041 26.6583 217.092 27.1287 216.432C27.6065 215.773 28.3479 215.327 29.3529 215.094L31.9499 214.504L32.0807 215.219L29.6378 215.776C28.8088 215.958 28.1996 216.284 27.8102 216.752C27.4208 217.214 27.207 217.899 27.1689 218.808C27.4043 218.361 27.7312 218.014 28.1496 217.765C28.568 217.509 29.0485 217.382 29.5912 217.382ZM29.4619 222.442C29.8653 222.443 30.2248 222.352 30.5404 222.169C30.8634 221.979 31.1131 221.715 31.2897 221.378C31.4736 221.041 31.5659 220.66 31.5665 220.235C31.5672 219.809 31.4799 219.435 31.3044 219.112C31.1289 218.789 30.88 218.539 30.5576 218.363C30.2426 218.179 29.8797 218.087 29.469 218.086C29.0584 218.086 28.6916 218.177 28.3686 218.359C28.053 218.535 27.8032 218.784 27.6194 219.106C27.4429 219.429 27.3542 219.802 27.3536 220.228C27.3529 220.653 27.4402 221.035 27.6157 221.372C27.7985 221.71 28.051 221.974 28.3734 222.165C28.6958 222.349 29.0586 222.442 29.4619 222.442ZM36.4149 223.092C35.8575 223.091 35.3554 222.965 34.9085 222.715C34.4616 222.458 34.1101 222.105 33.8542 221.657C33.5983 221.21 33.4708 220.703 33.4717 220.139C33.4726 219.574 33.6018 219.068 33.8592 218.621C34.1166 218.174 34.4691 217.827 34.9169 217.578C35.3646 217.329 35.8671 217.206 36.4245 217.207C36.9818 217.207 37.4839 217.333 37.9309 217.583C38.3778 217.833 38.7255 218.182 38.9742 218.63C39.2301 219.077 39.3576 219.584 39.3567 220.148C39.3558 220.713 39.2266 221.219 38.9692 221.666C38.7191 222.113 38.3702 222.464 37.9225 222.72C37.4747 222.969 36.9722 223.092 36.4149 223.092ZM36.416 222.399C36.8267 222.399 37.1935 222.308 37.5165 222.125C37.8468 221.935 38.1039 221.668 38.2878 221.324C38.4717 220.979 38.564 220.587 38.5647 220.147C38.5654 219.707 38.4744 219.315 38.2916 218.97C38.1088 218.625 37.8526 218.36 37.5229 218.176C37.2005 217.985 36.834 217.889 36.4234 217.889C36.0127 217.888 35.6422 217.983 35.3119 218.173C34.9889 218.356 34.7318 218.619 34.5406 218.963C34.3567 219.308 34.2644 219.7 34.2637 220.14C34.263 220.58 34.354 220.973 34.5368 221.317C34.7269 221.662 34.9831 221.931 35.3055 222.122C35.6352 222.306 36.0053 222.398 36.416 222.399ZM44.0116 217.219C44.5543 217.22 45.0454 217.345 45.485 217.595C45.9246 217.838 46.2687 218.183 46.5173 218.631C46.7659 219.079 46.8898 219.589 46.8888 220.161C46.8879 220.74 46.7624 221.253 46.5123 221.7C46.2623 222.147 45.917 222.495 45.4766 222.743C45.0436 222.985 44.552 223.105 44.002 223.104C43.5327 223.103 43.1075 223.007 42.7265 222.816C42.3528 222.617 42.0453 222.331 41.8039 221.956L41.7986 225.179L41.0176 225.178L41.0306 217.258L41.7786 217.259L41.7767 218.403C42.012 218.022 42.3205 217.73 42.7021 217.525C43.0911 217.32 43.5276 217.218 44.0116 217.219ZM43.9482 222.411C44.3515 222.411 44.7183 222.32 45.0486 222.138C45.3789 221.947 45.636 221.68 45.8199 221.336C46.0111 220.992 46.1071 220.599 46.1078 220.159C46.1085 219.719 46.0138 219.331 45.8237 218.993C45.641 218.648 45.3847 218.38 45.055 218.189C44.7254 217.997 44.3588 217.901 43.9555 217.901C43.5448 217.9 43.1744 217.995 42.844 218.185C42.5211 218.375 42.264 218.642 42.0727 218.987C41.8889 219.324 41.7966 219.712 41.7958 220.152C41.7951 220.592 41.8861 220.985 42.0689 221.33C42.259 221.675 42.5153 221.943 42.8376 222.134C43.1673 222.318 43.5375 222.41 43.9482 222.411Z" fill="white"/>
<path d="M296.255 36.728C295.724 35.8684 295.315 34.8831 295.028 33.7719C294.74 32.6515 294.597 31.4519 294.599 30.1732C294.601 28.8946 294.748 27.6955 295.039 26.576C295.33 25.4471 295.743 24.4631 296.276 23.624L297.55 23.6261C296.988 24.6052 296.576 25.6312 296.313 26.7041C296.05 27.777 295.917 28.9341 295.915 30.1754C295.913 31.4167 296.042 32.5743 296.302 33.6481C296.561 34.7218 296.97 35.7492 297.529 36.7301L296.255 36.728ZM306.002 34.0282L303.893 31.0147C303.631 31.0329 303.426 31.0419 303.277 31.0416L300.855 31.0376L300.85 34.0196L299.45 34.0173L299.466 24.2173L303.288 24.2236C304.557 24.2258 305.555 24.5307 306.282 25.1386C307.009 25.7465 307.372 26.5824 307.37 27.6464C307.369 28.4024 307.181 29.0461 306.807 29.5775C306.433 30.1089 305.9 30.4953 305.209 30.7368L307.528 34.0307L306.002 34.0282ZM303.237 29.8516C304.123 29.853 304.8 29.6628 305.268 29.2809C305.735 28.899 305.969 28.3534 305.97 27.6441C305.971 26.9348 305.739 26.3931 305.273 26.0189C304.807 25.6355 304.13 25.443 303.244 25.4416L300.864 25.4376L300.857 29.8476L303.237 29.8516ZM312.072 26.5482C313.098 26.5499 313.882 26.8032 314.422 27.3081C314.972 27.813 315.246 28.5648 315.245 29.5635L315.238 34.0435L313.964 34.0414L313.965 33.0614C313.741 33.4063 313.418 33.6718 312.998 33.8578C312.587 34.0344 312.097 34.1223 311.527 34.1213C310.697 34.12 310.03 33.9182 309.526 33.516C309.032 33.1139 308.786 32.5861 308.787 31.9328C308.788 31.2795 309.027 30.7572 309.503 30.366C309.98 29.9654 310.736 29.766 311.772 29.7677L313.9 29.7713L313.901 29.5053C313.902 28.9266 313.734 28.483 313.399 28.1744C313.063 27.8659 312.569 27.7111 311.916 27.71C311.477 27.7092 311.048 27.7832 310.627 27.9318C310.207 28.0711 309.852 28.2619 309.562 28.5041L309.004 27.4951C309.387 27.1878 309.845 26.9552 310.377 26.7974C310.909 26.6303 311.474 26.5472 312.072 26.5482ZM311.753 33.0857C312.266 33.0866 312.71 32.9753 313.084 32.7519C313.457 32.5192 313.728 32.193 313.897 31.7733L313.899 30.7373L311.827 30.7338C310.688 30.7319 310.118 31.1137 310.117 31.879C310.116 32.2523 310.261 32.5466 310.55 32.7617C310.839 32.9769 311.24 33.0849 311.753 33.0857ZM316.894 36.7623C317.456 35.7832 317.868 34.7572 318.131 33.6843C318.404 32.6114 318.541 31.4543 318.543 30.213C318.545 28.9716 318.411 27.8141 318.142 26.7403C317.883 25.6665 317.474 24.6392 316.915 23.6583L318.189 23.6604C318.729 24.5013 319.143 25.482 319.431 26.6024C319.718 27.7229 319.861 28.9272 319.859 30.2152C319.857 31.4938 319.71 32.6929 319.419 33.8124C319.128 34.932 318.711 35.9159 318.168 36.7644L316.894 36.7623ZM325.614 28.3767C326.575 28.4716 327.308 28.7715 327.811 29.2764C328.314 29.7719 328.565 30.4069 328.564 31.1816C328.563 31.7416 328.422 32.25 328.141 32.7069C327.861 33.1545 327.44 33.5131 326.88 33.7828C326.329 34.0432 325.652 34.1728 324.849 34.1715C324.149 34.1703 323.477 34.0665 322.833 33.8601C322.19 33.6444 321.663 33.3495 321.253 32.9755L321.899 31.8706C322.234 32.1884 322.663 32.4458 323.185 32.6427C323.708 32.8302 324.263 32.9245 324.851 32.9255C325.579 32.9267 326.144 32.7736 326.546 32.4663C326.957 32.1589 327.163 31.7346 327.164 31.1933C327.165 30.652 326.965 30.2316 326.564 29.9323C326.163 29.633 325.556 29.4826 324.744 29.4813L323.96 29.48L323.962 28.5L326.431 25.4801L321.713 25.4722L321.715 24.2542L328.183 24.265L328.181 25.217L325.614 28.3767ZM331.863 29.5351C331.182 29.534 330.632 29.2857 330.213 28.7903C329.793 28.295 329.584 27.6506 329.586 26.8573C329.587 26.064 329.798 25.4203 330.219 24.9264C330.64 24.4324 331.191 24.186 331.872 24.1871C332.553 24.1882 333.099 24.4365 333.509 24.9318C333.928 25.4178 334.137 26.0622 334.136 26.8649C334.134 27.6675 333.923 28.3158 333.503 28.8098C333.091 29.2945 332.545 29.5362 331.863 29.5351ZM337.78 24.2809L338.858 24.2827L332.15 34.0716L331.072 34.0698L337.78 24.2809ZM331.865 28.7371C332.294 28.7378 332.63 28.575 332.873 28.2488C333.117 27.9132 333.239 27.4514 333.24 26.8634C333.241 26.2754 333.12 25.8178 332.878 25.4908C332.636 25.1544 332.3 24.9858 331.871 24.9851C331.451 24.9844 331.114 25.1518 330.862 25.4874C330.619 25.823 330.497 26.2801 330.496 26.8588C330.495 27.4375 330.615 27.895 330.858 28.2314C331.109 28.5678 331.445 28.7364 331.865 28.7371ZM338.058 34.1654C337.377 34.1642 336.826 33.9207 336.407 33.4346C335.997 32.9393 335.793 32.2903 335.794 31.4876C335.796 30.685 336.002 30.0413 336.413 29.5566C336.834 29.0627 337.385 28.8163 338.067 28.8174C338.748 28.8185 339.298 29.0668 339.717 29.5621C340.137 30.0575 340.346 30.7018 340.344 31.4952C340.343 32.2885 340.132 32.9322 339.711 33.4261C339.29 33.9201 338.739 34.1665 338.058 34.1654ZM338.059 33.3674C338.479 33.3681 338.811 33.2006 339.054 32.865C339.307 32.5295 339.433 32.0723 339.434 31.4937C339.435 30.915 339.31 30.4575 339.058 30.121C338.816 29.7846 338.485 29.6161 338.065 29.6154C337.636 29.6147 337.3 29.7821 337.056 30.1177C336.813 30.444 336.691 30.9011 336.69 31.4891C336.689 32.0771 336.81 32.5393 337.052 32.8757C337.294 33.2028 337.63 33.3667 338.059 33.3674ZM303.023 41.1932C303.566 41.1941 304.057 41.3196 304.496 41.5697C304.936 41.8124 305.28 42.1576 305.529 42.6054C305.777 43.0531 305.901 43.563 305.9 44.135C305.899 44.7143 305.774 45.2275 305.524 45.6744C305.274 46.1213 304.928 46.4691 304.488 46.7177C304.055 46.959 303.564 47.0791 303.014 47.0782C302.544 47.0774 302.119 46.9814 301.738 46.7901C301.364 46.5915 301.057 46.305 300.815 45.9306L300.81 49.1536L300.029 49.1523L300.042 41.2323L300.79 41.2335L300.788 42.3775C301.023 41.9966 301.332 41.7038 301.713 41.4991C302.102 41.2944 302.539 41.1924 303.023 41.1932ZM302.96 46.3851C303.363 46.3858 303.73 46.2947 304.06 46.112C304.39 45.9218 304.647 45.6546 304.831 45.3102C305.023 44.9659 305.119 44.5737 305.119 44.1337C305.12 43.6937 305.025 43.3049 304.835 42.9672C304.652 42.6223 304.396 42.3542 304.066 42.163C303.737 41.9717 303.37 41.8758 302.967 41.8751C302.556 41.8745 302.186 41.9692 301.855 42.1593C301.532 42.3494 301.275 42.6167 301.084 42.961C300.9 43.298 300.808 43.6866 300.807 44.1266C300.807 44.5666 300.898 44.959 301.08 45.304C301.27 45.649 301.527 45.9171 301.849 46.1083C302.179 46.2922 302.549 46.3845 302.96 46.3851ZM309.542 41.2041C310.297 41.2053 310.876 41.3969 311.279 41.7789C311.682 42.1536 311.882 42.7113 311.881 43.4519L311.875 47.0379L311.127 47.0367L311.129 46.1347C310.952 46.4351 310.692 46.6693 310.347 46.8374C310.009 47.0055 309.606 47.0892 309.136 47.0884C308.491 47.0873 307.978 46.9325 307.597 46.6238C307.216 46.3152 307.026 45.9079 307.027 45.4019C307.028 44.9105 307.204 44.5148 307.557 44.2148C307.917 43.9147 308.485 43.7653 309.263 43.7666L311.1 43.7696L311.1 43.4176C311.101 42.919 310.962 42.5411 310.684 42.2839C310.406 42.0195 309.999 41.8868 309.464 41.8859C309.097 41.8853 308.745 41.9471 308.407 42.0712C308.07 42.1879 307.78 42.3525 307.538 42.5647L307.186 41.9811C307.48 41.7323 307.833 41.5422 308.243 41.4109C308.654 41.2722 309.087 41.2033 309.542 41.2041ZM309.258 46.4726C309.698 46.4733 310.076 46.3749 310.392 46.1775C310.707 45.9727 310.943 45.6797 311.097 45.2986L311.099 44.3526L309.284 44.3496C308.294 44.348 307.798 44.6918 307.797 45.3812C307.796 45.7185 307.924 45.9864 308.181 46.1848C308.437 46.3759 308.796 46.4718 309.258 46.4726ZM310.359 38.9944L311.404 38.9961L309.62 40.3572L308.85 40.3559L310.359 38.9944ZM319.599 46.3688L319.595 48.4478L318.858 48.4465L318.86 47.0495L313.679 47.0409L313.677 48.4379L312.94 48.4367L312.944 46.3577L313.274 46.3583C313.662 46.3369 313.927 46.0513 314.067 45.5016C314.207 44.9518 314.304 44.182 314.357 43.192L314.437 41.2562L318.705 41.2633L318.697 46.3673L319.599 46.3688ZM315.072 43.2372C315.034 44.0585 314.963 44.7367 314.859 45.2719C314.756 45.7997 314.572 46.1624 314.308 46.36L317.916 46.366L317.923 41.955L315.14 41.9503L315.072 43.2372ZM321.129 41.2673L321.91 41.2686L321.902 45.8666L325.771 41.275L326.464 41.2761L326.454 47.0621L325.673 47.0608L325.681 42.4628L321.823 47.0544L321.119 47.0533L321.129 41.2673ZM328.702 41.2799L329.483 41.2812L329.476 45.8791L333.344 41.2876L334.037 41.2887L334.028 47.0747L333.247 47.0734L333.254 42.4754L329.397 47.067L328.693 47.0659L328.702 41.2799ZM331.332 40.4482C330.834 40.4474 330.438 40.3221 330.145 40.0723C329.852 39.8224 329.702 39.4702 329.696 39.0155L330.257 39.0164C330.263 39.3024 330.366 39.5336 330.564 39.7099C330.761 39.8789 331.018 39.9637 331.333 39.9642C331.648 39.9647 331.905 39.8808 332.104 39.7125C332.309 39.5368 332.416 39.306 332.424 39.02L332.985 39.021C332.977 39.4756 332.822 39.8274 332.521 40.0762C332.227 40.325 331.831 40.4491 331.332 40.4482Z" fill="white"/>
<path d="M292.563 212.725C292.032 211.865 291.623 210.88 291.335 209.769C291.048 208.649 290.905 207.449 290.907 206.17C290.909 204.892 291.056 203.693 291.347 202.573C291.638 201.444 292.051 200.46 292.584 199.621L293.858 199.623C293.296 200.602 292.884 201.628 292.621 202.701C292.358 203.774 292.225 204.931 292.223 206.172C292.221 207.414 292.35 208.571 292.61 209.645C292.869 210.719 293.278 211.746 293.837 212.727L292.563 212.725ZM297.554 201.435L294.194 201.43L294.196 200.212L302.302 200.225L302.3 201.443L298.94 201.437L298.926 210.019L297.54 210.017L297.554 201.435ZM309.561 206.369C309.561 206.471 309.551 206.607 309.532 206.775L303.512 206.765C303.595 207.418 303.879 207.946 304.364 208.348C304.858 208.741 305.469 208.938 306.197 208.939C307.083 208.941 307.798 208.643 308.34 208.047L309.081 208.916C308.744 209.307 308.324 209.605 307.819 209.81C307.324 210.014 306.769 210.116 306.153 210.115C305.369 210.114 304.674 209.954 304.068 209.636C303.461 209.308 302.991 208.855 302.656 208.275C302.33 207.696 302.168 207.043 302.169 206.315C302.17 205.596 302.33 204.948 302.648 204.369C302.976 203.791 303.42 203.344 303.98 203.028C304.55 202.702 305.19 202.54 305.899 202.541C306.608 202.542 307.238 202.706 307.788 203.034C308.348 203.352 308.781 203.801 309.088 204.38C309.405 204.959 309.562 205.622 309.561 206.369ZM305.897 203.675C305.253 203.674 304.712 203.869 304.272 204.26C303.842 204.651 303.59 205.164 303.514 205.799L308.274 205.807C308.2 205.181 307.944 204.672 307.506 204.279C307.078 203.877 306.541 203.676 305.897 203.675ZM310.591 212.754C311.152 211.775 311.565 210.749 311.828 209.676C312.1 208.604 312.237 207.446 312.239 206.205C312.241 204.964 312.108 203.806 311.839 202.732C311.58 201.659 311.171 200.631 310.612 199.65L311.886 199.653C312.426 200.493 312.84 201.474 313.127 202.595C313.415 203.715 313.558 204.919 313.555 206.207C313.553 207.486 313.407 208.685 313.116 209.805C312.824 210.924 312.408 211.908 311.865 212.757L310.591 212.754ZM318.744 200.14C320.06 200.142 321.072 200.568 321.78 201.419C322.497 202.269 322.854 203.474 322.852 205.032C322.85 206.124 322.653 207.057 322.259 207.831C321.875 208.596 321.333 209.179 320.632 209.579C319.941 209.97 319.133 210.164 318.209 210.163C317.733 210.162 317.286 210.115 316.866 210.021C316.446 209.917 316.082 209.772 315.774 209.585L316.308 208.494C316.784 208.803 317.413 208.958 318.197 208.959C319.215 208.961 320.009 208.649 320.579 208.025C321.159 207.391 321.45 206.472 321.451 205.268L321.452 204.918C321.171 205.338 320.784 205.659 320.288 205.882C319.793 206.096 319.238 206.203 318.622 206.202C317.978 206.2 317.399 206.078 316.887 205.835C316.383 205.591 315.987 205.245 315.698 204.797C315.419 204.339 315.28 203.816 315.281 203.228C315.282 202.612 315.432 202.071 315.731 201.605C316.04 201.139 316.456 200.78 316.979 200.529C317.502 200.268 318.09 200.139 318.744 200.14ZM318.862 205.068C319.3 205.069 319.693 204.985 320.038 204.818C320.384 204.65 320.65 204.422 320.837 204.133C321.034 203.844 321.132 203.522 321.133 203.168C321.133 202.822 321.041 202.509 320.854 202.229C320.678 201.94 320.412 201.71 320.058 201.542C319.713 201.364 319.293 201.275 318.798 201.274C318.154 201.273 317.631 201.445 317.229 201.789C316.837 202.134 316.64 202.596 316.639 203.174C316.638 203.753 316.838 204.215 317.239 204.561C317.639 204.898 318.18 205.067 318.862 205.068ZM327.203 200.266L327.187 210.066L325.801 210.063L325.815 201.481L323.603 201.478L323.605 200.26L327.203 200.266ZM331.466 205.536C330.785 205.535 330.235 205.287 329.816 204.792C329.396 204.296 329.187 203.652 329.189 202.859C329.19 202.065 329.401 201.422 329.822 200.928C330.243 200.434 330.794 200.187 331.475 200.188C332.156 200.19 332.702 200.438 333.112 200.933C333.531 201.419 333.74 202.064 333.739 202.866C333.737 203.669 333.526 204.317 333.105 204.811C332.694 205.296 332.148 205.538 331.466 205.536ZM337.383 200.282L338.461 200.284L331.753 210.073L330.675 210.071L337.383 200.282ZM331.468 204.738C331.897 204.739 332.233 204.576 332.476 204.25C332.72 203.915 332.842 203.453 332.843 202.865C332.844 202.277 332.723 201.819 332.481 201.492C332.239 201.156 331.903 200.987 331.474 200.986C331.054 200.986 330.717 201.153 330.465 201.489C330.222 201.824 330.1 202.282 330.099 202.86C330.098 203.439 330.218 203.896 330.46 204.233C330.712 204.569 331.048 204.738 331.468 204.738ZM337.661 210.167C336.979 210.165 336.429 209.922 336.01 209.436C335.6 208.941 335.396 208.292 335.397 207.489C335.398 206.686 335.605 206.043 336.016 205.558C336.437 205.064 336.988 204.818 337.669 204.819C338.351 204.82 338.901 205.068 339.32 205.563C339.739 206.059 339.948 206.703 339.947 207.496C339.946 208.29 339.735 208.933 339.314 209.427C338.893 209.921 338.342 210.168 337.661 210.167ZM337.662 209.369C338.082 209.369 338.414 209.202 338.657 208.866C338.909 208.531 339.036 208.074 339.037 207.495C339.038 206.916 338.913 206.459 338.661 206.122C338.419 205.786 338.088 205.617 337.668 205.617C337.239 205.616 336.903 205.783 336.659 206.119C336.416 206.445 336.294 206.902 336.293 207.49C336.292 208.078 336.413 208.541 336.655 208.877C336.897 209.204 337.233 209.368 337.662 209.369ZM300.589 217.929L298.4 217.926L298.391 223.019L297.61 223.017L297.619 217.924L295.43 217.921L295.431 217.228L300.59 217.236L300.589 217.929ZM306.505 220.381L301.665 220.373C301.708 220.974 301.939 221.462 302.356 221.837C302.773 222.204 303.301 222.389 303.939 222.39C304.299 222.39 304.629 222.328 304.929 222.204C305.23 222.073 305.491 221.882 305.711 221.633L306.151 222.14C305.893 222.448 305.57 222.682 305.181 222.843C304.8 223.003 304.378 223.083 303.916 223.083C303.322 223.082 302.794 222.956 302.333 222.706C301.878 222.449 301.523 222.096 301.267 221.648C301.011 221.2 300.884 220.694 300.885 220.13C300.886 219.565 301.008 219.059 301.25 218.612C301.5 218.165 301.838 217.817 302.264 217.569C302.697 217.32 303.181 217.196 303.717 217.197C304.252 217.198 304.732 217.324 305.157 217.574C305.582 217.824 305.915 218.172 306.156 218.62C306.398 219.061 306.518 219.567 306.517 220.139L306.505 220.381ZM303.716 217.868C303.158 217.867 302.689 218.046 302.307 218.405C301.932 218.756 301.719 219.218 301.666 219.79L305.769 219.797C305.719 219.224 305.503 218.762 305.123 218.41C304.749 218.05 304.28 217.869 303.716 217.868ZM312.862 217.256L312.853 223.042L312.072 223.041L312.08 217.948L309.308 217.943L309.229 219.373C309.168 220.576 309.027 221.5 308.806 222.145C308.585 222.79 308.192 223.112 307.628 223.111C307.474 223.11 307.287 223.081 307.067 223.022L307.123 222.351C307.255 222.38 307.346 222.395 307.398 222.395C307.698 222.396 307.926 222.257 308.08 221.978C308.235 221.7 308.338 221.355 308.39 220.945C308.442 220.534 308.487 219.992 308.525 219.317L308.627 217.249L312.862 217.256ZM319.812 217.267L319.803 223.053L319.022 223.052L319.03 217.959L316.258 217.955L316.179 219.385C316.118 220.587 315.977 221.511 315.756 222.156C315.535 222.801 315.143 223.123 314.578 223.122C314.424 223.122 314.237 223.092 314.017 223.033L314.073 222.362C314.205 222.392 314.297 222.406 314.348 222.407C314.649 222.407 314.876 222.268 315.031 221.99C315.185 221.711 315.288 221.367 315.34 220.956C315.392 220.546 315.437 220.003 315.475 219.328L315.577 217.261L319.812 217.267ZM326.95 217.279L324.046 223.753C323.81 224.296 323.539 224.68 323.23 224.907C322.922 225.134 322.551 225.247 322.119 225.246C321.84 225.246 321.58 225.201 321.338 225.113C321.096 225.025 320.887 224.892 320.711 224.716L321.075 224.134C321.368 224.427 321.72 224.575 322.131 224.575C322.395 224.576 322.618 224.503 322.802 224.356C322.993 224.21 323.169 223.961 323.331 223.609L323.585 223.049L321.01 217.269L321.824 217.271L323.994 222.191L326.18 217.278L326.95 217.279ZM324.626 215.02L325.671 215.022L323.887 216.383L323.117 216.382L324.626 215.02ZM331.147 217.242C331.69 217.243 332.181 217.368 332.621 217.618C333.06 217.861 333.405 218.206 333.653 218.654C333.902 219.102 334.026 219.612 334.025 220.184C334.024 220.763 333.898 221.276 333.648 221.723C333.398 222.17 333.053 222.518 332.612 222.766C332.179 223.008 331.688 223.128 331.138 223.127C330.669 223.126 330.243 223.03 329.862 222.839C329.489 222.64 329.181 222.354 328.94 221.979L328.934 225.202L328.153 225.201L328.166 217.281L328.914 217.282L328.912 218.426C329.148 218.045 329.456 217.753 329.838 217.548C330.227 217.343 330.663 217.241 331.147 217.242ZM331.084 222.434C331.487 222.435 331.854 222.343 332.184 222.161C332.515 221.971 332.772 221.703 332.956 221.359C333.147 221.015 333.243 220.622 333.244 220.182C333.244 219.742 333.15 219.354 332.96 219.016C332.777 218.671 332.521 218.403 332.191 218.212C331.861 218.02 331.495 217.925 331.091 217.924C330.681 217.923 330.31 218.018 329.98 218.208C329.657 218.398 329.4 218.665 329.209 219.01C329.025 219.347 328.932 219.735 328.932 220.175C328.931 220.615 329.022 221.008 329.205 221.353C329.395 221.698 329.651 221.966 329.973 222.157C330.303 222.341 330.673 222.433 331.084 222.434Z" fill="white"/>
<path d="M249.239 171.899L249.174 211.801L282.113 211.855" stroke="#FFFAFA"/>
<ellipse rx="2.57334" ry="2.55784" transform="matrix(-0.999999 -0.00163199 0.00162983 -0.999999 249.69 211.29)" fill="white"/>
<ellipse rx="2.57334" ry="2.55784" transform="matrix(-0.999999 -0.00163199 0.00162983 -0.999999 280.569 211.341)" fill="white"/>
<ellipse rx="2.57334" ry="2.55784" transform="matrix(-0.999999 -0.00163199 0.00162983 -0.999999 249.75 174.457)" fill="white"/>
<path d="M248.394 77.6546L248.458 37.7523L281.396 37.807" stroke="#FFFAFA"/>
<ellipse rx="2.57332" ry="2.55784" transform="matrix(-0.999999 -0.00166003 -0.00160166 0.999999 248.97 38.2639)" fill="white"/>
<ellipse rx="2.57332" ry="2.55784" transform="matrix(-0.999999 -0.00165548 -0.00160624 0.999999 279.851 38.3148)" fill="white"/>
<ellipse rx="2.57332" ry="2.55784" transform="matrix(-0.999999 -0.00166003 -0.00160166 0.999999 248.912 75.0963)" fill="white"/>
<path d="M101.169 77.4186L101.234 37.5129L68.2954 37.4591" stroke="#FFFAFA"/>
<ellipse rx="2.57332" ry="2.55807" transform="matrix(0.999999 0.00163199 -0.00162983 0.999999 100.719 38.0236)" fill="white"/>
<ellipse rx="2.57332" ry="2.55807" transform="matrix(0.999999 0.00163199 -0.00162983 0.999999 69.8392 37.9723)" fill="white"/>
<ellipse rx="2.57332" ry="2.55807" transform="matrix(0.999999 0.00163199 -0.00162983 0.999999 100.659 74.8597)" fill="white"/>
<path d="M101.017 171.657L100.952 211.56L68.0132 211.506" stroke="#FFFAFA"/>
<ellipse rx="2.57332" ry="2.55784" transform="matrix(0.999999 0.00163199 0.00162983 -0.999999 100.436 211.048)" fill="white"/>
<ellipse rx="2.57332" ry="2.55784" transform="matrix(0.999999 0.00163199 0.00162983 -0.999999 69.557 210.995)" fill="white"/>
<ellipse rx="2.57332" ry="2.55784" transform="matrix(0.999999 0.00163199 0.00162983 -0.999999 100.497 174.215)" fill="white"/>
<path d="M135.403 243.174L135.391 250.594L134.047 250.592L134.057 244.348L129.871 244.341L129.861 250.585L128.517 250.583L128.529 243.163L135.403 243.174ZM144.374 243.189L144.362 250.609L143.018 250.606L143.028 244.362L139.836 244.357L139.749 246.009C139.701 247.008 139.611 247.843 139.479 248.515C139.347 249.177 139.132 249.709 138.832 250.11C138.533 250.51 138.118 250.71 137.586 250.71C137.343 250.709 137.068 250.667 136.76 250.582L136.846 249.448C136.967 249.477 137.079 249.491 137.181 249.491C137.555 249.491 137.835 249.329 138.022 249.002C138.209 248.676 138.331 248.289 138.388 247.841C138.445 247.393 138.497 246.754 138.545 245.923L138.676 243.179L144.374 243.189ZM149.619 243.127C150.645 243.129 151.429 243.382 151.969 243.887C152.519 244.392 152.793 245.144 152.792 246.142L152.784 250.622L151.51 250.62L151.512 249.64C151.287 249.985 150.965 250.251 150.545 250.437C150.134 250.613 149.644 250.701 149.074 250.7C148.244 250.699 147.577 250.497 147.073 250.095C146.579 249.693 146.333 249.165 146.334 248.512C146.335 247.858 146.574 247.336 147.05 246.945C147.527 246.544 148.283 246.345 149.319 246.347L151.447 246.35L151.448 246.084C151.449 245.505 151.281 245.062 150.946 244.753C150.61 244.445 150.116 244.29 149.463 244.289C149.024 244.288 148.595 244.362 148.174 244.511C147.754 244.65 147.399 244.841 147.109 245.083L146.551 244.074C146.934 243.767 147.392 243.534 147.924 243.376C148.457 243.209 149.021 243.126 149.619 243.127ZM149.3 249.665C149.813 249.665 150.257 249.554 150.631 249.331C151.004 249.098 151.275 248.772 151.444 248.352L151.446 247.316L149.374 247.313C148.235 247.311 147.665 247.693 147.664 248.458C147.663 248.831 147.808 249.126 148.097 249.341C148.385 249.556 148.787 249.664 149.3 249.665ZM155.217 243.206L156.561 243.208L156.556 246.358L160.784 246.365L160.789 243.215L162.133 243.218L162.121 250.638L160.777 250.635L160.782 247.527L156.554 247.52L156.549 250.628L155.205 250.626L155.217 243.206ZM171.446 246.985C171.446 247.087 171.436 247.223 171.417 247.391L165.397 247.381C165.48 248.034 165.764 248.562 166.249 248.964C166.743 249.357 167.354 249.554 168.082 249.555C168.968 249.557 169.683 249.259 170.225 248.663L170.966 249.532C170.629 249.923 170.209 250.221 169.704 250.426C169.209 250.63 168.654 250.732 168.038 250.731C167.254 250.73 166.559 250.57 165.952 250.252C165.346 249.924 164.876 249.471 164.541 248.892C164.215 248.312 164.053 247.659 164.054 246.931C164.055 246.212 164.215 245.564 164.533 244.986C164.861 244.407 165.305 243.96 165.865 243.644C166.435 243.318 167.075 243.156 167.784 243.157C168.493 243.158 169.123 243.322 169.673 243.65C170.233 243.968 170.666 244.417 170.973 244.996C171.289 245.575 171.447 246.238 171.446 246.985ZM167.782 244.291C167.138 244.29 166.597 244.485 166.157 244.876C165.727 245.267 165.474 245.78 165.399 246.415L170.159 246.423C170.085 245.797 169.829 245.288 169.391 244.895C168.963 244.493 168.426 244.292 167.782 244.291ZM178.751 244.421L176.035 244.416L176.024 250.66L174.68 250.658L174.691 244.414L171.975 244.41L171.976 243.234L178.752 243.245L178.751 244.421ZM182.773 243.181C183.8 243.183 184.583 243.436 185.124 243.941C185.674 244.446 185.948 245.198 185.946 246.196L185.939 250.676L184.665 250.674L184.666 249.694C184.442 250.039 184.119 250.305 183.699 250.491C183.288 250.667 182.798 250.755 182.229 250.754C181.398 250.753 180.731 250.551 180.228 250.149C179.734 249.747 179.487 249.219 179.488 248.566C179.489 247.913 179.728 247.39 180.205 246.999C180.681 246.599 181.438 246.399 182.474 246.401L184.602 246.404L184.602 246.138C184.603 245.56 184.436 245.116 184.1 244.807C183.765 244.499 183.27 244.344 182.617 244.343C182.178 244.342 181.749 244.416 181.329 244.565C180.908 244.704 180.553 244.895 180.264 245.137L179.705 244.128C180.089 243.821 180.546 243.588 181.078 243.431C181.611 243.263 182.176 243.18 182.773 243.181ZM182.454 249.719C182.968 249.72 183.411 249.608 183.785 249.385C184.158 249.152 184.43 248.826 184.598 248.406L184.6 247.37L182.528 247.367C181.389 247.365 180.819 247.747 180.818 248.512C180.818 248.885 180.962 249.18 181.251 249.395C181.54 249.61 181.941 249.718 182.454 249.719ZM201.373 250.702L201.37 243.562L197.819 249.506L197.175 249.505L193.642 243.591L193.631 250.689L192.287 250.687L192.303 240.887L193.451 240.889L197.527 247.783L201.571 240.902L202.719 240.904L202.717 250.704L201.373 250.702ZM207.914 240.912L207.898 250.712L206.512 250.71L206.526 242.128L204.314 242.124L204.316 240.906L207.914 240.912ZM216.931 249.509L216.929 250.727L209.887 250.716L209.889 249.764L213.885 245.92C214.371 245.454 214.699 245.053 214.867 244.718C215.036 244.373 215.12 244.027 215.121 243.682C215.122 243.169 214.94 242.772 214.577 242.491C214.223 242.201 213.709 242.056 213.037 242.055C211.955 242.053 211.119 242.406 210.53 243.115L209.579 242.287C209.962 241.821 210.462 241.458 211.079 241.197C211.705 240.937 212.4 240.808 213.165 240.809C214.192 240.811 215.008 241.059 215.614 241.555C216.22 242.041 216.522 242.704 216.521 243.544C216.52 244.067 216.407 244.561 216.183 245.028C215.958 245.494 215.532 246.025 214.906 246.622L211.905 249.501L216.931 249.509Z" fill="white"/>
<defs>
<radialGradient id="paint0_radial" cx="0" cy="0" r="1" gradientUnits="userSpaceOnUse" gradientTransform="translate(196.472 224.593) rotate(-90.3873) scale(215.41 215.265)">
<stop stop-color="#C4C4C4"/>
<stop offset="1" stop-color="#C4C4C4" stop-opacity="0"/>
</radialGradient>
</defs>
</svg>
