<svg width="120" height="120" viewBox="0 0 120 120" fill="none" xmlns="http://www.w3.org/2000/svg">
<g filter="url(#filter0_d)">
<ellipse cx="59.8123" cy="58.1578" rx="55.3147" ry="53.0742" fill="#F5D2C5"/>
<path d="M82.8677 10.0908C85.7043 11.5574 89.1297 12.5942 90.1734 14.0963C91.217 15.5984 60.9505 14.597 60.9505 14.597C60.9505 14.597 27.5529 14.597 29.6403 13.095C31.7277 11.5929 37.9897 9.08937 37.9897 9.08937L43.7299 7.08657L51.5575 5.58447C51.5575 5.58447 54.3304 5.08374 56.7758 5.08374H61.9942C64.6435 5.08374 65.6236 5.30056 68.2563 5.58447C70.9581 5.87584 72.4397 6.32483 75.0401 7.08657C78.189 8.00896 79.9694 8.59227 82.8677 10.0908Z" fill="#FCF3F7"/>
<path d="M28.7402 39.4159C20.9175 39.8914 7.65467 41.1336 7.65467 41.1336C7.65467 41.1336 7.13293 39.6833 10.7849 33.3987C14.4368 27.114 14.9585 27.5974 15.4802 27.114L40.8644 29.0659C40.8644 29.0659 56.6007 30.0483 66.6942 30.2835C76.5735 30.5138 91.9968 30.2835 91.9968 30.2835H106.757L108.865 32.7188C108.865 32.7188 98.616 34.8374 91.9968 35.7629C84.4104 36.8237 80.1063 36.8308 72.4927 37.5894C65.6966 38.2666 61.9084 38.9865 55.0971 39.4159C44.8194 40.0638 36.5629 38.9403 28.7402 39.4159Z" fill="#F8E1DF"/>
<path d="M19.6316 35.6344C14.2782 35.9068 8.67301 37.6372 8.67301 37.6372C8.67301 37.6372 7.1879 40.6136 6.58567 42.6355C5.84816 45.1116 5.54199 49.1533 5.54199 49.1533C5.54199 49.1533 20.8086 49.8663 30.5902 49.654C35.2806 49.5521 37.9217 49.5776 42.5924 49.1533C47.9294 48.6684 50.8796 48.0376 56.1602 47.1505C62.3015 46.1187 68.2224 44.758 74.4245 44.1463C81.1143 43.4864 82.3584 43.3802 89.0359 44.1463C94.6326 44.7883 97.603 46.0681 103.126 47.1505C107.394 47.987 114.084 49.1532 114.084 49.1532L112.519 41.1334L108.866 32.1294C108.866 32.1294 105.71 32.1101 104.691 32.1295C99.5607 32.2267 99.3891 32.8494 91.6451 33.6316L71.8153 35.6344C71.8153 35.6344 62.3189 37.3161 56.1602 37.6372C45.7503 38.1799 44.1579 37.6372 35.2867 37.6372C26.4155 37.6372 22.4806 35.4894 19.6316 35.6344Z" fill="#FDF4FD"/>
<path d="M5.54199 47.6428V56.6554C5.54199 56.6554 15.409 56.3589 21.7189 56.6554C29.294 57.0113 33.4521 58.2961 41.0269 58.6582C47.5401 58.9696 51.23 59.2118 57.7257 58.6582C62.865 58.2202 64.2503 57.0465 70.7716 56.6554L87.4704 55.654C93.9917 55.2629 115.128 56.6553 115.128 56.6553C115.128 56.6553 114.842 54.1518 114.724 52.6497C114.606 51.1476 114.477 44.9036 113.04 44.1378C112.519 43.8596 109.855 46.7716 107.822 46.6413C102.15 46.2778 100.354 45.1878 94.7761 44.1379C88.327 42.924 84.6493 42.1101 78.0773 42.1351C71.7075 42.1593 68.4217 42.7691 61.9004 44.1379L45.2016 47.6428C38.6803 49.0115 33.1158 47.6428 25.3718 47.6428H5.54199Z" fill="#EEA9AA"/>
<path d="M5.54058 48.6443C4.49716 54.8287 3.97535 62.6639 5.54056 64.9914C5.54056 64.9914 26.2846 65.3553 37.8944 64.9906C45.4416 64.7535 49.701 64.821 57.2023 63.9892C63.3594 63.3065 72.8575 61.4857 72.8575 61.4857H90.0781C98.4275 61.4857 100.984 63.7174 104.69 64.9906C107.723 66.0329 114.604 67.6701 114.604 67.6701C114.604 67.6701 115.072 64.0157 115.126 61.6617C115.2 58.4592 114.604 53.4745 114.604 53.4745H109.908H93.7309H74.423C68.3093 53.4745 64.8339 52.7439 58.7678 53.4745C52.9319 54.1774 49.9923 56.2765 44.1564 56.9794C38.0903 57.71 34.5418 57.8843 28.5013 56.9794C23.4675 56.2253 21.0315 54.0889 15.9772 53.4745C11.9337 52.983 5.54058 48.6443 5.54058 48.6443Z" fill="#F8DFDD"/>
<path d="M24.4041 62.118H7.01826H5.93164C4.84502 62.118 4.24862 61.6065 5.02042 65.6685C7.01832 76.1832 6.586 73.179 10.8214 72.9522C15.0568 72.7255 12.4778 72.9863 13.538 72.9522C17.4074 72.8279 19.5446 72.2629 23.3175 71.4748C26.9812 70.7096 32.5538 69.0125 32.5538 69.0125C32.5538 69.0125 36.1894 68.6241 38.5302 68.5201C41.2851 68.3976 42.8349 68.5201 45.5932 68.5201C50.8975 68.5201 55.0469 71.5383 59.1759 68.5201C59.8766 68.0079 63.4662 67.6713 63.4662 67.6713C63.4662 67.6713 67.2869 68.7081 70.2501 68.5201C75.6463 68.1777 75.404 67.9162 82.7742 67.0427C90.1445 66.1692 88.5201 63.5954 92.861 63.5954C96.342 63.5954 99.0922 66.4187 102.082 67.6713C106.595 69.5618 110.91 75.1733 111.997 74.6811C113.084 74.1888 114.606 67.6218 114.606 64.6671C114.606 61.7123 108.866 61.6256 105.357 61.6256C101.848 61.6256 100.39 59.8247 97.2075 58.6708C94.0248 57.5169 90.1445 58.6708 90.1445 58.6708C90.1445 58.6708 87.4279 59.6557 84.7114 59.6557C81.9948 59.6557 80.7235 59.412 78.1917 59.6557C74.2501 60.0351 68.4121 62.118 68.4121 62.118H52.1129H35.2703H24.4041Z" fill="#F2BDB6"/>
<path d="M15.26 70.2149C12.476 70.3579 6.58447 72.1769 6.58447 72.1769C8.14998 78.7076 9.71549 80.2063 12.8465 85.202C12.8465 85.202 20.1686 80.8288 22.3048 80.2063C26.0491 79.1153 27.1951 77.6982 31.1108 77.209C34.9936 76.7239 38.347 77.8973 42.2651 77.7085C45.9274 77.532 48.0003 77.4736 51.6581 77.7085C54.8912 77.9161 56.7267 78.0555 59.8771 78.7076C64.1794 79.5982 66.2919 80.8965 70.4443 82.2046C74.3203 83.4257 76.4561 84.2188 80.4244 85.202C83.1472 85.8767 84.6465 86.4692 87.4692 86.7008C89.2949 86.8505 90.3358 86.5952 92.1657 86.7008C95.6648 86.9026 103.124 89.7014 103.124 89.7014C107.299 85.202 108.343 85.202 110.952 78.7076H100.972C94.5524 78.7076 90.8617 79.627 84.5339 78.7076C78.8166 77.877 75.8934 76.4017 70.4443 74.7111C66.2843 73.4204 64.0649 70.9389 59.8771 69.7153C50.9366 67.103 45.8316 65.7562 36.3944 66.2184C33.3839 66.3658 31.69 66.6019 28.7625 67.2175C24.9593 68.0173 25.0273 69.3707 21.1307 69.7154C19.5344 69.8566 16.8619 70.1327 15.26 70.2149Z" fill="#F4CAC5"/>
<path d="M71.2925 72.6767C69.93 71.6515 68.2876 72.0705 67.3498 70.6739C66.494 69.3995 66.5998 68.3509 65.6103 67.169C64.122 65.3912 60.3919 64.1648 60.3919 64.1648H54.5938L57.7248 68.6711C57.7248 68.6711 63.1668 73.5501 67.3498 75.6094C70.3545 77.0886 72.2112 77.6103 75.4672 78.4705C79.6695 79.5807 82.1352 79.904 86.4838 80.1872C89.6466 80.3932 94.6013 80.1872 94.6013 80.1872H102.139H109.908C111.474 77.183 111.474 77.183 112.518 73.8927L112.518 73.8927H107.357C107.357 73.8927 102.603 75.1802 99.4717 75.6094C96.3407 76.0385 94.383 75.6094 91.1223 75.6094C87.273 75.6094 85.1038 75.8879 81.2654 75.6094C76.9192 75.2939 74.7223 75.2574 71.2925 72.6767Z" fill="#F2BDB9"/>
<path d="M83.5414 69.1726C82.1273 69.1726 79.8155 69.1728 78.7809 69.7673C77.7462 70.3619 67.0686 68.5234 71.1914 69.7672C75.3143 71.0109 80.0784 72.4883 80.9549 72.7402C81.9348 73.0218 82.5313 72.7402 83.5414 72.7402H86.6452H90.7836H93.8874H96.4739C97.686 72.7402 98.3899 73.0179 99.5777 72.7402C100.644 72.491 104.129 73.8402 104.646 72.7402C105.03 71.9231 102.811 70.3244 102.164 69.7672C101.68 69.3492 101.218 69.1726 100.612 69.1726H96.4739H92.8528H88.1971H83.5414Z" stroke="#F9E3DF" stroke-width="2"/>
<path d="M84.0395 70.6117C81.4145 70.8327 75.2228 68.6453 76.7509 70.6117C77.561 71.6541 78.6601 71.7866 80.0639 72.2395C83.1937 73.2491 85.3137 72.2395 88.6776 72.2395H95.9661C98.5537 72.2395 102.386 74.3516 102.592 72.2395C102.712 71.0079 101.877 70.1899 100.604 69.5265C99.0762 68.7302 97.7775 69.5265 95.9661 69.5265C93.8961 69.5265 92.7277 69.3797 90.6654 69.5265C88.0365 69.7137 86.6645 70.3907 84.0395 70.6117Z" fill="#F6ABA4"/>
<path d="M11.8032 84.4782C14.8634 90.3918 18.9555 95.4885 23.0357 98.7142C23.0357 98.7142 31.0778 93.8876 36.8514 93.7072C43.2347 93.5077 46.7418 96.2088 53.1273 96.3054C58.3207 96.384 65.878 95.5835 71.4883 98.7142C77.0986 101.845 83.6355 98.4076 92.3994 100.717C98.0097 96.4162 100.533 94.8033 105.663 88.1327C105.663 88.1327 96.162 85.3215 92.3994 84.4782C87.5288 83.3866 85.0252 83.9773 80.1587 82.8654C76.8324 82.1054 74.6297 82.6333 71.4883 81.2526C67.2123 79.3733 65.2219 77.2555 60.7777 75.8766C56.9135 74.6777 54.5942 74.5778 50.5771 74.2638C46.6045 73.9532 43.8501 73.1885 39.8666 73.1885C35.6838 73.1885 33.673 72.9993 29.666 74.2638C26.8488 75.1528 25.5699 76.4543 23.0357 78.027C19.3225 80.3312 11.8032 84.4782 11.8032 84.4782Z" fill="#F9E3DF"/>
<path d="M80.1647 6.58584L73.3809 5.08374C73.3809 5.08374 79.719 12.51 83.2958 17.6012C86.6167 22.3284 88.6259 24.946 91.1233 30.1187C93.4802 35.0003 94.5751 37.8913 95.8198 43.1369C97.364 49.6444 97.4902 53.4875 97.3854 60.1607C97.2958 65.8609 97.0801 69.11 95.8198 74.681C94.5896 80.1194 93.5607 83.1502 91.1233 88.1999C87.1311 96.471 77.0337 107.227 77.0337 107.227C77.0337 107.227 87.8731 103.379 93.7325 99.2153C101.995 93.3449 106.172 88.6659 110.431 79.688C112.89 74.5057 113.696 71.2952 114.606 65.6684C115.731 58.7124 115.857 54.5794 114.606 47.6432C113.507 41.5504 112.263 38.1558 109.388 32.6222C106.638 27.332 104.651 24.4877 100.516 20.1047C96.7341 16.0949 94.3131 13.9957 89.5578 11.0921C86.0978 8.97949 80.1647 6.58584 80.1647 6.58584Z" fill="#BF8C8E" fill-opacity="0.37"/>
<ellipse rx="26.6326" ry="33.8786" transform="matrix(0.896236 0.443577 -0.473514 0.880786 46.4956 41.7294)" fill="white" fill-opacity="0.41"/>
<ellipse rx="15.7749" ry="19.7019" transform="matrix(0.89175 0.452529 -0.482733 0.875767 49.993 31.4776)" fill="white" fill-opacity="0.41"/>
<ellipse rx="10.7048" ry="12.6553" transform="matrix(0.89175 0.452529 -0.482733 0.875767 49.3768 25.016)" fill="white" fill-opacity="0.41"/>
</g>
<defs>
<filter id="filter0_d" x="0.497559" y="5.08362" width="119" height="114.148" filterUnits="userSpaceOnUse" color-interpolation-filters="sRGB">
<feFlood flood-opacity="0" result="BackgroundImageFix"/>
<feColorMatrix in="SourceAlpha" type="matrix" values="0 0 0 0 0 0 0 0 0 0 0 0 0 0 0 0 0 0 127 0"/>
<feOffset dy="4"/>
<feGaussianBlur stdDeviation="2"/>
<feColorMatrix type="matrix" values="0 0 0 0 0 0 0 0 0 0 0 0 0 0 0 0 0 0 0.25 0"/>
<feBlend mode="normal" in2="BackgroundImageFix" result="effect1_dropShadow"/>
<feBlend mode="normal" in="SourceGraphic" in2="effect1_dropShadow" result="shape"/>
</filter>
</defs>
</svg>
