<svg width="81" height="120" viewBox="0 0 81 120" fill="none" xmlns="http://www.w3.org/2000/svg">
<g filter="url(#filter0_d)">
<path d="M67.806 102.686C68.8317 102.525 70.3249 101.503 70.3249 101.503C70.7075 102.369 71.2718 103.15 71.6543 104.016C72.0369 104.882 72.0167 105.078 72.424 105.791C72.904 106.631 73.3572 107.047 73.5435 108.008C73.675 108.687 73.6742 109.104 73.5435 109.783C73.4262 110.392 73.2622 110.824 72.8438 111.261C72.1058 112.033 71.2536 111.752 70.3249 111.261C69.0655 110.596 68.6857 110.222 67.806 109.339C66.76 108.289 66.1642 107.685 65.1472 106.604C64.2147 105.612 63.6813 105.52 62.9082 104.386C62.5793 103.904 62.3121 103.27 62.2085 102.686C62.0492 101.788 62.9082 99.8025 62.9082 99.8025C62.9082 99.8025 64.4475 101.577 65.497 102.316C66.2246 102.828 66.9411 102.821 67.806 102.686Z" fill="#8FBAE1"/>
<path d="M62.7964 100.763C62.7964 100.763 62.8441 101.516 62.7964 101.946C62.7439 102.419 62.4388 102.586 62.5165 103.055C62.5629 103.335 62.6797 103.464 62.7964 103.721C62.9713 104.105 63.0138 104.367 63.2862 104.682C63.5523 104.989 63.7888 105.057 64.1258 105.273C64.5754 105.561 64.8314 105.722 65.3153 105.938C65.6098 106.07 65.8299 106.03 66.085 106.234C66.3509 106.447 66.367 106.698 66.5747 106.973C67.1049 107.677 67.5513 107.925 68.184 108.526C68.6733 108.991 68.7164 108.983 69.2336 109.413C69.5919 109.711 70.4283 110.547 70.4231 110.3C70.4178 110.054 70.5263 110.226 70.4231 110.004C70.208 109.543 69.9448 109.381 69.6534 108.969C69.3128 108.488 68.9519 108.295 68.8138 107.713C68.7209 107.321 68.7501 107.076 68.8138 106.678C68.8612 106.38 68.9029 106.211 69.0237 105.938C69.1488 105.655 69.2514 105.51 69.4435 105.273C69.7597 104.882 69.9783 104.668 70.4231 104.46C70.7321 104.315 71.6125 104.164 71.6125 104.164L70.2831 101.798C70.2831 101.798 69.1077 102.833 68.5339 102.833C67.9601 102.833 67.6384 103.055 67.0645 103.055C66.4907 103.055 65.7571 102.729 64.9654 102.168C64.1925 101.62 63.0063 100.024 63.0063 100.024L62.7964 100.763Z" fill="#6CA6D8"/>
<path d="M49.4536 79.1026L53.7917 77.9198L58.2698 76.1455L62.3065 74.5191C62.3065 74.5191 64.8421 72.9727 65.8265 72.0055C66.8838 70.9667 67.108 70.0206 67.6457 68.6049C68.5323 66.2702 68.6252 62.2471 68.6252 62.2471C68.6252 62.2471 68.406 57.8875 67.6457 54.8543C66.8854 51.8211 66.2948 49.3837 66.2948 49.3837C66.2948 49.3837 65.2732 45.8367 63.7274 44.0609C62.8242 43.0233 60.9286 42.4344 60.9286 42.4344C60.9286 42.4344 59.15 45.9165 57.4301 47.6094C52.5385 52.4242 47.1059 51.3396 40.4975 50.2708C33.8891 49.202 35.844 49.4454 34.3887 49.014C31.5551 48.174 29.7222 46.4265 29.7222 46.4265C29.7222 46.4265 29.952 53.6534 30.4219 58.255C30.7237 61.2102 30.6625 62.9276 31.4015 65.7956C32.3329 69.4105 33.1067 71.4796 35.1798 74.5191C36.1537 75.9469 36.5908 76.9465 37.9786 77.9198C40.0597 79.3792 41.7858 78.8951 44.2759 79.1026C46.2916 79.2705 47.4501 79.3911 49.4536 79.1026Z" fill="#94CAE4"/>
<path d="M50.3068 78.5025L54.0987 77.4392L58.013 75.8442L61.5415 74.3821C61.5415 74.3821 63.7578 72.992 64.6183 72.1226C65.5425 71.1887 65.7385 70.3382 66.2085 69.0655C66.9835 66.9668 67.0647 63.3501 67.0647 63.3501C67.0647 63.3501 66.873 59.431 66.2085 56.7043C65.5439 53.9776 65.0276 51.7864 65.0276 51.7864C65.0276 51.7864 64.1347 48.5978 62.7835 47.0014C61.994 46.0687 60.3371 45.5394 60.3371 45.5394C60.3371 45.5394 58.7824 48.6696 57.279 50.1914C53.0033 54.5197 48.2546 53.5447 42.4782 52.5839C36.7018 51.6231 38.5998 52.0632 37.3277 51.6754C34.8508 50.9203 33.0595 49.1281 33.0595 49.1281C33.0595 49.1281 33.2604 55.6247 33.6711 59.7614C33.9349 62.418 33.8814 63.9619 34.5274 66.5401C35.3416 69.7898 36.0179 71.6498 37.83 74.3821C38.6813 75.6656 39.0634 76.5643 40.2765 77.4392C42.0955 78.7512 43.6043 78.316 45.7809 78.5025C47.5429 78.6535 48.5555 78.7619 50.3068 78.5025Z" fill="#B0E0EA"/>
<path d="M69.5632 70.3791C69.0445 69.3626 67.8839 68.0134 67.8839 68.0134L61.7266 73.4841C61.7266 73.4841 56.8283 77.1246 53.1903 77.9197C50.2469 78.5631 45.4937 77.9197 45.4937 77.9197L37.1177 77.1805C37.1177 77.1805 35.8266 80.1657 35.558 82.6511C35.4154 83.9706 35.2454 84.7655 35.558 86.0518C35.924 87.5577 36.5736 88.2595 37.5172 89.4525C38.2858 90.4242 38.8963 91.6752 39.7562 92.5574C40.477 93.2969 40.8953 93.2558 41.6454 93.9621C43.0492 95.284 43.4646 95.3334 44.9339 96.2206C46.4788 97.1533 48.1964 96.7062 49.412 95.3334C49.9964 94.6735 50.6832 94.4507 50.9513 93.5924C51.5337 91.7282 50.9513 88.5653 50.9513 88.5653L53.1903 84.1297C53.1903 84.1297 54.3081 82.7432 55.2894 82.6511C56.9486 82.4954 56.9771 84.7406 58.0882 86.0518C59.4811 87.6955 60.9185 88.1573 61.7266 90.1917C62.636 92.4812 61.2063 94.1283 61.7266 96.5495L61.7445 96.633C62.0708 98.1523 62.2735 99.096 63.126 100.394C63.9644 101.67 64.5285 102.568 65.9248 103.055C67.0145 103.436 67.7934 103.493 68.8635 103.055C69.6993 102.713 70.3204 102.443 70.6827 101.577C72.0121 98.3977 73.0617 96.5495 74.1812 93.5924C74.993 91.448 74.4918 89.9644 74.1812 87.6782C73.8569 85.2913 73.4977 83.9337 72.5019 81.764C72.2031 81.113 71.9423 80.7978 71.6623 80.1376C70.9521 78.463 71.0673 77.3435 70.6827 75.5541C70.2482 73.5325 70.4943 72.2038 69.5632 70.3791Z" fill="url(#paint0_linear)"/>
<path d="M64.1289 60.7686C64.1289 60.7686 65.9153 65.9093 64.1289 65.6479C63.0947 65.4965 62.8627 64.5509 62.1698 63.7257C60.0924 61.2523 59.81 59.1713 58.8112 56.0373C58.1979 54.1126 57.5457 52.4887 57.8986 51.7495C58.2515 51.0102 58.237 50.2715 58.8112 50.123C59.9767 49.8218 60.7704 50.1231 61.4701 51.7495C62.1698 53.3758 64.1289 60.7686 64.1289 60.7686Z" fill="white" fill-opacity="0.8"/>
<ellipse rx="1.04954" ry="0.96106" transform="matrix(-1 0 0 1 59.2979 49.162)" fill="white"/>
<ellipse rx="11.6517" ry="12.2337" transform="matrix(-0.999987 -0.0050536 -0.00452694 0.99999 50.5997 64.0419)" fill="#349EC8"/>
<ellipse rx="10.4678" ry="11.0252" transform="matrix(-0.999987 -0.0050536 -0.00452694 0.99999 50.5298 64.0103)" fill="url(#paint1_angular)"/>
<ellipse rx="0.419817" ry="0.443566" transform="matrix(-1 0 0 1 53.2106 54.8543)" fill="white"/>
<ellipse rx="0.839634" ry="0.739277" transform="matrix(-1 0 0 1 55.4497 56.6286)" fill="white"/>
<ellipse rx="1.46936" ry="1.18284" transform="matrix(-1 0 0 1 55.3798 56.6287)" fill="url(#paint2_radial)"/>
<path d="M30.5403 46.9505L30.8901 62.4754C30.8901 62.4754 28.8492 62.1684 27.6016 61.7361C25.5687 61.0317 24.498 60.3387 22.7737 59.0007C21.5263 58.0328 19.835 56.1915 19.835 56.1915C19.835 56.1915 18.1366 54.7068 16.1965 53.2344C14.2565 51.762 14.6381 52.2672 12.6981 50.7948C12.6981 50.7948 10.6355 48.7992 10.2491 47.9116C9.93856 47.1981 9.89929 46.433 9.33953 45.7677C9.158 45.5519 8.63984 45.472 8.63984 45.472L7.10051 45.0284C7.10051 45.0284 4.37192 44.5265 4.09182 43.1063C4.01378 42.7106 3.93159 42.4383 4.09182 42.0713C4.34284 41.4963 5.49121 41.406 5.49121 41.406C5.49121 41.406 4.79471 38.1485 5.07139 36.0832C5.23026 34.8973 5.07468 34.0085 5.84106 33.1261C6.24071 32.6659 6.51171 32.2942 7.10051 32.2389C7.78258 32.1749 8.17704 32.5928 8.63984 33.1261C9.22383 33.7989 9.06629 34.4778 9.33953 35.3439C9.69476 36.4698 9.849 37.1181 10.2491 38.2271C10.598 39.1941 10.4585 39.7316 11.2287 40.371C13.1879 41.9974 17.526 42.8106 17.526 42.8106C20.477 43.7344 21.9917 44.3263 24.9427 45.2502C24.9427 45.2502 27.0544 45.0957 28.2313 45.472C29.2405 45.7947 30.5403 46.9505 30.5403 46.9505Z" fill="url(#paint3_linear)"/>
<path d="M67.6 67.8656L69.5835 70.164C69.5835 70.164 66.2395 74.3555 63.7746 76.3179C61.0156 78.5143 59.5763 79.0984 56.2655 80.1733C53.5709 81.0481 51.5832 81.1977 48.6147 81.6561C45.6463 82.1145 43.6085 82.2856 40.6097 82.1751C38.4356 82.095 35.7183 81.6561 35.7183 81.6561L37.1177 77.2076C37.1177 77.2076 41.5243 77.6746 44.3643 77.949C46.9136 78.1953 48.6384 78.3818 51.165 77.949C53.9071 77.4792 55.6136 76.9922 58.1782 75.873C60.5871 74.8217 61.8187 74.4193 63.7746 72.6107C65.5107 71.0054 67.6 67.8656 67.6 67.8656Z" fill="#1D669F" fill-opacity="0.48"/>
<ellipse rx="0.646666" ry="1.58619" transform="matrix(-0.709813 0.70439 0.664385 0.747391 64.4613 80.7436)" fill="white"/>
<ellipse rx="0.838948" ry="2.06836" transform="matrix(-0.936738 -0.350031 -0.317418 0.948286 44.8051 86.5133)" fill="white"/>
<path d="M70.2831 99.5806C70.2437 99.2353 68.8578 99.1935 68.6128 98.9589C68.1044 98.4722 67.5381 98.9589 66.8494 98.9589C66.2667 98.9589 65.9045 99.1687 65.3573 98.9589C64.4666 98.6175 64.3135 97.8082 63.933 96.898C63.6056 96.1148 63.6048 95.607 63.4582 94.766L63.4455 94.6932C63.2283 93.4474 63.1002 92.7126 63.1191 91.4258C63.1359 90.2796 64.0024 89.5065 63.4582 88.5121C63.2623 88.1541 63.0529 88.0277 62.78 87.7303C62.0648 86.9513 61.6045 86.5759 60.8131 85.8826C59.9148 85.0957 59.3136 84.7796 58.4392 83.9638C57.53 83.1154 58.071 83.3852 57.1288 82.5772C56.1793 81.763 55.7694 81.6186 54.8199 81.6186C53.8704 81.6186 52.3418 82.472 51.2499 83.9638C50.326 85.226 49.7859 85.9493 48.6048 86.9486L48.5972 86.955C47.5379 87.8512 46.9051 88.3866 45.6205 88.8674C44.3365 89.348 43.524 89.4195 42.1615 89.3649C40.7232 89.3073 39.8813 89.1264 38.5668 88.5121C37.3322 87.9351 35.7182 86.4511 35.7182 86.4511C35.7182 86.4511 36.1374 87.4562 36.5578 88.1957C37.1521 89.2411 37.8725 89.734 38.5668 90.7093C38.8875 91.1597 38.9045 91.559 39.3129 91.9233C40.0858 92.6129 41.4201 92.5669 42.4353 92.5575C43.9263 92.5436 44.2288 91.9865 45.6205 91.4258C46.505 91.0694 47.0025 90.8397 47.7909 90.2887C48.8509 89.548 50.1145 89.5619 50.9015 88.5121C51.8457 87.2526 52.7907 84.6472 52.7907 84.6472C52.7907 84.6472 53.8875 82.9501 54.8199 82.7251C55.1812 82.6379 55.5074 82.6409 55.8694 82.7251C56.8209 82.9463 56.779 83.6122 57.1288 84.3515C57.7513 85.6668 57.7196 85.5665 58.6682 86.6433C59.5202 87.6104 61.3621 88.6667 61.537 89.97C61.6354 90.7033 62.1926 91.1896 62.0967 91.9233C61.9529 93.0231 61.8168 93.4173 61.8168 94.3317C61.8168 95.2189 61.537 95.5146 61.537 96.3278C61.537 96.3278 61.748 97.6632 62.0967 98.3238C62.4332 98.9613 62.6067 99.6796 63.1191 100.172C63.6228 100.656 63.3198 100.49 63.933 100.807C65.1091 101.414 65.9701 101.57 67.2563 101.304C67.807 101.19 68.2319 101.239 68.6128 100.807C68.6128 100.807 70.3338 100.026 70.2831 99.5806Z" fill="#6AA5C6" fill-opacity="0.5"/>
<path d="M42.407 92.4382C44.534 92.1879 47.8926 90.2658 47.8926 90.2658C47.8926 90.2658 46.4404 91.75 45.4436 92.4382C44.1064 93.3615 43.1003 94.1824 41.5393 93.786C40.2542 93.4597 38.9365 91.5397 38.9365 91.5397C38.9365 91.5397 41.0185 92.6016 42.407 92.4382Z" fill="#349FC9"/>
<ellipse rx="0.838948" ry="3.38347" transform="matrix(-0.936738 -0.350031 -0.317418 0.948286 68.5632 96.6781)" fill="white"/>
<path d="M35.7183 54.8544C35.7183 56.1851 36.8148 56.1851 38.1673 56.1851C39.5198 56.1851 40.6162 56.1851 40.6162 54.8544C40.6162 53.5237 39.5198 53.5237 38.1673 53.5237C36.8148 53.5237 35.7183 53.5237 35.7183 54.8544Z" fill="#781F6F"/>
<path d="M36.1378 54.7066C36.1378 55.8894 37.0776 55.8894 38.2369 55.8894C39.3961 55.8894 40.3359 55.8894 40.3359 54.7066C40.3359 53.5237 39.3961 53.5237 38.2369 53.5237C37.0776 53.5237 36.1378 53.5237 36.1378 54.7066Z" fill="#D785CA"/>
<ellipse rx="4.19817" ry="4.65745" transform="matrix(-1 0 0 1 72.8021 88.6394)" fill="#359FC9"/>
<ellipse rx="3.14863" ry="3.62246" transform="matrix(-1 0 0 1 73.4317 87.9001)" fill="#6AD6CE"/>
<path d="M71.4336 85.9797C70.9668 86.9198 70.8936 87.851 71.27 88.0596C71.6465 88.2683 71.27 88.0596 72.7967 86.7353C73.2635 85.7952 73.3367 84.864 72.9603 84.6554C72.5838 84.4467 71.9003 85.0397 71.4336 85.9797Z" fill="url(#paint4_linear)"/>
<path d="M51.4363 94.7753C51.052 94.3325 50.2468 93.8882 50.2468 93.8882L49.827 94.7753L48.7775 95.8103L46.3285 96.6235C46.3285 96.6235 46.1173 96.7817 45.6539 96.4757C45.0941 96.106 44.7582 96.1319 44.3944 96.1799C44.1011 96.2187 43.4848 96.7714 43.4848 96.7714C43.4848 96.7714 42.5708 97.211 42.1304 97.7324C41.4957 98.4839 40.6556 99.213 40.4511 100.468C40.363 101.008 40.263 101.141 40.4511 101.872C40.5888 102.408 40.8672 102.654 41.2907 102.981C41.7372 103.327 42.0671 103.481 42.6202 103.499C43.2247 103.519 44.0895 102.981 44.0895 102.981L46.9583 101.059C48.0786 100.309 48.0921 100.332 48.7775 99.8024C49.7323 99.0652 50.3756 98.7309 51.0865 97.7324C51.5715 97.0511 52.2277 96.6455 52.066 95.8103C52.066 95.8103 51.7437 95.1295 51.4363 94.7753Z" fill="#9BCCE4"/>
<path d="M51.2789 96.7714C51.2011 97.164 50.7891 97.6586 50.7891 97.6586C50.7891 97.6586 51.0621 97.5017 51.2089 97.3629C51.4126 97.1703 51.6893 96.902 51.7861 96.6975C51.856 96.5497 52.0349 96.2857 52.0658 96.1061C52.1049 95.8788 52.0658 95.7364 51.9959 95.5886C51.9348 95.4595 51.9317 95.413 51.8559 95.2929C51.716 95.0711 51.6354 95.0231 51.4888 94.8493C51.3325 94.6639 50.999 94.4797 50.999 94.4797C50.999 94.4797 51.2056 94.7777 51.2789 94.9972C51.4153 95.4055 51.2789 95.673 51.2789 96.1061C51.2789 96.3659 51.3293 96.5171 51.2789 96.7714Z" fill="white" fill-opacity="0.59"/>
<path d="M43.4693 97.8072C43.7606 98.1285 43.9796 98.2532 44.3521 98.4583C45.3152 98.9882 47.1011 98.8668 47.1011 98.8668C47.1011 98.8668 46.8512 99.2938 46.6611 99.5433C46.4011 99.8846 46.1694 99.9939 45.9141 100.339C45.6635 100.678 44.9332 101.589 44.9332 101.589C44.9332 101.589 43.9146 102.747 45.0691 102.168C46.2235 101.589 46.801 100.637 47.6118 99.8327C48.1472 99.3016 48.97 98.4583 48.97 98.4583L49.9886 97.2285C50.3864 96.7482 50.7736 96.5953 50.9394 95.9987C51.0598 95.5653 51.1991 95.1987 50.9394 94.8413L50.2468 93.8882C50.2468 93.8882 49.7889 94.8544 49.4771 95.145C48.8874 95.6946 48.5432 95.9062 47.8155 96.2157C47.1611 96.4941 46.8198 96.8023 46.1178 96.8668C45.3353 96.9387 45.0991 96.5496 44.3521 96.5496C43.6052 96.5496 43.219 96.7786 43.3335 97.3453C43.4066 97.707 43.2851 97.604 43.4693 97.8072Z" fill="#71ACD8"/>
<path d="M69.3044 81.2296C70.0764 80.55 71.3325 79.2507 71.3325 79.2507L71.5431 79.8859C71.5431 79.8859 71.3292 80.1005 71.1934 80.2392C70.6635 80.7804 70.4867 81.2224 69.8648 81.6526C69.1655 82.1363 67.8356 82.4313 67.8356 82.4313C67.8356 82.4313 68.7479 81.7194 69.3044 81.2296Z" fill="#6AA5C6"/>
<path d="M72.3822 105.939C72.3822 105.939 71.7525 104.904 71.6125 104.904C71.4726 104.904 71.0646 104.529 70.9828 104.534C70.5773 104.558 70.339 104.662 70.0032 104.904C69.6012 105.193 69.3889 105.451 69.2336 105.939C69.0852 106.404 69.2336 107.195 69.2336 107.195C69.2336 107.195 69.4045 107.845 69.5834 108.23C69.8338 108.77 70.0628 109.022 70.4231 109.487C70.4231 109.487 70.7873 110.181 71.1927 110.374C71.6161 110.576 71.9588 110.576 72.3822 110.374C72.7876 110.181 72.9257 109.892 73.1519 109.487C73.3584 109.117 73.5017 108.881 73.5017 108.452C73.5017 108.023 73.3123 107.811 73.1519 107.417C72.9055 106.812 72.3822 105.939 72.3822 105.939Z" fill="#97CBE3"/>
<ellipse rx="0.730909" ry="0.141686" transform="matrix(-0.444912 -0.895574 -0.874517 0.484996 72.9127 107.771)" fill="white"/>
<path d="M31.1701 54.7065C31.4121 57.8443 30.9281 59.5528 31.1701 62.6906L29.7008 62.2471C29.7008 62.2471 29.3863 59.4977 29.1802 57.3095C29.0426 55.8487 28.7984 55.2273 28.9736 53.7711C29.1156 52.5917 29.4556 52.0757 29.8687 50.1591C30.1387 48.9065 30.6803 47.1658 30.6803 47.1658C30.6803 47.1658 31.131 49.9438 31.0302 51.6015C30.9586 52.7793 31.1701 54.7065 31.1701 54.7065Z" fill="#3265B6"/>
<path d="M22.846 54.1397C21.9982 55.1043 20.5051 56.4986 20.5051 56.4986C20.0211 55.7501 19.6893 55.8985 19.2054 55.15L17.1314 53.55C17.1314 53.55 19.3034 53.169 20.1608 52.8128C21.1252 52.4123 21.6829 52.3494 22.5706 51.7808C23.5177 51.1742 24.1726 50.6046 24.7049 49.5694C25.0848 48.8307 25.1328 48.6242 25.3219 47.8117L25.3246 47.8002C25.4952 47.067 25.5311 45.4413 25.9442 45.515C26.3573 45.5888 25.9442 46.7857 25.9442 47.5054C25.9442 47.5054 25.9345 48.9403 25.6688 49.7905C25.4434 50.5118 25.2283 50.8473 24.8426 51.486C24.1678 52.6035 23.6978 53.1705 22.846 54.1397Z" fill="#3265B6"/>
<path d="M9.48901 44.3356C9.57785 44.9291 9.89941 45.8351 9.89941 45.8351C9.25411 45.6912 9.07591 45.5888 8.2497 45.515C8.2497 45.515 7.98075 45.0522 7.83661 44.5568C7.68468 44.0345 7.60926 43.6946 7.6989 43.1562C7.81723 42.4454 7.90539 42.1131 8.38741 41.6082C8.97099 40.9969 9.60463 40.8363 10.3841 40.5762C10.8144 40.4325 11.8988 40.5761 11.8988 40.5761L12.6982 41.0298C12.6982 41.0298 11.7785 41.195 11.4857 41.2396C10.6363 41.3689 9.99021 41.6608 9.62671 42.4928C9.3419 43.1446 9.38264 43.625 9.48901 44.3356Z" fill="#3265B6"/>
<path d="M69.2756 10.8474C69.0945 11.6946 68.7158 12.9913 68.7158 12.9913L68.5059 13.6567C68.5059 13.6567 68.5854 14.9254 68.7158 15.7267C68.8687 16.6651 69.0939 17.1596 69.2756 18.0923C69.4929 19.2082 69.6078 19.8401 69.6954 20.9755C69.7953 22.2704 69.6954 23.0031 69.6954 24.3023C69.6954 25.3705 69.675 25.9696 69.6954 27.0376C69.7335 29.0326 69.9322 30.1437 69.9753 32.1386L69.9769 32.2124C70.004 33.4655 70.0197 34.1918 69.9753 35.4654C69.9329 36.6802 69.8918 37.362 69.7654 38.5703C69.6775 39.4104 69.6262 39.8822 69.4855 40.7142C69.2629 42.0308 69.1139 42.7714 68.7158 44.041C68.2464 45.538 68.193 46.5824 67.1765 47.7374C66.7667 48.203 66.98 49.2092 66.4347 48.9401C66.0908 48.7704 65.9292 48.082 65.735 47.7374C64.9364 46.3198 64.6973 45.1297 63.3282 44.3367C62.775 44.0163 62.3065 43.3956 62.3065 43.3956C62.3065 43.3956 62.8129 41.3287 63.3282 39.6792C64.6421 35.4738 65.2244 32.9447 65.2174 28.5161C65.2141 26.459 65.0288 25.3098 64.7976 23.2673C64.5478 21.0617 64.5605 19.7769 63.9579 17.6488C63.6655 16.6161 63.0378 16.1392 63.0483 15.0613C63.06 13.8595 64.2378 12.252 64.2378 12.252C64.2378 12.252 63.758 10.8415 63.3982 9.96029C62.8656 8.65626 61.9288 7.0771 61.8588 6.70747C61.7889 6.33784 61.8289 6.19517 61.9288 5.89426L61.9344 5.87731C62.042 5.55313 62.1238 5.30658 62.4186 5.15499C62.6888 5.016 62.9001 5.06449 63.1883 5.15499C63.508 5.25541 63.6445 5.43159 63.8879 5.67248C64.1871 5.9685 64.5177 6.55961 64.5177 6.55961C64.5177 6.55961 64.6772 4.67759 65.0075 3.52858C65.338 2.37857 65.367 1.54118 66.1969 0.719325C66.5122 0.407172 66.6876 0.165484 67.1065 0.0539755C67.398 -0.0236011 67.5822 -0.0121554 67.8762 0.0539755C68.4323 0.179075 68.6498 0.531438 69.0657 0.941108C69.3346 1.20598 69.5121 1.34369 69.6954 1.68039C70.0384 2.31054 69.8581 2.80335 69.9053 3.52858C69.969 4.50787 69.9569 5.06203 69.9053 6.04212C69.8611 6.88254 69.7992 7.35148 69.6954 8.18602C69.5655 9.23072 69.4953 9.81964 69.2756 10.8474Z" fill="#B0E0EA"/>
<path d="M67.6245 47.2398C67.6245 47.2398 66.7848 48.8663 66.365 49.162C65.9452 49.4577 65.1988 46.3398 64.196 45.2438C63.442 44.4198 62.1242 43.475 62.1242 43.475L62.614 42.2183C62.614 42.2183 63.0992 43.0032 63.4263 43.3217C64.251 44.1245 64.7123 44.5758 65.5254 45.3917C66.3521 46.2212 67.6245 47.2398 67.6245 47.2398Z" fill="#265595"/>
<path d="M69.7236 29.719C69.7236 29.719 69.9333 30.6061 69.9333 31.1975C69.9333 32.5667 67.2746 29.4233 67.2746 29.4233L65.2455 28.2404V27.4272L69.7236 28.2404V29.719Z" fill="#265595"/>
<path d="M66.6449 12.9374C67.3603 13.542 68.8839 12.346 68.8839 12.346L68.604 14.1202C68.604 14.1202 67.2042 14.3797 66.365 14.1202C65.316 13.7958 64.126 12.346 64.126 12.346L63.4963 10.3499C63.4963 10.3499 65.2455 11.7545 66.6449 12.9374Z" fill="#265595"/>
<ellipse rx="22.1803" ry="23.9526" transform="matrix(-1 0 0 1 44.7442 28.3881)" fill="#91CAE2"/>
<ellipse rx="21.6206" ry="22.1044" transform="matrix(-1 0 0 1 45.0242 26.5399)" fill="#B4E5EB"/>
<path d="M42.0395 53.3678C42.0395 53.3678 47.4067 53.7954 50.7157 53.3678C54.3602 52.8969 57.4779 52.3553 60.3715 49.9672C62.7366 48.0151 62.9294 47.4334 64.2198 44.5704C66.4549 39.6113 66.7295 36.3041 67.0186 30.8199C67.1175 28.9426 66.684 26.0577 66.6471 24.9727C66.6472 24.7784 66.6446 24.7236 66.6446 24.8397C66.6446 24.8804 66.6455 24.9248 66.6471 24.9727C66.6465 26.3864 66.5059 35.1813 64.2198 39.2476C62.9119 41.574 61.8282 42.6526 60.0216 44.5704C57.8841 46.8394 56.0547 48.5748 53.2346 49.7454C49.3163 51.3718 46.8673 50.9282 42.3893 51.3718C39.8687 51.6214 38.5203 50.197 35.998 49.9672C34.5824 49.8382 30.9602 48.1269 30.9602 48.1269C30.9602 48.1269 33.9032 50.3578 35.998 51.3718C38.2454 52.4596 42.0395 53.3678 42.0395 53.3678Z" fill="#67A3D5"/>
<ellipse rx="21.2188" ry="15.8176" transform="matrix(-0.978425 0.206603 0.185857 0.982577 44.9032 27.7623)" fill="#13215D"/>
<ellipse rx="19.3211" ry="14.5156" transform="matrix(-0.978425 0.206603 0.185857 0.982577 45.7423 27.865)" fill="url(#paint5_linear)"/>
<path d="M52.6265 38.7961C54.4699 38.3054 55.5421 38.0636 57.2445 37.1697C59.5152 35.9772 61.1428 35.3429 62.4222 33.0297C63.439 31.1912 63.7598 29.185 63.8459 27.0576C63.9526 24.4209 64.1505 23.7076 63.1462 21.2912C61.8997 18.2921 60.7215 17.7478 58.0841 16.0263C55.6252 14.4213 53.8313 13.2677 50.9472 13.0692C47.8002 12.8526 44.2547 13.2112 41.4313 14.6956C39.8065 15.5499 38.7073 16.4955 37.3071 17.7L37.2575 17.7427C34.8594 19.8055 34.1596 19.8491 32.6152 22.6798C30.993 25.6533 30.061 27.9124 30.796 31.2554C31.1665 32.9409 31.5906 33.8977 32.6152 35.2475C34.2396 37.3875 35.9027 37.8884 38.3527 38.7961C40.4977 39.5908 41.8206 39.6994 44.0902 39.8311C47.4406 40.0254 49.3726 39.6622 52.6265 38.7961Z" fill="url(#paint6_linear)"/>
<ellipse rx="2.64998" ry="2.75331" transform="matrix(-1 0 0 1 39.7853 22.2343)" fill="#F5D2C5"/>
<path d="M38.6809 19.7408C38.545 19.8169 38.3809 19.8707 38.3309 19.9486C38.2809 20.0265 39.7309 19.9746 39.7309 19.9746C39.7309 19.9746 41.3309 19.9746 41.2309 19.8967C41.1309 19.8188 40.8309 19.6889 40.8309 19.6889L40.5559 19.585L40.1809 19.5071C40.1809 19.5071 40.048 19.4811 39.9309 19.4811H39.6809C39.5539 19.4811 39.507 19.4923 39.3809 19.5071C39.2514 19.5222 39.1804 19.5455 39.0559 19.585C38.905 19.6328 38.8197 19.6631 38.6809 19.7408Z" fill="#FCF3F7"/>
<path d="M41.274 21.2621C41.6488 21.2867 42.2842 21.3512 42.2842 21.3512C42.2842 21.3512 42.3092 21.276 42.1342 20.9499C41.9593 20.6239 41.9343 20.649 41.9093 20.6239L40.6932 20.7252C40.6932 20.7252 39.9393 20.7761 39.4557 20.7883C38.9824 20.8003 38.2436 20.7883 38.2436 20.7883H37.5364L37.4354 20.9147C37.4354 20.9147 37.9264 21.0246 38.2436 21.0726C38.607 21.1276 38.8132 21.128 39.1779 21.1673C39.5035 21.2025 39.685 21.2398 40.0113 21.2621C40.5037 21.2957 40.8992 21.2374 41.274 21.2621Z" fill="#F8E1DF"/>
<path d="M41.7103 21.0659C41.9667 21.08 42.2353 21.1698 42.2353 21.1698C42.2353 21.1698 42.3064 21.3242 42.3353 21.4291C42.3706 21.5575 42.3853 21.7672 42.3853 21.7672C42.3853 21.7672 41.6539 21.8042 41.1853 21.7932C40.9606 21.7879 40.834 21.7892 40.6103 21.7672C40.3546 21.742 40.2132 21.7093 39.9603 21.6633C39.6661 21.6098 39.3824 21.5392 39.0853 21.5074C38.7648 21.4732 38.7052 21.4677 38.3853 21.5074C38.1172 21.5408 37.9749 21.6071 37.7103 21.6633C37.5058 21.7067 37.1853 21.7672 37.1853 21.7672L37.2603 21.3511L37.4353 20.884C37.4353 20.884 37.5865 20.8831 37.6353 20.8841C37.8811 20.8891 37.8893 20.9214 38.2603 20.962L39.2103 21.0659C39.2103 21.0659 39.6652 21.1531 39.9603 21.1698C40.459 21.1979 40.5353 21.1698 40.9603 21.1698C41.3853 21.1698 41.5738 21.0584 41.7103 21.0659Z" fill="#FDF4FD"/>
<path d="M42.3853 21.6888V22.1564C42.3853 22.1564 41.9126 22.141 41.6103 22.1564C41.2474 22.1748 41.0482 22.2415 40.6853 22.2603C40.3732 22.2764 40.1965 22.289 39.8853 22.2603C39.6391 22.2375 39.5727 22.1767 39.2603 22.1564L38.4603 22.1044C38.1479 22.0841 37.1353 22.1564 37.1353 22.1564C37.1353 22.1564 37.149 22.0265 37.1546 21.9486C37.1603 21.8706 37.1665 21.5467 37.2353 21.507C37.2603 21.4926 37.3879 21.6436 37.4853 21.6369C37.757 21.618 37.8431 21.5615 38.1103 21.507C38.4192 21.444 38.5954 21.4018 38.9103 21.4031C39.2154 21.4044 39.3729 21.436 39.6853 21.507L40.4853 21.6888C40.7977 21.7598 41.0643 21.6888 41.4353 21.6888H42.3853Z" fill="#EEA9AA"/>
<path d="M42.3855 21.7408C42.4355 22.0617 42.4605 22.4681 42.3855 22.5889C42.3855 22.5889 41.3917 22.6078 40.8356 22.5888C40.474 22.5765 40.2699 22.58 39.9106 22.5369C39.6156 22.5015 39.1606 22.407 39.1606 22.407H38.3356C37.9356 22.407 37.8131 22.5228 37.6356 22.5888C37.4902 22.6429 37.1606 22.7278 37.1606 22.7278C37.1606 22.7278 37.1382 22.5383 37.1356 22.4161C37.132 22.25 37.1606 21.9914 37.1606 21.9914H37.3856H38.1606H39.0856C39.3785 21.9914 39.5449 21.9535 39.8356 21.9914C40.1151 22.0279 40.256 22.1368 40.5356 22.1732C40.8262 22.2111 40.9962 22.2202 41.2855 22.1732C41.5267 22.1341 41.6434 22.0233 41.8855 21.9914C42.0793 21.9659 42.3855 21.7408 42.3855 21.7408Z" fill="#F8DFDD"/>
<path d="M41.4826 22.4398H42.3155H42.3676C42.4196 22.4398 42.4482 22.4133 42.4112 22.624C42.3155 23.1695 42.3362 23.0136 42.1333 23.0019C41.9304 22.9901 42.054 23.0036 42.0032 23.0019C41.8178 22.9954 41.7154 22.9661 41.5347 22.9252C41.3591 22.8855 41.0922 22.7975 41.0922 22.7975C41.0922 22.7975 40.918 22.7773 40.8059 22.7719C40.6739 22.7656 40.5996 22.7719 40.4675 22.7719C40.2134 22.7719 40.0146 22.9285 39.8168 22.7719C39.7832 22.7454 39.6112 22.7279 39.6112 22.7279C39.6112 22.7279 39.4282 22.7817 39.2862 22.7719C39.0277 22.7542 39.0393 22.7406 38.6863 22.6953C38.3332 22.65 38.411 22.5165 38.203 22.5165C38.0363 22.5165 37.9045 22.6629 37.7613 22.7279C37.5451 22.826 37.3383 23.1171 37.2863 23.0915C37.2342 23.066 37.1613 22.7253 37.1613 22.572C37.1613 22.4188 37.4363 22.4143 37.6044 22.4143C37.7725 22.4143 37.8423 22.3208 37.9948 22.261C38.1473 22.2011 38.3332 22.261 38.3332 22.261C38.3332 22.261 38.4633 22.3121 38.5934 22.3121C38.7236 22.3121 38.7845 22.2994 38.9058 22.3121C39.0946 22.3318 39.3743 22.4398 39.3743 22.4398H40.1552H40.962H41.4826Z" fill="#F2BDB6"/>
<path d="M41.9196 22.8599C42.053 22.8673 42.3352 22.9617 42.3352 22.9617C42.2602 23.3004 42.1852 23.3782 42.0352 23.6374C42.0352 23.6374 41.6844 23.4105 41.5821 23.3782C41.4027 23.3216 41.3478 23.2481 41.1602 23.2227C40.9742 23.1975 40.8135 23.2584 40.6258 23.2486C40.4504 23.2395 40.3511 23.2364 40.1758 23.2486C40.021 23.2594 39.933 23.2666 39.7821 23.3004C39.576 23.3466 39.4748 23.414 39.2758 23.4819C39.0902 23.5452 38.9878 23.5863 38.7977 23.6374C38.6673 23.6723 38.5955 23.7031 38.4602 23.7151C38.3728 23.7229 38.3229 23.7096 38.2352 23.7151C38.0676 23.7256 37.7102 23.8708 37.7102 23.8708C37.5102 23.6374 37.4602 23.6374 37.3352 23.3004H37.8134C38.1209 23.3004 38.2977 23.3481 38.6009 23.3004C38.8748 23.2574 39.0148 23.1808 39.2758 23.0931C39.4751 23.0262 39.5815 22.8974 39.7821 22.8339C40.2104 22.6984 40.455 22.6286 40.9071 22.6525C41.0513 22.6602 41.1325 22.6724 41.2727 22.7044C41.4549 22.7459 41.4517 22.8161 41.6383 22.834C41.7148 22.8413 41.8428 22.8556 41.9196 22.8599Z" fill="#F4CAC5"/>
<path d="M39.2354 22.9875C39.3007 22.9343 39.3794 22.9561 39.4243 22.8836C39.4653 22.8175 39.4602 22.7631 39.5076 22.7018C39.5789 22.6096 39.7576 22.546 39.7576 22.546H40.0354L39.8854 22.7797C39.8854 22.7797 39.6247 23.0328 39.4243 23.1397C39.2803 23.2164 39.1914 23.2435 39.0354 23.2881C38.8341 23.3457 38.716 23.3625 38.5076 23.3771C38.3561 23.3878 38.1187 23.3771 38.1187 23.3771H37.7576H37.3854C37.3104 23.2213 37.3104 23.2213 37.2604 23.0506L37.2604 23.0506H37.5076C37.5076 23.0506 37.7354 23.1174 37.8854 23.1397C38.0354 23.1619 38.1292 23.1397 38.2854 23.1397C38.4698 23.1397 38.5737 23.1541 38.7576 23.1397C38.9658 23.1233 39.0711 23.1214 39.2354 22.9875Z" fill="#F2BDB9"/>
<path d="M38.6486 22.8057C38.7163 22.8057 38.8271 22.8057 38.8767 22.8366C38.9262 22.8674 39.4378 22.772 39.2403 22.8366C39.0427 22.9011 38.8145 22.9777 38.7725 22.9908C38.7256 23.0054 38.697 22.9908 38.6486 22.9908H38.4999H38.3016H38.1529H38.029C37.971 22.9908 37.9372 23.0052 37.8803 22.9908C37.8293 22.9779 37.6623 23.0479 37.6375 22.9908C37.6191 22.9484 37.7254 22.8655 37.7564 22.8366C37.7796 22.8149 37.8017 22.8057 37.8308 22.8057H38.029H38.2025H38.4256H38.6486Z" stroke="#F9E3DF" stroke-width="2"/>
<path d="M38.6247 22.8804C38.7505 22.8918 39.0471 22.7784 38.9739 22.8804C38.9351 22.9345 38.8824 22.9413 38.8152 22.9648C38.6652 23.0172 38.5637 22.9648 38.4025 22.9648H38.0533C37.9294 22.9648 37.7458 23.0744 37.7359 22.9648C37.7301 22.9009 37.7702 22.8585 37.8311 22.8241C37.9043 22.7828 37.9666 22.8241 38.0533 22.8241C38.1525 22.8241 38.2085 22.8165 38.3073 22.8241C38.4332 22.8338 38.499 22.8689 38.6247 22.8804Z" fill="#F6ABA4"/>
<path d="M42.0852 23.5997C41.9386 23.9065 41.7426 24.1709 41.5471 24.3382C41.5471 24.3382 41.1618 24.0878 40.8852 24.0784C40.5794 24.0681 40.4114 24.2082 40.1055 24.2132C39.8567 24.2173 39.4946 24.1758 39.2259 24.3382C38.9571 24.5006 38.6439 24.3223 38.2241 24.4421C37.9553 24.219 37.8344 24.1353 37.5886 23.7893C37.5886 23.7893 38.0438 23.6434 38.2241 23.5997C38.4574 23.543 38.5773 23.5737 38.8105 23.516C38.9698 23.4766 39.0754 23.504 39.2259 23.4323C39.4307 23.3349 39.5261 23.225 39.739 23.1535C39.9241 23.0913 40.0352 23.0861 40.2276 23.0698C40.418 23.0537 40.5499 23.014 40.7408 23.014C40.9411 23.014 41.0375 23.0042 41.2294 23.0698C41.3644 23.1159 41.4257 23.1834 41.5471 23.265C41.725 23.3845 42.0852 23.5997 42.0852 23.5997Z" fill="#F9E3DF"/>
<path d="M38.8103 19.559L39.1353 19.4811C39.1353 19.4811 38.8316 19.8663 38.6603 20.1304C38.5012 20.3757 38.4049 20.5115 38.2853 20.7798C38.1723 21.033 38.1199 21.183 38.0603 21.4551C37.9863 21.7927 37.9802 21.9921 37.9853 22.3383C37.9896 22.634 37.9999 22.8025 38.0603 23.0915C38.1192 23.3737 38.1685 23.5309 38.2853 23.7929C38.4765 24.2219 38.9603 24.7799 38.9603 24.7799C38.9603 24.7799 38.441 24.5803 38.1603 24.3643C37.7644 24.0598 37.5643 23.817 37.3603 23.3513C37.2425 23.0825 37.2039 22.9159 37.1603 22.624C37.1064 22.2632 37.1003 22.0487 37.1603 21.6889C37.2129 21.3728 37.2725 21.1967 37.4103 20.9097C37.542 20.6352 37.6372 20.4877 37.8353 20.2603C38.0165 20.0523 38.1324 19.9434 38.3603 19.7928C38.526 19.6832 38.8103 19.559 38.8103 19.559Z" fill="#BF8C8E" fill-opacity="0.37"/>
<ellipse rx="1.29738" ry="1.72827" transform="matrix(-0.881397 0.472376 0.444682 0.895688 40.4234 21.3821)" fill="white" fill-opacity="0.41"/>
<ellipse rx="0.76897" ry="1.00439" transform="matrix(-0.876399 0.481586 0.453645 0.891182 40.2558 20.8503)" fill="white" fill-opacity="0.41"/>
<ellipse rx="0.521822" ry="0.645158" transform="matrix(-0.876399 0.481586 0.453645 0.891182 40.2855 20.515)" fill="white" fill-opacity="0.41"/>
<path d="M61.2736 29.545L63.5662 31.1076L61.4885 31.4797C60.5571 31.4797 58.3505 31.8517 57.8347 31.8517C57.3189 31.8517 55.4705 32.9679 54.5391 33.5632C54.5391 33.5632 53.0249 32.4361 52.0316 31.8517C50.8517 31.1576 50.157 30.6513 48.8076 30.5123C47.5077 30.3784 46.6431 30.4288 45.512 31.1076C44.604 31.6526 44.219 32.9544 43.2911 32.5214C42.9477 32.3612 42.5746 31.8517 42.5746 31.8517C42.5746 31.8517 41.1487 30.2315 39.9955 29.545C38.7212 28.7864 37.8512 28.6657 36.4133 28.3544C35.3364 28.1212 33.6192 27.9823 33.6192 27.9823C33.6192 27.9823 38.5626 25.6011 39.9955 25.6012C41.4284 25.6012 40.7619 25.9168 41.2134 26.1965C42.0815 26.7341 43.6493 28.3544 43.6493 28.3544C43.6493 28.3544 45.2926 27.0434 46.515 26.5685C47.5583 26.1633 47.7041 25.4436 48.8076 25.6012C49.9734 25.7676 50.4941 26.4633 51.4584 27.1638C53.1614 28.4008 55.1122 31.1076 55.1122 31.1076L56.2585 30.5123C56.2585 30.5123 57.7078 28.9607 58.9093 28.8753C60.086 28.7916 61.2736 29.545 61.2736 29.545Z" fill="url(#paint7_linear)"/>
<path d="M39.3763 28.8099C40.8134 29.6756 42.8019 31.4981 42.8019 31.4981L43.8505 31.9725C43.8505 31.9725 45.2707 30.3965 46.4372 29.9959C47.5866 29.6011 48.375 29.5616 49.5132 29.9959C50.41 30.3381 50.7047 30.9958 51.5406 31.4981C52.6016 32.1357 54.4068 32.7631 54.4068 32.7631C54.4068 32.7631 55.2864 32.242 55.8749 31.9725C57.2067 31.3624 58.0038 30.9844 59.4403 30.9446C60.6294 30.9117 63.2161 31.1235 63.2161 31.1235L62.5863 32.7631C62.5863 32.7631 61.3269 35.2635 58.5981 36.5202C55.8693 37.777 54.7567 38.5143 52.9305 39.0092C51.1044 39.5041 47.3236 39.5589 45.2487 39.4045L39.9356 39.0092C37.8607 38.8548 37.8624 38.6641 36.1605 37.8509C34.4586 37.0377 33.8994 36.7605 33.0146 35.6331C32.1298 34.5057 31.0026 32.8985 30.7775 31.4981C30.6114 30.4652 30.3392 29.7353 30.7775 28.8099C31.2573 27.797 32.0421 27.6405 33.0146 27.3077C34.1905 26.9052 34.9531 27.0509 36.1605 27.3077C37.4959 27.5916 38.1771 28.0875 39.3763 28.8099Z" fill="url(#paint8_linear)"/>
<g filter="url(#filter1_d)">
<ellipse rx="2.09404" ry="2.30046" transform="matrix(-1 0 0 1 43.1401 36.1419)" fill="#A99A95"/>
<path d="M41.1509 35.4901L44.1523 34.1412C43.8559 33.9699 43.6336 33.9057 43.2816 33.8414L41.5585 34.6551C41.3732 34.912 41.2621 35.1261 41.1509 35.4901Z" fill="#BAA393"/>
<path d="M41.154 35.427C41.1 35.6401 41.081 35.7776 41.0635 35.9502L44.606 34.5126C44.4621 34.3576 44.372 34.2644 44.1562 34.1481L41.154 35.427Z" fill="#C9C0BB"/>
<path d="M43.739 35.9929C44.2404 35.7625 44.8907 35.3219 44.9431 35.2261C44.9954 35.1302 45.0303 35.2261 45.0303 35.2261C45.0303 35.2261 45.1276 35.5722 45.1525 35.8012C45.1791 36.0465 45.1525 36.4338 45.1525 36.4338C45.1525 36.4338 44.7812 36.6345 44.5417 36.7597C44.1893 36.9439 43.9948 37.0556 43.6343 37.2198C43.1863 37.4238 42.9279 37.5204 42.4651 37.6799C42.2079 37.7685 41.802 37.8908 41.802 37.8908C41.4181 37.4307 41.2785 37.2198 41.1215 36.7597C41.1215 36.7597 41.3665 36.7034 41.5228 36.6639C41.9142 36.5648 42.13 36.4926 42.5175 36.3763C42.9961 36.2327 43.2813 36.2032 43.739 35.9929Z" fill="#B8A191"/>
<path d="M45.2156 36.4486C45.1607 36.6951 45.1782 36.752 45.0684 36.9795L42.27 38.1739C42.0505 38.0412 41.9957 38.0223 41.8128 37.8896L45.2156 36.4486Z" fill="#978675"/>
<path d="M45.0593 36.947C45.0593 37.0812 45.007 37.1962 44.8611 37.3928L42.8068 38.3656C42.5814 38.3272 42.4992 38.2791 42.3022 38.2237L45.0593 36.947Z" fill="#D5CDCA"/>
<path d="M43.9657 36.3761C44.0611 36.2785 44.2386 36.2065 44.1731 36.0707C44.1273 35.9758 44.049 36.063 43.9657 36.0707C43.8693 36.0797 43.8286 36.1797 43.741 36.2352C43.6124 36.3167 43.5325 36.3435 43.4126 36.4466C43.303 36.5408 43.0846 36.5791 43.1534 36.7285C43.1763 36.7783 43.2007 36.7033 43.2398 36.7285C43.3129 36.7758 43.3678 36.7504 43.4472 36.7285C43.5507 36.6999 43.5774 36.6518 43.6719 36.5876C43.7799 36.5142 43.8692 36.4749 43.9657 36.3761Z" fill="#BFB4AE"/>
<ellipse rx="0.944523" ry="1.08251" transform="matrix(-0.477502 0.878631 0.836188 0.548442 43.4537 34.9867)" fill="white" fill-opacity="0.37"/>
<ellipse rx="0.610058" ry="0.700468" transform="matrix(-0.477502 0.878631 0.836188 0.548442 43.4497 34.685)" fill="white" fill-opacity="0.37"/>
<ellipse rx="0.374679" ry="0.518287" transform="matrix(-0.477502 0.878631 0.836188 0.548442 43.409 34.4549)" fill="white" fill-opacity="0.37"/>
<path d="M41.4998 34.6658C41.6265 34.4984 41.8837 34.3015 41.8837 34.3015C41.8837 34.3015 41.7803 34.579 41.7267 34.7616C41.6703 34.9534 41.6336 35.061 41.6045 35.26C41.5603 35.5631 41.5663 35.742 41.6045 36.046C41.6323 36.2673 41.6584 36.3916 41.7267 36.602C41.7953 36.8133 41.8569 36.9219 41.9535 37.1196C42.0243 37.2644 42.055 37.3529 42.1455 37.4838C42.2126 37.5809 42.2589 37.6278 42.3374 37.7139C42.4709 37.8601 42.5589 37.9267 42.7039 38.0589C42.8718 38.212 43.175 38.4423 43.175 38.4423C43.175 38.4423 42.8713 38.4263 42.7039 38.3848C42.521 38.3396 42.4137 38.3246 42.2502 38.2123C42.0866 38.1 42.0822 38.1329 41.9186 38.0206C41.7551 37.9083 41.546 37.6849 41.4126 37.4838C41.2869 37.2944 41.2405 37.1676 41.1683 36.947C41.0972 36.73 41.0655 36.6016 41.0461 36.3719C41.0247 36.118 41.0379 35.9707 41.081 35.7201C41.1194 35.4968 41.1376 35.3724 41.2206 35.1642C41.3027 34.9583 41.369 34.8386 41.4998 34.6658Z" fill="#76685B" fill-opacity="0.48"/>
</g>
<path d="M59.3679 25.9525V28.9096C59.3679 28.9096 58.5794 26.4163 57.7586 24.9915C57.2136 24.0453 56.8303 23.5607 56.1616 22.7152L56.1493 22.6997C55.2696 21.5874 54.7527 20.9685 53.7004 20.0383C52.7818 19.2264 51.1815 18.1901 51.1815 18.1901C51.1815 18.1901 51.5296 17.7006 51.8112 17.4508C52.8886 16.4954 54.114 16.2848 55.3797 16.9334C56.0065 17.2546 56.2508 17.6358 56.7091 18.1901C57.6175 19.289 58.3184 21.5169 58.3184 21.5169L59.3679 25.9525Z" fill="white"/>
<ellipse rx="0.769664" ry="1.18284" transform="matrix(-1 0 0 1 59.2982 33.2674)" fill="white"/>
<path d="M24.7332 34.0067L23.3338 34.5242" stroke="#233F8A" stroke-width="10"/>
<path d="M25.7126 35.8549L24.1033 36.816" stroke="#233F8A" stroke-width="10"/>
<path d="M66.2249 22.095L65.2254 22.3994" stroke="#18215A" stroke-width="10"/>
<path d="M66.6611 24.1594L65.6486 24.4112" stroke="#18215A" stroke-width="10"/>
</g>
<defs>
<filter id="filter0_d" x="0" y="0" width="81.0003" height="119.74" filterUnits="userSpaceOnUse" color-interpolation-filters="sRGB">
<feFlood flood-opacity="0" result="BackgroundImageFix"/>
<feColorMatrix in="SourceAlpha" type="matrix" values="0 0 0 0 0 0 0 0 0 0 0 0 0 0 0 0 0 0 127 0"/>
<feOffset dy="4"/>
<feGaussianBlur stdDeviation="2"/>
<feColorMatrix type="matrix" values="0 0 0 0 0 0 0 0 0 0 0 0 0 0 0 0 0 0 0.25 0"/>
<feBlend mode="normal" in2="BackgroundImageFix" result="effect1_dropShadow"/>
<feBlend mode="normal" in="SourceGraphic" in2="effect1_dropShadow" result="shape"/>
</filter>
<filter id="filter1_d" x="37.0361" y="33.8414" width="12.1981" height="12.601" filterUnits="userSpaceOnUse" color-interpolation-filters="sRGB">
<feFlood flood-opacity="0" result="BackgroundImageFix"/>
<feColorMatrix in="SourceAlpha" type="matrix" values="0 0 0 0 0 0 0 0 0 0 0 0 0 0 0 0 0 0 127 0"/>
<feOffset dy="4"/>
<feGaussianBlur stdDeviation="2"/>
<feColorMatrix type="matrix" values="0 0 0 0 0 0 0 0 0 0 0 0 0 0 0 0 0 0 0.25 0"/>
<feBlend mode="normal" in2="BackgroundImageFix" result="effect1_dropShadow"/>
<feBlend mode="normal" in="SourceGraphic" in2="effect1_dropShadow" result="shape"/>
</filter>
<linearGradient id="paint0_linear" x1="76.8604" y1="75.7019" x2="39.185" y2="100.663" gradientUnits="userSpaceOnUse">
<stop offset="0.194811" stop-color="#B0E0EA"/>
<stop offset="0.697987" stop-color="#B0E0EA"/>
<stop offset="0.947128" stop-color="#B0E0EA"/>
</linearGradient>
<radialGradient id="paint1_angular" cx="0" cy="0" r="1" gradientUnits="userSpaceOnUse" gradientTransform="translate(10.4678 11.0252) rotate(57.0916) scale(2.13368 2.09537)">
<stop stop-color="#29499D"/>
<stop offset="1" stop-color="#29499D" stop-opacity="0"/>
</radialGradient>
<radialGradient id="paint2_radial" cx="0" cy="0" r="1" gradientUnits="userSpaceOnUse" gradientTransform="translate(1.46936 1.18284) rotate(90) scale(1.18284 1.46936)">
<stop stop-color="white"/>
<stop offset="1" stop-color="white" stop-opacity="0"/>
</radialGradient>
<linearGradient id="paint3_linear" x1="27.0418" y1="51.3058" x2="0.822873" y2="32.0051" gradientUnits="userSpaceOnUse">
<stop offset="0.56689" stop-color="#B0E0EA"/>
<stop offset="1" stop-color="#6FA9B6"/>
</linearGradient>
<linearGradient id="paint4_linear" x1="71.2629" y1="85.8301" x2="73.7073" y2="87.191" gradientUnits="userSpaceOnUse">
<stop stop-color="white"/>
<stop offset="1" stop-color="white" stop-opacity="0"/>
</linearGradient>
<linearGradient id="paint5_linear" x1="19.3211" y1="-1.45643e-07" x2="22.9892" y2="37.4897" gradientUnits="userSpaceOnUse">
<stop stop-color="#4880E8"/>
<stop offset="1" stop-color="#3468C9" stop-opacity="0"/>
</linearGradient>
<linearGradient id="paint6_linear" x1="47.0537" y1="13.0113" x2="47.0537" y2="39.8822" gradientUnits="userSpaceOnUse">
<stop stop-color="#004163"/>
<stop offset="0.353332" stop-color="#3E9AC9"/>
<stop offset="0.624186" stop-color="#3B98C8"/>
<stop offset="0.910667" stop-color="#004163"/>
</linearGradient>
<linearGradient id="paint7_linear" x1="48.5927" y1="25.579" x2="48.67" y2="32.2759" gradientUnits="userSpaceOnUse">
<stop stop-color="#4771DE"/>
<stop offset="1" stop-color="#0E1A3A"/>
</linearGradient>
<linearGradient id="paint8_linear" x1="46.8782" y1="27.0575" x2="46.8782" y2="39.4809" gradientUnits="userSpaceOnUse">
<stop stop-color="#090083"/>
<stop offset="1" stop-color="#312A8D" stop-opacity="0.3"/>
</linearGradient>
</defs>
</svg>
