<svg width="80" height="118" viewBox="0 0 80 118" fill="none" xmlns="http://www.w3.org/2000/svg">
<g filter="url(#filter0_d)">
<path d="M13.0684 100.848C12.0567 100.69 10.584 99.686 10.584 99.686C10.2067 100.537 9.65008 101.304 9.27277 102.155C8.89547 103.005 8.91533 103.197 8.51366 103.897C8.04019 104.722 7.59323 105.131 7.40948 106.075C7.27978 106.742 7.28057 107.151 7.40948 107.818C7.52519 108.416 7.68695 108.84 8.09959 109.27C8.82753 110.028 9.66799 109.752 10.584 109.27C11.8262 108.616 12.2007 108.249 13.0684 107.382C14.1 106.351 14.6877 105.758 15.6908 104.696C16.6105 103.722 17.1365 103.631 17.8991 102.518C18.2235 102.044 18.487 101.421 18.5893 100.848C18.7463 99.9664 17.8991 98.0161 17.8991 98.0161C17.8991 98.0161 16.3809 99.7586 15.3457 100.485C14.6282 100.988 13.9215 100.981 13.0684 100.848Z" fill="#8FBAE1"/>
<path d="M18.0093 98.9599C18.0093 98.9599 17.9623 99.6992 18.0093 100.122C18.0611 100.586 18.362 100.75 18.2854 101.211C18.2396 101.486 18.1244 101.612 18.0093 101.864C17.8368 102.241 17.795 102.499 17.5263 102.808C17.2638 103.11 17.0306 103.177 16.6981 103.389C16.2547 103.671 16.0022 103.829 15.5249 104.042C15.2345 104.172 15.0174 104.132 14.7658 104.333C14.5035 104.542 14.4877 104.788 14.2828 105.059C13.7598 105.749 13.3196 105.993 12.6955 106.583C12.2129 107.04 12.1705 107.032 11.6603 107.455C11.3069 107.747 10.482 108.568 10.4872 108.326C10.4923 108.084 10.3853 108.253 10.4872 108.035C10.6993 107.583 10.9588 107.423 11.2463 107.019C11.5822 106.547 11.9382 106.357 12.0744 105.785C12.166 105.4 12.1372 105.16 12.0744 104.768C12.0276 104.476 11.9865 104.31 11.8674 104.042C11.744 103.764 11.6428 103.622 11.4533 103.389C11.1415 103.005 10.9259 102.795 10.4872 102.59C10.1824 102.448 9.31396 102.3 9.31396 102.3L10.6252 99.9764C10.6252 99.9764 11.7845 100.993 12.3504 100.993C12.9164 100.993 13.2337 101.211 13.7997 101.211C14.3656 101.211 15.0891 100.89 15.87 100.339C16.6324 99.8016 17.8023 98.2339 17.8023 98.2339L18.0093 98.9599Z" fill="#6CA6D8"/>
<path d="M31.1692 77.6868L26.8906 76.5252L22.4739 74.7826L18.4924 73.1853C18.4924 73.1853 15.9916 71.6666 15.0207 70.7168C13.9778 69.6966 13.7567 68.7674 13.2264 67.377C12.3519 65.0842 12.2603 61.133 12.2603 61.133C12.2603 61.133 12.4765 56.8514 13.2264 53.8725C13.9763 50.8937 14.5588 48.4998 14.5588 48.4998C14.5588 48.4998 15.5664 45.0163 17.091 43.2723C17.9818 42.2533 19.8515 41.675 19.8515 41.675C19.8515 41.675 21.6057 45.0947 23.302 46.7573C28.1266 51.4859 33.4848 50.4207 40.0026 49.3711C46.5205 48.3214 44.5924 48.5605 46.0278 48.1368C48.8225 47.3118 50.6303 45.5956 50.6303 45.5956C50.6303 45.5956 50.4037 52.6931 49.9402 57.2124C49.6426 60.1147 49.703 61.8013 48.9741 64.618C48.0554 68.1682 47.2922 70.2003 45.2475 73.1853C44.287 74.5876 43.8558 75.5693 42.487 76.5252C40.4345 77.9585 38.732 77.4831 36.2761 77.6868C34.2879 77.8518 33.1453 77.9701 31.1692 77.6868Z" fill="#94CAE4"/>
<path d="M30.3277 77.0975L26.5877 76.0532L22.727 74.4868L19.2469 73.0508C19.2469 73.0508 17.0609 71.6856 16.2122 70.8317C15.3007 69.9146 15.1074 69.0793 14.6438 67.8294C13.8794 65.7682 13.7993 62.2163 13.7993 62.2163C13.7993 62.2163 13.9884 58.3673 14.6438 55.6894C15.2993 53.0115 15.8085 50.8596 15.8085 50.8596C15.8085 50.8596 16.6892 47.7281 18.0219 46.1602C18.8005 45.2442 20.4348 44.7243 20.4348 44.7243C20.4348 44.7243 21.9682 47.7985 23.4509 49.2931C27.6681 53.544 32.3517 52.5864 38.049 51.6428C43.7462 50.6992 41.8743 51.1314 43.129 50.7505C45.5718 50.0089 47.3386 48.2488 47.3386 48.2488C47.3386 48.2488 47.1405 54.6292 46.7354 58.6918C46.4752 61.3009 46.528 62.8171 45.8909 65.3492C45.0879 68.5407 44.4208 70.3674 42.6335 73.0508C41.7939 74.3114 41.417 75.1939 40.2206 76.0532C38.4264 77.3417 36.9383 76.9143 34.7915 77.0975C33.0537 77.2458 32.055 77.3522 30.3277 77.0975Z" fill="#B0E0EA"/>
<path d="M11.3351 69.1194C11.8467 68.1211 12.9913 66.7961 12.9913 66.7961L19.0643 72.1688C19.0643 72.1688 23.8955 75.7442 27.4836 76.5251C30.3867 77.1569 35.0748 76.5251 35.0748 76.5251L43.336 75.799C43.336 75.799 44.6094 78.7308 44.8744 81.1718C45.015 82.4676 45.1827 83.2483 44.8744 84.5116C44.5134 85.9905 43.8727 86.6798 42.9421 87.8514C42.184 88.8057 41.5818 90.0344 40.7337 90.9008C40.0227 91.6271 39.6102 91.5866 38.8704 92.2803C37.4858 93.5785 37.0761 93.6271 35.6269 94.4983C34.1032 95.4144 32.4091 94.9753 31.2102 93.6271C30.6338 92.9789 29.9564 92.7601 29.692 91.9172C29.1175 90.0864 29.692 86.9801 29.692 86.9801L27.4836 82.6239C27.4836 82.6239 26.3812 81.2622 25.4133 81.1718C23.7768 81.0189 23.7487 83.2239 22.6528 84.5116C21.279 86.1259 19.8613 86.5794 19.0643 88.5774C18.1674 90.8259 19.5774 92.4435 19.0643 94.8214L19.0466 94.9034C18.7248 96.3955 18.5249 97.3223 17.6841 98.5969C16.8571 99.8504 16.3007 100.732 14.9236 101.211C13.8489 101.584 13.0806 101.641 12.0252 101.211C11.2008 100.875 10.5882 100.609 10.2309 99.7585C8.91965 96.6365 7.88448 94.8214 6.78033 91.9172C5.97961 89.8112 6.47399 88.3542 6.78033 86.1089C7.10016 83.7647 7.45444 82.4314 8.43659 80.3005C8.73128 79.6612 8.98856 79.3516 9.26472 78.7032C9.96518 77.0586 9.85151 75.9592 10.2309 74.2017C10.6595 72.2163 10.4167 70.9115 11.3351 69.1194Z" fill="url(#paint0_linear)"/>
<path d="M16.6949 59.681C16.6949 59.681 14.933 64.7297 16.6949 64.4729C17.715 64.3242 17.9437 63.3955 18.6272 62.5852C20.6762 60.156 20.9547 58.1122 21.9398 55.0343C22.5447 53.1441 23.188 51.5493 22.8399 50.8232C22.4919 50.0972 22.5061 49.3717 21.9398 49.2259C20.7903 48.9301 20.0075 49.2259 19.3173 50.8232C18.6272 52.4205 16.6949 59.681 16.6949 59.681Z" fill="white" fill-opacity="0.8"/>
<ellipse cx="21.4597" cy="48.2821" rx="1.03516" ry="0.943859" fill="white"/>
<ellipse rx="11.4921" ry="12.0147" transform="matrix(0.999987 -0.00503209 0.0045463 0.99999 30.0387 62.8955)" fill="#349EC8"/>
<ellipse rx="10.3244" ry="10.8279" transform="matrix(0.999987 -0.00503209 0.0045463 0.99999 30.1079 62.8646)" fill="url(#paint1_angular)"/>
<ellipse cx="27.4636" cy="53.8726" rx="0.414066" ry="0.435627" fill="white"/>
<ellipse cx="25.2554" cy="55.615" rx="0.828131" ry="0.726045" fill="white"/>
<ellipse cx="25.3242" cy="55.6151" rx="1.44923" ry="1.16167" fill="url(#paint2_radial)"/>
<path d="M49.8233 46.1102L49.4783 61.3572C49.4783 61.3572 51.4912 61.0557 52.7218 60.6311C54.7268 59.9394 55.7828 59.2588 57.4835 57.9448C58.7139 56.9942 60.382 55.1858 60.382 55.1858C60.382 55.1858 62.0571 53.7277 63.9706 52.2816C65.884 50.8356 65.5076 51.3317 67.4211 49.8857C67.4211 49.8857 69.4555 47.9258 69.8365 47.0541C70.1428 46.3533 70.1815 45.602 70.7336 44.9486C70.9127 44.7366 71.4237 44.6581 71.4237 44.6581L72.942 44.2225C72.942 44.2225 75.6332 43.7296 75.9095 42.3348C75.9864 41.9462 76.0675 41.6788 75.9095 41.3183C75.6619 40.7537 74.5292 40.6649 74.5292 40.6649C74.5292 40.6649 75.2162 37.4657 74.9433 35.4374C74.7866 34.2727 74.9401 33.3999 74.1842 32.5332C73.79 32.0812 73.5227 31.7162 72.942 31.6619C72.2693 31.599 71.8802 32.0095 71.4237 32.5332C70.8478 33.194 71.0031 33.8607 70.7336 34.7113C70.3833 35.8171 70.2311 36.4537 69.8365 37.5429C69.4924 38.4926 69.63 39.0205 68.8703 39.6484C66.938 41.2457 62.6594 42.0444 62.6594 42.0444C59.7487 42.9517 58.2548 43.533 55.3442 44.4403C55.3442 44.4403 53.2615 44.2886 52.1007 44.6581C51.1053 44.975 49.8233 46.1102 49.8233 46.1102Z" fill="url(#paint3_linear)"/>
<path d="M13.2715 66.6509L11.3152 68.9082C11.3152 68.9082 14.6134 73.0247 17.0445 74.9519C19.7657 77.109 21.1853 77.6827 24.4507 78.7383C27.1084 79.5975 29.0689 79.7445 31.9967 80.1946C34.9245 80.6448 36.9344 80.8128 39.892 80.7043C42.0364 80.6257 44.7165 80.1946 44.7165 80.1946L43.3363 75.8257C43.3363 75.8257 38.99 76.2843 36.1889 76.5539C33.6745 76.7958 31.9733 76.9789 29.4814 76.5539C26.7768 76.0925 25.0937 75.6142 22.5643 74.515C20.1884 73.4826 18.9736 73.0873 17.0445 71.3111C15.3322 69.7346 13.2715 66.6509 13.2715 66.6509Z" fill="#1D669F" fill-opacity="0.48"/>
<ellipse rx="0.636462" ry="1.56074" transform="matrix(0.711314 0.702874 -0.665967 0.745981 16.3672 79.2984)" fill="white"/>
<ellipse rx="0.827024" ry="2.03222" transform="matrix(0.937226 -0.348723 0.318637 0.947877 35.7539 84.9649)" fill="white"/>
<path d="M10.6254 97.7983C10.6642 97.4591 12.0311 97.4181 12.2727 97.1877C12.7742 96.7097 13.3328 97.1877 14.012 97.1877C14.5867 97.1877 14.9439 97.3937 15.4837 97.1877C16.3621 96.8524 16.5132 96.0576 16.8885 95.1636C17.2114 94.3945 17.2122 93.8958 17.3567 93.0698L17.3692 92.9984C17.5835 91.7748 17.7098 91.0532 17.6912 89.7894C17.6746 88.6638 16.82 87.9045 17.3567 86.9278C17.5499 86.5763 17.7564 86.4521 18.0257 86.1601C18.7311 85.395 19.185 85.0263 19.9656 84.3454C20.8516 83.5726 21.4445 83.2622 22.3069 82.461C23.2038 81.6278 22.6701 81.8927 23.5994 81.0992C24.5359 80.2995 24.9402 80.1577 25.8767 80.1577C26.8132 80.1577 28.3208 80.9958 29.3978 82.461C30.309 83.7006 30.8417 84.411 32.0067 85.3924L32.0142 85.3987C33.0589 86.2788 33.6831 86.8046 34.9501 87.2768C36.2165 87.7488 37.0178 87.819 38.3617 87.7654C39.7803 87.7088 40.6106 87.5312 41.9071 86.9278C43.1248 86.3612 44.7167 84.9038 44.7167 84.9038C44.7167 84.9038 44.3032 85.8909 43.8886 86.6172C43.3025 87.6438 42.5919 88.1279 41.9071 89.0857C41.5908 89.5281 41.574 89.9202 41.1713 90.278C40.4089 90.9552 39.0929 90.9101 38.0916 90.9008C36.6211 90.8872 36.3227 90.3401 34.9501 89.7894C34.0777 89.4394 33.587 89.2138 32.8094 88.6727C31.7639 87.9452 30.5177 87.9589 29.7414 86.9278C28.8101 85.691 27.8781 83.1322 27.8781 83.1322C27.8781 83.1322 26.7963 81.4655 25.8767 81.2444C25.5203 81.1588 25.1986 81.1618 24.8415 81.2444C23.9031 81.4616 23.9445 82.1157 23.5994 82.8417C22.9855 84.1335 23.0167 84.035 22.0811 85.0925C21.2408 86.0423 19.4242 87.0797 19.2517 88.3597C19.1546 89.0799 18.605 89.5574 18.6996 90.278C18.8414 91.3582 18.9756 91.7453 18.9756 92.6433C18.9756 93.5146 19.2517 93.805 19.2517 94.6037C19.2517 94.6037 19.0435 95.9151 18.6996 96.564C18.3677 97.1901 18.1966 97.8955 17.6912 98.3791C17.1944 98.8546 17.4933 98.6916 16.8885 99.0024C15.7285 99.5984 14.8792 99.752 13.6106 99.4909C13.0675 99.3791 12.6485 99.4265 12.2727 99.0024C12.2727 99.0024 10.5753 98.2355 10.6254 97.7983Z" fill="#6AA5C6" fill-opacity="0.5"/>
<path d="M38.1192 90.7836C36.0213 90.5378 32.7087 88.6501 32.7087 88.6501C32.7087 88.6501 34.141 90.1078 35.1241 90.7836C36.4431 91.6904 37.4354 92.4966 38.9749 92.1073C40.2424 91.7869 41.5421 89.9012 41.5421 89.9012C41.5421 89.9012 39.4886 90.9441 38.1192 90.7836Z" fill="#349FC9"/>
<ellipse rx="0.827024" ry="3.32435" transform="matrix(0.937226 -0.348723 0.318637 0.947877 12.3214 94.9478)" fill="white"/>
<path d="M44.7163 53.8726C44.7163 55.1795 43.6349 55.1795 42.3009 55.1795C40.9669 55.1795 39.8855 55.1795 39.8855 53.8726C39.8855 52.5657 40.9669 52.5657 42.3009 52.5657C43.6349 52.5657 44.7163 52.5657 44.7163 53.8726Z" fill="#781F6F"/>
<path d="M44.3025 53.7274C44.3025 54.889 43.3756 54.889 42.2322 54.889C41.0888 54.889 40.1619 54.889 40.1619 53.7274C40.1619 52.5657 41.0888 52.5657 42.2322 52.5657C43.3756 52.5657 44.3025 52.5657 44.3025 53.7274Z" fill="#D785CA"/>
<ellipse cx="8.14066" cy="87.0528" rx="4.14066" ry="4.57408" fill="#359FC9"/>
<ellipse cx="7.51955" cy="86.3268" rx="3.10549" ry="3.55762" fill="#6AD6CE"/>
<path d="M9.49051 84.4409C9.95086 85.3641 10.0231 86.2786 9.6518 86.4835C9.28054 86.6884 9.6518 86.4835 8.14603 85.1829C7.68569 84.2597 7.61347 83.3451 7.98474 83.1402C8.356 82.9353 9.03016 83.5176 9.49051 84.4409Z" fill="url(#paint4_linear)"/>
<path d="M29.2139 93.0789C29.5929 92.6441 30.3871 92.2077 30.3871 92.2077L30.8011 93.0789L31.8363 94.0954L34.2517 94.894C34.2517 94.894 34.46 95.0494 34.9171 94.7488C35.4692 94.3858 35.8005 94.4112 36.1593 94.4584C36.4486 94.4965 37.0565 95.0392 37.0565 95.0392C37.0565 95.0392 37.958 95.471 38.3924 95.9831C39.0183 96.7211 39.8469 97.4371 40.0486 98.6695C40.1355 99.2004 40.2341 99.3308 40.0486 100.049C39.9128 100.575 39.6382 100.816 39.2205 101.138C38.7801 101.477 38.4547 101.628 37.9093 101.646C37.313 101.666 36.46 101.138 36.46 101.138L33.6306 99.2503C32.5256 98.5131 32.5122 98.5357 31.8363 98.016C30.8946 97.292 30.2601 96.9637 29.559 95.9831C29.0805 95.314 28.4333 94.9157 28.5928 94.0954C28.5928 94.0954 28.9108 93.4268 29.2139 93.0789Z" fill="#9BCCE4"/>
<path d="M29.3688 95.0393C29.4455 95.4248 29.8519 95.9105 29.8519 95.9105C29.8519 95.9105 29.5826 95.7564 29.4378 95.6201C29.237 95.431 28.964 95.1675 28.8686 94.9666C28.7996 94.8214 28.6232 94.5622 28.5927 94.3858C28.5541 94.1626 28.5927 94.0228 28.6617 93.8776C28.7219 93.7508 28.7249 93.7051 28.7997 93.5872C28.9377 93.3693 29.0172 93.3222 29.1618 93.1515C29.316 92.9694 29.6448 92.7885 29.6448 92.7885C29.6448 92.7885 29.4411 93.0812 29.3688 93.2967C29.2342 93.6978 29.3688 93.9605 29.3688 94.3858C29.3688 94.641 29.3191 94.7895 29.3688 95.0393Z" fill="white" fill-opacity="0.59"/>
<path d="M37.0716 96.0565C36.7843 96.3721 36.5683 96.4946 36.2009 96.6959C35.251 97.2164 33.4896 97.0972 33.4896 97.0972C33.4896 97.0972 33.7361 97.5165 33.9236 97.7616C34.18 98.0968 34.4085 98.2041 34.6603 98.5431C34.9075 98.8757 35.6277 99.771 35.6277 99.771C35.6277 99.771 36.6324 100.908 35.4938 100.339C34.3551 99.771 33.7855 98.8356 32.9859 98.0458C32.4578 97.5242 31.6463 96.6959 31.6463 96.6959L30.6416 95.4882C30.2492 95.0165 29.8673 94.8663 29.7039 94.2804C29.5851 93.8548 29.4477 93.4947 29.7039 93.1437L30.387 92.2077C30.387 92.2077 30.8386 93.1566 31.1461 93.4419C31.7277 93.9818 32.0672 94.1895 32.7849 94.4936C33.4304 94.767 33.767 95.0696 34.4594 95.133C35.2312 95.2036 35.4641 94.8214 36.2009 94.8214C36.9376 94.8214 37.3185 95.0464 37.2055 95.6029C37.1335 95.9581 37.2533 95.857 37.0716 96.0565Z" fill="#71ACD8"/>
<path d="M11.5905 79.7756C10.829 79.1082 9.59017 77.8322 9.59017 77.8322L9.38249 78.456C9.38249 78.456 9.59338 78.6668 9.72735 78.803C10.25 79.3345 10.4244 79.7686 11.0378 80.1911C11.7274 80.6661 13.0391 80.9558 13.0391 80.9558C13.0391 80.9558 12.1393 80.2567 11.5905 79.7756Z" fill="#6AA5C6"/>
<path d="M8.55486 104.042C8.55486 104.042 9.17596 103.026 9.31398 103.026C9.452 103.026 9.85436 102.658 9.93508 102.663C10.3351 102.687 10.5701 102.789 10.9012 103.026C11.2978 103.31 11.5071 103.564 11.6603 104.042C11.8066 104.499 11.6603 105.277 11.6603 105.277C11.6603 105.277 11.4918 105.915 11.3153 106.293C11.0683 106.823 10.8424 107.071 10.4872 107.527C10.4872 107.527 10.1279 108.209 9.72804 108.399C9.31045 108.597 8.97245 108.597 8.55486 108.399C8.15498 108.209 8.01878 107.925 7.79574 107.527C7.59205 107.164 7.45068 106.932 7.45068 106.511C7.45068 106.089 7.6375 105.882 7.79574 105.494C8.0387 104.9 8.55486 104.042 8.55486 104.042Z" fill="#97CBE3"/>
<ellipse rx="0.718435" ry="0.139606" transform="matrix(0.446436 -0.894816 0.875392 0.483414 8.03157 105.842)" fill="white"/>
<path d="M49.2022 53.7273C48.9635 56.809 49.4409 58.4869 49.2022 61.5686L50.6514 61.133C50.6514 61.133 50.9616 58.4328 51.1649 56.2837C51.3006 54.8491 51.5414 54.2388 51.3686 52.8087C51.2286 51.6504 50.8933 51.1436 50.4858 49.2613C50.2195 48.0312 49.6853 46.3216 49.6853 46.3216C49.6853 46.3216 49.2408 49.0499 49.3402 50.6779C49.4109 51.8346 49.2022 53.7273 49.2022 53.7273Z" fill="#3265B6"/>
<path d="M57.4123 53.1707C58.2485 54.1181 59.7212 55.4874 59.7212 55.4874C60.1985 54.7523 60.5257 54.898 61.0031 54.1629L63.0486 52.5915C63.0486 52.5915 60.9064 52.2174 60.0607 51.8676C59.1096 51.4742 58.5595 51.4124 57.684 50.854C56.7498 50.2583 56.1039 49.6988 55.5788 48.6822C55.2042 47.9567 55.1568 47.7539 54.9703 46.9559L54.9677 46.9447C54.7994 46.2246 54.764 44.628 54.3565 44.7004C53.9491 44.7728 54.3565 45.9483 54.3565 46.6551C54.3565 46.6551 54.3661 48.0643 54.6281 48.8994C54.8504 49.6077 55.0626 49.9372 55.443 50.5645C56.1086 51.662 56.5722 52.2189 57.4123 53.1707Z" fill="#3265B6"/>
<path d="M70.5863 43.5421C70.4987 44.125 70.1815 45.0148 70.1815 45.0148C70.818 44.8734 70.9937 44.7728 71.8086 44.7004C71.8086 44.7004 72.0739 44.2459 72.2161 43.7593C72.3659 43.2464 72.4403 42.9126 72.3519 42.3837C72.2352 41.6857 72.1482 41.3593 71.6728 40.8634C71.0972 40.2631 70.4723 40.1054 69.7035 39.8499C69.2791 39.7089 68.2096 39.8499 68.2096 39.8499L67.4211 40.2955C67.4211 40.2955 68.3282 40.4577 68.617 40.5015C69.4547 40.6285 70.092 40.9151 70.4505 41.7322C70.7314 42.3724 70.6912 42.8442 70.5863 43.5421Z" fill="#3265B6"/>
<path d="M11.6187 10.6533C11.7974 11.4853 12.1708 12.7588 12.1708 12.7588L12.3778 13.4122C12.3778 13.4122 12.2995 14.6583 12.1708 15.4452C12.0201 16.3669 11.7979 16.8525 11.6187 17.7685C11.4044 18.8644 11.2911 19.485 11.2047 20.6001C11.1061 21.8718 11.2047 22.5914 11.2047 23.8673C11.2047 24.9164 11.2248 25.5048 11.2047 26.5537C11.1671 28.513 10.9711 29.6042 10.9286 31.5634L10.927 31.6358C10.9003 32.8665 10.8848 33.5799 10.9286 34.8306C10.9704 36.0237 11.011 36.6933 11.1357 37.88C11.2223 38.705 11.2729 39.1684 11.4117 39.9855C11.6313 41.2785 11.7782 42.0058 12.1708 43.2527C12.6338 44.723 12.6865 45.7487 13.6891 46.8829C14.0932 47.3402 13.8829 48.3284 14.4207 48.0642C14.7599 47.8975 14.9193 47.2214 15.1108 46.8829C15.8985 45.4908 16.1343 44.322 17.4847 43.5431C18.0302 43.2284 18.4923 42.6188 18.4923 42.6188C18.4923 42.6188 17.9929 40.589 17.4847 38.969C16.1888 34.8389 15.6144 32.3551 15.6214 28.0057C15.6246 25.9855 15.8073 24.8568 16.0354 22.8508C16.2817 20.6847 16.2692 19.4229 16.8636 17.3329C17.152 16.3187 17.7711 15.8503 17.7607 14.7917C17.7492 13.6114 16.5875 12.0328 16.5875 12.0328C16.5875 12.0328 17.0607 10.6474 17.4156 9.78201C17.9409 8.50133 18.8649 6.95043 18.9339 6.58741C19.0029 6.2244 18.9634 6.08429 18.8649 5.78877L18.8593 5.77211C18.7532 5.45374 18.6725 5.2116 18.3818 5.06272C18.1152 4.92622 17.9068 4.97384 17.6227 5.06272C17.3073 5.16135 17.1727 5.33437 16.9326 5.57095C16.6375 5.86167 16.3115 6.44221 16.3115 6.44221C16.3115 6.44221 16.1541 4.59386 15.8284 3.46542C15.5024 2.336 15.4738 1.5136 14.6552 0.70645C14.3443 0.399884 14.1713 0.162522 13.7581 0.0530094C13.4706 -0.0231787 13.2889 -0.0119378 12.9989 0.0530094C12.4504 0.17587 12.2359 0.521926 11.8258 0.924263C11.5606 1.18439 11.3854 1.31964 11.2047 1.65031C10.8663 2.26918 11.0442 2.75317 10.9976 3.46542C10.9348 4.42718 10.9468 4.97143 10.9976 5.93397C11.0412 6.75935 11.1023 7.2199 11.2047 8.03951C11.3328 9.0655 11.402 9.64388 11.6187 10.6533Z" fill="#B0E0EA"/>
<path d="M13.2475 46.3943C13.2475 46.3943 14.0756 47.9916 14.4897 48.282C14.9037 48.5724 15.6399 45.5103 16.629 44.434C17.3726 43.6247 18.6724 42.6969 18.6724 42.6969L18.1893 41.4626C18.1893 41.4626 17.7108 42.2335 17.3881 42.5463C16.5748 43.3347 16.1197 43.7779 15.3178 44.5792C14.5024 45.3939 13.2475 46.3943 13.2475 46.3943Z" fill="#265595"/>
<path d="M11.1771 29.187C11.1771 29.187 10.9702 30.0583 10.9702 30.6391C10.9702 31.9838 13.5925 28.8966 13.5925 28.8966L15.5938 27.7349V26.9363L11.1771 27.7349V29.187Z" fill="#265595"/>
<path d="M14.2136 12.7058C13.5081 13.2996 12.0053 12.125 12.0053 12.125L12.2813 13.8675C12.2813 13.8675 13.662 14.1223 14.4897 13.8675C15.5243 13.5489 16.698 12.125 16.698 12.125L17.3191 10.1646C17.3191 10.1646 15.5938 11.5441 14.2136 12.7058Z" fill="#265595"/>
<ellipse cx="35.8142" cy="27.8801" rx="21.8765" ry="23.5239" fill="#91CAE2"/>
<ellipse cx="35.538" cy="26.065" rx="21.3244" ry="21.7087" fill="#B4E5EB"/>
<path d="M38.4819 52.4126C38.4819 52.4126 33.1882 52.8326 29.9246 52.4126C26.3299 51.9501 23.255 51.4182 20.401 49.0728C18.0683 47.1557 17.8781 46.5844 16.6054 43.7727C14.401 38.9023 14.1301 35.6543 13.845 30.2682C13.7474 28.4246 14.175 25.5913 14.2113 24.5258C14.2113 24.3349 14.2138 24.281 14.2138 24.3951C14.2138 24.4351 14.213 24.4787 14.2113 24.5258C14.2119 25.9141 14.3506 34.5517 16.6054 38.5451C17.8954 40.8298 18.9642 41.8892 20.7461 43.7727C22.8543 46.0011 24.6586 47.7053 27.4402 48.855C31.3048 50.4523 33.7202 50.0167 38.1369 50.4523C40.6229 50.6975 41.9529 49.2986 44.4406 49.0728C45.8368 48.9461 49.4094 47.2655 49.4094 47.2655C49.4094 47.2655 46.5067 49.4565 44.4406 50.4523C42.224 51.5206 38.4819 52.4126 38.4819 52.4126Z" fill="#67A3D5"/>
<ellipse rx="20.9243" ry="15.5368" transform="matrix(0.978602 0.205761 -0.186624 0.982431 35.6573 27.2653)" fill="#13215D"/>
<ellipse rx="19.0529" ry="14.2579" transform="matrix(0.978602 0.205761 -0.186624 0.982431 34.8298 27.3663)" fill="url(#paint5_linear)"/>
<path d="M28.0399 38.1017C26.2217 37.6198 25.1642 37.3823 23.4852 36.5044C21.2455 35.3333 19.6402 34.7103 18.3783 32.4385C17.3755 30.6329 17.0591 28.6626 16.9742 26.5733C16.8689 23.9838 16.6737 23.2832 17.6643 20.9101C18.8937 17.9647 20.0557 17.4302 22.657 15.7395C25.0822 14.1632 26.8515 13.0302 29.6962 12.8353C32.8 12.6226 36.2969 12.9748 39.0816 14.4326C40.6842 15.2716 41.7683 16.2002 43.1493 17.3832L43.1983 17.4251C45.5636 19.451 46.2538 19.4938 47.777 22.2739C49.377 25.1941 50.2962 27.4128 49.5713 30.696C49.2058 32.3513 48.7876 33.291 47.777 34.6167C46.1749 36.7183 44.5346 37.2102 42.1181 38.1017C40.0025 38.8821 38.6978 38.9888 36.4592 39.1181C33.1547 39.309 31.2491 38.9523 28.0399 38.1017Z" fill="url(#paint6_linear)"/>
<ellipse cx="40.705" cy="21.8363" rx="2.61368" ry="2.70403" fill="#F5D2C5"/>
<path d="M41.7944 19.3874C41.9284 19.4621 42.0903 19.5149 42.1396 19.5915C42.1889 19.668 40.7588 19.617 40.7588 19.617C40.7588 19.617 39.1807 19.617 39.2793 19.5405C39.378 19.4639 39.6739 19.3364 39.6739 19.3364L39.9451 19.2343L40.3149 19.1578C40.3149 19.1578 40.446 19.1323 40.5615 19.1323H40.8081C40.9333 19.1323 40.9796 19.1433 41.104 19.1578C41.2317 19.1726 41.3017 19.1955 41.4245 19.2343C41.5733 19.2813 41.6574 19.311 41.7944 19.3874Z" fill="#FCF3F7"/>
<path d="M39.237 20.8815C38.8674 20.9057 38.2407 20.969 38.2407 20.969C38.2407 20.969 38.2161 20.8951 38.3886 20.5749C38.5612 20.2547 38.5858 20.2793 38.6105 20.2547L39.8099 20.3541C39.8099 20.3541 40.5535 20.4042 41.0304 20.4162C41.4972 20.4279 42.226 20.4162 42.226 20.4162H42.9234L43.023 20.5403C43.023 20.5403 42.5387 20.6482 42.226 20.6953C41.8675 20.7494 41.6641 20.7497 41.3044 20.7884C40.9833 20.8229 40.8043 20.8596 40.4824 20.8815C39.9968 20.9145 39.6067 20.8572 39.237 20.8815Z" fill="#F8E1DF"/>
<path d="M38.8066 20.6887C38.5537 20.7026 38.2888 20.7908 38.2888 20.7908C38.2888 20.7908 38.2186 20.9424 38.1902 21.0454C38.1553 21.1716 38.1409 21.3775 38.1409 21.3775C38.1409 21.3775 38.8622 21.4138 39.3244 21.403C39.546 21.3978 39.6708 21.3991 39.8915 21.3775C40.1437 21.3528 40.2831 21.3207 40.5326 21.2755C40.8228 21.2229 41.1026 21.1536 41.3956 21.1224C41.7117 21.0888 41.7705 21.0834 42.086 21.1224C42.3505 21.1551 42.4908 21.2203 42.7518 21.2755C42.9535 21.3181 43.2696 21.3775 43.2696 21.3775L43.1956 20.9689L43.023 20.5102C43.023 20.5102 42.8739 20.5092 42.8258 20.5102C42.5834 20.5151 42.5752 20.5469 42.2093 20.5867L41.2724 20.6887C41.2724 20.6887 40.8236 20.7744 40.5326 20.7908C40.0408 20.8184 39.9655 20.7908 39.5463 20.7908C39.1272 20.7908 38.9412 20.6814 38.8066 20.6887Z" fill="#FDF4FD"/>
<path d="M38.1409 21.3006V21.7597C38.1409 21.7597 38.6071 21.7446 38.9052 21.7597C39.2632 21.7779 39.4597 21.8433 39.8176 21.8618C40.1253 21.8776 40.2997 21.89 40.6066 21.8618C40.8494 21.8395 40.9149 21.7797 41.223 21.7597L42.0121 21.7087C42.3202 21.6888 43.3189 21.7597 43.3189 21.7597C43.3189 21.7597 43.3054 21.6322 43.2998 21.5557C43.2943 21.4791 43.2882 21.161 43.2203 21.122C43.1956 21.1078 43.0698 21.2562 42.9737 21.2495C42.7057 21.231 42.6208 21.1755 42.3573 21.122C42.0525 21.0602 41.8788 21.0187 41.5682 21.02C41.2673 21.0212 41.112 21.0523 40.8039 21.122L40.0148 21.3006C39.7067 21.3703 39.4438 21.3006 39.0778 21.3006H38.1409Z" fill="#EEA9AA"/>
<path d="M38.1404 21.3517C38.0911 21.6667 38.0665 22.0659 38.1404 22.1845C38.1404 22.1845 39.1206 22.203 39.6692 22.1845C40.0258 22.1724 40.2271 22.1758 40.5815 22.1334C40.8724 22.0987 41.3212 22.0059 41.3212 22.0059H42.1349C42.5294 22.0059 42.6502 22.1196 42.8253 22.1845C42.9687 22.2376 43.2938 22.321 43.2938 22.321C43.2938 22.321 43.3159 22.1348 43.3185 22.0149C43.3219 21.8517 43.2938 21.5977 43.2938 21.5977H43.0719H42.3075H41.3952C41.1063 21.5977 40.9421 21.5605 40.6555 21.5977C40.3797 21.6336 40.2408 21.7405 39.9651 21.7763C39.6784 21.8135 39.5108 21.8224 39.2253 21.7763C38.9875 21.7379 38.8724 21.629 38.6336 21.5977C38.4425 21.5727 38.1404 21.3517 38.1404 21.3517Z" fill="#F8DFDD"/>
<path d="M39.0315 22.0381H38.21H38.1587C38.1073 22.0381 38.0792 22.012 38.1156 22.219C38.21 22.7547 38.1896 22.6016 38.3897 22.5901C38.5899 22.5785 38.468 22.5918 38.5181 22.5901C38.7009 22.5837 38.8019 22.555 38.9802 22.5148C39.1533 22.4758 39.4166 22.3894 39.4166 22.3894C39.4166 22.3894 39.5884 22.3696 39.699 22.3643C39.8292 22.358 39.9024 22.3643 40.0327 22.3643C40.2834 22.3643 40.4794 22.518 40.6745 22.3643C40.7076 22.3382 40.8773 22.321 40.8773 22.321C40.8773 22.321 41.0578 22.3738 41.1978 22.3643C41.4528 22.3468 41.4413 22.3335 41.7896 22.289C42.1378 22.2445 42.0611 22.1134 42.2662 22.1134C42.4307 22.1134 42.5606 22.2572 42.7019 22.321C42.9151 22.4173 43.1191 22.7032 43.1704 22.6782C43.2217 22.6531 43.2937 22.3185 43.2937 22.168C43.2937 22.0174 43.0225 22.013 42.8567 22.013C42.6908 22.013 42.622 21.9213 42.4716 21.8625C42.3212 21.8037 42.1378 21.8625 42.1378 21.8625C42.1378 21.8625 42.0095 21.9126 41.8811 21.9126C41.7528 21.9126 41.6927 21.9002 41.5731 21.9126C41.3868 21.932 41.111 22.0381 41.111 22.0381H40.3408H39.545H39.0315Z" fill="#F2BDB6"/>
<path d="M38.6001 22.4507C38.4686 22.4579 38.1902 22.5506 38.1902 22.5506C38.2642 22.8833 38.3381 22.9597 38.4861 23.2142C38.4861 23.2142 38.832 22.9914 38.933 22.9597C39.1099 22.9041 39.1641 22.8319 39.3491 22.807C39.5325 22.7823 39.691 22.8421 39.8761 22.8324C40.0492 22.8234 40.1471 22.8205 40.32 22.8324C40.4727 22.843 40.5595 22.8501 40.7083 22.8833C40.9116 22.9287 41.0114 22.9949 41.2076 23.0615C41.3908 23.1237 41.4917 23.1641 41.6792 23.2142C41.8079 23.2486 41.8787 23.2788 42.0121 23.2906C42.0983 23.2982 42.1475 23.2852 42.234 23.2906C42.3993 23.3009 42.7518 23.4434 42.7518 23.4434C42.9491 23.2142 42.9984 23.2142 43.1217 22.8833H42.6501C42.3468 22.8833 42.1724 22.9302 41.8734 22.8833C41.6032 22.841 41.4651 22.7659 41.2076 22.6797C41.0111 22.614 40.9062 22.4875 40.7083 22.4252C40.2859 22.2921 40.0447 22.2235 39.5987 22.247C39.4565 22.2545 39.3764 22.2666 39.2381 22.2979C39.0584 22.3387 39.0616 22.4076 38.8775 22.4252C38.8021 22.4324 38.6758 22.4465 38.6001 22.4507Z" fill="#F4CAC5"/>
<path d="M41.2475 22.5761C41.1832 22.5238 41.1055 22.5452 41.0612 22.474C41.0208 22.4091 41.0258 22.3557 40.979 22.2955C40.9087 22.2049 40.7325 22.1424 40.7325 22.1424H40.4585L40.6064 22.372C40.6064 22.372 40.8636 22.6206 41.0612 22.7255C41.2032 22.8008 41.2909 22.8274 41.4448 22.8712C41.6434 22.9278 41.7599 22.9443 41.9653 22.9587C42.1148 22.9692 42.3489 22.9587 42.3489 22.9587H42.7051H43.0722C43.1461 22.8056 43.1461 22.8056 43.1955 22.638L43.1955 22.638H42.9516C42.9516 22.638 42.727 22.7036 42.579 22.7255C42.4311 22.7473 42.3386 22.7255 42.1845 22.7255C42.0026 22.7255 41.9001 22.7397 41.7188 22.7255C41.5134 22.7094 41.4096 22.7075 41.2475 22.5761Z" fill="#F2BDB9"/>
<path d="M41.8261 22.3975C41.7593 22.3975 41.65 22.3975 41.6011 22.4278C41.5522 22.4581 41.0477 22.3644 41.2425 22.4278C41.4373 22.4912 41.6624 22.5664 41.7039 22.5793C41.7502 22.5936 41.7783 22.5793 41.8261 22.5793H41.9727H42.1683H42.3149H42.4372C42.4944 22.5793 42.5277 22.5934 42.5838 22.5793C42.6342 22.5666 42.7988 22.6353 42.8233 22.5793C42.8414 22.5376 42.7366 22.4562 42.706 22.4278C42.6831 22.4065 42.6613 22.3975 42.6327 22.3975H42.4372H42.2661H42.0461H41.8261Z" stroke="#F9E3DF" stroke-width="2"/>
<path d="M41.8498 22.4708C41.7258 22.4821 41.4332 22.3706 41.5054 22.4708C41.5437 22.5239 41.5957 22.5307 41.662 22.5537C41.8099 22.6052 41.91 22.5537 42.069 22.5537H42.4134C42.5356 22.5537 42.7167 22.6614 42.7265 22.5537C42.7322 22.491 42.6927 22.4493 42.6325 22.4155C42.5603 22.375 42.499 22.4155 42.4134 22.4155C42.3156 22.4155 42.2604 22.408 42.1629 22.4155C42.0387 22.4251 41.9739 22.4596 41.8498 22.4708Z" fill="#F6ABA4"/>
<path d="M38.4365 23.1773C38.5811 23.4785 38.7745 23.7382 38.9673 23.9026C38.9673 23.9026 39.3473 23.6567 39.6201 23.6475C39.9217 23.6373 40.0874 23.7749 40.3891 23.7798C40.6345 23.7838 40.9916 23.7431 41.2567 23.9026C41.5218 24.0621 41.8307 23.8869 42.2448 24.0046C42.5099 23.7855 42.6291 23.7033 42.8715 23.3635C42.8715 23.3635 42.4226 23.2202 42.2448 23.1773C42.0146 23.1216 41.8963 23.1517 41.6664 23.0951C41.5092 23.0564 41.4051 23.0833 41.2567 23.0129C41.0547 22.9172 40.9606 22.8093 40.7506 22.739C40.568 22.6779 40.4584 22.6729 40.2686 22.6569C40.0809 22.641 39.9508 22.6021 39.7625 22.6021C39.5649 22.6021 39.4699 22.5924 39.2806 22.6569C39.1474 22.7022 39.087 22.7685 38.9673 22.8486C38.7918 22.966 38.4365 23.1773 38.4365 23.1773Z" fill="#F9E3DF"/>
<path d="M41.6667 19.2088L41.3462 19.1323C41.3462 19.1323 41.6457 19.5106 41.8147 19.77C41.9716 20.0109 42.0665 20.1442 42.1845 20.4078C42.2959 20.6565 42.3476 20.8038 42.4065 21.071C42.4794 21.4026 42.4854 21.5984 42.4804 21.9384C42.4762 22.2288 42.466 22.3943 42.4065 22.6781C42.3483 22.9552 42.2997 23.1096 42.1845 23.3669C41.9959 23.7883 41.5188 24.3363 41.5188 24.3363C41.5188 24.3363 42.031 24.1402 42.3078 23.9281C42.6982 23.629 42.8956 23.3906 43.0969 22.9332C43.213 22.6692 43.2511 22.5056 43.2941 22.219C43.3473 21.8646 43.3532 21.654 43.2941 21.3006C43.2422 20.9902 43.1834 20.8172 43.0475 20.5353C42.9176 20.2658 42.8237 20.1209 42.6284 19.8976C42.4497 19.6933 42.3353 19.5863 42.1106 19.4384C41.9471 19.3308 41.6667 19.2088 41.6667 19.2088Z" fill="#BF8C8E" fill-opacity="0.37"/>
<ellipse rx="1.27839" ry="1.69877" transform="matrix(0.882234 0.470811 -0.446206 0.89493 40.0759 20.9993)" fill="white" fill-opacity="0.41"/>
<ellipse rx="0.757688" ry="0.987279" transform="matrix(0.877263 0.480009 -0.455183 0.890398 40.2409 20.4771)" fill="white" fill-opacity="0.41"/>
<ellipse rx="0.514166" ry="0.634169" transform="matrix(0.877263 0.480009 -0.455183 0.890398 40.212 20.1478)" fill="white" fill-opacity="0.41"/>
<path d="M19.5112 29.0162L17.25 30.5509L19.2992 30.9163C20.2178 30.9163 22.3942 31.2817 22.903 31.2817C23.4117 31.2817 25.2348 32.3779 26.1534 32.9625C26.1534 32.9625 27.6468 31.8556 28.6266 31.2817C29.7903 30.6 30.4754 30.1028 31.8064 29.9663C33.0885 29.8347 33.9412 29.8842 35.0568 30.5509C35.9524 31.0861 36.3321 32.3646 37.2473 31.9394C37.586 31.7821 37.9539 31.2817 37.9539 31.2817C37.9539 31.2817 39.3604 29.6904 40.4978 29.0162C41.7546 28.2712 42.6127 28.1527 44.0309 27.8469C45.0931 27.618 46.7867 27.4815 46.7867 27.4815C46.7867 27.4815 41.911 25.143 40.4978 25.143C39.0845 25.143 39.7418 25.453 39.2965 25.7276C38.4403 26.2557 36.894 27.847 36.894 27.847C36.894 27.847 35.2732 26.5594 34.0675 26.0931C33.0385 25.6951 32.8947 24.9882 31.8064 25.143C30.6565 25.3065 30.143 25.9897 29.1919 26.6776C27.5122 27.8926 25.5881 30.5509 25.5881 30.5509L24.4575 29.9663C24.4575 29.9663 23.0281 28.4424 21.843 28.3585C20.6825 28.2764 19.5112 29.0162 19.5112 29.0162Z" fill="url(#paint7_linear)"/>
<path d="M41.1083 28.2942C39.6909 29.1444 37.7297 30.9343 37.7297 30.9343L36.6954 31.4002C36.6954 31.4002 35.2948 29.8524 34.1442 29.4589C33.0106 29.0712 32.233 29.0324 31.1104 29.4589C30.2258 29.795 29.9352 30.441 29.1108 30.9343C28.0642 31.5605 26.2838 32.1767 26.2838 32.1767C26.2838 32.1767 25.4163 31.6649 24.8358 31.4002C23.5222 30.8011 22.736 30.4298 21.3193 30.3907C20.1465 30.3584 17.5952 30.5664 17.5952 30.5664L18.2163 32.1767C18.2163 32.1767 19.4585 34.6323 22.1499 35.8666C24.8414 37.1008 25.9387 37.8249 27.7398 38.311C29.5409 38.797 33.2699 38.8508 35.3164 38.6992L40.5567 38.311C42.6032 38.1593 42.6015 37.9721 44.2801 37.1734C45.9587 36.3748 46.5103 36.1026 47.3829 34.9953C48.2556 33.888 49.3673 32.3096 49.5894 30.9343C49.7532 29.9199 50.0217 29.203 49.5894 28.2942C49.1162 27.2994 48.3421 27.1458 47.3829 26.8189C46.2232 26.4236 45.471 26.5667 44.2801 26.8189C42.963 27.0978 42.2912 27.5847 41.1083 28.2942Z" fill="url(#paint8_linear)"/>
<g filter="url(#filter1_d)">
<ellipse cx="37.3962" cy="35.4951" rx="2.06535" ry="2.25928" fill="#A99A95"/>
<path d="M39.3583 34.8549L36.3979 33.5301C36.6903 33.3619 36.9096 33.2988 37.2568 33.2357L38.9563 34.0348C39.139 34.2871 39.2486 34.4974 39.3583 34.8549Z" fill="#BAA393"/>
<path d="M39.3554 34.7929C39.4086 35.0022 39.4274 35.1373 39.4446 35.3067L35.9507 33.8949C36.0925 33.7426 36.1815 33.6511 36.3942 33.537L39.3554 34.7929Z" fill="#C9C0BB"/>
<path d="M36.8057 35.3486C36.3111 35.1223 35.6697 34.6896 35.6181 34.5955C35.5665 34.5014 35.532 34.5955 35.532 34.5955C35.532 34.5955 35.4361 34.9354 35.4116 35.1603C35.3853 35.4013 35.4116 35.7816 35.4116 35.7816C35.4116 35.7816 35.7778 35.9788 36.014 36.1017C36.3616 36.2826 36.5533 36.3923 36.9089 36.5536C37.3508 36.7539 37.6057 36.8488 38.0621 37.0054C38.3158 37.0925 38.7161 37.2125 38.7161 37.2125C39.0948 36.7607 39.2325 36.5536 39.3874 36.1017C39.3874 36.1017 39.1457 36.0464 38.9915 36.0076C38.6055 35.9103 38.3926 35.8394 38.0105 35.7252C37.5384 35.5841 37.2571 35.5552 36.8057 35.3486Z" fill="#B8A191"/>
<path d="M35.3489 35.7962C35.403 36.0383 35.3858 36.0942 35.494 36.3176L38.2541 37.4907C38.4706 37.3604 38.5247 37.3417 38.7051 37.2114L35.3489 35.7962Z" fill="#978675"/>
<path d="M35.5032 36.2858C35.5032 36.4176 35.5548 36.5305 35.6987 36.7236L37.7249 37.679C37.9472 37.6413 38.0282 37.5941 38.2226 37.5397L35.5032 36.2858Z" fill="#D5CDCA"/>
<path d="M36.5821 35.7251C36.488 35.6292 36.3129 35.5585 36.3775 35.4252C36.4226 35.332 36.4999 35.4176 36.5821 35.4252C36.6772 35.434 36.7173 35.5322 36.8037 35.5867C36.9305 35.6668 37.0093 35.6931 37.1276 35.7943C37.2356 35.8868 37.451 35.9244 37.3833 36.0712C37.3607 36.1201 37.3365 36.0464 37.298 36.0712C37.2259 36.1176 37.1718 36.0928 37.0935 36.0712C36.9914 36.0431 36.9651 35.9959 36.8719 35.9328C36.7653 35.8607 36.6772 35.8221 36.5821 35.7251Z" fill="#BFB4AE"/>
<ellipse rx="0.928523" ry="1.06631" transform="matrix(0.479076 0.877774 -0.837259 0.546807 37.0867 34.3605)" fill="white" fill-opacity="0.37"/>
<ellipse rx="0.599724" ry="0.689988" transform="matrix(0.479076 0.877774 -0.837259 0.546807 37.091 34.0642)" fill="white" fill-opacity="0.37"/>
<ellipse rx="0.368332" ry="0.510533" transform="matrix(0.479076 0.877774 -0.837259 0.546807 37.1308 33.8382)" fill="white" fill-opacity="0.37"/>
<path d="M39.0143 34.0453C38.8894 33.881 38.6357 33.6876 38.6357 33.6876C38.6357 33.6876 38.7377 33.9601 38.7906 34.1394C38.8462 34.3279 38.8824 34.4335 38.9111 34.629C38.9547 34.9266 38.9488 35.1023 38.9111 35.4009C38.8837 35.6182 38.8579 35.7403 38.7906 35.9469C38.7229 36.1544 38.6621 36.2611 38.5668 36.4552C38.4971 36.5974 38.4668 36.6844 38.3775 36.8129C38.3113 36.9082 38.2657 36.9543 38.1882 37.0389C38.0566 37.1825 37.9698 37.2478 37.8268 37.3777C37.6612 37.5281 37.3621 37.7543 37.3621 37.7543C37.3621 37.7543 37.6617 37.7385 37.8268 37.6978C38.0072 37.6534 38.1129 37.6387 38.2743 37.5284C38.4356 37.4181 38.44 37.4504 38.6013 37.3401C38.7626 37.2298 38.9688 37.0104 39.1004 36.8129C39.2244 36.6269 39.2701 36.5023 39.3414 36.2858C39.4115 36.0726 39.4427 35.9465 39.4618 35.7209C39.483 35.4716 39.4699 35.3269 39.4274 35.0808C39.3895 34.8614 39.3716 34.7393 39.2897 34.5348C39.2088 34.3327 39.1433 34.215 39.0143 34.0453Z" fill="#76685B" fill-opacity="0.48"/>
</g>
<path d="M21.3909 25.4881V28.3922C21.3909 28.3922 22.1686 25.9435 22.9781 24.5442C23.5157 23.6149 23.8937 23.1391 24.5533 22.3087L24.5654 22.2935C25.4331 21.201 25.9429 20.5932 26.9808 19.6797C27.8867 18.8823 29.4651 17.8646 29.4651 17.8646C29.4651 17.8646 29.1218 17.3838 28.844 17.1385C27.7814 16.2002 26.5728 15.9933 25.3245 16.6303C24.7063 16.9458 24.4653 17.3202 24.0133 17.8646C23.1173 18.9438 22.426 21.1318 22.426 21.1318L21.3909 25.4881Z" fill="white"/>
<ellipse cx="21.4596" cy="32.672" rx="0.75912" ry="1.16167" fill="white"/>
<path d="M55.551 33.398L56.9312 33.9063" stroke="#233F8A" stroke-width="10"/>
<path d="M54.585 35.2132L56.1722 36.157" stroke="#233F8A" stroke-width="10"/>
<path d="M14.6277 21.6996L15.6135 21.9985" stroke="#18215A" stroke-width="10"/>
<path d="M14.1973 23.727L15.1959 23.9742" stroke="#18215A" stroke-width="10"/>
</g>
<defs>
<filter id="filter0_d" x="0" y="0" width="80.0001" height="117.74" filterUnits="userSpaceOnUse" color-interpolation-filters="sRGB">
<feFlood flood-opacity="0" result="BackgroundImageFix"/>
<feColorMatrix in="SourceAlpha" type="matrix" values="0 0 0 0 0 0 0 0 0 0 0 0 0 0 0 0 0 0 127 0"/>
<feOffset dy="4"/>
<feGaussianBlur stdDeviation="2"/>
<feColorMatrix type="matrix" values="0 0 0 0 0 0 0 0 0 0 0 0 0 0 0 0 0 0 0.25 0"/>
<feBlend mode="normal" in2="BackgroundImageFix" result="effect1_dropShadow"/>
<feBlend mode="normal" in="SourceGraphic" in2="effect1_dropShadow" result="shape"/>
</filter>
<filter id="filter1_d" x="31.3308" y="33.2357" width="12.141" height="12.5186" filterUnits="userSpaceOnUse" color-interpolation-filters="sRGB">
<feFlood flood-opacity="0" result="BackgroundImageFix"/>
<feColorMatrix in="SourceAlpha" type="matrix" values="0 0 0 0 0 0 0 0 0 0 0 0 0 0 0 0 0 0 127 0"/>
<feOffset dy="4"/>
<feGaussianBlur stdDeviation="2"/>
<feColorMatrix type="matrix" values="0 0 0 0 0 0 0 0 0 0 0 0 0 0 0 0 0 0 0.25 0"/>
<feBlend mode="normal" in2="BackgroundImageFix" result="effect1_dropShadow"/>
<feBlend mode="normal" in="SourceGraphic" in2="effect1_dropShadow" result="shape"/>
</filter>
<linearGradient id="paint0_linear" x1="4.13784" y1="74.3469" x2="41.2002" y2="99.0065" gradientUnits="userSpaceOnUse">
<stop offset="0.194811" stop-color="#B0E0EA"/>
<stop offset="0.697987" stop-color="#B0E0EA"/>
<stop offset="0.947128" stop-color="#B0E0EA"/>
</linearGradient>
<radialGradient id="paint1_angular" cx="0" cy="0" r="1" gradientUnits="userSpaceOnUse" gradientTransform="translate(10.3244 10.8279) rotate(56.98) scale(2.09814 2.06406)">
<stop stop-color="#29499D"/>
<stop offset="1" stop-color="#29499D" stop-opacity="0"/>
</radialGradient>
<radialGradient id="paint2_radial" cx="0" cy="0" r="1" gradientUnits="userSpaceOnUse" gradientTransform="translate(25.3242 55.6151) rotate(90) scale(1.16167 1.44923)">
<stop stop-color="white"/>
<stop offset="1" stop-color="white" stop-opacity="0"/>
</radialGradient>
<linearGradient id="paint3_linear" x1="53.2739" y1="50.3875" x2="79.056" y2="31.3273" gradientUnits="userSpaceOnUse">
<stop offset="0.56689" stop-color="#B0E0EA"/>
<stop offset="1" stop-color="#6FA9B6"/>
</linearGradient>
<linearGradient id="paint4_linear" x1="9.65887" y1="84.2939" x2="7.25279" y2="85.6392" gradientUnits="userSpaceOnUse">
<stop stop-color="white"/>
<stop offset="1" stop-color="white" stop-opacity="0"/>
</linearGradient>
<linearGradient id="paint5_linear" x1="19.0529" y1="-1.43058e-07" x2="22.642" y2="36.8269" gradientUnits="userSpaceOnUse">
<stop stop-color="#4880E8"/>
<stop offset="1" stop-color="#3468C9" stop-opacity="0"/>
</linearGradient>
<linearGradient id="paint6_linear" x1="33.5363" y1="12.7784" x2="33.5363" y2="39.1683" gradientUnits="userSpaceOnUse">
<stop stop-color="#004163"/>
<stop offset="0.353332" stop-color="#3E9AC9"/>
<stop offset="0.624186" stop-color="#3B98C8"/>
<stop offset="0.910667" stop-color="#004163"/>
</linearGradient>
<linearGradient id="paint7_linear" x1="32.0183" y1="25.1212" x2="31.9428" y2="31.6983" gradientUnits="userSpaceOnUse">
<stop stop-color="#4771DE"/>
<stop offset="1" stop-color="#0E1A3A"/>
</linearGradient>
<linearGradient id="paint8_linear" x1="33.7093" y1="26.5732" x2="33.7093" y2="38.7742" gradientUnits="userSpaceOnUse">
<stop stop-color="#090083"/>
<stop offset="1" stop-color="#312A8D" stop-opacity="0.3"/>
</linearGradient>
</defs>
</svg>
