<svg width="89" height="92" viewBox="0 0 89 92" fill="none" xmlns="http://www.w3.org/2000/svg">
<path d="M4.01382 35.0624C-8.40408 43.1271 40.6667 11.8766 40.6667 11.8766" stroke="black" stroke-width="4"/>
<path d="M67.133 87.6595C63.3199 101.853 78.3878 46.8523 78.3878 46.8523" stroke="#0F375A" stroke-width="4"/>
<ellipse cx="61.0506" cy="28.4383" rx="27.9493" ry="28.4383" fill="#A4C6E2"/>
<path d="M80.1739 49.1404C55.1667 70.7143 17.0254 41.5133 39.3845 10.46L80.1739 49.1404Z" fill="#1A598E"/>
<path d="M71.6785 44.272C52.2015 62.4424 21.7035 43.1726 36.7391 15.1231L71.6785 44.272Z" fill="#4A8CC6"/>
<ellipse cx="55.587" cy="16.0168" rx="1.26087" ry="1.19855" fill="#0E0E0E"/>
<ellipse cx="48.652" cy="22.7725" rx="1.26087" ry="1.19855" fill="#0E0E0E"/>
<ellipse cx="56.8478" cy="32.7966" rx="1.26087" ry="1.19855" fill="#0E0E0E"/>
<ellipse cx="66.5145" cy="42.1671" rx="1.26087" ry="1.19855" fill="#0E0E0E"/>
<path d="M61.0508 34.9718L64.0026 37.5324C64.0026 37.5324 71.1572 30.752 71.9258 30.1271C72.6944 29.5022 73.2684 27.7446 72.7115 27.0744C71.9541 26.1631 70.2093 26.2574 69.7279 26.6659C69.2464 27.0744 61.0508 34.9718 61.0508 34.9718Z" fill="#185E99"/>
<ellipse cx="73.3444" cy="35.1937" rx="1.26087" ry="1.19855" fill="#0E0E0E"/>
<ellipse cx="63.9928" cy="25.1694" rx="1.26087" ry="1.19855" fill="#0E0E0E"/>
<path d="M11.3811 60.3988C-3.5777 72.2539 54.9566 25.4964 54.9566 25.4964" stroke="black" stroke-width="4"/>
<path d="M28.0578 76.5981C15.0287 91.8523 64.601 33.9953 64.601 33.9953" stroke="#0E3659" stroke-width="4"/>
<path d="M61.4709 35.6826L63.4148 37.3729C63.4148 37.3729 68.5395 32.1224 69.0205 31.6833C69.5015 31.2442 69.8575 29.8353 69.509 29.3644C69.0351 28.7241 67.2023 29.559 66.901 29.8461C66.5998 30.1331 61.4709 35.6826 61.4709 35.6826Z" fill="#001E38"/>
<path d="M88.0542 21.6829C87.0988 17.8482 83.7505 11.8766 83.7505 11.8766C83.7505 11.8766 85.7126 16.2293 86.1179 19.2135C86.4273 21.4927 86.3348 22.8138 86.1179 25.1037C85.8252 28.1933 85.4452 29.9451 84.3681 32.854C83.7351 34.5634 83.2848 35.4913 82.4124 37.0909C80.7405 40.1565 79.6139 41.8422 77.1631 44.3245C74.1099 47.417 71.9309 48.7829 68.0025 50.6281C65.4234 51.8395 63.8918 52.4119 61.1063 53.0048C56.3484 54.0177 48.7571 53.8257 48.7571 53.8257C48.7571 53.8257 54.3346 56.3128 58.5288 56.6586C63.4092 57.061 66.1517 56.5839 70.7172 54.8063C74.9917 53.1421 78.6363 50.7658 80.489 48.5957C82.3417 46.4256 84.1622 44.6089 86.1179 40.4238C88.0735 36.2386 88.9998 30.4452 88.9998 27.4805C88.9998 24.5158 88.6812 24.1994 88.0542 21.6829Z" fill="#676767" fill-opacity="0.4"/>
<path d="M50.6484 26.5819L53.6003 29.1424C53.6003 29.1424 60.7549 22.3621 61.5234 21.7372C62.292 21.1123 62.8661 19.3546 62.3091 18.6845C61.5518 17.7732 59.4831 18.276 59.0017 18.6845C58.5203 19.093 50.6484 26.5819 50.6484 26.5819Z" fill="#185E99"/>
<path d="M51.0679 27.0372L53.1274 28.7116C53.1274 28.7116 58.4207 23.7196 58.9218 23.3052C59.4229 22.8907 59.4852 21.7524 59.1317 21.2958C58.651 20.6749 57.0736 21.242 56.7595 21.5131C56.4455 21.7842 51.0679 27.0372 51.0679 27.0372Z" fill="#001E38"/>
<ellipse cx="59.4221" cy="7.95403" rx="10.2446" ry="6.75545" fill="white" fill-opacity="0.36"/>
<ellipse cx="60.8405" cy="7.24579" rx="7.98551" ry="6.04722" fill="white" fill-opacity="0.36"/>
<ellipse cx="62.2065" cy="5.82938" rx="5.77899" ry="4.52179" fill="white" fill-opacity="0.36"/>
</svg>
