<svg width="183" height="187" viewBox="0 0 183 187" fill="none" xmlns="http://www.w3.org/2000/svg">
<g filter="url(#filter0_d)">
<path d="M73.0293 120.629L77.5651 123.572L79.4355 135.903L96.0119 153.583L92.125 154.778L74.9375 136.446L73.0293 120.629Z" fill="#489ADD"/>
<path d="M77.2379 123.419L81.5464 126.114L82.9828 133.694L93.3757 144.779L95.898 153.69L78.7067 135.354L77.2379 123.419Z" fill="#4FB0FE"/>
<path d="M152.015 158.642C153.581 157.174 146.44 140.677 141.626 135.007C137.437 130.073 129.511 129.219 129.511 129.219L124.243 134.158C124.243 134.158 124.52 142.184 129.24 146.62C134.664 151.718 150.448 160.111 152.015 158.642Z" fill="#D64846"/>
<path d="M149.648 156.268C150.978 155.021 144.783 140.871 140.637 135.994C137.029 131.75 130.251 130.975 130.251 130.975L125.777 135.169C125.777 135.169 126.059 142.036 130.117 145.857C134.781 150.248 148.318 157.515 149.648 156.268Z" fill="#D4811A"/>
<path d="M146.615 152.988C147.43 152.224 140.62 140.337 136.755 135.936C133.393 132.107 128.162 130.484 128.162 130.484L125.42 133.055C125.42 133.055 126.669 138.412 130.308 141.982C134.489 146.084 145.8 153.752 146.615 152.988Z" fill="#E9A854"/>
<path d="M120.12 141.698L137.295 125.595C135.672 124.247 133.636 123.776 131.991 123.219L118.349 136.01C118.809 137.153 118.897 139.957 120.12 141.698Z" fill="#1E7FCE"/>
<path d="M119.632 76.9363L122.287 81.6426L134.416 84.3557L150.993 102.036L152.406 98.2615L135.219 79.9292L119.632 76.9363Z" fill="#489ADD"/>
<path d="M122.156 81.3061L124.568 85.7792L132.04 87.7007L142.433 98.7859L151.163 101.877L133.971 83.5404L122.156 81.3061Z" fill="#4FB0FE"/>
<path d="M124.419 85.3087L127.08 93.2294L142.91 98.8974L132.482 86.7226L124.419 85.3087Z" fill="#C4C4C4"/>
<path d="M81.0865 125.935L88.8194 129.1L93.4562 145.263L81.9782 134.072L81.0865 125.935Z" fill="#C4C4C4"/>
<path d="M108.446 64.1533C129.203 86.2926 144.713 113.741 126.348 130.96C105.773 150.25 81.9303 130.613 61.1736 108.474C40.4169 86.3344 35.7937 63.6818 40.6399 39.542C64.3959 36.2534 87.6896 42.0139 108.446 64.1533Z" fill="#FDF9F0"/>
<path d="M55.929 36.8429C49.1584 36.6076 45.5612 37.4046 38.6538 37.4235C38.6538 37.4235 36.8553 47.1961 37.1822 53.6535C37.3316 56.6059 36.5153 58.653 37.9913 61.1621C38.7668 62.4805 39.3351 63.2532 40.6649 64.0138C42.8148 65.2436 44.6023 64.6287 47.1127 64.2456C50.0955 63.7904 51.7478 62.9864 54.3703 61.4218C57.7639 59.3971 59.4609 57.6973 61.7673 54.4867C63.6725 51.8346 64.9162 50.1983 65.4777 47.0276C65.8938 44.6776 66.2926 43.0543 65.2365 40.9767C64.5425 39.6116 63.8473 38.9568 62.5629 38.125C60.4341 36.7465 55.929 36.8429 55.929 36.8429Z" fill="#6E6762"/>
<ellipse cx="81.5252" cy="82.8099" rx="19.3467" ry="21.7788" transform="rotate(-43.1539 81.5252 82.8099)" fill="#696868"/>
<rect x="33.6096" y="35.1105" width="4.66185" height="16.0828" transform="rotate(-43.1539 33.6096 35.1105)" fill="#6E6762"/>
<ellipse cx="33.9434" cy="31.8885" rx="5.71077" ry="5.24925" transform="rotate(-43.1539 33.9434 31.8885)" fill="#AC9D96"/>
<ellipse cx="32.3972" cy="32.1135" rx="3.49639" ry="3.68564" transform="rotate(-43.1539 32.3972 32.1135)" fill="#6E6762"/>
<ellipse cx="31.845" cy="31.8655" rx="2.56402" ry="2.4571" transform="rotate(-43.1539 31.845 31.8655)" fill="white" fill-opacity="0.45"/>
<ellipse cx="31.675" cy="32.0249" rx="1.63165" ry="1.56361" transform="rotate(-43.1539 31.675 32.0249)" fill="white" fill-opacity="0.45"/>
<ellipse cx="31.1147" cy="31.9381" rx="0.815824" ry="1.11686" transform="rotate(-43.1539 31.1147 31.9381)" fill="white" fill-opacity="0.45"/>
<ellipse cx="81.6013" cy="82.8914" rx="15.3841" ry="16.5296" transform="rotate(-43.1539 81.6013 82.8914)" fill="url(#paint0_linear)"/>
<ellipse cx="68.157" cy="68.5514" rx="1.63165" ry="1.56361" transform="rotate(-43.1539 68.157 68.5514)" fill="#FBFD8C"/>
<ellipse cx="94.5359" cy="97.7097" rx="1.63165" ry="1.56361" transform="rotate(-43.1539 94.5359 97.7097)" fill="#FBFD8C"/>
<path d="M72.5929 84.3913C72.9038 85.6103 73.3315 86.342 73.0625 87.5863C72.9452 88.1285 72.9936 88.5718 72.5541 88.9182C72.1791 89.2138 71.8334 89.2371 71.3676 89.1753C70.5131 89.0619 70.2164 88.4244 69.6985 87.7465C68.7966 86.5657 68.5479 85.6279 68.1263 84.1954C67.8696 83.3234 67.7277 81.8961 67.7277 81.8961C67.7277 81.8961 67.1301 79.1025 67.7613 77.481C68.1557 76.4678 68.435 75.8007 69.3216 75.1627C69.892 74.7523 70.283 74.4371 70.9757 74.4673C71.6581 74.497 72.1311 74.7171 72.5052 75.2786C73.0202 76.0518 72.3576 76.7425 72.2279 77.6769C72.0185 79.1854 71.3735 80.0184 71.549 81.521C71.6881 82.7119 72.2975 83.2332 72.5929 84.3913Z" fill="white" fill-opacity="0.6"/>
<ellipse cx="94.5251" cy="70.7751" rx="1.63165" ry="1.56361" transform="rotate(-43.1539 94.5251 70.7751)" fill="#FBFD8C"/>
<ellipse cx="68.6782" cy="95.0079" rx="1.63165" ry="1.56361" transform="rotate(-43.1539 68.6782 95.0079)" fill="#FBFD8C"/>
<mask id="path-26-inside-1" fill="white">
<ellipse cx="114.474" cy="128.007" rx="1.28201" ry="1.34023" transform="rotate(-43.1539 114.474 128.007)"/>
</mask>
<ellipse cx="114.474" cy="128.007" rx="1.28201" ry="1.34023" transform="rotate(-43.1539 114.474 128.007)" fill="#C4C4C4"/>
<path d="M113.95 128.498C113.759 128.294 113.673 127.854 114.023 127.526L116.759 130.444C118.142 129.148 118.072 127.046 116.869 125.762L113.95 128.498ZM114.023 127.526C114.373 127.198 114.807 127.312 114.998 127.516L112.08 130.252C113.284 131.536 115.376 131.74 116.759 130.444L114.023 127.526ZM114.998 127.516C115.189 127.72 115.275 128.161 114.925 128.489L112.19 125.57C110.807 126.867 110.876 128.968 112.08 130.252L114.998 127.516ZM114.925 128.489C114.576 128.816 114.142 128.702 113.95 128.498L116.869 125.762C115.665 124.478 113.572 124.274 112.19 125.57L114.925 128.489Z" fill="black" mask="url(#path-26-inside-1)"/>
<mask id="path-28-inside-2" fill="white">
<ellipse cx="117.705" cy="124.978" rx="1.28201" ry="1.34023" transform="rotate(-43.1539 117.705 124.978)"/>
</mask>
<ellipse cx="117.705" cy="124.978" rx="1.28201" ry="1.34023" transform="rotate(-43.1539 117.705 124.978)" fill="#C4C4C4"/>
<path d="M117.181 125.469C116.99 125.265 116.904 124.825 117.254 124.497L119.99 127.415C121.372 126.118 121.303 124.017 120.099 122.733L117.181 125.469ZM117.254 124.497C117.603 124.169 118.037 124.283 118.229 124.487L115.311 127.223C116.515 128.507 118.607 128.711 119.99 127.415L117.254 124.497ZM118.229 124.487C118.42 124.691 118.506 125.132 118.156 125.459L115.42 122.541C114.038 123.838 114.107 125.939 115.311 127.223L118.229 124.487ZM118.156 125.459C117.807 125.787 117.372 125.673 117.181 125.469L120.099 122.733C118.895 121.449 116.803 121.245 115.42 122.541L118.156 125.459Z" fill="black" mask="url(#path-28-inside-2)"/>
<mask id="path-30-inside-3" fill="white">
<ellipse cx="120.936" cy="121.949" rx="1.28201" ry="1.34023" transform="rotate(-43.1539 120.936 121.949)"/>
</mask>
<ellipse cx="120.936" cy="121.949" rx="1.28201" ry="1.34023" transform="rotate(-43.1539 120.936 121.949)" fill="#C4C4C4"/>
<path d="M120.412 122.44C120.221 122.236 120.135 121.795 120.485 121.468L123.22 124.386C124.603 123.089 124.534 120.988 123.33 119.704L120.412 122.44ZM120.485 121.468C120.834 121.14 121.268 121.254 121.46 121.458L118.542 124.194C119.745 125.478 121.838 125.682 123.22 124.386L120.485 121.468ZM121.46 121.458C121.651 121.662 121.737 122.102 121.387 122.43L118.651 119.512C117.269 120.809 117.338 122.91 118.542 124.194L121.46 121.458ZM121.387 122.43C121.037 122.758 120.603 122.644 120.412 122.44L123.33 119.704C122.126 118.42 120.034 118.216 118.651 119.512L121.387 122.43Z" fill="black" mask="url(#path-30-inside-3)"/>
<mask id="path-32-inside-4" fill="white">
<ellipse cx="124.167" cy="118.92" rx="1.28201" ry="1.34023" transform="rotate(-43.1539 124.167 118.92)"/>
</mask>
<ellipse cx="124.167" cy="118.92" rx="1.28201" ry="1.34023" transform="rotate(-43.1539 124.167 118.92)" fill="#C4C4C4"/>
<path d="M123.643 119.411C123.452 119.207 123.366 118.766 123.716 118.439L126.451 121.357C127.834 120.06 127.765 117.959 126.561 116.675L123.643 119.411ZM123.716 118.439C124.065 118.111 124.499 118.225 124.691 118.429L121.773 121.165C122.976 122.449 125.069 122.653 126.451 121.357L123.716 118.439ZM124.691 118.429C124.882 118.633 124.968 119.073 124.618 119.401L121.882 116.483C120.5 117.779 120.569 119.881 121.773 121.165L124.691 118.429ZM124.618 119.401C124.268 119.729 123.834 119.615 123.643 119.411L126.561 116.675C125.357 115.391 123.265 115.187 121.882 116.483L124.618 119.401Z" fill="black" mask="url(#path-32-inside-4)"/>
<path d="M107.363 138.655L133.975 113.705C134.511 114.876 134.142 116.61 133.818 118.138L112.622 138.47C111.653 138.46 108.543 139.232 107.363 138.655Z" fill="#489ADD"/>
</g>
<defs>
<filter id="filter0_d" x="24.4436" y="26.4185" width="131.963" height="140.394" filterUnits="userSpaceOnUse" color-interpolation-filters="sRGB">
<feFlood flood-opacity="0" result="BackgroundImageFix"/>
<feColorMatrix in="SourceAlpha" type="matrix" values="0 0 0 0 0 0 0 0 0 0 0 0 0 0 0 0 0 0 127 0"/>
<feOffset dy="4"/>
<feGaussianBlur stdDeviation="2"/>
<feColorMatrix type="matrix" values="0 0 0 0 0 0 0 0 0 0 0 0 0 0 0 0 0 0 0.25 0"/>
<feBlend mode="normal" in2="BackgroundImageFix" result="effect1_dropShadow"/>
<feBlend mode="normal" in="SourceGraphic" in2="effect1_dropShadow" result="shape"/>
</filter>
<linearGradient id="paint0_linear" x1="76.4733" y1="71.4994" x2="92.136" y2="93.1384" gradientUnits="userSpaceOnUse">
<stop stop-color="#65CFE6"/>
<stop offset="1" stop-color="#004B75"/>
</linearGradient>
</defs>
</svg>
