<svg width="175" height="183" viewBox="0 0 175 183" fill="none" xmlns="http://www.w3.org/2000/svg">
<g filter="url(#filter0_d)">
<path d="M58.0092 75.2651L55.8039 79.8565L44.0204 82.3984L29.1873 99.5818L27.442 95.8642L42.822 78.0473L58.0092 75.2651Z" fill="#489ADD"/>
<path d="M55.9046 79.529L53.9083 83.8844L46.7075 85.7262L37.4076 96.4997L29.066 99.4773L44.4494 81.6565L55.9046 79.529Z" fill="#4FB0FE"/>
<path d="M32.5508 154.446C34.2194 155.886 49.2953 147.966 54.1266 142.944C58.3305 138.575 57.9902 130.802 57.9902 130.802L52.3778 125.957C52.3778 125.957 44.5684 126.695 40.9298 131.552C36.7481 137.135 30.8823 153.005 32.5508 154.446Z" fill="#D64846"/>
<path d="M34.5214 152.001C35.9385 153.225 48.8596 146.363 53.0143 142.038C56.6294 138.275 56.3821 131.626 56.3821 131.626L51.6154 127.511C51.6154 127.511 44.941 128.186 41.806 132.363C38.2031 137.164 33.1043 150.778 34.5214 152.001Z" fill="#D4811A"/>
<path d="M37.2799 148.854C38.1485 149.604 48.7643 142.275 52.4948 138.253C55.7408 134.753 56.5526 129.561 56.5526 129.561L53.6311 127.039C53.6311 127.039 48.5769 128.569 45.6252 132.323C42.2329 136.637 36.4114 148.105 37.2799 148.854Z" fill="#E9A854"/>
<path d="M44.3916 122.379L62.6896 138.175C63.7675 136.515 63.926 134.504 64.2267 132.868L49.6921 120.322C48.6417 120.836 45.9121 121.086 44.3916 122.379Z" fill="#1E7FCE"/>
<path d="M107.66 118.125L103.451 120.987L102.598 132.964L87.7645 150.147L91.6663 151.304L107.046 133.487L107.66 118.125Z" fill="#489ADD"/>
<path d="M103.761 120.84L99.7437 123.45L98.9732 130.843L89.6732 141.616L87.9456 150.303L103.329 132.483L103.761 120.84Z" fill="#4FB0FE"/>
<path d="M100.182 123.278L92.8299 126.333L89.6354 142.089L99.9959 131.217L100.182 123.278Z" fill="#C4C4C4"/>
<path d="M54.0153 83.4255L52.067 91.145L36.9464 96.6061L46.1888 84.7691L54.0153 83.4255Z" fill="#C4C4C4"/>
<path d="M118.504 106.48C99.9302 127.997 75.3845 144.711 55.8183 127.821C33.8969 108.898 49.5653 84.5205 68.1392 63.0037C86.713 41.4869 108.183 35.6605 132.513 38.9741C139.255 61.9299 137.078 84.9631 118.504 106.48Z" fill="#130998"/>
<path d="M137.422 53.7146C136.647 47.1036 135.334 43.645 134.29 36.9156C134.29 36.9156 124.465 35.7333 118.198 36.4286C115.332 36.7465 113.209 36.0705 110.974 37.6551C109.799 38.4877 109.128 39.0865 108.581 40.4266C107.697 42.5932 108.564 44.299 109.311 46.7228C110.199 49.6026 111.231 51.1656 113.15 53.6297C115.634 56.8183 117.549 58.3726 121.031 60.4326C123.908 62.1343 125.693 63.2508 128.878 63.6128C131.238 63.8812 132.885 64.1751 134.76 63.0248C135.992 62.269 136.53 61.5533 137.153 60.2533C138.185 58.0986 137.422 53.7146 137.422 53.7146Z" fill="#6E6762"/>
<ellipse cx="96.2599" cy="81.3369" rx="19.8645" ry="20.3987" transform="rotate(40.8016 96.2599 81.3369)" fill="#696868"/>
<rect x="135.804" y="31.8653" width="4.78663" height="15.0636" transform="rotate(40.8016 135.804 31.8653)" fill="#6E6762"/>
<ellipse cx="139.004" cy="32.0029" rx="5.86362" ry="4.9166" transform="rotate(40.8016 139.004 32.0029)" fill="#AC9D96"/>
<ellipse cx="138.555" cy="30.5092" rx="3.58997" ry="3.45208" transform="rotate(40.8016 138.555 30.5092)" fill="#6E6762"/>
<ellipse cx="138.716" cy="29.957" rx="2.63265" ry="2.30139" transform="rotate(40.8016 138.716 29.957)" fill="white" fill-opacity="0.45"/>
<ellipse cx="138.535" cy="29.8006" rx="1.67532" ry="1.46452" transform="rotate(40.8016 138.535 29.8006)" fill="white" fill-opacity="0.45"/>
<ellipse cx="138.536" cy="29.2493" rx="0.83766" ry="1.04609" transform="rotate(40.8016 138.536 29.2493)" fill="white" fill-opacity="0.45"/>
<ellipse cx="96.1921" cy="81.4164" rx="15.7959" ry="15.4821" transform="rotate(40.8016 96.1921 81.4164)" fill="url(#paint0_linear)"/>
<ellipse cx="108.223" cy="67.4795" rx="1.67532" ry="1.46452" transform="rotate(40.8016 108.223 67.4795)" fill="#FBFD8C"/>
<ellipse cx="83.6178" cy="94.8836" rx="1.67532" ry="1.46452" transform="rotate(40.8016 83.6178 94.8836)" fill="#FBFD8C"/>
<path d="M93.3876 72.7254C92.2414 73.0995 91.5892 73.5589 90.3323 73.3694C89.7846 73.2868 89.3581 73.3598 88.9541 72.9518C88.6094 72.6036 88.5352 72.2681 88.5266 71.8106C88.5107 70.9714 89.0902 70.6451 89.6764 70.1009C90.6974 69.1532 91.5778 68.8562 92.9164 68.3618C93.7311 68.0608 95.1061 67.8392 95.1061 67.8392C95.1061 67.8392 97.7498 67.0939 99.4295 67.6144C100.479 67.9396 101.173 68.1729 101.928 68.9995C102.415 69.5314 102.781 69.8939 102.854 70.5707C102.926 71.2373 102.781 71.711 102.288 72.1083C101.608 72.6553 100.834 72.0499 99.9007 71.9781C98.3942 71.862 97.4837 71.2821 96.0401 71.5408C94.8959 71.7458 94.4765 72.37 93.3876 72.7254Z" fill="white" fill-opacity="0.6"/>
<ellipse cx="109.961" cy="93.3021" rx="1.67532" ry="1.46452" transform="rotate(40.8016 109.961 93.3021)" fill="#FBFD8C"/>
<ellipse cx="82.423" cy="69.5303" rx="1.67532" ry="1.46452" transform="rotate(40.8016 82.423 69.5303)" fill="#FBFD8C"/>
<mask id="path-26-inside-1" fill="white">
<ellipse cx="56.9432" cy="116.079" rx="1.31632" ry="1.2553" transform="rotate(40.8016 56.9432 116.079)"/>
</mask>
<ellipse cx="56.9432" cy="116.079" rx="1.31632" ry="1.2553" transform="rotate(40.8016 56.9432 116.079)" fill="#C4C4C4"/>
<path d="M56.4257 115.632C56.7522 115.254 57.2126 115.328 57.4299 115.515L54.8161 118.543C56.134 119.681 58.2211 119.674 59.4536 118.246L56.4257 115.632ZM57.4299 115.515C57.6472 115.703 57.7873 116.148 57.4608 116.526L54.4329 113.912C53.2003 115.34 53.4982 117.406 54.8161 118.543L57.4299 115.515ZM57.4608 116.526C57.1343 116.904 56.6739 116.83 56.4566 116.643L59.0704 113.615C57.7525 112.477 55.6654 112.484 54.4329 113.912L57.4608 116.526ZM56.4566 116.643C56.2393 116.455 56.0992 116.011 56.4257 115.632L59.4536 118.246C60.6862 116.818 60.3883 114.753 59.0704 113.615L56.4566 116.643Z" fill="black" mask="url(#path-26-inside-1)"/>
<mask id="path-28-inside-2" fill="white">
<ellipse cx="60.3856" cy="119.05" rx="1.31632" ry="1.2553" transform="rotate(40.8016 60.3856 119.05)"/>
</mask>
<ellipse cx="60.3856" cy="119.05" rx="1.31632" ry="1.2553" transform="rotate(40.8016 60.3856 119.05)" fill="#C4C4C4"/>
<path d="M59.8681 118.603C60.1946 118.225 60.655 118.299 60.8722 118.486L58.2585 121.514C59.5764 122.652 61.6635 122.645 62.896 121.217L59.8681 118.603ZM60.8722 118.486C61.0895 118.674 61.2297 119.118 60.9032 119.497L57.8753 116.883C56.6427 118.311 56.9406 120.377 58.2585 121.514L60.8722 118.486ZM60.9032 119.497C60.5766 119.875 60.1163 119.801 59.899 119.614L62.5128 116.586C61.1949 115.448 59.1078 115.455 57.8753 116.883L60.9032 119.497ZM59.899 119.614C59.6817 119.426 59.5416 118.981 59.8681 118.603L62.896 121.217C64.1286 119.789 63.8307 117.723 62.5128 116.586L59.899 119.614Z" fill="black" mask="url(#path-28-inside-2)"/>
<mask id="path-30-inside-3" fill="white">
<ellipse cx="63.8285" cy="122.022" rx="1.31632" ry="1.2553" transform="rotate(40.8016 63.8285 122.022)"/>
</mask>
<ellipse cx="63.8285" cy="122.022" rx="1.31632" ry="1.2553" transform="rotate(40.8016 63.8285 122.022)" fill="#C4C4C4"/>
<path d="M63.311 121.575C63.6375 121.197 64.0978 121.27 64.3151 121.458L61.7014 124.486C63.0193 125.624 65.1063 125.617 66.3389 124.189L63.311 121.575ZM64.3151 121.458C64.5324 121.646 64.6725 122.09 64.346 122.469L61.3181 119.855C60.0856 121.283 60.3834 123.348 61.7014 124.486L64.3151 121.458ZM64.346 122.469C64.0195 122.847 63.5592 122.773 63.3419 122.586L65.9557 119.558C64.6377 118.42 62.5507 118.427 61.3181 119.855L64.346 122.469ZM63.3419 122.586C63.1246 122.398 62.9845 121.953 63.311 121.575L66.3389 124.189C67.5714 122.761 67.2736 120.695 65.9557 119.558L63.3419 122.586Z" fill="black" mask="url(#path-30-inside-3)"/>
<mask id="path-32-inside-4" fill="white">
<ellipse cx="67.2704" cy="124.993" rx="1.31632" ry="1.2553" transform="rotate(40.8016 67.2704 124.993)"/>
</mask>
<ellipse cx="67.2704" cy="124.993" rx="1.31632" ry="1.2553" transform="rotate(40.8016 67.2704 124.993)" fill="#C4C4C4"/>
<path d="M66.7529 124.546C67.0794 124.168 67.5397 124.242 67.757 124.429L65.1432 127.457C66.4612 128.595 68.5482 128.588 69.7808 127.16L66.7529 124.546ZM67.757 124.429C67.9743 124.617 68.1144 125.062 67.7879 125.44L64.76 122.826C63.5275 124.254 63.8253 126.32 65.1432 127.457L67.757 124.429ZM67.7879 125.44C67.4614 125.818 67.0011 125.744 66.7838 125.557L69.3975 122.529C68.0796 121.391 65.9926 121.398 64.76 122.826L67.7879 125.44ZM66.7838 125.557C66.5665 125.369 66.4264 124.925 66.7529 124.546L69.7808 127.16C71.0133 125.732 70.7155 123.667 69.3975 122.529L66.7838 125.557Z" fill="black" mask="url(#path-32-inside-4)"/>
<path d="M45.4731 109.771L73.826 134.246C72.7602 134.837 71.0095 134.578 69.4663 134.352L46.434 114.884C46.3006 113.94 45.0836 110.955 45.4731 109.771Z" fill="#489ADD"/>
</g>
<defs>
<filter id="filter0_d" x="22.0107" y="17.3924" width="139.866" height="150.824" filterUnits="userSpaceOnUse" color-interpolation-filters="sRGB">
<feFlood flood-opacity="0" result="BackgroundImageFix"/>
<feColorMatrix in="SourceAlpha" type="matrix" values="0 0 0 0 0 0 0 0 0 0 0 0 0 0 0 0 0 0 127 0"/>
<feOffset dy="4"/>
<feGaussianBlur stdDeviation="2"/>
<feColorMatrix type="matrix" values="0 0 0 0 0 0 0 0 0 0 0 0 0 0 0 0 0 0 0.25 0"/>
<feBlend mode="normal" in2="BackgroundImageFix" result="effect1_dropShadow"/>
<feBlend mode="normal" in="SourceGraphic" in2="effect1_dropShadow" result="shape"/>
</filter>
<linearGradient id="paint0_linear" x1="90.9268" y1="70.7463" x2="105.129" y2="92.2553" gradientUnits="userSpaceOnUse">
<stop stop-color="#65CFE6"/>
<stop offset="1" stop-color="#004B75"/>
</linearGradient>
</defs>
</svg>
