<svg width="138" height="117" viewBox="0 0 138 117" fill="none" xmlns="http://www.w3.org/2000/svg">
<path d="M37.4298 20.2901L42.1373 20.2236M44.0514 20.2076L48.533 20.4433M50.8022 20.4525L54.6122 20.7927M23.7418 27.4254L23.1499 30.2061M22.9647 32.2963L22.584 35.4795M23.0219 37.7801L22.6412 40.9633M23.0289 43.4125L22.6482 46.5957M68.136 32.6448L67.7553 35.8281M67.4698 38.2155L67.0891 41.3988M66.9143 44.486L66.5336 47.6692M66.6756 51.3601L66.2949 54.5434M40.6893 59.973L44.6283 60.6407M54.2147 62.0559L57.6415 63.213M34.233 58.905L38.981 59.8931M48.1503 61.0019L51.5771 62.1589M82.8843 97.4023L86.3111 98.5594M88.1197 98.342L91.5465 99.4991M94.4402 99.1514L97.867 100.308M68.234 70.3851L67.8533 73.5683M68.8549 76.7688L68.4742 79.9521M69.9679 84.265L69.5872 87.4482" stroke="#F4CD10"/>
<path d="M32.0664 12.8998L31.5125 18.9246L36.9389 21.1569L31.1702 22.6481L30.6164 28.6729L27.605 23.5697L21.8364 25.061L25.7439 20.4158L22.7325 15.3126L28.1589 17.5449L32.0664 12.8998Z" fill="url(#paint0_radial)"/>
<path d="M65.7204 15.2223L66.8412 21.2152L72.6484 21.9937L67.5339 24.919L68.6547 30.9119L64.373 26.7269L59.2585 29.6522L61.7267 24.1405L57.445 19.9555L63.2522 20.734L65.7204 15.2223Z" fill="url(#paint1_radial)"/>
<path d="M31.704 49.1019L30.0175 54.8989L34.956 58.0418L28.9752 58.4816L27.2887 64.2786L25.2789 58.7534L19.298 59.1932L24.0367 55.3387L22.0268 49.8135L26.9654 52.9564L31.704 49.1019Z" fill="url(#paint2_radial)"/>
<path d="M70.0297 55.4467L68.3432 61.2437L73.2817 64.3866L67.3009 64.8264L65.6144 70.6234L63.6045 65.0983L57.6237 65.5381L62.3624 61.6835L60.3525 56.1583L65.291 59.3013L70.0297 55.4467Z" fill="url(#paint3_radial)"/>
<path d="M76.3184 85.548L77.9012 91.4539L83.7412 91.8086L78.8794 95.1039L80.4621 101.01L75.8746 97.1405L71.0128 100.436L73.0393 94.7492L68.4518 90.88L74.2918 91.2347L76.3184 85.548Z" fill="url(#paint4_radial)"/>
<path d="M111.872 90.9257L110.185 96.7227L115.124 99.8656L109.143 100.305L107.457 106.102L105.447 100.577L99.466 101.017L104.205 97.1625L102.195 91.6373L107.133 94.7803L111.872 90.9257Z" fill="url(#paint5_radial)"/>
<defs>
<radialGradient id="paint0_radial" cx="0" cy="0" r="1" gradientUnits="userSpaceOnUse" gradientTransform="translate(28.8381 20.6206) rotate(112.691) scale(8.3686 8.07587)">
<stop stop-color="#F4E010"/>
<stop offset="1" stop-color="#F49910"/>
</radialGradient>
<radialGradient id="paint1_radial" cx="0" cy="0" r="1" gradientUnits="userSpaceOnUse" gradientTransform="translate(64.7454 23.5471) rotate(96.6801) scale(8.38169 8.06326)">
<stop stop-color="#F4E010"/>
<stop offset="1" stop-color="#F49910"/>
</radialGradient>
<radialGradient id="paint2_radial" cx="0" cy="0" r="1" gradientUnits="userSpaceOnUse" gradientTransform="translate(27.0547 56.0858) rotate(123.652) scale(8.38993 8.05534)">
<stop stop-color="#F4E010"/>
<stop offset="1" stop-color="#F49910"/>
</radialGradient>
<radialGradient id="paint3_radial" cx="0" cy="0" r="1" gradientUnits="userSpaceOnUse" gradientTransform="translate(65.3804 62.4306) rotate(123.652) scale(8.38993 8.05534)">
<stop stop-color="#F4E010"/>
<stop offset="1" stop-color="#F49910"/>
</radialGradient>
<radialGradient id="paint4_radial" cx="0" cy="0" r="1" gradientUnits="userSpaceOnUse" gradientTransform="translate(75.9973 93.9365) rotate(92.1923) scale(8.39456 8.0509)">
<stop stop-color="#F4E010"/>
<stop offset="1" stop-color="#F49910"/>
</radialGradient>
<radialGradient id="paint5_radial" cx="0" cy="0" r="1" gradientUnits="userSpaceOnUse" gradientTransform="translate(107.223 97.9096) rotate(123.652) scale(8.38993 8.05534)">
<stop stop-color="#F4E010"/>
<stop offset="1" stop-color="#F49910"/>
</radialGradient>
</defs>
</svg>
