<svg width="110" height="181" viewBox="0 0 110 181" fill="none" xmlns="http://www.w3.org/2000/svg">
<path d="M39.2456 169.757L37.0346 179.108H35.2138" stroke="black"/>
<path d="M57.9735 167.938L55.7625 177.29H53.9417" stroke="black"/>
<path d="M77.0919 165.081L79.5168 174.432H81.5138" stroke="black"/>
<g filter="url(#filter0_d)">
<path d="M92.9588 162.224L96.3822 171.575H99.2015" stroke="black"/>
</g>
<g filter="url(#filter1_d)">
<path d="M8.28036 51.6962L6.46619 57.0185C6.46619 57.0185 4 52.2155 4 45.8576C4 39.4997 5.10569 38.7371 5.81417 34.1747C5.81417 34.1747 9.08317 23.9926 13.0709 18.5974C17.3824 12.764 20.8461 10.1183 27.0659 6.39523C30.7978 4.16138 33.0031 2.95217 37.1734 1.72205C41.1005 0.563694 43.4466 0.206356 47.5401 0.164322C51.9342 0.119202 54.0476 -0.0404415 58.2997 1.07018C64.3059 2.63896 68.7598 3.85041 73.4502 7.92284C76.7238 10.7651 79.7939 13.4779 82.2727 17.0368C85.471 21.629 87.2895 24.6869 89.659 29.7583C91.9248 34.6078 93.0281 40.7922 92.1211 42.7393C91.214 44.6865 87.4519 38.069 87.4519 38.069L75.7894 34.1747L60.2393 32.8766L45.2076 34.1747L27.8004 39.7441L16.44 44.0403L8.28036 51.6962Z" fill="#373188"/>
</g>
<g filter="url(#filter2_d)">
<path d="M69.6746 123.521L89.1831 42.2148" stroke="url(#paint0_linear)" stroke-width="2"/>
</g>
<g filter="url(#filter3_d)">
<path d="M63.4316 121.963L70.4547 36.2402" stroke="url(#paint1_linear)" stroke-width="2"/>
</g>
<g filter="url(#filter4_d)">
<path d="M59.01 121.963L49.6459 35.4609" stroke="url(#paint2_linear)" stroke-width="2"/>
</g>
<g filter="url(#filter5_d)">
<path d="M32.7382 38.8374L56.4085 123.001" stroke="url(#paint3_linear)" stroke-width="2"/>
</g>
<path d="M7.76736 53.3843L50.9462 125.079" stroke="url(#paint4_linear)" stroke-width="2"/>
<g filter="url(#filter6_d)">
<path d="M18.6923 45.0723L54.0677 123.521" stroke="url(#paint5_linear)" stroke-width="2"/>
</g>
<path d="M79.5589 55.4629L66.5532 123.262" stroke="url(#paint6_linear)" stroke-width="2"/>
<g filter="url(#filter7_d)">
<path d="M67.9734 22.8081C69.8029 26.7048 71.0483 32.7029 71.0483 32.7029C71.0483 32.7029 78.439 33.9027 82.6793 35.0721C86.6077 36.1555 92.6987 40.3935 92.6987 40.3935C92.6987 40.3935 88.8471 28.987 86.2889 25.1773C83.7307 21.3676 81.7311 17.0018 79.1729 13.1921C76.6146 9.38237 72.8396 7.53719 67.9734 4.83031C63.1458 2.14485 55.5403 0.649414 55.5403 0.649414H44.5778C47.136 1.52021 48.4548 1.90368 51.2623 3.7154C54.0697 5.52712 58.456 8.52542 62.0911 13.1921C64.7843 16.6496 66.0953 18.8077 67.9734 22.8081Z" fill="url(#paint7_linear)"/>
</g>
<g filter="url(#filter8_d)">
<path d="M32.4389 17.6469C31.1502 26.5801 32.4389 40.7572 32.4389 40.7572C32.4389 40.7572 24.5808 43.2902 19.5266 44.8527C14.6094 46.3728 7.64145 50.2646 7.64145 50.2646C7.64145 50.2646 8.5126 34.3213 12.3368 25.3991C14.6155 20.0826 16.4179 16.5805 20.5537 12.5275C25.5256 7.65519 36.2539 2.72754 36.2539 2.72754C36.2539 2.72754 33.2263 12.1885 32.4389 17.6469Z" fill="url(#paint8_linear)"/>
</g>
<g filter="url(#filter9_d)">
<path d="M92.4384 42.1692C92.4384 49.176 88.0164 56.8051 54.4618 61.9685C12.9738 66.0255 6.08078 61.5738 6.08078 54.567C6.08078 47.5602 29.3785 35.2742 49.2503 33.0678C72.6985 30.4643 92.4384 35.1624 92.4384 42.1692Z" fill="#21206E"/>
</g>
<g filter="url(#filter10_d)">
<path d="M50.6903 61.8242C47.699 62.6035 34.7131 62.904 24.809 63.5127V40.2637C24.809 40.2637 28.5156 38.3804 34.1731 36.4971C39.8305 34.6138 44.5776 34.4189 44.5776 34.4189L50.6903 61.8242Z" fill="url(#paint9_linear)" fill-opacity="0.8"/>
</g>
<g filter="url(#filter11_d)">
<path d="M56.658 121.389C65.892 120.53 67.2298 122.217 71.3719 124.375C85.7794 131.879 104.794 153.521 104.794 156.379C104.794 159.236 110.744 162.691 72.6549 167.887C34.4237 173.101 29.5184 171.653 27.3952 167.887C25.2721 164.12 47.4239 122.247 56.658 121.389Z" fill="url(#paint10_linear)"/>
</g>
<g filter="url(#filter12_d)">
<path d="M8.9422 38.8345C8.9422 38.8345 23.7002 31.443 33.9364 29.0088C43.3654 26.7666 48.9493 26.4913 58.6619 26.4231C66.1319 26.3707 70.4747 26.0577 77.7434 27.716C82.6208 28.8287 89.8374 31.8531 89.8374 31.8531" stroke="#1C1572" stroke-width="4"/>
</g>
<g filter="url(#filter13_d)">
<path d="M9.05301 47.9065L5.50242 54.5507C5.50242 54.5507 3.85926 49.6015 4.03322 44.6796C4.20719 39.7578 4.49819 40.1997 5.50243 35.3918C6.34952 31.3362 7.36483 28.813 9.05301 25.0673C10.9816 20.7882 12.8993 18.6972 15.9093 15.1963C18.4614 12.2279 19.423 11.5214 22.4799 9.27568L22.5977 9.18911C26.2937 6.47371 29.7372 4.35422 31.9481 3.63671C34.1591 2.91921 37.4521 0.983917 40.8858 0.715669C43.7018 0.495677 45.5744 -3.63203e-06 50.6805 0C53.2816 0 60.3142 1.55859 60.3142 1.55859H51.3403C46.9875 1.55859 43.8049 2.01969 39.539 2.93175C36.455 3.59112 34.8378 4.47666 31.9481 5.79971C29.3944 6.96891 27.8935 7.54582 25.5816 9.18911C23.3257 10.7925 22.342 12.0912 20.3169 14.0125C18.5231 15.7143 17.3933 17.3455 15.9093 19.3573C14.0602 21.864 12.7803 25.2306 11.7466 28.2219C10.8255 30.8872 10.6557 32.5805 10.2773 35.3918C9.17544 43.5785 9.05301 47.9065 9.05301 47.9065Z" fill="#C4C4C4" fill-opacity="0.7"/>
</g>
<g filter="url(#filter14_d)">
<path d="M75.9214 34.1593L77.0919 56.6289C77.0919 56.6289 88.1467 52.4727 90.0976 49.3553C92.0484 46.2379 92.8287 43.3809 92.4386 41.3028C92.0484 39.2247 89.5712 38.4973 87.4964 36.8868C83.2653 33.6023 75.9214 34.1593 75.9214 34.1593Z" fill="url(#paint11_linear)"/>
</g>
<g filter="url(#filter15_d)">
<path d="M51.4121 146.209C46.6834 155.396 40.209 161.488 36.951 159.815C33.693 158.143 29.7512 155.989 39.6139 140.153C44.3426 130.966 53.2849 120.807 56.5429 122.479C59.8009 124.152 56.1408 137.022 51.4121 146.209Z" fill="url(#paint12_radial)"/>
</g>
<g filter="url(#filter16_d)">
<path d="M36.1239 146.248C36.1239 146.248 52.3127 140.798 59.144 139.675C64.5797 138.782 73.147 137.997 78.6524 137.805C82.0026 137.688 90.6177 139.675 90.6177 139.675" stroke="#2C2980" stroke-width="3"/>
</g>
<g filter="url(#filter17_d)">
<path d="M37.4006 143.52L32.0922 153.131C32.0922 153.131 38.8672 151.7 41.6474 148.715C43.74 146.469 45.0979 141.702 45.0979 141.702L37.4006 143.52Z" fill="url(#paint13_linear)"/>
</g>
<defs>
<filter id="filter0_d" x="88.4892" y="162.052" width="14.7122" height="18.0234" filterUnits="userSpaceOnUse" color-interpolation-filters="sRGB">
<feFlood flood-opacity="0" result="BackgroundImageFix"/>
<feColorMatrix in="SourceAlpha" type="matrix" values="0 0 0 0 0 0 0 0 0 0 0 0 0 0 0 0 0 0 127 0"/>
<feOffset dy="4"/>
<feGaussianBlur stdDeviation="2"/>
<feColorMatrix type="matrix" values="0 0 0 0 0 0 0 0 0 0 0 0 0 0 0 0 0 0 0.25 0"/>
<feBlend mode="normal" in2="BackgroundImageFix" result="effect1_dropShadow"/>
<feBlend mode="normal" in="SourceGraphic" in2="effect1_dropShadow" result="shape"/>
</filter>
<filter id="filter1_d" x="0" y="0.129883" width="96.4385" height="64.8886" filterUnits="userSpaceOnUse" color-interpolation-filters="sRGB">
<feFlood flood-opacity="0" result="BackgroundImageFix"/>
<feColorMatrix in="SourceAlpha" type="matrix" values="0 0 0 0 0 0 0 0 0 0 0 0 0 0 0 0 0 0 127 0"/>
<feOffset dy="4"/>
<feGaussianBlur stdDeviation="2"/>
<feColorMatrix type="matrix" values="0 0 0 0 0 0 0 0 0 0 0 0 0 0 0 0 0 0 0.25 0"/>
<feBlend mode="normal" in2="BackgroundImageFix" result="effect1_dropShadow"/>
<feBlend mode="normal" in="SourceGraphic" in2="effect1_dropShadow" result="shape"/>
</filter>
<filter id="filter2_d" x="64.7021" y="41.9814" width="29.4533" height="89.7731" filterUnits="userSpaceOnUse" color-interpolation-filters="sRGB">
<feFlood flood-opacity="0" result="BackgroundImageFix"/>
<feColorMatrix in="SourceAlpha" type="matrix" values="0 0 0 0 0 0 0 0 0 0 0 0 0 0 0 0 0 0 127 0"/>
<feOffset dy="4"/>
<feGaussianBlur stdDeviation="2"/>
<feColorMatrix type="matrix" values="0 0 0 0 0 0 0 0 0 0 0 0 0 0 0 0 0 0 0.25 0"/>
<feBlend mode="normal" in2="BackgroundImageFix" result="effect1_dropShadow"/>
<feBlend mode="normal" in="SourceGraphic" in2="effect1_dropShadow" result="shape"/>
</filter>
<filter id="filter3_d" x="58.4349" y="36.1587" width="17.0164" height="93.8858" filterUnits="userSpaceOnUse" color-interpolation-filters="sRGB">
<feFlood flood-opacity="0" result="BackgroundImageFix"/>
<feColorMatrix in="SourceAlpha" type="matrix" values="0 0 0 0 0 0 0 0 0 0 0 0 0 0 0 0 0 0 127 0"/>
<feOffset dy="4"/>
<feGaussianBlur stdDeviation="2"/>
<feColorMatrix type="matrix" values="0 0 0 0 0 0 0 0 0 0 0 0 0 0 0 0 0 0 0.25 0"/>
<feBlend mode="normal" in2="BackgroundImageFix" result="effect1_dropShadow"/>
<feBlend mode="normal" in="SourceGraphic" in2="effect1_dropShadow" result="shape"/>
</filter>
<filter id="filter4_d" x="44.6517" y="35.3535" width="19.3525" height="94.7171" filterUnits="userSpaceOnUse" color-interpolation-filters="sRGB">
<feFlood flood-opacity="0" result="BackgroundImageFix"/>
<feColorMatrix in="SourceAlpha" type="matrix" values="0 0 0 0 0 0 0 0 0 0 0 0 0 0 0 0 0 0 127 0"/>
<feOffset dy="4"/>
<feGaussianBlur stdDeviation="2"/>
<feColorMatrix type="matrix" values="0 0 0 0 0 0 0 0 0 0 0 0 0 0 0 0 0 0 0.25 0"/>
<feBlend mode="normal" in2="BackgroundImageFix" result="effect1_dropShadow"/>
<feBlend mode="normal" in="SourceGraphic" in2="effect1_dropShadow" result="shape"/>
</filter>
<filter id="filter5_d" x="27.7756" y="38.5669" width="33.5956" height="92.7054" filterUnits="userSpaceOnUse" color-interpolation-filters="sRGB">
<feFlood flood-opacity="0" result="BackgroundImageFix"/>
<feColorMatrix in="SourceAlpha" type="matrix" values="0 0 0 0 0 0 0 0 0 0 0 0 0 0 0 0 0 0 127 0"/>
<feOffset dy="4"/>
<feGaussianBlur stdDeviation="2"/>
<feColorMatrix type="matrix" values="0 0 0 0 0 0 0 0 0 0 0 0 0 0 0 0 0 0 0.25 0"/>
<feBlend mode="normal" in2="BackgroundImageFix" result="effect1_dropShadow"/>
<feBlend mode="normal" in="SourceGraphic" in2="effect1_dropShadow" result="shape"/>
</filter>
<filter id="filter6_d" x="13.7807" y="44.6611" width="45.1986" height="87.2712" filterUnits="userSpaceOnUse" color-interpolation-filters="sRGB">
<feFlood flood-opacity="0" result="BackgroundImageFix"/>
<feColorMatrix in="SourceAlpha" type="matrix" values="0 0 0 0 0 0 0 0 0 0 0 0 0 0 0 0 0 0 127 0"/>
<feOffset dy="4"/>
<feGaussianBlur stdDeviation="2"/>
<feColorMatrix type="matrix" values="0 0 0 0 0 0 0 0 0 0 0 0 0 0 0 0 0 0 0.25 0"/>
<feBlend mode="normal" in2="BackgroundImageFix" result="effect1_dropShadow"/>
<feBlend mode="normal" in="SourceGraphic" in2="effect1_dropShadow" result="shape"/>
</filter>
<filter id="filter7_d" x="40.5778" y="0.649414" width="56.1209" height="47.7441" filterUnits="userSpaceOnUse" color-interpolation-filters="sRGB">
<feFlood flood-opacity="0" result="BackgroundImageFix"/>
<feColorMatrix in="SourceAlpha" type="matrix" values="0 0 0 0 0 0 0 0 0 0 0 0 0 0 0 0 0 0 127 0"/>
<feOffset dy="4"/>
<feGaussianBlur stdDeviation="2"/>
<feColorMatrix type="matrix" values="0 0 0 0 0 0 0 0 0 0 0 0 0 0 0 0 0 0 0.25 0"/>
<feBlend mode="normal" in2="BackgroundImageFix" result="effect1_dropShadow"/>
<feBlend mode="normal" in="SourceGraphic" in2="effect1_dropShadow" result="shape"/>
</filter>
<filter id="filter8_d" x="3.64145" y="2.72754" width="36.6125" height="55.537" filterUnits="userSpaceOnUse" color-interpolation-filters="sRGB">
<feFlood flood-opacity="0" result="BackgroundImageFix"/>
<feColorMatrix in="SourceAlpha" type="matrix" values="0 0 0 0 0 0 0 0 0 0 0 0 0 0 0 0 0 0 127 0"/>
<feOffset dy="4"/>
<feGaussianBlur stdDeviation="2"/>
<feColorMatrix type="matrix" values="0 0 0 0 0 0 0 0 0 0 0 0 0 0 0 0 0 0 0.25 0"/>
<feBlend mode="normal" in2="BackgroundImageFix" result="effect1_dropShadow"/>
<feBlend mode="normal" in="SourceGraphic" in2="effect1_dropShadow" result="shape"/>
</filter>
<filter id="filter9_d" x="2.08078" y="32.3403" width="94.3576" height="39.1718" filterUnits="userSpaceOnUse" color-interpolation-filters="sRGB">
<feFlood flood-opacity="0" result="BackgroundImageFix"/>
<feColorMatrix in="SourceAlpha" type="matrix" values="0 0 0 0 0 0 0 0 0 0 0 0 0 0 0 0 0 0 127 0"/>
<feOffset dy="4"/>
<feGaussianBlur stdDeviation="2"/>
<feColorMatrix type="matrix" values="0 0 0 0 0 0 0 0 0 0 0 0 0 0 0 0 0 0 0.25 0"/>
<feBlend mode="normal" in2="BackgroundImageFix" result="effect1_dropShadow"/>
<feBlend mode="normal" in="SourceGraphic" in2="effect1_dropShadow" result="shape"/>
</filter>
<filter id="filter10_d" x="20.809" y="34.4189" width="33.8813" height="37.0937" filterUnits="userSpaceOnUse" color-interpolation-filters="sRGB">
<feFlood flood-opacity="0" result="BackgroundImageFix"/>
<feColorMatrix in="SourceAlpha" type="matrix" values="0 0 0 0 0 0 0 0 0 0 0 0 0 0 0 0 0 0 127 0"/>
<feOffset dy="4"/>
<feGaussianBlur stdDeviation="2"/>
<feColorMatrix type="matrix" values="0 0 0 0 0 0 0 0 0 0 0 0 0 0 0 0 0 0 0.25 0"/>
<feBlend mode="normal" in2="BackgroundImageFix" result="effect1_dropShadow"/>
<feBlend mode="normal" in="SourceGraphic" in2="effect1_dropShadow" result="shape"/>
</filter>
<filter id="filter11_d" x="23.2527" y="121.16" width="85.8784" height="58.116" filterUnits="userSpaceOnUse" color-interpolation-filters="sRGB">
<feFlood flood-opacity="0" result="BackgroundImageFix"/>
<feColorMatrix in="SourceAlpha" type="matrix" values="0 0 0 0 0 0 0 0 0 0 0 0 0 0 0 0 0 0 127 0"/>
<feOffset dy="4"/>
<feGaussianBlur stdDeviation="2"/>
<feColorMatrix type="matrix" values="0 0 0 0 0 0 0 0 0 0 0 0 0 0 0 0 0 0 0.25 0"/>
<feBlend mode="normal" in2="BackgroundImageFix" result="effect1_dropShadow"/>
<feBlend mode="normal" in="SourceGraphic" in2="effect1_dropShadow" result="shape"/>
</filter>
<filter id="filter12_d" x="4.04697" y="24.3647" width="90.5632" height="24.2578" filterUnits="userSpaceOnUse" color-interpolation-filters="sRGB">
<feFlood flood-opacity="0" result="BackgroundImageFix"/>
<feColorMatrix in="SourceAlpha" type="matrix" values="0 0 0 0 0 0 0 0 0 0 0 0 0 0 0 0 0 0 127 0"/>
<feOffset dy="4"/>
<feGaussianBlur stdDeviation="2"/>
<feColorMatrix type="matrix" values="0 0 0 0 0 0 0 0 0 0 0 0 0 0 0 0 0 0 0.25 0"/>
<feBlend mode="normal" in2="BackgroundImageFix" result="effect1_dropShadow"/>
<feBlend mode="normal" in="SourceGraphic" in2="effect1_dropShadow" result="shape"/>
</filter>
<filter id="filter13_d" x="0.0203247" y="0" width="64.2938" height="62.5507" filterUnits="userSpaceOnUse" color-interpolation-filters="sRGB">
<feFlood flood-opacity="0" result="BackgroundImageFix"/>
<feColorMatrix in="SourceAlpha" type="matrix" values="0 0 0 0 0 0 0 0 0 0 0 0 0 0 0 0 0 0 127 0"/>
<feOffset dy="4"/>
<feGaussianBlur stdDeviation="2"/>
<feColorMatrix type="matrix" values="0 0 0 0 0 0 0 0 0 0 0 0 0 0 0 0 0 0 0.25 0"/>
<feBlend mode="normal" in2="BackgroundImageFix" result="effect1_dropShadow"/>
<feBlend mode="normal" in="SourceGraphic" in2="effect1_dropShadow" result="shape"/>
</filter>
<filter id="filter14_d" x="71.9214" y="34.1235" width="24.6147" height="30.5054" filterUnits="userSpaceOnUse" color-interpolation-filters="sRGB">
<feFlood flood-opacity="0" result="BackgroundImageFix"/>
<feColorMatrix in="SourceAlpha" type="matrix" values="0 0 0 0 0 0 0 0 0 0 0 0 0 0 0 0 0 0 127 0"/>
<feOffset dy="4"/>
<feGaussianBlur stdDeviation="2"/>
<feColorMatrix type="matrix" values="0 0 0 0 0 0 0 0 0 0 0 0 0 0 0 0 0 0 0.25 0"/>
<feBlend mode="normal" in2="BackgroundImageFix" result="effect1_dropShadow"/>
<feBlend mode="normal" in="SourceGraphic" in2="effect1_dropShadow" result="shape"/>
</filter>
<filter id="filter15_d" x="29.3507" y="122.297" width="32.4337" height="45.794" filterUnits="userSpaceOnUse" color-interpolation-filters="sRGB">
<feFlood flood-opacity="0" result="BackgroundImageFix"/>
<feColorMatrix in="SourceAlpha" type="matrix" values="0 0 0 0 0 0 0 0 0 0 0 0 0 0 0 0 0 0 127 0"/>
<feOffset dy="4"/>
<feGaussianBlur stdDeviation="2"/>
<feColorMatrix type="matrix" values="0 0 0 0 0 0 0 0 0 0 0 0 0 0 0 0 0 0 0.25 0"/>
<feBlend mode="normal" in2="BackgroundImageFix" result="effect1_dropShadow"/>
<feBlend mode="normal" in="SourceGraphic" in2="effect1_dropShadow" result="shape"/>
</filter>
<filter id="filter16_d" x="31.6457" y="136.3" width="63.3089" height="19.3687" filterUnits="userSpaceOnUse" color-interpolation-filters="sRGB">
<feFlood flood-opacity="0" result="BackgroundImageFix"/>
<feColorMatrix in="SourceAlpha" type="matrix" values="0 0 0 0 0 0 0 0 0 0 0 0 0 0 0 0 0 0 127 0"/>
<feOffset dy="4"/>
<feGaussianBlur stdDeviation="2"/>
<feColorMatrix type="matrix" values="0 0 0 0 0 0 0 0 0 0 0 0 0 0 0 0 0 0 0.25 0"/>
<feBlend mode="normal" in2="BackgroundImageFix" result="effect1_dropShadow"/>
<feBlend mode="normal" in="SourceGraphic" in2="effect1_dropShadow" result="shape"/>
</filter>
<filter id="filter17_d" x="28.0922" y="141.702" width="21.0057" height="19.4297" filterUnits="userSpaceOnUse" color-interpolation-filters="sRGB">
<feFlood flood-opacity="0" result="BackgroundImageFix"/>
<feColorMatrix in="SourceAlpha" type="matrix" values="0 0 0 0 0 0 0 0 0 0 0 0 0 0 0 0 0 0 127 0"/>
<feOffset dy="4"/>
<feGaussianBlur stdDeviation="2"/>
<feColorMatrix type="matrix" values="0 0 0 0 0 0 0 0 0 0 0 0 0 0 0 0 0 0 0.25 0"/>
<feBlend mode="normal" in2="BackgroundImageFix" result="effect1_dropShadow"/>
<feBlend mode="normal" in="SourceGraphic" in2="effect1_dropShadow" result="shape"/>
</filter>
<linearGradient id="paint0_linear" x1="79.4288" y1="42.2148" x2="79.4288" y2="123.521" gradientUnits="userSpaceOnUse">
<stop stop-color="#2B004C"/>
<stop offset="1" stop-color="#5F06A5"/>
</linearGradient>
<linearGradient id="paint1_linear" x1="66.9431" y1="36.2402" x2="66.9431" y2="121.963" gradientUnits="userSpaceOnUse">
<stop stop-color="#2B004C"/>
<stop offset="1" stop-color="#5F06A5"/>
</linearGradient>
<linearGradient id="paint2_linear" x1="54.3279" y1="35.4609" x2="54.3279" y2="121.963" gradientUnits="userSpaceOnUse">
<stop stop-color="#2B004C"/>
<stop offset="1" stop-color="#5F06A5"/>
</linearGradient>
<linearGradient id="paint3_linear" x1="44.5734" y1="38.8374" x2="44.5734" y2="123.001" gradientUnits="userSpaceOnUse">
<stop stop-color="#2B004C"/>
<stop offset="1" stop-color="#5F06A5"/>
</linearGradient>
<linearGradient id="paint4_linear" x1="29.3568" y1="53.3843" x2="29.3568" y2="125.079" gradientUnits="userSpaceOnUse">
<stop stop-color="#2B004C"/>
<stop offset="1" stop-color="#5F06A5"/>
</linearGradient>
<linearGradient id="paint5_linear" x1="36.38" y1="45.0723" x2="36.38" y2="123.521" gradientUnits="userSpaceOnUse">
<stop stop-color="#2B004C"/>
<stop offset="1" stop-color="#5F06A5"/>
</linearGradient>
<linearGradient id="paint6_linear" x1="73.0561" y1="55.4629" x2="73.0561" y2="123.262" gradientUnits="userSpaceOnUse">
<stop stop-color="#2B004C"/>
<stop offset="1" stop-color="#5F06A5"/>
</linearGradient>
<linearGradient id="paint7_linear" x1="73.4504" y1="20.6513" x2="68.6504" y2="40.3965" gradientUnits="userSpaceOnUse">
<stop stop-color="#635DB5"/>
<stop offset="1" stop-color="#635DB5" stop-opacity="0"/>
</linearGradient>
<linearGradient id="paint8_linear" x1="21.9477" y1="2.72754" x2="21.9477" y2="50.2646" gradientUnits="userSpaceOnUse">
<stop offset="0.313187" stop-color="#635DB5"/>
<stop offset="1" stop-color="#635DB5" stop-opacity="0"/>
</linearGradient>
<linearGradient id="paint9_linear" x1="35.2135" y1="31.1719" x2="37.7429" y2="63.5132" gradientUnits="userSpaceOnUse">
<stop offset="0.0928956" stop-color="#635DB5" stop-opacity="0"/>
<stop offset="1" stop-color="#635DB5"/>
</linearGradient>
<linearGradient id="paint10_linear" x1="86.4559" y1="169.237" x2="38.6395" y2="134.368" gradientUnits="userSpaceOnUse">
<stop offset="0.0459218" stop-color="#11105D"/>
<stop offset="0.556473" stop-color="#845BB8"/>
<stop offset="1" stop-color="#A65EAB"/>
</linearGradient>
<linearGradient id="paint11_linear" x1="83.4192" y1="34.419" x2="83.4192" y2="55.5899" gradientUnits="userSpaceOnUse">
<stop stop-color="#635DB5" stop-opacity="0"/>
<stop offset="0.879414" stop-color="#635DB5"/>
</linearGradient>
<radialGradient id="paint12_radial" cx="0" cy="0" r="1" gradientUnits="userSpaceOnUse" gradientTransform="translate(53.9418 137.026) rotate(126.707) scale(28.4256 10.0713)">
<stop stop-color="#C450D3"/>
<stop offset="1" stop-color="#F183FF" stop-opacity="0.35"/>
</radialGradient>
<linearGradient id="paint13_linear" x1="38.595" y1="141.702" x2="38.595" y2="153.131" gradientUnits="userSpaceOnUse">
<stop stop-color="#120F5F"/>
<stop offset="1" stop-color="#8B79CF"/>
</linearGradient>
</defs>
</svg>
