<svg width="96" height="150" viewBox="0 0 96 150" fill="none" xmlns="http://www.w3.org/2000/svg">
<path d="M34.4553 139.434L32.5448 147.115H30.9715" stroke="black"/>
<path d="M50.638 137.94L48.7275 145.622H47.1542" stroke="black"/>
<path d="M67.1578 135.593L69.2532 143.274H70.9788" stroke="black"/>
<g filter="url(#filter0_d)">
<path d="M80.8684 133.246L83.8266 140.927H86.2627" stroke="black"/>
</g>
<g filter="url(#filter1_d)">
<path d="M7.6986 42.4618L6.131 46.8333C6.131 46.8333 4 42.8882 4 37.666C4 32.4438 4.95542 31.8175 5.5676 28.07C5.5676 28.07 8.3923 19.7067 11.838 15.2752C15.5636 10.4838 18.5565 8.31067 23.9309 5.25264C27.1556 3.41782 29.0612 2.4246 32.6647 1.41421C36.058 0.462767 38.0853 0.169259 41.6225 0.134733C45.4193 0.0976723 47.2455 -0.0334548 50.9196 0.878782C56.1095 2.16734 59.9581 3.16239 64.011 6.50738C66.8397 8.84195 69.4925 11.0701 71.6344 13.9934C74.3981 17.7652 75.9693 20.277 78.0168 24.4425C79.9747 28.4257 80.928 33.5054 80.1442 35.1048C79.3604 36.7041 76.1097 31.2687 76.1097 31.2687L66.0323 28.07L52.5957 27.0037L39.607 28.07L24.5656 32.6446L14.7493 36.1733L7.6986 42.4618Z" fill="#373188"/>
</g>
<g filter="url(#filter2_d)">
<path d="M60.7483 101.457L77.6053 34.6743" stroke="url(#paint0_linear)" stroke-width="2"/>
</g>
<g filter="url(#filter3_d)">
<path d="M55.354 100.177L61.4225 29.7666" stroke="url(#paint1_linear)" stroke-width="2"/>
</g>
<g filter="url(#filter4_d)">
<path d="M51.5333 100.177L43.4419 29.1265" stroke="url(#paint2_linear)" stroke-width="2"/>
</g>
<g filter="url(#filter5_d)">
<path d="M28.8323 31.9004L49.2855 101.031" stroke="url(#paint3_linear)" stroke-width="2"/>
</g>
<path d="M7.25525 43.8486L44.5655 102.737" stroke="url(#paint4_linear)" stroke-width="2"/>
<g filter="url(#filter6_d)">
<path d="M16.6953 37.021L47.2627 101.457" stroke="url(#paint5_linear)" stroke-width="2"/>
</g>
<path d="M69.2892 45.5557L58.0511 101.244" stroke="url(#paint6_linear)" stroke-width="2"/>
<g filter="url(#filter7_d)">
<path d="M59.2785 18.7338C60.8593 21.9344 61.9354 26.8612 61.9354 26.8612C61.9354 26.8612 68.3216 27.8467 71.9856 28.8071C75.3801 29.697 80.6433 33.178 80.6433 33.178C80.6433 33.178 77.3152 23.809 75.1046 20.6798C72.8941 17.5506 71.1663 13.9647 68.9558 10.8354C66.7452 7.70623 63.4833 6.19065 59.2785 3.96728C55.107 1.76152 48.5352 0.533203 48.5352 0.533203H39.0626C41.2732 1.24845 42.4127 1.56343 44.8386 3.05153C47.2645 4.53963 51.0546 7.00236 54.1957 10.8354C56.5228 13.6754 57.6556 15.448 59.2785 18.7338Z" fill="url(#paint7_linear)"/>
</g>
<g filter="url(#filter8_d)">
<path d="M28.5738 14.4946C27.4602 21.8321 28.5738 33.4768 28.5738 33.4768C28.5738 33.4768 21.7837 35.5574 17.4164 36.8408C13.1675 38.0894 7.14661 41.286 7.14661 41.286C7.14661 41.286 7.89936 28.1905 11.2038 20.862C13.1728 16.4953 14.7302 13.6187 18.3039 10.2897C22.6001 6.28769 31.8703 2.24023 31.8703 2.24023C31.8703 2.24023 29.2542 10.0112 28.5738 14.4946Z" fill="url(#paint8_linear)"/>
</g>
<g filter="url(#filter9_d)">
<path d="M80.4184 34.6371C80.4184 40.3923 76.5975 46.6587 47.6034 50.8998C11.7541 54.2321 5.79797 50.5756 5.79797 44.8204C5.79797 39.0652 25.9292 28.9738 43.1002 27.1615C63.3615 25.0231 80.4184 28.8819 80.4184 34.6371Z" fill="#21206E"/>
</g>
<g filter="url(#filter10_d)">
<path d="M44.3444 50.781C41.7597 51.4211 30.5388 51.6679 21.9808 52.1678V33.0717C21.9808 33.0717 25.1836 31.5248 30.0721 29.9779C34.9607 28.431 39.0626 28.271 39.0626 28.271L44.3444 50.781Z" fill="url(#paint9_linear)" fill-opacity="0.8"/>
</g>
<g filter="url(#filter11_d)">
<path d="M49.5012 99.7054C57.4802 99 58.6362 100.386 62.2153 102.158C74.6647 108.322 91.0949 126.098 91.0949 128.445C91.0949 130.792 96.2363 133.63 63.324 137.898C30.2889 142.181 26.0503 140.991 24.2157 137.898C22.3811 134.804 41.5222 100.411 49.5012 99.7054Z" fill="url(#paint10_linear)"/>
</g>
<g filter="url(#filter12_d)">
<path d="M8.27032 31.8978C8.27032 31.8978 21.0225 25.8266 29.8675 23.8272C38.015 21.9855 42.84 21.7594 51.2324 21.7034C57.6872 21.6603 61.4398 21.4032 67.7206 22.7653C71.9351 23.6793 78.1708 26.1634 78.1708 26.1634" stroke="#1C1572" stroke-width="4"/>
</g>
<g filter="url(#filter13_d)">
<path d="M8.36473 39.3492L5.29671 44.8066C5.29671 44.8066 3.87688 40.7414 4.0272 36.6987C4.17752 32.656 4.42897 33.019 5.29672 29.0699C6.02868 25.7388 6.90599 23.6663 8.36473 20.5897C10.0312 17.0749 11.6883 15.3574 14.2892 12.4818C16.4944 10.0437 17.3253 9.46341 19.9668 7.6188L20.0686 7.5477C23.2621 5.31735 26.2376 3.57645 28.1481 2.9871C30.0586 2.39776 32.904 0.808164 35.871 0.587832C38.3043 0.407136 39.9224 -2.98326e-06 44.3345 0C46.5821 0 52.6588 1.28019 52.6588 1.28019H44.9046C41.1434 1.28019 38.3934 1.65892 34.7073 2.40807C32.0425 2.94965 30.645 3.67702 28.1481 4.76374C25.9415 5.72409 24.6446 6.19795 22.6468 7.5477C20.6976 8.86472 19.8475 9.93145 18.0977 11.5095C16.5477 12.9074 15.5715 14.2472 14.2892 15.8996C12.6914 17.9585 11.5854 20.7237 10.6922 23.1808C9.89629 25.37 9.74962 26.7608 9.42266 29.0699C8.47052 35.7943 8.36473 39.3492 8.36473 39.3492Z" fill="#C4C4C4" fill-opacity="0.7"/>
</g>
<g filter="url(#filter14_d)">
<path d="M66.1465 28.0577L67.1579 46.5137C67.1579 46.5137 76.7102 43.0999 78.3959 40.5393C80.0816 37.9787 80.7559 35.6321 80.4188 33.9252C80.0816 32.2183 77.9411 31.6209 76.1483 30.298C72.4922 27.6002 66.1465 28.0577 66.1465 28.0577Z" fill="url(#paint11_linear)"/>
</g>
<g filter="url(#filter15_d)">
<path d="M44.9683 120.093C40.8823 127.639 35.2878 132.642 32.4726 131.268C29.6574 129.895 26.2514 128.126 34.7736 115.118C38.8596 107.572 46.5866 99.2282 49.4018 100.602C52.2169 101.976 49.0543 112.547 44.9683 120.093Z" fill="url(#paint12_radial)"/>
</g>
<g filter="url(#filter16_d)">
<path d="M31.7578 120.124C31.7578 120.124 45.7463 115.648 51.6491 114.726C56.346 113.992 63.7489 113.347 68.5061 113.19C71.4009 113.094 78.8451 114.726 78.8451 114.726" stroke="#2C2980" stroke-width="3"/>
</g>
<g filter="url(#filter17_d)">
<path d="M32.8612 117.884L28.2743 125.779C28.2743 125.779 34.1285 124.603 36.5308 122.151C38.3391 120.306 39.5123 116.391 39.5123 116.391L32.8612 117.884Z" fill="url(#paint13_linear)"/>
</g>
<defs>
<filter id="filter0_d" x="76.4019" y="133.066" width="13.8608" height="16.3608" filterUnits="userSpaceOnUse" color-interpolation-filters="sRGB">
<feFlood flood-opacity="0" result="BackgroundImageFix"/>
<feColorMatrix in="SourceAlpha" type="matrix" values="0 0 0 0 0 0 0 0 0 0 0 0 0 0 0 0 0 0 127 0"/>
<feOffset dy="4"/>
<feGaussianBlur stdDeviation="2"/>
<feColorMatrix type="matrix" values="0 0 0 0 0 0 0 0 0 0 0 0 0 0 0 0 0 0 0.25 0"/>
<feBlend mode="normal" in2="BackgroundImageFix" result="effect1_dropShadow"/>
<feBlend mode="normal" in="SourceGraphic" in2="effect1_dropShadow" result="shape"/>
</filter>
<filter id="filter1_d" x="0" y="0.106445" width="84.4185" height="54.7269" filterUnits="userSpaceOnUse" color-interpolation-filters="sRGB">
<feFlood flood-opacity="0" result="BackgroundImageFix"/>
<feColorMatrix in="SourceAlpha" type="matrix" values="0 0 0 0 0 0 0 0 0 0 0 0 0 0 0 0 0 0 127 0"/>
<feOffset dy="4"/>
<feGaussianBlur stdDeviation="2"/>
<feColorMatrix type="matrix" values="0 0 0 0 0 0 0 0 0 0 0 0 0 0 0 0 0 0 0.25 0"/>
<feBlend mode="normal" in2="BackgroundImageFix" result="effect1_dropShadow"/>
<feBlend mode="normal" in="SourceGraphic" in2="effect1_dropShadow" result="shape"/>
</filter>
<filter id="filter2_d" x="55.7787" y="34.4297" width="26.7962" height="75.2726" filterUnits="userSpaceOnUse" color-interpolation-filters="sRGB">
<feFlood flood-opacity="0" result="BackgroundImageFix"/>
<feColorMatrix in="SourceAlpha" type="matrix" values="0 0 0 0 0 0 0 0 0 0 0 0 0 0 0 0 0 0 127 0"/>
<feOffset dy="4"/>
<feGaussianBlur stdDeviation="2"/>
<feColorMatrix type="matrix" values="0 0 0 0 0 0 0 0 0 0 0 0 0 0 0 0 0 0 0.25 0"/>
<feBlend mode="normal" in2="BackgroundImageFix" result="effect1_dropShadow"/>
<feBlend mode="normal" in="SourceGraphic" in2="effect1_dropShadow" result="shape"/>
</filter>
<filter id="filter3_d" x="50.3577" y="29.6807" width="16.0611" height="78.5821" filterUnits="userSpaceOnUse" color-interpolation-filters="sRGB">
<feFlood flood-opacity="0" result="BackgroundImageFix"/>
<feColorMatrix in="SourceAlpha" type="matrix" values="0 0 0 0 0 0 0 0 0 0 0 0 0 0 0 0 0 0 127 0"/>
<feOffset dy="4"/>
<feGaussianBlur stdDeviation="2"/>
<feColorMatrix type="matrix" values="0 0 0 0 0 0 0 0 0 0 0 0 0 0 0 0 0 0 0.25 0"/>
<feBlend mode="normal" in2="BackgroundImageFix" result="effect1_dropShadow"/>
<feBlend mode="normal" in="SourceGraphic" in2="effect1_dropShadow" result="shape"/>
</filter>
<filter id="filter4_d" x="38.4483" y="29.0132" width="18.0785" height="79.2767" filterUnits="userSpaceOnUse" color-interpolation-filters="sRGB">
<feFlood flood-opacity="0" result="BackgroundImageFix"/>
<feColorMatrix in="SourceAlpha" type="matrix" values="0 0 0 0 0 0 0 0 0 0 0 0 0 0 0 0 0 0 127 0"/>
<feOffset dy="4"/>
<feGaussianBlur stdDeviation="2"/>
<feColorMatrix type="matrix" values="0 0 0 0 0 0 0 0 0 0 0 0 0 0 0 0 0 0 0.25 0"/>
<feBlend mode="normal" in2="BackgroundImageFix" result="effect1_dropShadow"/>
<feBlend mode="normal" in="SourceGraphic" in2="effect1_dropShadow" result="shape"/>
</filter>
<filter id="filter5_d" x="23.8734" y="31.6167" width="30.371" height="77.6976" filterUnits="userSpaceOnUse" color-interpolation-filters="sRGB">
<feFlood flood-opacity="0" result="BackgroundImageFix"/>
<feColorMatrix in="SourceAlpha" type="matrix" values="0 0 0 0 0 0 0 0 0 0 0 0 0 0 0 0 0 0 127 0"/>
<feOffset dy="4"/>
<feGaussianBlur stdDeviation="2"/>
<feColorMatrix type="matrix" values="0 0 0 0 0 0 0 0 0 0 0 0 0 0 0 0 0 0 0.25 0"/>
<feBlend mode="normal" in2="BackgroundImageFix" result="effect1_dropShadow"/>
<feBlend mode="normal" in="SourceGraphic" in2="effect1_dropShadow" result="shape"/>
</filter>
<filter id="filter6_d" x="11.7918" y="36.5923" width="40.3744" height="73.2933" filterUnits="userSpaceOnUse" color-interpolation-filters="sRGB">
<feFlood flood-opacity="0" result="BackgroundImageFix"/>
<feColorMatrix in="SourceAlpha" type="matrix" values="0 0 0 0 0 0 0 0 0 0 0 0 0 0 0 0 0 0 127 0"/>
<feOffset dy="4"/>
<feGaussianBlur stdDeviation="2"/>
<feColorMatrix type="matrix" values="0 0 0 0 0 0 0 0 0 0 0 0 0 0 0 0 0 0 0.25 0"/>
<feBlend mode="normal" in2="BackgroundImageFix" result="effect1_dropShadow"/>
<feBlend mode="normal" in="SourceGraphic" in2="effect1_dropShadow" result="shape"/>
</filter>
<filter id="filter7_d" x="35.0626" y="0.533203" width="49.5807" height="40.6448" filterUnits="userSpaceOnUse" color-interpolation-filters="sRGB">
<feFlood flood-opacity="0" result="BackgroundImageFix"/>
<feColorMatrix in="SourceAlpha" type="matrix" values="0 0 0 0 0 0 0 0 0 0 0 0 0 0 0 0 0 0 127 0"/>
<feOffset dy="4"/>
<feGaussianBlur stdDeviation="2"/>
<feColorMatrix type="matrix" values="0 0 0 0 0 0 0 0 0 0 0 0 0 0 0 0 0 0 0.25 0"/>
<feBlend mode="normal" in2="BackgroundImageFix" result="effect1_dropShadow"/>
<feBlend mode="normal" in="SourceGraphic" in2="effect1_dropShadow" result="shape"/>
</filter>
<filter id="filter8_d" x="3.14661" y="2.24023" width="32.7236" height="47.0457" filterUnits="userSpaceOnUse" color-interpolation-filters="sRGB">
<feFlood flood-opacity="0" result="BackgroundImageFix"/>
<feColorMatrix in="SourceAlpha" type="matrix" values="0 0 0 0 0 0 0 0 0 0 0 0 0 0 0 0 0 0 127 0"/>
<feOffset dy="4"/>
<feGaussianBlur stdDeviation="2"/>
<feColorMatrix type="matrix" values="0 0 0 0 0 0 0 0 0 0 0 0 0 0 0 0 0 0 0.25 0"/>
<feBlend mode="normal" in2="BackgroundImageFix" result="effect1_dropShadow"/>
<feBlend mode="normal" in="SourceGraphic" in2="effect1_dropShadow" result="shape"/>
</filter>
<filter id="filter9_d" x="1.79797" y="26.564" width="82.6205" height="33.6038" filterUnits="userSpaceOnUse" color-interpolation-filters="sRGB">
<feFlood flood-opacity="0" result="BackgroundImageFix"/>
<feColorMatrix in="SourceAlpha" type="matrix" values="0 0 0 0 0 0 0 0 0 0 0 0 0 0 0 0 0 0 127 0"/>
<feOffset dy="4"/>
<feGaussianBlur stdDeviation="2"/>
<feColorMatrix type="matrix" values="0 0 0 0 0 0 0 0 0 0 0 0 0 0 0 0 0 0 0.25 0"/>
<feBlend mode="normal" in2="BackgroundImageFix" result="effect1_dropShadow"/>
<feBlend mode="normal" in="SourceGraphic" in2="effect1_dropShadow" result="shape"/>
</filter>
<filter id="filter10_d" x="17.9808" y="28.271" width="30.3637" height="31.8968" filterUnits="userSpaceOnUse" color-interpolation-filters="sRGB">
<feFlood flood-opacity="0" result="BackgroundImageFix"/>
<feColorMatrix in="SourceAlpha" type="matrix" values="0 0 0 0 0 0 0 0 0 0 0 0 0 0 0 0 0 0 127 0"/>
<feOffset dy="4"/>
<feGaussianBlur stdDeviation="2"/>
<feColorMatrix type="matrix" values="0 0 0 0 0 0 0 0 0 0 0 0 0 0 0 0 0 0 0.25 0"/>
<feBlend mode="normal" in2="BackgroundImageFix" result="effect1_dropShadow"/>
<feBlend mode="normal" in="SourceGraphic" in2="effect1_dropShadow" result="shape"/>
</filter>
<filter id="filter11_d" x="20.0925" y="99.5176" width="75.2937" height="49.164" filterUnits="userSpaceOnUse" color-interpolation-filters="sRGB">
<feFlood flood-opacity="0" result="BackgroundImageFix"/>
<feColorMatrix in="SourceAlpha" type="matrix" values="0 0 0 0 0 0 0 0 0 0 0 0 0 0 0 0 0 0 127 0"/>
<feOffset dy="4"/>
<feGaussianBlur stdDeviation="2"/>
<feColorMatrix type="matrix" values="0 0 0 0 0 0 0 0 0 0 0 0 0 0 0 0 0 0 0.25 0"/>
<feBlend mode="normal" in2="BackgroundImageFix" result="effect1_dropShadow"/>
<feBlend mode="normal" in="SourceGraphic" in2="effect1_dropShadow" result="shape"/>
</filter>
<filter id="filter12_d" x="3.41101" y="19.6558" width="79.4997" height="22.048" filterUnits="userSpaceOnUse" color-interpolation-filters="sRGB">
<feFlood flood-opacity="0" result="BackgroundImageFix"/>
<feColorMatrix in="SourceAlpha" type="matrix" values="0 0 0 0 0 0 0 0 0 0 0 0 0 0 0 0 0 0 127 0"/>
<feOffset dy="4"/>
<feGaussianBlur stdDeviation="2"/>
<feColorMatrix type="matrix" values="0 0 0 0 0 0 0 0 0 0 0 0 0 0 0 0 0 0 0.25 0"/>
<feBlend mode="normal" in2="BackgroundImageFix" result="effect1_dropShadow"/>
<feBlend mode="normal" in="SourceGraphic" in2="effect1_dropShadow" result="shape"/>
</filter>
<filter id="filter13_d" x="0.0160522" y="0" width="56.6428" height="52.8066" filterUnits="userSpaceOnUse" color-interpolation-filters="sRGB">
<feFlood flood-opacity="0" result="BackgroundImageFix"/>
<feColorMatrix in="SourceAlpha" type="matrix" values="0 0 0 0 0 0 0 0 0 0 0 0 0 0 0 0 0 0 127 0"/>
<feOffset dy="4"/>
<feGaussianBlur stdDeviation="2"/>
<feColorMatrix type="matrix" values="0 0 0 0 0 0 0 0 0 0 0 0 0 0 0 0 0 0 0.25 0"/>
<feBlend mode="normal" in2="BackgroundImageFix" result="effect1_dropShadow"/>
<feBlend mode="normal" in="SourceGraphic" in2="effect1_dropShadow" result="shape"/>
</filter>
<filter id="filter14_d" x="62.1465" y="28.0283" width="22.3566" height="26.4854" filterUnits="userSpaceOnUse" color-interpolation-filters="sRGB">
<feFlood flood-opacity="0" result="BackgroundImageFix"/>
<feColorMatrix in="SourceAlpha" type="matrix" values="0 0 0 0 0 0 0 0 0 0 0 0 0 0 0 0 0 0 127 0"/>
<feOffset dy="4"/>
<feGaussianBlur stdDeviation="2"/>
<feColorMatrix type="matrix" values="0 0 0 0 0 0 0 0 0 0 0 0 0 0 0 0 0 0 0.25 0"/>
<feBlend mode="normal" in2="BackgroundImageFix" result="effect1_dropShadow"/>
<feBlend mode="normal" in="SourceGraphic" in2="effect1_dropShadow" result="shape"/>
</filter>
<filter id="filter15_d" x="25.3616" y="100.452" width="29.1129" height="39.043" filterUnits="userSpaceOnUse" color-interpolation-filters="sRGB">
<feFlood flood-opacity="0" result="BackgroundImageFix"/>
<feColorMatrix in="SourceAlpha" type="matrix" values="0 0 0 0 0 0 0 0 0 0 0 0 0 0 0 0 0 0 127 0"/>
<feOffset dy="4"/>
<feGaussianBlur stdDeviation="2"/>
<feColorMatrix type="matrix" values="0 0 0 0 0 0 0 0 0 0 0 0 0 0 0 0 0 0 0.25 0"/>
<feBlend mode="normal" in2="BackgroundImageFix" result="effect1_dropShadow"/>
<feBlend mode="normal" in="SourceGraphic" in2="effect1_dropShadow" result="shape"/>
</filter>
<filter id="filter16_d" x="27.3009" y="111.686" width="55.8652" height="17.8669" filterUnits="userSpaceOnUse" color-interpolation-filters="sRGB">
<feFlood flood-opacity="0" result="BackgroundImageFix"/>
<feColorMatrix in="SourceAlpha" type="matrix" values="0 0 0 0 0 0 0 0 0 0 0 0 0 0 0 0 0 0 127 0"/>
<feOffset dy="4"/>
<feGaussianBlur stdDeviation="2"/>
<feColorMatrix type="matrix" values="0 0 0 0 0 0 0 0 0 0 0 0 0 0 0 0 0 0 0.25 0"/>
<feBlend mode="normal" in2="BackgroundImageFix" result="effect1_dropShadow"/>
<feBlend mode="normal" in="SourceGraphic" in2="effect1_dropShadow" result="shape"/>
</filter>
<filter id="filter17_d" x="24.2743" y="116.391" width="19.238" height="17.388" filterUnits="userSpaceOnUse" color-interpolation-filters="sRGB">
<feFlood flood-opacity="0" result="BackgroundImageFix"/>
<feColorMatrix in="SourceAlpha" type="matrix" values="0 0 0 0 0 0 0 0 0 0 0 0 0 0 0 0 0 0 127 0"/>
<feOffset dy="4"/>
<feGaussianBlur stdDeviation="2"/>
<feColorMatrix type="matrix" values="0 0 0 0 0 0 0 0 0 0 0 0 0 0 0 0 0 0 0.25 0"/>
<feBlend mode="normal" in2="BackgroundImageFix" result="effect1_dropShadow"/>
<feBlend mode="normal" in="SourceGraphic" in2="effect1_dropShadow" result="shape"/>
</filter>
<linearGradient id="paint0_linear" x1="69.1768" y1="34.6743" x2="69.1768" y2="101.457" gradientUnits="userSpaceOnUse">
<stop stop-color="#2B004C"/>
<stop offset="1" stop-color="#5F06A5"/>
</linearGradient>
<linearGradient id="paint1_linear" x1="58.3883" y1="29.7666" x2="58.3883" y2="100.177" gradientUnits="userSpaceOnUse">
<stop stop-color="#2B004C"/>
<stop offset="1" stop-color="#5F06A5"/>
</linearGradient>
<linearGradient id="paint2_linear" x1="47.4876" y1="29.1265" x2="47.4876" y2="100.177" gradientUnits="userSpaceOnUse">
<stop stop-color="#2B004C"/>
<stop offset="1" stop-color="#5F06A5"/>
</linearGradient>
<linearGradient id="paint3_linear" x1="39.0589" y1="31.9004" x2="39.0589" y2="101.031" gradientUnits="userSpaceOnUse">
<stop stop-color="#2B004C"/>
<stop offset="1" stop-color="#5F06A5"/>
</linearGradient>
<linearGradient id="paint4_linear" x1="25.9104" y1="43.8486" x2="25.9104" y2="102.737" gradientUnits="userSpaceOnUse">
<stop stop-color="#2B004C"/>
<stop offset="1" stop-color="#5F06A5"/>
</linearGradient>
<linearGradient id="paint5_linear" x1="31.979" y1="37.021" x2="31.979" y2="101.457" gradientUnits="userSpaceOnUse">
<stop stop-color="#2B004C"/>
<stop offset="1" stop-color="#5F06A5"/>
</linearGradient>
<linearGradient id="paint6_linear" x1="63.6702" y1="45.5557" x2="63.6702" y2="101.244" gradientUnits="userSpaceOnUse">
<stop stop-color="#2B004C"/>
<stop offset="1" stop-color="#5F06A5"/>
</linearGradient>
<linearGradient id="paint7_linear" x1="64.011" y1="16.9623" x2="60.2431" y2="33.2681" gradientUnits="userSpaceOnUse">
<stop stop-color="#635DB5"/>
<stop offset="1" stop-color="#635DB5" stop-opacity="0"/>
</linearGradient>
<linearGradient id="paint8_linear" x1="19.5084" y1="2.24023" x2="19.5084" y2="41.286" gradientUnits="userSpaceOnUse">
<stop offset="0.313187" stop-color="#635DB5"/>
<stop offset="1" stop-color="#635DB5" stop-opacity="0"/>
</linearGradient>
<linearGradient id="paint9_linear" x1="30.9712" y1="25.6039" x2="32.9472" y2="52.1839" gradientUnits="userSpaceOnUse">
<stop offset="0.0928956" stop-color="#635DB5" stop-opacity="0"/>
<stop offset="1" stop-color="#635DB5"/>
</linearGradient>
<linearGradient id="paint10_linear" x1="75.2493" y1="139.007" x2="35.4077" y2="108.442" gradientUnits="userSpaceOnUse">
<stop offset="0.0459218" stop-color="#11105D"/>
<stop offset="0.556473" stop-color="#845BB8"/>
<stop offset="1" stop-color="#A65EAB"/>
</linearGradient>
<linearGradient id="paint11_linear" x1="72.6252" y1="28.271" x2="72.6252" y2="45.6602" gradientUnits="userSpaceOnUse">
<stop stop-color="#635DB5" stop-opacity="0"/>
<stop offset="0.879414" stop-color="#635DB5"/>
</linearGradient>
<radialGradient id="paint12_radial" cx="0" cy="0" r="1" gradientUnits="userSpaceOnUse" gradientTransform="translate(47.1541 112.55) rotate(128.109) scale(23.789 8.54115)">
<stop stop-color="#C450D3"/>
<stop offset="1" stop-color="#F183FF" stop-opacity="0.35"/>
</radialGradient>
<linearGradient id="paint13_linear" x1="33.8933" y1="116.391" x2="33.8933" y2="125.779" gradientUnits="userSpaceOnUse">
<stop stop-color="#120F5F"/>
<stop offset="1" stop-color="#8B79CF"/>
</linearGradient>
</defs>
</svg>
