<svg width="107" height="103" viewBox="0 0 107 103" fill="none" xmlns="http://www.w3.org/2000/svg">
<g filter="url(#filter0_d)">
<path d="M82.3594 29.1371C80.1871 30.4151 76.0898 31.0445 76.0898 31.0445L80.1716 37.9531L88.889 26.0558C88.889 26.0558 88.3116 24.9871 88.103 24.6435C87.2868 23.2996 85.1383 22.6138 85.1383 22.6138C85.1383 22.6138 86.6397 22.4307 87.5985 22.4917C88.9582 22.5783 90.9782 23.2673 90.9782 23.2673C90.9782 23.2673 91.613 23.2358 92.0895 21.6158C92.566 19.9958 94.6778 12.8525 94.6778 12.8525C94.6778 12.8525 94.166 12.0176 93.5994 11.9627C92.9151 11.8965 92.2177 12.9746 92.2177 12.9746L89.7379 20.7166C89.7379 20.7166 87.3651 19.5722 85.0162 20.1527C83.9127 20.4255 80.9291 21.1537 80.9291 21.1537C80.9291 21.1537 82.825 22.9051 83.7853 24.2047C84.4804 25.1454 85.3179 26.233 85.3179 26.233C85.3179 26.233 83.6638 28.3697 82.3594 29.1371Z" fill="url(#paint0_linear)"/>
<path d="M82.3594 29.1371C80.1871 30.4151 76.0898 31.0445 76.0898 31.0445L80.1716 37.9531L88.889 26.0558C88.889 26.0558 88.3116 24.9871 88.103 24.6435C87.2868 23.2996 85.1383 22.6138 85.1383 22.6138C85.1383 22.6138 86.6397 22.4307 87.5985 22.4917C88.9582 22.5783 90.9782 23.2673 90.9782 23.2673C90.9782 23.2673 91.613 23.2358 92.0895 21.6158C92.566 19.9958 94.6778 12.8525 94.6778 12.8525C94.6778 12.8525 94.166 12.0176 93.5994 11.9627C92.9151 11.8965 92.2177 12.9746 92.2177 12.9746L89.7379 20.7166C89.7379 20.7166 87.3651 19.5722 85.0162 20.1527C83.9127 20.4255 80.9291 21.1537 80.9291 21.1537C80.9291 21.1537 82.825 22.9051 83.7853 24.2047C84.4804 25.1454 85.3179 26.233 85.3179 26.233C85.3179 26.233 83.6638 28.3697 82.3594 29.1371Z" stroke="url(#paint1_linear)" stroke-width="3"/>
</g>
<g filter="url(#filter1_d)">
<ellipse cx="93.8349" cy="7.08946" rx="6.08771" ry="4.8468" transform="rotate(87.1594 93.8349 7.08946)" fill="url(#paint2_radial)"/>
<path d="M94.0375 11.1721C92.8679 11.2302 91.1258 9.93409 90.9916 7.23054C90.8575 4.52698 92.4627 3.06481 93.6324 3.00678C94.802 2.94874 96.5441 4.24483 96.6782 6.94838C96.8124 9.65194 95.2071 11.1141 94.0375 11.1721Z" stroke="#68488E" stroke-width="4"/>
</g>
<g filter="url(#filter2_d)">
<path d="M95.2277 6.30406C95.5901 8.2919 97.0079 4.20988 97.0079 4.20988L95.7532 3.70497C95.7532 3.70497 94.8652 4.31622 95.2277 6.30406Z" fill="white" fill-opacity="0.41"/>
</g>
<g filter="url(#filter3_d)">
<path d="M83.0314 66.9769C80.5856 65.909 76.1563 65.6957 76.1563 65.6957L79.7905 58.2889L90.3046 69.4181C90.3046 69.4181 89.7999 70.5583 89.6132 70.9272C88.8825 72.3703 86.665 73.2857 86.665 73.2857C86.665 73.2857 88.2831 73.3157 89.298 73.155C90.7374 72.9271 92.8178 72.0218 92.8178 72.0218C92.8178 72.0218 93.4973 71.988 94.1721 73.5768C94.8469 75.1656 97.834 82.1702 97.834 82.1702C97.834 82.1702 97.3751 83.0672 96.7773 83.1812C96.0552 83.3189 95.201 82.3008 95.201 82.3008L91.7601 74.7289C91.7601 74.7289 89.3509 76.131 86.7891 75.7866C85.5855 75.6249 82.3323 75.1966 82.3323 75.1966C82.3323 75.1966 84.1709 73.23 85.0595 71.8168C85.7028 70.7938 86.4825 69.6077 86.4825 69.6077C86.4825 69.6077 84.5 67.618 83.0314 66.9769Z" fill="url(#paint3_linear)"/>
<path d="M83.0314 66.9769C80.5856 65.909 76.1563 65.6957 76.1563 65.6957L79.7905 58.2889L90.3046 69.4181C90.3046 69.4181 89.7999 70.5583 89.6132 70.9272C88.8825 72.3703 86.665 73.2857 86.665 73.2857C86.665 73.2857 88.2831 73.3157 89.298 73.155C90.7374 72.9271 92.8178 72.0218 92.8178 72.0218C92.8178 72.0218 93.4973 71.988 94.1721 73.5768C94.8469 75.1656 97.834 82.1702 97.834 82.1702C97.834 82.1702 97.3751 83.0672 96.7773 83.1812C96.0552 83.3189 95.201 82.3008 95.201 82.3008L91.7601 74.7289C91.7601 74.7289 89.3509 76.131 86.7891 75.7866C85.5855 75.6249 82.3323 75.1966 82.3323 75.1966C82.3323 75.1966 84.1709 73.23 85.0595 71.8168C85.7028 70.7938 86.4825 69.6077 86.4825 69.6077C86.4825 69.6077 84.5 67.618 83.0314 66.9769Z" stroke="url(#paint4_linear)" stroke-width="3"/>
</g>
<g filter="url(#filter4_d)">
<ellipse rx="6.16138" ry="5.16631" transform="matrix(-0.0495567 -0.998771 -0.998771 0.0495567 97.5346 88.1017)" fill="url(#paint5_radial)"/>
<path d="M97.3284 83.9455C95.897 84.0165 94.2413 85.6192 94.3722 88.2586C94.5032 90.8981 96.3095 92.329 97.7409 92.258C99.1723 92.187 100.828 90.5843 100.697 87.9448C100.566 85.3053 98.7598 83.8744 97.3284 83.9455Z" stroke="#68488E" stroke-width="4"/>
</g>
<g filter="url(#filter5_d)">
<path d="M99.0917 88.7277C99.2714 86.6809 101.196 90.6613 101.196 90.6613L99.917 91.3009C99.917 91.3009 98.9121 90.7746 99.0917 88.7277Z" fill="white" fill-opacity="0.41"/>
</g>
<path d="M-14.9907 73.8764C-13.5253 75.7222 -8.35908 80.0779 -8.35908 80.0779L0.135209 74.5771L10.3146 74.072C10.3146 74.072 9.5845 70.9245 10.7801 68.9696C11.7282 67.4194 12.9481 65.9769 14.6221 65.296C16.4935 64.5348 17.7845 64.7577 19.7835 65.0399C21.4345 65.273 23.8698 66.2884 23.8698 66.2884C23.8698 66.2884 21.9296 63.6411 20.9754 61.354C19.0083 56.6391 18.9174 53.489 19.1819 48.3818C19.4579 43.0542 22.2967 34.5844 22.2967 34.5844L13.9811 34.997C10.8269 35.1535 5.15395 30.6827 -0.944549 29.6423C-5.65975 28.838 -13.1815 29.2336 -13.1815 29.2336C-13.1815 29.2336 -18.6674 36.9341 -20.2771 42.6468C-21.3841 46.5756 -21.6439 48.9322 -21.6309 53.0178C-21.6166 57.5123 -21.3307 60.1345 -19.9165 64.3975C-18.6016 68.361 -17.5804 70.6144 -14.9907 73.8764Z" fill="url(#paint6_radial)" stroke="black"/>
<path d="M58.5489 15.3712L52.7709 14.7871C52.7709 14.7871 52.8673 13.2629 52.6488 12.3261C52.4435 11.4457 52.1939 10.981 51.7525 10.1937C51.1969 9.20259 50.2917 8.98274 49.9852 7.88687C49.8024 7.23301 49.758 6.81366 49.8991 6.14966C50.1569 4.93611 50.899 4.39464 51.9347 3.72668C53.0878 2.98298 53.9761 2.972 55.3433 2.90449C56.3608 2.85425 56.9666 2.84027 57.942 3.13836C59.103 3.49322 59.915 3.74257 60.6089 4.74752C61.0913 5.44626 61.3318 5.96806 61.2865 6.81819C61.2427 7.63966 60.8688 8.04231 60.448 8.74641C59.9562 9.56922 59.2951 9.76863 58.889 10.6378C58.483 11.5066 58.4961 12.096 58.434 13.0549C58.3755 13.9586 58.5489 15.3712 58.5489 15.3712Z" fill="url(#paint7_linear)" stroke="#3C4C0D" stroke-width="3"/>
<path d="M54.0274 83.1718C36.3214 84.0503 21.0807 69.6044 20.144 50.727C19.2074 31.8496 32.9432 15.9659 50.6492 15.0874C68.3553 14.2088 83.596 28.6548 84.5326 47.5322C85.4693 66.4095 71.7335 82.2933 54.0274 83.1718Z" fill="url(#paint8_linear)" stroke="#435917" stroke-width="3"/>
<path d="M57.409 79.7932C56.3654 80.1611 55.2979 80.6962 55.341 81.5648C55.3841 82.4334 56.3278 83.5423 56.5206 85.0618C56.6925 86.4167 56.8702 87.3003 56.3346 88.554C56.026 89.2762 55.772 90.2508 55.772 90.2508C55.772 90.2508 54.299 92.4282 54.6253 93.2102C54.9515 93.9921 55.5072 95.053 56.6793 95.5028C57.8514 95.9526 58.8615 96.246 60.4429 96.0417C61.841 95.8611 63.0416 95.6904 64.1167 94.771L64.1198 94.7683C64.6933 94.2779 65.0582 93.9658 65.3352 93.2593C65.7147 92.2915 65.5051 91.5917 65.2075 90.5982L65.2024 90.5811C64.7701 89.138 63.4989 88.8813 62.8938 87.5029C62.2637 86.0679 62.1944 83.5467 62.1944 83.5467C62.1944 83.5467 62.6123 81.7844 62.2049 80.8614C61.8655 80.0925 61.3031 80.0663 60.936 79.9085C59.7492 79.3983 58.6259 79.3642 57.409 79.7932Z" fill="url(#paint9_linear)" stroke="#3C510C" stroke-width="3"/>
<ellipse cx="60.6368" cy="93.2713" rx="1.37698" ry="3.51694" transform="rotate(87.1594 60.6368 93.2713)" fill="#B8D36A"/>
<ellipse cx="60.6225" cy="92.9817" rx="1.37698" ry="3.51694" transform="rotate(87.1594 60.6225 92.9817)" fill="#3F5115"/>
<path d="M48.6142 21.7816C45.7697 22.7681 41.9047 25.5974 41.9047 25.5974C41.9047 25.5974 43.1924 28.4652 43.8658 30.3618C45.0739 33.7642 46.1786 39.3172 46.1786 39.3172C46.1786 39.3172 47.0534 43.1044 47.3513 45.5719C47.6734 48.2412 47.8883 49.7672 47.6925 52.4484C47.4925 55.1865 46.3096 59.3378 46.3096 59.3378C46.3096 59.3378 46.4039 60.5721 46.4102 61.3646C46.4482 66.1627 43.4077 73.2685 43.4077 73.2685C43.4077 73.2685 47.9719 76.4895 51.3581 77.0827C54.1203 77.5665 56.187 77.5798 58.6701 76.7198C61.1532 75.8599 62.1396 75.677 64.5158 74.3255C66.8921 72.974 68.6434 71.6552 70.5191 69.3111C72.6392 66.6614 73.5143 64.8742 74.7406 61.7003C76.455 57.2631 76.869 54.4587 76.8757 49.6943C76.8817 45.4249 76.4701 42.9638 75.19 38.8936C73.9732 35.0248 73.1637 32.7481 70.7015 29.5382C68.6131 26.8155 67.1396 25.4118 64.2276 23.6191C61.5487 21.9698 59.8639 21.0374 56.7505 20.6522C53.5662 20.2583 51.647 20.7297 48.6142 21.7816Z" fill="url(#paint10_linear)" stroke="#55545A" stroke-width="2"/>
<ellipse cx="58.8212" cy="37.8518" rx="4.7832" ry="5.45484" transform="rotate(87.1594 58.8212 37.8518)" fill="url(#paint11_linear)"/>
<ellipse cx="60.3288" cy="59.5457" rx="4.7832" ry="5.45484" transform="rotate(87.1594 60.3288 59.5457)" fill="url(#paint12_linear)"/>
<ellipse cx="62.398" cy="34.6265" rx="1.15956" ry="1.29194" transform="rotate(87.1594 62.398 34.6265)" fill="white"/>
<ellipse cx="56.5668" cy="38.7618" rx="0.797199" ry="0.861291" transform="rotate(87.1594 56.5668 38.7618)" fill="white"/>
<ellipse cx="58.1031" cy="61.0347" rx="0.797199" ry="0.861291" transform="rotate(87.1594 58.1031 61.0347)" fill="white"/>
<ellipse cx="63.9128" cy="56.4653" rx="1.15956" ry="1.29194" transform="rotate(87.1594 63.9128 56.4653)" fill="white"/>
<ellipse cx="59.5381" cy="37.816" rx="2.17418" ry="3.01452" transform="rotate(87.1594 59.5381 37.816)" fill="black" fill-opacity="0.5"/>
<ellipse cx="60.6155" cy="59.5309" rx="2.17418" ry="3.01452" transform="rotate(87.1594 60.6155 59.5309)" fill="black" fill-opacity="0.5"/>
<path d="M41.419 31.894C41.419 31.894 45.1056 36.4835 46.4415 40.4248C47.372 43.1699 47.4993 44.8695 47.668 47.7653C47.853 50.9423 47.8205 52.7933 47.2101 55.9149C46.52 59.4439 43.0711 65.1905 43.0711 65.1905" stroke="#3E5600" stroke-width="2"/>
<ellipse rx="1.88312" ry="1.14912" transform="matrix(0.299966 0.95395 -0.952509 0.304512 42.1442 37.7513)" fill="#6FA02A"/>
<ellipse rx="1.32376" ry="0.775284" transform="matrix(0.299966 0.95395 -0.952509 0.304512 43.5804 42.2098)" fill="#6FA02A"/>
<path d="M30.9949 61.6822C29.1737 61.7726 27.6169 60.2255 27.5177 58.2267C27.4185 56.2279 28.8145 54.5342 30.6357 54.4439C32.4569 54.3535 32.5458 50.9387 36.0484 57.8034C39.3358 64.6788 32.816 61.5919 30.9949 61.6822Z" fill="url(#paint13_radial)"/>
<path d="M33.6566 59.417C33.4582 58.7974 33.574 57.7522 33.574 57.7522C33.574 57.7522 32.9599 57.4617 32.6814 57.1434C32.4156 56.8396 32.3011 56.6172 32.2046 56.2237C32.0683 55.668 32.165 55.307 32.3478 54.7654C32.5359 54.2081 33.147 53.4922 33.147 53.4922L35.8212 56.6974C36.1081 57.6506 36.6703 59.6157 36.6244 59.8502C36.5786 60.0847 36.4597 60.8743 36.4059 61.2397C36.4059 61.2397 35.3668 61.3281 34.8145 61.0285C34.1362 60.6605 33.8934 60.1567 33.6566 59.417Z" fill="white"/>
<path d="M33.574 57.7522L34.9754 57.0296L35.8212 56.6974M33.574 57.7522C33.574 57.7522 33.4582 58.7974 33.6566 59.417C33.8934 60.1567 34.1362 60.6605 34.8145 61.0285C35.3668 61.3281 36.4059 61.2397 36.4059 61.2397C36.4597 60.8743 36.5786 60.0847 36.6244 59.8502C36.6703 59.6157 36.1081 57.6506 35.8212 56.6974M33.574 57.7522C33.574 57.7522 32.9599 57.4617 32.6814 57.1434C32.4156 56.8396 32.3011 56.6172 32.2046 56.2237C32.0683 55.668 32.165 55.307 32.3478 54.7654C32.5359 54.2081 33.147 53.4922 33.147 53.4922L35.8212 56.6974" stroke="#6B8498"/>
<path d="M-12.9478 79.5797L13.0413 76.8857L8.77052 71.2459L-14.8024 75.1073L-12.9478 79.5797Z" fill="url(#paint14_linear)" stroke="#303C08" stroke-width="3"/>
<path d="M30.0632 56.5485C29.6987 55.9288 28.7082 55.3097 28.7082 55.3097C28.7082 55.3097 28.0694 55.7441 27.8158 56.1521C27.5049 56.6525 27.4998 57.0318 27.4575 57.6211C27.4006 58.416 27.4715 58.9004 27.7731 59.6372C28.0083 60.2116 28.6299 60.9734 28.6299 60.9734C28.6299 60.9734 29.2345 61.0885 29.5619 60.9271C30.0158 60.7034 30.039 60.2801 30.2248 59.8058C30.4876 59.1351 30.5631 58.6966 30.4935 57.9784C30.4371 57.3977 30.3584 57.0504 30.0632 56.5485Z" fill="url(#paint15_radial)" stroke="#F36C6C"/>
<path d="M31.9948 52.5337C31.9948 52.5337 34.0794 54.42 35.0493 55.9377C35.7421 57.0218 36.2038 57.6457 36.5023 58.9132C36.7484 59.9581 36.6388 61.6638 36.6388 61.6638L37.2481 62.8671M37.2481 62.8671L35.4192 63.3932M37.2481 62.8671L37.9448 60.2929M32.8724 53.6512L30.1842 54.5102C30.1842 54.5102 28.3143 54.9092 27.828 55.7881C27.3862 56.5866 27.428 57.2018 27.4632 58.1282C27.5004 59.1099 27.5706 59.7304 28.065 60.5654C28.3386 61.0275 28.9413 61.6104 28.9413 61.6104M25.4939 57.21L25.3565 58.5955C25.3565 58.5955 25.1823 59.9232 25.4607 60.6946C25.6223 61.1425 26.0628 61.7532 26.0628 61.7532L26.7877 62.5154L27.7217 63.3398" stroke="#3E4D14" stroke-width="2"/>
<path d="M16.3941 69.1994C15.2361 69.6591 14.0767 69.9646 13.9068 71.2095C13.8609 71.5459 13.9499 72.0781 13.9499 72.0781L12.2511 74.049L11.1758 74.1023C11.1758 74.1023 10.0034 71.9901 10.0644 70.5294C10.1095 69.4471 10.2926 68.7917 10.867 67.8773C11.5996 66.7108 12.4558 66.4104 13.6339 65.7083C14.3689 65.2702 14.7911 65.0214 15.598 64.7401C16.5082 64.4227 17.0553 64.305 18.0173 64.2573C18.9794 64.2095 19.5345 64.2764 20.4726 64.4982C21.6204 64.7696 22.2818 65.0032 23.2613 65.666C23.9861 66.1564 24.9174 67.1802 24.9174 67.1802C24.9174 67.1802 25.7644 68.693 25.7636 69.7504C25.7629 70.6454 25.5121 71.1389 25.1545 71.9575C24.482 73.4967 23.7881 74.0939 22.4199 74.778C20.7636 75.6061 17.6913 75.0126 17.6913 75.0126L20.8533 72.1709C20.8533 72.1709 22.098 71.5478 22.2224 70.7969C22.413 69.6461 20.9328 69.3947 19.8351 69.0287C18.5571 68.6027 17.6459 68.7026 16.3941 69.1994Z" fill="#DFDFDF" stroke="#6F6F6F" stroke-width="3"/>
<path d="M7.91867 70.7968C7.40154 69.9041 6.33508 68.6855 6.33508 68.6855L15.3979 67.6383L18.1534 67.4516C18.1534 67.4516 19.0846 67.2597 19.6668 67.3685C20.4686 67.5184 21.0919 67.3838 21.7086 67.9227C22.3042 68.4432 22.4179 68.8487 22.5124 69.6379C22.6176 70.5168 21.9392 71.5404 21.6653 72.0019C18.8354 76.7699 8.47784 79.8144 8.47784 79.8144L9.16259 77.5235C9.16259 77.5235 9.41673 75.0023 9.03274 73.4639C8.75918 72.3679 8.48393 71.7727 7.91867 70.7968Z" fill="url(#paint16_radial)" stroke="black"/>
<path d="M14.0644 35.2288L9.44406 33.3538L13.0104 32.814C13.0104 32.814 15.4073 32.2185 16.8635 32.26C17.9104 32.2898 18.6039 32.2758 19.4801 32.8558C20.3063 33.4027 21.4337 34.5729 21.4337 34.5729C20.5412 34.4479 18.2537 34.4985 17.9067 34.4577C17.5598 34.4168 15.2006 34.9547 14.0644 35.2288Z" fill="#C4C4C4" stroke="#5F5C57" stroke-width="2"/>
<path d="M6.23902 71.589L8.16736 71.3482L7.54718 70.4357L6.31042 68.683L6.23902 71.589Z" fill="black" stroke="black"/>
<path d="M8.3505 79.9749L7.03893 77.5729L9.11783 77.4697L8.3505 79.9749Z" fill="black"/>
<defs>
<filter id="filter0_d" x="69.6705" y="10.4595" width="30.6349" height="38.2147" filterUnits="userSpaceOnUse" color-interpolation-filters="sRGB">
<feFlood flood-opacity="0" result="BackgroundImageFix"/>
<feColorMatrix in="SourceAlpha" type="matrix" values="0 0 0 0 0 0 0 0 0 0 0 0 0 0 0 0 0 0 127 0"/>
<feOffset dy="4"/>
<feGaussianBlur stdDeviation="2"/>
<feColorMatrix type="matrix" values="0 0 0 0 0 0 0 0 0 0 0 0 0 0 0 0 0 0 0.25 0"/>
<feBlend mode="normal" in2="BackgroundImageFix" result="effect1_dropShadow"/>
<feBlend mode="normal" in="SourceGraphic" in2="effect1_dropShadow" result="shape"/>
</filter>
<filter id="filter1_d" x="84.9845" y="1.00439" width="17.7008" height="20.1701" filterUnits="userSpaceOnUse" color-interpolation-filters="sRGB">
<feFlood flood-opacity="0" result="BackgroundImageFix"/>
<feColorMatrix in="SourceAlpha" type="matrix" values="0 0 0 0 0 0 0 0 0 0 0 0 0 0 0 0 0 0 127 0"/>
<feOffset dy="4"/>
<feGaussianBlur stdDeviation="2"/>
<feColorMatrix type="matrix" values="0 0 0 0 0 0 0 0 0 0 0 0 0 0 0 0 0 0 0.25 0"/>
<feBlend mode="normal" in2="BackgroundImageFix" result="effect1_dropShadow"/>
<feBlend mode="normal" in="SourceGraphic" in2="effect1_dropShadow" result="shape"/>
</filter>
<filter id="filter2_d" x="91.1407" y="3.70508" width="9.86716" height="11.1448" filterUnits="userSpaceOnUse" color-interpolation-filters="sRGB">
<feFlood flood-opacity="0" result="BackgroundImageFix"/>
<feColorMatrix in="SourceAlpha" type="matrix" values="0 0 0 0 0 0 0 0 0 0 0 0 0 0 0 0 0 0 127 0"/>
<feOffset dy="4"/>
<feGaussianBlur stdDeviation="2"/>
<feColorMatrix type="matrix" values="0 0 0 0 0 0 0 0 0 0 0 0 0 0 0 0 0 0 0.25 0"/>
<feBlend mode="normal" in2="BackgroundImageFix" result="effect1_dropShadow"/>
<feBlend mode="normal" in="SourceGraphic" in2="effect1_dropShadow" result="shape"/>
</filter>
<filter id="filter3_d" x="69.8042" y="55.687" width="33.6851" height="37.0069" filterUnits="userSpaceOnUse" color-interpolation-filters="sRGB">
<feFlood flood-opacity="0" result="BackgroundImageFix"/>
<feColorMatrix in="SourceAlpha" type="matrix" values="0 0 0 0 0 0 0 0 0 0 0 0 0 0 0 0 0 0 127 0"/>
<feOffset dy="4"/>
<feGaussianBlur stdDeviation="2"/>
<feColorMatrix type="matrix" values="0 0 0 0 0 0 0 0 0 0 0 0 0 0 0 0 0 0 0.25 0"/>
<feBlend mode="normal" in2="BackgroundImageFix" result="effect1_dropShadow"/>
<feBlend mode="normal" in="SourceGraphic" in2="effect1_dropShadow" result="shape"/>
</filter>
<filter id="filter4_d" x="88.3655" y="81.9424" width="18.3383" height="20.3185" filterUnits="userSpaceOnUse" color-interpolation-filters="sRGB">
<feFlood flood-opacity="0" result="BackgroundImageFix"/>
<feColorMatrix in="SourceAlpha" type="matrix" values="0 0 0 0 0 0 0 0 0 0 0 0 0 0 0 0 0 0 127 0"/>
<feOffset dy="4"/>
<feGaussianBlur stdDeviation="2"/>
<feColorMatrix type="matrix" values="0 0 0 0 0 0 0 0 0 0 0 0 0 0 0 0 0 0 0.25 0"/>
<feBlend mode="normal" in2="BackgroundImageFix" result="effect1_dropShadow"/>
<feBlend mode="normal" in="SourceGraphic" in2="effect1_dropShadow" result="shape"/>
</filter>
<filter id="filter5_d" x="95.0702" y="88.1426" width="10.1258" height="11.1584" filterUnits="userSpaceOnUse" color-interpolation-filters="sRGB">
<feFlood flood-opacity="0" result="BackgroundImageFix"/>
<feColorMatrix in="SourceAlpha" type="matrix" values="0 0 0 0 0 0 0 0 0 0 0 0 0 0 0 0 0 0 127 0"/>
<feOffset dy="4"/>
<feGaussianBlur stdDeviation="2"/>
<feColorMatrix type="matrix" values="0 0 0 0 0 0 0 0 0 0 0 0 0 0 0 0 0 0 0.25 0"/>
<feBlend mode="normal" in2="BackgroundImageFix" result="effect1_dropShadow"/>
<feBlend mode="normal" in="SourceGraphic" in2="effect1_dropShadow" result="shape"/>
</filter>
<linearGradient id="paint0_linear" x1="95.2576" y1="24.5391" x2="75.8149" y2="25.5038" gradientUnits="userSpaceOnUse">
<stop stop-color="#74A726"/>
<stop offset="1" stop-color="#8E911D"/>
</linearGradient>
<linearGradient id="paint1_linear" x1="95.2576" y1="24.5391" x2="75.8149" y2="25.5038" gradientUnits="userSpaceOnUse">
<stop stop-color="#3C5013"/>
<stop offset="1" stop-color="#3C5013" stop-opacity="0"/>
</linearGradient>
<radialGradient id="paint2_radial" cx="0" cy="0" r="1" gradientUnits="userSpaceOnUse" gradientTransform="translate(93.3276 5.26198) rotate(85.6533) scale(6.69354 8.41701)">
<stop stop-color="#F09CF2"/>
<stop offset="1" stop-color="#480049"/>
</radialGradient>
<linearGradient id="paint3_linear" x1="97.2447" y1="70.2939" x2="76.4357" y2="71.3264" gradientUnits="userSpaceOnUse">
<stop stop-color="#74A726"/>
<stop offset="1" stop-color="#8E911D"/>
</linearGradient>
<linearGradient id="paint4_linear" x1="97.2447" y1="70.2939" x2="76.4357" y2="71.3264" gradientUnits="userSpaceOnUse">
<stop stop-color="#3C5013"/>
<stop offset="1" stop-color="#3C5013" stop-opacity="0"/>
</linearGradient>
<radialGradient id="paint5_radial" cx="0" cy="0" r="1" gradientUnits="userSpaceOnUse" gradientTransform="translate(5.64793 3.21836) rotate(85.872) scale(7.13277 8.52127)">
<stop stop-color="#F09CF2"/>
<stop offset="1" stop-color="#480049"/>
</radialGradient>
<radialGradient id="paint6_radial" cx="0" cy="0" r="1" gradientUnits="userSpaceOnUse" gradientTransform="translate(0.804015 54.0815) rotate(177.159) scale(22.4325 25.5104)">
<stop offset="0.229167" stop-color="#7B00DC"/>
<stop offset="1" stop-color="#270707"/>
</radialGradient>
<linearGradient id="paint7_linear" x1="61.4098" y1="8.9162" x2="49.9427" y2="9.48517" gradientUnits="userSpaceOnUse">
<stop stop-color="#72A435"/>
<stop offset="1" stop-color="#CABB38"/>
</linearGradient>
<linearGradient id="paint8_linear" x1="65.0948" y1="48.4241" x2="51.5281" y2="81.0562" gradientUnits="userSpaceOnUse">
<stop stop-color="#94B92C"/>
<stop offset="1" stop-color="#C1DB79"/>
</linearGradient>
<linearGradient id="paint9_linear" x1="60.7796" y1="87.4594" x2="54.7848" y2="90.0397" gradientUnits="userSpaceOnUse">
<stop stop-color="#B5DB28"/>
<stop offset="1" stop-color="#526800"/>
</linearGradient>
<linearGradient id="paint10_linear" x1="70.17" y1="46.4312" x2="67.8655" y2="75.2709" gradientUnits="userSpaceOnUse">
<stop offset="0.479167" stop-color="#F6F7F9"/>
<stop offset="1" stop-color="#B6B6B6"/>
</linearGradient>
<linearGradient id="paint11_linear" x1="58.8212" y1="32.397" x2="58.8212" y2="43.3067" gradientUnits="userSpaceOnUse">
<stop/>
<stop offset="1" stop-color="#635DB5"/>
</linearGradient>
<linearGradient id="paint12_linear" x1="60.3288" y1="54.0908" x2="60.3288" y2="65.0005" gradientUnits="userSpaceOnUse">
<stop/>
<stop offset="1" stop-color="#635DB5"/>
</linearGradient>
<radialGradient id="paint13_radial" cx="0" cy="0" r="1" gradientUnits="userSpaceOnUse" gradientTransform="translate(32.1655 57.9961) rotate(177.159) scale(4.65349 4.44865)">
<stop offset="0.1875" stop-color="#E13939"/>
<stop offset="1" stop-color="#0C060A"/>
</radialGradient>
<linearGradient id="paint14_linear" x1="12.9313" y1="74.6675" x2="-14.7561" y2="76.0413" gradientUnits="userSpaceOnUse">
<stop stop-color="#B4DA2F"/>
<stop offset="1" stop-color="#7FA400"/>
</linearGradient>
<radialGradient id="paint15_radial" cx="0" cy="0" r="1" gradientUnits="userSpaceOnUse" gradientTransform="translate(28.9735 58.1587) rotate(177.159) scale(1.53352 2.85864)">
<stop stop-color="#FFCACA" stop-opacity="0.92"/>
<stop offset="0.760417" stop-color="#FB8C8C"/>
<stop offset="1" stop-color="#FB8C8C"/>
</radialGradient>
<radialGradient id="paint16_radial" cx="0" cy="0" r="1" gradientUnits="userSpaceOnUse" gradientTransform="translate(12.7735 71.8698) rotate(-139.252) scale(6.97346 8.82259)">
<stop stop-color="#9F43FD"/>
<stop offset="0.208333" stop-color="#9F43FD"/>
<stop offset="1" stop-opacity="0.96"/>
</radialGradient>
</defs>
</svg>
