<svg width="84" height="129" viewBox="0 0 84 129" fill="none" xmlns="http://www.w3.org/2000/svg">
<path d="M30.2614 118.448L28.614 124.973H27.2573" stroke="black"/>
<path d="M44.2157 117.18L42.5683 123.705H41.2116" stroke="black"/>
<path d="M58.4605 115.186L60.2673 121.711H61.7552" stroke="black"/>
<g filter="url(#filter0_d)">
<path d="M70.2831 113.192L72.8339 119.717H74.9346" stroke="black"/>
</g>
<g filter="url(#filter1_d)">
<path d="M7.18929 36.0709L5.83755 39.7846C5.83755 39.7846 4 36.4333 4 31.997C4 27.5608 4.82385 27.0287 5.35174 23.8452C5.35174 23.8452 7.78746 16.7406 10.7587 12.9761C13.9712 8.90585 16.552 7.05978 21.1864 4.462C23.967 2.90333 25.6101 2.05959 28.7175 1.20127C31.6435 0.393026 33.3916 0.143692 36.4417 0.114362C39.7156 0.0828794 41.2904 -0.0285124 44.4586 0.746428C48.9338 1.84105 52.2524 2.68635 55.7472 5.5279C58.1864 7.5111 60.4739 9.40394 62.3208 11.8872C64.7039 15.0914 66.0588 17.2251 67.8243 20.7637C69.5126 24.1474 70.3347 28.4626 69.6588 29.8212C68.9829 31.1799 66.1799 26.5625 66.1799 26.5625L57.4901 23.8452L45.9038 22.9394L34.7037 23.8452L21.7336 27.7313L13.269 30.729L7.18929 36.0709Z" fill="#373188"/>
</g>
<g filter="url(#filter2_d)">
<path d="M52.934 86.1875L67.4698 29.4556" stroke="url(#paint0_linear)" stroke-width="2"/>
</g>
<g filter="url(#filter3_d)">
<path d="M48.2823 85.0998L53.5152 25.2866" stroke="url(#paint1_linear)" stroke-width="2"/>
</g>
<g filter="url(#filter4_d)">
<path d="M44.988 85.0996L38.0108 24.7427" stroke="url(#paint2_linear)" stroke-width="2"/>
</g>
<g filter="url(#filter5_d)">
<path d="M25.4128 27.0991L43.0495 85.8248" stroke="url(#paint3_linear)" stroke-width="2"/>
</g>
<path d="M6.80713 37.249L38.9796 87.2746" stroke="url(#paint4_linear)" stroke-width="2"/>
<g filter="url(#filter6_d)">
<path d="M14.9471 31.4492L41.3053 86.1874" stroke="url(#paint5_linear)" stroke-width="2"/>
</g>
<path d="M60.2987 38.6992L50.6082 86.006" stroke="url(#paint6_linear)" stroke-width="2"/>
<g filter="url(#filter7_d)">
<path d="M51.6664 15.914C53.0295 18.6329 53.9574 22.8181 53.9574 22.8181C53.9574 22.8181 59.4642 23.6553 62.6237 24.4712C65.5507 25.2271 70.0891 28.1842 70.0891 28.1842C70.0891 28.1842 67.2193 20.2253 65.3132 17.5671C63.407 14.9088 61.9172 11.8626 60.011 9.20434C58.1049 6.54609 55.2921 5.25861 51.6664 3.36987C48.0693 1.49608 42.4025 0.452637 42.4025 0.452637H34.2343C36.1405 1.06024 37.1231 1.32781 39.2149 2.59194C41.3067 3.85608 44.575 5.94815 47.2835 9.20434C49.2902 11.6168 50.2669 13.1227 51.6664 15.914Z" fill="url(#paint7_linear)"/>
</g>
<g filter="url(#filter8_d)">
<path d="M25.1899 12.3128C24.2297 18.546 25.1899 28.4381 25.1899 28.4381C25.1899 28.4381 19.3348 30.2056 15.5689 31.2958C11.9051 32.3565 6.71332 35.072 6.71332 35.072C6.71332 35.072 7.36241 23.9475 10.2118 17.722C11.9097 14.0124 13.2526 11.5688 16.3342 8.74078C20.0388 5.34112 28.0324 1.90283 28.0324 1.90283C28.0324 1.90283 25.7766 8.50427 25.1899 12.3128Z" fill="url(#paint8_linear)"/>
</g>
<g filter="url(#filter9_d)">
<path d="M69.8951 29.424C69.8951 34.313 66.6003 39.6363 41.5989 43.2391C10.6862 46.0699 5.55023 42.9636 5.55023 38.0746C5.55023 33.1856 22.9093 24.6131 37.7157 23.0735C55.1869 21.2569 69.8951 24.535 69.8951 29.424Z" fill="#21206E"/>
</g>
<g filter="url(#filter10_d)">
<path d="M38.7889 43.1377C36.5601 43.6815 26.8843 43.8912 19.5048 44.3159V28.0938C19.5048 28.0938 22.2666 26.7797 26.482 25.4656C30.6973 24.1516 34.2344 24.0156 34.2344 24.0156L38.7889 43.1377Z" fill="url(#paint9_linear)" fill-opacity="0.8"/>
</g>
<g filter="url(#filter11_d)">
<path d="M43.2353 84.6997C50.1156 84.1005 51.1124 85.2778 54.1987 86.7832C64.9337 92.0196 79.1014 107.12 79.1014 109.114C79.1014 111.108 83.5348 113.519 55.1547 117.144C26.6687 120.782 23.0137 119.772 21.4318 117.144C19.8498 114.516 36.3551 85.2989 43.2353 84.6997Z" fill="url(#paint10_linear)"/>
</g>
<g filter="url(#filter12_d)">
<path d="M7.68237 27.0971C7.68237 27.0971 18.6785 21.9396 26.3055 20.2412C33.331 18.6767 37.4916 18.4846 44.7284 18.437C50.2943 18.4004 53.5301 18.182 58.946 19.3391C62.5802 20.1155 67.9572 22.2258 67.9572 22.2258" stroke="#1C1572" stroke-width="4"/>
</g>
<g filter="url(#filter13_d)">
<path d="M7.76431 33.4269L5.11877 38.0629C5.11877 38.0629 3.89445 34.6096 4.02408 31.1754C4.1537 27.7411 4.37053 28.0495 5.11878 24.6948C5.74995 21.865 6.50645 20.1044 7.76431 17.4908C9.2013 14.5051 10.6302 13.046 12.8729 10.6032C14.7745 8.53203 15.491 8.03912 17.7687 6.47213L17.8565 6.41173C20.6103 4.51706 23.176 3.03817 24.8234 2.53753C26.4708 2.03689 28.9244 0.686531 31.4828 0.499361C33.581 0.34586 34.9763 -2.53426e-06 38.7809 0C40.719 0 45.9589 1.08751 45.9589 1.08751H39.2724C36.0292 1.08751 33.6578 1.40925 30.4794 2.04564C28.1815 2.50572 26.9765 3.12361 24.8234 4.04677C22.9207 4.86258 21.8023 5.26512 20.0797 6.41173C18.3989 7.53053 17.6659 8.43671 16.157 9.77726C14.8205 10.9647 13.9787 12.1029 12.8729 13.5066C11.4952 15.2557 10.5415 17.6047 9.77126 19.6919C9.08496 21.5516 8.95849 22.7332 8.67656 24.6948C7.85553 30.4071 7.76431 33.4269 7.76431 33.4269Z" fill="#C4C4C4" fill-opacity="0.7"/>
</g>
<g filter="url(#filter14_d)">
<path d="M57.5886 23.8345L58.4607 39.5128C58.4607 39.5128 66.6976 36.6128 68.1512 34.4376C69.6048 32.2624 70.1862 30.2689 69.8955 28.8189C69.6048 27.3689 67.759 26.8614 66.2131 25.7376C63.0605 23.4459 57.5886 23.8345 57.5886 23.8345Z" fill="url(#paint11_linear)"/>
</g>
<g filter="url(#filter15_d)">
<path d="M39.3268 102.018C35.8034 108.428 30.9793 112.679 28.5518 111.512C26.1242 110.345 23.1873 108.842 30.5359 97.7921C34.0592 91.382 40.7222 84.2936 43.1497 85.4606C45.5772 86.6276 42.8501 95.608 39.3268 102.018Z" fill="url(#paint12_radial)"/>
</g>
<g filter="url(#filter16_d)">
<path d="M27.9354 102.045C27.9354 102.045 39.9976 98.2426 45.0876 97.4592C49.1377 96.8359 55.5212 96.2884 59.6233 96.1543C62.1195 96.0728 68.5386 97.4592 68.5386 97.4592" stroke="#2C2980" stroke-width="3"/>
</g>
<g filter="url(#filter17_d)">
<path d="M28.8868 100.142L24.9315 106.848C24.9315 106.848 29.9796 105.849 32.0511 103.767C33.6103 102.199 34.622 98.873 34.622 98.873L28.8868 100.142Z" fill="url(#paint13_linear)"/>
</g>
<defs>
<filter id="filter0_d" x="65.8174" y="113.01" width="13.1171" height="15.2071" filterUnits="userSpaceOnUse" color-interpolation-filters="sRGB">
<feFlood flood-opacity="0" result="BackgroundImageFix"/>
<feColorMatrix in="SourceAlpha" type="matrix" values="0 0 0 0 0 0 0 0 0 0 0 0 0 0 0 0 0 0 127 0"/>
<feOffset dy="4"/>
<feGaussianBlur stdDeviation="2"/>
<feColorMatrix type="matrix" values="0 0 0 0 0 0 0 0 0 0 0 0 0 0 0 0 0 0 0.25 0"/>
<feBlend mode="normal" in2="BackgroundImageFix" result="effect1_dropShadow"/>
<feBlend mode="normal" in="SourceGraphic" in2="effect1_dropShadow" result="shape"/>
</filter>
<filter id="filter1_d" x="0" y="0.090332" width="73.8953" height="47.6942" filterUnits="userSpaceOnUse" color-interpolation-filters="sRGB">
<feFlood flood-opacity="0" result="BackgroundImageFix"/>
<feColorMatrix in="SourceAlpha" type="matrix" values="0 0 0 0 0 0 0 0 0 0 0 0 0 0 0 0 0 0 127 0"/>
<feOffset dy="4"/>
<feGaussianBlur stdDeviation="2"/>
<feColorMatrix type="matrix" values="0 0 0 0 0 0 0 0 0 0 0 0 0 0 0 0 0 0 0.25 0"/>
<feBlend mode="normal" in2="BackgroundImageFix" result="effect1_dropShadow"/>
<feBlend mode="normal" in="SourceGraphic" in2="effect1_dropShadow" result="shape"/>
</filter>
<filter id="filter2_d" x="47.9653" y="29.2075" width="24.4732" height="65.2283" filterUnits="userSpaceOnUse" color-interpolation-filters="sRGB">
<feFlood flood-opacity="0" result="BackgroundImageFix"/>
<feColorMatrix in="SourceAlpha" type="matrix" values="0 0 0 0 0 0 0 0 0 0 0 0 0 0 0 0 0 0 127 0"/>
<feOffset dy="4"/>
<feGaussianBlur stdDeviation="2"/>
<feColorMatrix type="matrix" values="0 0 0 0 0 0 0 0 0 0 0 0 0 0 0 0 0 0 0.25 0"/>
<feBlend mode="normal" in2="BackgroundImageFix" result="effect1_dropShadow"/>
<feBlend mode="normal" in="SourceGraphic" in2="effect1_dropShadow" result="shape"/>
</filter>
<filter id="filter3_d" x="43.2861" y="25.1997" width="15.2253" height="67.9875" filterUnits="userSpaceOnUse" color-interpolation-filters="sRGB">
<feFlood flood-opacity="0" result="BackgroundImageFix"/>
<feColorMatrix in="SourceAlpha" type="matrix" values="0 0 0 0 0 0 0 0 0 0 0 0 0 0 0 0 0 0 127 0"/>
<feOffset dy="4"/>
<feGaussianBlur stdDeviation="2"/>
<feColorMatrix type="matrix" values="0 0 0 0 0 0 0 0 0 0 0 0 0 0 0 0 0 0 0.25 0"/>
<feBlend mode="normal" in2="BackgroundImageFix" result="effect1_dropShadow"/>
<feBlend mode="normal" in="SourceGraphic" in2="effect1_dropShadow" result="shape"/>
</filter>
<filter id="filter4_d" x="33.0174" y="24.6279" width="16.9639" height="68.5866" filterUnits="userSpaceOnUse" color-interpolation-filters="sRGB">
<feFlood flood-opacity="0" result="BackgroundImageFix"/>
<feColorMatrix in="SourceAlpha" type="matrix" values="0 0 0 0 0 0 0 0 0 0 0 0 0 0 0 0 0 0 127 0"/>
<feOffset dy="4"/>
<feGaussianBlur stdDeviation="2"/>
<feColorMatrix type="matrix" values="0 0 0 0 0 0 0 0 0 0 0 0 0 0 0 0 0 0 0.25 0"/>
<feBlend mode="normal" in2="BackgroundImageFix" result="effect1_dropShadow"/>
<feBlend mode="normal" in="SourceGraphic" in2="effect1_dropShadow" result="shape"/>
</filter>
<filter id="filter5_d" x="20.455" y="26.8115" width="27.5522" height="67.301" filterUnits="userSpaceOnUse" color-interpolation-filters="sRGB">
<feFlood flood-opacity="0" result="BackgroundImageFix"/>
<feColorMatrix in="SourceAlpha" type="matrix" values="0 0 0 0 0 0 0 0 0 0 0 0 0 0 0 0 0 0 127 0"/>
<feOffset dy="4"/>
<feGaussianBlur stdDeviation="2"/>
<feColorMatrix type="matrix" values="0 0 0 0 0 0 0 0 0 0 0 0 0 0 0 0 0 0 0.25 0"/>
<feBlend mode="normal" in2="BackgroundImageFix" result="effect1_dropShadow"/>
<feBlend mode="normal" in="SourceGraphic" in2="effect1_dropShadow" result="shape"/>
</filter>
<filter id="filter6_d" x="10.0461" y="31.0151" width="36.1601" height="63.6058" filterUnits="userSpaceOnUse" color-interpolation-filters="sRGB">
<feFlood flood-opacity="0" result="BackgroundImageFix"/>
<feColorMatrix in="SourceAlpha" type="matrix" values="0 0 0 0 0 0 0 0 0 0 0 0 0 0 0 0 0 0 127 0"/>
<feOffset dy="4"/>
<feGaussianBlur stdDeviation="2"/>
<feColorMatrix type="matrix" values="0 0 0 0 0 0 0 0 0 0 0 0 0 0 0 0 0 0 0.25 0"/>
<feBlend mode="normal" in2="BackgroundImageFix" result="effect1_dropShadow"/>
<feBlend mode="normal" in="SourceGraphic" in2="effect1_dropShadow" result="shape"/>
</filter>
<filter id="filter7_d" x="30.2343" y="0.452637" width="43.8548" height="35.7316" filterUnits="userSpaceOnUse" color-interpolation-filters="sRGB">
<feFlood flood-opacity="0" result="BackgroundImageFix"/>
<feColorMatrix in="SourceAlpha" type="matrix" values="0 0 0 0 0 0 0 0 0 0 0 0 0 0 0 0 0 0 127 0"/>
<feOffset dy="4"/>
<feGaussianBlur stdDeviation="2"/>
<feColorMatrix type="matrix" values="0 0 0 0 0 0 0 0 0 0 0 0 0 0 0 0 0 0 0.25 0"/>
<feBlend mode="normal" in2="BackgroundImageFix" result="effect1_dropShadow"/>
<feBlend mode="normal" in="SourceGraphic" in2="effect1_dropShadow" result="shape"/>
</filter>
<filter id="filter8_d" x="2.71332" y="1.90283" width="29.3191" height="41.1691" filterUnits="userSpaceOnUse" color-interpolation-filters="sRGB">
<feFlood flood-opacity="0" result="BackgroundImageFix"/>
<feColorMatrix in="SourceAlpha" type="matrix" values="0 0 0 0 0 0 0 0 0 0 0 0 0 0 0 0 0 0 127 0"/>
<feOffset dy="4"/>
<feGaussianBlur stdDeviation="2"/>
<feColorMatrix type="matrix" values="0 0 0 0 0 0 0 0 0 0 0 0 0 0 0 0 0 0 0.25 0"/>
<feBlend mode="normal" in2="BackgroundImageFix" result="effect1_dropShadow"/>
<feBlend mode="normal" in="SourceGraphic" in2="effect1_dropShadow" result="shape"/>
</filter>
<filter id="filter9_d" x="1.55023" y="22.5659" width="72.3449" height="29.7503" filterUnits="userSpaceOnUse" color-interpolation-filters="sRGB">
<feFlood flood-opacity="0" result="BackgroundImageFix"/>
<feColorMatrix in="SourceAlpha" type="matrix" values="0 0 0 0 0 0 0 0 0 0 0 0 0 0 0 0 0 0 127 0"/>
<feOffset dy="4"/>
<feGaussianBlur stdDeviation="2"/>
<feColorMatrix type="matrix" values="0 0 0 0 0 0 0 0 0 0 0 0 0 0 0 0 0 0 0.25 0"/>
<feBlend mode="normal" in2="BackgroundImageFix" result="effect1_dropShadow"/>
<feBlend mode="normal" in="SourceGraphic" in2="effect1_dropShadow" result="shape"/>
</filter>
<filter id="filter10_d" x="15.5048" y="24.0156" width="27.2841" height="28.3002" filterUnits="userSpaceOnUse" color-interpolation-filters="sRGB">
<feFlood flood-opacity="0" result="BackgroundImageFix"/>
<feColorMatrix in="SourceAlpha" type="matrix" values="0 0 0 0 0 0 0 0 0 0 0 0 0 0 0 0 0 0 127 0"/>
<feOffset dy="4"/>
<feGaussianBlur stdDeviation="2"/>
<feColorMatrix type="matrix" values="0 0 0 0 0 0 0 0 0 0 0 0 0 0 0 0 0 0 0.25 0"/>
<feBlend mode="normal" in2="BackgroundImageFix" result="effect1_dropShadow"/>
<feBlend mode="normal" in="SourceGraphic" in2="effect1_dropShadow" result="shape"/>
</filter>
<filter id="filter11_d" x="17.3256" y="84.5405" width="66.027" height="42.9686" filterUnits="userSpaceOnUse" color-interpolation-filters="sRGB">
<feFlood flood-opacity="0" result="BackgroundImageFix"/>
<feColorMatrix in="SourceAlpha" type="matrix" values="0 0 0 0 0 0 0 0 0 0 0 0 0 0 0 0 0 0 127 0"/>
<feOffset dy="4"/>
<feGaussianBlur stdDeviation="2"/>
<feColorMatrix type="matrix" values="0 0 0 0 0 0 0 0 0 0 0 0 0 0 0 0 0 0 0.25 0"/>
<feBlend mode="normal" in2="BackgroundImageFix" result="effect1_dropShadow"/>
<feBlend mode="normal" in="SourceGraphic" in2="effect1_dropShadow" result="shape"/>
</filter>
<filter id="filter12_d" x="2.8335" y="16.3965" width="69.8542" height="20.5116" filterUnits="userSpaceOnUse" color-interpolation-filters="sRGB">
<feFlood flood-opacity="0" result="BackgroundImageFix"/>
<feColorMatrix in="SourceAlpha" type="matrix" values="0 0 0 0 0 0 0 0 0 0 0 0 0 0 0 0 0 0 127 0"/>
<feOffset dy="4"/>
<feGaussianBlur stdDeviation="2"/>
<feColorMatrix type="matrix" values="0 0 0 0 0 0 0 0 0 0 0 0 0 0 0 0 0 0 0.25 0"/>
<feBlend mode="normal" in2="BackgroundImageFix" result="effect1_dropShadow"/>
<feBlend mode="normal" in="SourceGraphic" in2="effect1_dropShadow" result="shape"/>
</filter>
<filter id="filter13_d" x="0.0144653" y="0" width="49.9444" height="46.0629" filterUnits="userSpaceOnUse" color-interpolation-filters="sRGB">
<feFlood flood-opacity="0" result="BackgroundImageFix"/>
<feColorMatrix in="SourceAlpha" type="matrix" values="0 0 0 0 0 0 0 0 0 0 0 0 0 0 0 0 0 0 127 0"/>
<feOffset dy="4"/>
<feGaussianBlur stdDeviation="2"/>
<feColorMatrix type="matrix" values="0 0 0 0 0 0 0 0 0 0 0 0 0 0 0 0 0 0 0.25 0"/>
<feBlend mode="normal" in2="BackgroundImageFix" result="effect1_dropShadow"/>
<feBlend mode="normal" in="SourceGraphic" in2="effect1_dropShadow" result="shape"/>
</filter>
<filter id="filter14_d" x="53.5886" y="23.8096" width="20.3796" height="23.7032" filterUnits="userSpaceOnUse" color-interpolation-filters="sRGB">
<feFlood flood-opacity="0" result="BackgroundImageFix"/>
<feColorMatrix in="SourceAlpha" type="matrix" values="0 0 0 0 0 0 0 0 0 0 0 0 0 0 0 0 0 0 127 0"/>
<feOffset dy="4"/>
<feGaussianBlur stdDeviation="2"/>
<feColorMatrix type="matrix" values="0 0 0 0 0 0 0 0 0 0 0 0 0 0 0 0 0 0 0.25 0"/>
<feBlend mode="normal" in2="BackgroundImageFix" result="effect1_dropShadow"/>
<feBlend mode="normal" in="SourceGraphic" in2="effect1_dropShadow" result="shape"/>
</filter>
<filter id="filter15_d" x="21.8692" y="85.3335" width="26.2055" height="34.3709" filterUnits="userSpaceOnUse" color-interpolation-filters="sRGB">
<feFlood flood-opacity="0" result="BackgroundImageFix"/>
<feColorMatrix in="SourceAlpha" type="matrix" values="0 0 0 0 0 0 0 0 0 0 0 0 0 0 0 0 0 0 127 0"/>
<feOffset dy="4"/>
<feGaussianBlur stdDeviation="2"/>
<feColorMatrix type="matrix" values="0 0 0 0 0 0 0 0 0 0 0 0 0 0 0 0 0 0 0.25 0"/>
<feBlend mode="normal" in2="BackgroundImageFix" result="effect1_dropShadow"/>
<feBlend mode="normal" in="SourceGraphic" in2="effect1_dropShadow" result="shape"/>
</filter>
<filter id="filter16_d" x="23.4847" y="94.6509" width="49.3704" height="16.8246" filterUnits="userSpaceOnUse" color-interpolation-filters="sRGB">
<feFlood flood-opacity="0" result="BackgroundImageFix"/>
<feColorMatrix in="SourceAlpha" type="matrix" values="0 0 0 0 0 0 0 0 0 0 0 0 0 0 0 0 0 0 127 0"/>
<feOffset dy="4"/>
<feGaussianBlur stdDeviation="2"/>
<feColorMatrix type="matrix" values="0 0 0 0 0 0 0 0 0 0 0 0 0 0 0 0 0 0 0.25 0"/>
<feBlend mode="normal" in2="BackgroundImageFix" result="effect1_dropShadow"/>
<feBlend mode="normal" in="SourceGraphic" in2="effect1_dropShadow" result="shape"/>
</filter>
<filter id="filter17_d" x="20.9315" y="98.873" width="17.6905" height="15.9751" filterUnits="userSpaceOnUse" color-interpolation-filters="sRGB">
<feFlood flood-opacity="0" result="BackgroundImageFix"/>
<feColorMatrix in="SourceAlpha" type="matrix" values="0 0 0 0 0 0 0 0 0 0 0 0 0 0 0 0 0 0 127 0"/>
<feOffset dy="4"/>
<feGaussianBlur stdDeviation="2"/>
<feColorMatrix type="matrix" values="0 0 0 0 0 0 0 0 0 0 0 0 0 0 0 0 0 0 0.25 0"/>
<feBlend mode="normal" in2="BackgroundImageFix" result="effect1_dropShadow"/>
<feBlend mode="normal" in="SourceGraphic" in2="effect1_dropShadow" result="shape"/>
</filter>
<linearGradient id="paint0_linear" x1="60.2019" y1="29.4556" x2="60.2019" y2="86.1875" gradientUnits="userSpaceOnUse">
<stop stop-color="#2B004C"/>
<stop offset="1" stop-color="#5F06A5"/>
</linearGradient>
<linearGradient id="paint1_linear" x1="50.8987" y1="25.2866" x2="50.8987" y2="85.0998" gradientUnits="userSpaceOnUse">
<stop stop-color="#2B004C"/>
<stop offset="1" stop-color="#5F06A5"/>
</linearGradient>
<linearGradient id="paint2_linear" x1="41.4994" y1="24.7427" x2="41.4994" y2="85.0996" gradientUnits="userSpaceOnUse">
<stop stop-color="#2B004C"/>
<stop offset="1" stop-color="#5F06A5"/>
</linearGradient>
<linearGradient id="paint3_linear" x1="34.2311" y1="27.0991" x2="34.2311" y2="85.8248" gradientUnits="userSpaceOnUse">
<stop stop-color="#2B004C"/>
<stop offset="1" stop-color="#5F06A5"/>
</linearGradient>
<linearGradient id="paint4_linear" x1="22.8933" y1="37.249" x2="22.8933" y2="87.2746" gradientUnits="userSpaceOnUse">
<stop stop-color="#2B004C"/>
<stop offset="1" stop-color="#5F06A5"/>
</linearGradient>
<linearGradient id="paint5_linear" x1="28.1262" y1="31.4492" x2="28.1262" y2="86.1874" gradientUnits="userSpaceOnUse">
<stop stop-color="#2B004C"/>
<stop offset="1" stop-color="#5F06A5"/>
</linearGradient>
<linearGradient id="paint6_linear" x1="55.4535" y1="38.6992" x2="55.4535" y2="86.006" gradientUnits="userSpaceOnUse">
<stop stop-color="#2B004C"/>
<stop offset="1" stop-color="#5F06A5"/>
</linearGradient>
<linearGradient id="paint7_linear" x1="55.7472" y1="14.4091" x2="52.5892" y2="28.2815" gradientUnits="userSpaceOnUse">
<stop stop-color="#635DB5"/>
<stop offset="1" stop-color="#635DB5" stop-opacity="0"/>
</linearGradient>
<linearGradient id="paint8_linear" x1="17.3729" y1="1.90283" x2="17.3729" y2="35.072" gradientUnits="userSpaceOnUse">
<stop offset="0.313187" stop-color="#635DB5"/>
<stop offset="1" stop-color="#635DB5" stop-opacity="0"/>
</linearGradient>
<linearGradient id="paint9_linear" x1="27.2572" y1="21.75" x2="28.9112" y2="44.3331" gradientUnits="userSpaceOnUse">
<stop offset="0.0928956" stop-color="#635DB5" stop-opacity="0"/>
<stop offset="1" stop-color="#635DB5"/>
</linearGradient>
<linearGradient id="paint10_linear" x1="65.4378" y1="118.086" x2="31.4647" y2="91.6307" gradientUnits="userSpaceOnUse">
<stop offset="0.0459218" stop-color="#11105D"/>
<stop offset="0.556473" stop-color="#845BB8"/>
<stop offset="1" stop-color="#A65EAB"/>
</linearGradient>
<linearGradient id="paint11_linear" x1="63.1752" y1="24.0157" x2="63.1752" y2="38.7878" gradientUnits="userSpaceOnUse">
<stop stop-color="#635DB5" stop-opacity="0"/>
<stop offset="0.879414" stop-color="#635DB5"/>
</linearGradient>
<radialGradient id="paint12_radial" cx="0" cy="0" r="1" gradientUnits="userSpaceOnUse" gradientTransform="translate(41.2116 95.6107) rotate(128.526) scale(20.3251 7.32277)">
<stop stop-color="#C450D3"/>
<stop offset="1" stop-color="#F183FF" stop-opacity="0.35"/>
</radialGradient>
<linearGradient id="paint13_linear" x1="29.7768" y1="98.873" x2="29.7768" y2="106.848" gradientUnits="userSpaceOnUse">
<stop stop-color="#120F5F"/>
<stop offset="1" stop-color="#8B79CF"/>
</linearGradient>
</defs>
</svg>
