<svg width="83" height="122" viewBox="0 0 83 122" fill="none" xmlns="http://www.w3.org/2000/svg">
<path d="M29.9158 111.815L28.2901 117.975H26.9512" stroke="black"/>
<path d="M43.6865 110.618L42.0608 116.777H40.722" stroke="black"/>
<path d="M57.7442 108.735L59.5272 114.895H60.9956" stroke="black"/>
<g filter="url(#filter0_d)">
<path d="M69.4107 106.854L71.928 113.013H74.001" stroke="black"/>
</g>
<g filter="url(#filter1_d)">
<path d="M7.14732 34.0512L5.81337 37.5568C5.81337 37.5568 4 34.3932 4 30.2054C4 26.0176 4.81301 25.5153 5.33395 22.5101C5.33395 22.5101 7.73763 15.8034 10.6698 12.2496C13.84 8.40731 16.3868 6.66462 20.9602 4.2123C23.7043 2.74092 25.3258 1.94443 28.3922 1.13418C31.2798 0.371192 33.0049 0.135821 36.0148 0.108134C39.2457 0.0784139 40.7997 -0.02674 43.9262 0.704805C48.3425 1.73813 51.6175 2.53609 55.0663 5.21851C57.4734 7.09066 59.7308 8.87751 61.5534 11.2217C63.9052 14.2465 65.2422 16.2607 66.9845 19.6011C68.6506 22.7954 69.4618 26.8689 68.7949 28.1515C68.1279 29.434 65.3617 25.0752 65.3617 25.0752L56.7863 22.5101L45.3525 21.655L34.2997 22.5101L21.5003 26.1785L13.1471 29.0083L7.14732 34.0512Z" fill="#373188"/>
</g>
<g filter="url(#filter2_d)">
<path d="M52.29 81.3606L66.6345 27.8057" stroke="url(#paint0_linear)" stroke-width="2"/>
</g>
<g filter="url(#filter3_d)">
<path d="M47.6997 80.3348L52.8637 23.8711" stroke="url(#paint1_linear)" stroke-width="2"/>
</g>
<g filter="url(#filter4_d)">
<path d="M44.4484 80.3344L37.563 23.3574" stroke="url(#paint2_linear)" stroke-width="2"/>
</g>
<g filter="url(#filter5_d)">
<path d="M25.1313 25.5815L42.5359 81.0186" stroke="url(#paint3_linear)" stroke-width="2"/>
</g>
<path d="M6.76996 35.1636L38.5191 82.3878" stroke="url(#paint4_linear)" stroke-width="2"/>
<g filter="url(#filter6_d)">
<path d="M14.8032 29.688L40.8145 81.3608" stroke="url(#paint5_linear)" stroke-width="2"/>
</g>
<path d="M59.5578 36.5322L49.9948 81.1899" stroke="url(#paint6_linear)" stroke-width="2"/>
<g filter="url(#filter7_d)">
<path d="M51.0393 15.0232C52.3845 17.5899 53.3002 21.5407 53.3002 21.5407C53.3002 21.5407 58.7345 22.331 61.8524 23.1013C64.741 23.8149 69.2197 26.6064 69.2197 26.6064C69.2197 26.6064 66.3876 19.0932 64.5065 16.5838C62.6255 14.0744 61.1552 11.1987 59.2741 8.68935C57.3931 6.17996 54.6174 4.96458 51.0393 3.18161C47.4896 1.41275 41.8973 0.427734 41.8973 0.427734H33.8366C35.7177 1.00131 36.6873 1.2539 38.7517 2.44724C40.816 3.64058 44.0412 5.6155 46.714 8.68935C48.6944 10.9668 49.6583 12.3882 51.0393 15.0232Z" fill="url(#paint7_linear)"/>
</g>
<g filter="url(#filter8_d)">
<path d="M24.911 11.6234C23.9635 17.5076 24.911 26.8457 24.911 26.8457C24.911 26.8457 19.133 28.5142 15.4167 29.5434C11.8011 30.5447 6.67761 33.1081 6.67761 33.1081C6.67761 33.1081 7.31816 22.6066 10.1301 16.7297C11.8056 13.2278 13.1309 10.9211 16.1719 8.25141C19.8277 5.04213 27.7162 1.79639 27.7162 1.79639C27.7162 1.79639 25.49 8.02815 24.911 11.6234Z" fill="url(#paint8_linear)"/>
</g>
<g filter="url(#filter9_d)">
<path d="M69.0283 27.7763C69.0283 32.3915 65.7769 37.4167 41.1044 40.8177C10.5985 43.49 5.53009 40.5577 5.53009 35.9425C5.53009 31.3272 22.6607 23.2347 37.2724 21.7814C54.5137 20.0666 69.0283 23.1611 69.0283 27.7763Z" fill="#21206E"/>
</g>
<g filter="url(#filter10_d)">
<path d="M38.3312 40.7222C36.1317 41.2355 26.5833 41.4334 19.3008 41.8343V26.5207C19.3008 26.5207 22.0263 25.2802 26.1862 24.0397C30.3461 22.7992 33.8366 22.6709 33.8366 22.6709L38.3312 40.7222Z" fill="url(#paint9_linear)" fill-opacity="0.8"/>
</g>
<g filter="url(#filter11_d)">
<path d="M42.7191 79.9561C49.5088 79.3904 50.4925 80.5018 53.5381 81.923C64.1319 86.8661 78.1132 101.121 78.1132 103.003C78.1132 104.885 82.4883 107.161 54.4816 110.583C26.3704 114.018 22.7635 113.064 21.2024 110.583C19.6413 108.102 35.9294 80.5218 42.7191 79.9561Z" fill="url(#paint10_linear)"/>
</g>
<g filter="url(#filter12_d)">
<path d="M7.63385 25.5796C7.63385 25.5796 18.4853 20.711 26.0119 19.1077C32.945 17.6308 37.0509 17.4494 44.1924 17.4045C49.6851 17.37 52.8783 17.1638 58.223 18.2561C61.8093 18.989 67.1156 20.9811 67.1156 20.9811" stroke="#1C1572" stroke-width="4"/>
</g>
<g filter="url(#filter13_d)">
<path d="M7.71478 31.5551L5.10406 35.9315C5.10406 35.9315 3.89585 32.6715 4.02377 29.4296C4.15168 26.1876 4.36566 26.4787 5.10406 23.3119C5.72693 20.6406 6.47347 18.9786 7.71478 16.5114C9.13287 13.6928 10.543 12.3155 12.7562 10.0095C14.6327 8.05425 15.3398 7.58894 17.5875 6.1097L17.6742 6.05268C20.3917 4.26411 22.9237 2.86804 24.5494 2.39543C26.1751 1.92282 28.5965 0.648086 31.1212 0.471397C33.1918 0.326492 34.5688 -2.39234e-06 38.3232 0C40.2358 0 45.4068 1.02661 45.4068 1.02661H38.8083C35.6078 1.02661 33.2676 1.33033 30.131 1.93109C27.8633 2.3654 26.6742 2.94869 24.5494 3.82015C22.6717 4.59028 21.5681 4.97028 19.8681 6.05268C18.2094 7.10883 17.4861 7.96426 15.9971 9.22975C14.6781 10.3507 13.8474 11.4251 12.7562 12.7503C11.3966 14.4014 10.4555 16.6189 9.69533 18.5892C9.01806 20.3448 8.89326 21.4601 8.61503 23.3119C7.80481 28.7043 7.71478 31.5551 7.71478 31.5551Z" fill="#C4C4C4" fill-opacity="0.7"/>
</g>
<g filter="url(#filter14_d)">
<path d="M56.8836 22.5001L57.7443 37.3004C57.7443 37.3004 65.8728 34.5628 67.3073 32.5094C68.7417 30.456 69.3155 28.5742 69.0286 27.2054C68.7417 25.8366 66.9203 25.3575 65.3947 24.2967C62.2835 22.1332 56.8836 22.5001 56.8836 22.5001Z" fill="url(#paint11_linear)"/>
</g>
<g filter="url(#filter15_d)">
<path d="M38.8618 96.305C35.3848 102.356 30.6241 106.368 28.2286 105.267C25.833 104.165 22.9346 102.747 30.1866 92.3156C33.6636 86.2644 40.2388 79.573 42.6344 80.6747C45.03 81.7763 42.3388 90.2538 38.8618 96.305Z" fill="url(#paint12_radial)"/>
</g>
<g filter="url(#filter16_d)">
<path d="M27.6205 96.3307C27.6205 96.3307 39.524 92.7412 44.547 92.0017C48.5439 91.4133 54.8434 90.8964 58.8915 90.7699C61.3548 90.6929 67.6894 92.0017 67.6894 92.0017" stroke="#2C2980" stroke-width="3"/>
</g>
<g filter="url(#filter17_d)">
<path d="M28.5594 94.5341L24.6561 100.865C24.6561 100.865 29.6377 99.9221 31.682 97.9562C33.2207 96.4765 34.2191 93.3364 34.2191 93.3364L28.5594 94.5341Z" fill="url(#paint13_linear)"/>
</g>
<defs>
<filter id="filter0_d" x="64.9479" y="106.665" width="13.0531" height="14.8488" filterUnits="userSpaceOnUse" color-interpolation-filters="sRGB">
<feFlood flood-opacity="0" result="BackgroundImageFix"/>
<feColorMatrix in="SourceAlpha" type="matrix" values="0 0 0 0 0 0 0 0 0 0 0 0 0 0 0 0 0 0 127 0"/>
<feOffset dy="4"/>
<feGaussianBlur stdDeviation="2"/>
<feColorMatrix type="matrix" values="0 0 0 0 0 0 0 0 0 0 0 0 0 0 0 0 0 0 0.25 0"/>
<feBlend mode="normal" in2="BackgroundImageFix" result="effect1_dropShadow"/>
<feBlend mode="normal" in="SourceGraphic" in2="effect1_dropShadow" result="shape"/>
</filter>
<filter id="filter1_d" x="0" y="0.0854492" width="73.0283" height="45.4714" filterUnits="userSpaceOnUse" color-interpolation-filters="sRGB">
<feFlood flood-opacity="0" result="BackgroundImageFix"/>
<feColorMatrix in="SourceAlpha" type="matrix" values="0 0 0 0 0 0 0 0 0 0 0 0 0 0 0 0 0 0 127 0"/>
<feOffset dy="4"/>
<feGaussianBlur stdDeviation="2"/>
<feColorMatrix type="matrix" values="0 0 0 0 0 0 0 0 0 0 0 0 0 0 0 0 0 0 0.25 0"/>
<feBlend mode="normal" in2="BackgroundImageFix" result="effect1_dropShadow"/>
<feBlend mode="normal" in="SourceGraphic" in2="effect1_dropShadow" result="shape"/>
</filter>
<filter id="filter2_d" x="47.324" y="27.5469" width="24.2764" height="62.0724" filterUnits="userSpaceOnUse" color-interpolation-filters="sRGB">
<feFlood flood-opacity="0" result="BackgroundImageFix"/>
<feColorMatrix in="SourceAlpha" type="matrix" values="0 0 0 0 0 0 0 0 0 0 0 0 0 0 0 0 0 0 127 0"/>
<feOffset dy="4"/>
<feGaussianBlur stdDeviation="2"/>
<feColorMatrix type="matrix" values="0 0 0 0 0 0 0 0 0 0 0 0 0 0 0 0 0 0 0.25 0"/>
<feBlend mode="normal" in2="BackgroundImageFix" result="effect1_dropShadow"/>
<feBlend mode="normal" in="SourceGraphic" in2="effect1_dropShadow" result="shape"/>
</filter>
<filter id="filter3_d" x="42.7039" y="23.7798" width="15.1557" height="64.6459" filterUnits="userSpaceOnUse" color-interpolation-filters="sRGB">
<feFlood flood-opacity="0" result="BackgroundImageFix"/>
<feColorMatrix in="SourceAlpha" type="matrix" values="0 0 0 0 0 0 0 0 0 0 0 0 0 0 0 0 0 0 127 0"/>
<feOffset dy="4"/>
<feGaussianBlur stdDeviation="2"/>
<feColorMatrix type="matrix" values="0 0 0 0 0 0 0 0 0 0 0 0 0 0 0 0 0 0 0.25 0"/>
<feBlend mode="normal" in2="BackgroundImageFix" result="effect1_dropShadow"/>
<feBlend mode="normal" in="SourceGraphic" in2="effect1_dropShadow" result="shape"/>
</filter>
<filter id="filter4_d" x="32.5703" y="23.2373" width="16.8709" height="65.217" filterUnits="userSpaceOnUse" color-interpolation-filters="sRGB">
<feFlood flood-opacity="0" result="BackgroundImageFix"/>
<feColorMatrix in="SourceAlpha" type="matrix" values="0 0 0 0 0 0 0 0 0 0 0 0 0 0 0 0 0 0 127 0"/>
<feOffset dy="4"/>
<feGaussianBlur stdDeviation="2"/>
<feColorMatrix type="matrix" values="0 0 0 0 0 0 0 0 0 0 0 0 0 0 0 0 0 0 0.25 0"/>
<feBlend mode="normal" in2="BackgroundImageFix" result="effect1_dropShadow"/>
<feBlend mode="normal" in="SourceGraphic" in2="effect1_dropShadow" result="shape"/>
</filter>
<filter id="filter5_d" x="20.1772" y="25.2822" width="27.3128" height="64.0362" filterUnits="userSpaceOnUse" color-interpolation-filters="sRGB">
<feFlood flood-opacity="0" result="BackgroundImageFix"/>
<feColorMatrix in="SourceAlpha" type="matrix" values="0 0 0 0 0 0 0 0 0 0 0 0 0 0 0 0 0 0 127 0"/>
<feOffset dy="4"/>
<feGaussianBlur stdDeviation="2"/>
<feColorMatrix type="matrix" values="0 0 0 0 0 0 0 0 0 0 0 0 0 0 0 0 0 0 0.25 0"/>
<feBlend mode="normal" in2="BackgroundImageFix" result="effect1_dropShadow"/>
<feBlend mode="normal" in="SourceGraphic" in2="effect1_dropShadow" result="shape"/>
</filter>
<filter id="filter6_d" x="9.91003" y="29.2383" width="35.7977" height="60.5721" filterUnits="userSpaceOnUse" color-interpolation-filters="sRGB">
<feFlood flood-opacity="0" result="BackgroundImageFix"/>
<feColorMatrix in="SourceAlpha" type="matrix" values="0 0 0 0 0 0 0 0 0 0 0 0 0 0 0 0 0 0 127 0"/>
<feOffset dy="4"/>
<feGaussianBlur stdDeviation="2"/>
<feColorMatrix type="matrix" values="0 0 0 0 0 0 0 0 0 0 0 0 0 0 0 0 0 0 0.25 0"/>
<feBlend mode="normal" in2="BackgroundImageFix" result="effect1_dropShadow"/>
<feBlend mode="normal" in="SourceGraphic" in2="effect1_dropShadow" result="shape"/>
</filter>
<filter id="filter7_d" x="29.8366" y="0.427734" width="43.383" height="34.1786" filterUnits="userSpaceOnUse" color-interpolation-filters="sRGB">
<feFlood flood-opacity="0" result="BackgroundImageFix"/>
<feColorMatrix in="SourceAlpha" type="matrix" values="0 0 0 0 0 0 0 0 0 0 0 0 0 0 0 0 0 0 127 0"/>
<feOffset dy="4"/>
<feGaussianBlur stdDeviation="2"/>
<feColorMatrix type="matrix" values="0 0 0 0 0 0 0 0 0 0 0 0 0 0 0 0 0 0 0.25 0"/>
<feBlend mode="normal" in2="BackgroundImageFix" result="effect1_dropShadow"/>
<feBlend mode="normal" in="SourceGraphic" in2="effect1_dropShadow" result="shape"/>
</filter>
<filter id="filter8_d" x="2.67761" y="1.79639" width="29.0386" height="39.3117" filterUnits="userSpaceOnUse" color-interpolation-filters="sRGB">
<feFlood flood-opacity="0" result="BackgroundImageFix"/>
<feColorMatrix in="SourceAlpha" type="matrix" values="0 0 0 0 0 0 0 0 0 0 0 0 0 0 0 0 0 0 127 0"/>
<feOffset dy="4"/>
<feGaussianBlur stdDeviation="2"/>
<feColorMatrix type="matrix" values="0 0 0 0 0 0 0 0 0 0 0 0 0 0 0 0 0 0 0.25 0"/>
<feBlend mode="normal" in2="BackgroundImageFix" result="effect1_dropShadow"/>
<feBlend mode="normal" in="SourceGraphic" in2="effect1_dropShadow" result="shape"/>
</filter>
<filter id="filter9_d" x="1.53009" y="21.3022" width="71.4982" height="28.5323" filterUnits="userSpaceOnUse" color-interpolation-filters="sRGB">
<feFlood flood-opacity="0" result="BackgroundImageFix"/>
<feColorMatrix in="SourceAlpha" type="matrix" values="0 0 0 0 0 0 0 0 0 0 0 0 0 0 0 0 0 0 127 0"/>
<feOffset dy="4"/>
<feGaussianBlur stdDeviation="2"/>
<feColorMatrix type="matrix" values="0 0 0 0 0 0 0 0 0 0 0 0 0 0 0 0 0 0 0.25 0"/>
<feBlend mode="normal" in2="BackgroundImageFix" result="effect1_dropShadow"/>
<feBlend mode="normal" in="SourceGraphic" in2="effect1_dropShadow" result="shape"/>
</filter>
<filter id="filter10_d" x="15.3008" y="22.6709" width="27.0303" height="27.1634" filterUnits="userSpaceOnUse" color-interpolation-filters="sRGB">
<feFlood flood-opacity="0" result="BackgroundImageFix"/>
<feColorMatrix in="SourceAlpha" type="matrix" values="0 0 0 0 0 0 0 0 0 0 0 0 0 0 0 0 0 0 127 0"/>
<feOffset dy="4"/>
<feGaussianBlur stdDeviation="2"/>
<feColorMatrix type="matrix" values="0 0 0 0 0 0 0 0 0 0 0 0 0 0 0 0 0 0 0.25 0"/>
<feBlend mode="normal" in2="BackgroundImageFix" result="effect1_dropShadow"/>
<feBlend mode="normal" in="SourceGraphic" in2="effect1_dropShadow" result="shape"/>
</filter>
<filter id="filter11_d" x="17.0976" y="79.8057" width="65.2635" height="41.0104" filterUnits="userSpaceOnUse" color-interpolation-filters="sRGB">
<feFlood flood-opacity="0" result="BackgroundImageFix"/>
<feColorMatrix in="SourceAlpha" type="matrix" values="0 0 0 0 0 0 0 0 0 0 0 0 0 0 0 0 0 0 127 0"/>
<feOffset dy="4"/>
<feGaussianBlur stdDeviation="2"/>
<feColorMatrix type="matrix" values="0 0 0 0 0 0 0 0 0 0 0 0 0 0 0 0 0 0 0.25 0"/>
<feBlend mode="normal" in2="BackgroundImageFix" result="effect1_dropShadow"/>
<feBlend mode="normal" in="SourceGraphic" in2="effect1_dropShadow" result="shape"/>
</filter>
<filter id="filter12_d" x="2.81549" y="15.3662" width="69.0028" height="20.0383" filterUnits="userSpaceOnUse" color-interpolation-filters="sRGB">
<feFlood flood-opacity="0" result="BackgroundImageFix"/>
<feColorMatrix in="SourceAlpha" type="matrix" values="0 0 0 0 0 0 0 0 0 0 0 0 0 0 0 0 0 0 127 0"/>
<feOffset dy="4"/>
<feGaussianBlur stdDeviation="2"/>
<feColorMatrix type="matrix" values="0 0 0 0 0 0 0 0 0 0 0 0 0 0 0 0 0 0 0.25 0"/>
<feBlend mode="normal" in2="BackgroundImageFix" result="effect1_dropShadow"/>
<feBlend mode="normal" in="SourceGraphic" in2="effect1_dropShadow" result="shape"/>
</filter>
<filter id="filter13_d" x="0.0142822" y="0" width="49.3925" height="43.9315" filterUnits="userSpaceOnUse" color-interpolation-filters="sRGB">
<feFlood flood-opacity="0" result="BackgroundImageFix"/>
<feColorMatrix in="SourceAlpha" type="matrix" values="0 0 0 0 0 0 0 0 0 0 0 0 0 0 0 0 0 0 127 0"/>
<feOffset dy="4"/>
<feGaussianBlur stdDeviation="2"/>
<feColorMatrix type="matrix" values="0 0 0 0 0 0 0 0 0 0 0 0 0 0 0 0 0 0 0.25 0"/>
<feBlend mode="normal" in2="BackgroundImageFix" result="effect1_dropShadow"/>
<feBlend mode="normal" in="SourceGraphic" in2="effect1_dropShadow" result="shape"/>
</filter>
<filter id="filter14_d" x="52.8836" y="22.4766" width="20.2167" height="22.8239" filterUnits="userSpaceOnUse" color-interpolation-filters="sRGB">
<feFlood flood-opacity="0" result="BackgroundImageFix"/>
<feColorMatrix in="SourceAlpha" type="matrix" values="0 0 0 0 0 0 0 0 0 0 0 0 0 0 0 0 0 0 127 0"/>
<feOffset dy="4"/>
<feGaussianBlur stdDeviation="2"/>
<feColorMatrix type="matrix" values="0 0 0 0 0 0 0 0 0 0 0 0 0 0 0 0 0 0 0.25 0"/>
<feBlend mode="normal" in2="BackgroundImageFix" result="effect1_dropShadow"/>
<feBlend mode="normal" in="SourceGraphic" in2="effect1_dropShadow" result="shape"/>
</filter>
<filter id="filter15_d" x="21.5813" y="80.5547" width="25.966" height="32.8941" filterUnits="userSpaceOnUse" color-interpolation-filters="sRGB">
<feFlood flood-opacity="0" result="BackgroundImageFix"/>
<feColorMatrix in="SourceAlpha" type="matrix" values="0 0 0 0 0 0 0 0 0 0 0 0 0 0 0 0 0 0 127 0"/>
<feOffset dy="4"/>
<feGaussianBlur stdDeviation="2"/>
<feColorMatrix type="matrix" values="0 0 0 0 0 0 0 0 0 0 0 0 0 0 0 0 0 0 0.25 0"/>
<feBlend mode="normal" in2="BackgroundImageFix" result="effect1_dropShadow"/>
<feBlend mode="normal" in="SourceGraphic" in2="effect1_dropShadow" result="shape"/>
</filter>
<filter id="filter16_d" x="23.1877" y="89.2666" width="48.8051" height="16.5001" filterUnits="userSpaceOnUse" color-interpolation-filters="sRGB">
<feFlood flood-opacity="0" result="BackgroundImageFix"/>
<feColorMatrix in="SourceAlpha" type="matrix" values="0 0 0 0 0 0 0 0 0 0 0 0 0 0 0 0 0 0 127 0"/>
<feOffset dy="4"/>
<feGaussianBlur stdDeviation="2"/>
<feColorMatrix type="matrix" values="0 0 0 0 0 0 0 0 0 0 0 0 0 0 0 0 0 0 0.25 0"/>
<feBlend mode="normal" in2="BackgroundImageFix" result="effect1_dropShadow"/>
<feBlend mode="normal" in="SourceGraphic" in2="effect1_dropShadow" result="shape"/>
</filter>
<filter id="filter17_d" x="20.6561" y="93.3364" width="17.563" height="15.5285" filterUnits="userSpaceOnUse" color-interpolation-filters="sRGB">
<feFlood flood-opacity="0" result="BackgroundImageFix"/>
<feColorMatrix in="SourceAlpha" type="matrix" values="0 0 0 0 0 0 0 0 0 0 0 0 0 0 0 0 0 0 127 0"/>
<feOffset dy="4"/>
<feGaussianBlur stdDeviation="2"/>
<feColorMatrix type="matrix" values="0 0 0 0 0 0 0 0 0 0 0 0 0 0 0 0 0 0 0.25 0"/>
<feBlend mode="normal" in2="BackgroundImageFix" result="effect1_dropShadow"/>
<feBlend mode="normal" in="SourceGraphic" in2="effect1_dropShadow" result="shape"/>
</filter>
<linearGradient id="paint0_linear" x1="59.4622" y1="27.8057" x2="59.4622" y2="81.3606" gradientUnits="userSpaceOnUse">
<stop stop-color="#2B004C"/>
<stop offset="1" stop-color="#5F06A5"/>
</linearGradient>
<linearGradient id="paint1_linear" x1="50.2817" y1="23.8711" x2="50.2817" y2="80.3348" gradientUnits="userSpaceOnUse">
<stop stop-color="#2B004C"/>
<stop offset="1" stop-color="#5F06A5"/>
</linearGradient>
<linearGradient id="paint2_linear" x1="41.0057" y1="23.3574" x2="41.0057" y2="80.3344" gradientUnits="userSpaceOnUse">
<stop stop-color="#2B004C"/>
<stop offset="1" stop-color="#5F06A5"/>
</linearGradient>
<linearGradient id="paint3_linear" x1="33.8336" y1="25.5815" x2="33.8336" y2="81.0186" gradientUnits="userSpaceOnUse">
<stop stop-color="#2B004C"/>
<stop offset="1" stop-color="#5F06A5"/>
</linearGradient>
<linearGradient id="paint4_linear" x1="22.6445" y1="35.1636" x2="22.6445" y2="82.3878" gradientUnits="userSpaceOnUse">
<stop stop-color="#2B004C"/>
<stop offset="1" stop-color="#5F06A5"/>
</linearGradient>
<linearGradient id="paint5_linear" x1="27.8089" y1="29.688" x2="27.8089" y2="81.3608" gradientUnits="userSpaceOnUse">
<stop stop-color="#2B004C"/>
<stop offset="1" stop-color="#5F06A5"/>
</linearGradient>
<linearGradient id="paint6_linear" x1="54.7763" y1="36.5322" x2="54.7763" y2="81.1899" gradientUnits="userSpaceOnUse">
<stop stop-color="#2B004C"/>
<stop offset="1" stop-color="#5F06A5"/>
</linearGradient>
<linearGradient id="paint7_linear" x1="55.0664" y1="13.6026" x2="52.2027" y2="26.7533" gradientUnits="userSpaceOnUse">
<stop stop-color="#635DB5"/>
<stop offset="1" stop-color="#635DB5" stop-opacity="0"/>
</linearGradient>
<linearGradient id="paint8_linear" x1="17.1969" y1="1.79639" x2="17.1969" y2="33.1081" gradientUnits="userSpaceOnUse">
<stop offset="0.313187" stop-color="#635DB5"/>
<stop offset="1" stop-color="#635DB5" stop-opacity="0"/>
</linearGradient>
<linearGradient id="paint9_linear" x1="26.9512" y1="20.5321" x2="28.4455" y2="41.8603" gradientUnits="userSpaceOnUse">
<stop offset="0.0928956" stop-color="#635DB5" stop-opacity="0"/>
<stop offset="1" stop-color="#635DB5"/>
</linearGradient>
<linearGradient id="paint10_linear" x1="64.6294" y1="111.473" x2="32.2383" y2="85.1048" gradientUnits="userSpaceOnUse">
<stop offset="0.0459218" stop-color="#11105D"/>
<stop offset="0.556473" stop-color="#845BB8"/>
<stop offset="1" stop-color="#A65EAB"/>
</linearGradient>
<linearGradient id="paint11_linear" x1="62.3967" y1="22.6712" x2="62.3967" y2="36.616" gradientUnits="userSpaceOnUse">
<stop stop-color="#635DB5" stop-opacity="0"/>
<stop offset="0.879414" stop-color="#635DB5"/>
</linearGradient>
<radialGradient id="paint12_radial" cx="0" cy="0" r="1" gradientUnits="userSpaceOnUse" gradientTransform="translate(40.7218 90.2563) rotate(129.771) scale(19.5294 7.09971)">
<stop stop-color="#C450D3"/>
<stop offset="1" stop-color="#F183FF" stop-opacity="0.35"/>
</radialGradient>
<linearGradient id="paint13_linear" x1="29.4376" y1="93.3364" x2="29.4376" y2="100.865" gradientUnits="userSpaceOnUse">
<stop stop-color="#120F5F"/>
<stop offset="1" stop-color="#8B79CF"/>
</linearGradient>
</defs>
</svg>
